<svg width="434" height="30" viewBox="0 0 434 30" fill="none" xmlns="http://www.w3.org/2000/svg">
<g clip-path="url(#clip0_110_506)">
<path d="M94.4569 6.10877C135.682 5.23011 176.93 4.66525 218.178 4.41421C259.426 4.16316 300.292 4.24684 341.338 4.64433C364.655 4.87446 387.994 5.18827 411.311 5.60668L414.476 1.31797C361.244 2.17571 308.035 3.24266 254.825 4.51881C201.616 5.79496 148.407 7.28032 95.1975 8.9958C65.3276 9.95814 35.4802 10.9623 5.61025 12.0502C3.8598 12.113 1.23412 12.5314 0.246689 14.1213C-0.673421 15.6067 1.03215 16.3807 2.44598 16.3389C57.8994 15.0209 113.398 14.8954 168.874 15.9832C224.349 17.0711 279.78 19.3933 335.144 22.9079C366.248 24.8745 397.33 27.2385 428.367 29.9791C430.05 30.1255 432.833 29.3514 433.731 27.9079C434.718 26.3389 432.878 25.795 431.531 25.6904C376.302 20.8159 320.939 17.1339 265.53 14.6653C210.121 12.1966 154.623 10.9623 99.1473 10.9414C67.9757 10.9414 36.8042 11.2971 5.6327 12.0502L2.46842 16.3389C55.6552 14.3933 108.865 12.6778 162.074 11.1506C215.283 9.64433 268.492 8.32634 321.702 7.23848C351.571 6.63178 381.464 6.06693 411.334 5.58576C413.084 5.56484 415.732 5.08366 416.697 3.51463C417.662 1.94559 415.889 1.31797 414.498 1.29705C373.228 0.585756 332.002 0.146425 290.754 0.0418228C249.507 -0.0627797 208.64 0.125505 167.594 0.648517C144.277 0.941404 120.938 1.33889 97.6212 1.84099C95.8708 1.88283 93.2226 2.34308 92.2577 3.91212C91.3375 5.39747 93.0431 6.17153 94.4569 6.12969V6.10877Z" fill="black"/>
</g>
<defs>
<clipPath id="clip0_110_506">
<rect width="434" height="30" fill="white"/>
</clipPath>
</defs>
</svg>
