<svg width="393" height="852" viewBox="0 0 393 852" fill="none" xmlns="http://www.w3.org/2000/svg">
<rect width="393" height="852" fill="white"/>
<path d="M36.867 111.7V114.54H41.447V117.18H36.867V120.26H42.047V123H33.447V108.96H42.047V111.7H36.867ZM49.2873 119.8L51.7073 111.84H55.3473L51.3873 123H47.1673L43.2073 111.84H46.8673L49.2873 119.8ZM67.3069 117.24C67.3069 117.56 67.2869 117.893 67.2469 118.24H59.5069C59.5602 118.933 59.7802 119.467 60.1669 119.84C60.5669 120.2 61.0535 120.38 61.6269 120.38C62.4802 120.38 63.0735 120.02 63.4069 119.3H67.0469C66.8602 120.033 66.5202 120.693 66.0269 121.28C65.5469 121.867 64.9402 122.327 64.2069 122.66C63.4735 122.993 62.6535 123.16 61.7469 123.16C60.6535 123.16 59.6802 122.927 58.8269 122.46C57.9735 121.993 57.3069 121.327 56.8269 120.46C56.3469 119.593 56.1069 118.58 56.1069 117.42C56.1069 116.26 56.3402 115.247 56.8069 114.38C57.2869 113.513 57.9535 112.847 58.8069 112.38C59.6602 111.913 60.6402 111.68 61.7469 111.68C62.8269 111.68 63.7869 111.907 64.6269 112.36C65.4669 112.813 66.1202 113.46 66.5869 114.3C67.0669 115.14 67.3069 116.12 67.3069 117.24ZM63.8069 116.34C63.8069 115.753 63.6069 115.287 63.2069 114.94C62.8069 114.593 62.3069 114.42 61.7069 114.42C61.1335 114.42 60.6469 114.587 60.2469 114.92C59.8602 115.253 59.6202 115.727 59.5269 116.34H63.8069ZM75.9111 111.72C77.2178 111.72 78.2578 112.147 79.0311 113C79.8178 113.84 80.2111 115 80.2111 116.48V123H76.8111V116.94C76.8111 116.193 76.6178 115.613 76.2311 115.2C75.8444 114.787 75.3244 114.58 74.6711 114.58C74.0178 114.58 73.4978 114.787 73.1111 115.2C72.7244 115.613 72.5311 116.193 72.5311 116.94V123H69.1111V111.84H72.5311V113.32C72.8778 112.827 73.3444 112.44 73.9311 112.16C74.5178 111.867 75.1778 111.72 75.9111 111.72ZM88.8077 120.1V123H87.0677C85.8277 123 84.861 122.7 84.1677 122.1C83.4743 121.487 83.1277 120.493 83.1277 119.12V114.68H81.7677V111.84H83.1277V109.12H86.5477V111.84H88.7877V114.68H86.5477V119.16C86.5477 119.493 86.6277 119.733 86.7877 119.88C86.9477 120.027 87.2143 120.1 87.5877 120.1H88.8077ZM95.7927 123.16C94.6993 123.16 93.7127 122.927 92.8327 122.46C91.966 121.993 91.2793 121.327 90.7727 120.46C90.2793 119.593 90.0327 118.58 90.0327 117.42C90.0327 116.273 90.286 115.267 90.7927 114.4C91.2993 113.52 91.9927 112.847 92.8727 112.38C93.7527 111.913 94.7393 111.68 95.8327 111.68C96.926 111.68 97.9127 111.913 98.7927 112.38C99.6727 112.847 100.366 113.52 100.873 114.4C101.379 115.267 101.633 116.273 101.633 117.42C101.633 118.567 101.373 119.58 100.853 120.46C100.346 121.327 99.646 121.993 98.7527 122.46C97.8727 122.927 96.886 123.16 95.7927 123.16ZM95.7927 120.2C96.446 120.2 96.9993 119.96 97.4527 119.48C97.9193 119 98.1527 118.313 98.1527 117.42C98.1527 116.527 97.926 115.84 97.4727 115.36C97.0327 114.88 96.486 114.64 95.8327 114.64C95.166 114.64 94.6127 114.88 94.1727 115.36C93.7327 115.827 93.5127 116.513 93.5127 117.42C93.5127 118.313 93.726 119 94.1527 119.48C94.5927 119.96 95.1393 120.2 95.7927 120.2ZM107.987 123.16C107.014 123.16 106.147 122.993 105.387 122.66C104.627 122.327 104.027 121.873 103.587 121.3C103.147 120.713 102.9 120.06 102.847 119.34H106.227C106.267 119.727 106.447 120.04 106.767 120.28C107.087 120.52 107.48 120.64 107.947 120.64C108.374 120.64 108.7 120.56 108.927 120.4C109.167 120.227 109.287 120.007 109.287 119.74C109.287 119.42 109.12 119.187 108.787 119.04C108.454 118.88 107.914 118.707 107.167 118.52C106.367 118.333 105.7 118.14 105.167 117.94C104.634 117.727 104.174 117.4 103.787 116.96C103.4 116.507 103.207 115.9 103.207 115.14C103.207 114.5 103.38 113.92 103.727 113.4C104.087 112.867 104.607 112.447 105.287 112.14C105.98 111.833 106.8 111.68 107.747 111.68C109.147 111.68 110.247 112.027 111.047 112.72C111.86 113.413 112.327 114.333 112.447 115.48H109.287C109.234 115.093 109.06 114.787 108.767 114.56C108.487 114.333 108.114 114.22 107.647 114.22C107.247 114.22 106.94 114.3 106.727 114.46C106.514 114.607 106.407 114.813 106.407 115.08C106.407 115.4 106.574 115.64 106.907 115.8C107.254 115.96 107.787 116.12 108.507 116.28C109.334 116.493 110.007 116.707 110.527 116.92C111.047 117.12 111.5 117.453 111.887 117.92C112.287 118.373 112.494 118.987 112.507 119.76C112.507 120.413 112.32 121 111.947 121.52C111.587 122.027 111.06 122.427 110.367 122.72C109.687 123.013 108.894 123.16 107.987 123.16ZM118.158 117.4C118.158 116.253 118.371 115.247 118.798 114.38C119.238 113.513 119.831 112.847 120.578 112.38C121.324 111.913 122.158 111.68 123.078 111.68C123.811 111.68 124.478 111.833 125.078 112.14C125.691 112.447 126.171 112.86 126.518 113.38V108.2H129.938V123H126.518V121.4C126.198 121.933 125.738 122.36 125.138 122.68C124.551 123 123.864 123.16 123.078 123.16C122.158 123.16 121.324 122.927 120.578 122.46C119.831 121.98 119.238 121.307 118.798 120.44C118.371 119.56 118.158 118.547 118.158 117.4ZM126.518 117.42C126.518 116.567 126.278 115.893 125.798 115.4C125.331 114.907 124.758 114.66 124.078 114.66C123.398 114.66 122.818 114.907 122.338 115.4C121.871 115.88 121.638 116.547 121.638 117.4C121.638 118.253 121.871 118.933 122.338 119.44C122.818 119.933 123.398 120.18 124.078 120.18C124.758 120.18 125.331 119.933 125.798 119.44C126.278 118.947 126.518 118.273 126.518 117.42ZM137.492 123.16C136.399 123.16 135.412 122.927 134.532 122.46C133.665 121.993 132.979 121.327 132.472 120.46C131.979 119.593 131.732 118.58 131.732 117.42C131.732 116.273 131.985 115.267 132.492 114.4C132.999 113.52 133.692 112.847 134.572 112.38C135.452 111.913 136.439 111.68 137.532 111.68C138.625 111.68 139.612 111.913 140.492 112.38C141.372 112.847 142.065 113.52 142.572 114.4C143.079 115.267 143.332 116.273 143.332 117.42C143.332 118.567 143.072 119.58 142.552 120.46C142.045 121.327 141.345 121.993 140.452 122.46C139.572 122.927 138.585 123.16 137.492 123.16ZM137.492 120.2C138.145 120.2 138.699 119.96 139.152 119.48C139.619 119 139.852 118.313 139.852 117.42C139.852 116.527 139.625 115.84 139.172 115.36C138.732 114.88 138.185 114.64 137.532 114.64C136.865 114.64 136.312 114.88 135.872 115.36C135.432 115.827 135.212 116.513 135.212 117.42C135.212 118.313 135.425 119 135.852 119.48C136.292 119.96 136.839 120.2 137.492 120.2ZM163.625 111.72C165.011 111.72 166.111 112.14 166.925 112.98C167.751 113.82 168.165 114.987 168.165 116.48V123H164.765V116.94C164.765 116.22 164.571 115.667 164.185 115.28C163.811 114.88 163.291 114.68 162.625 114.68C161.958 114.68 161.431 114.88 161.045 115.28C160.671 115.667 160.485 116.22 160.485 116.94V123H157.085V116.94C157.085 116.22 156.891 115.667 156.505 115.28C156.131 114.88 155.611 114.68 154.945 114.68C154.278 114.68 153.751 114.88 153.365 115.28C152.991 115.667 152.805 116.22 152.805 116.94V123H149.385V111.84H152.805V113.24C153.151 112.773 153.605 112.407 154.165 112.14C154.725 111.86 155.358 111.72 156.065 111.72C156.905 111.72 157.651 111.9 158.305 112.26C158.971 112.62 159.491 113.133 159.865 113.8C160.251 113.187 160.778 112.687 161.445 112.3C162.111 111.913 162.838 111.72 163.625 111.72ZM181.076 117.24C181.076 117.56 181.056 117.893 181.016 118.24H173.276C173.33 118.933 173.55 119.467 173.936 119.84C174.336 120.2 174.823 120.38 175.396 120.38C176.25 120.38 176.843 120.02 177.176 119.3H180.816C180.63 120.033 180.29 120.693 179.796 121.28C179.316 121.867 178.71 122.327 177.976 122.66C177.243 122.993 176.423 123.16 175.516 123.16C174.423 123.16 173.45 122.927 172.596 122.46C171.743 121.993 171.076 121.327 170.596 120.46C170.116 119.593 169.876 118.58 169.876 117.42C169.876 116.26 170.11 115.247 170.576 114.38C171.056 113.513 171.723 112.847 172.576 112.38C173.43 111.913 174.41 111.68 175.516 111.68C176.596 111.68 177.556 111.907 178.396 112.36C179.236 112.813 179.89 113.46 180.356 114.3C180.836 115.14 181.076 116.12 181.076 117.24ZM177.576 116.34C177.576 115.753 177.376 115.287 176.976 114.94C176.576 114.593 176.076 114.42 175.476 114.42C174.903 114.42 174.416 114.587 174.016 114.92C173.63 115.253 173.39 115.727 173.296 116.34H177.576ZM175.476 109.36L172.376 111V108.64L175.476 107.06L178.576 108.64V111L175.476 109.36ZM187.421 123.16C186.447 123.16 185.581 122.993 184.821 122.66C184.061 122.327 183.461 121.873 183.021 121.3C182.581 120.713 182.334 120.06 182.281 119.34H185.661C185.701 119.727 185.881 120.04 186.201 120.28C186.521 120.52 186.914 120.64 187.381 120.64C187.807 120.64 188.134 120.56 188.361 120.4C188.601 120.227 188.721 120.007 188.721 119.74C188.721 119.42 188.554 119.187 188.221 119.04C187.887 118.88 187.347 118.707 186.601 118.52C185.801 118.333 185.134 118.14 184.601 117.94C184.067 117.727 183.607 117.4 183.221 116.96C182.834 116.507 182.641 115.9 182.641 115.14C182.641 114.5 182.814 113.92 183.161 113.4C183.521 112.867 184.041 112.447 184.721 112.14C185.414 111.833 186.234 111.68 187.181 111.68C188.581 111.68 189.681 112.027 190.481 112.72C191.294 113.413 191.761 114.333 191.881 115.48H188.721C188.667 115.093 188.494 114.787 188.201 114.56C187.921 114.333 187.547 114.22 187.081 114.22C186.681 114.22 186.374 114.3 186.161 114.46C185.947 114.607 185.841 114.813 185.841 115.08C185.841 115.4 186.007 115.64 186.341 115.8C186.687 115.96 187.221 116.12 187.941 116.28C188.767 116.493 189.441 116.707 189.961 116.92C190.481 117.12 190.934 117.453 191.321 117.92C191.721 118.373 191.927 118.987 191.941 119.76C191.941 120.413 191.754 121 191.381 121.52C191.021 122.027 190.494 122.427 189.801 122.72C189.121 123.013 188.327 123.16 187.421 123.16Z" fill="black"/>
<path d="M157.119 199.68H155.279V208H151.859V199.68H150.619V196.84H151.859V196.52C151.859 195.147 152.253 194.107 153.039 193.4C153.826 192.68 154.979 192.32 156.499 192.32C156.753 192.32 156.939 192.327 157.059 192.34V195.24C156.406 195.2 155.946 195.293 155.679 195.52C155.413 195.747 155.279 196.153 155.279 196.74V196.84H157.119V199.68ZM169.246 202.24C169.246 202.56 169.226 202.893 169.186 203.24H161.446C161.5 203.933 161.72 204.467 162.106 204.84C162.506 205.2 162.993 205.38 163.566 205.38C164.42 205.38 165.013 205.02 165.346 204.3H168.986C168.8 205.033 168.46 205.693 167.966 206.28C167.486 206.867 166.88 207.327 166.146 207.66C165.413 207.993 164.593 208.16 163.686 208.16C162.593 208.16 161.62 207.927 160.766 207.46C159.913 206.993 159.246 206.327 158.766 205.46C158.286 204.593 158.046 203.58 158.046 202.42C158.046 201.26 158.28 200.247 158.746 199.38C159.226 198.513 159.893 197.847 160.746 197.38C161.6 196.913 162.58 196.68 163.686 196.68C164.766 196.68 165.726 196.907 166.566 197.36C167.406 197.813 168.06 198.46 168.526 199.3C169.006 200.14 169.246 201.12 169.246 202.24ZM165.746 201.34C165.746 200.753 165.546 200.287 165.146 199.94C164.746 199.593 164.246 199.42 163.646 199.42C163.073 199.42 162.586 199.587 162.186 199.92C161.8 200.253 161.56 200.727 161.466 201.34H165.746ZM176.071 204.8L178.491 196.84H182.131L178.171 208H173.951L169.991 196.84H173.651L176.071 204.8ZM194.09 202.24C194.09 202.56 194.07 202.893 194.03 203.24H186.29C186.343 203.933 186.563 204.467 186.95 204.84C187.35 205.2 187.837 205.38 188.41 205.38C189.263 205.38 189.857 205.02 190.19 204.3H193.83C193.643 205.033 193.303 205.693 192.81 206.28C192.33 206.867 191.723 207.327 190.99 207.66C190.257 207.993 189.437 208.16 188.53 208.16C187.437 208.16 186.463 207.927 185.61 207.46C184.757 206.993 184.09 206.327 183.61 205.46C183.13 204.593 182.89 203.58 182.89 202.42C182.89 201.26 183.123 200.247 183.59 199.38C184.07 198.513 184.737 197.847 185.59 197.38C186.443 196.913 187.423 196.68 188.53 196.68C189.61 196.68 190.57 196.907 191.41 197.36C192.25 197.813 192.903 198.46 193.37 199.3C193.85 200.14 194.09 201.12 194.09 202.24ZM190.59 201.34C190.59 200.753 190.39 200.287 189.99 199.94C189.59 199.593 189.09 199.42 188.49 199.42C187.917 199.42 187.43 199.587 187.03 199.92C186.643 200.253 186.403 200.727 186.31 201.34H190.59ZM199.314 198.7C199.714 198.087 200.214 197.607 200.814 197.26C201.414 196.9 202.081 196.72 202.814 196.72V200.34H201.874C201.021 200.34 200.381 200.527 199.954 200.9C199.528 201.26 199.314 201.9 199.314 202.82V208H195.894V196.84H199.314V198.7ZM214.969 202.24C214.969 202.56 214.949 202.893 214.909 203.24H207.169C207.222 203.933 207.442 204.467 207.829 204.84C208.229 205.2 208.716 205.38 209.289 205.38C210.142 205.38 210.736 205.02 211.069 204.3H214.709C214.522 205.033 214.182 205.693 213.689 206.28C213.209 206.867 212.602 207.327 211.869 207.66C211.136 207.993 210.316 208.16 209.409 208.16C208.316 208.16 207.342 207.927 206.489 207.46C205.636 206.993 204.969 206.327 204.489 205.46C204.009 204.593 203.769 203.58 203.769 202.42C203.769 201.26 204.002 200.247 204.469 199.38C204.949 198.513 205.616 197.847 206.469 197.38C207.322 196.913 208.302 196.68 209.409 196.68C210.489 196.68 211.449 196.907 212.289 197.36C213.129 197.813 213.782 198.46 214.249 199.3C214.729 200.14 214.969 201.12 214.969 202.24ZM211.469 201.34C211.469 200.753 211.269 200.287 210.869 199.94C210.469 199.593 209.969 199.42 209.369 199.42C208.796 199.42 208.309 199.587 207.909 199.92C207.522 200.253 207.282 200.727 207.189 201.34H211.469ZM218.493 195.68C217.893 195.68 217.4 195.507 217.013 195.16C216.64 194.8 216.453 194.36 216.453 193.84C216.453 193.307 216.64 192.867 217.013 192.52C217.4 192.16 217.893 191.98 218.493 191.98C219.08 191.98 219.56 192.16 219.933 192.52C220.32 192.867 220.513 193.307 220.513 193.84C220.513 194.36 220.32 194.8 219.933 195.16C219.56 195.507 219.08 195.68 218.493 195.68ZM220.193 196.84V208H216.773V196.84H220.193ZM226.092 198.7C226.492 198.087 226.992 197.607 227.592 197.26C228.192 196.9 228.858 196.72 229.592 196.72V200.34H228.652C227.798 200.34 227.158 200.527 226.732 200.9C226.305 201.26 226.092 201.9 226.092 202.82V208H222.672V196.84H226.092V198.7ZM236.306 208.16C235.213 208.16 234.226 207.927 233.346 207.46C232.48 206.993 231.793 206.327 231.286 205.46C230.793 204.593 230.546 203.58 230.546 202.42C230.546 201.273 230.8 200.267 231.306 199.4C231.813 198.52 232.506 197.847 233.386 197.38C234.266 196.913 235.253 196.68 236.346 196.68C237.44 196.68 238.426 196.913 239.306 197.38C240.186 197.847 240.88 198.52 241.386 199.4C241.893 200.267 242.146 201.273 242.146 202.42C242.146 203.567 241.886 204.58 241.366 205.46C240.86 206.327 240.16 206.993 239.266 207.46C238.386 207.927 237.4 208.16 236.306 208.16ZM236.306 205.2C236.96 205.2 237.513 204.96 237.966 204.48C238.433 204 238.666 203.313 238.666 202.42C238.666 201.527 238.44 200.84 237.986 200.36C237.546 199.88 237 199.64 236.346 199.64C235.68 199.64 235.126 199.88 234.686 200.36C234.246 200.827 234.026 201.513 234.026 202.42C234.026 203.313 234.24 204 234.666 204.48C235.106 204.96 235.653 205.2 236.306 205.2Z" fill="black"/>
<path d="M359 189L368 200.5L359 213" stroke="black"/>
<path d="M41 189L32 200.5L41 213" stroke="black"/>
<rect width="393" height="72" fill="white"/>
<path d="M35.9187 45.105C35.1487 45.105 34.4587 44.98 33.8487 44.73C33.2387 44.48 32.7487 44.11 32.3787 43.62C32.0187 43.13 31.8287 42.54 31.8087 41.85H34.5387C34.5787 42.24 34.7137 42.54 34.9437 42.75C35.1737 42.95 35.4737 43.05 35.8437 43.05C36.2237 43.05 36.5237 42.965 36.7437 42.795C36.9637 42.615 37.0737 42.37 37.0737 42.06C37.0737 41.8 36.9837 41.585 36.8037 41.415C36.6337 41.245 36.4187 41.105 36.1587 40.995C35.9087 40.885 35.5487 40.76 35.0787 40.62C34.3987 40.41 33.8437 40.2 33.4137 39.99C32.9837 39.78 32.6137 39.47 32.3037 39.06C31.9937 38.65 31.8387 38.115 31.8387 37.455C31.8387 36.475 32.1937 35.71 32.9037 35.16C33.6137 34.6 34.5387 34.32 35.6787 34.32C36.8387 34.32 37.7737 34.6 38.4837 35.16C39.1937 35.71 39.5737 36.48 39.6237 37.47H36.8487C36.8287 37.13 36.7037 36.865 36.4737 36.675C36.2437 36.475 35.9487 36.375 35.5887 36.375C35.2787 36.375 35.0287 36.46 34.8387 36.63C34.6487 36.79 34.5537 37.025 34.5537 37.335C34.5537 37.675 34.7137 37.94 35.0337 38.13C35.3537 38.32 35.8537 38.525 36.5337 38.745C37.2137 38.975 37.7637 39.195 38.1837 39.405C38.6137 39.615 38.9837 39.92 39.2937 40.32C39.6037 40.72 39.7587 41.235 39.7587 41.865C39.7587 42.465 39.6037 43.01 39.2937 43.5C38.9937 43.99 38.5537 44.38 37.9737 44.67C37.3937 44.96 36.7087 45.105 35.9187 45.105ZM43.8572 34.47V40.77C43.8572 41.4 44.0122 41.885 44.3222 42.225C44.6322 42.565 45.0872 42.735 45.6872 42.735C46.2872 42.735 46.7472 42.565 47.0672 42.225C47.3872 41.885 47.5472 41.4 47.5472 40.77V34.47H50.1122V40.755C50.1122 41.695 49.9122 42.49 49.5122 43.14C49.1122 43.79 48.5722 44.28 47.8922 44.61C47.2222 44.94 46.4722 45.105 45.6422 45.105C44.8122 45.105 44.0672 44.945 43.4072 44.625C42.7572 44.295 42.2422 43.805 41.8622 43.155C41.4822 42.495 41.2922 41.695 41.2922 40.755V34.47H43.8572ZM58.4684 43.14H54.5384L53.9084 45H51.2234L55.0334 34.47H58.0034L61.8134 45H59.0984L58.4684 43.14ZM57.8084 41.16L56.5034 37.305L55.2134 41.16H57.8084ZM69.963 37.8C69.773 37.45 69.498 37.185 69.138 37.005C68.788 36.815 68.373 36.72 67.893 36.72C67.063 36.72 66.398 36.995 65.898 37.545C65.398 38.085 65.148 38.81 65.148 39.72C65.148 40.69 65.408 41.45 65.928 42C66.458 42.54 67.183 42.81 68.103 42.81C68.733 42.81 69.263 42.65 69.693 42.33C70.133 42.01 70.453 41.55 70.653 40.95H67.398V39.06H72.978V41.445C72.788 42.085 72.463 42.68 72.003 43.23C71.553 43.78 70.978 44.225 70.278 44.565C69.578 44.905 68.788 45.075 67.908 45.075C66.868 45.075 65.938 44.85 65.118 44.4C64.308 43.94 63.673 43.305 63.213 42.495C62.763 41.685 62.538 40.76 62.538 39.72C62.538 38.68 62.763 37.755 63.213 36.945C63.673 36.125 64.308 35.49 65.118 35.04C65.928 34.58 66.853 34.35 67.893 34.35C69.153 34.35 70.213 34.655 71.073 35.265C71.943 35.875 72.518 36.72 72.798 37.8H69.963ZM76.9638 36.525V38.655H80.3988V40.635H76.9638V42.945H80.8488V45H74.3988V34.47H80.8488V36.525H76.9638ZM91.934 45H89.369L85.079 38.505V45H82.514V34.47H85.079L89.369 40.995V34.47H91.934V45ZM97.7383 34.47C98.8483 34.47 99.8183 34.69 100.648 35.13C101.478 35.57 102.118 36.19 102.568 36.99C103.028 37.78 103.258 38.695 103.258 39.735C103.258 40.765 103.028 41.68 102.568 42.48C102.118 43.28 101.473 43.9 100.633 44.34C99.8033 44.78 98.8383 45 97.7383 45H93.7933V34.47H97.7383ZM97.5733 42.78C98.5433 42.78 99.2983 42.515 99.8383 41.985C100.378 41.455 100.648 40.705 100.648 39.735C100.648 38.765 100.378 38.01 99.8383 37.47C99.2983 36.93 98.5433 36.66 97.5733 36.66H96.3583V42.78H97.5733ZM111.247 43.14H107.317L106.687 45H104.002L107.812 34.47H110.782L114.592 45H111.877L111.247 43.14ZM110.587 41.16L109.282 37.305L107.992 41.16H110.587Z" fill="black"/>
<path d="M334.276 42.9445C333.786 42.1023 333.202 40.4953 333.202 37.625V37.0148C333.202 33.0187 329.996 29.7445 326.052 29.7188H326C325.053 29.7187 324.115 29.9056 323.24 30.2686C322.365 30.6316 321.571 31.1636 320.902 31.8341C320.233 32.5047 319.703 33.3006 319.342 34.1763C318.981 35.052 318.796 35.9903 318.798 36.9375V37.625C318.798 40.4953 318.214 42.1023 317.724 42.9445C317.574 43.2063 317.495 43.5029 317.495 43.8047C317.495 44.1065 317.575 44.403 317.725 44.6647C317.875 44.9264 318.092 45.1441 318.352 45.2961C318.613 45.4481 318.909 45.5292 319.211 45.5312H322.236C322.326 46.4675 322.761 47.3367 323.457 47.9693C324.153 48.6019 325.059 48.9524 326 48.9524C326.94 48.9524 327.847 48.6019 328.543 47.9693C329.239 47.3367 329.674 46.4675 329.764 45.5312H332.789C333.091 45.5292 333.387 45.4481 333.648 45.2961C333.908 45.1441 334.125 44.9264 334.275 44.6647C334.425 44.403 334.505 44.1065 334.505 43.8047C334.505 43.5029 334.426 43.2063 334.276 42.9445ZM326 46.9062C325.604 46.9047 325.221 46.7673 324.914 46.517C324.608 46.2667 324.396 45.9187 324.316 45.5312H327.684C327.604 45.9187 327.392 46.2667 327.086 46.517C326.779 46.7673 326.396 46.9047 326 46.9062ZM319.778 43.4687C320.663 41.6125 320.861 39.3008 320.861 37.625V36.9375C320.858 36.2609 320.988 35.5902 321.245 34.9642C321.502 34.3382 321.88 33.7692 322.357 33.29C322.835 32.8107 323.403 32.4307 324.028 32.1718C324.653 31.9128 325.323 31.7801 326 31.7812H326.043C328.853 31.7984 331.139 34.1445 331.139 37.0148V37.625C331.139 39.3008 331.337 41.6125 332.222 43.4687H319.778Z" fill="black"/>
<path d="M359 29C357.687 29 356.386 29.2587 355.173 29.7612C353.96 30.2638 352.858 31.0003 351.929 31.9289C350.054 33.8043 349 36.3478 349 39C349 41.6522 350.054 44.1957 351.929 46.0711C352.858 46.9997 353.96 47.7362 355.173 48.2388C356.386 48.7413 357.687 49 359 49C361.652 49 364.196 47.9464 366.071 46.0711C367.946 44.1957 369 41.6522 369 39C369 37.6868 368.741 36.3864 368.239 35.1732C367.736 33.9599 367 32.8575 366.071 31.9289C365.142 31.0003 364.04 30.2638 362.827 29.7612C361.614 29.2587 360.313 29 359 29ZM354.07 45.28C354.5 44.38 357.12 43.5 359 43.5C360.88 43.5 363.5 44.38 363.93 45.28C362.529 46.396 360.791 47.0026 359 47C357.14 47 355.43 46.36 354.07 45.28ZM365.36 43.83C363.93 42.09 360.46 41.5 359 41.5C357.54 41.5 354.07 42.09 352.64 43.83C351.576 42.4446 351 40.7467 351 39C351 34.59 354.59 31 359 31C363.41 31 367 34.59 367 39C367 40.82 366.38 42.5 365.36 43.83ZM359 33C357.06 33 355.5 34.56 355.5 36.5C355.5 38.44 357.06 40 359 40C360.94 40 362.5 38.44 362.5 36.5C362.5 34.56 360.94 33 359 33ZM359 38C358.602 38 358.221 37.842 357.939 37.5607C357.658 37.2794 357.5 36.8978 357.5 36.5C357.5 36.1022 357.658 35.7206 357.939 35.4393C358.221 35.158 358.602 35 359 35C359.398 35 359.779 35.158 360.061 35.4393C360.342 35.7206 360.5 36.1022 360.5 36.5C360.5 36.8978 360.342 37.2794 360.061 37.5607C359.779 37.842 359.398 38 359 38Z" fill="black"/>
<rect x="176" y="259" width="41" height="55" fill="#D9D9D9"/>
<rect x="225" y="259" width="41" height="55" fill="#AAAAAA"/>
<rect x="274" y="259" width="41" height="55" fill="#D9D9D9"/>
<rect x="323" y="259" width="41" height="55" fill="#D9D9D9"/>
<rect x="28" y="328" width="41.1429" height="55" fill="#D9D9D9"/>
<rect x="77.1429" y="328" width="41.1429" height="55" fill="#D9D9D9"/>
<rect x="126.286" y="328" width="41.1429" height="55" fill="#D9D9D9"/>
<rect x="175.429" y="328" width="41.1429" height="55" fill="#D9D9D9"/>
<rect x="224.571" y="328" width="41.1429" height="55" fill="#D9D9D9"/>
<rect x="273.714" y="328" width="41.1429" height="55" fill="#D9D9D9"/>
<rect x="322.857" y="328" width="41.1429" height="55" fill="#D9D9D9"/>
<rect x="28" y="397" width="41.1429" height="55" fill="#D9D9D9"/>
<rect x="77.1429" y="397" width="41.1429" height="55" fill="#D9D9D9"/>
<rect x="126.286" y="397" width="41.1429" height="55" fill="#D9D9D9"/>
<rect x="175.429" y="397" width="41.1429" height="55" fill="#D9D9D9"/>
<rect x="224.571" y="397" width="41.1429" height="55" fill="#D9D9D9"/>
<rect x="273.714" y="397" width="41.1429" height="55" fill="#D9D9D9"/>
<rect x="322.857" y="397" width="41.1429" height="55" fill="#D9D9D9"/>
<rect x="28" y="466" width="41.1429" height="55" fill="#D9D9D9"/>
<rect x="77.1429" y="466" width="41.1429" height="55" fill="#D9D9D9"/>
<rect x="126.286" y="466" width="41.1429" height="55" fill="#D9D9D9"/>
<rect x="175.429" y="466" width="41.1429" height="55" fill="#D9D9D9"/>
<rect x="224.571" y="466" width="41.1429" height="55" fill="#D9D9D9"/>
<rect x="273.714" y="466" width="41.1429" height="55" fill="#D9D9D9"/>
<rect x="322.857" y="466" width="41.1429" height="55" fill="#D9D9D9"/>
<rect x="28" y="535" width="41" height="55" fill="#D9D9D9"/>
<rect x="77" y="535" width="41" height="55" fill="#D9D9D9"/>
<rect x="126" y="535" width="41" height="55" fill="#D9D9D9"/>
<rect x="28" y="642" width="336" height="169" fill="#D9D9D9"/>
<path d="M28.5972 626.8C28.5972 625.94 28.7572 625.185 29.0772 624.535C29.4072 623.885 29.8522 623.385 30.4122 623.035C30.9722 622.685 31.5972 622.51 32.2872 622.51C32.8372 622.51 33.3372 622.625 33.7872 622.855C34.2472 623.085 34.6072 623.395 34.8672 623.785V619.9H37.4322V631H34.8672V629.8C34.6272 630.2 34.2822 630.52 33.8322 630.76C33.3922 631 32.8772 631.12 32.2872 631.12C31.5972 631.12 30.9722 630.945 30.4122 630.595C29.8522 630.235 29.4072 629.73 29.0772 629.08C28.7572 628.42 28.5972 627.66 28.5972 626.8ZM34.8672 626.815C34.8672 626.175 34.6872 625.67 34.3272 625.3C33.9772 624.93 33.5472 624.745 33.0372 624.745C32.5272 624.745 32.0922 624.93 31.7322 625.3C31.3822 625.66 31.2072 626.16 31.2072 626.8C31.2072 627.44 31.3822 627.95 31.7322 628.33C32.0922 628.7 32.5272 628.885 33.0372 628.885C33.5472 628.885 33.9772 628.7 34.3272 628.33C34.6872 627.96 34.8672 627.455 34.8672 626.815ZM40.5779 621.76C40.1279 621.76 39.7579 621.63 39.4679 621.37C39.1879 621.1 39.0479 620.77 39.0479 620.38C39.0479 619.98 39.1879 619.65 39.4679 619.39C39.7579 619.12 40.1279 618.985 40.5779 618.985C41.0179 618.985 41.3779 619.12 41.6579 619.39C41.9479 619.65 42.0929 619.98 42.0929 620.38C42.0929 620.77 41.9479 621.1 41.6579 621.37C41.3779 621.63 41.0179 621.76 40.5779 621.76ZM41.8529 622.63V631H39.2879V622.63H41.8529ZM43.2017 626.8C43.2017 625.94 43.3617 625.185 43.6817 624.535C44.0117 623.885 44.4567 623.385 45.0167 623.035C45.5767 622.685 46.2017 622.51 46.8917 622.51C47.4817 622.51 47.9967 622.63 48.4367 622.87C48.8867 623.11 49.2317 623.425 49.4717 623.815V622.63H52.0367V631H49.4717V629.815C49.2217 630.205 48.8717 630.52 48.4217 630.76C47.9817 631 47.4667 631.12 46.8767 631.12C46.1967 631.12 45.5767 630.945 45.0167 630.595C44.4567 630.235 44.0117 629.73 43.6817 629.08C43.3617 628.42 43.2017 627.66 43.2017 626.8ZM49.4717 626.815C49.4717 626.175 49.2917 625.67 48.9317 625.3C48.5817 624.93 48.1517 624.745 47.6417 624.745C47.1317 624.745 46.6967 624.93 46.3367 625.3C45.9867 625.66 45.8117 626.16 45.8117 626.8C45.8117 627.44 45.9867 627.95 46.3367 628.33C46.6967 628.7 47.1317 628.885 47.6417 628.885C48.1517 628.885 48.5817 628.7 48.9317 628.33C49.2917 627.96 49.4717 627.455 49.4717 626.815ZM56.7261 628.945C57.0661 628.675 57.2211 628.55 57.1911 628.57C58.1711 627.76 58.9411 627.095 59.5011 626.575C60.0711 626.055 60.5511 625.51 60.9411 624.94C61.3311 624.37 61.5261 623.815 61.5261 623.275C61.5261 622.865 61.4311 622.545 61.2411 622.315C61.0511 622.085 60.7661 621.97 60.3861 621.97C60.0061 621.97 59.7061 622.115 59.4861 622.405C59.2761 622.685 59.1711 623.085 59.1711 623.605H56.6961C56.7161 622.755 56.8961 622.045 57.2361 621.475C57.5861 620.905 58.0411 620.485 58.6011 620.215C59.1711 619.945 59.8011 619.81 60.4911 619.81C61.6811 619.81 62.5761 620.115 63.1761 620.725C63.7861 621.335 64.0911 622.13 64.0911 623.11C64.0911 624.18 63.7261 625.175 62.9961 626.095C62.2661 627.005 61.3361 627.895 60.2061 628.765H64.2561V630.85H56.7261V628.945ZM68.3092 626.8C68.3092 625.94 68.4692 625.185 68.7892 624.535C69.1192 623.885 69.5642 623.385 70.1242 623.035C70.6842 622.685 71.3092 622.51 71.9992 622.51C72.5492 622.51 73.0492 622.625 73.4992 622.855C73.9592 623.085 74.3192 623.395 74.5792 623.785V619.9H77.1442V631H74.5792V629.8C74.3392 630.2 73.9942 630.52 73.5442 630.76C73.1042 631 72.5892 631.12 71.9992 631.12C71.3092 631.12 70.6842 630.945 70.1242 630.595C69.5642 630.235 69.1192 629.73 68.7892 629.08C68.4692 628.42 68.3092 627.66 68.3092 626.8ZM74.5792 626.815C74.5792 626.175 74.3992 625.67 74.0392 625.3C73.6892 624.93 73.2592 624.745 72.7492 624.745C72.2392 624.745 71.8042 624.93 71.4442 625.3C71.0942 625.66 70.9192 626.16 70.9192 626.8C70.9192 627.44 71.0942 627.95 71.4442 628.33C71.8042 628.7 72.2392 628.885 72.7492 628.885C73.2592 628.885 73.6892 628.7 74.0392 628.33C74.3992 627.96 74.5792 627.455 74.5792 626.815ZM86.8898 626.68C86.8898 626.92 86.8748 627.17 86.8448 627.43H81.0398C81.0798 627.95 81.2448 628.35 81.5348 628.63C81.8348 628.9 82.1998 629.035 82.6298 629.035C83.2698 629.035 83.7148 628.765 83.9648 628.225H86.6948C86.5548 628.775 86.2998 629.27 85.9298 629.71C85.5698 630.15 85.1148 630.495 84.5648 630.745C84.0148 630.995 83.3998 631.12 82.7198 631.12C81.8998 631.12 81.1698 630.945 80.5298 630.595C79.8898 630.245 79.3898 629.745 79.0298 629.095C78.6698 628.445 78.4898 627.685 78.4898 626.815C78.4898 625.945 78.6648 625.185 79.0148 624.535C79.3748 623.885 79.8748 623.385 80.5148 623.035C81.1548 622.685 81.8898 622.51 82.7198 622.51C83.5298 622.51 84.2498 622.68 84.8798 623.02C85.5098 623.36 85.9998 623.845 86.3498 624.475C86.7098 625.105 86.8898 625.84 86.8898 626.68ZM84.2648 626.005C84.2648 625.565 84.1148 625.215 83.8148 624.955C83.5148 624.695 83.1398 624.565 82.6898 624.565C82.2598 624.565 81.8948 624.69 81.5948 624.94C81.3048 625.19 81.1248 625.545 81.0548 626.005H84.2648ZM95.6217 624.76H94.2417V631H91.6767V624.76H90.7467V622.63H91.6767V622.39C91.6767 621.36 91.9717 620.58 92.5617 620.05C93.1517 619.51 94.0167 619.24 95.1567 619.24C95.3467 619.24 95.4867 619.245 95.5767 619.255V621.43C95.0867 621.4 94.7417 621.47 94.5417 621.64C94.3417 621.81 94.2417 622.115 94.2417 622.555V622.63H95.6217V624.76ZM104.717 626.68C104.717 626.92 104.702 627.17 104.672 627.43H98.867C98.907 627.95 99.072 628.35 99.362 628.63C99.662 628.9 100.027 629.035 100.457 629.035C101.097 629.035 101.542 628.765 101.792 628.225H104.522C104.382 628.775 104.127 629.27 103.757 629.71C103.397 630.15 102.942 630.495 102.392 630.745C101.842 630.995 101.227 631.12 100.547 631.12C99.727 631.12 98.997 630.945 98.357 630.595C97.717 630.245 97.217 629.745 96.857 629.095C96.497 628.445 96.317 627.685 96.317 626.815C96.317 625.945 96.492 625.185 96.842 624.535C97.202 623.885 97.702 623.385 98.342 623.035C98.982 622.685 99.717 622.51 100.547 622.51C101.357 622.51 102.077 622.68 102.707 623.02C103.337 623.36 103.827 623.845 104.177 624.475C104.537 625.105 104.717 625.84 104.717 626.68ZM102.092 626.005C102.092 625.565 101.942 625.215 101.642 624.955C101.342 624.695 100.967 624.565 100.517 624.565C100.087 624.565 99.722 624.69 99.422 624.94C99.132 625.19 98.952 625.545 98.882 626.005H102.092ZM109.835 628.6L111.65 622.63H114.38L111.41 631H108.245L105.275 622.63H108.02L109.835 628.6ZM123.35 626.68C123.35 626.92 123.335 627.17 123.305 627.43H117.5C117.54 627.95 117.705 628.35 117.995 628.63C118.295 628.9 118.66 629.035 119.09 629.035C119.73 629.035 120.175 628.765 120.425 628.225H123.155C123.015 628.775 122.76 629.27 122.39 629.71C122.03 630.15 121.575 630.495 121.025 630.745C120.475 630.995 119.86 631.12 119.18 631.12C118.36 631.12 117.63 630.945 116.99 630.595C116.35 630.245 115.85 629.745 115.49 629.095C115.13 628.445 114.95 627.685 114.95 626.815C114.95 625.945 115.125 625.185 115.475 624.535C115.835 623.885 116.335 623.385 116.975 623.035C117.615 622.685 118.35 622.51 119.18 622.51C119.99 622.51 120.71 622.68 121.34 623.02C121.97 623.36 122.46 623.845 122.81 624.475C123.17 625.105 123.35 625.84 123.35 626.68ZM120.725 626.005C120.725 625.565 120.575 625.215 120.275 624.955C119.975 624.695 119.6 624.565 119.15 624.565C118.72 624.565 118.355 624.69 118.055 624.94C117.765 625.19 117.585 625.545 117.515 626.005H120.725ZM127.268 624.025C127.568 623.565 127.943 623.205 128.393 622.945C128.843 622.675 129.343 622.54 129.893 622.54V625.255H129.188C128.548 625.255 128.068 625.395 127.748 625.675C127.428 625.945 127.268 626.425 127.268 627.115V631H124.703V622.63H127.268V624.025ZM139.009 626.68C139.009 626.92 138.994 627.17 138.964 627.43H133.159C133.199 627.95 133.364 628.35 133.654 628.63C133.954 628.9 134.319 629.035 134.749 629.035C135.389 629.035 135.834 628.765 136.084 628.225H138.814C138.674 628.775 138.419 629.27 138.049 629.71C137.689 630.15 137.234 630.495 136.684 630.745C136.134 630.995 135.519 631.12 134.839 631.12C134.019 631.12 133.289 630.945 132.649 630.595C132.009 630.245 131.509 629.745 131.149 629.095C130.789 628.445 130.609 627.685 130.609 626.815C130.609 625.945 130.784 625.185 131.134 624.535C131.494 623.885 131.994 623.385 132.634 623.035C133.274 622.685 134.009 622.51 134.839 622.51C135.649 622.51 136.369 622.68 136.999 623.02C137.629 623.36 138.119 623.845 138.469 624.475C138.829 625.105 139.009 625.84 139.009 626.68ZM136.384 626.005C136.384 625.565 136.234 625.215 135.934 624.955C135.634 624.695 135.259 624.565 134.809 624.565C134.379 624.565 134.014 624.69 133.714 624.94C133.424 625.19 133.244 625.545 133.174 626.005H136.384ZM141.652 621.76C141.202 621.76 140.832 621.63 140.542 621.37C140.262 621.1 140.122 620.77 140.122 620.38C140.122 619.98 140.262 619.65 140.542 619.39C140.832 619.12 141.202 618.985 141.652 618.985C142.092 618.985 142.452 619.12 142.732 619.39C143.022 619.65 143.167 619.98 143.167 620.38C143.167 620.77 143.022 621.1 142.732 621.37C142.452 621.63 142.092 621.76 141.652 621.76ZM142.927 622.63V631H140.362V622.63H142.927ZM147.351 624.025C147.651 623.565 148.026 623.205 148.476 622.945C148.926 622.675 149.426 622.54 149.976 622.54V625.255H149.271C148.631 625.255 148.151 625.395 147.831 625.675C147.511 625.945 147.351 626.425 147.351 627.115V631H144.786V622.63H147.351V624.025ZM155.012 631.12C154.192 631.12 153.452 630.945 152.792 630.595C152.142 630.245 151.627 629.745 151.247 629.095C150.877 628.445 150.692 627.685 150.692 626.815C150.692 625.955 150.882 625.2 151.262 624.55C151.642 623.89 152.162 623.385 152.822 623.035C153.482 622.685 154.222 622.51 155.042 622.51C155.862 622.51 156.602 622.685 157.262 623.035C157.922 623.385 158.442 623.89 158.822 624.55C159.202 625.2 159.392 625.955 159.392 626.815C159.392 627.675 159.197 628.435 158.807 629.095C158.427 629.745 157.902 630.245 157.232 630.595C156.572 630.945 155.832 631.12 155.012 631.12ZM155.012 628.9C155.502 628.9 155.917 628.72 156.257 628.36C156.607 628 156.782 627.485 156.782 626.815C156.782 626.145 156.612 625.63 156.272 625.27C155.942 624.91 155.532 624.73 155.042 624.73C154.542 624.73 154.127 624.91 153.797 625.27C153.467 625.62 153.302 626.135 153.302 626.815C153.302 627.485 153.462 628 153.782 628.36C154.112 628.72 154.522 628.9 155.012 628.9Z" fill="black"/>
<path d="M118.125 727H116.942L112.184 719.785V727H111.001V717.926H112.184L116.942 725.128V717.926H118.125V727ZM119.7 723.412C119.7 722.684 119.847 722.047 120.142 721.501C120.436 720.946 120.839 720.517 121.351 720.214C121.871 719.911 122.447 719.759 123.08 719.759C123.704 719.759 124.245 719.893 124.705 720.162C125.164 720.431 125.506 720.769 125.732 721.176V719.876H126.928V727H125.732V725.674C125.498 726.09 125.147 726.437 124.679 726.714C124.219 726.983 123.682 727.117 123.067 727.117C122.434 727.117 121.862 726.961 121.351 726.649C120.839 726.337 120.436 725.899 120.142 725.336C119.847 724.773 119.7 724.131 119.7 723.412ZM125.732 723.425C125.732 722.888 125.623 722.42 125.407 722.021C125.19 721.622 124.895 721.319 124.523 721.111C124.159 720.894 123.756 720.786 123.314 720.786C122.872 720.786 122.469 720.89 122.105 721.098C121.741 721.306 121.45 721.609 121.234 722.008C121.017 722.407 120.909 722.875 120.909 723.412C120.909 723.958 121.017 724.435 121.234 724.842C121.45 725.241 121.741 725.548 122.105 725.765C122.469 725.973 122.872 726.077 123.314 726.077C123.756 726.077 124.159 725.973 124.523 725.765C124.895 725.548 125.19 725.241 125.407 724.842C125.623 724.435 125.732 723.962 125.732 723.425ZM121.637 719.109C121.697 718.667 121.84 718.329 122.066 718.095C122.3 717.861 122.59 717.744 122.937 717.744C123.101 717.744 123.24 717.774 123.353 717.835C123.474 717.887 123.617 717.965 123.782 718.069C123.903 718.156 124.011 718.225 124.107 718.277C124.202 718.32 124.306 718.342 124.419 718.342C124.566 718.342 124.692 718.294 124.796 718.199C124.9 718.104 124.965 717.965 124.991 717.783H125.667C125.615 718.216 125.472 718.55 125.238 718.784C125.004 719.018 124.713 719.135 124.367 719.135C124.202 719.135 124.055 719.109 123.925 719.057C123.803 718.996 123.665 718.91 123.509 718.797C123.37 718.71 123.257 718.645 123.171 718.602C123.093 718.559 122.997 718.537 122.885 718.537C122.737 718.537 122.612 718.585 122.508 718.68C122.412 718.775 122.352 718.918 122.326 719.109H121.637ZM132.034 727.117C131.366 727.117 130.76 726.965 130.214 726.662C129.676 726.359 129.252 725.93 128.94 725.375C128.636 724.812 128.485 724.162 128.485 723.425C128.485 722.697 128.641 722.056 128.953 721.501C129.273 720.938 129.707 720.509 130.253 720.214C130.799 719.911 131.41 719.759 132.086 719.759C132.762 719.759 133.373 719.911 133.919 720.214C134.465 720.509 134.894 720.933 135.206 721.488C135.526 722.043 135.687 722.688 135.687 723.425C135.687 724.162 135.522 724.812 135.193 725.375C134.872 725.93 134.434 726.359 133.88 726.662C133.325 726.965 132.71 727.117 132.034 727.117ZM132.034 726.077C132.458 726.077 132.857 725.977 133.23 725.778C133.602 725.579 133.901 725.28 134.127 724.881C134.361 724.482 134.478 723.997 134.478 723.425C134.478 722.853 134.365 722.368 134.14 721.969C133.914 721.57 133.62 721.276 133.256 721.085C132.892 720.886 132.497 720.786 132.073 720.786C131.639 720.786 131.241 720.886 130.877 721.085C130.521 721.276 130.235 721.57 130.019 721.969C129.802 722.368 129.694 722.853 129.694 723.425C129.694 724.006 129.798 724.495 130.006 724.894C130.222 725.293 130.508 725.592 130.864 725.791C131.219 725.982 131.609 726.077 132.034 726.077ZM144.244 719.746C144.781 719.746 145.267 719.863 145.7 720.097C146.133 720.322 146.471 720.665 146.714 721.124C146.965 721.583 147.091 722.142 147.091 722.801V727H145.921V722.97C145.921 722.259 145.743 721.718 145.388 721.345C145.033 720.964 144.547 720.773 143.932 720.773C143.308 720.773 142.81 720.968 142.437 721.358C142.073 721.748 141.891 722.316 141.891 723.061V727H140.708V717.38H141.891V720.89C142.125 720.526 142.446 720.244 142.853 720.045C143.269 719.846 143.733 719.746 144.244 719.746ZM148.581 723.412C148.581 722.684 148.729 722.047 149.023 721.501C149.318 720.946 149.721 720.517 150.232 720.214C150.752 719.911 151.329 719.759 151.961 719.759C152.585 719.759 153.127 719.893 153.586 720.162C154.046 720.431 154.388 720.769 154.613 721.176V719.876H155.809V727H154.613V725.674C154.379 726.09 154.028 726.437 153.56 726.714C153.101 726.983 152.564 727.117 151.948 727.117C151.316 727.117 150.744 726.961 150.232 726.649C149.721 726.337 149.318 725.899 149.023 725.336C148.729 724.773 148.581 724.131 148.581 723.412ZM154.613 723.425C154.613 722.888 154.505 722.42 154.288 722.021C154.072 721.622 153.777 721.319 153.404 721.111C153.04 720.894 152.637 720.786 152.195 720.786C151.753 720.786 151.35 720.89 150.986 721.098C150.622 721.306 150.332 721.609 150.115 722.008C149.899 722.407 149.79 722.875 149.79 723.412C149.79 723.958 149.899 724.435 150.115 724.842C150.332 725.241 150.622 725.548 150.986 725.765C151.35 725.973 151.753 726.077 152.195 726.077C152.637 726.077 153.04 725.973 153.404 725.765C153.777 725.548 154.072 725.241 154.288 724.842C154.505 724.435 154.613 723.962 154.613 723.425ZM153.69 717.861L150.921 719.343V718.459L153.69 716.834V717.861ZM167.774 723.165C167.774 723.39 167.761 723.629 167.735 723.88H162.041C162.085 724.582 162.323 725.132 162.756 725.531C163.198 725.921 163.731 726.116 164.355 726.116C164.867 726.116 165.291 725.999 165.629 725.765C165.976 725.522 166.219 725.202 166.357 724.803H167.631C167.441 725.488 167.059 726.047 166.487 726.48C165.915 726.905 165.205 727.117 164.355 727.117C163.679 727.117 163.073 726.965 162.535 726.662C162.007 726.359 161.591 725.93 161.287 725.375C160.984 724.812 160.832 724.162 160.832 723.425C160.832 722.688 160.98 722.043 161.274 721.488C161.569 720.933 161.981 720.509 162.509 720.214C163.047 719.911 163.662 719.759 164.355 719.759C165.031 719.759 165.629 719.906 166.149 720.201C166.669 720.496 167.068 720.903 167.345 721.423C167.631 721.934 167.774 722.515 167.774 723.165ZM166.552 722.918C166.552 722.467 166.453 722.082 166.253 721.761C166.054 721.432 165.781 721.185 165.434 721.02C165.096 720.847 164.719 720.76 164.303 720.76C163.705 720.76 163.194 720.951 162.769 721.332C162.353 721.713 162.115 722.242 162.054 722.918H166.552ZM171.988 725.908L174.198 719.876H175.459L172.664 727H171.286L168.491 719.876H169.765L171.988 725.908ZM183.123 723.165C183.123 723.39 183.11 723.629 183.084 723.88H177.39C177.433 724.582 177.672 725.132 178.105 725.531C178.547 725.921 179.08 726.116 179.704 726.116C180.215 726.116 180.64 725.999 180.978 725.765C181.325 725.522 181.567 725.202 181.706 724.803H182.98C182.789 725.488 182.408 726.047 181.836 726.48C181.264 726.905 180.553 727.117 179.704 727.117C179.028 727.117 178.421 726.965 177.884 726.662C177.355 726.359 176.939 725.93 176.636 725.375C176.333 724.812 176.181 724.162 176.181 723.425C176.181 722.688 176.328 722.043 176.623 721.488C176.918 720.933 177.329 720.509 177.858 720.214C178.395 719.911 179.011 719.759 179.704 719.759C180.38 719.759 180.978 719.906 181.498 720.201C182.018 720.496 182.417 720.903 182.694 721.423C182.98 721.934 183.123 722.515 183.123 723.165ZM181.901 722.918C181.901 722.467 181.801 722.082 181.602 721.761C181.403 721.432 181.13 721.185 180.783 721.02C180.445 720.847 180.068 720.76 179.652 720.76C179.054 720.76 178.543 720.951 178.118 721.332C177.702 721.713 177.464 722.242 177.403 722.918H181.901ZM188.156 719.746C189.022 719.746 189.724 720.01 190.262 720.539C190.799 721.059 191.068 721.813 191.068 722.801V727H189.898V722.97C189.898 722.259 189.72 721.718 189.365 721.345C189.009 720.964 188.524 720.773 187.909 720.773C187.285 720.773 186.786 720.968 186.414 721.358C186.05 721.748 185.868 722.316 185.868 723.061V727H184.685V719.876H185.868V720.89C186.102 720.526 186.418 720.244 186.817 720.045C187.224 719.846 187.67 719.746 188.156 719.746ZM194.443 720.851V725.05C194.443 725.397 194.517 725.644 194.664 725.791C194.811 725.93 195.067 725.999 195.431 725.999H196.302V727H195.236C194.577 727 194.083 726.848 193.754 726.545C193.425 726.242 193.26 725.743 193.26 725.05V720.851H192.337V719.876H193.26V718.082H194.443V719.876H196.302V720.851H194.443ZM200.842 727.117C200.175 727.117 199.568 726.965 199.022 726.662C198.485 726.359 198.06 725.93 197.748 725.375C197.445 724.812 197.293 724.162 197.293 723.425C197.293 722.697 197.449 722.056 197.761 721.501C198.082 720.938 198.515 720.509 199.061 720.214C199.607 719.911 200.218 719.759 200.894 719.759C201.57 719.759 202.181 719.911 202.727 720.214C203.273 720.509 203.702 720.933 204.014 721.488C204.335 722.043 204.495 722.688 204.495 723.425C204.495 724.162 204.331 724.812 204.001 725.375C203.681 725.93 203.243 726.359 202.688 726.662C202.134 726.965 201.518 727.117 200.842 727.117ZM200.842 726.077C201.267 726.077 201.666 725.977 202.038 725.778C202.411 725.579 202.71 725.28 202.935 724.881C203.169 724.482 203.286 723.997 203.286 723.425C203.286 722.853 203.174 722.368 202.948 721.969C202.723 721.57 202.428 721.276 202.064 721.085C201.7 720.886 201.306 720.786 200.881 720.786C200.448 720.786 200.049 720.886 199.685 721.085C199.33 721.276 199.044 721.57 198.827 721.969C198.611 722.368 198.502 722.853 198.502 723.425C198.502 724.006 198.606 724.495 198.814 724.894C199.031 725.293 199.317 725.592 199.672 725.791C200.028 725.982 200.418 726.077 200.842 726.077ZM208.573 727.117C208.027 727.117 207.537 727.026 207.104 726.844C206.67 726.653 206.328 726.393 206.077 726.064C205.825 725.726 205.687 725.34 205.661 724.907H206.883C206.917 725.262 207.082 725.553 207.377 725.778C207.68 726.003 208.074 726.116 208.56 726.116C209.01 726.116 209.366 726.016 209.626 725.817C209.886 725.618 210.016 725.366 210.016 725.063C210.016 724.751 209.877 724.521 209.6 724.374C209.322 724.218 208.893 724.066 208.313 723.919C207.784 723.78 207.351 723.642 207.013 723.503C206.683 723.356 206.397 723.143 206.155 722.866C205.921 722.58 205.804 722.207 205.804 721.748C205.804 721.384 205.912 721.05 206.129 720.747C206.345 720.444 206.653 720.205 207.052 720.032C207.45 719.85 207.905 719.759 208.417 719.759C209.205 719.759 209.842 719.958 210.328 720.357C210.813 720.756 211.073 721.302 211.108 721.995H209.925C209.899 721.622 209.747 721.323 209.47 721.098C209.201 720.873 208.837 720.76 208.378 720.76C207.953 720.76 207.615 720.851 207.364 721.033C207.112 721.215 206.987 721.453 206.987 721.748C206.987 721.982 207.06 722.177 207.208 722.333C207.364 722.48 207.554 722.602 207.78 722.697C208.014 722.784 208.334 722.883 208.742 722.996C209.253 723.135 209.669 723.273 209.99 723.412C210.31 723.542 210.583 723.741 210.809 724.01C211.043 724.279 211.164 724.63 211.173 725.063C211.173 725.453 211.064 725.804 210.848 726.116C210.631 726.428 210.323 726.675 209.925 726.857C209.535 727.03 209.084 727.117 208.573 727.117ZM219.78 719.746C220.646 719.746 221.348 720.01 221.886 720.539C222.423 721.059 222.692 721.813 222.692 722.801V727H221.522V722.97C221.522 722.259 221.344 721.718 220.989 721.345C220.633 720.964 220.148 720.773 219.533 720.773C218.909 720.773 218.41 720.968 218.038 721.358C217.674 721.748 217.492 722.316 217.492 723.061V727H216.309V719.876H217.492V720.89C217.726 720.526 218.042 720.244 218.441 720.045C218.848 719.846 219.294 719.746 219.78 719.746ZM231.124 723.165C231.124 723.39 231.111 723.629 231.085 723.88H225.391C225.434 724.582 225.673 725.132 226.106 725.531C226.548 725.921 227.081 726.116 227.705 726.116C228.216 726.116 228.641 725.999 228.979 725.765C229.326 725.522 229.568 725.202 229.707 724.803H230.981C230.79 725.488 230.409 726.047 229.837 726.48C229.265 726.905 228.554 727.117 227.705 727.117C227.029 727.117 226.422 726.965 225.885 726.662C225.356 726.359 224.94 725.93 224.637 725.375C224.334 724.812 224.182 724.162 224.182 723.425C224.182 722.688 224.329 722.043 224.624 721.488C224.919 720.933 225.33 720.509 225.859 720.214C226.396 719.911 227.012 719.759 227.705 719.759C228.381 719.759 228.979 719.906 229.499 720.201C230.019 720.496 230.418 720.903 230.695 721.423C230.981 721.934 231.124 722.515 231.124 723.165ZM229.902 722.918C229.902 722.467 229.802 722.082 229.603 721.761C229.404 721.432 229.131 721.185 228.784 721.02C228.446 720.847 228.069 720.76 227.653 720.76C227.055 720.76 226.544 720.951 226.119 721.332C225.703 721.713 225.465 722.242 225.404 722.918H229.902ZM235.208 727.117C234.662 727.117 234.172 727.026 233.739 726.844C233.305 726.653 232.963 726.393 232.712 726.064C232.46 725.726 232.322 725.34 232.296 724.907H233.518C233.552 725.262 233.717 725.553 234.012 725.778C234.315 726.003 234.709 726.116 235.195 726.116C235.645 726.116 236.001 726.016 236.261 725.817C236.521 725.618 236.651 725.366 236.651 725.063C236.651 724.751 236.512 724.521 236.235 724.374C235.957 724.218 235.528 724.066 234.948 723.919C234.419 723.78 233.986 723.642 233.648 723.503C233.318 723.356 233.032 723.143 232.79 722.866C232.556 722.58 232.439 722.207 232.439 721.748C232.439 721.384 232.547 721.05 232.764 720.747C232.98 720.444 233.288 720.205 233.687 720.032C234.085 719.85 234.54 719.759 235.052 719.759C235.84 719.759 236.477 719.958 236.963 720.357C237.448 720.756 237.708 721.302 237.743 721.995H236.56C236.534 721.622 236.382 721.323 236.105 721.098C235.836 720.873 235.472 720.76 235.013 720.76C234.588 720.76 234.25 720.851 233.999 721.033C233.747 721.215 233.622 721.453 233.622 721.748C233.622 721.982 233.695 722.177 233.843 722.333C233.999 722.48 234.189 722.602 234.415 722.697C234.649 722.784 234.969 722.883 235.377 722.996C235.888 723.135 236.304 723.273 236.625 723.412C236.945 723.542 237.218 723.741 237.444 724.01C237.678 724.279 237.799 724.63 237.808 725.063C237.808 725.453 237.699 725.804 237.483 726.116C237.266 726.428 236.958 726.675 236.56 726.857C236.17 727.03 235.719 727.117 235.208 727.117ZM242 727.117C241.454 727.117 240.964 727.026 240.531 726.844C240.097 726.653 239.755 726.393 239.504 726.064C239.252 725.726 239.114 725.34 239.088 724.907H240.31C240.344 725.262 240.509 725.553 240.804 725.778C241.107 726.003 241.501 726.116 241.987 726.116C242.437 726.116 242.793 726.016 243.053 725.817C243.313 725.618 243.443 725.366 243.443 725.063C243.443 724.751 243.304 724.521 243.027 724.374C242.749 724.218 242.32 724.066 241.74 723.919C241.211 723.78 240.778 723.642 240.44 723.503C240.11 723.356 239.824 723.143 239.582 722.866C239.348 722.58 239.231 722.207 239.231 721.748C239.231 721.384 239.339 721.05 239.556 720.747C239.772 720.444 240.08 720.205 240.479 720.032C240.877 719.85 241.332 719.759 241.844 719.759C242.632 719.759 243.269 719.958 243.755 720.357C244.24 720.756 244.5 721.302 244.535 721.995H243.352C243.326 721.622 243.174 721.323 242.897 721.098C242.628 720.873 242.264 720.76 241.805 720.76C241.38 720.76 241.042 720.851 240.791 721.033C240.539 721.215 240.414 721.453 240.414 721.748C240.414 721.982 240.487 722.177 240.635 722.333C240.791 722.48 240.981 722.602 241.207 722.697C241.441 722.784 241.761 722.883 242.169 722.996C242.68 723.135 243.096 723.273 243.417 723.412C243.737 723.542 244.01 723.741 244.236 724.01C244.47 724.279 244.591 724.63 244.6 725.063C244.6 725.453 244.491 725.804 244.275 726.116C244.058 726.428 243.75 726.675 243.352 726.857C242.962 727.03 242.511 727.117 242 727.117ZM252.77 723.165C252.77 723.39 252.757 723.629 252.731 723.88H247.037C247.08 724.582 247.318 725.132 247.752 725.531C248.194 725.921 248.727 726.116 249.351 726.116C249.862 726.116 250.287 725.999 250.625 725.765C250.971 725.522 251.214 725.202 251.353 724.803H252.627C252.436 725.488 252.055 726.047 251.483 726.48C250.911 726.905 250.2 727.117 249.351 727.117C248.675 727.117 248.068 726.965 247.531 726.662C247.002 726.359 246.586 725.93 246.283 725.375C245.979 724.812 245.828 724.162 245.828 723.425C245.828 722.688 245.975 722.043 246.27 721.488C246.564 720.933 246.976 720.509 247.505 720.214C248.042 719.911 248.657 719.759 249.351 719.759C250.027 719.759 250.625 719.906 251.145 720.201C251.665 720.496 252.063 720.903 252.341 721.423C252.627 721.934 252.77 722.515 252.77 723.165ZM251.548 722.918C251.548 722.467 251.448 722.082 251.249 721.761C251.049 721.432 250.776 721.185 250.43 721.02C250.092 720.847 249.715 720.76 249.299 720.76C248.701 720.76 248.189 720.951 247.765 721.332C247.349 721.713 247.11 722.242 247.05 722.918H251.548ZM257.355 723.412C257.355 722.684 257.502 722.047 257.797 721.501C258.092 720.946 258.495 720.517 259.006 720.214C259.526 719.911 260.107 719.759 260.748 719.759C261.303 719.759 261.818 719.889 262.295 720.149C262.772 720.4 263.136 720.734 263.387 721.15V717.38H264.583V727H263.387V725.661C263.153 726.086 262.806 726.437 262.347 726.714C261.888 726.983 261.35 727.117 260.735 727.117C260.102 727.117 259.526 726.961 259.006 726.649C258.495 726.337 258.092 725.899 257.797 725.336C257.502 724.773 257.355 724.131 257.355 723.412ZM263.387 723.425C263.387 722.888 263.279 722.42 263.062 722.021C262.845 721.622 262.551 721.319 262.178 721.111C261.814 720.894 261.411 720.786 260.969 720.786C260.527 720.786 260.124 720.89 259.76 721.098C259.396 721.306 259.106 721.609 258.889 722.008C258.672 722.407 258.564 722.875 258.564 723.412C258.564 723.958 258.672 724.435 258.889 724.842C259.106 725.241 259.396 725.548 259.76 725.765C260.124 725.973 260.527 726.077 260.969 726.077C261.411 726.077 261.814 725.973 262.178 725.765C262.551 725.548 262.845 725.241 263.062 724.842C263.279 724.435 263.387 723.962 263.387 723.425ZM267.193 718.719C266.968 718.719 266.777 718.641 266.621 718.485C266.465 718.329 266.387 718.138 266.387 717.913C266.387 717.688 266.465 717.497 266.621 717.341C266.777 717.185 266.968 717.107 267.193 717.107C267.41 717.107 267.592 717.185 267.739 717.341C267.895 717.497 267.973 717.688 267.973 717.913C267.973 718.138 267.895 718.329 267.739 718.485C267.592 718.641 267.41 718.719 267.193 718.719ZM267.765 719.876V727H266.582V719.876H267.765ZM269.339 723.412C269.339 722.684 269.487 722.047 269.781 721.501C270.076 720.946 270.479 720.517 270.99 720.214C271.51 719.911 272.087 719.759 272.719 719.759C273.343 719.759 273.885 719.893 274.344 720.162C274.804 720.431 275.146 720.769 275.371 721.176V719.876H276.567V727H275.371V725.674C275.137 726.09 274.786 726.437 274.318 726.714C273.859 726.983 273.322 727.117 272.706 727.117C272.074 727.117 271.502 726.961 270.99 726.649C270.479 726.337 270.076 725.899 269.781 725.336C269.487 724.773 269.339 724.131 269.339 723.412ZM275.371 723.425C275.371 722.888 275.263 722.42 275.046 722.021C274.83 721.622 274.535 721.319 274.162 721.111C273.798 720.894 273.395 720.786 272.953 720.786C272.511 720.786 272.108 720.89 271.744 721.098C271.38 721.306 271.09 721.609 270.873 722.008C270.657 722.407 270.548 722.875 270.548 723.412C270.548 723.958 270.657 724.435 270.873 724.842C271.09 725.241 271.38 725.548 271.744 725.765C272.108 725.973 272.511 726.077 272.953 726.077C273.395 726.077 273.798 725.973 274.162 725.765C274.535 725.548 274.83 725.241 275.046 724.842C275.263 724.435 275.371 723.962 275.371 723.425ZM278.943 727.078C278.718 727.078 278.527 727 278.371 726.844C278.215 726.688 278.137 726.497 278.137 726.272C278.137 726.047 278.215 725.856 278.371 725.7C278.527 725.544 278.718 725.466 278.943 725.466C279.16 725.466 279.342 725.544 279.489 725.7C279.645 725.856 279.723 726.047 279.723 726.272C279.723 726.497 279.645 726.688 279.489 726.844C279.342 727 279.16 727.078 278.943 727.078Z" fill="black" fill-opacity="0.56"/>
</svg>
