<svg width="393" height="852" viewBox="0 0 393 852" fill="none" xmlns="http://www.w3.org/2000/svg">
<rect width="393" height="852" fill="white"/>
<path d="M36.867 109.7V112.54H41.447V115.18H36.867V118.26H42.047V121H33.447V106.96H42.047V109.7H36.867ZM49.2873 117.8L51.7073 109.84H55.3473L51.3873 121H47.1673L43.2073 109.84H46.8673L49.2873 117.8ZM67.3069 115.24C67.3069 115.56 67.2869 115.893 67.2469 116.24H59.5069C59.5602 116.933 59.7802 117.467 60.1669 117.84C60.5669 118.2 61.0535 118.38 61.6269 118.38C62.4802 118.38 63.0735 118.02 63.4069 117.3H67.0469C66.8602 118.033 66.5202 118.693 66.0269 119.28C65.5469 119.867 64.9402 120.327 64.2069 120.66C63.4735 120.993 62.6535 121.16 61.7469 121.16C60.6535 121.16 59.6802 120.927 58.8269 120.46C57.9735 119.993 57.3069 119.327 56.8269 118.46C56.3469 117.593 56.1069 116.58 56.1069 115.42C56.1069 114.26 56.3402 113.247 56.8069 112.38C57.2869 111.513 57.9535 110.847 58.8069 110.38C59.6602 109.913 60.6402 109.68 61.7469 109.68C62.8269 109.68 63.7869 109.907 64.6269 110.36C65.4669 110.813 66.1202 111.46 66.5869 112.3C67.0669 113.14 67.3069 114.12 67.3069 115.24ZM63.8069 114.34C63.8069 113.753 63.6069 113.287 63.2069 112.94C62.8069 112.593 62.3069 112.42 61.7069 112.42C61.1335 112.42 60.6469 112.587 60.2469 112.92C59.8602 113.253 59.6202 113.727 59.5269 114.34H63.8069ZM75.9111 109.72C77.2178 109.72 78.2578 110.147 79.0311 111C79.8178 111.84 80.2111 113 80.2111 114.48V121H76.8111V114.94C76.8111 114.193 76.6178 113.613 76.2311 113.2C75.8444 112.787 75.3244 112.58 74.6711 112.58C74.0178 112.58 73.4978 112.787 73.1111 113.2C72.7244 113.613 72.5311 114.193 72.5311 114.94V121H69.1111V109.84H72.5311V111.32C72.8778 110.827 73.3444 110.44 73.9311 110.16C74.5178 109.867 75.1778 109.72 75.9111 109.72ZM88.8077 118.1V121H87.0677C85.8277 121 84.861 120.7 84.1677 120.1C83.4743 119.487 83.1277 118.493 83.1277 117.12V112.68H81.7677V109.84H83.1277V107.12H86.5477V109.84H88.7877V112.68H86.5477V117.16C86.5477 117.493 86.6277 117.733 86.7877 117.88C86.9477 118.027 87.2143 118.1 87.5877 118.1H88.8077ZM95.7927 121.16C94.6993 121.16 93.7127 120.927 92.8327 120.46C91.966 119.993 91.2793 119.327 90.7727 118.46C90.2793 117.593 90.0327 116.58 90.0327 115.42C90.0327 114.273 90.286 113.267 90.7927 112.4C91.2993 111.52 91.9927 110.847 92.8727 110.38C93.7527 109.913 94.7393 109.68 95.8327 109.68C96.926 109.68 97.9127 109.913 98.7927 110.38C99.6727 110.847 100.366 111.52 100.873 112.4C101.379 113.267 101.633 114.273 101.633 115.42C101.633 116.567 101.373 117.58 100.853 118.46C100.346 119.327 99.646 119.993 98.7527 120.46C97.8727 120.927 96.886 121.16 95.7927 121.16ZM95.7927 118.2C96.446 118.2 96.9993 117.96 97.4527 117.48C97.9193 117 98.1527 116.313 98.1527 115.42C98.1527 114.527 97.926 113.84 97.4727 113.36C97.0327 112.88 96.486 112.64 95.8327 112.64C95.166 112.64 94.6127 112.88 94.1727 113.36C93.7327 113.827 93.5127 114.513 93.5127 115.42C93.5127 116.313 93.726 117 94.1527 117.48C94.5927 117.96 95.1393 118.2 95.7927 118.2ZM107.987 121.16C107.014 121.16 106.147 120.993 105.387 120.66C104.627 120.327 104.027 119.873 103.587 119.3C103.147 118.713 102.9 118.06 102.847 117.34H106.227C106.267 117.727 106.447 118.04 106.767 118.28C107.087 118.52 107.48 118.64 107.947 118.64C108.374 118.64 108.7 118.56 108.927 118.4C109.167 118.227 109.287 118.007 109.287 117.74C109.287 117.42 109.12 117.187 108.787 117.04C108.454 116.88 107.914 116.707 107.167 116.52C106.367 116.333 105.7 116.14 105.167 115.94C104.634 115.727 104.174 115.4 103.787 114.96C103.4 114.507 103.207 113.9 103.207 113.14C103.207 112.5 103.38 111.92 103.727 111.4C104.087 110.867 104.607 110.447 105.287 110.14C105.98 109.833 106.8 109.68 107.747 109.68C109.147 109.68 110.247 110.027 111.047 110.72C111.86 111.413 112.327 112.333 112.447 113.48H109.287C109.234 113.093 109.06 112.787 108.767 112.56C108.487 112.333 108.114 112.22 107.647 112.22C107.247 112.22 106.94 112.3 106.727 112.46C106.514 112.607 106.407 112.813 106.407 113.08C106.407 113.4 106.574 113.64 106.907 113.8C107.254 113.96 107.787 114.12 108.507 114.28C109.334 114.493 110.007 114.707 110.527 114.92C111.047 115.12 111.5 115.453 111.887 115.92C112.287 116.373 112.494 116.987 112.507 117.76C112.507 118.413 112.32 119 111.947 119.52C111.587 120.027 111.06 120.427 110.367 120.72C109.687 121.013 108.894 121.16 107.987 121.16ZM118.158 115.4C118.158 114.253 118.371 113.247 118.798 112.38C119.238 111.513 119.831 110.847 120.578 110.38C121.324 109.913 122.158 109.68 123.078 109.68C123.811 109.68 124.478 109.833 125.078 110.14C125.691 110.447 126.171 110.86 126.518 111.38V106.2H129.938V121H126.518V119.4C126.198 119.933 125.738 120.36 125.138 120.68C124.551 121 123.864 121.16 123.078 121.16C122.158 121.16 121.324 120.927 120.578 120.46C119.831 119.98 119.238 119.307 118.798 118.44C118.371 117.56 118.158 116.547 118.158 115.4ZM126.518 115.42C126.518 114.567 126.278 113.893 125.798 113.4C125.331 112.907 124.758 112.66 124.078 112.66C123.398 112.66 122.818 112.907 122.338 113.4C121.871 113.88 121.638 114.547 121.638 115.4C121.638 116.253 121.871 116.933 122.338 117.44C122.818 117.933 123.398 118.18 124.078 118.18C124.758 118.18 125.331 117.933 125.798 117.44C126.278 116.947 126.518 116.273 126.518 115.42ZM137.492 121.16C136.399 121.16 135.412 120.927 134.532 120.46C133.665 119.993 132.979 119.327 132.472 118.46C131.979 117.593 131.732 116.58 131.732 115.42C131.732 114.273 131.985 113.267 132.492 112.4C132.999 111.52 133.692 110.847 134.572 110.38C135.452 109.913 136.439 109.68 137.532 109.68C138.625 109.68 139.612 109.913 140.492 110.38C141.372 110.847 142.065 111.52 142.572 112.4C143.079 113.267 143.332 114.273 143.332 115.42C143.332 116.567 143.072 117.58 142.552 118.46C142.045 119.327 141.345 119.993 140.452 120.46C139.572 120.927 138.585 121.16 137.492 121.16ZM137.492 118.2C138.145 118.2 138.699 117.96 139.152 117.48C139.619 117 139.852 116.313 139.852 115.42C139.852 114.527 139.625 113.84 139.172 113.36C138.732 112.88 138.185 112.64 137.532 112.64C136.865 112.64 136.312 112.88 135.872 113.36C135.432 113.827 135.212 114.513 135.212 115.42C135.212 116.313 135.425 117 135.852 117.48C136.292 117.96 136.839 118.2 137.492 118.2ZM163.625 109.72C165.011 109.72 166.111 110.14 166.925 110.98C167.751 111.82 168.165 112.987 168.165 114.48V121H164.765V114.94C164.765 114.22 164.571 113.667 164.185 113.28C163.811 112.88 163.291 112.68 162.625 112.68C161.958 112.68 161.431 112.88 161.045 113.28C160.671 113.667 160.485 114.22 160.485 114.94V121H157.085V114.94C157.085 114.22 156.891 113.667 156.505 113.28C156.131 112.88 155.611 112.68 154.945 112.68C154.278 112.68 153.751 112.88 153.365 113.28C152.991 113.667 152.805 114.22 152.805 114.94V121H149.385V109.84H152.805V111.24C153.151 110.773 153.605 110.407 154.165 110.14C154.725 109.86 155.358 109.72 156.065 109.72C156.905 109.72 157.651 109.9 158.305 110.26C158.971 110.62 159.491 111.133 159.865 111.8C160.251 111.187 160.778 110.687 161.445 110.3C162.111 109.913 162.838 109.72 163.625 109.72ZM181.076 115.24C181.076 115.56 181.056 115.893 181.016 116.24H173.276C173.33 116.933 173.55 117.467 173.936 117.84C174.336 118.2 174.823 118.38 175.396 118.38C176.25 118.38 176.843 118.02 177.176 117.3H180.816C180.63 118.033 180.29 118.693 179.796 119.28C179.316 119.867 178.71 120.327 177.976 120.66C177.243 120.993 176.423 121.16 175.516 121.16C174.423 121.16 173.45 120.927 172.596 120.46C171.743 119.993 171.076 119.327 170.596 118.46C170.116 117.593 169.876 116.58 169.876 115.42C169.876 114.26 170.11 113.247 170.576 112.38C171.056 111.513 171.723 110.847 172.576 110.38C173.43 109.913 174.41 109.68 175.516 109.68C176.596 109.68 177.556 109.907 178.396 110.36C179.236 110.813 179.89 111.46 180.356 112.3C180.836 113.14 181.076 114.12 181.076 115.24ZM177.576 114.34C177.576 113.753 177.376 113.287 176.976 112.94C176.576 112.593 176.076 112.42 175.476 112.42C174.903 112.42 174.416 112.587 174.016 112.92C173.63 113.253 173.39 113.727 173.296 114.34H177.576ZM175.476 107.36L172.376 109V106.64L175.476 105.06L178.576 106.64V109L175.476 107.36ZM187.421 121.16C186.447 121.16 185.581 120.993 184.821 120.66C184.061 120.327 183.461 119.873 183.021 119.3C182.581 118.713 182.334 118.06 182.281 117.34H185.661C185.701 117.727 185.881 118.04 186.201 118.28C186.521 118.52 186.914 118.64 187.381 118.64C187.807 118.64 188.134 118.56 188.361 118.4C188.601 118.227 188.721 118.007 188.721 117.74C188.721 117.42 188.554 117.187 188.221 117.04C187.887 116.88 187.347 116.707 186.601 116.52C185.801 116.333 185.134 116.14 184.601 115.94C184.067 115.727 183.607 115.4 183.221 114.96C182.834 114.507 182.641 113.9 182.641 113.14C182.641 112.5 182.814 111.92 183.161 111.4C183.521 110.867 184.041 110.447 184.721 110.14C185.414 109.833 186.234 109.68 187.181 109.68C188.581 109.68 189.681 110.027 190.481 110.72C191.294 111.413 191.761 112.333 191.881 113.48H188.721C188.667 113.093 188.494 112.787 188.201 112.56C187.921 112.333 187.547 112.22 187.081 112.22C186.681 112.22 186.374 112.3 186.161 112.46C185.947 112.607 185.841 112.813 185.841 113.08C185.841 113.4 186.007 113.64 186.341 113.8C186.687 113.96 187.221 114.12 187.941 114.28C188.767 114.493 189.441 114.707 189.961 114.92C190.481 115.12 190.934 115.453 191.321 115.92C191.721 116.373 191.927 116.987 191.941 117.76C191.941 118.413 191.754 119 191.381 119.52C191.021 120.027 190.494 120.427 189.801 120.72C189.121 121.013 188.327 121.16 187.421 121.16Z" fill="black"/>
<path d="M163.219 195.68C162.619 195.68 162.126 195.507 161.739 195.16C161.366 194.8 161.179 194.36 161.179 193.84C161.179 193.307 161.366 192.867 161.739 192.52C162.126 192.16 162.619 191.98 163.219 191.98C163.806 191.98 164.286 192.16 164.659 192.52C165.046 192.867 165.239 193.307 165.239 193.84C165.239 194.36 165.046 194.8 164.659 195.16C164.286 195.507 163.806 195.68 163.219 195.68ZM164.939 209.44C164.939 210.813 164.593 211.8 163.899 212.4C163.206 213.013 162.239 213.32 160.999 213.32H159.659V210.42H160.479C160.853 210.42 161.119 210.347 161.279 210.2C161.439 210.053 161.519 209.813 161.519 209.48V196.84H164.939V209.44ZM166.718 202.4C166.718 201.253 166.932 200.247 167.358 199.38C167.798 198.513 168.392 197.847 169.138 197.38C169.885 196.913 170.718 196.68 171.638 196.68C172.425 196.68 173.112 196.84 173.698 197.16C174.298 197.48 174.758 197.9 175.078 198.42V196.84H178.498V208H175.078V206.42C174.745 206.94 174.278 207.36 173.678 207.68C173.092 208 172.405 208.16 171.618 208.16C170.712 208.16 169.885 207.927 169.138 207.46C168.392 206.98 167.798 206.307 167.358 205.44C166.932 204.56 166.718 203.547 166.718 202.4ZM175.078 202.42C175.078 201.567 174.838 200.893 174.358 200.4C173.892 199.907 173.318 199.66 172.638 199.66C171.958 199.66 171.378 199.907 170.898 200.4C170.432 200.88 170.198 201.547 170.198 202.4C170.198 203.253 170.432 203.933 170.898 204.44C171.378 204.933 171.958 205.18 172.638 205.18C173.318 205.18 173.892 204.933 174.358 204.44C174.838 203.947 175.078 203.273 175.078 202.42ZM187.772 196.72C189.079 196.72 190.119 197.147 190.892 198C191.679 198.84 192.072 200 192.072 201.48V208H188.672V201.94C188.672 201.193 188.479 200.613 188.092 200.2C187.706 199.787 187.186 199.58 186.532 199.58C185.879 199.58 185.359 199.787 184.972 200.2C184.586 200.613 184.392 201.193 184.392 201.94V208H180.972V196.84H184.392V198.32C184.739 197.827 185.206 197.44 185.792 197.16C186.379 196.867 187.039 196.72 187.772 196.72ZM204.969 202.24C204.969 202.56 204.949 202.893 204.909 203.24H197.169C197.222 203.933 197.442 204.467 197.829 204.84C198.229 205.2 198.716 205.38 199.289 205.38C200.142 205.38 200.736 205.02 201.069 204.3H204.709C204.522 205.033 204.182 205.693 203.689 206.28C203.209 206.867 202.602 207.327 201.869 207.66C201.136 207.993 200.316 208.16 199.409 208.16C198.316 208.16 197.342 207.927 196.489 207.46C195.636 206.993 194.969 206.327 194.489 205.46C194.009 204.593 193.769 203.58 193.769 202.42C193.769 201.26 194.002 200.247 194.469 199.38C194.949 198.513 195.616 197.847 196.469 197.38C197.322 196.913 198.302 196.68 199.409 196.68C200.489 196.68 201.449 196.907 202.289 197.36C203.129 197.813 203.782 198.46 204.249 199.3C204.729 200.14 204.969 201.12 204.969 202.24ZM201.469 201.34C201.469 200.753 201.269 200.287 200.869 199.94C200.469 199.593 199.969 199.42 199.369 199.42C198.796 199.42 198.309 199.587 197.909 199.92C197.522 200.253 197.282 200.727 197.189 201.34H201.469ZM208.493 195.68C207.893 195.68 207.4 195.507 207.013 195.16C206.64 194.8 206.453 194.36 206.453 193.84C206.453 193.307 206.64 192.867 207.013 192.52C207.4 192.16 207.893 191.98 208.493 191.98C209.08 191.98 209.56 192.16 209.933 192.52C210.32 192.867 210.513 193.307 210.513 193.84C210.513 194.36 210.32 194.8 209.933 195.16C209.56 195.507 209.08 195.68 208.493 195.68ZM210.193 196.84V208H206.773V196.84H210.193ZM216.092 198.7C216.492 198.087 216.992 197.607 217.592 197.26C218.192 196.9 218.858 196.72 219.592 196.72V200.34H218.652C217.798 200.34 217.158 200.527 216.732 200.9C216.305 201.26 216.092 201.9 216.092 202.82V208H212.672V196.84H216.092V198.7ZM226.306 208.16C225.213 208.16 224.226 207.927 223.346 207.46C222.48 206.993 221.793 206.327 221.286 205.46C220.793 204.593 220.546 203.58 220.546 202.42C220.546 201.273 220.8 200.267 221.306 199.4C221.813 198.52 222.506 197.847 223.386 197.38C224.266 196.913 225.253 196.68 226.346 196.68C227.44 196.68 228.426 196.913 229.306 197.38C230.186 197.847 230.88 198.52 231.386 199.4C231.893 200.267 232.146 201.273 232.146 202.42C232.146 203.567 231.886 204.58 231.366 205.46C230.86 206.327 230.16 206.993 229.266 207.46C228.386 207.927 227.4 208.16 226.306 208.16ZM226.306 205.2C226.96 205.2 227.513 204.96 227.966 204.48C228.433 204 228.666 203.313 228.666 202.42C228.666 201.527 228.44 200.84 227.986 200.36C227.546 199.88 227 199.64 226.346 199.64C225.68 199.64 225.126 199.88 224.686 200.36C224.246 200.827 224.026 201.513 224.026 202.42C224.026 203.313 224.24 204 224.666 204.48C225.106 204.96 225.653 205.2 226.306 205.2Z" fill="black"/>
<path d="M359 189L368 200.5L359 213" stroke="black"/>
<path d="M41 189L32 200.5L41 213" stroke="black"/>
<rect width="393" height="72" fill="white"/>
<path d="M35.9187 45.105C35.1487 45.105 34.4587 44.98 33.8487 44.73C33.2387 44.48 32.7487 44.11 32.3787 43.62C32.0187 43.13 31.8287 42.54 31.8087 41.85H34.5387C34.5787 42.24 34.7137 42.54 34.9437 42.75C35.1737 42.95 35.4737 43.05 35.8437 43.05C36.2237 43.05 36.5237 42.965 36.7437 42.795C36.9637 42.615 37.0737 42.37 37.0737 42.06C37.0737 41.8 36.9837 41.585 36.8037 41.415C36.6337 41.245 36.4187 41.105 36.1587 40.995C35.9087 40.885 35.5487 40.76 35.0787 40.62C34.3987 40.41 33.8437 40.2 33.4137 39.99C32.9837 39.78 32.6137 39.47 32.3037 39.06C31.9937 38.65 31.8387 38.115 31.8387 37.455C31.8387 36.475 32.1937 35.71 32.9037 35.16C33.6137 34.6 34.5387 34.32 35.6787 34.32C36.8387 34.32 37.7737 34.6 38.4837 35.16C39.1937 35.71 39.5737 36.48 39.6237 37.47H36.8487C36.8287 37.13 36.7037 36.865 36.4737 36.675C36.2437 36.475 35.9487 36.375 35.5887 36.375C35.2787 36.375 35.0287 36.46 34.8387 36.63C34.6487 36.79 34.5537 37.025 34.5537 37.335C34.5537 37.675 34.7137 37.94 35.0337 38.13C35.3537 38.32 35.8537 38.525 36.5337 38.745C37.2137 38.975 37.7637 39.195 38.1837 39.405C38.6137 39.615 38.9837 39.92 39.2937 40.32C39.6037 40.72 39.7587 41.235 39.7587 41.865C39.7587 42.465 39.6037 43.01 39.2937 43.5C38.9937 43.99 38.5537 44.38 37.9737 44.67C37.3937 44.96 36.7087 45.105 35.9187 45.105ZM43.8572 34.47V40.77C43.8572 41.4 44.0122 41.885 44.3222 42.225C44.6322 42.565 45.0872 42.735 45.6872 42.735C46.2872 42.735 46.7472 42.565 47.0672 42.225C47.3872 41.885 47.5472 41.4 47.5472 40.77V34.47H50.1122V40.755C50.1122 41.695 49.9122 42.49 49.5122 43.14C49.1122 43.79 48.5722 44.28 47.8922 44.61C47.2222 44.94 46.4722 45.105 45.6422 45.105C44.8122 45.105 44.0672 44.945 43.4072 44.625C42.7572 44.295 42.2422 43.805 41.8622 43.155C41.4822 42.495 41.2922 41.695 41.2922 40.755V34.47H43.8572ZM58.4684 43.14H54.5384L53.9084 45H51.2234L55.0334 34.47H58.0034L61.8134 45H59.0984L58.4684 43.14ZM57.8084 41.16L56.5034 37.305L55.2134 41.16H57.8084ZM69.963 37.8C69.773 37.45 69.498 37.185 69.138 37.005C68.788 36.815 68.373 36.72 67.893 36.72C67.063 36.72 66.398 36.995 65.898 37.545C65.398 38.085 65.148 38.81 65.148 39.72C65.148 40.69 65.408 41.45 65.928 42C66.458 42.54 67.183 42.81 68.103 42.81C68.733 42.81 69.263 42.65 69.693 42.33C70.133 42.01 70.453 41.55 70.653 40.95H67.398V39.06H72.978V41.445C72.788 42.085 72.463 42.68 72.003 43.23C71.553 43.78 70.978 44.225 70.278 44.565C69.578 44.905 68.788 45.075 67.908 45.075C66.868 45.075 65.938 44.85 65.118 44.4C64.308 43.94 63.673 43.305 63.213 42.495C62.763 41.685 62.538 40.76 62.538 39.72C62.538 38.68 62.763 37.755 63.213 36.945C63.673 36.125 64.308 35.49 65.118 35.04C65.928 34.58 66.853 34.35 67.893 34.35C69.153 34.35 70.213 34.655 71.073 35.265C71.943 35.875 72.518 36.72 72.798 37.8H69.963ZM76.9638 36.525V38.655H80.3988V40.635H76.9638V42.945H80.8488V45H74.3988V34.47H80.8488V36.525H76.9638ZM91.934 45H89.369L85.079 38.505V45H82.514V34.47H85.079L89.369 40.995V34.47H91.934V45ZM97.7383 34.47C98.8483 34.47 99.8183 34.69 100.648 35.13C101.478 35.57 102.118 36.19 102.568 36.99C103.028 37.78 103.258 38.695 103.258 39.735C103.258 40.765 103.028 41.68 102.568 42.48C102.118 43.28 101.473 43.9 100.633 44.34C99.8033 44.78 98.8383 45 97.7383 45H93.7933V34.47H97.7383ZM97.5733 42.78C98.5433 42.78 99.2983 42.515 99.8383 41.985C100.378 41.455 100.648 40.705 100.648 39.735C100.648 38.765 100.378 38.01 99.8383 37.47C99.2983 36.93 98.5433 36.66 97.5733 36.66H96.3583V42.78H97.5733ZM111.247 43.14H107.317L106.687 45H104.002L107.812 34.47H110.782L114.592 45H111.877L111.247 43.14ZM110.587 41.16L109.282 37.305L107.992 41.16H110.587Z" fill="black"/>
<path d="M334.276 42.9445C333.786 42.1023 333.202 40.4953 333.202 37.625V37.0148C333.202 33.0187 329.996 29.7445 326.052 29.7188H326C325.053 29.7187 324.115 29.9056 323.24 30.2686C322.365 30.6316 321.571 31.1636 320.902 31.8341C320.233 32.5047 319.703 33.3006 319.342 34.1763C318.981 35.052 318.796 35.9903 318.798 36.9375V37.625C318.798 40.4953 318.214 42.1023 317.724 42.9445C317.574 43.2063 317.495 43.5029 317.495 43.8047C317.495 44.1065 317.575 44.403 317.725 44.6647C317.875 44.9264 318.092 45.1441 318.352 45.2961C318.613 45.4481 318.909 45.5292 319.211 45.5312H322.236C322.326 46.4675 322.761 47.3367 323.457 47.9693C324.153 48.6019 325.059 48.9524 326 48.9524C326.94 48.9524 327.847 48.6019 328.543 47.9693C329.239 47.3367 329.674 46.4675 329.764 45.5312H332.789C333.091 45.5292 333.387 45.4481 333.648 45.2961C333.908 45.1441 334.125 44.9264 334.275 44.6647C334.425 44.403 334.505 44.1065 334.505 43.8047C334.505 43.5029 334.426 43.2063 334.276 42.9445ZM326 46.9062C325.604 46.9047 325.221 46.7673 324.914 46.517C324.608 46.2667 324.396 45.9187 324.316 45.5312H327.684C327.604 45.9187 327.392 46.2667 327.086 46.517C326.779 46.7673 326.396 46.9047 326 46.9062ZM319.778 43.4687C320.663 41.6125 320.861 39.3008 320.861 37.625V36.9375C320.858 36.2609 320.988 35.5902 321.245 34.9642C321.502 34.3382 321.88 33.7692 322.357 33.29C322.835 32.8107 323.403 32.4307 324.028 32.1718C324.653 31.9128 325.323 31.7801 326 31.7812H326.043C328.853 31.7984 331.139 34.1445 331.139 37.0148V37.625C331.139 39.3008 331.337 41.6125 332.222 43.4687H319.778Z" fill="black"/>
<path d="M359 29C357.687 29 356.386 29.2587 355.173 29.7612C353.96 30.2638 352.858 31.0003 351.929 31.9289C350.054 33.8043 349 36.3478 349 39C349 41.6522 350.054 44.1957 351.929 46.0711C352.858 46.9997 353.96 47.7362 355.173 48.2388C356.386 48.7413 357.687 49 359 49C361.652 49 364.196 47.9464 366.071 46.0711C367.946 44.1957 369 41.6522 369 39C369 37.6868 368.741 36.3864 368.239 35.1732C367.736 33.9599 367 32.8575 366.071 31.9289C365.142 31.0003 364.04 30.2638 362.827 29.7612C361.614 29.2587 360.313 29 359 29ZM354.07 45.28C354.5 44.38 357.12 43.5 359 43.5C360.88 43.5 363.5 44.38 363.93 45.28C362.529 46.396 360.791 47.0026 359 47C357.14 47 355.43 46.36 354.07 45.28ZM365.36 43.83C363.93 42.09 360.46 41.5 359 41.5C357.54 41.5 354.07 42.09 352.64 43.83C351.576 42.4446 351 40.7467 351 39C351 34.59 354.59 31 359 31C363.41 31 367 34.59 367 39C367 40.82 366.38 42.5 365.36 43.83ZM359 33C357.06 33 355.5 34.56 355.5 36.5C355.5 38.44 357.06 40 359 40C360.94 40 362.5 38.44 362.5 36.5C362.5 34.56 360.94 33 359 33ZM359 38C358.602 38 358.221 37.842 357.939 37.5607C357.658 37.2794 357.5 36.8978 357.5 36.5C357.5 36.1022 357.658 35.7206 357.939 35.4393C358.221 35.158 358.602 35 359 35C359.398 35 359.779 35.158 360.061 35.4393C360.342 35.7206 360.5 36.1022 360.5 36.5C360.5 36.8978 360.342 37.2794 360.061 37.5607C359.779 37.842 359.398 38 359 38Z" fill="black"/>
<rect x="28" y="259" width="41.1429" height="55" fill="#D9D9D9"/>
<rect x="77.1429" y="259" width="41.1429" height="55" fill="#D9D9D9"/>
<rect x="126.286" y="259" width="41.1429" height="55" fill="#D9D9D9"/>
<rect x="175.429" y="259" width="41.1429" height="55" fill="#D9D9D9"/>
<rect x="224.571" y="259" width="41.1429" height="55" fill="#D9D9D9"/>
<rect x="273.714" y="259" width="41.1429" height="55" fill="#D9D9D9"/>
<rect x="322.857" y="259" width="41.1429" height="55" fill="#D9D9D9"/>
<rect x="28" y="328" width="41.1429" height="55" fill="#D9D9D9"/>
<rect x="77.1429" y="328" width="41.1429" height="55" fill="#AAAAAA"/>
<rect x="126.286" y="328" width="41.1429" height="55" fill="#D9D9D9"/>
<rect x="175.429" y="328" width="41.1429" height="55" fill="#D9D9D9"/>
<rect x="224.571" y="328" width="41.1429" height="55" fill="#D9D9D9"/>
<rect x="273.714" y="328" width="41.1429" height="55" fill="#D9D9D9"/>
<rect x="322.857" y="328" width="41.1429" height="55" fill="#D9D9D9"/>
<rect x="28" y="397" width="41.1429" height="55" fill="#D9D9D9"/>
<rect x="77.1429" y="397" width="41.1429" height="55" fill="#D9D9D9"/>
<rect x="126.286" y="397" width="41.1429" height="55" fill="#D9D9D9"/>
<rect x="175.429" y="397" width="41.1429" height="55" fill="#D9D9D9"/>
<rect x="224.571" y="397" width="41.1429" height="55" fill="#D9D9D9"/>
<rect x="273.714" y="397" width="41.1429" height="55" fill="#D9D9D9"/>
<rect x="322.857" y="397" width="41.1429" height="55" fill="#D9D9D9"/>
<rect x="28" y="466" width="41.1429" height="55" fill="#D9D9D9"/>
<rect x="77.1429" y="466" width="41.1429" height="55" fill="#D9D9D9"/>
<rect x="126.286" y="466" width="41.1429" height="55" fill="#D9D9D9"/>
<rect x="175.429" y="466" width="41.1429" height="55" fill="#D9D9D9"/>
<rect x="224.571" y="466" width="41.1429" height="55" fill="#D9D9D9"/>
<rect x="273.714" y="466" width="41.1429" height="55" fill="#D9D9D9"/>
<rect x="322.857" y="466" width="41.1429" height="55" fill="#D9D9D9"/>
<rect x="28" y="535" width="41" height="55" fill="#D9D9D9"/>
<rect x="77" y="535" width="41" height="55" fill="#D9D9D9"/>
<rect x="126" y="535" width="41" height="55" fill="#D9D9D9"/>
<rect x="28" y="642" width="336" height="169" fill="#D9D9D9"/>
<rect x="83" y="337" width="30" height="5" fill="#656565"/>
<path d="M32.7677 622.8C32.7677 621.94 32.9277 621.185 33.2477 620.535C33.5777 619.885 34.0227 619.385 34.5827 619.035C35.1427 618.685 35.7677 618.51 36.4577 618.51C37.0077 618.51 37.5077 618.625 37.9577 618.855C38.4177 619.085 38.7777 619.395 39.0377 619.785V615.9H41.6027V627H39.0377V625.8C38.7977 626.2 38.4527 626.52 38.0027 626.76C37.5627 627 37.0477 627.12 36.4577 627.12C35.7677 627.12 35.1427 626.945 34.5827 626.595C34.0227 626.235 33.5777 625.73 33.2477 625.08C32.9277 624.42 32.7677 623.66 32.7677 622.8ZM39.0377 622.815C39.0377 622.175 38.8577 621.67 38.4977 621.3C38.1477 620.93 37.7177 620.745 37.2077 620.745C36.6977 620.745 36.2627 620.93 35.9027 621.3C35.5527 621.66 35.3777 622.16 35.3777 622.8C35.3777 623.44 35.5527 623.95 35.9027 624.33C36.2627 624.7 36.6977 624.885 37.2077 624.885C37.7177 624.885 38.1477 624.7 38.4977 624.33C38.8577 623.96 39.0377 623.455 39.0377 622.815ZM44.7483 617.76C44.2983 617.76 43.9283 617.63 43.6383 617.37C43.3583 617.1 43.2183 616.77 43.2183 616.38C43.2183 615.98 43.3583 615.65 43.6383 615.39C43.9283 615.12 44.2983 614.985 44.7483 614.985C45.1883 614.985 45.5483 615.12 45.8283 615.39C46.1183 615.65 46.2633 615.98 46.2633 616.38C46.2633 616.77 46.1183 617.1 45.8283 617.37C45.5483 617.63 45.1883 617.76 44.7483 617.76ZM46.0233 618.63V627H43.4583V618.63H46.0233ZM47.3721 622.8C47.3721 621.94 47.5321 621.185 47.8521 620.535C48.1821 619.885 48.6271 619.385 49.1871 619.035C49.7471 618.685 50.3721 618.51 51.0621 618.51C51.6521 618.51 52.1671 618.63 52.6071 618.87C53.0571 619.11 53.4021 619.425 53.6421 619.815V618.63H56.2071V627H53.6421V625.815C53.3921 626.205 53.0421 626.52 52.5921 626.76C52.1521 627 51.6371 627.12 51.0471 627.12C50.3671 627.12 49.7471 626.945 49.1871 626.595C48.6271 626.235 48.1821 625.73 47.8521 625.08C47.5321 624.42 47.3721 623.66 47.3721 622.8ZM53.6421 622.815C53.6421 622.175 53.4621 621.67 53.1021 621.3C52.7521 620.93 52.3221 620.745 51.8121 620.745C51.3021 620.745 50.8671 620.93 50.5071 621.3C50.1571 621.66 49.9821 622.16 49.9821 622.8C49.9821 623.44 50.1571 623.95 50.5071 624.33C50.8671 624.7 51.3021 624.885 51.8121 624.885C52.3221 624.885 52.7521 624.7 53.1021 624.33C53.4621 623.96 53.6421 623.455 53.6421 622.815ZM63.7465 623.79C63.8965 624.58 64.3565 624.975 65.1265 624.975C65.6565 624.975 66.0315 624.74 66.2515 624.27C66.4715 623.8 66.5815 623.035 66.5815 621.975C66.3615 622.285 66.0615 622.525 65.6815 622.695C65.3015 622.865 64.8765 622.95 64.4065 622.95C63.7665 622.95 63.1965 622.82 62.6965 622.56C62.1965 622.29 61.8015 621.895 61.5115 621.375C61.2315 620.845 61.0915 620.205 61.0915 619.455C61.0915 618.715 61.2415 618.07 61.5415 617.52C61.8515 616.97 62.2865 616.545 62.8465 616.245C63.4165 615.945 64.0865 615.795 64.8565 615.795C66.3365 615.795 67.3715 616.255 67.9615 617.175C68.5515 618.095 68.8465 619.45 68.8465 621.24C68.8465 622.54 68.7265 623.615 68.4865 624.465C68.2565 625.305 67.8615 625.945 67.3015 626.385C66.7515 626.825 65.9965 627.045 65.0365 627.045C64.2765 627.045 63.6265 626.895 63.0865 626.595C62.5565 626.295 62.1465 625.9 61.8565 625.41C61.5765 624.92 61.4165 624.38 61.3765 623.79H63.7465ZM64.9915 620.925C65.4115 620.925 65.7465 620.8 65.9965 620.55C66.2465 620.29 66.3715 619.94 66.3715 619.5C66.3715 619.02 66.2415 618.65 65.9815 618.39C65.7215 618.13 65.3715 618 64.9315 618C64.4915 618 64.1415 618.135 63.8815 618.405C63.6315 618.665 63.5065 619.025 63.5065 619.485C63.5065 619.915 63.6315 620.265 63.8815 620.535C64.1415 620.795 64.5115 620.925 64.9915 620.925ZM73.1388 622.8C73.1388 621.94 73.2988 621.185 73.6188 620.535C73.9488 619.885 74.3938 619.385 74.9538 619.035C75.5138 618.685 76.1388 618.51 76.8288 618.51C77.3788 618.51 77.8788 618.625 78.3288 618.855C78.7888 619.085 79.1488 619.395 79.4088 619.785V615.9H81.9738V627H79.4088V625.8C79.1688 626.2 78.8238 626.52 78.3738 626.76C77.9338 627 77.4188 627.12 76.8288 627.12C76.1388 627.12 75.5138 626.945 74.9538 626.595C74.3938 626.235 73.9488 625.73 73.6188 625.08C73.2988 624.42 73.1388 623.66 73.1388 622.8ZM79.4088 622.815C79.4088 622.175 79.2288 621.67 78.8688 621.3C78.5188 620.93 78.0888 620.745 77.5788 620.745C77.0688 620.745 76.6338 620.93 76.2738 621.3C75.9238 621.66 75.7488 622.16 75.7488 622.8C75.7488 623.44 75.9238 623.95 76.2738 624.33C76.6338 624.7 77.0688 624.885 77.5788 624.885C78.0888 624.885 78.5188 624.7 78.8688 624.33C79.2288 623.96 79.4088 623.455 79.4088 622.815ZM91.7194 622.68C91.7194 622.92 91.7044 623.17 91.6744 623.43H85.8694C85.9094 623.95 86.0744 624.35 86.3644 624.63C86.6644 624.9 87.0294 625.035 87.4594 625.035C88.0994 625.035 88.5444 624.765 88.7944 624.225H91.5244C91.3844 624.775 91.1294 625.27 90.7594 625.71C90.3994 626.15 89.9444 626.495 89.3944 626.745C88.8444 626.995 88.2294 627.12 87.5494 627.12C86.7294 627.12 85.9994 626.945 85.3594 626.595C84.7194 626.245 84.2194 625.745 83.8594 625.095C83.4994 624.445 83.3194 623.685 83.3194 622.815C83.3194 621.945 83.4944 621.185 83.8444 620.535C84.2044 619.885 84.7044 619.385 85.3444 619.035C85.9844 618.685 86.7194 618.51 87.5494 618.51C88.3594 618.51 89.0794 618.68 89.7094 619.02C90.3394 619.36 90.8294 619.845 91.1794 620.475C91.5394 621.105 91.7194 621.84 91.7194 622.68ZM89.0944 622.005C89.0944 621.565 88.9444 621.215 88.6444 620.955C88.3444 620.695 87.9694 620.565 87.5194 620.565C87.0894 620.565 86.7244 620.69 86.4244 620.94C86.1344 621.19 85.9544 621.545 85.8844 622.005H89.0944ZM97.5263 617.76C97.0763 617.76 96.7063 617.63 96.4163 617.37C96.1363 617.1 95.9963 616.77 95.9963 616.38C95.9963 615.98 96.1363 615.65 96.4163 615.39C96.7063 615.12 97.0763 614.985 97.5263 614.985C97.9663 614.985 98.3263 615.12 98.6063 615.39C98.8963 615.65 99.0413 615.98 99.0413 616.38C99.0413 616.77 98.8963 617.1 98.6063 617.37C98.3263 617.63 97.9663 617.76 97.5263 617.76ZM98.8163 628.08C98.8163 629.11 98.5563 629.85 98.0363 630.3C97.5163 630.76 96.7913 630.99 95.8613 630.99H94.8563V628.815H95.4713C95.7513 628.815 95.9513 628.76 96.0713 628.65C96.1913 628.54 96.2513 628.36 96.2513 628.11V618.63H98.8163V628.08ZM100.15 622.8C100.15 621.94 100.31 621.185 100.63 620.535C100.96 619.885 101.405 619.385 101.965 619.035C102.525 618.685 103.15 618.51 103.84 618.51C104.43 618.51 104.945 618.63 105.385 618.87C105.835 619.11 106.18 619.425 106.42 619.815V618.63H108.985V627H106.42V625.815C106.17 626.205 105.82 626.52 105.37 626.76C104.93 627 104.415 627.12 103.825 627.12C103.145 627.12 102.525 626.945 101.965 626.595C101.405 626.235 100.96 625.73 100.63 625.08C100.31 624.42 100.15 623.66 100.15 622.8ZM106.42 622.815C106.42 622.175 106.24 621.67 105.88 621.3C105.53 620.93 105.1 620.745 104.59 620.745C104.08 620.745 103.645 620.93 103.285 621.3C102.935 621.66 102.76 622.16 102.76 622.8C102.76 623.44 102.935 623.95 103.285 624.33C103.645 624.7 104.08 624.885 104.59 624.885C105.1 624.885 105.53 624.7 105.88 624.33C106.24 623.96 106.42 623.455 106.42 622.815ZM115.941 618.54C116.921 618.54 117.701 618.86 118.281 619.5C118.871 620.13 119.166 621 119.166 622.11V627H116.616V622.455C116.616 621.895 116.471 621.46 116.181 621.15C115.891 620.84 115.501 620.685 115.011 620.685C114.521 620.685 114.131 620.84 113.841 621.15C113.551 621.46 113.406 621.895 113.406 622.455V627H110.841V618.63H113.406V619.74C113.666 619.37 114.016 619.08 114.456 618.87C114.896 618.65 115.391 618.54 115.941 618.54ZM128.839 622.68C128.839 622.92 128.824 623.17 128.794 623.43H122.989C123.029 623.95 123.194 624.35 123.484 624.63C123.784 624.9 124.149 625.035 124.579 625.035C125.219 625.035 125.664 624.765 125.914 624.225H128.644C128.504 624.775 128.249 625.27 127.879 625.71C127.519 626.15 127.064 626.495 126.514 626.745C125.964 626.995 125.349 627.12 124.669 627.12C123.849 627.12 123.119 626.945 122.479 626.595C121.839 626.245 121.339 625.745 120.979 625.095C120.619 624.445 120.439 623.685 120.439 622.815C120.439 621.945 120.614 621.185 120.964 620.535C121.324 619.885 121.824 619.385 122.464 619.035C123.104 618.685 123.839 618.51 124.669 618.51C125.479 618.51 126.199 618.68 126.829 619.02C127.459 619.36 127.949 619.845 128.299 620.475C128.659 621.105 128.839 621.84 128.839 622.68ZM126.214 622.005C126.214 621.565 126.064 621.215 125.764 620.955C125.464 620.695 125.089 620.565 124.639 620.565C124.209 620.565 123.844 620.69 123.544 620.94C123.254 621.19 123.074 621.545 123.004 622.005H126.214ZM131.482 617.76C131.032 617.76 130.662 617.63 130.372 617.37C130.092 617.1 129.952 616.77 129.952 616.38C129.952 615.98 130.092 615.65 130.372 615.39C130.662 615.12 131.032 614.985 131.482 614.985C131.922 614.985 132.282 615.12 132.562 615.39C132.852 615.65 132.997 615.98 132.997 616.38C132.997 616.77 132.852 617.1 132.562 617.37C132.282 617.63 131.922 617.76 131.482 617.76ZM132.757 618.63V627H130.192V618.63H132.757ZM137.181 620.025C137.481 619.565 137.856 619.205 138.306 618.945C138.756 618.675 139.256 618.54 139.806 618.54V621.255H139.101C138.461 621.255 137.981 621.395 137.661 621.675C137.341 621.945 137.181 622.425 137.181 623.115V627H134.616V618.63H137.181V620.025ZM144.842 627.12C144.022 627.12 143.282 626.945 142.622 626.595C141.972 626.245 141.457 625.745 141.077 625.095C140.707 624.445 140.522 623.685 140.522 622.815C140.522 621.955 140.712 621.2 141.092 620.55C141.472 619.89 141.992 619.385 142.652 619.035C143.312 618.685 144.052 618.51 144.872 618.51C145.692 618.51 146.432 618.685 147.092 619.035C147.752 619.385 148.272 619.89 148.652 620.55C149.032 621.2 149.222 621.955 149.222 622.815C149.222 623.675 149.027 624.435 148.637 625.095C148.257 625.745 147.732 626.245 147.062 626.595C146.402 626.945 145.662 627.12 144.842 627.12ZM144.842 624.9C145.332 624.9 145.747 624.72 146.087 624.36C146.437 624 146.612 623.485 146.612 622.815C146.612 622.145 146.442 621.63 146.102 621.27C145.772 620.91 145.362 620.73 144.872 620.73C144.372 620.73 143.957 620.91 143.627 621.27C143.297 621.62 143.132 622.135 143.132 622.815C143.132 623.485 143.292 624 143.612 624.36C143.942 624.72 144.352 624.9 144.842 624.9Z" fill="black"/>
<path d="M53.7376 671.361C53.4256 671.361 53.1396 671.287 52.8796 671.14C52.6282 670.984 52.4246 670.78 52.2686 670.529C52.1212 670.269 52.0476 669.983 52.0476 669.671C52.0476 669.194 52.2122 668.791 52.5416 668.462C52.8709 668.133 53.2696 667.968 53.7376 667.968C54.2229 667.968 54.6302 668.133 54.9596 668.462C55.2889 668.791 55.4536 669.194 55.4536 669.671C55.4536 670.148 55.2889 670.551 54.9596 670.88C54.6302 671.201 54.2229 671.361 53.7376 671.361ZM68.089 666.72C68.6523 666.72 69.155 666.837 69.597 667.071C70.0477 667.305 70.3987 667.652 70.65 668.111C70.9013 668.57 71.027 669.125 71.027 669.775V674H69.558V669.996C69.558 669.355 69.3977 668.865 69.077 668.527C68.7563 668.18 68.3187 668.007 67.764 668.007C67.2093 668.007 66.7673 668.18 66.438 668.527C66.1173 668.865 65.957 669.355 65.957 669.996V674H64.475V666.837H65.957V667.656C66.1997 667.361 66.5073 667.132 66.88 666.967C67.2613 666.802 67.6643 666.72 68.089 666.72ZM76.0244 674.117C75.3484 674.117 74.7374 673.965 74.1914 673.662C73.6454 673.35 73.2164 672.917 72.9044 672.362C72.5924 671.799 72.4364 671.149 72.4364 670.412C72.4364 669.684 72.5967 669.038 72.9174 668.475C73.238 667.912 73.6757 667.478 74.2304 667.175C74.785 666.872 75.4047 666.72 76.0894 666.72C76.774 666.72 77.3937 666.872 77.9484 667.175C78.503 667.478 78.9407 667.912 79.2614 668.475C79.582 669.038 79.7424 669.684 79.7424 670.412C79.7424 671.14 79.5777 671.786 79.2484 672.349C78.9191 672.912 78.4684 673.35 77.8964 673.662C77.333 673.965 76.709 674.117 76.0244 674.117ZM76.0244 672.83C76.4057 672.83 76.761 672.739 77.0904 672.557C77.4284 672.375 77.7014 672.102 77.9094 671.738C78.1174 671.374 78.2214 670.932 78.2214 670.412C78.2214 669.892 78.1217 669.454 77.9224 669.099C77.723 668.735 77.4587 668.462 77.1294 668.28C76.8 668.098 76.4447 668.007 76.0634 668.007C75.682 668.007 75.3267 668.098 74.9974 668.28C74.6767 668.462 74.421 668.735 74.2304 669.099C74.0397 669.454 73.9444 669.892 73.9444 670.412C73.9444 671.183 74.1394 671.781 74.5294 672.206C74.928 672.622 75.4264 672.83 76.0244 672.83ZM89.8784 666.72C90.4418 666.72 90.9444 666.837 91.3864 667.071C91.8371 667.305 92.1881 667.652 92.4394 668.111C92.6994 668.57 92.8294 669.125 92.8294 669.775V674H91.3604V669.996C91.3604 669.355 91.2001 668.865 90.8794 668.527C90.5588 668.18 90.1211 668.007 89.5664 668.007C89.0118 668.007 88.5698 668.18 88.2404 668.527C87.9198 668.865 87.7594 669.355 87.7594 669.996V674H86.2904V669.996C86.2904 669.355 86.1301 668.865 85.8094 668.527C85.4888 668.18 85.0511 668.007 84.4964 668.007C83.9418 668.007 83.4998 668.18 83.1704 668.527C82.8498 668.865 82.6894 669.355 82.6894 669.996V674H81.2074V666.837H82.6894V667.656C82.9321 667.361 83.2398 667.132 83.6124 666.967C83.9851 666.802 84.3838 666.72 84.8084 666.72C85.3804 666.72 85.8918 666.841 86.3424 667.084C86.7931 667.327 87.1398 667.678 87.3824 668.137C87.5991 667.704 87.9371 667.361 88.3964 667.11C88.8558 666.85 89.3498 666.72 89.8784 666.72ZM101.28 670.243C101.28 670.512 101.263 670.754 101.228 670.971H95.7552C95.7986 671.543 96.0109 672.002 96.3922 672.349C96.7736 672.696 97.2416 672.869 97.7962 672.869C98.5936 672.869 99.1569 672.535 99.4862 671.868H101.085C100.869 672.527 100.474 673.068 99.9022 673.493C99.3389 673.909 98.6369 674.117 97.7962 674.117C97.1116 674.117 96.4962 673.965 95.9502 673.662C95.4129 673.35 94.9882 672.917 94.6762 672.362C94.3729 671.799 94.2212 671.149 94.2212 670.412C94.2212 669.675 94.3686 669.03 94.6632 668.475C94.9666 667.912 95.3869 667.478 95.9242 667.175C96.4702 666.872 97.0942 666.72 97.7962 666.72C98.4722 666.72 99.0746 666.867 99.6032 667.162C100.132 667.457 100.544 667.873 100.838 668.41C101.133 668.939 101.28 669.55 101.28 670.243ZM99.7332 669.775C99.7246 669.229 99.5296 668.791 99.1482 668.462C98.7669 668.133 98.2946 667.968 97.7312 667.968C97.2199 667.968 96.7822 668.133 96.4182 668.462C96.0542 668.783 95.8376 669.22 95.7682 669.775H99.7332ZM105.622 670.386C105.622 669.667 105.769 669.03 106.064 668.475C106.367 667.92 106.774 667.491 107.286 667.188C107.806 666.876 108.382 666.72 109.015 666.72C109.483 666.72 109.942 666.824 110.393 667.032C110.852 667.231 111.216 667.5 111.485 667.838V664.38H112.98V674H111.485V672.921C111.242 673.268 110.904 673.554 110.471 673.779C110.046 674.004 109.556 674.117 109.002 674.117C108.378 674.117 107.806 673.961 107.286 673.649C106.774 673.328 106.367 672.886 106.064 672.323C105.769 671.751 105.622 671.105 105.622 670.386ZM111.485 670.412C111.485 669.918 111.381 669.489 111.173 669.125C110.973 668.761 110.709 668.484 110.38 668.293C110.05 668.102 109.695 668.007 109.314 668.007C108.932 668.007 108.577 668.102 108.248 668.293C107.918 668.475 107.65 668.748 107.442 669.112C107.242 669.467 107.143 669.892 107.143 670.386C107.143 670.88 107.242 671.313 107.442 671.686C107.65 672.059 107.918 672.345 108.248 672.544C108.586 672.735 108.941 672.83 109.314 672.83C109.695 672.83 110.05 672.735 110.38 672.544C110.709 672.353 110.973 672.076 111.173 671.712C111.381 671.339 111.485 670.906 111.485 670.412ZM118.033 674.117C117.357 674.117 116.746 673.965 116.2 673.662C115.654 673.35 115.225 672.917 114.913 672.362C114.601 671.799 114.445 671.149 114.445 670.412C114.445 669.684 114.606 669.038 114.926 668.475C115.247 667.912 115.685 667.478 116.239 667.175C116.794 666.872 117.414 666.72 118.098 666.72C118.783 666.72 119.403 666.872 119.957 667.175C120.512 667.478 120.95 667.912 121.27 668.475C121.591 669.038 121.751 669.684 121.751 670.412C121.751 671.14 121.587 671.786 121.257 672.349C120.928 672.912 120.477 673.35 119.905 673.662C119.342 673.965 118.718 674.117 118.033 674.117ZM118.033 672.83C118.415 672.83 118.77 672.739 119.099 672.557C119.437 672.375 119.71 672.102 119.918 671.738C120.126 671.374 120.23 670.932 120.23 670.412C120.23 669.892 120.131 669.454 119.931 669.099C119.732 668.735 119.468 668.462 119.138 668.28C118.809 668.098 118.454 668.007 118.072 668.007C117.691 668.007 117.336 668.098 117.006 668.28C116.686 668.462 116.43 668.735 116.239 669.099C116.049 669.454 115.953 669.892 115.953 670.412C115.953 671.183 116.148 671.781 116.538 672.206C116.937 672.622 117.435 672.83 118.033 672.83ZM133.158 670.243C133.158 670.512 133.141 670.754 133.106 670.971H127.633C127.676 671.543 127.889 672.002 128.27 672.349C128.651 672.696 129.119 672.869 129.674 672.869C130.471 672.869 131.035 672.535 131.364 671.868H132.963C132.746 672.527 132.352 673.068 131.78 673.493C131.217 673.909 130.515 674.117 129.674 674.117C128.989 674.117 128.374 673.965 127.828 673.662C127.291 673.35 126.866 672.917 126.554 672.362C126.251 671.799 126.099 671.149 126.099 670.412C126.099 669.675 126.246 669.03 126.541 668.475C126.844 667.912 127.265 667.478 127.802 667.175C128.348 666.872 128.972 666.72 129.674 666.72C130.35 666.72 130.952 666.867 131.481 667.162C132.01 667.457 132.421 667.873 132.716 668.41C133.011 668.939 133.158 669.55 133.158 670.243ZM131.611 669.775C131.602 669.229 131.407 668.791 131.026 668.462C130.645 668.133 130.172 667.968 129.609 667.968C129.098 667.968 128.66 668.133 128.296 668.462C127.932 668.783 127.715 669.22 127.646 669.775H131.611ZM137.386 672.674L139.414 666.837H140.987L138.257 674H136.489L133.772 666.837H135.358L137.386 672.674ZM148.672 670.243C148.672 670.512 148.655 670.754 148.62 670.971H143.147C143.19 671.543 143.403 672.002 143.784 672.349C144.165 672.696 144.633 672.869 145.188 672.869C145.985 672.869 146.549 672.535 146.878 671.868H148.477C148.26 672.527 147.866 673.068 147.294 673.493C146.731 673.909 146.029 674.117 145.188 674.117C144.503 674.117 143.888 673.965 143.342 673.662C142.805 673.35 142.38 672.917 142.068 672.362C141.765 671.799 141.613 671.149 141.613 670.412C141.613 669.675 141.76 669.03 142.055 668.475C142.358 667.912 142.779 667.478 143.316 667.175C143.862 666.872 144.486 666.72 145.188 666.72C145.864 666.72 146.466 666.867 146.995 667.162C147.524 667.457 147.935 667.873 148.23 668.41C148.525 668.939 148.672 669.55 148.672 670.243ZM147.125 669.775C147.116 669.229 146.921 668.791 146.54 668.462C146.159 668.133 145.686 667.968 145.123 667.968C144.612 667.968 144.174 668.133 143.81 668.462C143.446 668.783 143.229 669.22 143.16 669.775H147.125ZM153.744 666.72C154.308 666.72 154.81 666.837 155.252 667.071C155.703 667.305 156.054 667.652 156.305 668.111C156.557 668.57 156.682 669.125 156.682 669.775V674H155.213V669.996C155.213 669.355 155.053 668.865 154.732 668.527C154.412 668.18 153.974 668.007 153.419 668.007C152.865 668.007 152.423 668.18 152.093 668.527C151.773 668.865 151.612 669.355 151.612 669.996V674H150.13V666.837H151.612V667.656C151.855 667.361 152.163 667.132 152.535 666.967C152.917 666.802 153.32 666.72 153.744 666.72ZM160.302 668.046V672.011C160.302 672.28 160.362 672.475 160.484 672.596C160.614 672.709 160.83 672.765 161.134 672.765H162.044V674H160.874C160.206 674 159.695 673.844 159.34 673.532C158.984 673.22 158.807 672.713 158.807 672.011V668.046H157.962V666.837H158.807V665.056H160.302V666.837H162.044V668.046H160.302ZM166.517 674.117C165.841 674.117 165.23 673.965 164.684 673.662C164.138 673.35 163.709 672.917 163.397 672.362C163.085 671.799 162.929 671.149 162.929 670.412C162.929 669.684 163.089 669.038 163.41 668.475C163.73 667.912 164.168 667.478 164.723 667.175C165.277 666.872 165.897 666.72 166.582 666.72C167.266 666.72 167.886 666.872 168.441 667.175C168.995 667.478 169.433 667.912 169.754 668.475C170.074 669.038 170.235 669.684 170.235 670.412C170.235 671.14 170.07 671.786 169.741 672.349C169.411 672.912 168.961 673.35 168.389 673.662C167.825 673.965 167.201 674.117 166.517 674.117ZM166.517 672.83C166.898 672.83 167.253 672.739 167.583 672.557C167.921 672.375 168.194 672.102 168.402 671.738C168.61 671.374 168.714 670.932 168.714 670.412C168.714 669.892 168.614 669.454 168.415 669.099C168.215 668.735 167.951 668.462 167.622 668.28C167.292 668.098 166.937 668.007 166.556 668.007C166.174 668.007 165.819 668.098 165.49 668.28C165.169 668.462 164.913 668.735 164.723 669.099C164.532 669.454 164.437 669.892 164.437 670.412C164.437 671.183 164.632 671.781 165.022 672.206C165.42 672.622 165.919 672.83 166.517 672.83Z" fill="black"/>
<path d="M177.973 665.68V664.601H180.417V674H179.221V665.68H177.973ZM183.97 671.478C184.056 671.972 184.256 672.353 184.568 672.622C184.888 672.891 185.317 673.025 185.855 673.025C186.574 673.025 187.103 672.743 187.441 672.18C187.787 671.617 187.952 670.668 187.935 669.333C187.753 669.723 187.449 670.031 187.025 670.256C186.6 670.473 186.128 670.581 185.608 670.581C185.027 670.581 184.507 670.464 184.048 670.23C183.597 669.987 183.242 669.636 182.982 669.177C182.722 668.718 182.592 668.163 182.592 667.513C182.592 666.586 182.86 665.84 183.398 665.277C183.935 664.705 184.698 664.419 185.686 664.419C186.899 664.419 187.748 664.813 188.234 665.602C188.728 666.391 188.975 667.565 188.975 669.125C188.975 670.217 188.875 671.118 188.676 671.829C188.485 672.54 188.156 673.081 187.688 673.454C187.228 673.827 186.596 674.013 185.79 674.013C184.906 674.013 184.217 673.775 183.723 673.298C183.229 672.821 182.947 672.215 182.878 671.478H183.97ZM185.803 669.58C186.383 669.58 186.86 669.402 187.233 669.047C187.605 668.683 187.792 668.193 187.792 667.578C187.792 666.928 187.61 666.404 187.246 666.005C186.882 665.606 186.37 665.407 185.712 665.407C185.105 665.407 184.62 665.598 184.256 665.979C183.9 666.36 183.723 666.863 183.723 667.487C183.723 668.12 183.9 668.627 184.256 669.008C184.611 669.389 185.127 669.58 185.803 669.58ZM194.368 666.746C194.905 666.746 195.391 666.863 195.824 667.097C196.257 667.322 196.595 667.665 196.838 668.124C197.089 668.583 197.215 669.142 197.215 669.801V674H196.045V669.97C196.045 669.259 195.867 668.718 195.512 668.345C195.157 667.964 194.671 667.773 194.056 667.773C193.432 667.773 192.934 667.968 192.561 668.358C192.197 668.748 192.015 669.316 192.015 670.061V674H190.832V664.38H192.015V667.89C192.249 667.526 192.57 667.244 192.977 667.045C193.393 666.846 193.857 666.746 194.368 666.746ZM198.926 666.967C198.987 666.17 199.295 665.546 199.849 665.095C200.404 664.644 201.123 664.419 202.007 664.419C202.597 664.419 203.104 664.527 203.528 664.744C203.962 664.952 204.287 665.238 204.503 665.602C204.729 665.966 204.841 666.378 204.841 666.837C204.841 667.374 204.685 667.838 204.373 668.228C204.07 668.618 203.671 668.869 203.177 668.982V669.047C203.741 669.186 204.187 669.459 204.516 669.866C204.846 670.273 205.01 670.806 205.01 671.465C205.01 671.959 204.898 672.405 204.672 672.804C204.447 673.194 204.109 673.502 203.658 673.727C203.208 673.952 202.666 674.065 202.033 674.065C201.115 674.065 200.361 673.827 199.771 673.35C199.182 672.865 198.853 672.18 198.783 671.296H199.927C199.988 671.816 200.2 672.241 200.564 672.57C200.928 672.899 201.414 673.064 202.02 673.064C202.627 673.064 203.086 672.908 203.398 672.596C203.719 672.275 203.879 671.864 203.879 671.361C203.879 670.711 203.663 670.243 203.229 669.957C202.796 669.671 202.142 669.528 201.266 669.528H200.967V668.54H201.279C202.077 668.531 202.679 668.401 203.086 668.15C203.494 667.89 203.697 667.491 203.697 666.954C203.697 666.495 203.546 666.126 203.242 665.849C202.948 665.572 202.523 665.433 201.968 665.433C201.431 665.433 200.998 665.572 200.668 665.849C200.339 666.126 200.144 666.499 200.083 666.967H198.926ZM206.608 669.203C206.608 667.712 206.85 666.551 207.336 665.719C207.821 664.878 208.67 664.458 209.884 664.458C211.088 664.458 211.933 664.878 212.419 665.719C212.904 666.551 213.147 667.712 213.147 669.203C213.147 670.72 212.904 671.898 212.419 672.739C211.933 673.58 211.088 674 209.884 674C208.67 674 207.821 673.58 207.336 672.739C206.85 671.898 206.608 670.72 206.608 669.203ZM211.977 669.203C211.977 668.449 211.925 667.812 211.821 667.292C211.725 666.763 211.522 666.339 211.21 666.018C210.906 665.697 210.464 665.537 209.884 665.537C209.294 665.537 208.844 665.697 208.532 666.018C208.228 666.339 208.025 666.763 207.921 667.292C207.825 667.812 207.778 668.449 207.778 669.203C207.778 669.983 207.825 670.637 207.921 671.166C208.025 671.695 208.228 672.119 208.532 672.44C208.844 672.761 209.294 672.921 209.884 672.921C210.464 672.921 210.906 672.761 211.21 672.44C211.522 672.119 211.725 671.695 211.821 671.166C211.925 670.637 211.977 669.983 211.977 669.203Z" fill="black" fill-opacity="0.53"/>
</svg>
