<svg width="393" height="852" viewBox="0 0 393 852" fill="none" xmlns="http://www.w3.org/2000/svg">
<g clip-path="url(#clip0_43_578)">
<rect width="393" height="852" fill="white"/>
<rect width="393" height="72" fill="white"/>
<path d="M35.9187 45.105C35.1487 45.105 34.4587 44.98 33.8487 44.73C33.2387 44.48 32.7487 44.11 32.3787 43.62C32.0187 43.13 31.8287 42.54 31.8087 41.85H34.5387C34.5787 42.24 34.7137 42.54 34.9437 42.75C35.1737 42.95 35.4737 43.05 35.8437 43.05C36.2237 43.05 36.5237 42.965 36.7437 42.795C36.9637 42.615 37.0737 42.37 37.0737 42.06C37.0737 41.8 36.9837 41.585 36.8037 41.415C36.6337 41.245 36.4187 41.105 36.1587 40.995C35.9087 40.885 35.5487 40.76 35.0787 40.62C34.3987 40.41 33.8437 40.2 33.4137 39.99C32.9837 39.78 32.6137 39.47 32.3037 39.06C31.9937 38.65 31.8387 38.115 31.8387 37.455C31.8387 36.475 32.1937 35.71 32.9037 35.16C33.6137 34.6 34.5387 34.32 35.6787 34.32C36.8387 34.32 37.7737 34.6 38.4837 35.16C39.1937 35.71 39.5737 36.48 39.6237 37.47H36.8487C36.8287 37.13 36.7037 36.865 36.4737 36.675C36.2437 36.475 35.9487 36.375 35.5887 36.375C35.2787 36.375 35.0287 36.46 34.8387 36.63C34.6487 36.79 34.5537 37.025 34.5537 37.335C34.5537 37.675 34.7137 37.94 35.0337 38.13C35.3537 38.32 35.8537 38.525 36.5337 38.745C37.2137 38.975 37.7637 39.195 38.1837 39.405C38.6137 39.615 38.9837 39.92 39.2937 40.32C39.6037 40.72 39.7587 41.235 39.7587 41.865C39.7587 42.465 39.6037 43.01 39.2937 43.5C38.9937 43.99 38.5537 44.38 37.9737 44.67C37.3937 44.96 36.7087 45.105 35.9187 45.105ZM43.8572 34.47V40.77C43.8572 41.4 44.0122 41.885 44.3222 42.225C44.6322 42.565 45.0872 42.735 45.6872 42.735C46.2872 42.735 46.7472 42.565 47.0672 42.225C47.3872 41.885 47.5472 41.4 47.5472 40.77V34.47H50.1122V40.755C50.1122 41.695 49.9122 42.49 49.5122 43.14C49.1122 43.79 48.5722 44.28 47.8922 44.61C47.2222 44.94 46.4722 45.105 45.6422 45.105C44.8122 45.105 44.0672 44.945 43.4072 44.625C42.7572 44.295 42.2422 43.805 41.8622 43.155C41.4822 42.495 41.2922 41.695 41.2922 40.755V34.47H43.8572ZM58.4684 43.14H54.5384L53.9084 45H51.2234L55.0334 34.47H58.0034L61.8134 45H59.0984L58.4684 43.14ZM57.8084 41.16L56.5034 37.305L55.2134 41.16H57.8084ZM69.963 37.8C69.773 37.45 69.498 37.185 69.138 37.005C68.788 36.815 68.373 36.72 67.893 36.72C67.063 36.72 66.398 36.995 65.898 37.545C65.398 38.085 65.148 38.81 65.148 39.72C65.148 40.69 65.408 41.45 65.928 42C66.458 42.54 67.183 42.81 68.103 42.81C68.733 42.81 69.263 42.65 69.693 42.33C70.133 42.01 70.453 41.55 70.653 40.95H67.398V39.06H72.978V41.445C72.788 42.085 72.463 42.68 72.003 43.23C71.553 43.78 70.978 44.225 70.278 44.565C69.578 44.905 68.788 45.075 67.908 45.075C66.868 45.075 65.938 44.85 65.118 44.4C64.308 43.94 63.673 43.305 63.213 42.495C62.763 41.685 62.538 40.76 62.538 39.72C62.538 38.68 62.763 37.755 63.213 36.945C63.673 36.125 64.308 35.49 65.118 35.04C65.928 34.58 66.853 34.35 67.893 34.35C69.153 34.35 70.213 34.655 71.073 35.265C71.943 35.875 72.518 36.72 72.798 37.8H69.963ZM76.9638 36.525V38.655H80.3988V40.635H76.9638V42.945H80.8488V45H74.3988V34.47H80.8488V36.525H76.9638ZM91.934 45H89.369L85.079 38.505V45H82.514V34.47H85.079L89.369 40.995V34.47H91.934V45ZM97.7383 34.47C98.8483 34.47 99.8183 34.69 100.648 35.13C101.478 35.57 102.118 36.19 102.568 36.99C103.028 37.78 103.258 38.695 103.258 39.735C103.258 40.765 103.028 41.68 102.568 42.48C102.118 43.28 101.473 43.9 100.633 44.34C99.8033 44.78 98.8383 45 97.7383 45H93.7933V34.47H97.7383ZM97.5733 42.78C98.5433 42.78 99.2983 42.515 99.8383 41.985C100.378 41.455 100.648 40.705 100.648 39.735C100.648 38.765 100.378 38.01 99.8383 37.47C99.2983 36.93 98.5433 36.66 97.5733 36.66H96.3583V42.78H97.5733ZM111.247 43.14H107.317L106.687 45H104.002L107.812 34.47H110.782L114.592 45H111.877L111.247 43.14ZM110.587 41.16L109.282 37.305L107.992 41.16H110.587Z" fill="black"/>
<path d="M334.276 42.9445C333.786 42.1023 333.202 40.4953 333.202 37.625V37.0148C333.202 33.0187 329.996 29.7445 326.052 29.7188H326C325.053 29.7187 324.115 29.9056 323.24 30.2686C322.365 30.6316 321.571 31.1636 320.902 31.8341C320.233 32.5047 319.703 33.3006 319.342 34.1763C318.981 35.052 318.796 35.9903 318.798 36.9375V37.625C318.798 40.4953 318.214 42.1023 317.724 42.9445C317.574 43.2063 317.495 43.5029 317.495 43.8047C317.495 44.1065 317.575 44.403 317.725 44.6647C317.875 44.9264 318.092 45.1441 318.352 45.2961C318.613 45.4481 318.909 45.5292 319.211 45.5312H322.236C322.326 46.4675 322.761 47.3367 323.457 47.9693C324.153 48.6019 325.059 48.9524 326 48.9524C326.94 48.9524 327.847 48.6019 328.543 47.9693C329.239 47.3367 329.674 46.4675 329.764 45.5312H332.789C333.091 45.5292 333.387 45.4481 333.648 45.2961C333.908 45.1441 334.125 44.9264 334.275 44.6647C334.425 44.403 334.505 44.1065 334.505 43.8047C334.505 43.5029 334.426 43.2063 334.276 42.9445ZM326 46.9062C325.604 46.9047 325.221 46.7673 324.914 46.517C324.608 46.2667 324.396 45.9187 324.316 45.5312H327.684C327.604 45.9187 327.392 46.2667 327.086 46.517C326.779 46.7673 326.396 46.9047 326 46.9062ZM319.778 43.4687C320.663 41.6125 320.861 39.3008 320.861 37.625V36.9375C320.858 36.2609 320.988 35.5902 321.245 34.9642C321.502 34.3382 321.88 33.7692 322.357 33.29C322.835 32.8107 323.403 32.4307 324.028 32.1718C324.653 31.9128 325.323 31.7801 326 31.7812H326.043C328.853 31.7984 331.139 34.1445 331.139 37.0148V37.625C331.139 39.3008 331.337 41.6125 332.222 43.4687H319.778Z" fill="black"/>
<path d="M359 29C357.687 29 356.386 29.2587 355.173 29.7612C353.96 30.2638 352.858 31.0003 351.929 31.9289C350.054 33.8043 349 36.3478 349 39C349 41.6522 350.054 44.1957 351.929 46.0711C352.858 46.9997 353.96 47.7362 355.173 48.2388C356.386 48.7413 357.687 49 359 49C361.652 49 364.196 47.9464 366.071 46.0711C367.946 44.1957 369 41.6522 369 39C369 37.6868 368.741 36.3864 368.239 35.1732C367.736 33.9599 367 32.8575 366.071 31.9289C365.142 31.0003 364.04 30.2638 362.827 29.7612C361.614 29.2587 360.313 29 359 29ZM354.07 45.28C354.5 44.38 357.12 43.5 359 43.5C360.88 43.5 363.5 44.38 363.93 45.28C362.529 46.396 360.791 47.0026 359 47C357.14 47 355.43 46.36 354.07 45.28ZM365.36 43.83C363.93 42.09 360.46 41.5 359 41.5C357.54 41.5 354.07 42.09 352.64 43.83C351.576 42.4446 351 40.7467 351 39C351 34.59 354.59 31 359 31C363.41 31 367 34.59 367 39C367 40.82 366.38 42.5 365.36 43.83ZM359 33C357.06 33 355.5 34.56 355.5 36.5C355.5 38.44 357.06 40 359 40C360.94 40 362.5 38.44 362.5 36.5C362.5 34.56 360.94 33 359 33ZM359 38C358.602 38 358.221 37.842 357.939 37.5607C357.658 37.2794 357.5 36.8978 357.5 36.5C357.5 36.1022 357.658 35.7206 357.939 35.4393C358.221 35.158 358.602 35 359 35C359.398 35 359.779 35.158 360.061 35.4393C360.342 35.7206 360.5 36.1022 360.5 36.5C360.5 36.8978 360.342 37.2794 360.061 37.5607C359.779 37.842 359.398 38 359 38Z" fill="black"/>
<path d="M69.8807 86.96C69.8807 85.5733 70.1807 84.34 70.7807 83.26C71.3807 82.1667 72.214 81.32 73.2807 80.72C74.3607 80.1067 75.5807 79.8 76.9407 79.8C78.6074 79.8 80.034 80.24 81.2207 81.12C82.4074 82 83.2007 83.2 83.6007 84.72H79.8407C79.5607 84.1333 79.1607 83.6867 78.6407 83.38C78.134 83.0733 77.554 82.92 76.9007 82.92C75.8474 82.92 74.994 83.2867 74.3407 84.02C73.6874 84.7533 73.3607 85.7333 73.3607 86.96C73.3607 88.1867 73.6874 89.1667 74.3407 89.9C74.994 90.6333 75.8474 91 76.9007 91C77.554 91 78.134 90.8467 78.6407 90.54C79.1607 90.2333 79.5607 89.7867 79.8407 89.2H83.6007C83.2007 90.72 82.4074 91.92 81.2207 92.8C80.034 93.6667 78.6074 94.1 76.9407 94.1C75.5807 94.1 74.3607 93.8 73.2807 93.2C72.214 92.5867 71.3807 91.74 70.7807 90.66C70.1807 89.58 69.8807 88.3467 69.8807 86.96ZM89.1151 84.7C89.5151 84.0867 90.0151 83.6067 90.6151 83.26C91.2151 82.9 91.8817 82.72 92.6151 82.72V86.34H91.6751C90.8217 86.34 90.1817 86.5267 89.7551 86.9C89.3284 87.26 89.1151 87.9 89.1151 88.82V94H85.6951V82.84H89.1151V84.7ZM95.9698 81.68C95.3698 81.68 94.8764 81.5067 94.4898 81.16C94.1164 80.8 93.9298 80.36 93.9298 79.84C93.9298 79.3067 94.1164 78.8667 94.4898 78.52C94.8764 78.16 95.3698 77.98 95.9698 77.98C96.5564 77.98 97.0364 78.16 97.4098 78.52C97.7964 78.8667 97.9898 79.3067 97.9898 79.84C97.9898 80.36 97.7964 80.8 97.4098 81.16C97.0364 81.5067 96.5564 81.68 95.9698 81.68ZM97.6698 82.84V94H94.2498V82.84H97.6698ZM99.4682 88.4C99.4682 87.2533 99.6815 86.2467 100.108 85.38C100.548 84.5133 101.142 83.8467 101.888 83.38C102.635 82.9133 103.468 82.68 104.388 82.68C105.175 82.68 105.862 82.84 106.448 83.16C107.048 83.48 107.508 83.9 107.828 84.42V82.84H111.248V94H107.828V92.42C107.495 92.94 107.028 93.36 106.428 93.68C105.842 94 105.155 94.16 104.368 94.16C103.462 94.16 102.635 93.9267 101.888 93.46C101.142 92.98 100.548 92.3067 100.108 91.44C99.6815 90.56 99.4682 89.5467 99.4682 88.4ZM107.828 88.42C107.828 87.5667 107.588 86.8933 107.108 86.4C106.642 85.9067 106.068 85.66 105.388 85.66C104.708 85.66 104.128 85.9067 103.648 86.4C103.182 86.88 102.948 87.5467 102.948 88.4C102.948 89.2533 103.182 89.9333 103.648 90.44C104.128 90.9333 104.708 91.18 105.388 91.18C106.068 91.18 106.642 90.9333 107.108 90.44C107.588 89.9467 107.828 89.2733 107.828 88.42ZM117.142 84.7C117.542 84.0867 118.042 83.6067 118.642 83.26C119.242 82.9 119.909 82.72 120.642 82.72V86.34H119.702C118.849 86.34 118.209 86.5267 117.782 86.9C117.356 87.26 117.142 87.9 117.142 88.82V94H113.722V82.84H117.142V84.7ZM137.035 88.24C137.035 88.56 137.015 88.8933 136.975 89.24H129.235C129.289 89.9333 129.509 90.4667 129.895 90.84C130.295 91.2 130.782 91.38 131.355 91.38C132.209 91.38 132.802 91.02 133.135 90.3H136.775C136.589 91.0333 136.249 91.6933 135.755 92.28C135.275 92.8667 134.669 93.3267 133.935 93.66C133.202 93.9933 132.382 94.16 131.475 94.16C130.382 94.16 129.409 93.9267 128.555 93.46C127.702 92.9933 127.035 92.3267 126.555 91.46C126.075 90.5933 125.835 89.58 125.835 88.42C125.835 87.26 126.069 86.2467 126.535 85.38C127.015 84.5133 127.682 83.8467 128.535 83.38C129.389 82.9133 130.369 82.68 131.475 82.68C132.555 82.68 133.515 82.9067 134.355 83.36C135.195 83.8133 135.849 84.46 136.315 85.3C136.795 86.14 137.035 87.12 137.035 88.24ZM133.535 87.34C133.535 86.7533 133.335 86.2867 132.935 85.94C132.535 85.5933 132.035 85.42 131.435 85.42C130.862 85.42 130.375 85.5867 129.975 85.92C129.589 86.2533 129.349 86.7267 129.255 87.34H133.535ZM143.86 90.8L146.28 82.84H149.92L145.96 94H141.74L137.78 82.84H141.44L143.86 90.8ZM161.879 88.24C161.879 88.56 161.859 88.8933 161.819 89.24H154.079C154.132 89.9333 154.352 90.4667 154.739 90.84C155.139 91.2 155.626 91.38 156.199 91.38C157.052 91.38 157.646 91.02 157.979 90.3H161.619C161.432 91.0333 161.092 91.6933 160.599 92.28C160.119 92.8667 159.512 93.3267 158.779 93.66C158.046 93.9933 157.226 94.16 156.319 94.16C155.226 94.16 154.252 93.9267 153.399 93.46C152.546 92.9933 151.879 92.3267 151.399 91.46C150.919 90.5933 150.679 89.58 150.679 88.42C150.679 87.26 150.912 86.2467 151.379 85.38C151.859 84.5133 152.526 83.8467 153.379 83.38C154.232 82.9133 155.212 82.68 156.319 82.68C157.399 82.68 158.359 82.9067 159.199 83.36C160.039 83.8133 160.692 84.46 161.159 85.3C161.639 86.14 161.879 87.12 161.879 88.24ZM158.379 87.34C158.379 86.7533 158.179 86.2867 157.779 85.94C157.379 85.5933 156.879 85.42 156.279 85.42C155.706 85.42 155.219 85.5867 154.819 85.92C154.432 86.2533 154.192 86.7267 154.099 87.34H158.379ZM170.483 82.72C171.79 82.72 172.83 83.1467 173.603 84C174.39 84.84 174.783 86 174.783 87.48V94H171.383V87.94C171.383 87.1933 171.19 86.6133 170.803 86.2C170.417 85.7867 169.897 85.58 169.243 85.58C168.59 85.58 168.07 85.7867 167.683 86.2C167.297 86.6133 167.103 87.1933 167.103 87.94V94H163.683V82.84H167.103V84.32C167.45 83.8267 167.917 83.44 168.503 83.16C169.09 82.8667 169.75 82.72 170.483 82.72ZM183.38 91.1V94H181.64C180.4 94 179.433 93.7 178.74 93.1C178.047 92.4867 177.7 91.4933 177.7 90.12V85.68H176.34V82.84H177.7V80.12H181.12V82.84H183.36V85.68H181.12V90.16C181.12 90.4933 181.2 90.7333 181.36 90.88C181.52 91.0267 181.787 91.1 182.16 91.1H183.38ZM190.365 94.16C189.272 94.16 188.285 93.9267 187.405 93.46C186.538 92.9933 185.852 92.3267 185.345 91.46C184.852 90.5933 184.605 89.58 184.605 88.42C184.605 87.2733 184.858 86.2667 185.365 85.4C185.872 84.52 186.565 83.8467 187.445 83.38C188.325 82.9133 189.312 82.68 190.405 82.68C191.498 82.68 192.485 82.9133 193.365 83.38C194.245 83.8467 194.938 84.52 195.445 85.4C195.952 86.2667 196.205 87.2733 196.205 88.42C196.205 89.5667 195.945 90.58 195.425 91.46C194.918 92.3267 194.218 92.9933 193.325 93.46C192.445 93.9267 191.458 94.16 190.365 94.16ZM190.365 91.2C191.018 91.2 191.572 90.96 192.025 90.48C192.492 90 192.725 89.3133 192.725 88.42C192.725 87.5267 192.498 86.84 192.045 86.36C191.605 85.88 191.058 85.64 190.405 85.64C189.738 85.64 189.185 85.88 188.745 86.36C188.305 86.8267 188.085 87.5133 188.085 88.42C188.085 89.3133 188.298 90 188.725 90.48C189.165 90.96 189.712 91.2 190.365 91.2Z" fill="black"/>
<path d="M37.6922 91.42L33.6322 87L37.6922 82.58H41.9922L37.9122 87L41.9922 91.42H37.6922Z" fill="black"/>
<rect x="23" y="215" width="336" height="93" rx="14" fill="#E9E9E9"/>
<path d="M27.116 199.242C28.18 199.242 29.0993 199.443 29.874 199.844C30.658 200.236 31.2553 200.801 31.666 201.538C32.086 202.275 32.296 203.143 32.296 204.142C32.296 205.141 32.086 206.009 31.666 206.746C31.2553 207.474 30.658 208.034 29.874 208.426C29.0993 208.809 28.18 209 27.116 209H24.078V199.242H27.116ZM27.116 207.95C28.376 207.95 29.3373 207.619 30 206.956C30.6627 206.284 30.994 205.346 30.994 204.142C30.994 202.929 30.658 201.981 29.986 201.3C29.3233 200.619 28.3667 200.278 27.116 200.278H25.352V207.95H27.116ZM40.9764 204.87C40.9764 205.113 40.9624 205.369 40.9344 205.64H34.8024C34.8491 206.396 35.1058 206.989 35.5724 207.418C36.0484 207.838 36.6224 208.048 37.2944 208.048C37.8451 208.048 38.3024 207.922 38.6664 207.67C39.0398 207.409 39.3011 207.063 39.4504 206.634H40.8224C40.6171 207.371 40.2064 207.973 39.5904 208.44C38.9744 208.897 38.2091 209.126 37.2944 209.126C36.5664 209.126 35.9131 208.963 35.3344 208.636C34.7651 208.309 34.3171 207.847 33.9904 207.25C33.6638 206.643 33.5004 205.943 33.5004 205.15C33.5004 204.357 33.6591 203.661 33.9764 203.064C34.2938 202.467 34.7371 202.009 35.3064 201.692C35.8851 201.365 36.5478 201.202 37.2944 201.202C38.0224 201.202 38.6664 201.361 39.2264 201.678C39.7864 201.995 40.2158 202.434 40.5144 202.994C40.8224 203.545 40.9764 204.17 40.9764 204.87ZM39.6604 204.604C39.6604 204.119 39.5531 203.703 39.3384 203.358C39.1238 203.003 38.8298 202.737 38.4564 202.56C38.0924 202.373 37.6864 202.28 37.2384 202.28C36.5944 202.28 36.0438 202.485 35.5864 202.896C35.1384 203.307 34.8818 203.876 34.8164 204.604H39.6604ZM45.3741 209.126C44.7861 209.126 44.2587 209.028 43.7921 208.832C43.3254 208.627 42.9567 208.347 42.6861 207.992C42.4154 207.628 42.2661 207.213 42.2381 206.746H43.5541C43.5914 207.129 43.7687 207.441 44.0861 207.684C44.4127 207.927 44.8374 208.048 45.3601 208.048C45.8454 208.048 46.2281 207.941 46.5081 207.726C46.7881 207.511 46.9281 207.241 46.9281 206.914C46.9281 206.578 46.7787 206.331 46.4801 206.172C46.1814 206.004 45.7194 205.841 45.0941 205.682C44.5247 205.533 44.0581 205.383 43.6941 205.234C43.3394 205.075 43.0314 204.847 42.7701 204.548C42.5181 204.24 42.3921 203.839 42.3921 203.344C42.3921 202.952 42.5087 202.593 42.7421 202.266C42.9754 201.939 43.3067 201.683 43.7361 201.496C44.1654 201.3 44.6554 201.202 45.2061 201.202C46.0554 201.202 46.7414 201.417 47.2641 201.846C47.7867 202.275 48.0667 202.863 48.1041 203.61H46.8301C46.8021 203.209 46.6387 202.887 46.3401 202.644C46.0507 202.401 45.6587 202.28 45.1641 202.28C44.7067 202.28 44.3427 202.378 44.0721 202.574C43.8014 202.77 43.6661 203.027 43.6661 203.344C43.6661 203.596 43.7454 203.806 43.9041 203.974C44.0721 204.133 44.2774 204.263 44.5201 204.366C44.7721 204.459 45.1174 204.567 45.5561 204.688C46.1067 204.837 46.5547 204.987 46.9001 205.136C47.2454 205.276 47.5394 205.491 47.7821 205.78C48.0341 206.069 48.1647 206.447 48.1741 206.914C48.1741 207.334 48.0574 207.712 47.8241 208.048C47.5907 208.384 47.2594 208.65 46.8301 208.846C46.4101 209.033 45.9247 209.126 45.3741 209.126ZM49.4965 205.15C49.4965 204.357 49.6552 203.666 49.9725 203.078C50.2899 202.481 50.7285 202.019 51.2885 201.692C51.8579 201.365 52.5065 201.202 53.2345 201.202C54.1772 201.202 54.9519 201.431 55.5585 201.888C56.1745 202.345 56.5805 202.98 56.7765 203.792H55.4045C55.2739 203.325 55.0172 202.957 54.6345 202.686C54.2612 202.415 53.7945 202.28 53.2345 202.28C52.5065 202.28 51.9185 202.532 51.4705 203.036C51.0225 203.531 50.7985 204.235 50.7985 205.15C50.7985 206.074 51.0225 206.788 51.4705 207.292C51.9185 207.796 52.5065 208.048 53.2345 208.048C53.7945 208.048 54.2612 207.917 54.6345 207.656C55.0079 207.395 55.2645 207.021 55.4045 206.536H56.7765C56.5712 207.32 56.1605 207.95 55.5445 208.426C54.9285 208.893 54.1585 209.126 53.2345 209.126C52.5065 209.126 51.8579 208.963 51.2885 208.636C50.7285 208.309 50.2899 207.847 49.9725 207.25C49.6552 206.653 49.4965 205.953 49.4965 205.15ZM59.7504 202.574C59.9744 202.135 60.2918 201.795 60.7024 201.552C61.1224 201.309 61.6311 201.188 62.2284 201.188V202.504H61.8924C60.4644 202.504 59.7504 203.279 59.7504 204.828V209H58.4764V201.328H59.7504V202.574ZM64.3571 200.082C64.1144 200.082 63.9091 199.998 63.7411 199.83C63.5731 199.662 63.4891 199.457 63.4891 199.214C63.4891 198.971 63.5731 198.766 63.7411 198.598C63.9091 198.43 64.1144 198.346 64.3571 198.346C64.5904 198.346 64.7864 198.43 64.9451 198.598C65.1131 198.766 65.1971 198.971 65.1971 199.214C65.1971 199.457 65.1131 199.662 64.9451 199.83C64.7864 199.998 64.5904 200.082 64.3571 200.082ZM64.9731 201.328V209H63.6991V201.328H64.9731ZM70.4064 208.048C70.9664 208.048 71.4331 207.917 71.8064 207.656C72.1797 207.395 72.4364 207.021 72.5764 206.536H73.9484C73.7617 207.264 73.3931 207.861 72.8424 208.328C72.3011 208.785 71.6197 209.047 70.7984 209.112V209.812C71.3491 209.803 71.7877 209.919 72.1144 210.162C72.4411 210.405 72.6044 210.75 72.6044 211.198C72.6044 211.637 72.4457 211.987 72.1284 212.248C71.8111 212.509 71.4004 212.64 70.8964 212.64H69.2864V211.814H70.6444C70.9524 211.814 71.1764 211.767 71.3164 211.674C71.4657 211.581 71.5404 211.422 71.5404 211.198C71.5404 210.983 71.4657 210.829 71.3164 210.736C71.1764 210.643 70.9524 210.596 70.6444 210.596H69.9444V209.098C69.3004 209.033 68.7311 208.832 68.2364 208.496C67.7417 208.151 67.3544 207.693 67.0744 207.124C66.8037 206.545 66.6684 205.887 66.6684 205.15C66.6684 204.357 66.8271 203.666 67.1444 203.078C67.4617 202.481 67.9004 202.019 68.4604 201.692C69.0297 201.365 69.6784 201.202 70.4064 201.202C71.3491 201.202 72.1237 201.431 72.7304 201.888C73.3464 202.345 73.7524 202.98 73.9484 203.792H72.5764C72.4457 203.325 72.1891 202.957 71.8064 202.686C71.4331 202.415 70.9664 202.28 70.4064 202.28C69.6784 202.28 69.0904 202.532 68.6424 203.036C68.1944 203.531 67.9704 204.235 67.9704 205.15C67.9704 206.074 68.1944 206.788 68.6424 207.292C69.0904 207.796 69.6784 208.048 70.4064 208.048ZM75.1723 205.136C75.1723 204.352 75.331 203.666 75.6483 203.078C75.9656 202.481 76.3996 202.019 76.9503 201.692C77.5103 201.365 78.131 201.202 78.8123 201.202C79.4843 201.202 80.0676 201.347 80.5623 201.636C81.057 201.925 81.4256 202.289 81.6683 202.728V201.328H82.9563V209H81.6683V207.572C81.4163 208.02 81.0383 208.393 80.5343 208.692C80.0396 208.981 79.461 209.126 78.7983 209.126C78.117 209.126 77.501 208.958 76.9503 208.622C76.3996 208.286 75.9656 207.815 75.6483 207.208C75.331 206.601 75.1723 205.911 75.1723 205.136ZM81.6683 205.15C81.6683 204.571 81.5516 204.067 81.3183 203.638C81.085 203.209 80.7676 202.882 80.3663 202.658C79.9743 202.425 79.5403 202.308 79.0643 202.308C78.5883 202.308 78.1543 202.42 77.7623 202.644C77.3703 202.868 77.0576 203.195 76.8243 203.624C76.591 204.053 76.4743 204.557 76.4743 205.136C76.4743 205.724 76.591 206.237 76.8243 206.676C77.0576 207.105 77.3703 207.437 77.7623 207.67C78.1543 207.894 78.5883 208.006 79.0643 208.006C79.5403 208.006 79.9743 207.894 80.3663 207.67C80.7676 207.437 81.085 207.105 81.3183 206.676C81.5516 206.237 81.6683 205.729 81.6683 205.15ZM77.2583 200.502C77.3236 200.026 77.4776 199.662 77.7203 199.41C77.9723 199.158 78.285 199.032 78.6583 199.032C78.8356 199.032 78.985 199.065 79.1063 199.13C79.237 199.186 79.391 199.27 79.5683 199.382C79.699 199.475 79.8156 199.55 79.9183 199.606C80.021 199.653 80.133 199.676 80.2543 199.676C80.413 199.676 80.5483 199.625 80.6603 199.522C80.7723 199.419 80.8423 199.27 80.8703 199.074H81.5983C81.5423 199.541 81.3883 199.9 81.1363 200.152C80.8843 200.404 80.5716 200.53 80.1983 200.53C80.021 200.53 79.8623 200.502 79.7223 200.446C79.5916 200.381 79.4423 200.287 79.2743 200.166C79.125 200.073 79.0036 200.003 78.9103 199.956C78.8263 199.909 78.7236 199.886 78.6023 199.886C78.4436 199.886 78.3083 199.937 78.1963 200.04C78.0936 200.143 78.0283 200.297 78.0003 200.502H77.2583ZM88.4553 209.126C87.7366 209.126 87.0833 208.963 86.4953 208.636C85.9166 208.309 85.4593 207.847 85.1233 207.25C84.7966 206.643 84.6333 205.943 84.6333 205.15C84.6333 204.366 84.8013 203.675 85.1373 203.078C85.4826 202.471 85.9493 202.009 86.5373 201.692C87.1253 201.365 87.7833 201.202 88.5113 201.202C89.2393 201.202 89.8973 201.365 90.4853 201.692C91.0733 202.009 91.5353 202.467 91.8713 203.064C92.2166 203.661 92.3893 204.357 92.3893 205.15C92.3893 205.943 92.2119 206.643 91.8573 207.25C91.5119 207.847 91.0406 208.309 90.4433 208.636C89.8459 208.963 89.1833 209.126 88.4553 209.126ZM88.4553 208.006C88.9126 208.006 89.3419 207.899 89.7433 207.684C90.1446 207.469 90.4666 207.147 90.7093 206.718C90.9613 206.289 91.0873 205.766 91.0873 205.15C91.0873 204.534 90.9659 204.011 90.7233 203.582C90.4806 203.153 90.1633 202.835 89.7713 202.63C89.3793 202.415 88.9546 202.308 88.4973 202.308C88.0306 202.308 87.6013 202.415 87.2093 202.63C86.8266 202.835 86.5186 203.153 86.2853 203.582C86.0519 204.011 85.9353 204.534 85.9353 205.15C85.9353 205.775 86.0473 206.303 86.2713 206.732C86.5046 207.161 86.8126 207.483 87.1953 207.698C87.5779 207.903 87.9979 208.006 88.4553 208.006Z" fill="black"/>
<path d="M25.352 329.278V332.54H28.908V333.59H25.352V336.95H29.328V338H24.078V328.228H29.328V329.278H25.352ZM36.5757 332.33V333.408H30.9897V332.33H36.5757ZM48.1927 330.188C48.79 330.188 49.322 330.314 49.7887 330.566C50.2553 330.809 50.624 331.177 50.8947 331.672C51.1653 332.167 51.3007 332.769 51.3007 333.478V338H50.0407V333.66C50.0407 332.895 49.8493 332.311 49.4667 331.91C49.0933 331.499 48.5847 331.294 47.9407 331.294C47.278 331.294 46.7507 331.509 46.3587 331.938C45.9667 332.358 45.7707 332.969 45.7707 333.772V338H44.5107V333.66C44.5107 332.895 44.3193 332.311 43.9367 331.91C43.5633 331.499 43.0547 331.294 42.4107 331.294C41.748 331.294 41.2207 331.509 40.8287 331.938C40.4367 332.358 40.2407 332.969 40.2407 333.772V338H38.9667V330.328H40.2407V331.434C40.4927 331.033 40.8287 330.725 41.2487 330.51C41.678 330.295 42.1493 330.188 42.6627 330.188C43.3067 330.188 43.876 330.333 44.3707 330.622C44.8653 330.911 45.234 331.336 45.4767 331.896C45.6913 331.355 46.046 330.935 46.5407 330.636C47.0353 330.337 47.586 330.188 48.1927 330.188ZM52.9145 334.136C52.9145 333.352 53.0732 332.666 53.3905 332.078C53.7078 331.481 54.1418 331.019 54.6925 330.692C55.2525 330.365 55.8732 330.202 56.5545 330.202C57.2265 330.202 57.8098 330.347 58.3045 330.636C58.7992 330.925 59.1678 331.289 59.4105 331.728V330.328H60.6985V338H59.4105V336.572C59.1585 337.02 58.7805 337.393 58.2765 337.692C57.7818 337.981 57.2032 338.126 56.5405 338.126C55.8592 338.126 55.2432 337.958 54.6925 337.622C54.1418 337.286 53.7078 336.815 53.3905 336.208C53.0732 335.601 52.9145 334.911 52.9145 334.136ZM59.4105 334.15C59.4105 333.571 59.2938 333.067 59.0605 332.638C58.8272 332.209 58.5098 331.882 58.1085 331.658C57.7165 331.425 57.2825 331.308 56.8065 331.308C56.3305 331.308 55.8965 331.42 55.5045 331.644C55.1125 331.868 54.7998 332.195 54.5665 332.624C54.3332 333.053 54.2165 333.557 54.2165 334.136C54.2165 334.724 54.3332 335.237 54.5665 335.676C54.7998 336.105 55.1125 336.437 55.5045 336.67C55.8965 336.894 56.3305 337.006 56.8065 337.006C57.2825 337.006 57.7165 336.894 58.1085 336.67C58.5098 336.437 58.8272 336.105 59.0605 335.676C59.2938 335.237 59.4105 334.729 59.4105 334.15ZM63.5094 329.082C63.2668 329.082 63.0614 328.998 62.8934 328.83C62.7254 328.662 62.6414 328.457 62.6414 328.214C62.6414 327.971 62.7254 327.766 62.8934 327.598C63.0614 327.43 63.2668 327.346 63.5094 327.346C63.7428 327.346 63.9388 327.43 64.0974 327.598C64.2654 327.766 64.3494 327.971 64.3494 328.214C64.3494 328.457 64.2654 328.662 64.0974 328.83C63.9388 328.998 63.7428 329.082 63.5094 329.082ZM64.1254 330.328V338H62.8514V330.328H64.1254ZM67.5708 327.64V338H66.2968V327.64H67.5708Z" fill="black"/>
<rect x="23" y="141" width="336" height="47" rx="14" fill="#E9E9E9"/>
<path d="M30.084 125.242V126.278H27.424V135H26.15V126.278H23.476V125.242H30.084ZM32.9262 127.328V135H31.6522V127.328H32.9262ZM33.6542 125.158L30.6722 126.754V125.802L33.6542 124.052V125.158ZM36.6515 128.378V132.9C36.6515 133.273 36.7309 133.539 36.8895 133.698C37.0482 133.847 37.3235 133.922 37.7155 133.922H38.6535V135H37.5055C36.7962 135 36.2642 134.837 35.9095 134.51C35.5549 134.183 35.3775 133.647 35.3775 132.9V128.378H34.3835V127.328H35.3775V125.396H36.6515V127.328H38.6535V128.378H36.6515ZM47.0011 127.328V135H45.7271V133.866C45.4845 134.258 45.1438 134.566 44.7051 134.79C44.2758 135.005 43.7998 135.112 43.2771 135.112C42.6798 135.112 42.1431 134.991 41.6671 134.748C41.1911 134.496 40.8131 134.123 40.5331 133.628C40.2625 133.133 40.1271 132.531 40.1271 131.822V127.328H41.3871V131.654C41.3871 132.41 41.5785 132.993 41.9611 133.404C42.3438 133.805 42.8665 134.006 43.5291 134.006C44.2105 134.006 44.7471 133.796 45.1391 133.376C45.5311 132.956 45.7271 132.345 45.7271 131.542V127.328H47.0011ZM50.4262 124.64V135H49.1522V124.64H50.4262ZM55.9435 135.126C55.2249 135.126 54.5715 134.963 53.9835 134.636C53.4049 134.309 52.9475 133.847 52.6115 133.25C52.2849 132.643 52.1215 131.943 52.1215 131.15C52.1215 130.366 52.2895 129.675 52.6255 129.078C52.9709 128.471 53.4375 128.009 54.0255 127.692C54.6135 127.365 55.2715 127.202 55.9995 127.202C56.7275 127.202 57.3855 127.365 57.9735 127.692C58.5615 128.009 59.0235 128.467 59.3595 129.064C59.7049 129.661 59.8775 130.357 59.8775 131.15C59.8775 131.943 59.7002 132.643 59.3455 133.25C59.0002 133.847 58.5289 134.309 57.9315 134.636C57.3342 134.963 56.6715 135.126 55.9435 135.126ZM55.9435 134.006C56.4009 134.006 56.8302 133.899 57.2315 133.684C57.6329 133.469 57.9549 133.147 58.1975 132.718C58.4495 132.289 58.5755 131.766 58.5755 131.15C58.5755 130.534 58.4542 130.011 58.2115 129.582C57.9689 129.153 57.6515 128.835 57.2595 128.63C56.8675 128.415 56.4429 128.308 55.9855 128.308C55.5189 128.308 55.0895 128.415 54.6975 128.63C54.3149 128.835 54.0069 129.153 53.7735 129.582C53.5402 130.011 53.4235 130.534 53.4235 131.15C53.4235 131.775 53.5355 132.303 53.7595 132.732C53.9929 133.161 54.3009 133.483 54.6835 133.698C55.0662 133.903 55.4862 134.006 55.9435 134.006Z" fill="black"/>
<rect x="23" y="429" width="161" height="47" rx="14" fill="#E9E9E9"/>
<path d="M31.596 413.242V423H30.322V418.576H25.352V423H24.078V413.242H25.352V417.526H30.322V413.242H31.596ZM37.1174 423.126C36.3987 423.126 35.7454 422.963 35.1574 422.636C34.5787 422.309 34.1214 421.847 33.7854 421.25C33.4587 420.643 33.2954 419.943 33.2954 419.15C33.2954 418.366 33.4634 417.675 33.7994 417.078C34.1447 416.471 34.6114 416.009 35.1994 415.692C35.7874 415.365 36.4454 415.202 37.1734 415.202C37.9014 415.202 38.5594 415.365 39.1474 415.692C39.7354 416.009 40.1974 416.467 40.5334 417.064C40.8787 417.661 41.0514 418.357 41.0514 419.15C41.0514 419.943 40.874 420.643 40.5194 421.25C40.174 421.847 39.7027 422.309 39.1054 422.636C38.508 422.963 37.8454 423.126 37.1174 423.126ZM37.1174 422.006C37.5747 422.006 38.004 421.899 38.4054 421.684C38.8067 421.469 39.1287 421.147 39.3714 420.718C39.6234 420.289 39.7494 419.766 39.7494 419.15C39.7494 418.534 39.628 418.011 39.3854 417.582C39.1427 417.153 38.8254 416.835 38.4334 416.63C38.0414 416.415 37.6167 416.308 37.1594 416.308C36.6927 416.308 36.2634 416.415 35.8714 416.63C35.4887 416.835 35.1807 417.153 34.9474 417.582C34.714 418.011 34.5974 418.534 34.5974 419.15C34.5974 419.775 34.7094 420.303 34.9334 420.732C35.1667 421.161 35.4747 421.483 35.8574 421.698C36.24 421.903 36.66 422.006 37.1174 422.006ZM44.0004 416.574C44.2244 416.135 44.5418 415.795 44.9524 415.552C45.3724 415.309 45.8811 415.188 46.4784 415.188V416.504H46.1424C44.7144 416.504 44.0004 417.279 44.0004 418.828V423H42.7264V415.328H44.0004V416.574ZM47.4731 419.136C47.4731 418.352 47.6318 417.666 47.9491 417.078C48.2664 416.481 48.7004 416.019 49.2511 415.692C49.8111 415.365 50.4318 415.202 51.1131 415.202C51.7851 415.202 52.3684 415.347 52.8631 415.636C53.3578 415.925 53.7264 416.289 53.9691 416.728V415.328H55.2571V423H53.9691V421.572C53.7171 422.02 53.3391 422.393 52.8351 422.692C52.3404 422.981 51.7618 423.126 51.0991 423.126C50.4178 423.126 49.8018 422.958 49.2511 422.622C48.7004 422.286 48.2664 421.815 47.9491 421.208C47.6318 420.601 47.4731 419.911 47.4731 419.136ZM53.9691 419.15C53.9691 418.571 53.8524 418.067 53.6191 417.638C53.3858 417.209 53.0684 416.882 52.6671 416.658C52.2751 416.425 51.8411 416.308 51.3651 416.308C50.8891 416.308 50.4551 416.42 50.0631 416.644C49.6711 416.868 49.3584 417.195 49.1251 417.624C48.8918 418.053 48.7751 418.557 48.7751 419.136C48.7751 419.724 48.8918 420.237 49.1251 420.676C49.3584 421.105 49.6711 421.437 50.0631 421.67C50.4551 421.894 50.8891 422.006 51.3651 422.006C51.8411 422.006 52.2751 421.894 52.6671 421.67C53.0684 421.437 53.3858 421.105 53.6191 420.676C53.8524 420.237 53.9691 419.729 53.9691 419.15ZM61.8005 414.082C61.5578 414.082 61.3525 413.998 61.1845 413.83C61.0165 413.662 60.9325 413.457 60.9325 413.214C60.9325 412.971 61.0165 412.766 61.1845 412.598C61.3525 412.43 61.5578 412.346 61.8005 412.346C62.0338 412.346 62.2298 412.43 62.3885 412.598C62.5565 412.766 62.6405 412.971 62.6405 413.214C62.6405 413.457 62.5565 413.662 62.3885 413.83C62.2298 413.998 62.0338 414.082 61.8005 414.082ZM62.4165 415.328V423H61.1425V415.328H62.4165ZM68.3258 415.188C69.2591 415.188 70.0151 415.473 70.5938 416.042C71.1724 416.602 71.4618 417.414 71.4618 418.478V423H70.2018V418.66C70.2018 417.895 70.0104 417.311 69.6278 416.91C69.2451 416.499 68.7224 416.294 68.0598 416.294C67.3878 416.294 66.8511 416.504 66.4498 416.924C66.0578 417.344 65.8618 417.955 65.8618 418.758V423H64.5878V415.328H65.8618V416.42C66.1138 416.028 66.4544 415.725 66.8838 415.51C67.3224 415.295 67.8031 415.188 68.3258 415.188ZM74.8168 415.328V423H73.5428V415.328H74.8168ZM75.5448 413.158L72.5628 414.754V413.802L75.5448 412.052V413.158ZM76.5122 419.15C76.5122 418.357 76.6708 417.666 76.9882 417.078C77.3055 416.481 77.7442 416.019 78.3042 415.692C78.8735 415.365 79.5222 415.202 80.2502 415.202C81.1928 415.202 81.9675 415.431 82.5742 415.888C83.1902 416.345 83.5962 416.98 83.7922 417.792H82.4202C82.2895 417.325 82.0328 416.957 81.6502 416.686C81.2768 416.415 80.8102 416.28 80.2502 416.28C79.5222 416.28 78.9342 416.532 78.4862 417.036C78.0382 417.531 77.8142 418.235 77.8142 419.15C77.8142 420.074 78.0382 420.788 78.4862 421.292C78.9342 421.796 79.5222 422.048 80.2502 422.048C80.8102 422.048 81.2768 421.917 81.6502 421.656C82.0235 421.395 82.2802 421.021 82.4202 420.536H83.7922C83.5868 421.32 83.1762 421.95 82.5602 422.426C81.9442 422.893 81.1742 423.126 80.2502 423.126C79.5222 423.126 78.8735 422.963 78.3042 422.636C77.7442 422.309 77.3055 421.847 76.9882 421.25C76.6708 420.653 76.5122 419.953 76.5122 419.15ZM86.1501 414.082C85.9074 414.082 85.7021 413.998 85.5341 413.83C85.3661 413.662 85.2821 413.457 85.2821 413.214C85.2821 412.971 85.3661 412.766 85.5341 412.598C85.7021 412.43 85.9074 412.346 86.1501 412.346C86.3834 412.346 86.5794 412.43 86.7381 412.598C86.9061 412.766 86.9901 412.971 86.9901 413.214C86.9901 413.457 86.9061 413.662 86.7381 413.83C86.5794 413.998 86.3834 414.082 86.1501 414.082ZM86.7661 415.328V423H85.4921V415.328H86.7661ZM92.2834 423.126C91.5647 423.126 90.9114 422.963 90.3234 422.636C89.7447 422.309 89.2874 421.847 88.9514 421.25C88.6247 420.643 88.4614 419.943 88.4614 419.15C88.4614 418.366 88.6294 417.675 88.9654 417.078C89.3107 416.471 89.7774 416.009 90.3654 415.692C90.9534 415.365 91.6114 415.202 92.3394 415.202C93.0674 415.202 93.7254 415.365 94.3134 415.692C94.9014 416.009 95.3634 416.467 95.6994 417.064C96.0447 417.661 96.2174 418.357 96.2174 419.15C96.2174 419.943 96.04 420.643 95.6854 421.25C95.34 421.847 94.8687 422.309 94.2714 422.636C93.674 422.963 93.0114 423.126 92.2834 423.126ZM92.2834 422.006C92.7407 422.006 93.17 421.899 93.5714 421.684C93.9727 421.469 94.2947 421.147 94.5374 420.718C94.7894 420.289 94.9154 419.766 94.9154 419.15C94.9154 418.534 94.794 418.011 94.5514 417.582C94.3087 417.153 93.9914 416.835 93.5994 416.63C93.2074 416.415 92.7827 416.308 92.3254 416.308C91.8587 416.308 91.4294 416.415 91.0374 416.63C90.6547 416.835 90.3467 417.153 90.1134 417.582C89.88 418.011 89.7634 418.534 89.7634 419.15C89.7634 419.775 89.8754 420.303 90.0994 420.732C90.3327 421.161 90.6407 421.483 91.0234 421.698C91.406 421.903 91.826 422.006 92.2834 422.006Z" fill="black"/>
<rect x="197" y="428" width="161" height="47" rx="14" fill="#E9E9E9"/>
<path d="M205.596 412.242V422H204.322V417.576H199.352V422H198.078V412.242H199.352V416.526H204.322V412.242H205.596ZM211.117 422.126C210.399 422.126 209.745 421.963 209.157 421.636C208.579 421.309 208.121 420.847 207.785 420.25C207.459 419.643 207.295 418.943 207.295 418.15C207.295 417.366 207.463 416.675 207.799 416.078C208.145 415.471 208.611 415.009 209.199 414.692C209.787 414.365 210.445 414.202 211.173 414.202C211.901 414.202 212.559 414.365 213.147 414.692C213.735 415.009 214.197 415.467 214.533 416.064C214.879 416.661 215.051 417.357 215.051 418.15C215.051 418.943 214.874 419.643 214.519 420.25C214.174 420.847 213.703 421.309 213.105 421.636C212.508 421.963 211.845 422.126 211.117 422.126ZM211.117 421.006C211.575 421.006 212.004 420.899 212.405 420.684C212.807 420.469 213.129 420.147 213.371 419.718C213.623 419.289 213.749 418.766 213.749 418.15C213.749 417.534 213.628 417.011 213.385 416.582C213.143 416.153 212.825 415.835 212.433 415.63C212.041 415.415 211.617 415.308 211.159 415.308C210.693 415.308 210.263 415.415 209.871 415.63C209.489 415.835 209.181 416.153 208.947 416.582C208.714 417.011 208.597 417.534 208.597 418.15C208.597 418.775 208.709 419.303 208.933 419.732C209.167 420.161 209.475 420.483 209.857 420.698C210.24 420.903 210.66 421.006 211.117 421.006ZM218 415.574C218.224 415.135 218.542 414.795 218.952 414.552C219.372 414.309 219.881 414.188 220.478 414.188V415.504H220.142C218.714 415.504 218 416.279 218 417.828V422H216.726V414.328H218V415.574ZM221.473 418.136C221.473 417.352 221.632 416.666 221.949 416.078C222.266 415.481 222.7 415.019 223.251 414.692C223.811 414.365 224.432 414.202 225.113 414.202C225.785 414.202 226.368 414.347 226.863 414.636C227.358 414.925 227.726 415.289 227.969 415.728V414.328H229.257V422H227.969V420.572C227.717 421.02 227.339 421.393 226.835 421.692C226.34 421.981 225.762 422.126 225.099 422.126C224.418 422.126 223.802 421.958 223.251 421.622C222.7 421.286 222.266 420.815 221.949 420.208C221.632 419.601 221.473 418.911 221.473 418.136ZM227.969 418.15C227.969 417.571 227.852 417.067 227.619 416.638C227.386 416.209 227.068 415.882 226.667 415.658C226.275 415.425 225.841 415.308 225.365 415.308C224.889 415.308 224.455 415.42 224.063 415.644C223.671 415.868 223.358 416.195 223.125 416.624C222.892 417.053 222.775 417.557 222.775 418.136C222.775 418.724 222.892 419.237 223.125 419.676C223.358 420.105 223.671 420.437 224.063 420.67C224.455 420.894 224.889 421.006 225.365 421.006C225.841 421.006 226.275 420.894 226.667 420.67C227.068 420.437 227.386 420.105 227.619 419.676C227.852 419.237 227.969 418.729 227.969 418.15ZM238.264 415.378H236.654V422H235.38V415.378H234.386V414.328H235.38V413.782C235.38 412.923 235.6 412.298 236.038 411.906C236.486 411.505 237.2 411.304 238.18 411.304V412.368C237.62 412.368 237.224 412.48 236.99 412.704C236.766 412.919 236.654 413.278 236.654 413.782V414.328H238.264V415.378ZM240.408 413.082C240.165 413.082 239.96 412.998 239.792 412.83C239.624 412.662 239.54 412.457 239.54 412.214C239.54 411.971 239.624 411.766 239.792 411.598C239.96 411.43 240.165 411.346 240.408 411.346C240.641 411.346 240.837 411.43 240.996 411.598C241.164 411.766 241.248 411.971 241.248 412.214C241.248 412.457 241.164 412.662 240.996 412.83C240.837 412.998 240.641 413.082 240.408 413.082ZM241.024 414.328V422H239.75V414.328H241.024ZM252.421 414.188C253.019 414.188 253.551 414.314 254.017 414.566C254.484 414.809 254.853 415.177 255.123 415.672C255.394 416.167 255.529 416.769 255.529 417.478V422H254.269V417.66C254.269 416.895 254.078 416.311 253.695 415.91C253.322 415.499 252.813 415.294 252.169 415.294C251.507 415.294 250.979 415.509 250.587 415.938C250.195 416.358 249.999 416.969 249.999 417.772V422H248.739V417.66C248.739 416.895 248.548 416.311 248.165 415.91C247.792 415.499 247.283 415.294 246.639 415.294C245.977 415.294 245.449 415.509 245.057 415.938C244.665 416.358 244.469 416.969 244.469 417.772V422H243.195V414.328H244.469V415.434C244.721 415.033 245.057 414.725 245.477 414.51C245.907 414.295 246.378 414.188 246.891 414.188C247.535 414.188 248.105 414.333 248.599 414.622C249.094 414.911 249.463 415.336 249.705 415.896C249.92 415.355 250.275 414.935 250.769 414.636C251.264 414.337 251.815 414.188 252.421 414.188Z" fill="black"/>
<rect x="23" y="345" width="336" height="47" rx="14" fill="#E9E9E9"/>
<path d="M92.2042 362.06C93.7242 362.06 95.0376 362.347 96.1442 362.92C97.2642 363.48 98.1176 364.287 98.7042 365.34C99.3042 366.393 99.6042 367.633 99.6042 369.06C99.6042 370.487 99.3042 371.727 98.7042 372.78C98.1176 373.82 97.2642 374.62 96.1442 375.18C95.0376 375.727 93.7242 376 92.2042 376H87.8642V362.06H92.2042ZM92.2042 374.5C94.0042 374.5 95.3776 374.027 96.3242 373.08C97.2709 372.12 97.7442 370.78 97.7442 369.06C97.7442 367.327 97.2642 365.973 96.3042 365C95.3576 364.027 93.9909 363.54 92.2042 363.54H89.6842V374.5H92.2042ZM106.345 362.06C107.865 362.06 109.178 362.347 110.285 362.92C111.405 363.48 112.258 364.287 112.845 365.34C113.445 366.393 113.745 367.633 113.745 369.06C113.745 370.487 113.445 371.727 112.845 372.78C112.258 373.82 111.405 374.62 110.285 375.18C109.178 375.727 107.865 376 106.345 376H102.005V362.06H106.345ZM106.345 374.5C108.145 374.5 109.518 374.027 110.465 373.08C111.412 372.12 111.885 370.78 111.885 369.06C111.885 367.327 111.405 365.973 110.445 365C109.498 364.027 108.132 363.54 106.345 363.54H103.825V374.5H106.345ZM122.945 357.16L117.465 379.4H115.665L121.125 357.16H122.945ZM139.797 362.16V376H137.977V365.68L133.377 376H132.097L127.477 365.66V376H125.657V362.16H127.617L132.737 373.6L137.857 362.16H139.797ZM157.024 362.16V376H155.204V365.68L150.604 376H149.324L144.704 365.66V376H142.884V362.16H144.844L149.964 373.6L155.084 362.16H157.024ZM166.91 357.16L161.43 379.4H159.63L165.09 357.16H166.91ZM177.862 372.9H171.782L170.662 376H168.742L173.782 362.14H175.882L180.902 376H178.982L177.862 372.9ZM177.342 371.42L174.822 364.38L172.302 371.42H177.342ZM191.339 372.9H185.259L184.139 376H182.219L187.259 362.14H189.359L194.379 376H192.459L191.339 372.9ZM190.819 371.42L188.299 364.38L185.779 371.42H190.819ZM204.815 372.9H198.735L197.615 376H195.695L200.735 362.14H202.835L207.855 376H205.935L204.815 372.9ZM204.295 371.42L201.775 364.38L199.255 371.42H204.295ZM218.292 372.9H212.212L211.092 376H209.172L214.212 362.14H216.312L221.332 376H219.412L218.292 372.9ZM217.772 371.42L215.252 364.38L212.732 371.42H217.772Z" fill="black" fill-opacity="0.7"/>
<rect x="29" y="762" width="336" height="47" rx="14" fill="black"/>
<path d="M171.752 785.96C171.752 784.573 172.052 783.34 172.652 782.26C173.252 781.167 174.085 780.32 175.152 779.72C176.232 779.107 177.452 778.8 178.812 778.8C180.478 778.8 181.905 779.24 183.092 780.12C184.278 781 185.072 782.2 185.472 783.72H181.712C181.432 783.133 181.032 782.687 180.512 782.38C180.005 782.073 179.425 781.92 178.772 781.92C177.718 781.92 176.865 782.287 176.212 783.02C175.558 783.753 175.232 784.733 175.232 785.96C175.232 787.187 175.558 788.167 176.212 788.9C176.865 789.633 177.718 790 178.772 790C179.425 790 180.005 789.847 180.512 789.54C181.032 789.233 181.432 788.787 181.712 788.2H185.472C185.072 789.72 184.278 790.92 183.092 791.8C181.905 792.667 180.478 793.1 178.812 793.1C177.452 793.1 176.232 792.8 175.152 792.2C174.085 791.587 173.252 790.74 172.652 789.66C172.052 788.58 171.752 787.347 171.752 785.96ZM190.986 783.7C191.386 783.087 191.886 782.607 192.486 782.26C193.086 781.9 193.753 781.72 194.486 781.72V785.34H193.546C192.693 785.34 192.053 785.527 191.626 785.9C191.2 786.26 190.986 786.9 190.986 787.82V793H187.566V781.84H190.986V783.7ZM197.841 780.68C197.241 780.68 196.748 780.507 196.361 780.16C195.988 779.8 195.801 779.36 195.801 778.84C195.801 778.307 195.988 777.867 196.361 777.52C196.748 777.16 197.241 776.98 197.841 776.98C198.428 776.98 198.908 777.16 199.281 777.52C199.668 777.867 199.861 778.307 199.861 778.84C199.861 779.36 199.668 779.8 199.281 780.16C198.908 780.507 198.428 780.68 197.841 780.68ZM199.541 781.84V793H196.121V781.84H199.541ZM201.339 787.4C201.339 786.253 201.553 785.247 201.979 784.38C202.419 783.513 203.013 782.847 203.759 782.38C204.506 781.913 205.339 781.68 206.259 781.68C207.046 781.68 207.733 781.84 208.319 782.16C208.919 782.48 209.379 782.9 209.699 783.42V781.84H213.119V793H209.699V791.42C209.366 791.94 208.899 792.36 208.299 792.68C207.713 793 207.026 793.16 206.239 793.16C205.333 793.16 204.506 792.927 203.759 792.46C203.013 791.98 202.419 791.307 201.979 790.44C201.553 789.56 201.339 788.547 201.339 787.4ZM209.699 787.42C209.699 786.567 209.459 785.893 208.979 785.4C208.513 784.907 207.939 784.66 207.259 784.66C206.579 784.66 205.999 784.907 205.519 785.4C205.053 785.88 204.819 786.547 204.819 787.4C204.819 788.253 205.053 788.933 205.519 789.44C205.999 789.933 206.579 790.18 207.259 790.18C207.939 790.18 208.513 789.933 208.979 789.44C209.459 788.947 209.699 788.273 209.699 787.42ZM219.014 783.7C219.414 783.087 219.914 782.607 220.514 782.26C221.114 781.9 221.78 781.72 222.514 781.72V785.34H221.574C220.72 785.34 220.08 785.527 219.654 785.9C219.227 786.26 219.014 786.9 219.014 787.82V793H215.594V781.84H219.014V783.7Z" fill="white"/>
</g>
<defs>
<clipPath id="clip0_43_578">
<rect width="393" height="852" fill="white"/>
</clipPath>
</defs>
</svg>
