<svg width="393" height="852" viewBox="0 0 393 852" fill="none" xmlns="http://www.w3.org/2000/svg">
<g clip-path="url(#clip0_44_679)">
<rect width="393" height="852" fill="white"/>
<g clip-path="url(#clip1_44_679)">
<rect width="393" height="852" fill="white"/>
<rect width="393" height="72" fill="white"/>
<path d="M35.9187 45.105C35.1487 45.105 34.4587 44.98 33.8487 44.73C33.2387 44.48 32.7487 44.11 32.3787 43.62C32.0187 43.13 31.8287 42.54 31.8087 41.85H34.5387C34.5787 42.24 34.7137 42.54 34.9437 42.75C35.1737 42.95 35.4737 43.05 35.8437 43.05C36.2237 43.05 36.5237 42.965 36.7437 42.795C36.9637 42.615 37.0737 42.37 37.0737 42.06C37.0737 41.8 36.9837 41.585 36.8037 41.415C36.6337 41.245 36.4187 41.105 36.1587 40.995C35.9087 40.885 35.5487 40.76 35.0787 40.62C34.3987 40.41 33.8437 40.2 33.4137 39.99C32.9837 39.78 32.6137 39.47 32.3037 39.06C31.9937 38.65 31.8387 38.115 31.8387 37.455C31.8387 36.475 32.1937 35.71 32.9037 35.16C33.6137 34.6 34.5387 34.32 35.6787 34.32C36.8387 34.32 37.7737 34.6 38.4837 35.16C39.1937 35.71 39.5737 36.48 39.6237 37.47H36.8487C36.8287 37.13 36.7037 36.865 36.4737 36.675C36.2437 36.475 35.9487 36.375 35.5887 36.375C35.2787 36.375 35.0287 36.46 34.8387 36.63C34.6487 36.79 34.5537 37.025 34.5537 37.335C34.5537 37.675 34.7137 37.94 35.0337 38.13C35.3537 38.32 35.8537 38.525 36.5337 38.745C37.2137 38.975 37.7637 39.195 38.1837 39.405C38.6137 39.615 38.9837 39.92 39.2937 40.32C39.6037 40.72 39.7587 41.235 39.7587 41.865C39.7587 42.465 39.6037 43.01 39.2937 43.5C38.9937 43.99 38.5537 44.38 37.9737 44.67C37.3937 44.96 36.7087 45.105 35.9187 45.105ZM43.8572 34.47V40.77C43.8572 41.4 44.0122 41.885 44.3222 42.225C44.6322 42.565 45.0872 42.735 45.6872 42.735C46.2872 42.735 46.7472 42.565 47.0672 42.225C47.3872 41.885 47.5472 41.4 47.5472 40.77V34.47H50.1122V40.755C50.1122 41.695 49.9122 42.49 49.5122 43.14C49.1122 43.79 48.5722 44.28 47.8922 44.61C47.2222 44.94 46.4722 45.105 45.6422 45.105C44.8122 45.105 44.0672 44.945 43.4072 44.625C42.7572 44.295 42.2422 43.805 41.8622 43.155C41.4822 42.495 41.2922 41.695 41.2922 40.755V34.47H43.8572ZM58.4684 43.14H54.5384L53.9084 45H51.2234L55.0334 34.47H58.0034L61.8134 45H59.0984L58.4684 43.14ZM57.8084 41.16L56.5034 37.305L55.2134 41.16H57.8084ZM69.963 37.8C69.773 37.45 69.498 37.185 69.138 37.005C68.788 36.815 68.373 36.72 67.893 36.72C67.063 36.72 66.398 36.995 65.898 37.545C65.398 38.085 65.148 38.81 65.148 39.72C65.148 40.69 65.408 41.45 65.928 42C66.458 42.54 67.183 42.81 68.103 42.81C68.733 42.81 69.263 42.65 69.693 42.33C70.133 42.01 70.453 41.55 70.653 40.95H67.398V39.06H72.978V41.445C72.788 42.085 72.463 42.68 72.003 43.23C71.553 43.78 70.978 44.225 70.278 44.565C69.578 44.905 68.788 45.075 67.908 45.075C66.868 45.075 65.938 44.85 65.118 44.4C64.308 43.94 63.673 43.305 63.213 42.495C62.763 41.685 62.538 40.76 62.538 39.72C62.538 38.68 62.763 37.755 63.213 36.945C63.673 36.125 64.308 35.49 65.118 35.04C65.928 34.58 66.853 34.35 67.893 34.35C69.153 34.35 70.213 34.655 71.073 35.265C71.943 35.875 72.518 36.72 72.798 37.8H69.963ZM76.9638 36.525V38.655H80.3988V40.635H76.9638V42.945H80.8488V45H74.3988V34.47H80.8488V36.525H76.9638ZM91.934 45H89.369L85.079 38.505V45H82.514V34.47H85.079L89.369 40.995V34.47H91.934V45ZM97.7383 34.47C98.8483 34.47 99.8183 34.69 100.648 35.13C101.478 35.57 102.118 36.19 102.568 36.99C103.028 37.78 103.258 38.695 103.258 39.735C103.258 40.765 103.028 41.68 102.568 42.48C102.118 43.28 101.473 43.9 100.633 44.34C99.8033 44.78 98.8383 45 97.7383 45H93.7933V34.47H97.7383ZM97.5733 42.78C98.5433 42.78 99.2983 42.515 99.8383 41.985C100.378 41.455 100.648 40.705 100.648 39.735C100.648 38.765 100.378 38.01 99.8383 37.47C99.2983 36.93 98.5433 36.66 97.5733 36.66H96.3583V42.78H97.5733ZM111.247 43.14H107.317L106.687 45H104.002L107.812 34.47H110.782L114.592 45H111.877L111.247 43.14ZM110.587 41.16L109.282 37.305L107.992 41.16H110.587Z" fill="black"/>
<path d="M334.276 42.9445C333.786 42.1023 333.202 40.4953 333.202 37.625V37.0148C333.202 33.0187 329.996 29.7445 326.052 29.7188H326C325.053 29.7187 324.115 29.9056 323.24 30.2686C322.365 30.6316 321.571 31.1636 320.902 31.8341C320.233 32.5047 319.703 33.3006 319.342 34.1763C318.981 35.052 318.796 35.9903 318.798 36.9375V37.625C318.798 40.4953 318.214 42.1023 317.724 42.9445C317.574 43.2063 317.495 43.5029 317.495 43.8047C317.495 44.1065 317.575 44.403 317.725 44.6647C317.875 44.9264 318.092 45.1441 318.352 45.2961C318.613 45.4481 318.909 45.5292 319.211 45.5312H322.236C322.326 46.4675 322.761 47.3367 323.457 47.9693C324.153 48.6019 325.059 48.9524 326 48.9524C326.94 48.9524 327.847 48.6019 328.543 47.9693C329.239 47.3367 329.674 46.4675 329.764 45.5312H332.789C333.091 45.5292 333.387 45.4481 333.648 45.2961C333.908 45.1441 334.125 44.9264 334.275 44.6647C334.425 44.403 334.505 44.1065 334.505 43.8047C334.505 43.5029 334.426 43.2063 334.276 42.9445ZM326 46.9062C325.604 46.9047 325.221 46.7673 324.914 46.517C324.608 46.2667 324.396 45.9187 324.316 45.5312H327.684C327.604 45.9187 327.392 46.2667 327.086 46.517C326.779 46.7673 326.396 46.9047 326 46.9062ZM319.778 43.4687C320.663 41.6125 320.861 39.3008 320.861 37.625V36.9375C320.858 36.2609 320.988 35.5902 321.245 34.9642C321.502 34.3382 321.88 33.7692 322.357 33.29C322.835 32.8107 323.403 32.4307 324.028 32.1718C324.653 31.9128 325.323 31.7801 326 31.7812H326.043C328.853 31.7984 331.139 34.1445 331.139 37.0148V37.625C331.139 39.3008 331.337 41.6125 332.222 43.4687H319.778Z" fill="black"/>
<path d="M359 29C357.687 29 356.386 29.2587 355.173 29.7612C353.96 30.2638 352.858 31.0003 351.929 31.9289C350.054 33.8043 349 36.3478 349 39C349 41.6522 350.054 44.1957 351.929 46.0711C352.858 46.9997 353.96 47.7362 355.173 48.2388C356.386 48.7413 357.687 49 359 49C361.652 49 364.196 47.9464 366.071 46.0711C367.946 44.1957 369 41.6522 369 39C369 37.6868 368.741 36.3864 368.239 35.1732C367.736 33.9599 367 32.8575 366.071 31.9289C365.142 31.0003 364.04 30.2638 362.827 29.7612C361.614 29.2587 360.313 29 359 29ZM354.07 45.28C354.5 44.38 357.12 43.5 359 43.5C360.88 43.5 363.5 44.38 363.93 45.28C362.529 46.396 360.791 47.0026 359 47C357.14 47 355.43 46.36 354.07 45.28ZM365.36 43.83C363.93 42.09 360.46 41.5 359 41.5C357.54 41.5 354.07 42.09 352.64 43.83C351.576 42.4446 351 40.7467 351 39C351 34.59 354.59 31 359 31C363.41 31 367 34.59 367 39C367 40.82 366.38 42.5 365.36 43.83ZM359 33C357.06 33 355.5 34.56 355.5 36.5C355.5 38.44 357.06 40 359 40C360.94 40 362.5 38.44 362.5 36.5C362.5 34.56 360.94 33 359 33ZM359 38C358.602 38 358.221 37.842 357.939 37.5607C357.658 37.2794 357.5 36.8978 357.5 36.5C357.5 36.1022 357.658 35.7206 357.939 35.4393C358.221 35.158 358.602 35 359 35C359.398 35 359.779 35.158 360.061 35.4393C360.342 35.7206 360.5 36.1022 360.5 36.5C360.5 36.8978 360.342 37.2794 360.061 37.5607C359.779 37.842 359.398 38 359 38Z" fill="black"/>
<path d="M83.2241 91.52H77.9841L77.1441 94H73.5641L78.6441 79.96H82.6041L87.6841 94H84.0641L83.2241 91.52ZM82.3441 88.88L80.6041 83.74L78.8841 88.88H82.3441ZM95.4502 91.1V94H93.7102C92.4702 94 91.5036 93.7 90.8102 93.1C90.1169 92.4867 89.7702 91.4933 89.7702 90.12V85.68H88.4102V82.84H89.7702V80.12H93.1902V82.84H95.4302V85.68H93.1902V90.16C93.1902 90.4933 93.2702 90.7333 93.4302 90.88C93.5902 91.0267 93.8569 91.1 94.2302 91.1H95.4502ZM108.375 82.84V94H104.955V92.48C104.609 92.9733 104.135 93.3733 103.535 93.68C102.949 93.9733 102.295 94.12 101.575 94.12C100.722 94.12 99.9686 93.9333 99.3152 93.56C98.6619 93.1733 98.1552 92.62 97.7952 91.9C97.4352 91.18 97.2552 90.3333 97.2552 89.36V82.84H100.655V88.9C100.655 89.6467 100.849 90.2267 101.235 90.64C101.622 91.0533 102.142 91.26 102.795 91.26C103.462 91.26 103.989 91.0533 104.375 90.64C104.762 90.2267 104.955 89.6467 104.955 88.9V82.84H108.375ZM110.152 88.4C110.152 87.2533 110.365 86.2467 110.792 85.38C111.232 84.5133 111.825 83.8467 112.572 83.38C113.318 82.9133 114.152 82.68 115.072 82.68C115.858 82.68 116.545 82.84 117.132 83.16C117.732 83.48 118.192 83.9 118.512 84.42V82.84H121.932V94H118.512V92.42C118.178 92.94 117.712 93.36 117.112 93.68C116.525 94 115.838 94.16 115.052 94.16C114.145 94.16 113.318 93.9267 112.572 93.46C111.825 92.98 111.232 92.3067 110.792 91.44C110.365 90.56 110.152 89.5467 110.152 88.4ZM118.512 88.42C118.512 87.5667 118.272 86.8933 117.792 86.4C117.325 85.9067 116.752 85.66 116.072 85.66C115.392 85.66 114.812 85.9067 114.332 86.4C113.865 86.88 113.632 87.5467 113.632 88.4C113.632 89.2533 113.865 89.9333 114.332 90.44C114.812 90.9333 115.392 91.18 116.072 91.18C116.752 91.18 117.325 90.9333 117.792 90.44C118.272 89.9467 118.512 89.2733 118.512 88.42ZM127.826 79.2V94H124.406V79.2H127.826ZM132.024 81.68C131.424 81.68 130.931 81.5067 130.544 81.16C130.171 80.8 129.984 80.36 129.984 79.84C129.984 79.3067 130.171 78.8667 130.544 78.52C130.931 78.16 131.424 77.98 132.024 77.98C132.611 77.98 133.091 78.16 133.464 78.52C133.851 78.8667 134.044 79.3067 134.044 79.84C134.044 80.36 133.851 80.8 133.464 81.16C133.091 81.5067 132.611 81.68 132.024 81.68ZM133.724 82.84V94H130.304V82.84H133.724ZM139.403 91.18H144.243V94H135.583V91.28L140.223 85.66H135.623V82.84H144.143V85.56L139.403 91.18ZM145.445 88.4C145.445 87.2533 145.658 86.2467 146.085 85.38C146.525 84.5133 147.118 83.8467 147.865 83.38C148.611 82.9133 149.445 82.68 150.365 82.68C151.151 82.68 151.838 82.84 152.425 83.16C153.025 83.48 153.485 83.9 153.805 84.42V82.84H157.225V94H153.805V92.42C153.471 92.94 153.005 93.36 152.405 93.68C151.818 94 151.131 94.16 150.345 94.16C149.438 94.16 148.611 93.9267 147.865 93.46C147.118 92.98 146.525 92.3067 146.085 91.44C145.658 90.56 145.445 89.5467 145.445 88.4ZM153.805 88.42C153.805 87.5667 153.565 86.8933 153.085 86.4C152.618 85.9067 152.045 85.66 151.365 85.66C150.685 85.66 150.105 85.9067 149.625 86.4C149.158 86.88 148.925 87.5467 148.925 88.4C148.925 89.2533 149.158 89.9333 149.625 90.44C150.105 90.9333 150.685 91.18 151.365 91.18C152.045 91.18 152.618 90.9333 153.085 90.44C153.565 89.9467 153.805 89.2733 153.805 88.42ZM163.119 84.7C163.519 84.0867 164.019 83.6067 164.619 83.26C165.219 82.9 165.886 82.72 166.619 82.72V86.34H165.679C164.826 86.34 164.186 86.5267 163.759 86.9C163.332 87.26 163.119 87.9 163.119 88.82V94H159.699V82.84H163.119V84.7ZM183.012 88.24C183.012 88.56 182.992 88.8933 182.952 89.24H175.212C175.265 89.9333 175.485 90.4667 175.872 90.84C176.272 91.2 176.759 91.38 177.332 91.38C178.185 91.38 178.779 91.02 179.112 90.3H182.752C182.565 91.0333 182.225 91.6933 181.732 92.28C181.252 92.8667 180.645 93.3267 179.912 93.66C179.179 93.9933 178.359 94.16 177.452 94.16C176.359 94.16 175.385 93.9267 174.532 93.46C173.679 92.9933 173.012 92.3267 172.532 91.46C172.052 90.5933 171.812 89.58 171.812 88.42C171.812 87.26 172.045 86.2467 172.512 85.38C172.992 84.5133 173.659 83.8467 174.512 83.38C175.365 82.9133 176.345 82.68 177.452 82.68C178.532 82.68 179.492 82.9067 180.332 83.36C181.172 83.8133 181.825 84.46 182.292 85.3C182.772 86.14 183.012 87.12 183.012 88.24ZM179.512 87.34C179.512 86.7533 179.312 86.2867 178.912 85.94C178.512 85.5933 178.012 85.42 177.412 85.42C176.839 85.42 176.352 85.5867 175.952 85.92C175.565 86.2533 175.325 86.7267 175.232 87.34H179.512ZM189.836 90.8L192.256 82.84H195.896L191.936 94H187.716L183.756 82.84H187.416L189.836 90.8ZM207.856 88.24C207.856 88.56 207.836 88.8933 207.796 89.24H200.056C200.109 89.9333 200.329 90.4667 200.716 90.84C201.116 91.2 201.602 91.38 202.176 91.38C203.029 91.38 203.622 91.02 203.956 90.3H207.596C207.409 91.0333 207.069 91.6933 206.576 92.28C206.096 92.8667 205.489 93.3267 204.756 93.66C204.022 93.9933 203.202 94.16 202.296 94.16C201.202 94.16 200.229 93.9267 199.376 93.46C198.522 92.9933 197.856 92.3267 197.376 91.46C196.896 90.5933 196.656 89.58 196.656 88.42C196.656 87.26 196.889 86.2467 197.356 85.38C197.836 84.5133 198.502 83.8467 199.356 83.38C200.209 82.9133 201.189 82.68 202.296 82.68C203.376 82.68 204.336 82.9067 205.176 83.36C206.016 83.8133 206.669 84.46 207.136 85.3C207.616 86.14 207.856 87.12 207.856 88.24ZM204.356 87.34C204.356 86.7533 204.156 86.2867 203.756 85.94C203.356 85.5933 202.856 85.42 202.256 85.42C201.682 85.42 201.196 85.5867 200.796 85.92C200.409 86.2533 200.169 86.7267 200.076 87.34H204.356ZM216.46 82.72C217.767 82.72 218.807 83.1467 219.58 84C220.367 84.84 220.76 86 220.76 87.48V94H217.36V87.94C217.36 87.1933 217.167 86.6133 216.78 86.2C216.393 85.7867 215.873 85.58 215.22 85.58C214.567 85.58 214.047 85.7867 213.66 86.2C213.273 86.6133 213.08 87.1933 213.08 87.94V94H209.66V82.84H213.08V84.32C213.427 83.8267 213.893 83.44 214.48 83.16C215.067 82.8667 215.727 82.72 216.46 82.72ZM229.356 91.1V94H227.616C226.376 94 225.41 93.7 224.716 93.1C224.023 92.4867 223.676 91.4933 223.676 90.12V85.68H222.316V82.84H223.676V80.12H227.096V82.84H229.336V85.68H227.096V90.16C227.096 90.4933 227.176 90.7333 227.336 90.88C227.496 91.0267 227.763 91.1 228.136 91.1H229.356ZM236.341 94.16C235.248 94.16 234.261 93.9267 233.381 93.46C232.515 92.9933 231.828 92.3267 231.321 91.46C230.828 90.5933 230.581 89.58 230.581 88.42C230.581 87.2733 230.835 86.2667 231.341 85.4C231.848 84.52 232.541 83.8467 233.421 83.38C234.301 82.9133 235.288 82.68 236.381 82.68C237.475 82.68 238.461 82.9133 239.341 83.38C240.221 83.8467 240.915 84.52 241.421 85.4C241.928 86.2667 242.181 87.2733 242.181 88.42C242.181 89.5667 241.921 90.58 241.401 91.46C240.895 92.3267 240.195 92.9933 239.301 93.46C238.421 93.9267 237.435 94.16 236.341 94.16ZM236.341 91.2C236.995 91.2 237.548 90.96 238.001 90.48C238.468 90 238.701 89.3133 238.701 88.42C238.701 87.5267 238.475 86.84 238.021 86.36C237.581 85.88 237.035 85.64 236.381 85.64C235.715 85.64 235.161 85.88 234.721 86.36C234.281 86.8267 234.061 87.5133 234.061 88.42C234.061 89.3133 234.275 90 234.701 90.48C235.141 90.96 235.688 91.2 236.341 91.2Z" fill="black"/>
<path d="M37.6922 91.42L33.6322 87L37.6922 82.58H41.9922L37.9122 87L41.9922 91.42H37.6922Z" fill="black"/>
<rect x="23" y="215" width="336" height="93" rx="14" fill="#E9E9E9"/>
<path d="M52.36 235.52H57.24V237H50.54V223.06H52.36V235.52ZM63.9528 237.18C62.9261 237.18 61.9928 236.947 61.1528 236.48C60.3261 236.013 59.6728 235.353 59.1928 234.5C58.7261 233.633 58.4928 232.633 58.4928 231.5C58.4928 230.38 58.7328 229.393 59.2128 228.54C59.7061 227.673 60.3728 227.013 61.2128 226.56C62.0528 226.093 62.9928 225.86 64.0328 225.86C65.0728 225.86 66.0128 226.093 66.8528 226.56C67.6928 227.013 68.3528 227.667 68.8328 228.52C69.3261 229.373 69.5728 230.367 69.5728 231.5C69.5728 232.633 69.3195 233.633 68.8128 234.5C68.3195 235.353 67.6461 236.013 66.7928 236.48C65.9395 236.947 64.9928 237.18 63.9528 237.18ZM63.9528 235.58C64.6061 235.58 65.2195 235.427 65.7928 235.12C66.3661 234.813 66.8261 234.353 67.1728 233.74C67.5328 233.127 67.7128 232.38 67.7128 231.5C67.7128 230.62 67.5395 229.873 67.1928 229.26C66.8461 228.647 66.3928 228.193 65.8328 227.9C65.2728 227.593 64.6661 227.44 64.0128 227.44C63.3461 227.44 62.7328 227.593 62.1728 227.9C61.6261 228.193 61.1861 228.647 60.8528 229.26C60.5195 229.873 60.3528 230.62 60.3528 231.5C60.3528 232.393 60.5128 233.147 60.8328 233.76C61.1661 234.373 61.6061 234.833 62.1528 235.14C62.6995 235.433 63.2995 235.58 63.9528 235.58ZM73.7858 227.82C74.1058 227.193 74.5591 226.707 75.1458 226.36C75.7458 226.013 76.4724 225.84 77.3258 225.84V227.72H76.8458C74.8058 227.72 73.7858 228.827 73.7858 231.04V237H71.9658V226.04H73.7858V227.82ZM89.4267 231.1C89.4267 231.447 89.4067 231.813 89.3667 232.2H80.6067C80.6734 233.28 81.0401 234.127 81.7067 234.74C82.3867 235.34 83.2067 235.64 84.1667 235.64C84.9534 235.64 85.6067 235.46 86.1267 235.1C86.6601 234.727 87.0334 234.233 87.2467 233.62H89.2067C88.9134 234.673 88.3267 235.533 87.4467 236.2C86.5667 236.853 85.4734 237.18 84.1667 237.18C83.1267 237.18 82.1934 236.947 81.3667 236.48C80.5534 236.013 79.9134 235.353 79.4467 234.5C78.9801 233.633 78.7467 232.633 78.7467 231.5C78.7467 230.367 78.9734 229.373 79.4267 228.52C79.8801 227.667 80.5134 227.013 81.3267 226.56C82.1534 226.093 83.1001 225.86 84.1667 225.86C85.2067 225.86 86.1267 226.087 86.9267 226.54C87.7267 226.993 88.3401 227.62 88.7667 228.42C89.2067 229.207 89.4267 230.1 89.4267 231.1ZM87.5467 230.72C87.5467 230.027 87.3934 229.433 87.0867 228.94C86.7801 228.433 86.3601 228.053 85.8267 227.8C85.3067 227.533 84.7267 227.4 84.0867 227.4C83.1667 227.4 82.3801 227.693 81.7267 228.28C81.0867 228.867 80.7201 229.68 80.6267 230.72H87.5467ZM105.009 225.84C105.862 225.84 106.622 226.02 107.289 226.38C107.956 226.727 108.482 227.253 108.869 227.96C109.256 228.667 109.449 229.527 109.449 230.54V237H107.649V230.8C107.649 229.707 107.376 228.873 106.829 228.3C106.296 227.713 105.569 227.42 104.649 227.42C103.702 227.42 102.949 227.727 102.389 228.34C101.829 228.94 101.549 229.813 101.549 230.96V237H99.7491V230.8C99.7491 229.707 99.4757 228.873 98.9291 228.3C98.3957 227.713 97.6691 227.42 96.7491 227.42C95.8024 227.42 95.0491 227.727 94.4891 228.34C93.9291 228.94 93.6491 229.813 93.6491 230.96V237H91.8291V226.04H93.6491V227.62C94.0091 227.047 94.4891 226.607 95.0891 226.3C95.7024 225.993 96.3757 225.84 97.1091 225.84C98.0291 225.84 98.8424 226.047 99.5491 226.46C100.256 226.873 100.782 227.48 101.129 228.28C101.436 227.507 101.942 226.907 102.649 226.48C103.356 226.053 104.142 225.84 105.009 225.84ZM113.375 224.26C113.028 224.26 112.735 224.14 112.495 223.9C112.255 223.66 112.135 223.367 112.135 223.02C112.135 222.673 112.255 222.38 112.495 222.14C112.735 221.9 113.028 221.78 113.375 221.78C113.708 221.78 113.988 221.9 114.215 222.14C114.455 222.38 114.575 222.673 114.575 223.02C114.575 223.367 114.455 223.66 114.215 223.9C113.988 224.14 113.708 224.26 113.375 224.26ZM114.255 226.04V237H112.435V226.04H114.255ZM119.176 228.06C119.536 227.433 120.07 226.913 120.776 226.5C121.496 226.073 122.33 225.86 123.276 225.86C124.25 225.86 125.13 226.093 125.916 226.56C126.716 227.027 127.343 227.687 127.796 228.54C128.25 229.38 128.476 230.36 128.476 231.48C128.476 232.587 128.25 233.573 127.796 234.44C127.343 235.307 126.716 235.98 125.916 236.46C125.13 236.94 124.25 237.18 123.276 237.18C122.343 237.18 121.516 236.973 120.796 236.56C120.09 236.133 119.55 235.607 119.176 234.98V242.2H117.356V226.04H119.176V228.06ZM126.616 231.48C126.616 230.653 126.45 229.933 126.116 229.32C125.783 228.707 125.33 228.24 124.756 227.92C124.196 227.6 123.576 227.44 122.896 227.44C122.23 227.44 121.61 227.607 121.036 227.94C120.476 228.26 120.023 228.733 119.676 229.36C119.343 229.973 119.176 230.687 119.176 231.5C119.176 232.327 119.343 233.053 119.676 233.68C120.023 234.293 120.476 234.767 121.036 235.1C121.61 235.42 122.23 235.58 122.896 235.58C123.576 235.58 124.196 235.42 124.756 235.1C125.33 234.767 125.783 234.293 126.116 233.68C126.45 233.053 126.616 232.32 126.616 231.48ZM134.752 237.18C133.912 237.18 133.159 237.04 132.492 236.76C131.825 236.467 131.299 236.067 130.912 235.56C130.525 235.04 130.312 234.447 130.272 233.78H132.152C132.205 234.327 132.459 234.773 132.912 235.12C133.379 235.467 133.985 235.64 134.732 235.64C135.425 235.64 135.972 235.487 136.372 235.18C136.772 234.873 136.972 234.487 136.972 234.02C136.972 233.54 136.759 233.187 136.332 232.96C135.905 232.72 135.245 232.487 134.352 232.26C133.539 232.047 132.872 231.833 132.352 231.62C131.845 231.393 131.405 231.067 131.032 230.64C130.672 230.2 130.492 229.627 130.492 228.92C130.492 228.36 130.659 227.847 130.992 227.38C131.325 226.913 131.799 226.547 132.412 226.28C133.025 226 133.725 225.86 134.512 225.86C135.725 225.86 136.705 226.167 137.452 226.78C138.199 227.393 138.599 228.233 138.652 229.3H136.832C136.792 228.727 136.559 228.267 136.132 227.92C135.719 227.573 135.159 227.4 134.452 227.4C133.799 227.4 133.279 227.54 132.892 227.82C132.505 228.1 132.312 228.467 132.312 228.92C132.312 229.28 132.425 229.58 132.652 229.82C132.892 230.047 133.185 230.233 133.532 230.38C133.892 230.513 134.385 230.667 135.012 230.84C135.799 231.053 136.439 231.267 136.932 231.48C137.425 231.68 137.845 231.987 138.192 232.4C138.552 232.813 138.739 233.353 138.752 234.02C138.752 234.62 138.585 235.16 138.252 235.64C137.919 236.12 137.445 236.5 136.832 236.78C136.232 237.047 135.539 237.18 134.752 237.18ZM151.041 226.04V237H149.221V235.38C148.875 235.94 148.388 236.38 147.761 236.7C147.148 237.007 146.468 237.16 145.721 237.16C144.868 237.16 144.101 236.987 143.421 236.64C142.741 236.28 142.201 235.747 141.801 235.04C141.415 234.333 141.221 233.473 141.221 232.46V226.04H143.021V232.22C143.021 233.3 143.295 234.133 143.841 234.72C144.388 235.293 145.135 235.58 146.081 235.58C147.055 235.58 147.821 235.28 148.381 234.68C148.941 234.08 149.221 233.207 149.221 232.06V226.04H151.041ZM167.294 225.84C168.148 225.84 168.908 226.02 169.574 226.38C170.241 226.727 170.768 227.253 171.154 227.96C171.541 228.667 171.734 229.527 171.734 230.54V237H169.934V230.8C169.934 229.707 169.661 228.873 169.114 228.3C168.581 227.713 167.854 227.42 166.934 227.42C165.988 227.42 165.234 227.727 164.674 228.34C164.114 228.94 163.834 229.813 163.834 230.96V237H162.034V230.8C162.034 229.707 161.761 228.873 161.214 228.3C160.681 227.713 159.954 227.42 159.034 227.42C158.088 227.42 157.334 227.727 156.774 228.34C156.214 228.94 155.934 229.813 155.934 230.96V237H154.114V226.04H155.934V227.62C156.294 227.047 156.774 226.607 157.374 226.3C157.988 225.993 158.661 225.84 159.394 225.84C160.314 225.84 161.128 226.047 161.834 226.46C162.541 226.873 163.068 227.48 163.414 228.28C163.721 227.507 164.228 226.907 164.934 226.48C165.641 226.053 166.428 225.84 167.294 225.84ZM179.372 231.48C179.372 230.36 179.598 229.38 180.052 228.54C180.505 227.687 181.125 227.027 181.912 226.56C182.712 226.093 183.605 225.86 184.592 225.86C185.445 225.86 186.238 226.06 186.972 226.46C187.705 226.847 188.265 227.36 188.652 228V222.2H190.492V237H188.652V234.94C188.292 235.593 187.758 236.133 187.052 236.56C186.345 236.973 185.518 237.18 184.572 237.18C183.598 237.18 182.712 236.94 181.912 236.46C181.125 235.98 180.505 235.307 180.052 234.44C179.598 233.573 179.372 232.587 179.372 231.48ZM188.652 231.5C188.652 230.673 188.485 229.953 188.152 229.34C187.818 228.727 187.365 228.26 186.792 227.94C186.232 227.607 185.612 227.44 184.932 227.44C184.252 227.44 183.632 227.6 183.072 227.92C182.512 228.24 182.065 228.707 181.732 229.32C181.398 229.933 181.232 230.653 181.232 231.48C181.232 232.32 181.398 233.053 181.732 233.68C182.065 234.293 182.512 234.767 183.072 235.1C183.632 235.42 184.252 235.58 184.932 235.58C185.612 235.58 186.232 235.42 186.792 235.1C187.365 234.767 187.818 234.293 188.152 233.68C188.485 233.053 188.652 232.327 188.652 231.5ZM198.347 237.18C197.321 237.18 196.387 236.947 195.547 236.48C194.721 236.013 194.067 235.353 193.587 234.5C193.121 233.633 192.887 232.633 192.887 231.5C192.887 230.38 193.127 229.393 193.607 228.54C194.101 227.673 194.767 227.013 195.607 226.56C196.447 226.093 197.387 225.86 198.427 225.86C199.467 225.86 200.407 226.093 201.247 226.56C202.087 227.013 202.747 227.667 203.227 228.52C203.721 229.373 203.967 230.367 203.967 231.5C203.967 232.633 203.714 233.633 203.207 234.5C202.714 235.353 202.041 236.013 201.187 236.48C200.334 236.947 199.387 237.18 198.347 237.18ZM198.347 235.58C199.001 235.58 199.614 235.427 200.187 235.12C200.761 234.813 201.221 234.353 201.567 233.74C201.927 233.127 202.107 232.38 202.107 231.5C202.107 230.62 201.934 229.873 201.587 229.26C201.241 228.647 200.787 228.193 200.227 227.9C199.667 227.593 199.061 227.44 198.407 227.44C197.741 227.44 197.127 227.593 196.567 227.9C196.021 228.193 195.581 228.647 195.247 229.26C194.914 229.873 194.747 230.62 194.747 231.5C194.747 232.393 194.907 233.147 195.227 233.76C195.561 234.373 196.001 234.833 196.547 235.14C197.094 235.433 197.694 235.58 198.347 235.58ZM208.18 222.2V237H206.36V222.2H208.18ZM216.062 237.18C215.036 237.18 214.102 236.947 213.262 236.48C212.436 236.013 211.782 235.353 211.302 234.5C210.836 233.633 210.602 232.633 210.602 231.5C210.602 230.38 210.842 229.393 211.322 228.54C211.816 227.673 212.482 227.013 213.322 226.56C214.162 226.093 215.102 225.86 216.142 225.86C217.182 225.86 218.122 226.093 218.962 226.56C219.802 227.013 220.462 227.667 220.942 228.52C221.436 229.373 221.682 230.367 221.682 231.5C221.682 232.633 221.429 233.633 220.922 234.5C220.429 235.353 219.756 236.013 218.902 236.48C218.049 236.947 217.102 237.18 216.062 237.18ZM216.062 235.58C216.716 235.58 217.329 235.427 217.902 235.12C218.476 234.813 218.936 234.353 219.282 233.74C219.642 233.127 219.822 232.38 219.822 231.5C219.822 230.62 219.649 229.873 219.302 229.26C218.956 228.647 218.502 228.193 217.942 227.9C217.382 227.593 216.776 227.44 216.122 227.44C215.456 227.44 214.842 227.593 214.282 227.9C213.736 228.193 213.296 228.647 212.962 229.26C212.629 229.873 212.462 230.62 212.462 231.5C212.462 232.393 212.622 233.147 212.942 233.76C213.276 234.373 213.716 234.833 214.262 235.14C214.809 235.433 215.409 235.58 216.062 235.58ZM225.895 227.82C226.215 227.193 226.668 226.707 227.255 226.36C227.855 226.013 228.582 225.84 229.435 225.84V227.72H228.955C226.915 227.72 225.895 228.827 225.895 231.04V237H224.075V226.04H225.895V227.82Z" fill="black" fill-opacity="0.7"/>
<path d="M27.116 199.242C28.18 199.242 29.0993 199.443 29.874 199.844C30.658 200.236 31.2553 200.801 31.666 201.538C32.086 202.275 32.296 203.143 32.296 204.142C32.296 205.141 32.086 206.009 31.666 206.746C31.2553 207.474 30.658 208.034 29.874 208.426C29.0993 208.809 28.18 209 27.116 209H24.078V199.242H27.116ZM27.116 207.95C28.376 207.95 29.3373 207.619 30 206.956C30.6627 206.284 30.994 205.346 30.994 204.142C30.994 202.929 30.658 201.981 29.986 201.3C29.3233 200.619 28.3667 200.278 27.116 200.278H25.352V207.95H27.116ZM40.9764 204.87C40.9764 205.113 40.9624 205.369 40.9344 205.64H34.8024C34.8491 206.396 35.1058 206.989 35.5724 207.418C36.0484 207.838 36.6224 208.048 37.2944 208.048C37.8451 208.048 38.3024 207.922 38.6664 207.67C39.0398 207.409 39.3011 207.063 39.4504 206.634H40.8224C40.6171 207.371 40.2064 207.973 39.5904 208.44C38.9744 208.897 38.2091 209.126 37.2944 209.126C36.5664 209.126 35.9131 208.963 35.3344 208.636C34.7651 208.309 34.3171 207.847 33.9904 207.25C33.6638 206.643 33.5004 205.943 33.5004 205.15C33.5004 204.357 33.6591 203.661 33.9764 203.064C34.2938 202.467 34.7371 202.009 35.3064 201.692C35.8851 201.365 36.5478 201.202 37.2944 201.202C38.0224 201.202 38.6664 201.361 39.2264 201.678C39.7864 201.995 40.2158 202.434 40.5144 202.994C40.8224 203.545 40.9764 204.17 40.9764 204.87ZM39.6604 204.604C39.6604 204.119 39.5531 203.703 39.3384 203.358C39.1238 203.003 38.8298 202.737 38.4564 202.56C38.0924 202.373 37.6864 202.28 37.2384 202.28C36.5944 202.28 36.0438 202.485 35.5864 202.896C35.1384 203.307 34.8818 203.876 34.8164 204.604H39.6604ZM45.3741 209.126C44.7861 209.126 44.2587 209.028 43.7921 208.832C43.3254 208.627 42.9567 208.347 42.6861 207.992C42.4154 207.628 42.2661 207.213 42.2381 206.746H43.5541C43.5914 207.129 43.7687 207.441 44.0861 207.684C44.4127 207.927 44.8374 208.048 45.3601 208.048C45.8454 208.048 46.2281 207.941 46.5081 207.726C46.7881 207.511 46.9281 207.241 46.9281 206.914C46.9281 206.578 46.7787 206.331 46.4801 206.172C46.1814 206.004 45.7194 205.841 45.0941 205.682C44.5247 205.533 44.0581 205.383 43.6941 205.234C43.3394 205.075 43.0314 204.847 42.7701 204.548C42.5181 204.24 42.3921 203.839 42.3921 203.344C42.3921 202.952 42.5087 202.593 42.7421 202.266C42.9754 201.939 43.3067 201.683 43.7361 201.496C44.1654 201.3 44.6554 201.202 45.2061 201.202C46.0554 201.202 46.7414 201.417 47.2641 201.846C47.7867 202.275 48.0667 202.863 48.1041 203.61H46.8301C46.8021 203.209 46.6387 202.887 46.3401 202.644C46.0507 202.401 45.6587 202.28 45.1641 202.28C44.7067 202.28 44.3427 202.378 44.0721 202.574C43.8014 202.77 43.6661 203.027 43.6661 203.344C43.6661 203.596 43.7454 203.806 43.9041 203.974C44.0721 204.133 44.2774 204.263 44.5201 204.366C44.7721 204.459 45.1174 204.567 45.5561 204.688C46.1067 204.837 46.5547 204.987 46.9001 205.136C47.2454 205.276 47.5394 205.491 47.7821 205.78C48.0341 206.069 48.1647 206.447 48.1741 206.914C48.1741 207.334 48.0574 207.712 47.8241 208.048C47.5907 208.384 47.2594 208.65 46.8301 208.846C46.4101 209.033 45.9247 209.126 45.3741 209.126ZM49.4965 205.15C49.4965 204.357 49.6552 203.666 49.9725 203.078C50.2899 202.481 50.7285 202.019 51.2885 201.692C51.8579 201.365 52.5065 201.202 53.2345 201.202C54.1772 201.202 54.9519 201.431 55.5585 201.888C56.1745 202.345 56.5805 202.98 56.7765 203.792H55.4045C55.2739 203.325 55.0172 202.957 54.6345 202.686C54.2612 202.415 53.7945 202.28 53.2345 202.28C52.5065 202.28 51.9185 202.532 51.4705 203.036C51.0225 203.531 50.7985 204.235 50.7985 205.15C50.7985 206.074 51.0225 206.788 51.4705 207.292C51.9185 207.796 52.5065 208.048 53.2345 208.048C53.7945 208.048 54.2612 207.917 54.6345 207.656C55.0079 207.395 55.2645 207.021 55.4045 206.536H56.7765C56.5712 207.32 56.1605 207.95 55.5445 208.426C54.9285 208.893 54.1585 209.126 53.2345 209.126C52.5065 209.126 51.8579 208.963 51.2885 208.636C50.7285 208.309 50.2899 207.847 49.9725 207.25C49.6552 206.653 49.4965 205.953 49.4965 205.15ZM59.7504 202.574C59.9744 202.135 60.2918 201.795 60.7024 201.552C61.1224 201.309 61.6311 201.188 62.2284 201.188V202.504H61.8924C60.4644 202.504 59.7504 203.279 59.7504 204.828V209H58.4764V201.328H59.7504V202.574ZM64.3571 200.082C64.1144 200.082 63.9091 199.998 63.7411 199.83C63.5731 199.662 63.4891 199.457 63.4891 199.214C63.4891 198.971 63.5731 198.766 63.7411 198.598C63.9091 198.43 64.1144 198.346 64.3571 198.346C64.5904 198.346 64.7864 198.43 64.9451 198.598C65.1131 198.766 65.1971 198.971 65.1971 199.214C65.1971 199.457 65.1131 199.662 64.9451 199.83C64.7864 199.998 64.5904 200.082 64.3571 200.082ZM64.9731 201.328V209H63.6991V201.328H64.9731ZM70.4064 208.048C70.9664 208.048 71.4331 207.917 71.8064 207.656C72.1797 207.395 72.4364 207.021 72.5764 206.536H73.9484C73.7617 207.264 73.3931 207.861 72.8424 208.328C72.3011 208.785 71.6197 209.047 70.7984 209.112V209.812C71.3491 209.803 71.7877 209.919 72.1144 210.162C72.4411 210.405 72.6044 210.75 72.6044 211.198C72.6044 211.637 72.4457 211.987 72.1284 212.248C71.8111 212.509 71.4004 212.64 70.8964 212.64H69.2864V211.814H70.6444C70.9524 211.814 71.1764 211.767 71.3164 211.674C71.4657 211.581 71.5404 211.422 71.5404 211.198C71.5404 210.983 71.4657 210.829 71.3164 210.736C71.1764 210.643 70.9524 210.596 70.6444 210.596H69.9444V209.098C69.3004 209.033 68.7311 208.832 68.2364 208.496C67.7417 208.151 67.3544 207.693 67.0744 207.124C66.8037 206.545 66.6684 205.887 66.6684 205.15C66.6684 204.357 66.8271 203.666 67.1444 203.078C67.4617 202.481 67.9004 202.019 68.4604 201.692C69.0297 201.365 69.6784 201.202 70.4064 201.202C71.3491 201.202 72.1237 201.431 72.7304 201.888C73.3464 202.345 73.7524 202.98 73.9484 203.792H72.5764C72.4457 203.325 72.1891 202.957 71.8064 202.686C71.4331 202.415 70.9664 202.28 70.4064 202.28C69.6784 202.28 69.0904 202.532 68.6424 203.036C68.1944 203.531 67.9704 204.235 67.9704 205.15C67.9704 206.074 68.1944 206.788 68.6424 207.292C69.0904 207.796 69.6784 208.048 70.4064 208.048ZM75.1723 205.136C75.1723 204.352 75.331 203.666 75.6483 203.078C75.9656 202.481 76.3996 202.019 76.9503 201.692C77.5103 201.365 78.131 201.202 78.8123 201.202C79.4843 201.202 80.0676 201.347 80.5623 201.636C81.057 201.925 81.4256 202.289 81.6683 202.728V201.328H82.9563V209H81.6683V207.572C81.4163 208.02 81.0383 208.393 80.5343 208.692C80.0396 208.981 79.461 209.126 78.7983 209.126C78.117 209.126 77.501 208.958 76.9503 208.622C76.3996 208.286 75.9656 207.815 75.6483 207.208C75.331 206.601 75.1723 205.911 75.1723 205.136ZM81.6683 205.15C81.6683 204.571 81.5516 204.067 81.3183 203.638C81.085 203.209 80.7676 202.882 80.3663 202.658C79.9743 202.425 79.5403 202.308 79.0643 202.308C78.5883 202.308 78.1543 202.42 77.7623 202.644C77.3703 202.868 77.0576 203.195 76.8243 203.624C76.591 204.053 76.4743 204.557 76.4743 205.136C76.4743 205.724 76.591 206.237 76.8243 206.676C77.0576 207.105 77.3703 207.437 77.7623 207.67C78.1543 207.894 78.5883 208.006 79.0643 208.006C79.5403 208.006 79.9743 207.894 80.3663 207.67C80.7676 207.437 81.085 207.105 81.3183 206.676C81.5516 206.237 81.6683 205.729 81.6683 205.15ZM77.2583 200.502C77.3236 200.026 77.4776 199.662 77.7203 199.41C77.9723 199.158 78.285 199.032 78.6583 199.032C78.8356 199.032 78.985 199.065 79.1063 199.13C79.237 199.186 79.391 199.27 79.5683 199.382C79.699 199.475 79.8156 199.55 79.9183 199.606C80.021 199.653 80.133 199.676 80.2543 199.676C80.413 199.676 80.5483 199.625 80.6603 199.522C80.7723 199.419 80.8423 199.27 80.8703 199.074H81.5983C81.5423 199.541 81.3883 199.9 81.1363 200.152C80.8843 200.404 80.5716 200.53 80.1983 200.53C80.021 200.53 79.8623 200.502 79.7223 200.446C79.5916 200.381 79.4423 200.287 79.2743 200.166C79.125 200.073 79.0036 200.003 78.9103 199.956C78.8263 199.909 78.7236 199.886 78.6023 199.886C78.4436 199.886 78.3083 199.937 78.1963 200.04C78.0936 200.143 78.0283 200.297 78.0003 200.502H77.2583ZM88.4553 209.126C87.7366 209.126 87.0833 208.963 86.4953 208.636C85.9166 208.309 85.4593 207.847 85.1233 207.25C84.7966 206.643 84.6333 205.943 84.6333 205.15C84.6333 204.366 84.8013 203.675 85.1373 203.078C85.4826 202.471 85.9493 202.009 86.5373 201.692C87.1253 201.365 87.7833 201.202 88.5113 201.202C89.2393 201.202 89.8973 201.365 90.4853 201.692C91.0733 202.009 91.5353 202.467 91.8713 203.064C92.2166 203.661 92.3893 204.357 92.3893 205.15C92.3893 205.943 92.2119 206.643 91.8573 207.25C91.5119 207.847 91.0406 208.309 90.4433 208.636C89.8459 208.963 89.1833 209.126 88.4553 209.126ZM88.4553 208.006C88.9126 208.006 89.3419 207.899 89.7433 207.684C90.1446 207.469 90.4666 207.147 90.7093 206.718C90.9613 206.289 91.0873 205.766 91.0873 205.15C91.0873 204.534 90.9659 204.011 90.7233 203.582C90.4806 203.153 90.1633 202.835 89.7713 202.63C89.3793 202.415 88.9546 202.308 88.4973 202.308C88.0306 202.308 87.6013 202.415 87.2093 202.63C86.8266 202.835 86.5186 203.153 86.2853 203.582C86.0519 204.011 85.9353 204.534 85.9353 205.15C85.9353 205.775 86.0473 206.303 86.2713 206.732C86.5046 207.161 86.8126 207.483 87.1953 207.698C87.5779 207.903 87.9979 208.006 88.4553 208.006Z" fill="black"/>
<path d="M25.352 329.278V332.54H28.908V333.59H25.352V336.95H29.328V338H24.078V328.228H29.328V329.278H25.352ZM36.5757 332.33V333.408H30.9897V332.33H36.5757ZM48.1927 330.188C48.79 330.188 49.322 330.314 49.7887 330.566C50.2553 330.809 50.624 331.177 50.8947 331.672C51.1653 332.167 51.3007 332.769 51.3007 333.478V338H50.0407V333.66C50.0407 332.895 49.8493 332.311 49.4667 331.91C49.0933 331.499 48.5847 331.294 47.9407 331.294C47.278 331.294 46.7507 331.509 46.3587 331.938C45.9667 332.358 45.7707 332.969 45.7707 333.772V338H44.5107V333.66C44.5107 332.895 44.3193 332.311 43.9367 331.91C43.5633 331.499 43.0547 331.294 42.4107 331.294C41.748 331.294 41.2207 331.509 40.8287 331.938C40.4367 332.358 40.2407 332.969 40.2407 333.772V338H38.9667V330.328H40.2407V331.434C40.4927 331.033 40.8287 330.725 41.2487 330.51C41.678 330.295 42.1493 330.188 42.6627 330.188C43.3067 330.188 43.876 330.333 44.3707 330.622C44.8653 330.911 45.234 331.336 45.4767 331.896C45.6913 331.355 46.046 330.935 46.5407 330.636C47.0353 330.337 47.586 330.188 48.1927 330.188ZM52.9145 334.136C52.9145 333.352 53.0732 332.666 53.3905 332.078C53.7078 331.481 54.1418 331.019 54.6925 330.692C55.2525 330.365 55.8732 330.202 56.5545 330.202C57.2265 330.202 57.8098 330.347 58.3045 330.636C58.7992 330.925 59.1678 331.289 59.4105 331.728V330.328H60.6985V338H59.4105V336.572C59.1585 337.02 58.7805 337.393 58.2765 337.692C57.7818 337.981 57.2032 338.126 56.5405 338.126C55.8592 338.126 55.2432 337.958 54.6925 337.622C54.1418 337.286 53.7078 336.815 53.3905 336.208C53.0732 335.601 52.9145 334.911 52.9145 334.136ZM59.4105 334.15C59.4105 333.571 59.2938 333.067 59.0605 332.638C58.8272 332.209 58.5098 331.882 58.1085 331.658C57.7165 331.425 57.2825 331.308 56.8065 331.308C56.3305 331.308 55.8965 331.42 55.5045 331.644C55.1125 331.868 54.7998 332.195 54.5665 332.624C54.3332 333.053 54.2165 333.557 54.2165 334.136C54.2165 334.724 54.3332 335.237 54.5665 335.676C54.7998 336.105 55.1125 336.437 55.5045 336.67C55.8965 336.894 56.3305 337.006 56.8065 337.006C57.2825 337.006 57.7165 336.894 58.1085 336.67C58.5098 336.437 58.8272 336.105 59.0605 335.676C59.2938 335.237 59.4105 334.729 59.4105 334.15ZM63.5094 329.082C63.2668 329.082 63.0614 328.998 62.8934 328.83C62.7254 328.662 62.6414 328.457 62.6414 328.214C62.6414 327.971 62.7254 327.766 62.8934 327.598C63.0614 327.43 63.2668 327.346 63.5094 327.346C63.7428 327.346 63.9388 327.43 64.0974 327.598C64.2654 327.766 64.3494 327.971 64.3494 328.214C64.3494 328.457 64.2654 328.662 64.0974 328.83C63.9388 328.998 63.7428 329.082 63.5094 329.082ZM64.1254 330.328V338H62.8514V330.328H64.1254ZM67.5708 327.64V338H66.2968V327.64H67.5708Z" fill="black"/>
<rect x="23" y="141" width="336" height="47" rx="14" fill="#E9E9E9"/>
<path d="M59.12 158.06V159.54H55.32V172H53.5V159.54H49.68V158.06H59.12ZM62.3003 159.26C61.9536 159.26 61.6603 159.14 61.4203 158.9C61.1803 158.66 61.0603 158.367 61.0603 158.02C61.0603 157.673 61.1803 157.38 61.4203 157.14C61.6603 156.9 61.9536 156.78 62.3003 156.78C62.6336 156.78 62.9136 156.9 63.1403 157.14C63.3803 157.38 63.5003 157.673 63.5003 158.02C63.5003 158.367 63.3803 158.66 63.1403 158.9C62.9136 159.14 62.6336 159.26 62.3003 159.26ZM63.1803 161.04V172H61.3603V161.04H63.1803ZM68.5022 162.54V169C68.5022 169.533 68.6155 169.913 68.8422 170.14C69.0689 170.353 69.4622 170.46 70.0222 170.46H71.3622V172H69.7222C68.7089 172 67.9489 171.767 67.4422 171.3C66.9355 170.833 66.6822 170.067 66.6822 169V162.54H65.2622V161.04H66.6822V158.28H68.5022V161.04H71.3622V162.54H68.5022ZM83.2873 161.04V172H81.4673V170.38C81.1207 170.94 80.634 171.38 80.0073 171.7C79.394 172.007 78.714 172.16 77.9673 172.16C77.114 172.16 76.3473 171.987 75.6673 171.64C74.9873 171.28 74.4473 170.747 74.0473 170.04C73.6607 169.333 73.4673 168.473 73.4673 167.46V161.04H75.2673V167.22C75.2673 168.3 75.5407 169.133 76.0873 169.72C76.634 170.293 77.3807 170.58 78.3273 170.58C79.3007 170.58 80.0673 170.28 80.6273 169.68C81.1873 169.08 81.4673 168.207 81.4673 167.06V161.04H83.2873ZM88.1803 157.2V172H86.3603V157.2H88.1803ZM96.0622 172.18C95.0355 172.18 94.1022 171.947 93.2622 171.48C92.4355 171.013 91.7822 170.353 91.3022 169.5C90.8355 168.633 90.6022 167.633 90.6022 166.5C90.6022 165.38 90.8422 164.393 91.3222 163.54C91.8155 162.673 92.4822 162.013 93.3222 161.56C94.1622 161.093 95.1022 160.86 96.1422 160.86C97.1822 160.86 98.1222 161.093 98.9622 161.56C99.8022 162.013 100.462 162.667 100.942 163.52C101.436 164.373 101.682 165.367 101.682 166.5C101.682 167.633 101.429 168.633 100.922 169.5C100.429 170.353 99.7555 171.013 98.9022 171.48C98.0489 171.947 97.1022 172.18 96.0622 172.18ZM96.0622 170.58C96.7155 170.58 97.3289 170.427 97.9022 170.12C98.4755 169.813 98.9355 169.353 99.2822 168.74C99.6422 168.127 99.8222 167.38 99.8222 166.5C99.8222 165.62 99.6489 164.873 99.3022 164.26C98.9555 163.647 98.5022 163.193 97.9422 162.9C97.3822 162.593 96.7755 162.44 96.1222 162.44C95.4555 162.44 94.8422 162.593 94.2822 162.9C93.7355 163.193 93.2955 163.647 92.9622 164.26C92.6289 164.873 92.4622 165.62 92.4622 166.5C92.4622 167.393 92.6222 168.147 92.9422 168.76C93.2755 169.373 93.7155 169.833 94.2622 170.14C94.8089 170.433 95.4089 170.58 96.0622 170.58Z" fill="black" fill-opacity="0.7"/>
<path d="M30.084 125.242V126.278H27.424V135H26.15V126.278H23.476V125.242H30.084ZM32.9262 127.328V135H31.6522V127.328H32.9262ZM33.6542 125.158L30.6722 126.754V125.802L33.6542 124.052V125.158ZM36.6515 128.378V132.9C36.6515 133.273 36.7309 133.539 36.8895 133.698C37.0482 133.847 37.3235 133.922 37.7155 133.922H38.6535V135H37.5055C36.7962 135 36.2642 134.837 35.9095 134.51C35.5549 134.183 35.3775 133.647 35.3775 132.9V128.378H34.3835V127.328H35.3775V125.396H36.6515V127.328H38.6535V128.378H36.6515ZM47.0011 127.328V135H45.7271V133.866C45.4845 134.258 45.1438 134.566 44.7051 134.79C44.2758 135.005 43.7998 135.112 43.2771 135.112C42.6798 135.112 42.1431 134.991 41.6671 134.748C41.1911 134.496 40.8131 134.123 40.5331 133.628C40.2625 133.133 40.1271 132.531 40.1271 131.822V127.328H41.3871V131.654C41.3871 132.41 41.5785 132.993 41.9611 133.404C42.3438 133.805 42.8665 134.006 43.5291 134.006C44.2105 134.006 44.7471 133.796 45.1391 133.376C45.5311 132.956 45.7271 132.345 45.7271 131.542V127.328H47.0011ZM50.4262 124.64V135H49.1522V124.64H50.4262ZM55.9435 135.126C55.2249 135.126 54.5715 134.963 53.9835 134.636C53.4049 134.309 52.9475 133.847 52.6115 133.25C52.2849 132.643 52.1215 131.943 52.1215 131.15C52.1215 130.366 52.2895 129.675 52.6255 129.078C52.9709 128.471 53.4375 128.009 54.0255 127.692C54.6135 127.365 55.2715 127.202 55.9995 127.202C56.7275 127.202 57.3855 127.365 57.9735 127.692C58.5615 128.009 59.0235 128.467 59.3595 129.064C59.7049 129.661 59.8775 130.357 59.8775 131.15C59.8775 131.943 59.7002 132.643 59.3455 133.25C59.0002 133.847 58.5289 134.309 57.9315 134.636C57.3342 134.963 56.6715 135.126 55.9435 135.126ZM55.9435 134.006C56.4009 134.006 56.8302 133.899 57.2315 133.684C57.6329 133.469 57.9549 133.147 58.1975 132.718C58.4495 132.289 58.5755 131.766 58.5755 131.15C58.5755 130.534 58.4542 130.011 58.2115 129.582C57.9689 129.153 57.6515 128.835 57.2595 128.63C56.8675 128.415 56.4429 128.308 55.9855 128.308C55.5189 128.308 55.0895 128.415 54.6975 128.63C54.3149 128.835 54.0069 129.153 53.7735 129.582C53.5402 130.011 53.4235 130.534 53.4235 131.15C53.4235 131.775 53.5355 132.303 53.7595 132.732C53.9929 133.161 54.3009 133.483 54.6835 133.698C55.0662 133.903 55.4862 134.006 55.9435 134.006Z" fill="black"/>
<rect x="23" y="429" width="161" height="47" rx="14" fill="#E9E9E9"/>
<path d="M31.596 413.242V423H30.322V418.576H25.352V423H24.078V413.242H25.352V417.526H30.322V413.242H31.596ZM37.1174 423.126C36.3987 423.126 35.7454 422.963 35.1574 422.636C34.5787 422.309 34.1214 421.847 33.7854 421.25C33.4587 420.643 33.2954 419.943 33.2954 419.15C33.2954 418.366 33.4634 417.675 33.7994 417.078C34.1447 416.471 34.6114 416.009 35.1994 415.692C35.7874 415.365 36.4454 415.202 37.1734 415.202C37.9014 415.202 38.5594 415.365 39.1474 415.692C39.7354 416.009 40.1974 416.467 40.5334 417.064C40.8787 417.661 41.0514 418.357 41.0514 419.15C41.0514 419.943 40.874 420.643 40.5194 421.25C40.174 421.847 39.7027 422.309 39.1054 422.636C38.508 422.963 37.8454 423.126 37.1174 423.126ZM37.1174 422.006C37.5747 422.006 38.004 421.899 38.4054 421.684C38.8067 421.469 39.1287 421.147 39.3714 420.718C39.6234 420.289 39.7494 419.766 39.7494 419.15C39.7494 418.534 39.628 418.011 39.3854 417.582C39.1427 417.153 38.8254 416.835 38.4334 416.63C38.0414 416.415 37.6167 416.308 37.1594 416.308C36.6927 416.308 36.2634 416.415 35.8714 416.63C35.4887 416.835 35.1807 417.153 34.9474 417.582C34.714 418.011 34.5974 418.534 34.5974 419.15C34.5974 419.775 34.7094 420.303 34.9334 420.732C35.1667 421.161 35.4747 421.483 35.8574 421.698C36.24 421.903 36.66 422.006 37.1174 422.006ZM44.0004 416.574C44.2244 416.135 44.5418 415.795 44.9524 415.552C45.3724 415.309 45.8811 415.188 46.4784 415.188V416.504H46.1424C44.7144 416.504 44.0004 417.279 44.0004 418.828V423H42.7264V415.328H44.0004V416.574ZM47.4731 419.136C47.4731 418.352 47.6318 417.666 47.9491 417.078C48.2664 416.481 48.7004 416.019 49.2511 415.692C49.8111 415.365 50.4318 415.202 51.1131 415.202C51.7851 415.202 52.3684 415.347 52.8631 415.636C53.3578 415.925 53.7264 416.289 53.9691 416.728V415.328H55.2571V423H53.9691V421.572C53.7171 422.02 53.3391 422.393 52.8351 422.692C52.3404 422.981 51.7618 423.126 51.0991 423.126C50.4178 423.126 49.8018 422.958 49.2511 422.622C48.7004 422.286 48.2664 421.815 47.9491 421.208C47.6318 420.601 47.4731 419.911 47.4731 419.136ZM53.9691 419.15C53.9691 418.571 53.8524 418.067 53.6191 417.638C53.3858 417.209 53.0684 416.882 52.6671 416.658C52.2751 416.425 51.8411 416.308 51.3651 416.308C50.8891 416.308 50.4551 416.42 50.0631 416.644C49.6711 416.868 49.3584 417.195 49.1251 417.624C48.8918 418.053 48.7751 418.557 48.7751 419.136C48.7751 419.724 48.8918 420.237 49.1251 420.676C49.3584 421.105 49.6711 421.437 50.0631 421.67C50.4551 421.894 50.8891 422.006 51.3651 422.006C51.8411 422.006 52.2751 421.894 52.6671 421.67C53.0684 421.437 53.3858 421.105 53.6191 420.676C53.8524 420.237 53.9691 419.729 53.9691 419.15ZM61.8005 414.082C61.5578 414.082 61.3525 413.998 61.1845 413.83C61.0165 413.662 60.9325 413.457 60.9325 413.214C60.9325 412.971 61.0165 412.766 61.1845 412.598C61.3525 412.43 61.5578 412.346 61.8005 412.346C62.0338 412.346 62.2298 412.43 62.3885 412.598C62.5565 412.766 62.6405 412.971 62.6405 413.214C62.6405 413.457 62.5565 413.662 62.3885 413.83C62.2298 413.998 62.0338 414.082 61.8005 414.082ZM62.4165 415.328V423H61.1425V415.328H62.4165ZM68.3258 415.188C69.2591 415.188 70.0151 415.473 70.5938 416.042C71.1724 416.602 71.4618 417.414 71.4618 418.478V423H70.2018V418.66C70.2018 417.895 70.0104 417.311 69.6278 416.91C69.2451 416.499 68.7224 416.294 68.0598 416.294C67.3878 416.294 66.8511 416.504 66.4498 416.924C66.0578 417.344 65.8618 417.955 65.8618 418.758V423H64.5878V415.328H65.8618V416.42C66.1138 416.028 66.4544 415.725 66.8838 415.51C67.3224 415.295 67.8031 415.188 68.3258 415.188ZM74.8168 415.328V423H73.5428V415.328H74.8168ZM75.5448 413.158L72.5628 414.754V413.802L75.5448 412.052V413.158ZM76.5122 419.15C76.5122 418.357 76.6708 417.666 76.9882 417.078C77.3055 416.481 77.7442 416.019 78.3042 415.692C78.8735 415.365 79.5222 415.202 80.2502 415.202C81.1928 415.202 81.9675 415.431 82.5742 415.888C83.1902 416.345 83.5962 416.98 83.7922 417.792H82.4202C82.2895 417.325 82.0328 416.957 81.6502 416.686C81.2768 416.415 80.8102 416.28 80.2502 416.28C79.5222 416.28 78.9342 416.532 78.4862 417.036C78.0382 417.531 77.8142 418.235 77.8142 419.15C77.8142 420.074 78.0382 420.788 78.4862 421.292C78.9342 421.796 79.5222 422.048 80.2502 422.048C80.8102 422.048 81.2768 421.917 81.6502 421.656C82.0235 421.395 82.2802 421.021 82.4202 420.536H83.7922C83.5868 421.32 83.1762 421.95 82.5602 422.426C81.9442 422.893 81.1742 423.126 80.2502 423.126C79.5222 423.126 78.8735 422.963 78.3042 422.636C77.7442 422.309 77.3055 421.847 76.9882 421.25C76.6708 420.653 76.5122 419.953 76.5122 419.15ZM86.1501 414.082C85.9074 414.082 85.7021 413.998 85.5341 413.83C85.3661 413.662 85.2821 413.457 85.2821 413.214C85.2821 412.971 85.3661 412.766 85.5341 412.598C85.7021 412.43 85.9074 412.346 86.1501 412.346C86.3834 412.346 86.5794 412.43 86.7381 412.598C86.9061 412.766 86.9901 412.971 86.9901 413.214C86.9901 413.457 86.9061 413.662 86.7381 413.83C86.5794 413.998 86.3834 414.082 86.1501 414.082ZM86.7661 415.328V423H85.4921V415.328H86.7661ZM92.2834 423.126C91.5647 423.126 90.9114 422.963 90.3234 422.636C89.7447 422.309 89.2874 421.847 88.9514 421.25C88.6247 420.643 88.4614 419.943 88.4614 419.15C88.4614 418.366 88.6294 417.675 88.9654 417.078C89.3107 416.471 89.7774 416.009 90.3654 415.692C90.9534 415.365 91.6114 415.202 92.3394 415.202C93.0674 415.202 93.7254 415.365 94.3134 415.692C94.9014 416.009 95.3634 416.467 95.6994 417.064C96.0447 417.661 96.2174 418.357 96.2174 419.15C96.2174 419.943 96.04 420.643 95.6854 421.25C95.34 421.847 94.8687 422.309 94.2714 422.636C93.674 422.963 93.0114 423.126 92.2834 423.126ZM92.2834 422.006C92.7407 422.006 93.17 421.899 93.5714 421.684C93.9727 421.469 94.2947 421.147 94.5374 420.718C94.7894 420.289 94.9154 419.766 94.9154 419.15C94.9154 418.534 94.794 418.011 94.5514 417.582C94.3087 417.153 93.9914 416.835 93.5994 416.63C93.2074 416.415 92.7827 416.308 92.3254 416.308C91.8587 416.308 91.4294 416.415 91.0374 416.63C90.6547 416.835 90.3467 417.153 90.1134 417.582C89.88 418.011 89.7634 418.534 89.7634 419.15C89.7634 419.775 89.8754 420.303 90.0994 420.732C90.3327 421.161 90.6407 421.483 91.0234 421.698C91.406 421.903 91.826 422.006 92.2834 422.006Z" fill="black"/>
<rect x="197" y="428" width="161" height="47" rx="14" fill="#E9E9E9"/>
<path d="M205.596 412.242V422H204.322V417.576H199.352V422H198.078V412.242H199.352V416.526H204.322V412.242H205.596ZM211.117 422.126C210.399 422.126 209.745 421.963 209.157 421.636C208.579 421.309 208.121 420.847 207.785 420.25C207.459 419.643 207.295 418.943 207.295 418.15C207.295 417.366 207.463 416.675 207.799 416.078C208.145 415.471 208.611 415.009 209.199 414.692C209.787 414.365 210.445 414.202 211.173 414.202C211.901 414.202 212.559 414.365 213.147 414.692C213.735 415.009 214.197 415.467 214.533 416.064C214.879 416.661 215.051 417.357 215.051 418.15C215.051 418.943 214.874 419.643 214.519 420.25C214.174 420.847 213.703 421.309 213.105 421.636C212.508 421.963 211.845 422.126 211.117 422.126ZM211.117 421.006C211.575 421.006 212.004 420.899 212.405 420.684C212.807 420.469 213.129 420.147 213.371 419.718C213.623 419.289 213.749 418.766 213.749 418.15C213.749 417.534 213.628 417.011 213.385 416.582C213.143 416.153 212.825 415.835 212.433 415.63C212.041 415.415 211.617 415.308 211.159 415.308C210.693 415.308 210.263 415.415 209.871 415.63C209.489 415.835 209.181 416.153 208.947 416.582C208.714 417.011 208.597 417.534 208.597 418.15C208.597 418.775 208.709 419.303 208.933 419.732C209.167 420.161 209.475 420.483 209.857 420.698C210.24 420.903 210.66 421.006 211.117 421.006ZM218 415.574C218.224 415.135 218.542 414.795 218.952 414.552C219.372 414.309 219.881 414.188 220.478 414.188V415.504H220.142C218.714 415.504 218 416.279 218 417.828V422H216.726V414.328H218V415.574ZM221.473 418.136C221.473 417.352 221.632 416.666 221.949 416.078C222.266 415.481 222.7 415.019 223.251 414.692C223.811 414.365 224.432 414.202 225.113 414.202C225.785 414.202 226.368 414.347 226.863 414.636C227.358 414.925 227.726 415.289 227.969 415.728V414.328H229.257V422H227.969V420.572C227.717 421.02 227.339 421.393 226.835 421.692C226.34 421.981 225.762 422.126 225.099 422.126C224.418 422.126 223.802 421.958 223.251 421.622C222.7 421.286 222.266 420.815 221.949 420.208C221.632 419.601 221.473 418.911 221.473 418.136ZM227.969 418.15C227.969 417.571 227.852 417.067 227.619 416.638C227.386 416.209 227.068 415.882 226.667 415.658C226.275 415.425 225.841 415.308 225.365 415.308C224.889 415.308 224.455 415.42 224.063 415.644C223.671 415.868 223.358 416.195 223.125 416.624C222.892 417.053 222.775 417.557 222.775 418.136C222.775 418.724 222.892 419.237 223.125 419.676C223.358 420.105 223.671 420.437 224.063 420.67C224.455 420.894 224.889 421.006 225.365 421.006C225.841 421.006 226.275 420.894 226.667 420.67C227.068 420.437 227.386 420.105 227.619 419.676C227.852 419.237 227.969 418.729 227.969 418.15ZM238.264 415.378H236.654V422H235.38V415.378H234.386V414.328H235.38V413.782C235.38 412.923 235.6 412.298 236.038 411.906C236.486 411.505 237.2 411.304 238.18 411.304V412.368C237.62 412.368 237.224 412.48 236.99 412.704C236.766 412.919 236.654 413.278 236.654 413.782V414.328H238.264V415.378ZM240.408 413.082C240.165 413.082 239.96 412.998 239.792 412.83C239.624 412.662 239.54 412.457 239.54 412.214C239.54 411.971 239.624 411.766 239.792 411.598C239.96 411.43 240.165 411.346 240.408 411.346C240.641 411.346 240.837 411.43 240.996 411.598C241.164 411.766 241.248 411.971 241.248 412.214C241.248 412.457 241.164 412.662 240.996 412.83C240.837 412.998 240.641 413.082 240.408 413.082ZM241.024 414.328V422H239.75V414.328H241.024ZM252.421 414.188C253.019 414.188 253.551 414.314 254.017 414.566C254.484 414.809 254.853 415.177 255.123 415.672C255.394 416.167 255.529 416.769 255.529 417.478V422H254.269V417.66C254.269 416.895 254.078 416.311 253.695 415.91C253.322 415.499 252.813 415.294 252.169 415.294C251.507 415.294 250.979 415.509 250.587 415.938C250.195 416.358 249.999 416.969 249.999 417.772V422H248.739V417.66C248.739 416.895 248.548 416.311 248.165 415.91C247.792 415.499 247.283 415.294 246.639 415.294C245.977 415.294 245.449 415.509 245.057 415.938C244.665 416.358 244.469 416.969 244.469 417.772V422H243.195V414.328H244.469V415.434C244.721 415.033 245.057 414.725 245.477 414.51C245.907 414.295 246.378 414.188 246.891 414.188C247.535 414.188 248.105 414.333 248.599 414.622C249.094 414.911 249.463 415.336 249.705 415.896C249.92 415.355 250.275 414.935 250.769 414.636C251.264 414.337 251.815 414.188 252.421 414.188Z" fill="black"/>
<rect x="23" y="345" width="336" height="47" rx="14" fill="#E9E9E9"/>
<path d="M92.2042 362.06C93.7242 362.06 95.0376 362.347 96.1442 362.92C97.2642 363.48 98.1176 364.287 98.7042 365.34C99.3042 366.393 99.6042 367.633 99.6042 369.06C99.6042 370.487 99.3042 371.727 98.7042 372.78C98.1176 373.82 97.2642 374.62 96.1442 375.18C95.0376 375.727 93.7242 376 92.2042 376H87.8642V362.06H92.2042ZM92.2042 374.5C94.0042 374.5 95.3776 374.027 96.3242 373.08C97.2709 372.12 97.7442 370.78 97.7442 369.06C97.7442 367.327 97.2642 365.973 96.3042 365C95.3576 364.027 93.9909 363.54 92.2042 363.54H89.6842V374.5H92.2042ZM106.345 362.06C107.865 362.06 109.178 362.347 110.285 362.92C111.405 363.48 112.258 364.287 112.845 365.34C113.445 366.393 113.745 367.633 113.745 369.06C113.745 370.487 113.445 371.727 112.845 372.78C112.258 373.82 111.405 374.62 110.285 375.18C109.178 375.727 107.865 376 106.345 376H102.005V362.06H106.345ZM106.345 374.5C108.145 374.5 109.518 374.027 110.465 373.08C111.412 372.12 111.885 370.78 111.885 369.06C111.885 367.327 111.405 365.973 110.445 365C109.498 364.027 108.132 363.54 106.345 363.54H103.825V374.5H106.345ZM122.945 357.16L117.465 379.4H115.665L121.125 357.16H122.945ZM139.797 362.16V376H137.977V365.68L133.377 376H132.097L127.477 365.66V376H125.657V362.16H127.617L132.737 373.6L137.857 362.16H139.797ZM157.024 362.16V376H155.204V365.68L150.604 376H149.324L144.704 365.66V376H142.884V362.16H144.844L149.964 373.6L155.084 362.16H157.024ZM166.91 357.16L161.43 379.4H159.63L165.09 357.16H166.91ZM177.862 372.9H171.782L170.662 376H168.742L173.782 362.14H175.882L180.902 376H178.982L177.862 372.9ZM177.342 371.42L174.822 364.38L172.302 371.42H177.342ZM191.339 372.9H185.259L184.139 376H182.219L187.259 362.14H189.359L194.379 376H192.459L191.339 372.9ZM190.819 371.42L188.299 364.38L185.779 371.42H190.819ZM204.815 372.9H198.735L197.615 376H195.695L200.735 362.14H202.835L207.855 376H205.935L204.815 372.9ZM204.295 371.42L201.775 364.38L199.255 371.42H204.295ZM218.292 372.9H212.212L211.092 376H209.172L214.212 362.14H216.312L221.332 376H219.412L218.292 372.9ZM217.772 371.42L215.252 364.38L212.732 371.42H217.772Z" fill="black" fill-opacity="0.7"/>
<rect x="29" y="762" width="336" height="47" rx="14" fill="black"/>
<path d="M160.095 790.52H154.855L154.015 793H150.435L155.515 778.96H159.475L164.555 793H160.935L160.095 790.52ZM159.215 787.88L157.475 782.74L155.755 787.88H159.215ZM172.321 790.1V793H170.581C169.341 793 168.375 792.7 167.681 792.1C166.988 791.487 166.641 790.493 166.641 789.12V784.68H165.281V781.84H166.641V779.12H170.061V781.84H172.301V784.68H170.061V789.16C170.061 789.493 170.141 789.733 170.301 789.88C170.461 790.027 170.728 790.1 171.101 790.1H172.321ZM185.246 781.84V793H181.826V791.48C181.48 791.973 181.006 792.373 180.406 792.68C179.82 792.973 179.166 793.12 178.446 793.12C177.593 793.12 176.84 792.933 176.186 792.56C175.533 792.173 175.026 791.62 174.666 790.9C174.306 790.18 174.126 789.333 174.126 788.36V781.84H177.526V787.9C177.526 788.647 177.72 789.227 178.106 789.64C178.493 790.053 179.013 790.26 179.666 790.26C180.333 790.26 180.86 790.053 181.246 789.64C181.633 789.227 181.826 788.647 181.826 787.9V781.84H185.246ZM187.023 787.4C187.023 786.253 187.236 785.247 187.663 784.38C188.103 783.513 188.696 782.847 189.443 782.38C190.19 781.913 191.023 781.68 191.943 781.68C192.73 781.68 193.416 781.84 194.003 782.16C194.603 782.48 195.063 782.9 195.383 783.42V781.84H198.803V793H195.383V791.42C195.05 791.94 194.583 792.36 193.983 792.68C193.396 793 192.71 793.16 191.923 793.16C191.016 793.16 190.19 792.927 189.443 792.46C188.696 791.98 188.103 791.307 187.663 790.44C187.236 789.56 187.023 788.547 187.023 787.4ZM195.383 787.42C195.383 786.567 195.143 785.893 194.663 785.4C194.196 784.907 193.623 784.66 192.943 784.66C192.263 784.66 191.683 784.907 191.203 785.4C190.736 785.88 190.503 786.547 190.503 787.4C190.503 788.253 190.736 788.933 191.203 789.44C191.683 789.933 192.263 790.18 192.943 790.18C193.623 790.18 194.196 789.933 194.663 789.44C195.143 788.947 195.383 788.273 195.383 787.42ZM204.697 778.2V793H201.277V778.2H204.697ZM208.896 780.68C208.296 780.68 207.802 780.507 207.416 780.16C207.042 779.8 206.856 779.36 206.856 778.84C206.856 778.307 207.042 777.867 207.416 777.52C207.802 777.16 208.296 776.98 208.896 776.98C209.482 776.98 209.962 777.16 210.336 777.52C210.722 777.867 210.916 778.307 210.916 778.84C210.916 779.36 210.722 779.8 210.336 780.16C209.962 780.507 209.482 780.68 208.896 780.68ZM210.596 781.84V793H207.176V781.84H210.596ZM216.274 790.18H221.114V793H212.454V790.28L217.094 784.66H212.494V781.84H221.014V784.56L216.274 790.18ZM222.316 787.4C222.316 786.253 222.529 785.247 222.956 784.38C223.396 783.513 223.989 782.847 224.736 782.38C225.483 781.913 226.316 781.68 227.236 781.68C228.023 781.68 228.709 781.84 229.296 782.16C229.896 782.48 230.356 782.9 230.676 783.42V781.84H234.096V793H230.676V791.42C230.343 791.94 229.876 792.36 229.276 792.68C228.689 793 228.003 793.16 227.216 793.16C226.309 793.16 225.483 792.927 224.736 792.46C223.989 791.98 223.396 791.307 222.956 790.44C222.529 789.56 222.316 788.547 222.316 787.4ZM230.676 787.42C230.676 786.567 230.436 785.893 229.956 785.4C229.489 784.907 228.916 784.66 228.236 784.66C227.556 784.66 226.976 784.907 226.496 785.4C226.029 785.88 225.796 786.547 225.796 787.4C225.796 788.253 226.029 788.933 226.496 789.44C226.976 789.933 227.556 790.18 228.236 790.18C228.916 790.18 229.489 789.933 229.956 789.44C230.436 788.947 230.676 788.273 230.676 787.42ZM239.99 783.7C240.39 783.087 240.89 782.607 241.49 782.26C242.09 781.9 242.757 781.72 243.49 781.72V785.34H242.55C241.697 785.34 241.057 785.527 240.63 785.9C240.203 786.26 239.99 786.9 239.99 787.82V793H236.57V781.84H239.99V783.7Z" fill="white"/>
<path d="M341 78V79H336V81H337V94C337 94.5304 337.211 95.0391 337.586 95.4142C337.961 95.7893 338.47 96 339 96H349C349.53 96 350.039 95.7893 350.414 95.4142C350.789 95.0391 351 94.5304 351 94V81H352V79H347V78H341ZM339 81H349V94H339V81ZM341 83V92H343V83H341ZM345 83V92H347V83H345Z" fill="#FF0000"/>
</g>
<rect opacity="0.26" x="-26" y="-47" width="508" height="899" fill="black"/>
<rect x="64" y="329" width="265" height="194" rx="21" fill="white"/>
<path d="M142.025 355.96V358.232H145.689V360.344H142.025V362.808H146.169V365H139.289V353.768H146.169V355.96H142.025ZM153.225 365L151.513 362.52L150.073 365H147.113L150.057 360.44L147.033 356.072H150.105L151.817 358.536L153.257 356.072H156.217L153.225 360.568L156.297 365H153.225ZM156.807 360.536C156.807 359.608 156.994 358.797 157.367 358.104C157.751 357.411 158.279 356.877 158.951 356.504C159.634 356.131 160.413 355.944 161.287 355.944C162.407 355.944 163.341 356.237 164.087 356.824C164.845 357.411 165.341 358.237 165.575 359.304H162.663C162.418 358.621 161.943 358.28 161.239 358.28C160.738 358.28 160.338 358.477 160.039 358.872C159.741 359.256 159.591 359.811 159.591 360.536C159.591 361.261 159.741 361.821 160.039 362.216C160.338 362.6 160.738 362.792 161.239 362.792C161.943 362.792 162.418 362.451 162.663 361.768H165.575C165.341 362.813 164.845 363.635 164.087 364.232C163.33 364.829 162.397 365.128 161.287 365.128C160.413 365.128 159.634 364.941 158.951 364.568C158.279 364.195 157.751 363.661 157.367 362.968C156.994 362.275 156.807 361.464 156.807 360.536ZM169.775 353.16V365H167.039V353.16H169.775ZM180.574 356.072V365H177.838V363.784C177.56 364.179 177.182 364.499 176.702 364.744C176.232 364.979 175.71 365.096 175.134 365.096C174.451 365.096 173.848 364.947 173.326 364.648C172.803 364.339 172.398 363.896 172.11 363.32C171.822 362.744 171.678 362.067 171.678 361.288V356.072H174.398V360.92C174.398 361.517 174.552 361.981 174.862 362.312C175.171 362.643 175.587 362.808 176.11 362.808C176.643 362.808 177.064 362.643 177.374 362.312C177.683 361.981 177.838 361.517 177.838 360.92V356.072H180.574ZM183.915 355.144C183.435 355.144 183.04 355.005 182.731 354.728C182.432 354.44 182.283 354.088 182.283 353.672C182.283 353.245 182.432 352.893 182.731 352.616C183.04 352.328 183.435 352.184 183.915 352.184C184.384 352.184 184.768 352.328 185.067 352.616C185.376 352.893 185.531 353.245 185.531 353.672C185.531 354.088 185.376 354.44 185.067 354.728C184.768 355.005 184.384 355.144 183.915 355.144ZM185.275 356.072V365H182.539V356.072H185.275ZM189.994 357.56C190.314 357.069 190.714 356.685 191.194 356.408C191.674 356.12 192.207 355.976 192.794 355.976V358.872H192.042C191.359 358.872 190.847 359.021 190.506 359.32C190.164 359.608 189.994 360.12 189.994 360.856V365H187.258V356.072H189.994V357.56ZM205.908 360.392C205.908 360.648 205.892 360.915 205.86 361.192H199.668C199.711 361.747 199.887 362.173 200.196 362.472C200.516 362.76 200.905 362.904 201.364 362.904C202.047 362.904 202.521 362.616 202.788 362.04H205.7C205.551 362.627 205.279 363.155 204.884 363.624C204.5 364.093 204.015 364.461 203.428 364.728C202.841 364.995 202.185 365.128 201.46 365.128C200.585 365.128 199.807 364.941 199.124 364.568C198.441 364.195 197.908 363.661 197.524 362.968C197.14 362.275 196.948 361.464 196.948 360.536C196.948 359.608 197.135 358.797 197.508 358.104C197.892 357.411 198.425 356.877 199.108 356.504C199.791 356.131 200.575 355.944 201.46 355.944C202.324 355.944 203.092 356.125 203.764 356.488C204.436 356.851 204.959 357.368 205.332 358.04C205.716 358.712 205.908 359.496 205.908 360.392ZM203.108 359.672C203.108 359.203 202.948 358.829 202.628 358.552C202.308 358.275 201.908 358.136 201.428 358.136C200.969 358.136 200.58 358.269 200.26 358.536C199.951 358.803 199.759 359.181 199.684 359.672H203.108ZM211.367 362.44L213.303 356.072H216.215L213.047 365H209.671L206.503 356.072H209.431L211.367 362.44ZM225.783 360.392C225.783 360.648 225.767 360.915 225.735 361.192H219.543C219.586 361.747 219.762 362.173 220.071 362.472C220.391 362.76 220.78 362.904 221.239 362.904C221.922 362.904 222.396 362.616 222.663 362.04H225.575C225.426 362.627 225.154 363.155 224.759 363.624C224.375 364.093 223.89 364.461 223.303 364.728C222.716 364.995 222.06 365.128 221.335 365.128C220.46 365.128 219.682 364.941 218.999 364.568C218.316 364.195 217.783 363.661 217.399 362.968C217.015 362.275 216.823 361.464 216.823 360.536C216.823 359.608 217.01 358.797 217.383 358.104C217.767 357.411 218.3 356.877 218.983 356.504C219.666 356.131 220.45 355.944 221.335 355.944C222.199 355.944 222.967 356.125 223.639 356.488C224.311 356.851 224.834 357.368 225.207 358.04C225.591 358.712 225.783 359.496 225.783 360.392ZM222.983 359.672C222.983 359.203 222.823 358.829 222.503 358.552C222.183 358.275 221.783 358.136 221.303 358.136C220.844 358.136 220.455 358.269 220.135 358.536C219.826 358.803 219.634 359.181 219.559 359.672H222.983ZM232.666 355.976C233.712 355.976 234.544 356.317 235.162 357C235.792 357.672 236.106 358.6 236.106 359.784V365H233.386V360.152C233.386 359.555 233.232 359.091 232.922 358.76C232.613 358.429 232.197 358.264 231.674 358.264C231.152 358.264 230.736 358.429 230.426 358.76C230.117 359.091 229.962 359.555 229.962 360.152V365H227.226V356.072H229.962V357.256C230.24 356.861 230.613 356.552 231.082 356.328C231.552 356.093 232.08 355.976 232.666 355.976ZM242.984 362.68V365H241.592C240.6 365 239.826 364.76 239.272 364.28C238.717 363.789 238.44 362.995 238.44 361.896V358.344H237.352V356.072H238.44V353.896H241.176V356.072H242.968V358.344H241.176V361.928C241.176 362.195 241.24 362.387 241.368 362.504C241.496 362.621 241.709 362.68 242.008 362.68H242.984ZM248.572 365.128C247.697 365.128 246.908 364.941 246.204 364.568C245.51 364.195 244.961 363.661 244.556 362.968C244.161 362.275 243.964 361.464 243.964 360.536C243.964 359.619 244.166 358.813 244.572 358.12C244.977 357.416 245.532 356.877 246.236 356.504C246.94 356.131 247.729 355.944 248.604 355.944C249.478 355.944 250.268 356.131 250.972 356.504C251.676 356.877 252.23 357.416 252.636 358.12C253.041 358.813 253.244 359.619 253.244 360.536C253.244 361.453 253.036 362.264 252.62 362.968C252.214 363.661 251.654 364.195 250.94 364.568C250.236 364.941 249.446 365.128 248.572 365.128ZM248.572 362.76C249.094 362.76 249.537 362.568 249.9 362.184C250.273 361.8 250.46 361.251 250.46 360.536C250.46 359.821 250.278 359.272 249.916 358.888C249.564 358.504 249.126 358.312 248.604 358.312C248.07 358.312 247.628 358.504 247.276 358.888C246.924 359.261 246.748 359.811 246.748 360.536C246.748 361.251 246.918 361.8 247.26 362.184C247.612 362.568 248.049 362.76 248.572 362.76Z" fill="black"/>
<path d="M98.6686 479.368C98.6686 478.259 98.9086 477.272 99.3886 476.408C99.8686 475.533 100.535 474.856 101.389 474.376C102.253 473.885 103.229 473.64 104.317 473.64C105.65 473.64 106.791 473.992 107.741 474.696C108.69 475.4 109.325 476.36 109.645 477.576H106.637C106.413 477.107 106.093 476.749 105.677 476.504C105.271 476.259 104.807 476.136 104.285 476.136C103.442 476.136 102.759 476.429 102.237 477.016C101.714 477.603 101.453 478.387 101.453 479.368C101.453 480.349 101.714 481.133 102.237 481.72C102.759 482.307 103.442 482.6 104.285 482.6C104.807 482.6 105.271 482.477 105.677 482.232C106.093 481.987 106.413 481.629 106.637 481.16H109.645C109.325 482.376 108.69 483.336 107.741 484.04C106.791 484.733 105.65 485.08 104.317 485.08C103.229 485.08 102.253 484.84 101.389 484.36C100.535 483.869 99.8686 483.192 99.3886 482.328C98.9086 481.464 98.6686 480.477 98.6686 479.368ZM118.312 483.016H114.12L113.448 485H110.584L114.648 473.768H117.816L121.88 485H118.984L118.312 483.016ZM117.608 480.904L116.216 476.792L114.84 480.904H117.608ZM133.165 485H130.429L125.853 478.072V485H123.117V473.768H125.853L130.429 480.728V473.768H133.165V485ZM134.684 479.368C134.684 478.259 134.924 477.272 135.404 476.408C135.884 475.533 136.551 474.856 137.404 474.376C138.268 473.885 139.244 473.64 140.332 473.64C141.666 473.64 142.807 473.992 143.756 474.696C144.706 475.4 145.34 476.36 145.66 477.576H142.652C142.428 477.107 142.108 476.749 141.692 476.504C141.287 476.259 140.823 476.136 140.3 476.136C139.458 476.136 138.775 476.429 138.252 477.016C137.73 477.603 137.468 478.387 137.468 479.368C137.468 480.349 137.73 481.133 138.252 481.72C138.775 482.307 139.458 482.6 140.3 482.6C140.823 482.6 141.287 482.477 141.692 482.232C142.108 481.987 142.428 481.629 142.652 481.16H145.66C145.34 482.376 144.706 483.336 143.756 484.04C142.807 484.733 141.666 485.08 140.332 485.08C139.244 485.08 138.268 484.84 137.404 484.36C136.551 483.869 135.884 483.192 135.404 482.328C134.924 481.464 134.684 480.477 134.684 479.368ZM150.072 475.96V478.232H153.736V480.344H150.072V482.808H154.216V485H147.336V473.768H154.216V475.96H150.072ZM158.728 482.888H162.312V485H155.992V473.768H158.728V482.888ZM170.609 483.016H166.417L165.745 485H162.881L166.945 473.768H170.113L174.177 485H171.281L170.609 483.016ZM169.905 480.904L168.513 476.792L167.137 480.904H169.905ZM181.142 485L178.806 480.76H178.15V485H175.414V473.768H180.006C180.891 473.768 181.643 473.923 182.262 474.232C182.891 474.541 183.361 474.968 183.67 475.512C183.979 476.045 184.134 476.643 184.134 477.304C184.134 478.051 183.921 478.717 183.494 479.304C183.078 479.891 182.459 480.307 181.638 480.552L184.23 485H181.142ZM178.15 478.824H179.846C180.347 478.824 180.721 478.701 180.966 478.456C181.222 478.211 181.35 477.864 181.35 477.416C181.35 476.989 181.222 476.653 180.966 476.408C180.721 476.163 180.347 476.04 179.846 476.04H178.15V478.824Z" fill="black"/>
<path d="M238.056 475.96V478.232H241.72V480.344H238.056V482.808H242.2V485H235.32V473.768H242.2V475.96H238.056ZM250.856 485L248.568 481.56L246.552 485H243.448L247.048 479.288L243.368 473.768H246.552L248.808 477.16L250.792 473.768H253.896L250.328 479.432L254.04 485H250.856ZM254.95 479.368C254.95 478.259 255.19 477.272 255.67 476.408C256.15 475.533 256.817 474.856 257.67 474.376C258.534 473.885 259.51 473.64 260.598 473.64C261.931 473.64 263.073 473.992 264.022 474.696C264.971 475.4 265.606 476.36 265.926 477.576H262.918C262.694 477.107 262.374 476.749 261.958 476.504C261.553 476.259 261.089 476.136 260.566 476.136C259.723 476.136 259.041 476.429 258.518 477.016C257.995 477.603 257.734 478.387 257.734 479.368C257.734 480.349 257.995 481.133 258.518 481.72C259.041 482.307 259.723 482.6 260.566 482.6C261.089 482.6 261.553 482.477 261.958 482.232C262.374 481.987 262.694 481.629 262.918 481.16H265.926C265.606 482.376 264.971 483.336 264.022 484.04C263.073 484.733 261.931 485.08 260.598 485.08C259.51 485.08 258.534 484.84 257.67 484.36C256.817 483.869 256.15 483.192 255.67 482.328C255.19 481.464 254.95 480.477 254.95 479.368ZM270.337 482.888H273.921V485H267.601V473.768H270.337V482.888ZM277.914 473.768V480.488C277.914 481.16 278.08 481.677 278.41 482.04C278.741 482.403 279.226 482.584 279.866 482.584C280.506 482.584 280.997 482.403 281.338 482.04C281.68 481.677 281.85 481.16 281.85 480.488V473.768H284.586V480.472C284.586 481.475 284.373 482.323 283.946 483.016C283.52 483.709 282.944 484.232 282.218 484.584C281.504 484.936 280.704 485.112 279.818 485.112C278.933 485.112 278.138 484.941 277.434 484.6C276.741 484.248 276.192 483.725 275.786 483.032C275.381 482.328 275.178 481.475 275.178 480.472V473.768H277.914ZM289.244 473.768V485H286.508V473.768H289.244ZM296.954 485L294.618 480.76H293.962V485H291.226V473.768H295.818C296.704 473.768 297.456 473.923 298.074 474.232C298.704 474.541 299.173 474.968 299.482 475.512C299.792 476.045 299.946 476.643 299.946 477.304C299.946 478.051 299.733 478.717 299.306 479.304C298.89 479.891 298.272 480.307 297.45 480.552L300.042 485H296.954ZM293.962 478.824H295.658C296.16 478.824 296.533 478.701 296.778 478.456C297.034 478.211 297.162 477.864 297.162 477.416C297.162 476.989 297.034 476.653 296.778 476.408C296.533 476.163 296.16 476.04 295.658 476.04H293.962V478.824Z" fill="black"/>
<path d="M94.52 392.655V396.15H98.33V397.275H94.52V400.875H98.78V402H93.155V391.53H98.78V392.655H94.52ZM103.755 402.135C103.125 402.135 102.56 402.03 102.06 401.82C101.56 401.6 101.165 401.3 100.875 400.92C100.585 400.53 100.425 400.085 100.395 399.585H101.805C101.845 399.995 102.035 400.33 102.375 400.59C102.725 400.85 103.18 400.98 103.74 400.98C104.26 400.98 104.67 400.865 104.97 400.635C105.27 400.405 105.42 400.115 105.42 399.765C105.42 399.405 105.26 399.14 104.94 398.97C104.62 398.79 104.125 398.615 103.455 398.445C102.845 398.285 102.345 398.125 101.955 397.965C101.575 397.795 101.245 397.55 100.965 397.23C100.695 396.9 100.56 396.47 100.56 395.94C100.56 395.52 100.685 395.135 100.935 394.785C101.185 394.435 101.54 394.16 102 393.96C102.46 393.75 102.985 393.645 103.575 393.645C104.485 393.645 105.22 393.875 105.78 394.335C106.34 394.795 106.64 395.425 106.68 396.225H105.315C105.285 395.795 105.11 395.45 104.79 395.19C104.48 394.93 104.06 394.8 103.53 394.8C103.04 394.8 102.65 394.905 102.36 395.115C102.07 395.325 101.925 395.6 101.925 395.94C101.925 396.21 102.01 396.435 102.18 396.615C102.36 396.785 102.58 396.925 102.84 397.035C103.11 397.135 103.48 397.25 103.95 397.38C104.54 397.54 105.02 397.7 105.39 397.86C105.76 398.01 106.075 398.24 106.335 398.55C106.605 398.86 106.745 399.265 106.755 399.765C106.755 400.215 106.63 400.62 106.38 400.98C106.13 401.34 105.775 401.625 105.315 401.835C104.865 402.035 104.345 402.135 103.755 402.135ZM111.592 402.135C110.962 402.135 110.397 402.03 109.897 401.82C109.397 401.6 109.002 401.3 108.712 400.92C108.422 400.53 108.262 400.085 108.232 399.585H109.642C109.682 399.995 109.872 400.33 110.212 400.59C110.562 400.85 111.017 400.98 111.577 400.98C112.097 400.98 112.507 400.865 112.807 400.635C113.107 400.405 113.257 400.115 113.257 399.765C113.257 399.405 113.097 399.14 112.777 398.97C112.457 398.79 111.962 398.615 111.292 398.445C110.682 398.285 110.182 398.125 109.792 397.965C109.412 397.795 109.082 397.55 108.802 397.23C108.532 396.9 108.397 396.47 108.397 395.94C108.397 395.52 108.522 395.135 108.772 394.785C109.022 394.435 109.377 394.16 109.837 393.96C110.297 393.75 110.822 393.645 111.412 393.645C112.322 393.645 113.057 393.875 113.617 394.335C114.177 394.795 114.477 395.425 114.517 396.225H113.152C113.122 395.795 112.947 395.45 112.627 395.19C112.317 394.93 111.897 394.8 111.367 394.8C110.877 394.8 110.487 394.905 110.197 395.115C109.907 395.325 109.762 395.6 109.762 395.94C109.762 396.21 109.847 396.435 110.017 396.615C110.197 396.785 110.417 396.925 110.677 397.035C110.947 397.135 111.317 397.25 111.787 397.38C112.377 397.54 112.857 397.7 113.227 397.86C113.597 398.01 113.912 398.24 114.172 398.55C114.442 398.86 114.582 399.265 114.592 399.765C114.592 400.215 114.467 400.62 114.217 400.98C113.967 401.34 113.612 401.625 113.152 401.835C112.702 402.035 112.182 402.135 111.592 402.135ZM116.009 397.86C116.009 397.02 116.179 396.285 116.519 395.655C116.859 395.015 117.324 394.52 117.914 394.17C118.514 393.82 119.179 393.645 119.909 393.645C120.629 393.645 121.254 393.8 121.784 394.11C122.314 394.42 122.709 394.81 122.969 395.28V393.78H124.349V402H122.969V400.47C122.699 400.95 122.294 401.35 121.754 401.67C121.224 401.98 120.604 402.135 119.894 402.135C119.164 402.135 118.504 401.955 117.914 401.595C117.324 401.235 116.859 400.73 116.519 400.08C116.179 399.43 116.009 398.69 116.009 397.86ZM122.969 397.875C122.969 397.255 122.844 396.715 122.594 396.255C122.344 395.795 122.004 395.445 121.574 395.205C121.154 394.955 120.689 394.83 120.179 394.83C119.669 394.83 119.204 394.95 118.784 395.19C118.364 395.43 118.029 395.78 117.779 396.24C117.529 396.7 117.404 397.24 117.404 397.86C117.404 398.49 117.529 399.04 117.779 399.51C118.029 399.97 118.364 400.325 118.784 400.575C119.204 400.815 119.669 400.935 120.179 400.935C120.689 400.935 121.154 400.815 121.574 400.575C122.004 400.325 122.344 399.97 122.594 399.51C122.844 399.04 122.969 398.495 122.969 397.875ZM130.145 397.86C130.145 397.02 130.315 396.285 130.655 395.655C130.995 395.015 131.46 394.52 132.05 394.17C132.65 393.82 133.315 393.645 134.045 393.645C134.765 393.645 135.39 393.8 135.92 394.11C136.45 394.42 136.845 394.81 137.105 395.28V393.78H138.485V402H137.105V400.47C136.835 400.95 136.43 401.35 135.89 401.67C135.36 401.98 134.74 402.135 134.03 402.135C133.3 402.135 132.64 401.955 132.05 401.595C131.46 401.235 130.995 400.73 130.655 400.08C130.315 399.43 130.145 398.69 130.145 397.86ZM137.105 397.875C137.105 397.255 136.98 396.715 136.73 396.255C136.48 395.795 136.14 395.445 135.71 395.205C135.29 394.955 134.825 394.83 134.315 394.83C133.805 394.83 133.34 394.95 132.92 395.19C132.5 395.43 132.165 395.78 131.915 396.24C131.665 396.7 131.54 397.24 131.54 397.86C131.54 398.49 131.665 399.04 131.915 399.51C132.165 399.97 132.5 400.325 132.92 400.575C133.34 400.815 133.805 400.935 134.315 400.935C134.825 400.935 135.29 400.815 135.71 400.575C136.14 400.325 136.48 399.97 136.73 399.51C136.98 399.04 137.105 398.495 137.105 397.875ZM144.287 400.98C144.887 400.98 145.387 400.84 145.787 400.56C146.187 400.28 146.462 399.88 146.612 399.36H148.082C147.882 400.14 147.487 400.78 146.897 401.28C146.317 401.77 145.587 402.05 144.707 402.12V402.87C145.297 402.86 145.767 402.985 146.117 403.245C146.467 403.505 146.642 403.875 146.642 404.355C146.642 404.825 146.472 405.2 146.132 405.48C145.792 405.76 145.352 405.9 144.812 405.9H143.087V405.015H144.542C144.872 405.015 145.112 404.965 145.262 404.865C145.422 404.765 145.502 404.595 145.502 404.355C145.502 404.125 145.422 403.96 145.262 403.86C145.112 403.76 144.872 403.71 144.542 403.71H143.792V402.105C143.102 402.035 142.492 401.82 141.962 401.46C141.432 401.09 141.017 400.6 140.717 399.99C140.427 399.37 140.282 398.665 140.282 397.875C140.282 397.025 140.452 396.285 140.792 395.655C141.132 395.015 141.602 394.52 142.202 394.17C142.812 393.82 143.507 393.645 144.287 393.645C145.297 393.645 146.127 393.89 146.777 394.38C147.437 394.87 147.872 395.55 148.082 396.42H146.612C146.472 395.92 146.197 395.525 145.787 395.235C145.387 394.945 144.887 394.8 144.287 394.8C143.507 394.8 142.877 395.07 142.397 395.61C141.917 396.14 141.677 396.895 141.677 397.875C141.677 398.865 141.917 399.63 142.397 400.17C142.877 400.71 143.507 400.98 144.287 400.98ZM149.393 397.86C149.393 397.02 149.563 396.285 149.903 395.655C150.243 395.015 150.708 394.52 151.298 394.17C151.898 393.82 152.563 393.645 153.293 393.645C154.013 393.645 154.638 393.8 155.168 394.11C155.698 394.42 156.093 394.81 156.353 395.28V393.78H157.733V402H156.353V400.47C156.083 400.95 155.678 401.35 155.138 401.67C154.608 401.98 153.988 402.135 153.278 402.135C152.548 402.135 151.888 401.955 151.298 401.595C150.708 401.235 150.243 400.73 149.903 400.08C149.563 399.43 149.393 398.69 149.393 397.86ZM156.353 397.875C156.353 397.255 156.228 396.715 155.978 396.255C155.728 395.795 155.388 395.445 154.958 395.205C154.538 394.955 154.073 394.83 153.563 394.83C153.053 394.83 152.588 394.95 152.168 395.19C151.748 395.43 151.413 395.78 151.163 396.24C150.913 396.7 150.788 397.24 150.788 397.86C150.788 398.49 150.913 399.04 151.163 399.51C151.413 399.97 151.748 400.325 152.168 400.575C152.588 400.815 153.053 400.935 153.563 400.935C154.073 400.935 154.538 400.815 154.958 400.575C155.388 400.325 155.728 399.97 155.978 399.51C156.228 399.04 156.353 398.495 156.353 397.875ZM151.628 392.895C151.698 392.385 151.863 391.995 152.123 391.725C152.393 391.455 152.728 391.32 153.128 391.32C153.318 391.32 153.478 391.355 153.608 391.425C153.748 391.485 153.913 391.575 154.103 391.695C154.243 391.795 154.368 391.875 154.478 391.935C154.588 391.985 154.708 392.01 154.838 392.01C155.008 392.01 155.153 391.955 155.273 391.845C155.393 391.735 155.468 391.575 155.498 391.365H156.278C156.218 391.865 156.053 392.25 155.783 392.52C155.513 392.79 155.178 392.925 154.778 392.925C154.588 392.925 154.418 392.895 154.268 392.835C154.128 392.765 153.968 392.665 153.788 392.535C153.628 392.435 153.498 392.36 153.398 392.31C153.308 392.26 153.198 392.235 153.068 392.235C152.898 392.235 152.753 392.29 152.633 392.4C152.523 392.51 152.453 392.675 152.423 392.895H151.628ZM163.625 402.135C162.855 402.135 162.155 401.96 161.525 401.61C160.905 401.26 160.415 400.765 160.055 400.125C159.705 399.475 159.53 398.725 159.53 397.875C159.53 397.035 159.71 396.295 160.07 395.655C160.44 395.005 160.94 394.51 161.57 394.17C162.2 393.82 162.905 393.645 163.685 393.645C164.465 393.645 165.17 393.82 165.8 394.17C166.43 394.51 166.925 395 167.285 395.64C167.655 396.28 167.84 397.025 167.84 397.875C167.84 398.725 167.65 399.475 167.27 400.125C166.9 400.765 166.395 401.26 165.755 401.61C165.115 401.96 164.405 402.135 163.625 402.135ZM163.625 400.935C164.115 400.935 164.575 400.82 165.005 400.59C165.435 400.36 165.78 400.015 166.04 399.555C166.31 399.095 166.445 398.535 166.445 397.875C166.445 397.215 166.315 396.655 166.055 396.195C165.795 395.735 165.455 395.395 165.035 395.175C164.615 394.945 164.16 394.83 163.67 394.83C163.17 394.83 162.71 394.945 162.29 395.175C161.88 395.395 161.55 395.735 161.3 396.195C161.05 396.655 160.925 397.215 160.925 397.875C160.925 398.545 161.045 399.11 161.285 399.57C161.535 400.03 161.865 400.375 162.275 400.605C162.685 400.825 163.135 400.935 163.625 400.935ZM177.639 393.63C178.639 393.63 179.449 393.935 180.069 394.545C180.689 395.145 180.999 396.015 180.999 397.155V402H179.649V397.35C179.649 396.53 179.444 395.905 179.034 395.475C178.624 395.035 178.064 394.815 177.354 394.815C176.634 394.815 176.059 395.04 175.629 395.49C175.209 395.94 174.999 396.595 174.999 397.455V402H173.634V393.78H174.999V394.95C175.269 394.53 175.634 394.205 176.094 393.975C176.564 393.745 177.079 393.63 177.639 393.63ZM182.718 397.86C182.718 397.02 182.888 396.285 183.228 395.655C183.568 395.015 184.033 394.52 184.623 394.17C185.223 393.82 185.888 393.645 186.618 393.645C187.338 393.645 187.963 393.8 188.493 394.11C189.023 394.42 189.418 394.81 189.678 395.28V393.78H191.058V402H189.678V400.47C189.408 400.95 189.003 401.35 188.463 401.67C187.933 401.98 187.313 402.135 186.603 402.135C185.873 402.135 185.213 401.955 184.623 401.595C184.033 401.235 183.568 400.73 183.228 400.08C182.888 399.43 182.718 398.69 182.718 397.86ZM189.678 397.875C189.678 397.255 189.553 396.715 189.303 396.255C189.053 395.795 188.713 395.445 188.283 395.205C187.863 394.955 187.398 394.83 186.888 394.83C186.378 394.83 185.913 394.95 185.493 395.19C185.073 395.43 184.738 395.78 184.488 396.24C184.238 396.7 184.113 397.24 184.113 397.86C184.113 398.49 184.238 399.04 184.488 399.51C184.738 399.97 185.073 400.325 185.493 400.575C185.913 400.815 186.378 400.935 186.888 400.935C187.398 400.935 187.863 400.815 188.283 400.575C188.713 400.325 189.053 399.97 189.303 399.51C189.553 399.04 189.678 398.495 189.678 397.875ZM184.953 392.895C185.023 392.385 185.188 391.995 185.448 391.725C185.718 391.455 186.053 391.32 186.453 391.32C186.643 391.32 186.803 391.355 186.933 391.425C187.073 391.485 187.238 391.575 187.428 391.695C187.568 391.795 187.693 391.875 187.803 391.935C187.913 391.985 188.033 392.01 188.163 392.01C188.333 392.01 188.478 391.955 188.598 391.845C188.718 391.735 188.793 391.575 188.823 391.365H189.603C189.543 391.865 189.378 392.25 189.108 392.52C188.838 392.79 188.503 392.925 188.103 392.925C187.913 392.925 187.743 392.895 187.593 392.835C187.453 392.765 187.293 392.665 187.113 392.535C186.953 392.435 186.823 392.36 186.723 392.31C186.633 392.26 186.523 392.235 186.393 392.235C186.223 392.235 186.078 392.29 185.958 392.4C185.848 392.51 185.778 392.675 185.748 392.895H184.953ZM196.95 402.135C196.18 402.135 195.48 401.96 194.85 401.61C194.23 401.26 193.74 400.765 193.38 400.125C193.03 399.475 192.855 398.725 192.855 397.875C192.855 397.035 193.035 396.295 193.395 395.655C193.765 395.005 194.265 394.51 194.895 394.17C195.525 393.82 196.23 393.645 197.01 393.645C197.79 393.645 198.495 393.82 199.125 394.17C199.755 394.51 200.25 395 200.61 395.64C200.98 396.28 201.165 397.025 201.165 397.875C201.165 398.725 200.975 399.475 200.595 400.125C200.225 400.765 199.72 401.26 199.08 401.61C198.44 401.96 197.73 402.135 196.95 402.135ZM196.95 400.935C197.44 400.935 197.9 400.82 198.33 400.59C198.76 400.36 199.105 400.015 199.365 399.555C199.635 399.095 199.77 398.535 199.77 397.875C199.77 397.215 199.64 396.655 199.38 396.195C199.12 395.735 198.78 395.395 198.36 395.175C197.94 394.945 197.485 394.83 196.995 394.83C196.495 394.83 196.035 394.945 195.615 395.175C195.205 395.395 194.875 395.735 194.625 396.195C194.375 396.655 194.25 397.215 194.25 397.875C194.25 398.545 194.37 399.11 194.61 399.57C194.86 400.03 195.19 400.375 195.6 400.605C196.01 400.825 196.46 400.935 196.95 400.935ZM208.324 395.295C208.594 394.825 208.994 394.435 209.524 394.125C210.064 393.805 210.689 393.645 211.399 393.645C212.129 393.645 212.789 393.82 213.379 394.17C213.979 394.52 214.449 395.015 214.789 395.655C215.129 396.285 215.299 397.02 215.299 397.86C215.299 398.69 215.129 399.43 214.789 400.08C214.449 400.73 213.979 401.235 213.379 401.595C212.789 401.955 212.129 402.135 211.399 402.135C210.699 402.135 210.079 401.98 209.539 401.67C209.009 401.35 208.604 400.955 208.324 400.485V405.9H206.959V393.78H208.324V395.295ZM213.904 397.86C213.904 397.24 213.779 396.7 213.529 396.24C213.279 395.78 212.939 395.43 212.509 395.19C212.089 394.95 211.624 394.83 211.114 394.83C210.614 394.83 210.149 394.955 209.719 395.205C209.299 395.445 208.959 395.8 208.699 396.27C208.449 396.73 208.324 397.265 208.324 397.875C208.324 398.495 208.449 399.04 208.699 399.51C208.959 399.97 209.299 400.325 209.719 400.575C210.149 400.815 210.614 400.935 211.114 400.935C211.624 400.935 212.089 400.815 212.509 400.575C212.939 400.325 213.279 399.97 213.529 399.51C213.779 399.04 213.904 398.49 213.904 397.86ZM220.68 402.135C219.91 402.135 219.21 401.96 218.58 401.61C217.96 401.26 217.47 400.765 217.11 400.125C216.76 399.475 216.585 398.725 216.585 397.875C216.585 397.035 216.765 396.295 217.125 395.655C217.495 395.005 217.995 394.51 218.625 394.17C219.255 393.82 219.96 393.645 220.74 393.645C221.52 393.645 222.225 393.82 222.855 394.17C223.485 394.51 223.98 395 224.34 395.64C224.71 396.28 224.895 397.025 224.895 397.875C224.895 398.725 224.705 399.475 224.325 400.125C223.955 400.765 223.45 401.26 222.81 401.61C222.17 401.96 221.46 402.135 220.68 402.135ZM220.68 400.935C221.17 400.935 221.63 400.82 222.06 400.59C222.49 400.36 222.835 400.015 223.095 399.555C223.365 399.095 223.5 398.535 223.5 397.875C223.5 397.215 223.37 396.655 223.11 396.195C222.85 395.735 222.51 395.395 222.09 395.175C221.67 394.945 221.215 394.83 220.725 394.83C220.225 394.83 219.765 394.945 219.345 395.175C218.935 395.395 218.605 395.735 218.355 396.195C218.105 396.655 217.98 397.215 217.98 397.875C217.98 398.545 218.1 399.11 218.34 399.57C218.59 400.03 218.92 400.375 219.33 400.605C219.74 400.825 220.19 400.935 220.68 400.935ZM226.18 397.86C226.18 397.02 226.35 396.285 226.69 395.655C227.03 395.015 227.495 394.52 228.085 394.17C228.685 393.82 229.355 393.645 230.095 393.645C230.735 393.645 231.33 393.795 231.88 394.095C232.43 394.385 232.85 394.77 233.14 395.25V390.9H234.52V402H233.14V400.455C232.87 400.945 232.47 401.35 231.94 401.67C231.41 401.98 230.79 402.135 230.08 402.135C229.35 402.135 228.685 401.955 228.085 401.595C227.495 401.235 227.03 400.73 226.69 400.08C226.35 399.43 226.18 398.69 226.18 397.86ZM233.14 397.875C233.14 397.255 233.015 396.715 232.765 396.255C232.515 395.795 232.175 395.445 231.745 395.205C231.325 394.955 230.86 394.83 230.35 394.83C229.84 394.83 229.375 394.95 228.955 395.19C228.535 395.43 228.2 395.78 227.95 396.24C227.7 396.7 227.575 397.24 227.575 397.86C227.575 398.49 227.7 399.04 227.95 399.51C228.2 399.97 228.535 400.325 228.955 400.575C229.375 400.815 229.84 400.935 230.35 400.935C230.86 400.935 231.325 400.815 231.745 400.575C232.175 400.325 232.515 399.97 232.765 399.51C233.015 399.04 233.14 398.495 233.14 397.875ZM244.327 397.575C244.327 397.835 244.312 398.11 244.282 398.4H237.712C237.762 399.21 238.037 399.845 238.537 400.305C239.047 400.755 239.662 400.98 240.382 400.98C240.972 400.98 241.462 400.845 241.852 400.575C242.252 400.295 242.532 399.925 242.692 399.465H244.162C243.942 400.255 243.502 400.9 242.842 401.4C242.182 401.89 241.362 402.135 240.382 402.135C239.602 402.135 238.902 401.96 238.282 401.61C237.672 401.26 237.192 400.765 236.842 400.125C236.492 399.475 236.317 398.725 236.317 397.875C236.317 397.025 236.487 396.28 236.827 395.64C237.167 395 237.642 394.51 238.252 394.17C238.872 393.82 239.582 393.645 240.382 393.645C241.162 393.645 241.852 393.815 242.452 394.155C243.052 394.495 243.512 394.965 243.832 395.565C244.162 396.155 244.327 396.825 244.327 397.575ZM242.917 397.29C242.917 396.77 242.802 396.325 242.572 395.955C242.342 395.575 242.027 395.29 241.627 395.1C241.237 394.9 240.802 394.8 240.322 394.8C239.632 394.8 239.042 395.02 238.552 395.46C238.072 395.9 237.797 396.51 237.727 397.29H242.917ZM253.038 402.135C252.408 402.135 251.843 402.03 251.343 401.82C250.843 401.6 250.448 401.3 250.158 400.92C249.868 400.53 249.708 400.085 249.678 399.585H251.088C251.128 399.995 251.318 400.33 251.658 400.59C252.008 400.85 252.463 400.98 253.023 400.98C253.543 400.98 253.953 400.865 254.253 400.635C254.553 400.405 254.703 400.115 254.703 399.765C254.703 399.405 254.543 399.14 254.223 398.97C253.903 398.79 253.408 398.615 252.738 398.445C252.128 398.285 251.628 398.125 251.238 397.965C250.858 397.795 250.528 397.55 250.248 397.23C249.978 396.9 249.843 396.47 249.843 395.94C249.843 395.52 249.968 395.135 250.218 394.785C250.468 394.435 250.823 394.16 251.283 393.96C251.743 393.75 252.268 393.645 252.858 393.645C253.768 393.645 254.503 393.875 255.063 394.335C255.623 394.795 255.923 395.425 255.963 396.225H254.598C254.568 395.795 254.393 395.45 254.073 395.19C253.763 394.93 253.343 394.8 252.813 394.8C252.323 394.8 251.933 394.905 251.643 395.115C251.353 395.325 251.208 395.6 251.208 395.94C251.208 396.21 251.293 396.435 251.463 396.615C251.643 396.785 251.863 396.925 252.123 397.035C252.393 397.135 252.763 397.25 253.233 397.38C253.823 397.54 254.303 397.7 254.673 397.86C255.043 398.01 255.358 398.24 255.618 398.55C255.888 398.86 256.028 399.265 256.038 399.765C256.038 400.215 255.913 400.62 255.663 400.98C255.413 401.34 255.058 401.625 254.598 401.835C254.148 402.035 253.628 402.135 253.038 402.135ZM265.465 397.575C265.465 397.835 265.45 398.11 265.42 398.4H258.85C258.9 399.21 259.175 399.845 259.675 400.305C260.185 400.755 260.8 400.98 261.52 400.98C262.11 400.98 262.6 400.845 262.99 400.575C263.39 400.295 263.67 399.925 263.83 399.465H265.3C265.08 400.255 264.64 400.9 263.98 401.4C263.32 401.89 262.5 402.135 261.52 402.135C260.74 402.135 260.04 401.96 259.42 401.61C258.81 401.26 258.33 400.765 257.98 400.125C257.63 399.475 257.455 398.725 257.455 397.875C257.455 397.025 257.625 396.28 257.965 395.64C258.305 395 258.78 394.51 259.39 394.17C260.01 393.82 260.72 393.645 261.52 393.645C262.3 393.645 262.99 393.815 263.59 394.155C264.19 394.495 264.65 394.965 264.97 395.565C265.3 396.155 265.465 396.825 265.465 397.575ZM264.055 397.29C264.055 396.77 263.94 396.325 263.71 395.955C263.48 395.575 263.165 395.29 262.765 395.1C262.375 394.9 261.94 394.8 261.46 394.8C260.77 394.8 260.18 395.02 259.69 395.46C259.21 395.9 258.935 396.51 258.865 397.29H264.055ZM268.631 395.115C268.871 394.645 269.211 394.28 269.651 394.02C270.101 393.76 270.646 393.63 271.286 393.63V395.04H270.926C269.396 395.04 268.631 395.87 268.631 397.53V402H267.266V393.78H268.631V395.115ZM94.52 418.115C94.76 417.645 95.1 417.28 95.54 417.02C95.99 416.76 96.535 416.63 97.175 416.63V418.04H96.815C95.285 418.04 94.52 418.87 94.52 420.53V425H93.155V416.78H94.52V418.115ZM106.251 420.575C106.251 420.835 106.236 421.11 106.206 421.4H99.6357C99.6857 422.21 99.9607 422.845 100.461 423.305C100.971 423.755 101.586 423.98 102.306 423.98C102.896 423.98 103.386 423.845 103.776 423.575C104.176 423.295 104.456 422.925 104.616 422.465H106.086C105.866 423.255 105.426 423.9 104.766 424.4C104.106 424.89 103.286 425.135 102.306 425.135C101.526 425.135 100.826 424.96 100.206 424.61C99.5957 424.26 99.1157 423.765 98.7657 423.125C98.4157 422.475 98.2407 421.725 98.2407 420.875C98.2407 420.025 98.4107 419.28 98.7507 418.64C99.0907 418 99.5657 417.51 100.176 417.17C100.796 416.82 101.506 416.645 102.306 416.645C103.086 416.645 103.776 416.815 104.376 417.155C104.976 417.495 105.436 417.965 105.756 418.565C106.086 419.155 106.251 419.825 106.251 420.575ZM104.841 420.29C104.841 419.77 104.726 419.325 104.496 418.955C104.266 418.575 103.951 418.29 103.551 418.1C103.161 417.9 102.726 417.8 102.246 417.8C101.556 417.8 100.966 418.02 100.476 418.46C99.9957 418.9 99.7207 419.51 99.6507 420.29H104.841ZM111.112 423.74L113.662 416.78H115.117L111.892 425H110.302L107.077 416.78H108.547L111.112 423.74ZM123.961 420.575C123.961 420.835 123.946 421.11 123.916 421.4H117.346C117.396 422.21 117.671 422.845 118.171 423.305C118.681 423.755 119.296 423.98 120.016 423.98C120.606 423.98 121.096 423.845 121.486 423.575C121.886 423.295 122.166 422.925 122.326 422.465H123.796C123.576 423.255 123.136 423.9 122.476 424.4C121.816 424.89 120.996 425.135 120.016 425.135C119.236 425.135 118.536 424.96 117.916 424.61C117.306 424.26 116.826 423.765 116.476 423.125C116.126 422.475 115.951 421.725 115.951 420.875C115.951 420.025 116.121 419.28 116.461 418.64C116.801 418 117.276 417.51 117.886 417.17C118.506 416.82 119.216 416.645 120.016 416.645C120.796 416.645 121.486 416.815 122.086 417.155C122.686 417.495 123.146 417.965 123.466 418.565C123.796 419.155 123.961 419.825 123.961 420.575ZM122.551 420.29C122.551 419.77 122.436 419.325 122.206 418.955C121.976 418.575 121.661 418.29 121.261 418.1C120.871 417.9 120.436 417.8 119.956 417.8C119.266 417.8 118.676 418.02 118.186 418.46C117.706 418.9 117.431 419.51 117.361 420.29H122.551ZM127.127 418.115C127.367 417.645 127.707 417.28 128.147 417.02C128.597 416.76 129.142 416.63 129.782 416.63V418.04H129.422C127.892 418.04 127.127 418.87 127.127 420.53V425H125.762V416.78H127.127V418.115ZM133.023 417.905V422.75C133.023 423.15 133.108 423.435 133.278 423.605C133.448 423.765 133.743 423.845 134.163 423.845H135.168V425H133.938C133.178 425 132.608 424.825 132.228 424.475C131.848 424.125 131.658 423.55 131.658 422.75V417.905H130.593V416.78H131.658V414.71H133.023V416.78H135.168V417.905H133.023ZM137.527 415.445C137.267 415.445 137.047 415.355 136.867 415.175C136.687 414.995 136.597 414.775 136.597 414.515C136.597 414.255 136.687 414.035 136.867 413.855C137.047 413.675 137.267 413.585 137.527 413.585C137.777 413.585 137.987 413.675 138.157 413.855C138.337 414.035 138.427 414.255 138.427 414.515C138.427 414.775 138.337 414.995 138.157 415.175C137.987 415.355 137.777 415.445 137.527 415.445ZM138.187 416.78V425H136.822V416.78H138.187ZM140.003 420.86C140.003 420.02 140.173 419.285 140.513 418.655C140.853 418.015 141.318 417.52 141.908 417.17C142.508 416.82 143.178 416.645 143.918 416.645C144.558 416.645 145.153 416.795 145.703 417.095C146.253 417.385 146.673 417.77 146.963 418.25V413.9H148.343V425H146.963V423.455C146.693 423.945 146.293 424.35 145.763 424.67C145.233 424.98 144.613 425.135 143.903 425.135C143.173 425.135 142.508 424.955 141.908 424.595C141.318 424.235 140.853 423.73 140.513 423.08C140.173 422.43 140.003 421.69 140.003 420.86ZM146.963 420.875C146.963 420.255 146.838 419.715 146.588 419.255C146.338 418.795 145.998 418.445 145.568 418.205C145.148 417.955 144.683 417.83 144.173 417.83C143.663 417.83 143.198 417.95 142.778 418.19C142.358 418.43 142.023 418.78 141.773 419.24C141.523 419.7 141.398 420.24 141.398 420.86C141.398 421.49 141.523 422.04 141.773 422.51C142.023 422.97 142.358 423.325 142.778 423.575C143.198 423.815 143.663 423.935 144.173 423.935C144.683 423.935 145.148 423.815 145.568 423.575C145.998 423.325 146.338 422.97 146.588 422.51C146.838 422.04 146.963 421.495 146.963 420.875ZM150.14 420.86C150.14 420.02 150.31 419.285 150.65 418.655C150.99 418.015 151.455 417.52 152.045 417.17C152.645 416.82 153.31 416.645 154.04 416.645C154.76 416.645 155.385 416.8 155.915 417.11C156.445 417.42 156.84 417.81 157.1 418.28V416.78H158.48V425H157.1V423.47C156.83 423.95 156.425 424.35 155.885 424.67C155.355 424.98 154.735 425.135 154.025 425.135C153.295 425.135 152.635 424.955 152.045 424.595C151.455 424.235 150.99 423.73 150.65 423.08C150.31 422.43 150.14 421.69 150.14 420.86ZM157.1 420.875C157.1 420.255 156.975 419.715 156.725 419.255C156.475 418.795 156.135 418.445 155.705 418.205C155.285 417.955 154.82 417.83 154.31 417.83C153.8 417.83 153.335 417.95 152.915 418.19C152.495 418.43 152.16 418.78 151.91 419.24C151.66 419.7 151.535 420.24 151.535 420.86C151.535 421.49 151.66 422.04 151.91 422.51C152.16 422.97 152.495 423.325 152.915 423.575C153.335 423.815 153.8 423.935 154.31 423.935C154.82 423.935 155.285 423.815 155.705 423.575C156.135 423.325 156.475 422.97 156.725 422.51C156.975 422.04 157.1 421.495 157.1 420.875Z" fill="black"/>
</g>
<defs>
<clipPath id="clip0_44_679">
<rect width="393" height="852" fill="white"/>
</clipPath>
<clipPath id="clip1_44_679">
<rect width="393" height="852" fill="white"/>
</clipPath>
</defs>
</svg>
