<svg width="393" height="852" viewBox="0 0 393 852" fill="none" xmlns="http://www.w3.org/2000/svg">
<rect width="393" height="852" fill="white"/>
<rect x="29" y="688" width="336" height="47" rx="14" fill="black"/>
<path d="M144.701 711.96C144.701 710.573 145.001 709.34 145.601 708.26C146.201 707.167 147.034 706.32 148.101 705.72C149.181 705.107 150.401 704.8 151.761 704.8C153.428 704.8 154.854 705.24 156.041 706.12C157.228 707 158.021 708.2 158.421 709.72H154.661C154.381 709.133 153.981 708.687 153.461 708.38C152.954 708.073 152.374 707.92 151.721 707.92C150.668 707.92 149.814 708.287 149.161 709.02C148.508 709.753 148.181 710.733 148.181 711.96C148.181 713.187 148.508 714.167 149.161 714.9C149.814 715.633 150.668 716 151.721 716C152.374 716 152.954 715.847 153.461 715.54C153.981 715.233 154.381 714.787 154.661 714.2H158.421C158.021 715.72 157.228 716.92 156.041 717.8C154.854 718.667 153.428 719.1 151.761 719.1C150.401 719.1 149.181 718.8 148.101 718.2C147.034 717.587 146.201 716.74 145.601 715.66C145.001 714.58 144.701 713.347 144.701 711.96ZM159.835 713.4C159.835 712.253 160.049 711.247 160.475 710.38C160.915 709.513 161.509 708.847 162.255 708.38C163.002 707.913 163.835 707.68 164.755 707.68C165.542 707.68 166.229 707.84 166.815 708.16C167.415 708.48 167.875 708.9 168.195 709.42V707.84H171.615V719H168.195V717.42C167.862 717.94 167.395 718.36 166.795 718.68C166.209 719 165.522 719.16 164.735 719.16C163.829 719.16 163.002 718.927 162.255 718.46C161.509 717.98 160.915 717.307 160.475 716.44C160.049 715.56 159.835 714.547 159.835 713.4ZM168.195 713.42C168.195 712.567 167.955 711.893 167.475 711.4C167.009 710.907 166.435 710.66 165.755 710.66C165.075 710.66 164.495 710.907 164.015 711.4C163.549 711.88 163.315 712.547 163.315 713.4C163.315 714.253 163.549 714.933 164.015 715.44C164.495 715.933 165.075 716.18 165.755 716.18C166.435 716.18 167.009 715.933 167.475 715.44C167.955 714.947 168.195 714.273 168.195 713.42ZM173.41 713.4C173.41 712.253 173.623 711.247 174.05 710.38C174.49 709.513 175.083 708.847 175.83 708.38C176.576 707.913 177.41 707.68 178.33 707.68C179.063 707.68 179.73 707.833 180.33 708.14C180.943 708.447 181.423 708.86 181.77 709.38V704.2H185.19V719H181.77V717.4C181.45 717.933 180.99 718.36 180.39 718.68C179.803 719 179.116 719.16 178.33 719.16C177.41 719.16 176.576 718.927 175.83 718.46C175.083 717.98 174.49 717.307 174.05 716.44C173.623 715.56 173.41 714.547 173.41 713.4ZM181.77 713.42C181.77 712.567 181.53 711.893 181.05 711.4C180.583 710.907 180.01 710.66 179.33 710.66C178.65 710.66 178.07 710.907 177.59 711.4C177.123 711.88 176.89 712.547 176.89 713.4C176.89 714.253 177.123 714.933 177.59 715.44C178.07 715.933 178.65 716.18 179.33 716.18C180.01 716.18 180.583 715.933 181.05 715.44C181.53 714.947 181.77 714.273 181.77 713.42ZM186.984 713.4C186.984 712.253 187.197 711.247 187.624 710.38C188.064 709.513 188.657 708.847 189.404 708.38C190.15 707.913 190.984 707.68 191.904 707.68C192.69 707.68 193.377 707.84 193.964 708.16C194.564 708.48 195.024 708.9 195.344 709.42V707.84H198.764V719H195.344V717.42C195.01 717.94 194.544 718.36 193.944 718.68C193.357 719 192.67 719.16 191.884 719.16C190.977 719.16 190.15 718.927 189.404 718.46C188.657 717.98 188.064 717.307 187.624 716.44C187.197 715.56 186.984 714.547 186.984 713.4ZM195.344 713.42C195.344 712.567 195.104 711.893 194.624 711.4C194.157 710.907 193.584 710.66 192.904 710.66C192.224 710.66 191.644 710.907 191.164 711.4C190.697 711.88 190.464 712.547 190.464 713.4C190.464 714.253 190.697 714.933 191.164 715.44C191.644 715.933 192.224 716.18 192.904 716.18C193.584 716.18 194.157 715.933 194.624 715.44C195.104 714.947 195.344 714.273 195.344 713.42ZM205.778 719.16C204.805 719.16 203.938 718.993 203.178 718.66C202.418 718.327 201.818 717.873 201.378 717.3C200.938 716.713 200.691 716.06 200.638 715.34H204.018C204.058 715.727 204.238 716.04 204.558 716.28C204.878 716.52 205.271 716.64 205.738 716.64C206.165 716.64 206.491 716.56 206.718 716.4C206.958 716.227 207.078 716.007 207.078 715.74C207.078 715.42 206.911 715.187 206.578 715.04C206.245 714.88 205.705 714.707 204.958 714.52C204.158 714.333 203.491 714.14 202.958 713.94C202.425 713.727 201.965 713.4 201.578 712.96C201.191 712.507 200.998 711.9 200.998 711.14C200.998 710.5 201.171 709.92 201.518 709.4C201.878 708.867 202.398 708.447 203.078 708.14C203.771 707.833 204.591 707.68 205.538 707.68C206.938 707.68 208.038 708.027 208.838 708.72C209.651 709.413 210.118 710.333 210.238 711.48H207.078C207.025 711.093 206.851 710.787 206.558 710.56C206.278 710.333 205.905 710.22 205.438 710.22C205.038 710.22 204.731 710.3 204.518 710.46C204.305 710.607 204.198 710.813 204.198 711.08C204.198 711.4 204.365 711.64 204.698 711.8C205.045 711.96 205.578 712.12 206.298 712.28C207.125 712.493 207.798 712.707 208.318 712.92C208.838 713.12 209.291 713.453 209.678 713.92C210.078 714.373 210.285 714.987 210.298 715.76C210.298 716.413 210.111 717 209.738 717.52C209.378 718.027 208.851 718.427 208.158 718.72C207.478 719.013 206.685 719.16 205.778 719.16ZM218.61 716.1V719H216.87C215.63 719 214.664 718.7 213.97 718.1C213.277 717.487 212.93 716.493 212.93 715.12V710.68H211.57V707.84H212.93V705.12H216.35V707.84H218.59V710.68H216.35V715.16C216.35 715.493 216.43 715.733 216.59 715.88C216.75 716.027 217.017 716.1 217.39 716.1H218.61ZM223.935 709.7C224.335 709.087 224.835 708.607 225.435 708.26C226.035 707.9 226.702 707.72 227.435 707.72V711.34H226.495C225.642 711.34 225.002 711.527 224.575 711.9C224.149 712.26 223.935 712.9 223.935 713.82V719H220.515V707.84H223.935V709.7ZM228.39 713.4C228.39 712.253 228.603 711.247 229.03 710.38C229.47 709.513 230.063 708.847 230.81 708.38C231.557 707.913 232.39 707.68 233.31 707.68C234.097 707.68 234.783 707.84 235.37 708.16C235.97 708.48 236.43 708.9 236.75 709.42V707.84H240.17V719H236.75V717.42C236.417 717.94 235.95 718.36 235.35 718.68C234.763 719 234.077 719.16 233.29 719.16C232.383 719.16 231.557 718.927 230.81 718.46C230.063 717.98 229.47 717.307 229.03 716.44C228.603 715.56 228.39 714.547 228.39 713.4ZM236.75 713.42C236.75 712.567 236.51 711.893 236.03 711.4C235.563 710.907 234.99 710.66 234.31 710.66C233.63 710.66 233.05 710.907 232.57 711.4C232.103 711.88 231.87 712.547 231.87 713.4C231.87 714.253 232.103 714.933 232.57 715.44C233.05 715.933 233.63 716.18 234.31 716.18C234.99 716.18 235.563 715.933 236.03 715.44C236.51 714.947 236.75 714.273 236.75 713.42ZM246.064 709.7C246.464 709.087 246.964 708.607 247.564 708.26C248.164 707.9 248.831 707.72 249.564 707.72V711.34H248.624C247.771 711.34 247.131 711.527 246.704 711.9C246.278 712.26 246.064 712.9 246.064 713.82V719H242.644V707.84H246.064V709.7Z" fill="white"/>
<rect x="29" y="749" width="336" height="47" rx="14" fill="#E9E9E9"/>
<path d="M170.975 767.54V772.2H176.055V773.7H170.975V778.5H176.655V780H169.155V766.04H176.655V767.54H170.975ZM184.749 768.84C186.082 768.84 187.162 769.247 187.989 770.06C188.816 770.86 189.229 772.02 189.229 773.54V780H187.429V773.8C187.429 772.707 187.156 771.873 186.609 771.3C186.062 770.713 185.316 770.42 184.369 770.42C183.409 770.42 182.642 770.72 182.069 771.32C181.509 771.92 181.229 772.793 181.229 773.94V780H179.409V769.04H181.229V770.6C181.589 770.04 182.076 769.607 182.689 769.3C183.316 768.993 184.002 768.84 184.749 768.84ZM194.422 770.54V777C194.422 777.533 194.535 777.913 194.762 778.14C194.989 778.353 195.382 778.46 195.942 778.46H197.282V780H195.642C194.629 780 193.869 779.767 193.362 779.3C192.855 778.833 192.602 778.067 192.602 777V770.54H191.182V769.04H192.602V766.28H194.422V769.04H197.282V770.54H194.422ZM201.307 770.82C201.627 770.193 202.081 769.707 202.667 769.36C203.267 769.013 203.994 768.84 204.847 768.84V770.72H204.367C202.327 770.72 201.307 771.827 201.307 774.04V780H199.487V769.04H201.307V770.82ZM206.268 774.48C206.268 773.36 206.495 772.38 206.948 771.54C207.402 770.687 208.022 770.027 208.808 769.56C209.608 769.093 210.495 768.86 211.468 768.86C212.428 768.86 213.262 769.067 213.968 769.48C214.675 769.893 215.202 770.413 215.548 771.04V769.04H217.388V780H215.548V777.96C215.188 778.6 214.648 779.133 213.928 779.56C213.222 779.973 212.395 780.18 211.448 780.18C210.475 780.18 209.595 779.94 208.808 779.46C208.022 778.98 207.402 778.307 206.948 777.44C206.495 776.573 206.268 775.587 206.268 774.48ZM215.548 774.5C215.548 773.673 215.382 772.953 215.048 772.34C214.715 771.727 214.262 771.26 213.688 770.94C213.128 770.607 212.508 770.44 211.828 770.44C211.148 770.44 210.528 770.6 209.968 770.92C209.408 771.24 208.962 771.707 208.628 772.32C208.295 772.933 208.128 773.653 208.128 774.48C208.128 775.32 208.295 776.053 208.628 776.68C208.962 777.293 209.408 777.767 209.968 778.1C210.528 778.42 211.148 778.58 211.828 778.58C212.508 778.58 213.128 778.42 213.688 778.1C214.262 777.767 214.715 777.293 215.048 776.68C215.382 776.053 215.548 775.327 215.548 774.5ZM222.284 770.82C222.604 770.193 223.057 769.707 223.644 769.36C224.244 769.013 224.97 768.84 225.824 768.84V770.72H225.344C223.304 770.72 222.284 771.827 222.284 774.04V780H220.464V769.04H222.284V770.82Z" fill="black"/>
<circle cx="197" cy="267" r="136" fill="#D9D9D9"/>
<rect width="393" height="72" fill="white"/>
<path d="M35.9187 45.105C35.1487 45.105 34.4587 44.98 33.8487 44.73C33.2387 44.48 32.7487 44.11 32.3787 43.62C32.0187 43.13 31.8287 42.54 31.8087 41.85H34.5387C34.5787 42.24 34.7137 42.54 34.9437 42.75C35.1737 42.95 35.4737 43.05 35.8437 43.05C36.2237 43.05 36.5237 42.965 36.7437 42.795C36.9637 42.615 37.0737 42.37 37.0737 42.06C37.0737 41.8 36.9837 41.585 36.8037 41.415C36.6337 41.245 36.4187 41.105 36.1587 40.995C35.9087 40.885 35.5487 40.76 35.0787 40.62C34.3987 40.41 33.8437 40.2 33.4137 39.99C32.9837 39.78 32.6137 39.47 32.3037 39.06C31.9937 38.65 31.8387 38.115 31.8387 37.455C31.8387 36.475 32.1937 35.71 32.9037 35.16C33.6137 34.6 34.5387 34.32 35.6787 34.32C36.8387 34.32 37.7737 34.6 38.4837 35.16C39.1937 35.71 39.5737 36.48 39.6237 37.47H36.8487C36.8287 37.13 36.7037 36.865 36.4737 36.675C36.2437 36.475 35.9487 36.375 35.5887 36.375C35.2787 36.375 35.0287 36.46 34.8387 36.63C34.6487 36.79 34.5537 37.025 34.5537 37.335C34.5537 37.675 34.7137 37.94 35.0337 38.13C35.3537 38.32 35.8537 38.525 36.5337 38.745C37.2137 38.975 37.7637 39.195 38.1837 39.405C38.6137 39.615 38.9837 39.92 39.2937 40.32C39.6037 40.72 39.7587 41.235 39.7587 41.865C39.7587 42.465 39.6037 43.01 39.2937 43.5C38.9937 43.99 38.5537 44.38 37.9737 44.67C37.3937 44.96 36.7087 45.105 35.9187 45.105ZM43.8572 34.47V40.77C43.8572 41.4 44.0122 41.885 44.3222 42.225C44.6322 42.565 45.0872 42.735 45.6872 42.735C46.2872 42.735 46.7472 42.565 47.0672 42.225C47.3872 41.885 47.5472 41.4 47.5472 40.77V34.47H50.1122V40.755C50.1122 41.695 49.9122 42.49 49.5122 43.14C49.1122 43.79 48.5722 44.28 47.8922 44.61C47.2222 44.94 46.4722 45.105 45.6422 45.105C44.8122 45.105 44.0672 44.945 43.4072 44.625C42.7572 44.295 42.2422 43.805 41.8622 43.155C41.4822 42.495 41.2922 41.695 41.2922 40.755V34.47H43.8572ZM58.4684 43.14H54.5384L53.9084 45H51.2234L55.0334 34.47H58.0034L61.8134 45H59.0984L58.4684 43.14ZM57.8084 41.16L56.5034 37.305L55.2134 41.16H57.8084ZM69.963 37.8C69.773 37.45 69.498 37.185 69.138 37.005C68.788 36.815 68.373 36.72 67.893 36.72C67.063 36.72 66.398 36.995 65.898 37.545C65.398 38.085 65.148 38.81 65.148 39.72C65.148 40.69 65.408 41.45 65.928 42C66.458 42.54 67.183 42.81 68.103 42.81C68.733 42.81 69.263 42.65 69.693 42.33C70.133 42.01 70.453 41.55 70.653 40.95H67.398V39.06H72.978V41.445C72.788 42.085 72.463 42.68 72.003 43.23C71.553 43.78 70.978 44.225 70.278 44.565C69.578 44.905 68.788 45.075 67.908 45.075C66.868 45.075 65.938 44.85 65.118 44.4C64.308 43.94 63.673 43.305 63.213 42.495C62.763 41.685 62.538 40.76 62.538 39.72C62.538 38.68 62.763 37.755 63.213 36.945C63.673 36.125 64.308 35.49 65.118 35.04C65.928 34.58 66.853 34.35 67.893 34.35C69.153 34.35 70.213 34.655 71.073 35.265C71.943 35.875 72.518 36.72 72.798 37.8H69.963ZM76.9638 36.525V38.655H80.3988V40.635H76.9638V42.945H80.8488V45H74.3988V34.47H80.8488V36.525H76.9638ZM91.934 45H89.369L85.079 38.505V45H82.514V34.47H85.079L89.369 40.995V34.47H91.934V45ZM97.7383 34.47C98.8483 34.47 99.8183 34.69 100.648 35.13C101.478 35.57 102.118 36.19 102.568 36.99C103.028 37.78 103.258 38.695 103.258 39.735C103.258 40.765 103.028 41.68 102.568 42.48C102.118 43.28 101.473 43.9 100.633 44.34C99.8033 44.78 98.8383 45 97.7383 45H93.7933V34.47H97.7383ZM97.5733 42.78C98.5433 42.78 99.2983 42.515 99.8383 41.985C100.378 41.455 100.648 40.705 100.648 39.735C100.648 38.765 100.378 38.01 99.8383 37.47C99.2983 36.93 98.5433 36.66 97.5733 36.66H96.3583V42.78H97.5733ZM111.247 43.14H107.317L106.687 45H104.002L107.812 34.47H110.782L114.592 45H111.877L111.247 43.14ZM110.587 41.16L109.282 37.305L107.992 41.16H110.587Z" fill="black"/>
<path d="M74.4343 512.624C74.4343 510.992 74.8023 509.528 75.5383 508.232C76.2743 506.92 77.2743 505.896 78.5383 505.16C79.8183 504.424 81.2343 504.056 82.7863 504.056C84.6103 504.056 86.2023 504.496 87.5623 505.376C88.9223 506.256 89.9143 507.504 90.5383 509.12H87.9223C87.4583 508.112 86.7863 507.336 85.9063 506.792C85.0423 506.248 84.0023 505.976 82.7863 505.976C81.6183 505.976 80.5703 506.248 79.6423 506.792C78.7143 507.336 77.9863 508.112 77.4583 509.12C76.9303 510.112 76.6663 511.28 76.6663 512.624C76.6663 513.952 76.9303 515.12 77.4583 516.128C77.9863 517.12 78.7143 517.888 79.6423 518.432C80.5703 518.976 81.6183 519.248 82.7863 519.248C84.0023 519.248 85.0423 518.984 85.9063 518.456C86.7863 517.912 87.4583 517.136 87.9223 516.128H90.5383C89.9143 517.728 88.9223 518.968 87.5623 519.848C86.2023 520.712 84.6103 521.144 82.7863 521.144C81.2343 521.144 79.8183 520.784 78.5383 520.064C77.2743 519.328 76.2743 518.312 75.5383 517.016C74.8023 515.72 74.4343 514.256 74.4343 512.624ZM92.9734 514.376C92.9734 513.032 93.2454 511.856 93.7894 510.848C94.3334 509.824 95.0774 509.032 96.0214 508.472C96.9814 507.912 98.0454 507.632 99.2134 507.632C100.365 507.632 101.365 507.88 102.213 508.376C103.061 508.872 103.693 509.496 104.109 510.248V507.848H106.317V521H104.109V518.552C103.677 519.32 103.029 519.96 102.165 520.472C101.317 520.968 100.325 521.216 99.1894 521.216C98.0214 521.216 96.9654 520.928 96.0214 520.352C95.0774 519.776 94.3334 518.968 93.7894 517.928C93.2454 516.888 92.9734 515.704 92.9734 514.376ZM104.109 514.4C104.109 513.408 103.909 512.544 103.509 511.808C103.109 511.072 102.565 510.512 101.877 510.128C101.205 509.728 100.461 509.528 99.6454 509.528C98.8294 509.528 98.0854 509.72 97.4134 510.104C96.7414 510.488 96.2054 511.048 95.8054 511.784C95.4054 512.52 95.2054 513.384 95.2054 514.376C95.2054 515.384 95.4054 516.264 95.8054 517.016C96.2054 517.752 96.7414 518.32 97.4134 518.72C98.0854 519.104 98.8294 519.296 99.6454 519.296C100.461 519.296 101.205 519.104 101.877 518.72C102.565 518.32 103.109 517.752 103.509 517.016C103.909 516.264 104.109 515.392 104.109 514.4ZM109.192 514.376C109.192 513.032 109.464 511.856 110.008 510.848C110.552 509.824 111.296 509.032 112.24 508.472C113.2 507.912 114.272 507.632 115.456 507.632C116.48 507.632 117.432 507.872 118.312 508.352C119.192 508.816 119.864 509.432 120.328 510.2V503.24H122.536V521H120.328V518.528C119.896 519.312 119.256 519.96 118.408 520.472C117.56 520.968 116.568 521.216 115.432 521.216C114.264 521.216 113.2 520.928 112.24 520.352C111.296 519.776 110.552 518.968 110.008 517.928C109.464 516.888 109.192 515.704 109.192 514.376ZM120.328 514.4C120.328 513.408 120.128 512.544 119.728 511.808C119.328 511.072 118.784 510.512 118.096 510.128C117.424 509.728 116.68 509.528 115.864 509.528C115.048 509.528 114.304 509.72 113.632 510.104C112.96 510.488 112.424 511.048 112.024 511.784C111.624 512.52 111.424 513.384 111.424 514.376C111.424 515.384 111.624 516.264 112.024 517.016C112.424 517.752 112.96 518.32 113.632 518.72C114.304 519.104 115.048 519.296 115.864 519.296C116.68 519.296 117.424 519.104 118.096 518.72C118.784 518.32 119.328 517.752 119.728 517.016C120.128 516.264 120.328 515.392 120.328 514.4ZM125.411 514.376C125.411 513.032 125.683 511.856 126.227 510.848C126.771 509.824 127.515 509.032 128.459 508.472C129.419 507.912 130.483 507.632 131.651 507.632C132.803 507.632 133.803 507.88 134.651 508.376C135.499 508.872 136.131 509.496 136.547 510.248V507.848H138.755V521H136.547V518.552C136.115 519.32 135.467 519.96 134.603 520.472C133.755 520.968 132.763 521.216 131.627 521.216C130.459 521.216 129.403 520.928 128.459 520.352C127.515 519.776 126.771 518.968 126.227 517.928C125.683 516.888 125.411 515.704 125.411 514.376ZM136.547 514.4C136.547 513.408 136.347 512.544 135.947 511.808C135.547 511.072 135.003 510.512 134.315 510.128C133.643 509.728 132.899 509.528 132.083 509.528C131.267 509.528 130.523 509.72 129.851 510.104C129.179 510.488 128.643 511.048 128.243 511.784C127.843 512.52 127.643 513.384 127.643 514.376C127.643 515.384 127.843 516.264 128.243 517.016C128.643 517.752 129.179 518.32 129.851 518.72C130.523 519.104 131.267 519.296 132.083 519.296C132.899 519.296 133.643 519.104 134.315 518.72C135.003 518.32 135.547 517.752 135.947 517.016C136.347 516.264 136.547 515.392 136.547 514.4ZM147.102 521.216C146.094 521.216 145.19 521.048 144.39 520.712C143.59 520.36 142.958 519.88 142.494 519.272C142.03 518.648 141.774 517.936 141.726 517.136H143.982C144.046 517.792 144.35 518.328 144.894 518.744C145.454 519.16 146.182 519.368 147.078 519.368C147.91 519.368 148.566 519.184 149.046 518.816C149.526 518.448 149.766 517.984 149.766 517.424C149.766 516.848 149.51 516.424 148.998 516.152C148.486 515.864 147.694 515.584 146.622 515.312C145.646 515.056 144.846 514.8 144.222 514.544C143.614 514.272 143.086 513.88 142.638 513.368C142.206 512.84 141.99 512.152 141.99 511.304C141.99 510.632 142.19 510.016 142.59 509.456C142.99 508.896 143.558 508.456 144.294 508.136C145.03 507.8 145.87 507.632 146.814 507.632C148.27 507.632 149.446 508 150.342 508.736C151.238 509.472 151.718 510.48 151.782 511.76H149.598C149.55 511.072 149.27 510.52 148.758 510.104C148.262 509.688 147.59 509.48 146.742 509.48C145.958 509.48 145.334 509.648 144.87 509.984C144.406 510.32 144.174 510.76 144.174 511.304C144.174 511.736 144.31 512.096 144.582 512.384C144.87 512.656 145.222 512.88 145.638 513.056C146.07 513.216 146.662 513.4 147.414 513.608C148.358 513.864 149.126 514.12 149.718 514.376C150.31 514.616 150.814 514.984 151.23 515.48C151.662 515.976 151.886 516.624 151.902 517.424C151.902 518.144 151.702 518.792 151.302 519.368C150.902 519.944 150.334 520.4 149.598 520.736C148.878 521.056 148.046 521.216 147.102 521.216ZM157.649 509.648V517.4C157.649 518.04 157.785 518.496 158.057 518.768C158.329 519.024 158.801 519.152 159.473 519.152H161.081V521H159.113C157.897 521 156.985 520.72 156.377 520.16C155.769 519.6 155.465 518.68 155.465 517.4V509.648H153.761V507.848H155.465V504.536H157.649V507.848H161.081V509.648H157.649ZM165.911 509.984C166.295 509.232 166.839 508.648 167.543 508.232C168.263 507.816 169.135 507.608 170.159 507.608V509.864H169.583C167.135 509.864 165.911 511.192 165.911 513.848V521H163.727V507.848H165.911V509.984ZM184.68 513.92C184.68 514.336 184.656 514.776 184.608 515.24H174.096C174.176 516.536 174.616 517.552 175.416 518.288C176.232 519.008 177.216 519.368 178.368 519.368C179.312 519.368 180.096 519.152 180.72 518.72C181.36 518.272 181.808 517.68 182.064 516.944H184.416C184.064 518.208 183.36 519.24 182.304 520.04C181.248 520.824 179.936 521.216 178.368 521.216C177.12 521.216 176 520.936 175.008 520.376C174.032 519.816 173.264 519.024 172.704 518C172.144 516.96 171.864 515.76 171.864 514.4C171.864 513.04 172.136 511.848 172.68 510.824C173.224 509.8 173.984 509.016 174.96 508.472C175.952 507.912 177.088 507.632 178.368 507.632C179.616 507.632 180.72 507.904 181.68 508.448C182.64 508.992 183.376 509.744 183.888 510.704C184.416 511.648 184.68 512.72 184.68 513.92ZM182.424 513.464C182.424 512.632 182.24 511.92 181.872 511.328C181.504 510.72 181 510.264 180.36 509.96C179.736 509.64 179.04 509.48 178.272 509.48C177.168 509.48 176.224 509.832 175.44 510.536C174.672 511.24 174.232 512.216 174.12 513.464H182.424ZM205.961 513.92C205.961 514.336 205.937 514.776 205.889 515.24H195.377C195.457 516.536 195.897 517.552 196.697 518.288C197.513 519.008 198.497 519.368 199.649 519.368C200.593 519.368 201.377 519.152 202.001 518.72C202.641 518.272 203.089 517.68 203.345 516.944H205.697C205.345 518.208 204.641 519.24 203.585 520.04C202.529 520.824 201.217 521.216 199.649 521.216C198.401 521.216 197.281 520.936 196.289 520.376C195.313 519.816 194.545 519.024 193.985 518C193.425 516.96 193.145 515.76 193.145 514.4C193.145 513.04 193.417 511.848 193.961 510.824C194.505 509.8 195.265 509.016 196.241 508.472C197.233 507.912 198.369 507.632 199.649 507.632C200.897 507.632 202.001 507.904 202.961 508.448C203.921 508.992 204.657 509.744 205.169 510.704C205.697 511.648 205.961 512.72 205.961 513.92ZM203.705 513.464C203.705 512.632 203.521 511.92 203.153 511.328C202.785 510.72 202.281 510.264 201.641 509.96C201.017 509.64 200.321 509.48 199.553 509.48C198.449 509.48 197.505 509.832 196.721 510.536C195.953 511.24 195.513 512.216 195.401 513.464H203.705ZM213.74 518.984L217.82 507.848H220.148L214.988 521H212.444L207.284 507.848H209.636L213.74 518.984ZM234.297 513.92C234.297 514.336 234.273 514.776 234.225 515.24H223.713C223.793 516.536 224.233 517.552 225.033 518.288C225.849 519.008 226.833 519.368 227.985 519.368C228.929 519.368 229.713 519.152 230.337 518.72C230.977 518.272 231.425 517.68 231.681 516.944H234.033C233.681 518.208 232.977 519.24 231.921 520.04C230.865 520.824 229.553 521.216 227.985 521.216C226.737 521.216 225.617 520.936 224.625 520.376C223.649 519.816 222.881 519.024 222.321 518C221.761 516.96 221.481 515.76 221.481 514.4C221.481 513.04 221.753 511.848 222.297 510.824C222.841 509.8 223.601 509.016 224.577 508.472C225.569 507.912 226.705 507.632 227.985 507.632C229.233 507.632 230.337 507.904 231.297 508.448C232.257 508.992 232.993 509.744 233.505 510.704C234.033 511.648 234.297 512.72 234.297 513.92ZM232.041 513.464C232.041 512.632 231.857 511.92 231.489 511.328C231.121 510.72 230.617 510.264 229.977 509.96C229.353 509.64 228.657 509.48 227.889 509.48C226.785 509.48 225.841 509.832 225.057 510.536C224.289 511.24 223.849 512.216 223.737 513.464H232.041ZM243.588 507.608C245.188 507.608 246.484 508.096 247.476 509.072C248.468 510.032 248.964 511.424 248.964 513.248V521H246.804V513.56C246.804 512.248 246.476 511.248 245.82 510.56C245.164 509.856 244.268 509.504 243.132 509.504C241.98 509.504 241.06 509.864 240.372 510.584C239.7 511.304 239.364 512.352 239.364 513.728V521H237.18V507.848H239.364V509.72C239.796 509.048 240.38 508.528 241.116 508.16C241.868 507.792 242.692 507.608 243.588 507.608ZM255.196 509.648V517.4C255.196 518.04 255.332 518.496 255.604 518.768C255.876 519.024 256.348 519.152 257.02 519.152H258.628V521H256.66C255.444 521 254.532 520.72 253.924 520.16C253.316 519.6 253.012 518.68 253.012 517.4V509.648H251.308V507.848H253.012V504.536H255.196V507.848H258.628V509.648H255.196ZM267.01 521.216C265.778 521.216 264.658 520.936 263.65 520.376C262.658 519.816 261.874 519.024 261.298 518C260.738 516.96 260.458 515.76 260.458 514.4C260.458 513.056 260.746 511.872 261.322 510.848C261.914 509.808 262.714 509.016 263.722 508.472C264.73 507.912 265.858 507.632 267.106 507.632C268.354 507.632 269.482 507.912 270.49 508.472C271.498 509.016 272.29 509.8 272.866 510.824C273.458 511.848 273.754 513.04 273.754 514.4C273.754 515.76 273.45 516.96 272.842 518C272.25 519.024 271.442 519.816 270.418 520.376C269.394 520.936 268.258 521.216 267.01 521.216ZM267.01 519.296C267.794 519.296 268.53 519.112 269.218 518.744C269.906 518.376 270.458 517.824 270.874 517.088C271.306 516.352 271.522 515.456 271.522 514.4C271.522 513.344 271.314 512.448 270.898 511.712C270.482 510.976 269.938 510.432 269.266 510.08C268.594 509.712 267.866 509.528 267.082 509.528C266.282 509.528 265.546 509.712 264.874 510.08C264.218 510.432 263.69 510.976 263.29 511.712C262.89 512.448 262.69 513.344 262.69 514.4C262.69 515.472 262.882 516.376 263.266 517.112C263.666 517.848 264.194 518.4 264.85 518.768C265.506 519.12 266.226 519.296 267.01 519.296ZM281.281 521.216C280.273 521.216 279.369 521.048 278.569 520.712C277.769 520.36 277.137 519.88 276.673 519.272C276.209 518.648 275.953 517.936 275.905 517.136H278.161C278.225 517.792 278.529 518.328 279.073 518.744C279.633 519.16 280.361 519.368 281.257 519.368C282.089 519.368 282.745 519.184 283.225 518.816C283.705 518.448 283.945 517.984 283.945 517.424C283.945 516.848 283.689 516.424 283.177 516.152C282.665 515.864 281.873 515.584 280.801 515.312C279.825 515.056 279.025 514.8 278.401 514.544C277.793 514.272 277.265 513.88 276.817 513.368C276.385 512.84 276.169 512.152 276.169 511.304C276.169 510.632 276.369 510.016 276.769 509.456C277.169 508.896 277.737 508.456 278.473 508.136C279.209 507.8 280.049 507.632 280.993 507.632C282.449 507.632 283.625 508 284.521 508.736C285.417 509.472 285.897 510.48 285.961 511.76H283.777C283.729 511.072 283.449 510.52 282.937 510.104C282.441 509.688 281.769 509.48 280.921 509.48C280.137 509.48 279.513 509.648 279.049 509.984C278.585 510.32 278.353 510.76 278.353 511.304C278.353 511.736 278.489 512.096 278.761 512.384C279.049 512.656 279.401 512.88 279.817 513.056C280.249 513.216 280.841 513.4 281.593 513.608C282.537 513.864 283.305 514.12 283.897 514.376C284.489 514.616 284.993 514.984 285.409 515.48C285.841 515.976 286.065 516.624 286.081 517.424C286.081 518.144 285.881 518.792 285.481 519.368C285.081 519.944 284.513 520.4 283.777 520.736C283.057 521.056 282.225 521.216 281.281 521.216ZM307.563 513.92C307.563 514.336 307.539 514.776 307.491 515.24H296.979C297.059 516.536 297.499 517.552 298.299 518.288C299.115 519.008 300.099 519.368 301.251 519.368C302.195 519.368 302.979 519.152 303.603 518.72C304.243 518.272 304.691 517.68 304.947 516.944H307.299C306.947 518.208 306.243 519.24 305.187 520.04C304.131 520.824 302.819 521.216 301.251 521.216C300.003 521.216 298.883 520.936 297.891 520.376C296.915 519.816 296.147 519.024 295.587 518C295.027 516.96 294.747 515.76 294.747 514.4C294.747 513.04 295.019 511.848 295.563 510.824C296.107 509.8 296.867 509.016 297.843 508.472C298.835 507.912 299.971 507.632 301.251 507.632C302.499 507.632 303.603 507.904 304.563 508.448C305.523 508.992 306.259 509.744 306.771 510.704C307.299 511.648 307.563 512.72 307.563 513.92ZM305.307 513.464C305.307 512.632 305.123 511.92 304.755 511.328C304.387 510.72 303.883 510.264 303.243 509.96C302.619 509.64 301.923 509.48 301.155 509.48C300.051 509.48 299.107 509.832 298.323 510.536C297.555 511.24 297.115 512.216 297.003 513.464H305.307ZM54.1035 550.216C52.8715 550.216 51.7515 549.936 50.7435 549.376C49.7515 548.816 48.9675 548.024 48.3915 547C47.8315 545.96 47.5515 544.76 47.5515 543.4C47.5515 542.056 47.8395 540.872 48.4155 539.848C49.0075 538.808 49.8075 538.016 50.8155 537.472C51.8235 536.912 52.9515 536.632 54.1995 536.632C55.4475 536.632 56.5755 536.912 57.5835 537.472C58.5915 538.016 59.3835 538.8 59.9595 539.824C60.5515 540.848 60.8475 542.04 60.8475 543.4C60.8475 544.76 60.5435 545.96 59.9355 547C59.3435 548.024 58.5355 548.816 57.5115 549.376C56.4875 549.936 55.3515 550.216 54.1035 550.216ZM54.1035 548.296C54.8875 548.296 55.6235 548.112 56.3115 547.744C56.9995 547.376 57.5515 546.824 57.9675 546.088C58.3995 545.352 58.6155 544.456 58.6155 543.4C58.6155 542.344 58.4075 541.448 57.9915 540.712C57.5755 539.976 57.0315 539.432 56.3595 539.08C55.6875 538.712 54.9595 538.528 54.1755 538.528C53.3755 538.528 52.6395 538.712 51.9675 539.08C51.3115 539.432 50.7835 539.976 50.3835 540.712C49.9835 541.448 49.7835 542.344 49.7835 543.4C49.7835 544.472 49.9755 545.376 50.3595 546.112C50.7595 546.848 51.2875 547.4 51.9435 547.768C52.5995 548.12 53.3195 548.296 54.1035 548.296ZM65.9031 538.984C66.2871 538.232 66.8311 537.648 67.5351 537.232C68.2551 536.816 69.1271 536.608 70.1511 536.608V538.864H69.5751C67.1271 538.864 65.9031 540.192 65.9031 542.848V550H63.7191V536.848H65.9031V538.984ZM78.0962 536.632C79.2322 536.632 80.2242 536.88 81.0722 537.376C81.9362 537.872 82.5762 538.496 82.9922 539.248V536.848H85.2002V550.288C85.2002 551.488 84.9442 552.552 84.4322 553.48C83.9202 554.424 83.1842 555.16 82.2242 555.688C81.2802 556.216 80.1762 556.48 78.9122 556.48C77.1842 556.48 75.7442 556.072 74.5922 555.256C73.4402 554.44 72.7602 553.328 72.5522 551.92H74.7122C74.9522 552.72 75.4482 553.36 76.2002 553.84C76.9522 554.336 77.8562 554.584 78.9122 554.584C80.1122 554.584 81.0882 554.208 81.8402 553.456C82.6082 552.704 82.9922 551.648 82.9922 550.288V547.528C82.5602 548.296 81.9202 548.936 81.0722 549.448C80.2242 549.96 79.2322 550.216 78.0962 550.216C76.9282 550.216 75.8642 549.928 74.9042 549.352C73.9602 548.776 73.2162 547.968 72.6722 546.928C72.1282 545.888 71.8562 544.704 71.8562 543.376C71.8562 542.032 72.1282 540.856 72.6722 539.848C73.2162 538.824 73.9602 538.032 74.9042 537.472C75.8642 536.912 76.9282 536.632 78.0962 536.632ZM82.9922 543.4C82.9922 542.408 82.7922 541.544 82.3922 540.808C81.9922 540.072 81.4482 539.512 80.7602 539.128C80.0882 538.728 79.3442 538.528 78.5282 538.528C77.7122 538.528 76.9682 538.72 76.2962 539.104C75.6242 539.488 75.0882 540.048 74.6882 540.784C74.2882 541.52 74.0882 542.384 74.0882 543.376C74.0882 544.384 74.2882 545.264 74.6882 546.016C75.0882 546.752 75.6242 547.32 76.2962 547.72C76.9682 548.104 77.7122 548.296 78.5282 548.296C79.3442 548.296 80.0882 548.104 80.7602 547.72C81.4482 547.32 81.9922 546.752 82.3922 546.016C82.7922 545.264 82.9922 544.392 82.9922 543.4ZM88.075 543.376C88.075 542.032 88.347 540.856 88.891 539.848C89.435 538.824 90.179 538.032 91.123 537.472C92.083 536.912 93.147 536.632 94.315 536.632C95.467 536.632 96.467 536.88 97.315 537.376C98.163 537.872 98.795 538.496 99.211 539.248V536.848H101.419V550H99.211V547.552C98.779 548.32 98.131 548.96 97.267 549.472C96.419 549.968 95.427 550.216 94.291 550.216C93.123 550.216 92.067 549.928 91.123 549.352C90.179 548.776 89.435 547.968 88.891 546.928C88.347 545.888 88.075 544.704 88.075 543.376ZM99.211 543.4C99.211 542.408 99.011 541.544 98.611 540.808C98.211 540.072 97.667 539.512 96.979 539.128C96.307 538.728 95.563 538.528 94.747 538.528C93.931 538.528 93.187 538.72 92.515 539.104C91.843 539.488 91.307 540.048 90.907 540.784C90.507 541.52 90.307 542.384 90.307 543.376C90.307 544.384 90.507 545.264 90.907 546.016C91.307 546.752 91.843 547.32 92.515 547.72C93.187 548.104 93.931 548.296 94.747 548.296C95.563 548.296 96.307 548.104 96.979 547.72C97.667 547.32 98.211 546.752 98.611 546.016C99.011 545.264 99.211 544.392 99.211 543.4ZM111.518 536.608C113.118 536.608 114.414 537.096 115.406 538.072C116.398 539.032 116.894 540.424 116.894 542.248V550H114.734V542.56C114.734 541.248 114.406 540.248 113.75 539.56C113.094 538.856 112.198 538.504 111.062 538.504C109.91 538.504 108.99 538.864 108.302 539.584C107.63 540.304 107.294 541.352 107.294 542.728V550H105.11V536.848H107.294V538.72C107.726 538.048 108.31 537.528 109.046 537.16C109.798 536.792 110.622 536.608 111.518 536.608ZM121.589 534.712C121.173 534.712 120.821 534.568 120.533 534.28C120.245 533.992 120.101 533.64 120.101 533.224C120.101 532.808 120.245 532.456 120.533 532.168C120.821 531.88 121.173 531.736 121.589 531.736C121.989 531.736 122.325 531.88 122.597 532.168C122.885 532.456 123.029 532.808 123.029 533.224C123.029 533.64 122.885 533.992 122.597 534.28C122.325 534.568 121.989 534.712 121.589 534.712ZM122.645 536.848V550H120.461V536.848H122.645ZM128 548.2H134.456V550H125.504V548.2L131.888 538.624H125.552V536.848H134.408V538.624L128 548.2ZM149.289 542.92C149.289 543.336 149.265 543.776 149.217 544.24H138.705C138.785 545.536 139.225 546.552 140.025 547.288C140.841 548.008 141.825 548.368 142.977 548.368C143.921 548.368 144.705 548.152 145.329 547.72C145.969 547.272 146.417 546.68 146.673 545.944H149.025C148.673 547.208 147.969 548.24 146.913 549.04C145.857 549.824 144.545 550.216 142.977 550.216C141.729 550.216 140.609 549.936 139.617 549.376C138.641 548.816 137.873 548.024 137.313 547C136.753 545.96 136.473 544.76 136.473 543.4C136.473 542.04 136.745 540.848 137.289 539.824C137.833 538.8 138.593 538.016 139.569 537.472C140.561 536.912 141.697 536.632 142.977 536.632C144.225 536.632 145.329 536.904 146.289 537.448C147.249 537.992 147.985 538.744 148.497 539.704C149.025 540.648 149.289 541.72 149.289 542.92ZM147.033 542.464C147.033 541.632 146.849 540.92 146.481 540.328C146.113 539.72 145.609 539.264 144.969 538.96C144.345 538.64 143.649 538.48 142.881 538.48C141.777 538.48 140.833 538.832 140.049 539.536C139.281 540.24 138.841 541.216 138.729 542.464H147.033ZM163.227 550.216C162.219 550.216 161.315 550.048 160.515 549.712C159.715 549.36 159.083 548.88 158.619 548.272C158.155 547.648 157.899 546.936 157.851 546.136H160.107C160.171 546.792 160.475 547.328 161.019 547.744C161.579 548.16 162.307 548.368 163.203 548.368C164.035 548.368 164.691 548.184 165.171 547.816C165.651 547.448 165.891 546.984 165.891 546.424C165.891 545.848 165.635 545.424 165.123 545.152C164.611 544.864 163.819 544.584 162.747 544.312C161.771 544.056 160.971 543.8 160.347 543.544C159.739 543.272 159.211 542.88 158.763 542.368C158.331 541.84 158.115 541.152 158.115 540.304C158.115 539.632 158.315 539.016 158.715 538.456C159.115 537.896 159.683 537.456 160.419 537.136C161.155 536.8 161.995 536.632 162.939 536.632C164.395 536.632 165.571 537 166.467 537.736C167.363 538.472 167.843 539.48 167.907 540.76H165.723C165.675 540.072 165.395 539.52 164.883 539.104C164.387 538.688 163.715 538.48 162.867 538.48C162.083 538.48 161.459 538.648 160.995 538.984C160.531 539.32 160.299 539.76 160.299 540.304C160.299 540.736 160.435 541.096 160.707 541.384C160.995 541.656 161.347 541.88 161.763 542.056C162.195 542.216 162.787 542.4 163.539 542.608C164.483 542.864 165.251 543.12 165.843 543.376C166.435 543.616 166.939 543.984 167.355 544.48C167.787 544.976 168.011 545.624 168.027 546.424C168.027 547.144 167.827 547.792 167.427 548.368C167.027 548.944 166.459 549.4 165.723 549.736C165.003 550.056 164.171 550.216 163.227 550.216ZM183.11 542.92C183.11 543.336 183.086 543.776 183.038 544.24H172.526C172.606 545.536 173.046 546.552 173.846 547.288C174.662 548.008 175.646 548.368 176.798 548.368C177.742 548.368 178.526 548.152 179.15 547.72C179.79 547.272 180.238 546.68 180.494 545.944H182.846C182.494 547.208 181.79 548.24 180.734 549.04C179.678 549.824 178.366 550.216 176.798 550.216C175.55 550.216 174.43 549.936 173.438 549.376C172.462 548.816 171.694 548.024 171.134 547C170.574 545.96 170.294 544.76 170.294 543.4C170.294 542.04 170.566 540.848 171.11 539.824C171.654 538.8 172.414 538.016 173.39 537.472C174.382 536.912 175.518 536.632 176.798 536.632C178.046 536.632 179.15 536.904 180.11 537.448C181.07 537.992 181.806 538.744 182.318 539.704C182.846 540.648 183.11 541.72 183.11 542.92ZM180.854 542.464C180.854 541.632 180.67 540.92 180.302 540.328C179.934 539.72 179.43 539.264 178.79 538.96C178.166 538.64 177.47 538.48 176.702 538.48C175.598 538.48 174.654 538.832 173.87 539.536C173.102 540.24 172.662 541.216 172.55 542.464H180.854ZM197.657 536.848V550H195.473V548.056C195.057 548.728 194.473 549.256 193.721 549.64C192.985 550.008 192.169 550.192 191.273 550.192C190.249 550.192 189.329 549.984 188.513 549.568C187.697 549.136 187.049 548.496 186.569 547.648C186.105 546.8 185.873 545.768 185.873 544.552V536.848H188.033V544.264C188.033 545.56 188.361 546.56 189.017 547.264C189.673 547.952 190.569 548.296 191.705 548.296C192.873 548.296 193.793 547.936 194.465 547.216C195.137 546.496 195.473 545.448 195.473 544.072V536.848H197.657ZM206.927 543.4C206.927 542.04 207.199 540.856 207.743 539.848C208.287 538.824 209.039 538.032 209.999 537.472C210.975 536.912 212.087 536.632 213.335 536.632C214.951 536.632 216.279 537.024 217.319 537.808C218.375 538.592 219.071 539.68 219.407 541.072H217.055C216.831 540.272 216.391 539.64 215.735 539.176C215.095 538.712 214.295 538.48 213.335 538.48C212.087 538.48 211.079 538.912 210.311 539.776C209.543 540.624 209.159 541.832 209.159 543.4C209.159 544.984 209.543 546.208 210.311 547.072C211.079 547.936 212.087 548.368 213.335 548.368C214.295 548.368 215.095 548.144 215.735 547.696C216.375 547.248 216.815 546.608 217.055 545.776H219.407C219.055 547.12 218.351 548.2 217.295 549.016C216.239 549.816 214.919 550.216 213.335 550.216C212.087 550.216 210.975 549.936 209.999 549.376C209.039 548.816 208.287 548.024 207.743 547C207.199 545.976 206.927 544.776 206.927 543.4ZM221.505 543.376C221.505 542.032 221.777 540.856 222.321 539.848C222.865 538.824 223.609 538.032 224.553 537.472C225.513 536.912 226.577 536.632 227.745 536.632C228.897 536.632 229.897 536.88 230.745 537.376C231.593 537.872 232.225 538.496 232.641 539.248V536.848H234.849V550H232.641V547.552C232.209 548.32 231.561 548.96 230.697 549.472C229.849 549.968 228.857 550.216 227.721 550.216C226.553 550.216 225.497 549.928 224.553 549.352C223.609 548.776 222.865 547.968 222.321 546.928C221.777 545.888 221.505 544.704 221.505 543.376ZM232.641 543.4C232.641 542.408 232.441 541.544 232.041 540.808C231.641 540.072 231.097 539.512 230.409 539.128C229.737 538.728 228.993 538.528 228.177 538.528C227.361 538.528 226.617 538.72 225.945 539.104C225.273 539.488 224.737 540.048 224.337 540.784C223.937 541.52 223.737 542.384 223.737 543.376C223.737 544.384 223.937 545.264 224.337 546.016C224.737 546.752 225.273 547.32 225.945 547.72C226.617 548.104 227.361 548.296 228.177 548.296C228.993 548.296 229.737 548.104 230.409 547.72C231.097 547.32 231.641 546.752 232.041 546.016C232.441 545.264 232.641 544.392 232.641 543.4ZM240.723 532.24V550H238.539V532.24H240.723ZM256.446 542.92C256.446 543.336 256.422 543.776 256.374 544.24H245.862C245.942 545.536 246.382 546.552 247.182 547.288C247.998 548.008 248.982 548.368 250.134 548.368C251.078 548.368 251.862 548.152 252.486 547.72C253.126 547.272 253.574 546.68 253.83 545.944H256.182C255.83 547.208 255.126 548.24 254.07 549.04C253.014 549.824 251.702 550.216 250.134 550.216C248.886 550.216 247.766 549.936 246.774 549.376C245.798 548.816 245.03 548.024 244.47 547C243.91 545.96 243.63 544.76 243.63 543.4C243.63 542.04 243.902 540.848 244.446 539.824C244.99 538.8 245.75 538.016 246.726 537.472C247.718 536.912 248.854 536.632 250.134 536.632C251.382 536.632 252.486 536.904 253.446 537.448C254.406 537.992 255.142 538.744 255.654 539.704C256.182 540.648 256.446 541.72 256.446 542.92ZM254.19 542.464C254.19 541.632 254.006 540.92 253.638 540.328C253.27 539.72 252.766 539.264 252.126 538.96C251.502 538.64 250.806 538.48 250.038 538.48C248.934 538.48 247.99 538.832 247.206 539.536C246.438 540.24 245.998 541.216 245.886 542.464H254.19ZM265.736 536.608C267.336 536.608 268.632 537.096 269.624 538.072C270.616 539.032 271.112 540.424 271.112 542.248V550H268.952V542.56C268.952 541.248 268.624 540.248 267.968 539.56C267.312 538.856 266.416 538.504 265.28 538.504C264.128 538.504 263.208 538.864 262.52 539.584C261.848 540.304 261.512 541.352 261.512 542.728V550H259.328V536.848H261.512V538.72C261.944 538.048 262.528 537.528 263.264 537.16C264.016 536.792 264.84 536.608 265.736 536.608ZM273.864 543.376C273.864 542.032 274.136 540.856 274.68 539.848C275.224 538.824 275.968 538.032 276.912 537.472C277.872 536.912 278.944 536.632 280.128 536.632C281.152 536.632 282.104 536.872 282.984 537.352C283.864 537.816 284.536 538.432 285 539.2V532.24H287.208V550H285V547.528C284.568 548.312 283.928 548.96 283.08 549.472C282.232 549.968 281.24 550.216 280.104 550.216C278.936 550.216 277.872 549.928 276.912 549.352C275.968 548.776 275.224 547.968 274.68 546.928C274.136 545.888 273.864 544.704 273.864 543.376ZM285 543.4C285 542.408 284.8 541.544 284.4 540.808C284 540.072 283.456 539.512 282.768 539.128C282.096 538.728 281.352 538.528 280.536 538.528C279.72 538.528 278.976 538.72 278.304 539.104C277.632 539.488 277.096 540.048 276.696 540.784C276.296 541.52 276.096 542.384 276.096 543.376C276.096 544.384 276.296 545.264 276.696 546.016C277.096 546.752 277.632 547.32 278.304 547.72C278.976 548.104 279.72 548.296 280.536 548.296C281.352 548.296 282.096 548.104 282.768 547.72C283.456 547.32 284 546.752 284.4 546.016C284.8 545.264 285 544.392 285 543.4ZM290.083 543.376C290.083 542.032 290.355 540.856 290.899 539.848C291.443 538.824 292.187 538.032 293.131 537.472C294.091 536.912 295.155 536.632 296.323 536.632C297.475 536.632 298.475 536.88 299.323 537.376C300.171 537.872 300.803 538.496 301.219 539.248V536.848H303.427V550H301.219V547.552C300.787 548.32 300.139 548.96 299.275 549.472C298.427 549.968 297.435 550.216 296.299 550.216C295.131 550.216 294.075 549.928 293.131 549.352C292.187 548.776 291.443 547.968 290.899 546.928C290.355 545.888 290.083 544.704 290.083 543.376ZM301.219 543.4C301.219 542.408 301.019 541.544 300.619 540.808C300.219 540.072 299.675 539.512 298.987 539.128C298.315 538.728 297.571 538.528 296.755 538.528C295.939 538.528 295.195 538.72 294.523 539.104C293.851 539.488 293.315 540.048 292.915 540.784C292.515 541.52 292.315 542.384 292.315 543.376C292.315 544.384 292.515 545.264 292.915 546.016C293.315 546.752 293.851 547.32 294.523 547.72C295.195 548.104 295.939 548.296 296.755 548.296C297.571 548.296 298.315 548.104 298.987 547.72C299.675 547.32 300.219 546.752 300.619 546.016C301.019 545.264 301.219 544.392 301.219 543.4ZM299.515 533.128L294.403 535.864V534.232L299.515 531.232V533.128ZM309.302 538.984C309.686 538.232 310.23 537.648 310.934 537.232C311.654 536.816 312.526 536.608 313.55 536.608V538.864H312.974C310.526 538.864 309.302 540.192 309.302 542.848V550H307.118V536.848H309.302V538.984ZM317.199 534.712C316.783 534.712 316.431 534.568 316.143 534.28C315.855 533.992 315.711 533.64 315.711 533.224C315.711 532.808 315.855 532.456 316.143 532.168C316.431 531.88 316.783 531.736 317.199 531.736C317.599 531.736 317.935 531.88 318.207 532.168C318.495 532.456 318.639 532.808 318.639 533.224C318.639 533.64 318.495 533.992 318.207 534.28C317.935 534.568 317.599 534.712 317.199 534.712ZM318.255 536.848V550H316.071V536.848H318.255ZM327.713 550.216C326.481 550.216 325.361 549.936 324.353 549.376C323.361 548.816 322.577 548.024 322.001 547C321.441 545.96 321.161 544.76 321.161 543.4C321.161 542.056 321.449 540.872 322.025 539.848C322.617 538.808 323.417 538.016 324.425 537.472C325.433 536.912 326.561 536.632 327.809 536.632C329.057 536.632 330.185 536.912 331.193 537.472C332.201 538.016 332.993 538.8 333.569 539.824C334.161 540.848 334.457 542.04 334.457 543.4C334.457 544.76 334.153 545.96 333.545 547C332.953 548.024 332.145 548.816 331.121 549.376C330.097 549.936 328.961 550.216 327.713 550.216ZM327.713 548.296C328.497 548.296 329.233 548.112 329.921 547.744C330.609 547.376 331.161 546.824 331.577 546.088C332.009 545.352 332.225 544.456 332.225 543.4C332.225 542.344 332.017 541.448 331.601 540.712C331.185 539.976 330.641 539.432 329.969 539.08C329.297 538.712 328.569 538.528 327.785 538.528C326.985 538.528 326.249 538.712 325.577 539.08C324.921 539.432 324.393 539.976 323.993 540.712C323.593 541.448 323.393 542.344 323.393 543.4C323.393 544.472 323.585 545.376 323.969 546.112C324.369 546.848 324.897 547.4 325.553 547.768C326.209 548.12 326.929 548.296 327.713 548.296Z" fill="black"/>
<path d="M116.893 485.224C115.251 485.224 113.779 484.957 112.477 484.424C111.176 483.891 110.131 483.101 109.341 482.056C108.573 481.011 108.168 479.752 108.125 478.28H113.949C114.035 479.112 114.323 479.752 114.813 480.2C115.304 480.627 115.944 480.84 116.733 480.84C117.544 480.84 118.184 480.659 118.653 480.296C119.123 479.912 119.357 479.389 119.357 478.728C119.357 478.173 119.165 477.715 118.781 477.352C118.419 476.989 117.96 476.691 117.405 476.456C116.872 476.221 116.104 475.955 115.101 475.656C113.651 475.208 112.467 474.76 111.549 474.312C110.632 473.864 109.843 473.203 109.181 472.328C108.52 471.453 108.189 470.312 108.189 468.904C108.189 466.813 108.947 465.181 110.461 464.008C111.976 462.813 113.949 462.216 116.381 462.216C118.856 462.216 120.851 462.813 122.365 464.008C123.88 465.181 124.691 466.824 124.797 468.936H118.877C118.835 468.211 118.568 467.645 118.077 467.24C117.587 466.813 116.957 466.6 116.189 466.6C115.528 466.6 114.995 466.781 114.589 467.144C114.184 467.485 113.981 467.987 113.981 468.648C113.981 469.373 114.323 469.939 115.005 470.344C115.688 470.749 116.755 471.187 118.205 471.656C119.656 472.147 120.829 472.616 121.725 473.064C122.643 473.512 123.432 474.163 124.093 475.016C124.755 475.869 125.085 476.968 125.085 478.312C125.085 479.592 124.755 480.755 124.093 481.8C123.453 482.845 122.515 483.677 121.277 484.296C120.04 484.915 118.579 485.224 116.893 485.224ZM133.829 462.536V475.976C133.829 477.32 134.159 478.355 134.821 479.08C135.482 479.805 136.453 480.168 137.733 480.168C139.013 480.168 139.994 479.805 140.677 479.08C141.359 478.355 141.701 477.32 141.701 475.976V462.536H147.173V475.944C147.173 477.949 146.746 479.645 145.893 481.032C145.039 482.419 143.887 483.464 142.437 484.168C141.007 484.872 139.407 485.224 137.637 485.224C135.866 485.224 134.277 484.883 132.869 484.2C131.482 483.496 130.383 482.451 129.573 481.064C128.762 479.656 128.357 477.949 128.357 475.944V462.536H133.829ZM164.999 481.032H156.615L155.271 485H149.543L157.671 462.536H164.007L172.135 485H166.343L164.999 481.032ZM163.591 476.808L160.807 468.584L158.055 476.808H163.591ZM189.521 469.64C189.116 468.893 188.529 468.328 187.761 467.944C187.014 467.539 186.129 467.336 185.105 467.336C183.334 467.336 181.916 467.923 180.849 469.096C179.782 470.248 179.249 471.795 179.249 473.736C179.249 475.805 179.804 477.427 180.913 478.6C182.044 479.752 183.59 480.328 185.553 480.328C186.897 480.328 188.028 479.987 188.945 479.304C189.884 478.621 190.566 477.64 190.993 476.36H184.049V472.328H195.953V477.416C195.548 478.781 194.854 480.051 193.873 481.224C192.913 482.397 191.686 483.347 190.193 484.072C188.7 484.797 187.014 485.16 185.137 485.16C182.918 485.16 180.934 484.68 179.185 483.72C177.457 482.739 176.102 481.384 175.121 479.656C174.161 477.928 173.681 475.955 173.681 473.736C173.681 471.517 174.161 469.544 175.121 467.816C176.102 466.067 177.457 464.712 179.185 463.752C180.913 462.771 182.886 462.28 185.105 462.28C187.793 462.28 190.054 462.931 191.889 464.232C193.745 465.533 194.972 467.336 195.569 469.64H189.521ZM204.456 466.92V471.464H211.784V475.688H204.456V480.616H212.744V485H198.984V462.536H212.744V466.92H204.456ZM236.393 485H230.921L221.769 471.144V485H216.297V462.536H221.769L230.921 476.456V462.536H236.393V485ZM248.775 462.536C251.143 462.536 253.212 463.005 254.983 463.944C256.754 464.883 258.119 466.205 259.079 467.912C260.06 469.597 260.551 471.549 260.551 473.768C260.551 475.965 260.06 477.917 259.079 479.624C258.119 481.331 256.743 482.653 254.951 483.592C253.18 484.531 251.122 485 248.775 485H240.359V462.536H248.775ZM248.423 480.264C250.492 480.264 252.103 479.699 253.255 478.568C254.407 477.437 254.983 475.837 254.983 473.768C254.983 471.699 254.407 470.088 253.255 468.936C252.103 467.784 250.492 467.208 248.423 467.208H245.831V480.264H248.423ZM277.593 481.032H269.209L267.865 485H262.137L270.265 462.536H276.601L284.729 485H278.937L277.593 481.032ZM276.185 476.808L273.401 468.584L270.649 476.808H276.185Z" fill="black"/>
</svg>
