<svg width="393" height="852" viewBox="0 0 393 852" fill="none" xmlns="http://www.w3.org/2000/svg">
<rect width="393" height="852" fill="white"/>
<rect x="29" y="744" width="336" height="47" rx="14" fill="black"/>
<path d="M170.107 763.7V766.54H174.687V769.18H170.107V772.26H175.287V775H166.687V760.96H175.287V763.7H170.107ZM184.308 763.72C185.614 763.72 186.654 764.147 187.428 765C188.214 765.84 188.608 767 188.608 768.48V775H185.208V768.94C185.208 768.193 185.014 767.613 184.628 767.2C184.241 766.787 183.721 766.58 183.068 766.58C182.414 766.58 181.894 766.787 181.508 767.2C181.121 767.613 180.928 768.193 180.928 768.94V775H177.508V763.84H180.928V765.32C181.274 764.827 181.741 764.44 182.328 764.16C182.914 763.867 183.574 763.72 184.308 763.72ZM197.204 772.1V775H195.464C194.224 775 193.257 774.7 192.564 774.1C191.871 773.487 191.524 772.493 191.524 771.12V766.68H190.164V763.84H191.524V761.12H194.944V763.84H197.184V766.68H194.944V771.16C194.944 771.493 195.024 771.733 195.184 771.88C195.344 772.027 195.611 772.1 195.984 772.1H197.204ZM202.529 765.7C202.929 765.087 203.429 764.607 204.029 764.26C204.629 763.9 205.296 763.72 206.029 763.72V767.34H205.089C204.236 767.34 203.596 767.527 203.169 767.9C202.742 768.26 202.529 768.9 202.529 769.82V775H199.109V763.84H202.529V765.7ZM206.984 769.4C206.984 768.253 207.197 767.247 207.624 766.38C208.064 765.513 208.657 764.847 209.404 764.38C210.15 763.913 210.984 763.68 211.904 763.68C212.69 763.68 213.377 763.84 213.964 764.16C214.564 764.48 215.024 764.9 215.344 765.42V763.84H218.764V775H215.344V773.42C215.01 773.94 214.544 774.36 213.944 774.68C213.357 775 212.67 775.16 211.884 775.16C210.977 775.16 210.15 774.927 209.404 774.46C208.657 773.98 208.064 773.307 207.624 772.44C207.197 771.56 206.984 770.547 206.984 769.4ZM215.344 769.42C215.344 768.567 215.104 767.893 214.624 767.4C214.157 766.907 213.584 766.66 212.904 766.66C212.224 766.66 211.644 766.907 211.164 767.4C210.697 767.88 210.464 768.547 210.464 769.4C210.464 770.253 210.697 770.933 211.164 771.44C211.644 771.933 212.224 772.18 212.904 772.18C213.584 772.18 214.157 771.933 214.624 771.44C215.104 770.947 215.344 770.273 215.344 769.42ZM224.658 765.7C225.058 765.087 225.558 764.607 226.158 764.26C226.758 763.9 227.425 763.72 228.158 763.72V767.34H227.218C226.365 767.34 225.725 767.527 225.298 767.9C224.871 768.26 224.658 768.9 224.658 769.82V775H221.238V763.84H224.658V765.7Z" fill="white"/>
<circle cx="196.5" cy="252.5" r="86.5" fill="#D9D9D9"/>
<rect width="393" height="72" fill="white"/>
<path d="M35.9187 45.105C35.1487 45.105 34.4587 44.98 33.8487 44.73C33.2387 44.48 32.7487 44.11 32.3787 43.62C32.0187 43.13 31.8287 42.54 31.8087 41.85H34.5387C34.5787 42.24 34.7137 42.54 34.9437 42.75C35.1737 42.95 35.4737 43.05 35.8437 43.05C36.2237 43.05 36.5237 42.965 36.7437 42.795C36.9637 42.615 37.0737 42.37 37.0737 42.06C37.0737 41.8 36.9837 41.585 36.8037 41.415C36.6337 41.245 36.4187 41.105 36.1587 40.995C35.9087 40.885 35.5487 40.76 35.0787 40.62C34.3987 40.41 33.8437 40.2 33.4137 39.99C32.9837 39.78 32.6137 39.47 32.3037 39.06C31.9937 38.65 31.8387 38.115 31.8387 37.455C31.8387 36.475 32.1937 35.71 32.9037 35.16C33.6137 34.6 34.5387 34.32 35.6787 34.32C36.8387 34.32 37.7737 34.6 38.4837 35.16C39.1937 35.71 39.5737 36.48 39.6237 37.47H36.8487C36.8287 37.13 36.7037 36.865 36.4737 36.675C36.2437 36.475 35.9487 36.375 35.5887 36.375C35.2787 36.375 35.0287 36.46 34.8387 36.63C34.6487 36.79 34.5537 37.025 34.5537 37.335C34.5537 37.675 34.7137 37.94 35.0337 38.13C35.3537 38.32 35.8537 38.525 36.5337 38.745C37.2137 38.975 37.7637 39.195 38.1837 39.405C38.6137 39.615 38.9837 39.92 39.2937 40.32C39.6037 40.72 39.7587 41.235 39.7587 41.865C39.7587 42.465 39.6037 43.01 39.2937 43.5C38.9937 43.99 38.5537 44.38 37.9737 44.67C37.3937 44.96 36.7087 45.105 35.9187 45.105ZM43.8572 34.47V40.77C43.8572 41.4 44.0122 41.885 44.3222 42.225C44.6322 42.565 45.0872 42.735 45.6872 42.735C46.2872 42.735 46.7472 42.565 47.0672 42.225C47.3872 41.885 47.5472 41.4 47.5472 40.77V34.47H50.1122V40.755C50.1122 41.695 49.9122 42.49 49.5122 43.14C49.1122 43.79 48.5722 44.28 47.8922 44.61C47.2222 44.94 46.4722 45.105 45.6422 45.105C44.8122 45.105 44.0672 44.945 43.4072 44.625C42.7572 44.295 42.2422 43.805 41.8622 43.155C41.4822 42.495 41.2922 41.695 41.2922 40.755V34.47H43.8572ZM58.4684 43.14H54.5384L53.9084 45H51.2234L55.0334 34.47H58.0034L61.8134 45H59.0984L58.4684 43.14ZM57.8084 41.16L56.5034 37.305L55.2134 41.16H57.8084ZM69.963 37.8C69.773 37.45 69.498 37.185 69.138 37.005C68.788 36.815 68.373 36.72 67.893 36.72C67.063 36.72 66.398 36.995 65.898 37.545C65.398 38.085 65.148 38.81 65.148 39.72C65.148 40.69 65.408 41.45 65.928 42C66.458 42.54 67.183 42.81 68.103 42.81C68.733 42.81 69.263 42.65 69.693 42.33C70.133 42.01 70.453 41.55 70.653 40.95H67.398V39.06H72.978V41.445C72.788 42.085 72.463 42.68 72.003 43.23C71.553 43.78 70.978 44.225 70.278 44.565C69.578 44.905 68.788 45.075 67.908 45.075C66.868 45.075 65.938 44.85 65.118 44.4C64.308 43.94 63.673 43.305 63.213 42.495C62.763 41.685 62.538 40.76 62.538 39.72C62.538 38.68 62.763 37.755 63.213 36.945C63.673 36.125 64.308 35.49 65.118 35.04C65.928 34.58 66.853 34.35 67.893 34.35C69.153 34.35 70.213 34.655 71.073 35.265C71.943 35.875 72.518 36.72 72.798 37.8H69.963ZM76.9638 36.525V38.655H80.3988V40.635H76.9638V42.945H80.8488V45H74.3988V34.47H80.8488V36.525H76.9638ZM91.934 45H89.369L85.079 38.505V45H82.514V34.47H85.079L89.369 40.995V34.47H91.934V45ZM97.7383 34.47C98.8483 34.47 99.8183 34.69 100.648 35.13C101.478 35.57 102.118 36.19 102.568 36.99C103.028 37.78 103.258 38.695 103.258 39.735C103.258 40.765 103.028 41.68 102.568 42.48C102.118 43.28 101.473 43.9 100.633 44.34C99.8033 44.78 98.8383 45 97.7383 45H93.7933V34.47H97.7383ZM97.5733 42.78C98.5433 42.78 99.2983 42.515 99.8383 41.985C100.378 41.455 100.648 40.705 100.648 39.735C100.648 38.765 100.378 38.01 99.8383 37.47C99.2983 36.93 98.5433 36.66 97.5733 36.66H96.3583V42.78H97.5733ZM111.247 43.14H107.317L106.687 45H104.002L107.812 34.47H110.782L114.592 45H111.877L111.247 43.14ZM110.587 41.16L109.282 37.305L107.992 41.16H110.587Z" fill="black"/>
<rect x="29" y="549" width="336" height="47" rx="14" fill="#E9E9E9"/>
<path d="M60.42 580.18C59.58 580.18 58.8267 580.04 58.16 579.76C57.4933 579.467 56.9667 579.067 56.58 578.56C56.1933 578.04 55.98 577.447 55.94 576.78H57.82C57.8733 577.327 58.1267 577.773 58.58 578.12C59.0467 578.467 59.6533 578.64 60.4 578.64C61.0933 578.64 61.64 578.487 62.04 578.18C62.44 577.873 62.64 577.487 62.64 577.02C62.64 576.54 62.4267 576.187 62 575.96C61.5733 575.72 60.9133 575.487 60.02 575.26C59.2067 575.047 58.54 574.833 58.02 574.62C57.5133 574.393 57.0733 574.067 56.7 573.64C56.34 573.2 56.16 572.627 56.16 571.92C56.16 571.36 56.3267 570.847 56.66 570.38C56.9933 569.913 57.4667 569.547 58.08 569.28C58.6933 569 59.3933 568.86 60.18 568.86C61.3933 568.86 62.3733 569.167 63.12 569.78C63.8667 570.393 64.2667 571.233 64.32 572.3H62.5C62.46 571.727 62.2267 571.267 61.8 570.92C61.3867 570.573 60.8267 570.4 60.12 570.4C59.4667 570.4 58.9467 570.54 58.56 570.82C58.1733 571.1 57.98 571.467 57.98 571.92C57.98 572.28 58.0933 572.58 58.32 572.82C58.56 573.047 58.8533 573.233 59.2 573.38C59.56 573.513 60.0533 573.667 60.68 573.84C61.4667 574.053 62.1067 574.267 62.6 574.48C63.0933 574.68 63.5133 574.987 63.86 575.4C64.22 575.813 64.4067 576.353 64.42 577.02C64.42 577.62 64.2533 578.16 63.92 578.64C63.5867 579.12 63.1133 579.5 62.5 579.78C61.9 580.047 61.2067 580.18 60.42 580.18ZM76.9892 574.1C76.9892 574.447 76.9692 574.813 76.9292 575.2H68.1692C68.2359 576.28 68.6026 577.127 69.2692 577.74C69.9492 578.34 70.7692 578.64 71.7292 578.64C72.5159 578.64 73.1692 578.46 73.6892 578.1C74.2226 577.727 74.5959 577.233 74.8092 576.62H76.7692C76.4759 577.673 75.8892 578.533 75.0092 579.2C74.1292 579.853 73.0359 580.18 71.7292 580.18C70.6892 580.18 69.7559 579.947 68.9292 579.48C68.1159 579.013 67.4759 578.353 67.0092 577.5C66.5426 576.633 66.3092 575.633 66.3092 574.5C66.3092 573.367 66.5359 572.373 66.9892 571.52C67.4426 570.667 68.0759 570.013 68.8892 569.56C69.7159 569.093 70.6626 568.86 71.7292 568.86C72.7692 568.86 73.6892 569.087 74.4892 569.54C75.2892 569.993 75.9026 570.62 76.3292 571.42C76.7692 572.207 76.9892 573.1 76.9892 574.1ZM75.1092 573.72C75.1092 573.027 74.9559 572.433 74.6492 571.94C74.3426 571.433 73.9226 571.053 73.3892 570.8C72.8692 570.533 72.2892 570.4 71.6492 570.4C70.7292 570.4 69.9426 570.693 69.2892 571.28C68.6492 571.867 68.2826 572.68 68.1892 573.72H75.1092ZM89.1116 569.04V580H87.2916V578.38C86.9449 578.94 86.4582 579.38 85.8316 579.7C85.2182 580.007 84.5382 580.16 83.7916 580.16C82.9382 580.16 82.1716 579.987 81.4916 579.64C80.8116 579.28 80.2716 578.747 79.8716 578.04C79.4849 577.333 79.2916 576.473 79.2916 575.46V569.04H81.0916V575.22C81.0916 576.3 81.3649 577.133 81.9116 577.72C82.4582 578.293 83.2049 578.58 84.1516 578.58C85.1249 578.58 85.8916 578.28 86.4516 577.68C87.0116 577.08 87.2916 576.207 87.2916 575.06V569.04H89.1116ZM102.185 574.1C102.185 574.447 102.165 574.813 102.125 575.2H93.3645C93.4312 576.28 93.7979 577.127 94.4645 577.74C95.1445 578.34 95.9645 578.64 96.9245 578.64C97.7112 578.64 98.3645 578.46 98.8845 578.1C99.4179 577.727 99.7912 577.233 100.005 576.62H101.965C101.671 577.673 101.085 578.533 100.205 579.2C99.3245 579.853 98.2312 580.18 96.9245 580.18C95.8845 580.18 94.9512 579.947 94.1245 579.48C93.3112 579.013 92.6712 578.353 92.2045 577.5C91.7379 576.633 91.5045 575.633 91.5045 574.5C91.5045 573.367 91.7312 572.373 92.1845 571.52C92.6379 570.667 93.2712 570.013 94.0845 569.56C94.9112 569.093 95.8579 568.86 96.9245 568.86C97.9645 568.86 98.8845 569.087 99.6845 569.54C100.485 569.993 101.098 570.62 101.525 571.42C101.965 572.207 102.185 573.1 102.185 574.1ZM100.305 573.72C100.305 573.027 100.151 572.433 99.8445 571.94C99.5379 571.433 99.1179 571.053 98.5845 570.8C98.0645 570.533 97.4845 570.4 96.8445 570.4C95.9245 570.4 95.1379 570.693 94.4845 571.28C93.8445 571.867 93.4779 572.68 93.3845 573.72H100.305ZM117.767 568.84C118.62 568.84 119.38 569.02 120.047 569.38C120.714 569.727 121.24 570.253 121.627 570.96C122.014 571.667 122.207 572.527 122.207 573.54V580H120.407V573.8C120.407 572.707 120.134 571.873 119.587 571.3C119.054 570.713 118.327 570.42 117.407 570.42C116.46 570.42 115.707 570.727 115.147 571.34C114.587 571.94 114.307 572.813 114.307 573.96V580H112.507V573.8C112.507 572.707 112.234 571.873 111.687 571.3C111.154 570.713 110.427 570.42 109.507 570.42C108.56 570.42 107.807 570.727 107.247 571.34C106.687 571.94 106.407 572.813 106.407 573.96V580H104.587V569.04H106.407V570.62C106.767 570.047 107.247 569.607 107.847 569.3C108.46 568.993 109.134 568.84 109.867 568.84C110.787 568.84 111.6 569.047 112.307 569.46C113.014 569.873 113.54 570.48 113.887 571.28C114.194 570.507 114.7 569.907 115.407 569.48C116.114 569.053 116.9 568.84 117.767 568.84ZM124.512 574.48C124.512 573.36 124.739 572.38 125.192 571.54C125.646 570.687 126.266 570.027 127.052 569.56C127.852 569.093 128.739 568.86 129.712 568.86C130.672 568.86 131.506 569.067 132.212 569.48C132.919 569.893 133.446 570.413 133.792 571.04V569.04H135.632V580H133.792V577.96C133.432 578.6 132.892 579.133 132.172 579.56C131.466 579.973 130.639 580.18 129.692 580.18C128.719 580.18 127.839 579.94 127.052 579.46C126.266 578.98 125.646 578.307 125.192 577.44C124.739 576.573 124.512 575.587 124.512 574.48ZM133.792 574.5C133.792 573.673 133.626 572.953 133.292 572.34C132.959 571.727 132.506 571.26 131.932 570.94C131.372 570.607 130.752 570.44 130.072 570.44C129.392 570.44 128.772 570.6 128.212 570.92C127.652 571.24 127.206 571.707 126.872 572.32C126.539 572.933 126.372 573.653 126.372 574.48C126.372 575.32 126.539 576.053 126.872 576.68C127.206 577.293 127.652 577.767 128.212 578.1C128.772 578.42 129.392 578.58 130.072 578.58C130.752 578.58 131.372 578.42 131.932 578.1C132.506 577.767 132.959 577.293 133.292 576.68C133.626 576.053 133.792 575.327 133.792 574.5ZM139.648 567.26C139.301 567.26 139.008 567.14 138.768 566.9C138.528 566.66 138.408 566.367 138.408 566.02C138.408 565.673 138.528 565.38 138.768 565.14C139.008 564.9 139.301 564.78 139.648 564.78C139.981 564.78 140.261 564.9 140.488 565.14C140.728 565.38 140.848 565.673 140.848 566.02C140.848 566.367 140.728 566.66 140.488 566.9C140.261 567.14 139.981 567.26 139.648 567.26ZM140.528 569.04V580H138.708V569.04H140.528ZM145.45 565.2V580H143.63V565.2H145.45ZM158.552 567.18C160.032 567.18 161.318 567.46 162.412 568.02C163.505 568.58 164.345 569.367 164.932 570.38C165.518 571.38 165.812 572.54 165.812 573.86C165.812 574.913 165.638 575.927 165.292 576.9C164.945 577.86 164.438 578.64 163.772 579.24C163.118 579.84 162.352 580.14 161.472 580.14C160.805 580.14 160.292 579.973 159.932 579.64C159.572 579.307 159.365 578.853 159.312 578.28C158.898 578.853 158.372 579.307 157.732 579.64C157.105 579.973 156.438 580.14 155.732 580.14C154.718 580.14 153.918 579.833 153.332 579.22C152.758 578.593 152.472 577.753 152.472 576.7C152.472 575.7 152.678 574.767 153.092 573.9C153.518 573.033 154.105 572.34 154.852 571.82C155.598 571.287 156.445 571.02 157.392 571.02C158.658 571.02 159.512 571.5 159.952 572.46L160.172 571.22H161.752L160.752 577C160.712 577.253 160.692 577.487 160.692 577.7C160.692 578.5 161.045 578.9 161.752 578.9C162.285 578.9 162.745 578.647 163.132 578.14C163.532 577.633 163.832 577 164.032 576.24C164.232 575.467 164.332 574.707 164.332 573.96C164.332 572.213 163.805 570.86 162.752 569.9C161.712 568.94 160.238 568.46 158.332 568.46C156.745 568.46 155.312 568.847 154.032 569.62C152.765 570.38 151.772 571.427 151.052 572.76C150.332 574.093 149.972 575.567 149.972 577.18C149.958 578.94 150.485 580.293 151.552 581.24C152.618 582.2 154.098 582.68 155.992 582.68C157.245 582.68 158.352 582.453 159.312 582L159.552 583.24C158.365 583.733 157.058 583.98 155.632 583.98C154.205 583.98 152.945 583.707 151.852 583.16C150.772 582.627 149.932 581.853 149.332 580.84C148.745 579.84 148.452 578.673 148.452 577.34C148.452 575.46 148.885 573.747 149.752 572.2C150.618 570.64 151.818 569.413 153.352 568.52C154.898 567.627 156.632 567.18 158.552 567.18ZM156.272 578.72C156.872 578.72 157.425 578.547 157.932 578.2C158.438 577.84 158.838 577.36 159.132 576.76C159.425 576.147 159.572 575.48 159.572 574.76C159.572 574.067 159.378 573.507 158.992 573.08C158.618 572.64 158.085 572.42 157.392 572.42C156.752 572.42 156.185 572.613 155.692 573C155.212 573.373 154.838 573.873 154.572 574.5C154.305 575.113 154.172 575.753 154.172 576.42C154.172 577.127 154.352 577.687 154.712 578.1C155.072 578.513 155.592 578.72 156.272 578.72ZM173.326 568.86C174.272 568.86 175.099 569.067 175.806 569.48C176.526 569.893 177.059 570.413 177.406 571.04V569.04H179.246V580.24C179.246 581.24 179.032 582.127 178.606 582.9C178.179 583.687 177.566 584.3 176.766 584.74C175.979 585.18 175.059 585.4 174.006 585.4C172.566 585.4 171.366 585.06 170.406 584.38C169.446 583.7 168.879 582.773 168.706 581.6H170.506C170.706 582.267 171.119 582.8 171.746 583.2C172.372 583.613 173.126 583.82 174.006 583.82C175.006 583.82 175.819 583.507 176.446 582.88C177.086 582.253 177.406 581.373 177.406 580.24V577.94C177.046 578.58 176.512 579.113 175.806 579.54C175.099 579.967 174.272 580.18 173.326 580.18C172.352 580.18 171.466 579.94 170.666 579.46C169.879 578.98 169.259 578.307 168.806 577.44C168.352 576.573 168.126 575.587 168.126 574.48C168.126 573.36 168.352 572.38 168.806 571.54C169.259 570.687 169.879 570.027 170.666 569.56C171.466 569.093 172.352 568.86 173.326 568.86ZM177.406 574.5C177.406 573.673 177.239 572.953 176.906 572.34C176.572 571.727 176.119 571.26 175.546 570.94C174.986 570.607 174.366 570.44 173.686 570.44C173.006 570.44 172.386 570.6 171.826 570.92C171.266 571.24 170.819 571.707 170.486 572.32C170.152 572.933 169.986 573.653 169.986 574.48C169.986 575.32 170.152 576.053 170.486 576.68C170.819 577.293 171.266 577.767 171.826 578.1C172.386 578.42 173.006 578.58 173.686 578.58C174.366 578.58 174.986 578.42 175.546 578.1C176.119 577.767 176.572 577.293 176.906 576.68C177.239 576.053 177.406 575.327 177.406 574.5ZM195.501 568.84C196.355 568.84 197.115 569.02 197.781 569.38C198.448 569.727 198.975 570.253 199.361 570.96C199.748 571.667 199.941 572.527 199.941 573.54V580H198.141V573.8C198.141 572.707 197.868 571.873 197.321 571.3C196.788 570.713 196.061 570.42 195.141 570.42C194.195 570.42 193.441 570.727 192.881 571.34C192.321 571.94 192.041 572.813 192.041 573.96V580H190.241V573.8C190.241 572.707 189.968 571.873 189.421 571.3C188.888 570.713 188.161 570.42 187.241 570.42C186.295 570.42 185.541 570.727 184.981 571.34C184.421 571.94 184.141 572.813 184.141 573.96V580H182.321V569.04H184.141V570.62C184.501 570.047 184.981 569.607 185.581 569.3C186.195 568.993 186.868 568.84 187.601 568.84C188.521 568.84 189.335 569.047 190.041 569.46C190.748 569.873 191.275 570.48 191.621 571.28C191.928 570.507 192.435 569.907 193.141 569.48C193.848 569.053 194.635 568.84 195.501 568.84ZM202.247 574.48C202.247 573.36 202.473 572.38 202.927 571.54C203.38 570.687 204 570.027 204.787 569.56C205.587 569.093 206.473 568.86 207.447 568.86C208.407 568.86 209.24 569.067 209.947 569.48C210.653 569.893 211.18 570.413 211.527 571.04V569.04H213.367V580H211.527V577.96C211.167 578.6 210.627 579.133 209.907 579.56C209.2 579.973 208.373 580.18 207.427 580.18C206.453 580.18 205.573 579.94 204.787 579.46C204 578.98 203.38 578.307 202.927 577.44C202.473 576.573 202.247 575.587 202.247 574.48ZM211.527 574.5C211.527 573.673 211.36 572.953 211.027 572.34C210.693 571.727 210.24 571.26 209.667 570.94C209.107 570.607 208.487 570.44 207.807 570.44C207.127 570.44 206.507 570.6 205.947 570.92C205.387 571.24 204.94 571.707 204.607 572.32C204.273 572.933 204.107 573.653 204.107 574.48C204.107 575.32 204.273 576.053 204.607 576.68C204.94 577.293 205.387 577.767 205.947 578.1C206.507 578.42 207.127 578.58 207.807 578.58C208.487 578.58 209.107 578.42 209.667 578.1C210.24 577.767 210.693 577.293 211.027 576.68C211.36 576.053 211.527 575.327 211.527 574.5ZM217.382 567.26C217.036 567.26 216.742 567.14 216.502 566.9C216.262 566.66 216.142 566.367 216.142 566.02C216.142 565.673 216.262 565.38 216.502 565.14C216.742 564.9 217.036 564.78 217.382 564.78C217.716 564.78 217.996 564.9 218.222 565.14C218.462 565.38 218.582 565.673 218.582 566.02C218.582 566.367 218.462 566.66 218.222 566.9C217.996 567.14 217.716 567.26 217.382 567.26ZM218.262 569.04V580H216.442V569.04H218.262ZM223.184 565.2V580H221.364V565.2H223.184ZM226.866 580.12C226.519 580.12 226.226 580 225.986 579.76C225.746 579.52 225.626 579.227 225.626 578.88C225.626 578.533 225.746 578.24 225.986 578C226.226 577.76 226.519 577.64 226.866 577.64C227.199 577.64 227.479 577.76 227.706 578C227.946 578.24 228.066 578.533 228.066 578.88C228.066 579.227 227.946 579.52 227.706 579.76C227.479 580 227.199 580.12 226.866 580.12ZM229.805 574.5C229.805 573.367 230.032 572.38 230.485 571.54C230.939 570.687 231.565 570.027 232.365 569.56C233.179 569.093 234.105 568.86 235.145 568.86C236.492 568.86 237.599 569.187 238.465 569.84C239.345 570.493 239.925 571.4 240.205 572.56H238.245C238.059 571.893 237.692 571.367 237.145 570.98C236.612 570.593 235.945 570.4 235.145 570.4C234.105 570.4 233.265 570.76 232.625 571.48C231.985 572.187 231.665 573.193 231.665 574.5C231.665 575.82 231.985 576.84 232.625 577.56C233.265 578.28 234.105 578.64 235.145 578.64C235.945 578.64 236.612 578.453 237.145 578.08C237.679 577.707 238.045 577.173 238.245 576.48H240.205C239.912 577.6 239.325 578.5 238.445 579.18C237.565 579.847 236.465 580.18 235.145 580.18C234.105 580.18 233.179 579.947 232.365 579.48C231.565 579.013 230.939 578.353 230.485 577.5C230.032 576.647 229.805 575.647 229.805 574.5ZM247.414 580.18C246.387 580.18 245.454 579.947 244.614 579.48C243.787 579.013 243.134 578.353 242.654 577.5C242.187 576.633 241.954 575.633 241.954 574.5C241.954 573.38 242.194 572.393 242.674 571.54C243.167 570.673 243.834 570.013 244.674 569.56C245.514 569.093 246.454 568.86 247.494 568.86C248.534 568.86 249.474 569.093 250.314 569.56C251.154 570.013 251.814 570.667 252.294 571.52C252.787 572.373 253.034 573.367 253.034 574.5C253.034 575.633 252.78 576.633 252.274 577.5C251.78 578.353 251.107 579.013 250.254 579.48C249.4 579.947 248.454 580.18 247.414 580.18ZM247.414 578.58C248.067 578.58 248.68 578.427 249.254 578.12C249.827 577.813 250.287 577.353 250.634 576.74C250.994 576.127 251.174 575.38 251.174 574.5C251.174 573.62 251 572.873 250.654 572.26C250.307 571.647 249.854 571.193 249.294 570.9C248.734 570.593 248.127 570.44 247.474 570.44C246.807 570.44 246.194 570.593 245.634 570.9C245.087 571.193 244.647 571.647 244.314 572.26C243.98 572.873 243.814 573.62 243.814 574.5C243.814 575.393 243.974 576.147 244.294 576.76C244.627 577.373 245.067 577.833 245.614 578.14C246.16 578.433 246.76 578.58 247.414 578.58ZM268.607 568.84C269.46 568.84 270.22 569.02 270.887 569.38C271.553 569.727 272.08 570.253 272.467 570.96C272.853 571.667 273.047 572.527 273.047 573.54V580H271.247V573.8C271.247 572.707 270.973 571.873 270.427 571.3C269.893 570.713 269.167 570.42 268.247 570.42C267.3 570.42 266.547 570.727 265.987 571.34C265.427 571.94 265.147 572.813 265.147 573.96V580H263.347V573.8C263.347 572.707 263.073 571.873 262.527 571.3C261.993 570.713 261.267 570.42 260.347 570.42C259.4 570.42 258.647 570.727 258.087 571.34C257.527 571.94 257.247 572.813 257.247 573.96V580H255.427V569.04H257.247V570.62C257.607 570.047 258.087 569.607 258.687 569.3C259.3 568.993 259.973 568.84 260.707 568.84C261.627 568.84 262.44 569.047 263.147 569.46C263.853 569.873 264.38 570.48 264.727 571.28C265.033 570.507 265.54 569.907 266.247 569.48C266.953 569.053 267.74 568.84 268.607 568.84Z" fill="black" fill-opacity="0.7"/>
<rect x="29" y="626" width="336" height="47" rx="14" fill="#E9E9E9"/>
<path d="M89.2 389.04C90.664 389.352 91.84 390.084 92.728 391.236C93.616 392.364 94.06 393.66 94.06 395.124C94.06 397.236 93.316 398.916 91.828 400.164C90.364 401.388 88.312 402 85.672 402H73.9V376.728H85.276C87.844 376.728 89.848 377.316 91.288 378.492C92.752 379.668 93.484 381.264 93.484 383.28C93.484 384.768 93.088 386.004 92.296 386.988C91.528 387.972 90.496 388.656 89.2 389.04ZM80.056 386.952H84.088C85.096 386.952 85.864 386.736 86.392 386.304C86.944 385.848 87.22 385.188 87.22 384.324C87.22 383.46 86.944 382.8 86.392 382.344C85.864 381.888 85.096 381.66 84.088 381.66H80.056V386.952ZM84.592 397.032C85.624 397.032 86.416 396.804 86.968 396.348C87.544 395.868 87.832 395.184 87.832 394.296C87.832 393.408 87.532 392.712 86.932 392.208C86.356 391.704 85.552 391.452 84.52 391.452H80.056V397.032H84.592ZM116.566 391.632C116.566 392.208 116.53 392.808 116.458 393.432H102.526C102.622 394.68 103.018 395.64 103.714 396.312C104.434 396.96 105.31 397.284 106.342 397.284C107.878 397.284 108.946 396.636 109.546 395.34H116.098C115.762 396.66 115.15 397.848 114.262 398.904C113.398 399.96 112.306 400.788 110.986 401.388C109.666 401.988 108.19 402.288 106.558 402.288C104.59 402.288 102.838 401.868 101.302 401.028C99.7664 400.188 98.5664 398.988 97.7024 397.428C96.8384 395.868 96.4064 394.044 96.4064 391.956C96.4064 389.868 96.8264 388.044 97.6664 386.484C98.5304 384.924 99.7304 383.724 101.266 382.884C102.802 382.044 104.566 381.624 106.558 381.624C108.502 381.624 110.23 382.032 111.742 382.848C113.254 383.664 114.43 384.828 115.27 386.34C116.134 387.852 116.566 389.616 116.566 391.632ZM110.266 390.012C110.266 388.956 109.906 388.116 109.186 387.492C108.466 386.868 107.566 386.556 106.486 386.556C105.454 386.556 104.578 386.856 103.858 387.456C103.162 388.056 102.73 388.908 102.562 390.012H110.266ZM145.446 381.696C147.942 381.696 149.922 382.452 151.386 383.964C152.874 385.476 153.618 387.576 153.618 390.264V402H147.498V391.092C147.498 389.796 147.15 388.8 146.454 388.104C145.782 387.384 144.846 387.024 143.646 387.024C142.446 387.024 141.498 387.384 140.802 388.104C140.13 388.8 139.794 389.796 139.794 391.092V402H133.674V391.092C133.674 389.796 133.326 388.8 132.63 388.104C131.958 387.384 131.022 387.024 129.822 387.024C128.622 387.024 127.674 387.384 126.978 388.104C126.306 388.8 125.97 389.796 125.97 391.092V402H119.814V381.912H125.97V384.432C126.594 383.592 127.41 382.932 128.418 382.452C129.426 381.948 130.566 381.696 131.838 381.696C133.35 381.696 134.694 382.02 135.87 382.668C137.07 383.316 138.006 384.24 138.678 385.44C139.374 384.336 140.322 383.436 141.522 382.74C142.722 382.044 144.03 381.696 145.446 381.696ZM174.588 396.24L178.944 381.912H185.496L178.368 402H170.772L163.644 381.912H170.232L174.588 396.24ZM191.183 379.824C190.103 379.824 189.215 379.512 188.519 378.888C187.847 378.24 187.511 377.448 187.511 376.512C187.511 375.552 187.847 374.76 188.519 374.136C189.215 373.488 190.103 373.164 191.183 373.164C192.239 373.164 193.103 373.488 193.775 374.136C194.471 374.76 194.819 375.552 194.819 376.512C194.819 377.448 194.471 378.24 193.775 378.888C193.103 379.512 192.239 379.824 191.183 379.824ZM194.243 381.912V402H188.087V381.912H194.243ZM210.945 381.696C213.297 381.696 215.169 382.464 216.561 384C217.977 385.512 218.685 387.6 218.685 390.264V402H212.565V391.092C212.565 389.748 212.217 388.704 211.521 387.96C210.825 387.216 209.889 386.844 208.713 386.844C207.537 386.844 206.601 387.216 205.905 387.96C205.209 388.704 204.861 389.748 204.861 391.092V402H198.705V381.912H204.861V384.576C205.485 383.688 206.325 382.992 207.381 382.488C208.437 381.96 209.625 381.696 210.945 381.696ZM221.738 391.92C221.738 389.856 222.122 388.044 222.89 386.484C223.682 384.924 224.75 383.724 226.094 382.884C227.438 382.044 228.938 381.624 230.594 381.624C231.914 381.624 233.114 381.9 234.194 382.452C235.298 383.004 236.162 383.748 236.786 384.684V375.36H242.942V402H236.786V399.12C236.21 400.08 235.382 400.848 234.302 401.424C233.246 402 232.01 402.288 230.594 402.288C228.938 402.288 227.438 401.868 226.094 401.028C224.75 400.164 223.682 398.952 222.89 397.392C222.122 395.808 221.738 393.984 221.738 391.92ZM236.786 391.956C236.786 390.42 236.354 389.208 235.49 388.32C234.65 387.432 233.618 386.988 232.394 386.988C231.17 386.988 230.126 387.432 229.262 388.32C228.422 389.184 228.002 390.384 228.002 391.92C228.002 393.456 228.422 394.68 229.262 395.592C230.126 396.48 231.17 396.924 232.394 396.924C233.618 396.924 234.65 396.48 235.49 395.592C236.354 394.704 236.786 393.492 236.786 391.956ZM256.54 402.288C254.572 402.288 252.796 401.868 251.212 401.028C249.652 400.188 248.416 398.988 247.504 397.428C246.616 395.868 246.172 394.044 246.172 391.956C246.172 389.892 246.628 388.08 247.54 386.52C248.452 384.936 249.7 383.724 251.284 382.884C252.868 382.044 254.644 381.624 256.612 381.624C258.58 381.624 260.356 382.044 261.94 382.884C263.524 383.724 264.772 384.936 265.684 386.52C266.596 388.08 267.052 389.892 267.052 391.956C267.052 394.02 266.584 395.844 265.648 397.428C264.736 398.988 263.476 400.188 261.868 401.028C260.284 401.868 258.508 402.288 256.54 402.288ZM256.54 396.96C257.716 396.96 258.712 396.528 259.528 395.664C260.368 394.8 260.788 393.564 260.788 391.956C260.788 390.348 260.38 389.112 259.564 388.248C258.772 387.384 257.788 386.952 256.612 386.952C255.412 386.952 254.416 387.384 253.624 388.248C252.832 389.088 252.436 390.324 252.436 391.956C252.436 393.564 252.82 394.8 253.588 395.664C254.38 396.528 255.364 396.96 256.54 396.96ZM276.723 391.92C276.723 389.856 277.107 388.044 277.875 386.484C278.667 384.924 279.735 383.724 281.079 382.884C282.423 382.044 283.923 381.624 285.579 381.624C286.899 381.624 288.099 381.9 289.179 382.452C290.283 383.004 291.147 383.748 291.771 384.684V375.36H297.927V402H291.771V399.12C291.195 400.08 290.367 400.848 289.287 401.424C288.231 402 286.995 402.288 285.579 402.288C283.923 402.288 282.423 401.868 281.079 401.028C279.735 400.164 278.667 398.952 277.875 397.392C277.107 395.808 276.723 393.984 276.723 391.92ZM291.771 391.956C291.771 390.42 291.339 389.208 290.475 388.32C289.635 387.432 288.603 386.988 287.379 386.988C286.155 386.988 285.111 387.432 284.247 388.32C283.407 389.184 282.987 390.384 282.987 391.92C282.987 393.456 283.407 394.68 284.247 395.592C285.111 396.48 286.155 396.924 287.379 396.924C288.603 396.924 289.635 396.48 290.475 395.592C291.339 394.704 291.771 393.492 291.771 391.956ZM321.316 391.632C321.316 392.208 321.28 392.808 321.208 393.432H307.276C307.372 394.68 307.768 395.64 308.464 396.312C309.184 396.96 310.06 397.284 311.092 397.284C312.628 397.284 313.696 396.636 314.296 395.34H320.848C320.512 396.66 319.9 397.848 319.012 398.904C318.148 399.96 317.056 400.788 315.736 401.388C314.416 401.988 312.94 402.288 311.308 402.288C309.34 402.288 307.588 401.868 306.052 401.028C304.516 400.188 303.316 398.988 302.452 397.428C301.588 395.868 301.156 394.044 301.156 391.956C301.156 389.868 301.576 388.044 302.416 386.484C303.28 384.924 304.48 383.724 306.016 382.884C307.552 382.044 309.316 381.624 311.308 381.624C313.252 381.624 314.98 382.032 316.492 382.848C318.004 383.664 319.18 384.828 320.02 386.34C320.884 387.852 321.316 389.616 321.316 391.632ZM315.016 390.012C315.016 388.956 314.656 388.116 313.936 387.492C313.216 386.868 312.316 386.556 311.236 386.556C310.204 386.556 309.328 386.856 308.608 387.456C307.912 388.056 307.48 388.908 307.312 390.012H315.016ZM153.653 450.24L158.009 435.912H164.561L157.433 456H149.837L142.709 435.912H149.297L153.653 450.24ZM176.296 456.288C174.328 456.288 172.552 455.868 170.968 455.028C169.408 454.188 168.172 452.988 167.26 451.428C166.372 449.868 165.928 448.044 165.928 445.956C165.928 443.892 166.384 442.08 167.296 440.52C168.208 438.936 169.456 437.724 171.04 436.884C172.624 436.044 174.4 435.624 176.368 435.624C178.336 435.624 180.112 436.044 181.696 436.884C183.28 437.724 184.528 438.936 185.44 440.52C186.352 442.08 186.808 443.892 186.808 445.956C186.808 448.02 186.34 449.844 185.404 451.428C184.492 452.988 183.232 454.188 181.624 455.028C180.04 455.868 178.264 456.288 176.296 456.288ZM176.296 450.96C177.472 450.96 178.468 450.528 179.284 449.664C180.124 448.8 180.544 447.564 180.544 445.956C180.544 444.348 180.136 443.112 179.32 442.248C178.528 441.384 177.544 440.952 176.368 440.952C175.168 440.952 174.172 441.384 173.38 442.248C172.588 443.088 172.192 444.324 172.192 445.956C172.192 447.564 172.576 448.8 173.344 449.664C174.136 450.528 175.12 450.96 176.296 450.96ZM196.23 429.36V456H190.074V429.36H196.23ZM211.887 450.78V456H208.755C206.523 456 204.783 455.46 203.535 454.38C202.287 453.276 201.663 451.488 201.663 449.016V441.024H199.215V435.912H201.663V431.016H207.819V435.912H211.851V441.024H207.819V449.088C207.819 449.688 207.963 450.12 208.251 450.384C208.539 450.648 209.019 450.78 209.691 450.78H211.887ZM214.092 445.92C214.092 443.856 214.476 442.044 215.244 440.484C216.036 438.924 217.104 437.724 218.448 436.884C219.792 436.044 221.292 435.624 222.948 435.624C224.364 435.624 225.6 435.912 226.656 436.488C227.736 437.064 228.564 437.82 229.14 438.756V435.912H235.296V456H229.14V453.156C228.54 454.092 227.7 454.848 226.62 455.424C225.564 456 224.328 456.288 222.912 456.288C221.28 456.288 219.792 455.868 218.448 455.028C217.104 454.164 216.036 452.952 215.244 451.392C214.476 449.808 214.092 447.984 214.092 445.92ZM229.14 445.956C229.14 444.42 228.708 443.208 227.844 442.32C227.004 441.432 225.972 440.988 224.748 440.988C223.524 440.988 222.48 441.432 221.616 442.32C220.776 443.184 220.356 444.384 220.356 445.92C220.356 447.456 220.776 448.68 221.616 449.592C222.48 450.48 223.524 450.924 224.748 450.924C225.972 450.924 227.004 450.48 227.844 449.592C228.708 448.704 229.14 447.492 229.14 445.956ZM247.85 429.828L247.13 447.072H241.91L241.19 429.828H247.85ZM244.61 456.288C243.53 456.288 242.642 455.976 241.946 455.352C241.274 454.704 240.938 453.912 240.938 452.976C240.938 452.016 241.274 451.212 241.946 450.564C242.642 449.916 243.53 449.592 244.61 449.592C245.666 449.592 246.53 449.916 247.202 450.564C247.898 451.212 248.246 452.016 248.246 452.976C248.246 453.912 247.898 454.704 247.202 455.352C246.53 455.976 245.666 456.288 244.61 456.288Z" fill="black"/>
<path d="M31.352 534.278V537.54H34.908V538.59H31.352V541.95H35.328V543H30.078V533.228H35.328V534.278H31.352ZM42.5757 537.33V538.408H36.9897V537.33H42.5757ZM54.1927 535.188C54.79 535.188 55.322 535.314 55.7887 535.566C56.2553 535.809 56.624 536.177 56.8947 536.672C57.1653 537.167 57.3007 537.769 57.3007 538.478V543H56.0407V538.66C56.0407 537.895 55.8493 537.311 55.4667 536.91C55.0933 536.499 54.5847 536.294 53.9407 536.294C53.278 536.294 52.7507 536.509 52.3587 536.938C51.9667 537.358 51.7707 537.969 51.7707 538.772V543H50.5107V538.66C50.5107 537.895 50.3193 537.311 49.9367 536.91C49.5633 536.499 49.0547 536.294 48.4107 536.294C47.748 536.294 47.2207 536.509 46.8287 536.938C46.4367 537.358 46.2407 537.969 46.2407 538.772V543H44.9667V535.328H46.2407V536.434C46.4927 536.033 46.8287 535.725 47.2487 535.51C47.678 535.295 48.1493 535.188 48.6627 535.188C49.3067 535.188 49.876 535.333 50.3707 535.622C50.8653 535.911 51.234 536.336 51.4767 536.896C51.6913 536.355 52.046 535.935 52.5407 535.636C53.0353 535.337 53.586 535.188 54.1927 535.188ZM58.9145 539.136C58.9145 538.352 59.0732 537.666 59.3905 537.078C59.7078 536.481 60.1418 536.019 60.6925 535.692C61.2525 535.365 61.8732 535.202 62.5545 535.202C63.2265 535.202 63.8098 535.347 64.3045 535.636C64.7992 535.925 65.1678 536.289 65.4105 536.728V535.328H66.6985V543H65.4105V541.572C65.1585 542.02 64.7805 542.393 64.2765 542.692C63.7818 542.981 63.2032 543.126 62.5405 543.126C61.8592 543.126 61.2432 542.958 60.6925 542.622C60.1418 542.286 59.7078 541.815 59.3905 541.208C59.0732 540.601 58.9145 539.911 58.9145 539.136ZM65.4105 539.15C65.4105 538.571 65.2938 538.067 65.0605 537.638C64.8272 537.209 64.5098 536.882 64.1085 536.658C63.7165 536.425 63.2825 536.308 62.8065 536.308C62.3305 536.308 61.8965 536.42 61.5045 536.644C61.1125 536.868 60.7998 537.195 60.5665 537.624C60.3332 538.053 60.2165 538.557 60.2165 539.136C60.2165 539.724 60.3332 540.237 60.5665 540.676C60.7998 541.105 61.1125 541.437 61.5045 541.67C61.8965 541.894 62.3305 542.006 62.8065 542.006C63.2825 542.006 63.7165 541.894 64.1085 541.67C64.5098 541.437 64.8272 541.105 65.0605 540.676C65.2938 540.237 65.4105 539.729 65.4105 539.15ZM69.5094 534.082C69.2668 534.082 69.0614 533.998 68.8934 533.83C68.7254 533.662 68.6414 533.457 68.6414 533.214C68.6414 532.971 68.7254 532.766 68.8934 532.598C69.0614 532.43 69.2668 532.346 69.5094 532.346C69.7428 532.346 69.9388 532.43 70.0974 532.598C70.2654 532.766 70.3494 532.971 70.3494 533.214C70.3494 533.457 70.2654 533.662 70.0974 533.83C69.9388 533.998 69.7428 534.082 69.5094 534.082ZM70.1254 535.328V543H68.8514V535.328H70.1254ZM73.5708 532.64V543H72.2968V532.64H73.5708Z" fill="black"/>
<path d="M33.172 620.098C32.528 620.098 31.9493 619.986 31.436 619.762C30.932 619.529 30.5353 619.211 30.246 618.81C29.9567 618.399 29.8073 617.928 29.798 617.396H31.156C31.2027 617.853 31.3893 618.241 31.716 618.558C32.052 618.866 32.5373 619.02 33.172 619.02C33.7787 619.02 34.2547 618.871 34.6 618.572C34.9547 618.264 35.132 617.872 35.132 617.396C35.132 617.023 35.0293 616.719 34.824 616.486C34.6187 616.253 34.362 616.075 34.054 615.954C33.746 615.833 33.3307 615.702 32.808 615.562C32.164 615.394 31.646 615.226 31.254 615.058C30.8713 614.89 30.54 614.629 30.26 614.274C29.9893 613.91 29.854 613.425 29.854 612.818C29.854 612.286 29.9893 611.815 30.26 611.404C30.5307 610.993 30.9087 610.676 31.394 610.452C31.8887 610.228 32.4533 610.116 33.088 610.116C34.0027 610.116 34.7493 610.345 35.328 610.802C35.916 611.259 36.2473 611.866 36.322 612.622H34.922C34.8753 612.249 34.6793 611.922 34.334 611.642C33.9887 611.353 33.5313 611.208 32.962 611.208C32.43 611.208 31.996 611.348 31.66 611.628C31.324 611.899 31.156 612.281 31.156 612.776C31.156 613.131 31.254 613.42 31.45 613.644C31.6553 613.868 31.9027 614.041 32.192 614.162C32.4907 614.274 32.906 614.405 33.438 614.554C34.082 614.731 34.6 614.909 34.992 615.086C35.384 615.254 35.72 615.52 36 615.884C36.28 616.239 36.42 616.724 36.42 617.34C36.42 617.816 36.294 618.264 36.042 618.684C35.79 619.104 35.4167 619.445 34.922 619.706C34.4273 619.967 33.844 620.098 33.172 620.098ZM45.2948 615.87C45.2948 616.113 45.2808 616.369 45.2528 616.64H39.1208C39.1675 617.396 39.4241 617.989 39.8908 618.418C40.3668 618.838 40.9408 619.048 41.6128 619.048C42.1635 619.048 42.6208 618.922 42.9848 618.67C43.3581 618.409 43.6195 618.063 43.7688 617.634H45.1408C44.9355 618.371 44.5248 618.973 43.9088 619.44C43.2928 619.897 42.5275 620.126 41.6128 620.126C40.8848 620.126 40.2315 619.963 39.6528 619.636C39.0835 619.309 38.6355 618.847 38.3088 618.25C37.9821 617.643 37.8188 616.943 37.8188 616.15C37.8188 615.357 37.9775 614.661 38.2948 614.064C38.6121 613.467 39.0555 613.009 39.6248 612.692C40.2035 612.365 40.8661 612.202 41.6128 612.202C42.3408 612.202 42.9848 612.361 43.5448 612.678C44.1048 612.995 44.5341 613.434 44.8328 613.994C45.1408 614.545 45.2948 615.17 45.2948 615.87ZM43.9788 615.604C43.9788 615.119 43.8715 614.703 43.6568 614.358C43.4421 614.003 43.1481 613.737 42.7748 613.56C42.4108 613.373 42.0048 613.28 41.5568 613.28C40.9128 613.28 40.3621 613.485 39.9048 613.896C39.4568 614.307 39.2001 614.876 39.1348 615.604H43.9788ZM50.7144 612.188C51.6478 612.188 52.4038 612.473 52.9824 613.042C53.5611 613.602 53.8504 614.414 53.8504 615.478V620H52.5904V615.66C52.5904 614.895 52.3991 614.311 52.0164 613.91C51.6338 613.499 51.1111 613.294 50.4484 613.294C49.7764 613.294 49.2398 613.504 48.8384 613.924C48.4464 614.344 48.2504 614.955 48.2504 615.758V620H46.9764V612.328H48.2504V613.42C48.5024 613.028 48.8431 612.725 49.2724 612.51C49.7111 612.295 50.1918 612.188 50.7144 612.188ZM59.7395 612.188C60.3182 612.188 60.8408 612.314 61.3075 612.566C61.7742 612.809 62.1382 613.177 62.3995 613.672C62.6702 614.167 62.8055 614.769 62.8055 615.478V620H61.5455V615.66C61.5455 614.895 61.3542 614.311 60.9715 613.91C60.5888 613.499 60.0662 613.294 59.4035 613.294C58.7315 613.294 58.1948 613.504 57.7935 613.924C57.4015 614.344 57.2055 614.955 57.2055 615.758V620H55.9315V609.64H57.2055V613.42C57.4575 613.028 57.8028 612.725 58.2415 612.51C58.6895 612.295 59.1888 612.188 59.7395 612.188ZM64.4106 616.136C64.4106 615.352 64.5693 614.666 64.8866 614.078C65.2039 613.481 65.6379 613.019 66.1886 612.692C66.7486 612.365 67.3693 612.202 68.0506 612.202C68.7226 612.202 69.3059 612.347 69.8006 612.636C70.2953 612.925 70.6639 613.289 70.9066 613.728V612.328H72.1946V620H70.9066V618.572C70.6546 619.02 70.2766 619.393 69.7726 619.692C69.2779 619.981 68.6993 620.126 68.0366 620.126C67.3553 620.126 66.7393 619.958 66.1886 619.622C65.6379 619.286 65.2039 618.815 64.8866 618.208C64.5693 617.601 64.4106 616.911 64.4106 616.136ZM70.9066 616.15C70.9066 615.571 70.7899 615.067 70.5566 614.638C70.3233 614.209 70.0059 613.882 69.6046 613.658C69.2126 613.425 68.7786 613.308 68.3026 613.308C67.8266 613.308 67.3926 613.42 67.0006 613.644C66.6086 613.868 66.2959 614.195 66.0626 614.624C65.8293 615.053 65.7126 615.557 65.7126 616.136C65.7126 616.724 65.8293 617.237 66.0626 617.676C66.2959 618.105 66.6086 618.437 67.0006 618.67C67.3926 618.894 67.8266 619.006 68.3026 619.006C68.7786 619.006 69.2126 618.894 69.6046 618.67C70.0059 618.437 70.3233 618.105 70.5566 617.676C70.7899 617.237 70.9066 616.729 70.9066 616.15Z" fill="black"/>
</svg>
