<svg width="393" height="852" viewBox="0 0 393 852" fill="none" xmlns="http://www.w3.org/2000/svg">
<g clip-path="url(#clip0_43_357)">
<rect width="393" height="852" fill="white"/>
<path d="M326.285 135.105C325.295 135.105 324.385 134.875 323.555 134.415C322.735 133.955 322.08 133.315 321.59 132.495C321.11 131.665 320.87 130.735 320.87 129.705C320.87 128.675 321.11 127.75 321.59 126.93C322.08 126.11 322.735 125.47 323.555 125.01C324.385 124.55 325.295 124.32 326.285 124.32C327.275 124.32 328.18 124.55 329 125.01C329.83 125.47 330.48 126.11 330.95 126.93C331.43 127.75 331.67 128.675 331.67 129.705C331.67 130.735 331.43 131.665 330.95 132.495C330.47 133.315 329.82 133.955 329 134.415C328.18 134.875 327.275 135.105 326.285 135.105ZM326.285 132.765C327.125 132.765 327.795 132.485 328.295 131.925C328.805 131.365 329.06 130.625 329.06 129.705C329.06 128.775 328.805 128.035 328.295 127.485C327.795 126.925 327.125 126.645 326.285 126.645C325.435 126.645 324.755 126.92 324.245 127.47C323.745 128.02 323.495 128.765 323.495 129.705C323.495 130.635 323.745 131.38 324.245 131.94C324.755 132.49 325.435 132.765 326.285 132.765ZM339.202 135L335.662 130.35V135H333.097V124.47H335.662V129.09L339.172 124.47H342.187L338.107 129.63L342.337 135H339.202Z" fill="white"/>
<rect width="393" height="852" transform="translate(0 -5)" fill="white"/>
<path d="M99.4972 106.96V109.7H93.7772V112.66H98.0572V115.32H93.7772V121H90.3572V106.96H99.4972ZM112.315 109.84V121H108.895V119.48C108.548 119.973 108.075 120.373 107.475 120.68C106.888 120.973 106.235 121.12 105.515 121.12C104.661 121.12 103.908 120.933 103.255 120.56C102.601 120.173 102.095 119.62 101.735 118.9C101.375 118.18 101.195 117.333 101.195 116.36V109.84H104.595V115.9C104.595 116.647 104.788 117.227 105.175 117.64C105.561 118.053 106.081 118.26 106.735 118.26C107.401 118.26 107.928 118.053 108.315 117.64C108.701 117.227 108.895 116.647 108.895 115.9V109.84H112.315ZM118.191 106.2V121H114.771V106.2H118.191ZM119.99 115.4C119.99 114.253 120.203 113.247 120.63 112.38C121.07 111.513 121.663 110.847 122.41 110.38C123.156 109.913 123.99 109.68 124.91 109.68C125.696 109.68 126.383 109.84 126.97 110.16C127.57 110.48 128.03 110.9 128.35 111.42V109.84H131.77V121H128.35V119.42C128.016 119.94 127.55 120.36 126.95 120.68C126.363 121 125.676 121.16 124.89 121.16C123.983 121.16 123.156 120.927 122.41 120.46C121.663 119.98 121.07 119.307 120.63 118.44C120.203 117.56 119.99 116.547 119.99 115.4ZM128.35 115.42C128.35 114.567 128.11 113.893 127.63 113.4C127.163 112.907 126.59 112.66 125.91 112.66C125.23 112.66 124.65 112.907 124.17 113.4C123.703 113.88 123.47 114.547 123.47 115.4C123.47 116.253 123.703 116.933 124.17 117.44C124.65 117.933 125.23 118.18 125.91 118.18C126.59 118.18 127.163 117.933 127.63 117.44C128.11 116.947 128.35 116.273 128.35 115.42ZM141.044 109.72C142.351 109.72 143.391 110.147 144.164 111C144.951 111.84 145.344 113 145.344 114.48V121H141.944V114.94C141.944 114.193 141.751 113.613 141.364 113.2C140.977 112.787 140.457 112.58 139.804 112.58C139.151 112.58 138.631 112.787 138.244 113.2C137.857 113.613 137.664 114.193 137.664 114.94V121H134.244V109.84H137.664V111.32C138.011 110.827 138.477 110.44 139.064 110.16C139.651 109.867 140.311 109.72 141.044 109.72ZM152.8 121.16C151.707 121.16 150.72 120.927 149.84 120.46C148.974 119.993 148.287 119.327 147.78 118.46C147.287 117.593 147.04 116.58 147.04 115.42C147.04 114.273 147.294 113.267 147.8 112.4C148.307 111.52 149 110.847 149.88 110.38C150.76 109.913 151.747 109.68 152.84 109.68C153.934 109.68 154.92 109.913 155.8 110.38C156.68 110.847 157.374 111.52 157.88 112.4C158.387 113.267 158.64 114.273 158.64 115.42C158.64 116.567 158.38 117.58 157.86 118.46C157.354 119.327 156.654 119.993 155.76 120.46C154.88 120.927 153.894 121.16 152.8 121.16ZM152.8 118.2C153.454 118.2 154.007 117.96 154.46 117.48C154.927 117 155.16 116.313 155.16 115.42C155.16 114.527 154.934 113.84 154.48 113.36C154.04 112.88 153.494 112.64 152.84 112.64C152.174 112.64 151.62 112.88 151.18 113.36C150.74 113.827 150.52 114.513 150.52 115.42C150.52 116.313 150.734 117 151.16 117.48C151.6 117.96 152.147 118.2 152.8 118.2ZM164.013 115.4C164.013 114.253 164.226 113.247 164.653 112.38C165.093 111.513 165.686 110.847 166.433 110.38C167.18 109.913 168.013 109.68 168.933 109.68C169.666 109.68 170.333 109.833 170.933 110.14C171.546 110.447 172.026 110.86 172.373 111.38V106.2H175.793V121H172.373V119.4C172.053 119.933 171.593 120.36 170.993 120.68C170.406 121 169.72 121.16 168.933 121.16C168.013 121.16 167.18 120.927 166.433 120.46C165.686 119.98 165.093 119.307 164.653 118.44C164.226 117.56 164.013 116.547 164.013 115.4ZM172.373 115.42C172.373 114.567 172.133 113.893 171.653 113.4C171.186 112.907 170.613 112.66 169.933 112.66C169.253 112.66 168.673 112.907 168.193 113.4C167.726 113.88 167.493 114.547 167.493 115.4C167.493 116.253 167.726 116.933 168.193 117.44C168.673 117.933 169.253 118.18 169.933 118.18C170.613 118.18 171.186 117.933 171.653 117.44C172.133 116.947 172.373 116.273 172.373 115.42ZM177.587 115.4C177.587 114.253 177.801 113.247 178.227 112.38C178.667 111.513 179.261 110.847 180.007 110.38C180.754 109.913 181.587 109.68 182.507 109.68C183.294 109.68 183.981 109.84 184.567 110.16C185.167 110.48 185.627 110.9 185.947 111.42V109.84H189.367V121H185.947V119.42C185.614 119.94 185.147 120.36 184.547 120.68C183.961 121 183.274 121.16 182.487 121.16C181.581 121.16 180.754 120.927 180.007 120.46C179.261 119.98 178.667 119.307 178.227 118.44C177.801 117.56 177.587 116.547 177.587 115.4ZM185.947 115.42C185.947 114.567 185.707 113.893 185.227 113.4C184.761 112.907 184.187 112.66 183.507 112.66C182.827 112.66 182.247 112.907 181.767 113.4C181.301 113.88 181.067 114.547 181.067 115.4C181.067 116.253 181.301 116.933 181.767 117.44C182.247 117.933 182.827 118.18 183.507 118.18C184.187 118.18 184.761 117.933 185.227 117.44C185.707 116.947 185.947 116.273 185.947 115.42ZM200.62 121.16C199.647 121.16 198.78 120.993 198.02 120.66C197.26 120.327 196.66 119.873 196.22 119.3C195.78 118.713 195.533 118.06 195.48 117.34H198.86C198.9 117.727 199.08 118.04 199.4 118.28C199.72 118.52 200.113 118.64 200.58 118.64C201.007 118.64 201.333 118.56 201.56 118.4C201.8 118.227 201.92 118.007 201.92 117.74C201.92 117.42 201.753 117.187 201.42 117.04C201.087 116.88 200.547 116.707 199.8 116.52C199 116.333 198.333 116.14 197.8 115.94C197.267 115.727 196.807 115.4 196.42 114.96C196.033 114.507 195.84 113.9 195.84 113.14C195.84 112.5 196.013 111.92 196.36 111.4C196.72 110.867 197.24 110.447 197.92 110.14C198.613 109.833 199.433 109.68 200.38 109.68C201.78 109.68 202.88 110.027 203.68 110.72C204.493 111.413 204.96 112.333 205.08 113.48H201.92C201.867 113.093 201.693 112.787 201.4 112.56C201.12 112.333 200.747 112.22 200.28 112.22C199.88 112.22 199.573 112.3 199.36 112.46C199.147 112.607 199.04 112.813 199.04 113.08C199.04 113.4 199.207 113.64 199.54 113.8C199.887 113.96 200.42 114.12 201.14 114.28C201.967 114.493 202.64 114.707 203.16 114.92C203.68 115.12 204.133 115.453 204.52 115.92C204.92 116.373 205.127 116.987 205.14 117.76C205.14 118.413 204.953 119 204.58 119.52C204.22 120.027 203.693 120.427 203 120.72C202.32 121.013 201.527 121.16 200.62 121.16ZM208.952 108.68C208.352 108.68 207.859 108.507 207.472 108.16C207.099 107.8 206.912 107.36 206.912 106.84C206.912 106.307 207.099 105.867 207.472 105.52C207.859 105.16 208.352 104.98 208.952 104.98C209.539 104.98 210.019 105.16 210.392 105.52C210.779 105.867 210.972 106.307 210.972 106.84C210.972 107.36 210.779 107.8 210.392 108.16C210.019 108.507 209.539 108.68 208.952 108.68ZM210.652 109.84V121H207.232V109.84H210.652ZM216.551 106.2V121H213.131V106.2H216.551ZM224.049 117.8L226.469 109.84H230.109L226.149 121H221.929L217.969 109.84H221.629L224.049 117.8ZM230.869 115.4C230.869 114.253 231.082 113.247 231.509 112.38C231.949 111.513 232.542 110.847 233.289 110.38C234.035 109.913 234.869 109.68 235.789 109.68C236.575 109.68 237.262 109.84 237.849 110.16C238.449 110.48 238.909 110.9 239.229 111.42V109.84H242.649V121H239.229V119.42C238.895 119.94 238.429 120.36 237.829 120.68C237.242 121 236.555 121.16 235.769 121.16C234.862 121.16 234.035 120.927 233.289 120.46C232.542 119.98 231.949 119.307 231.509 118.44C231.082 117.56 230.869 116.547 230.869 115.4ZM239.229 115.42C239.229 114.567 238.989 113.893 238.509 113.4C238.042 112.907 237.469 112.66 236.789 112.66C236.109 112.66 235.529 112.907 235.049 113.4C234.582 113.88 234.349 114.547 234.349 115.4C234.349 116.253 234.582 116.933 235.049 117.44C235.529 117.933 236.109 118.18 236.789 118.18C237.469 118.18 238.042 117.933 238.509 117.44C238.989 116.947 239.229 116.273 239.229 115.42Z" fill="black"/>
<path d="M96.6626 132.655V136.15H100.473V137.275H96.6626V140.875H100.923V142H95.2976V131.53H100.923V132.655H96.6626ZM102.478 137.86C102.478 137.02 102.648 136.285 102.988 135.655C103.328 135.015 103.793 134.52 104.383 134.17C104.983 133.82 105.653 133.645 106.393 133.645C107.033 133.645 107.628 133.795 108.178 134.095C108.728 134.385 109.148 134.77 109.438 135.25V130.9H110.818V142H109.438V140.455C109.168 140.945 108.768 141.35 108.238 141.67C107.708 141.98 107.088 142.135 106.378 142.135C105.648 142.135 104.983 141.955 104.383 141.595C103.793 141.235 103.328 140.73 102.988 140.08C102.648 139.43 102.478 138.69 102.478 137.86ZM109.438 137.875C109.438 137.255 109.313 136.715 109.063 136.255C108.813 135.795 108.473 135.445 108.043 135.205C107.623 134.955 107.158 134.83 106.648 134.83C106.138 134.83 105.673 134.95 105.253 135.19C104.833 135.43 104.498 135.78 104.248 136.24C103.998 136.7 103.873 137.24 103.873 137.86C103.873 138.49 103.998 139.04 104.248 139.51C104.498 139.97 104.833 140.325 105.253 140.575C105.673 140.815 106.138 140.935 106.648 140.935C107.158 140.935 107.623 140.815 108.043 140.575C108.473 140.325 108.813 139.97 109.063 139.51C109.313 139.04 109.438 138.495 109.438 137.875ZM113.83 132.445C113.57 132.445 113.35 132.355 113.17 132.175C112.99 131.995 112.9 131.775 112.9 131.515C112.9 131.255 112.99 131.035 113.17 130.855C113.35 130.675 113.57 130.585 113.83 130.585C114.08 130.585 114.29 130.675 114.46 130.855C114.64 131.035 114.73 131.255 114.73 131.515C114.73 131.775 114.64 131.995 114.46 132.175C114.29 132.355 114.08 132.445 113.83 132.445ZM114.49 133.78V142H113.125V133.78H114.49ZM118.481 134.905V139.75C118.481 140.15 118.566 140.435 118.736 140.605C118.906 140.765 119.201 140.845 119.621 140.845H120.626V142H119.396C118.636 142 118.066 141.825 117.686 141.475C117.306 141.125 117.116 140.55 117.116 139.75V134.905H116.051V133.78H117.116V131.71H118.481V133.78H120.626V134.905H118.481ZM121.77 137.86C121.77 137.02 121.94 136.285 122.28 135.655C122.62 135.015 123.085 134.52 123.675 134.17C124.275 133.82 124.94 133.645 125.67 133.645C126.39 133.645 127.015 133.8 127.545 134.11C128.075 134.42 128.47 134.81 128.73 135.28V133.78H130.11V142H128.73V140.47C128.46 140.95 128.055 141.35 127.515 141.67C126.985 141.98 126.365 142.135 125.655 142.135C124.925 142.135 124.265 141.955 123.675 141.595C123.085 141.235 122.62 140.73 122.28 140.08C121.94 139.43 121.77 138.69 121.77 137.86ZM128.73 137.875C128.73 137.255 128.605 136.715 128.355 136.255C128.105 135.795 127.765 135.445 127.335 135.205C126.915 134.955 126.45 134.83 125.94 134.83C125.43 134.83 124.965 134.95 124.545 135.19C124.125 135.43 123.79 135.78 123.54 136.24C123.29 136.7 123.165 137.24 123.165 137.86C123.165 138.49 123.29 139.04 123.54 139.51C123.79 139.97 124.125 140.325 124.545 140.575C124.965 140.815 125.43 140.935 125.94 140.935C126.45 140.935 126.915 140.815 127.335 140.575C127.765 140.325 128.105 139.97 128.355 139.51C128.605 139.04 128.73 138.495 128.73 137.875ZM133.782 135.115C134.022 134.645 134.362 134.28 134.802 134.02C135.252 133.76 135.797 133.63 136.437 133.63V135.04H136.077C134.547 135.04 133.782 135.87 133.782 137.53V142H132.417V133.78H133.782V135.115Z" fill="black"/>
<rect y="-5" width="393" height="72" fill="white"/>
<path d="M35.9187 40.105C35.1487 40.105 34.4587 39.98 33.8487 39.73C33.2387 39.48 32.7487 39.11 32.3787 38.62C32.0187 38.13 31.8287 37.54 31.8087 36.85H34.5387C34.5787 37.24 34.7137 37.54 34.9437 37.75C35.1737 37.95 35.4737 38.05 35.8437 38.05C36.2237 38.05 36.5237 37.965 36.7437 37.795C36.9637 37.615 37.0737 37.37 37.0737 37.06C37.0737 36.8 36.9837 36.585 36.8037 36.415C36.6337 36.245 36.4187 36.105 36.1587 35.995C35.9087 35.885 35.5487 35.76 35.0787 35.62C34.3987 35.41 33.8437 35.2 33.4137 34.99C32.9837 34.78 32.6137 34.47 32.3037 34.06C31.9937 33.65 31.8387 33.115 31.8387 32.455C31.8387 31.475 32.1937 30.71 32.9037 30.16C33.6137 29.6 34.5387 29.32 35.6787 29.32C36.8387 29.32 37.7737 29.6 38.4837 30.16C39.1937 30.71 39.5737 31.48 39.6237 32.47H36.8487C36.8287 32.13 36.7037 31.865 36.4737 31.675C36.2437 31.475 35.9487 31.375 35.5887 31.375C35.2787 31.375 35.0287 31.46 34.8387 31.63C34.6487 31.79 34.5537 32.025 34.5537 32.335C34.5537 32.675 34.7137 32.94 35.0337 33.13C35.3537 33.32 35.8537 33.525 36.5337 33.745C37.2137 33.975 37.7637 34.195 38.1837 34.405C38.6137 34.615 38.9837 34.92 39.2937 35.32C39.6037 35.72 39.7587 36.235 39.7587 36.865C39.7587 37.465 39.6037 38.01 39.2937 38.5C38.9937 38.99 38.5537 39.38 37.9737 39.67C37.3937 39.96 36.7087 40.105 35.9187 40.105ZM43.8572 29.47V35.77C43.8572 36.4 44.0122 36.885 44.3222 37.225C44.6322 37.565 45.0872 37.735 45.6872 37.735C46.2872 37.735 46.7472 37.565 47.0672 37.225C47.3872 36.885 47.5472 36.4 47.5472 35.77V29.47H50.1122V35.755C50.1122 36.695 49.9122 37.49 49.5122 38.14C49.1122 38.79 48.5722 39.28 47.8922 39.61C47.2222 39.94 46.4722 40.105 45.6422 40.105C44.8122 40.105 44.0672 39.945 43.4072 39.625C42.7572 39.295 42.2422 38.805 41.8622 38.155C41.4822 37.495 41.2922 36.695 41.2922 35.755V29.47H43.8572ZM58.4684 38.14H54.5384L53.9084 40H51.2234L55.0334 29.47H58.0034L61.8134 40H59.0984L58.4684 38.14ZM57.8084 36.16L56.5034 32.305L55.2134 36.16H57.8084ZM69.963 32.8C69.773 32.45 69.498 32.185 69.138 32.005C68.788 31.815 68.373 31.72 67.893 31.72C67.063 31.72 66.398 31.995 65.898 32.545C65.398 33.085 65.148 33.81 65.148 34.72C65.148 35.69 65.408 36.45 65.928 37C66.458 37.54 67.183 37.81 68.103 37.81C68.733 37.81 69.263 37.65 69.693 37.33C70.133 37.01 70.453 36.55 70.653 35.95H67.398V34.06H72.978V36.445C72.788 37.085 72.463 37.68 72.003 38.23C71.553 38.78 70.978 39.225 70.278 39.565C69.578 39.905 68.788 40.075 67.908 40.075C66.868 40.075 65.938 39.85 65.118 39.4C64.308 38.94 63.673 38.305 63.213 37.495C62.763 36.685 62.538 35.76 62.538 34.72C62.538 33.68 62.763 32.755 63.213 31.945C63.673 31.125 64.308 30.49 65.118 30.04C65.928 29.58 66.853 29.35 67.893 29.35C69.153 29.35 70.213 29.655 71.073 30.265C71.943 30.875 72.518 31.72 72.798 32.8H69.963ZM76.9638 31.525V33.655H80.3988V35.635H76.9638V37.945H80.8488V40H74.3988V29.47H80.8488V31.525H76.9638ZM91.934 40H89.369L85.079 33.505V40H82.514V29.47H85.079L89.369 35.995V29.47H91.934V40ZM97.7383 29.47C98.8483 29.47 99.8183 29.69 100.648 30.13C101.478 30.57 102.118 31.19 102.568 31.99C103.028 32.78 103.258 33.695 103.258 34.735C103.258 35.765 103.028 36.68 102.568 37.48C102.118 38.28 101.473 38.9 100.633 39.34C99.8033 39.78 98.8383 40 97.7383 40H93.7933V29.47H97.7383ZM97.5733 37.78C98.5433 37.78 99.2983 37.515 99.8383 36.985C100.378 36.455 100.648 35.705 100.648 34.735C100.648 33.765 100.378 33.01 99.8383 32.47C99.2983 31.93 98.5433 31.66 97.5733 31.66H96.3583V37.78H97.5733ZM111.247 38.14H107.317L106.687 40H104.002L107.812 29.47H110.782L114.592 40H111.877L111.247 38.14ZM110.587 36.16L109.282 32.305L107.992 36.16H110.587Z" fill="black"/>
<path d="M334.276 37.9445C333.786 37.1023 333.202 35.4953 333.202 32.625V32.0148C333.202 28.0187 329.996 24.7445 326.052 24.7188H326C325.053 24.7187 324.115 24.9056 323.24 25.2686C322.365 25.6316 321.571 26.1636 320.902 26.8341C320.233 27.5047 319.703 28.3006 319.342 29.1763C318.981 30.052 318.796 30.9903 318.798 31.9375V32.625C318.798 35.4953 318.214 37.1023 317.724 37.9445C317.574 38.2063 317.495 38.5029 317.495 38.8047C317.495 39.1065 317.575 39.403 317.725 39.6647C317.875 39.9264 318.092 40.1441 318.352 40.2961C318.613 40.4481 318.909 40.5292 319.211 40.5312H322.236C322.326 41.4675 322.761 42.3367 323.457 42.9693C324.153 43.6019 325.059 43.9524 326 43.9524C326.94 43.9524 327.847 43.6019 328.543 42.9693C329.239 42.3367 329.674 41.4675 329.764 40.5312H332.789C333.091 40.5292 333.387 40.4481 333.648 40.2961C333.908 40.1441 334.125 39.9264 334.275 39.6647C334.425 39.403 334.505 39.1065 334.505 38.8047C334.505 38.5029 334.426 38.2063 334.276 37.9445ZM326 41.9062C325.604 41.9047 325.221 41.7673 324.914 41.517C324.608 41.2667 324.396 40.9187 324.316 40.5312H327.684C327.604 40.9187 327.392 41.2667 327.086 41.517C326.779 41.7673 326.396 41.9047 326 41.9062ZM319.778 38.4687C320.663 36.6125 320.861 34.3008 320.861 32.625V31.9375C320.858 31.2609 320.988 30.5902 321.245 29.9642C321.502 29.3382 321.88 28.7692 322.357 28.29C322.835 27.8107 323.403 27.4307 324.028 27.1718C324.653 26.9128 325.323 26.7801 326 26.7812H326.043C328.853 26.7984 331.139 29.1445 331.139 32.0148V32.625C331.139 34.3008 331.337 36.6125 332.222 38.4687H319.778Z" fill="black"/>
<path d="M359 24C357.687 24 356.386 24.2587 355.173 24.7612C353.96 25.2638 352.858 26.0003 351.929 26.9289C350.054 28.8043 349 31.3478 349 34C349 36.6522 350.054 39.1957 351.929 41.0711C352.858 41.9997 353.96 42.7362 355.173 43.2388C356.386 43.7413 357.687 44 359 44C361.652 44 364.196 42.9464 366.071 41.0711C367.946 39.1957 369 36.6522 369 34C369 32.6868 368.741 31.3864 368.239 30.1732C367.736 28.9599 367 27.8575 366.071 26.9289C365.142 26.0003 364.04 25.2638 362.827 24.7612C361.614 24.2587 360.313 24 359 24ZM354.07 40.28C354.5 39.38 357.12 38.5 359 38.5C360.88 38.5 363.5 39.38 363.93 40.28C362.529 41.396 360.791 42.0026 359 42C357.14 42 355.43 41.36 354.07 40.28ZM365.36 38.83C363.93 37.09 360.46 36.5 359 36.5C357.54 36.5 354.07 37.09 352.64 38.83C351.576 37.4446 351 35.7467 351 34C351 29.59 354.59 26 359 26C363.41 26 367 29.59 367 34C367 35.82 366.38 37.5 365.36 38.83ZM359 28C357.06 28 355.5 29.56 355.5 31.5C355.5 33.44 357.06 35 359 35C360.94 35 362.5 33.44 362.5 31.5C362.5 29.56 360.94 28 359 28ZM359 33C358.602 33 358.221 32.842 357.939 32.5607C357.658 32.2794 357.5 31.8978 357.5 31.5C357.5 31.1022 357.658 30.7206 357.939 30.4393C358.221 30.158 358.602 30 359 30C359.398 30 359.779 30.158 360.061 30.4393C360.342 30.7206 360.5 31.1022 360.5 31.5C360.5 31.8978 360.342 32.2794 360.061 32.5607C359.779 32.842 359.398 33 359 33Z" fill="black"/>
<circle cx="52" cy="121" r="21" fill="#D9D9D9"/>
<path d="M35.47 236.105C34.78 236.105 34.16 235.985 33.61 235.745C33.07 235.495 32.645 235.155 32.335 234.725C32.025 234.285 31.865 233.78 31.855 233.21H33.31C33.36 233.7 33.56 234.115 33.91 234.455C34.27 234.785 34.79 234.95 35.47 234.95C36.12 234.95 36.63 234.79 37 234.47C37.38 234.14 37.57 233.72 37.57 233.21C37.57 232.81 37.46 232.485 37.24 232.235C37.02 231.985 36.745 231.795 36.415 231.665C36.085 231.535 35.64 231.395 35.08 231.245C34.39 231.065 33.835 230.885 33.415 230.705C33.005 230.525 32.65 230.245 32.35 229.865C32.06 229.475 31.915 228.955 31.915 228.305C31.915 227.735 32.06 227.23 32.35 226.79C32.64 226.35 33.045 226.01 33.565 225.77C34.095 225.53 34.7 225.41 35.38 225.41C36.36 225.41 37.16 225.655 37.78 226.145C38.41 226.635 38.765 227.285 38.845 228.095H37.345C37.295 227.695 37.085 227.345 36.715 227.045C36.345 226.735 35.855 226.58 35.245 226.58C34.675 226.58 34.21 226.73 33.85 227.03C33.49 227.32 33.31 227.73 33.31 228.26C33.31 228.64 33.415 228.95 33.625 229.19C33.845 229.43 34.11 229.615 34.42 229.745C34.74 229.865 35.185 230.005 35.755 230.165C36.445 230.355 37 230.545 37.42 230.735C37.84 230.915 38.2 231.2 38.5 231.59C38.8 231.97 38.95 232.49 38.95 233.15C38.95 233.66 38.815 234.14 38.545 234.59C38.275 235.04 37.875 235.405 37.345 235.685C36.815 235.965 36.19 236.105 35.47 236.105ZM40.4487 231.86C40.4487 231.02 40.6187 230.285 40.9587 229.655C41.2987 229.015 41.7637 228.52 42.3537 228.17C42.9537 227.82 43.6187 227.645 44.3487 227.645C45.0687 227.645 45.6937 227.8 46.2237 228.11C46.7537 228.42 47.1487 228.81 47.4087 229.28V227.78H48.7887V236H47.4087V234.47C47.1387 234.95 46.7337 235.35 46.1937 235.67C45.6637 235.98 45.0437 236.135 44.3337 236.135C43.6037 236.135 42.9437 235.955 42.3537 235.595C41.7637 235.235 41.2987 234.73 40.9587 234.08C40.6187 233.43 40.4487 232.69 40.4487 231.86ZM47.4087 231.875C47.4087 231.255 47.2837 230.715 47.0337 230.255C46.7837 229.795 46.4437 229.445 46.0137 229.205C45.5937 228.955 45.1287 228.83 44.6187 228.83C44.1087 228.83 43.6437 228.95 43.2237 229.19C42.8037 229.43 42.4687 229.78 42.2187 230.24C41.9687 230.7 41.8437 231.24 41.8437 231.86C41.8437 232.49 41.9687 233.04 42.2187 233.51C42.4687 233.97 42.8037 234.325 43.2237 234.575C43.6437 234.815 44.1087 234.935 44.6187 234.935C45.1287 234.935 45.5937 234.815 46.0137 234.575C46.4437 234.325 46.7837 233.97 47.0337 233.51C47.2837 233.04 47.4087 232.495 47.4087 231.875ZM51.8004 226.445C51.5404 226.445 51.3204 226.355 51.1404 226.175C50.9604 225.995 50.8704 225.775 50.8704 225.515C50.8704 225.255 50.9604 225.035 51.1404 224.855C51.3204 224.675 51.5404 224.585 51.8004 224.585C52.0504 224.585 52.2604 224.675 52.4304 224.855C52.6104 225.035 52.7004 225.255 52.7004 225.515C52.7004 225.775 52.6104 225.995 52.4304 226.175C52.2604 226.355 52.0504 226.445 51.8004 226.445ZM52.4604 227.78V236H51.0954V227.78H52.4604ZM56.1518 229.115C56.3918 228.645 56.7318 228.28 57.1718 228.02C57.6218 227.76 58.1668 227.63 58.8068 227.63V229.04H58.4468C56.9168 229.04 56.1518 229.87 56.1518 231.53V236H54.7868V227.78H56.1518V229.115ZM63.8716 231.86C63.8716 231.02 64.0416 230.285 64.3816 229.655C64.7216 229.015 65.1866 228.52 65.7766 228.17C66.3766 227.82 67.0466 227.645 67.7866 227.645C68.4266 227.645 69.0216 227.795 69.5716 228.095C70.1216 228.385 70.5416 228.77 70.8316 229.25V224.9H72.2116V236H70.8316V234.455C70.5616 234.945 70.1616 235.35 69.6316 235.67C69.1016 235.98 68.4816 236.135 67.7716 236.135C67.0416 236.135 66.3766 235.955 65.7766 235.595C65.1866 235.235 64.7216 234.73 64.3816 234.08C64.0416 233.43 63.8716 232.69 63.8716 231.86ZM70.8316 231.875C70.8316 231.255 70.7066 230.715 70.4566 230.255C70.2066 229.795 69.8666 229.445 69.4366 229.205C69.0166 228.955 68.5516 228.83 68.0416 228.83C67.5316 228.83 67.0666 228.95 66.6466 229.19C66.2266 229.43 65.8916 229.78 65.6416 230.24C65.3916 230.7 65.2666 231.24 65.2666 231.86C65.2666 232.49 65.3916 233.04 65.6416 233.51C65.8916 233.97 66.2266 234.325 66.6466 234.575C67.0666 234.815 67.5316 234.935 68.0416 234.935C68.5516 234.935 69.0166 234.815 69.4366 234.575C69.8666 234.325 70.2066 233.97 70.4566 233.51C70.7066 233.04 70.8316 232.495 70.8316 231.875ZM74.0083 231.86C74.0083 231.02 74.1783 230.285 74.5183 229.655C74.8583 229.015 75.3233 228.52 75.9133 228.17C76.5133 227.82 77.1783 227.645 77.9083 227.645C78.6283 227.645 79.2533 227.8 79.7833 228.11C80.3133 228.42 80.7083 228.81 80.9683 229.28V227.78H82.3483V236H80.9683V234.47C80.6983 234.95 80.2933 235.35 79.7533 235.67C79.2233 235.98 78.6033 236.135 77.8933 236.135C77.1633 236.135 76.5033 235.955 75.9133 235.595C75.3233 235.235 74.8583 234.73 74.5183 234.08C74.1783 233.43 74.0083 232.69 74.0083 231.86ZM80.9683 231.875C80.9683 231.255 80.8433 230.715 80.5933 230.255C80.3433 229.795 80.0033 229.445 79.5733 229.205C79.1533 228.955 78.6883 228.83 78.1783 228.83C77.6683 228.83 77.2033 228.95 76.7833 229.19C76.3633 229.43 76.0283 229.78 75.7783 230.24C75.5283 230.7 75.4033 231.24 75.4033 231.86C75.4033 232.49 75.5283 233.04 75.7783 233.51C76.0283 233.97 76.3633 234.325 76.7833 234.575C77.2033 234.815 77.6683 234.935 78.1783 234.935C78.6883 234.935 79.1533 234.815 79.5733 234.575C80.0033 234.325 80.3433 233.97 80.5933 233.51C80.8433 233.04 80.9683 232.495 80.9683 231.875ZM88.144 231.875C88.144 231.025 88.314 230.285 88.654 229.655C88.994 229.015 89.464 228.52 90.064 228.17C90.674 227.82 91.369 227.645 92.149 227.645C93.159 227.645 93.989 227.89 94.639 228.38C95.299 228.87 95.734 229.55 95.944 230.42H94.474C94.334 229.92 94.059 229.525 93.649 229.235C93.249 228.945 92.749 228.8 92.149 228.8C91.369 228.8 90.739 229.07 90.259 229.61C89.779 230.14 89.539 230.895 89.539 231.875C89.539 232.865 89.779 233.63 90.259 234.17C90.739 234.71 91.369 234.98 92.149 234.98C92.749 234.98 93.249 234.84 93.649 234.56C94.049 234.28 94.324 233.88 94.474 233.36H95.944C95.724 234.2 95.284 234.875 94.624 235.385C93.964 235.885 93.139 236.135 92.149 236.135C91.369 236.135 90.674 235.96 90.064 235.61C89.464 235.26 88.994 234.765 88.654 234.125C88.314 233.485 88.144 232.735 88.144 231.875ZM101.35 236.135C100.58 236.135 99.8804 235.96 99.2504 235.61C98.6304 235.26 98.1404 234.765 97.7804 234.125C97.4304 233.475 97.2554 232.725 97.2554 231.875C97.2554 231.035 97.4354 230.295 97.7954 229.655C98.1654 229.005 98.6654 228.51 99.2954 228.17C99.9254 227.82 100.63 227.645 101.41 227.645C102.19 227.645 102.895 227.82 103.525 228.17C104.155 228.51 104.65 229 105.01 229.64C105.38 230.28 105.565 231.025 105.565 231.875C105.565 232.725 105.375 233.475 104.995 234.125C104.625 234.765 104.12 235.26 103.48 235.61C102.84 235.96 102.13 236.135 101.35 236.135ZM101.35 234.935C101.84 234.935 102.3 234.82 102.73 234.59C103.16 234.36 103.505 234.015 103.765 233.555C104.035 233.095 104.17 232.535 104.17 231.875C104.17 231.215 104.04 230.655 103.78 230.195C103.52 229.735 103.18 229.395 102.76 229.175C102.34 228.945 101.885 228.83 101.395 228.83C100.895 228.83 100.435 228.945 100.015 229.175C99.6054 229.395 99.2754 229.735 99.0254 230.195C98.7754 230.655 98.6504 231.215 98.6504 231.875C98.6504 232.545 98.7704 233.11 99.0104 233.57C99.2604 234.03 99.5904 234.375 100 234.605C100.41 234.825 100.86 234.935 101.35 234.935ZM111.365 227.63C112.365 227.63 113.175 227.935 113.795 228.545C114.415 229.145 114.725 230.015 114.725 231.155V236H113.375V231.35C113.375 230.53 113.17 229.905 112.76 229.475C112.35 229.035 111.79 228.815 111.08 228.815C110.36 228.815 109.785 229.04 109.355 229.49C108.935 229.94 108.725 230.595 108.725 231.455V236H107.36V227.78H108.725V228.95C108.995 228.53 109.36 228.205 109.82 227.975C110.29 227.745 110.805 227.63 111.365 227.63ZM118.62 228.905V233.75C118.62 234.15 118.705 234.435 118.875 234.605C119.045 234.765 119.34 234.845 119.76 234.845H120.765V236H119.535C118.775 236 118.205 235.825 117.825 235.475C117.445 235.125 117.255 234.55 117.255 233.75V228.905H116.19V227.78H117.255V225.71H118.62V227.78H120.765V228.905H118.62ZM121.909 231.86C121.909 231.02 122.079 230.285 122.419 229.655C122.759 229.015 123.224 228.52 123.814 228.17C124.414 227.82 125.079 227.645 125.809 227.645C126.529 227.645 127.154 227.8 127.684 228.11C128.214 228.42 128.609 228.81 128.869 229.28V227.78H130.249V236H128.869V234.47C128.599 234.95 128.194 235.35 127.654 235.67C127.124 235.98 126.504 236.135 125.794 236.135C125.064 236.135 124.404 235.955 123.814 235.595C123.224 235.235 122.759 234.73 122.419 234.08C122.079 233.43 121.909 232.69 121.909 231.86ZM128.869 231.875C128.869 231.255 128.744 230.715 128.494 230.255C128.244 229.795 127.904 229.445 127.474 229.205C127.054 228.955 126.589 228.83 126.079 228.83C125.569 228.83 125.104 228.95 124.684 229.19C124.264 229.43 123.929 229.78 123.679 230.24C123.429 230.7 123.304 231.24 123.304 231.86C123.304 232.49 123.429 233.04 123.679 233.51C123.929 233.97 124.264 234.325 124.684 234.575C125.104 234.815 125.569 234.935 126.079 234.935C126.589 234.935 127.054 234.815 127.474 234.575C127.904 234.325 128.244 233.97 128.494 233.51C128.744 233.04 128.869 232.495 128.869 231.875Z" fill="black"/>
<path d="M40.375 198H39.01L33.52 189.675V198H32.155V187.53H33.52L39.01 195.84V187.53H40.375V198ZM46.2869 198.135C45.5169 198.135 44.8169 197.96 44.1869 197.61C43.5669 197.26 43.0769 196.765 42.7169 196.125C42.3669 195.475 42.1919 194.725 42.1919 193.875C42.1919 193.035 42.3719 192.295 42.7319 191.655C43.1019 191.005 43.6019 190.51 44.2319 190.17C44.8619 189.82 45.5669 189.645 46.3469 189.645C47.1269 189.645 47.8319 189.82 48.4619 190.17C49.0919 190.51 49.5869 191 49.9469 191.64C50.3169 192.28 50.5019 193.025 50.5019 193.875C50.5019 194.725 50.3119 195.475 49.9319 196.125C49.5619 196.765 49.0569 197.26 48.4169 197.61C47.7769 197.96 47.0669 198.135 46.2869 198.135ZM46.2869 196.935C46.7769 196.935 47.2369 196.82 47.6669 196.59C48.0969 196.36 48.4419 196.015 48.7019 195.555C48.9719 195.095 49.1069 194.535 49.1069 193.875C49.1069 193.215 48.9769 192.655 48.7169 192.195C48.4569 191.735 48.1169 191.395 47.6969 191.175C47.2769 190.945 46.8219 190.83 46.3319 190.83C45.8319 190.83 45.3719 190.945 44.9519 191.175C44.5419 191.395 44.2119 191.735 43.9619 192.195C43.7119 192.655 43.5869 193.215 43.5869 193.875C43.5869 194.545 43.7069 195.11 43.9469 195.57C44.1969 196.03 44.5269 196.375 44.9369 196.605C45.3469 196.825 45.7969 196.935 46.2869 196.935ZM53.9616 190.905V195.75C53.9616 196.15 54.0466 196.435 54.2166 196.605C54.3866 196.765 54.6816 196.845 55.1016 196.845H56.1066V198H54.8766C54.1166 198 53.5466 197.825 53.1666 197.475C52.7866 197.125 52.5966 196.55 52.5966 195.75V190.905H51.5316V189.78H52.5966V187.71H53.9616V189.78H56.1066V190.905H53.9616ZM58.4655 188.445C58.2055 188.445 57.9855 188.355 57.8055 188.175C57.6255 187.995 57.5355 187.775 57.5355 187.515C57.5355 187.255 57.6255 187.035 57.8055 186.855C57.9855 186.675 58.2055 186.585 58.4655 186.585C58.7155 186.585 58.9255 186.675 59.0955 186.855C59.2755 187.035 59.3655 187.255 59.3655 187.515C59.3655 187.775 59.2755 187.995 59.0955 188.175C58.9255 188.355 58.7155 188.445 58.4655 188.445ZM59.1255 189.78V198H57.7605V189.78H59.1255ZM64.7969 190.905H63.0719V198H61.7069V190.905H60.6419V189.78H61.7069V189.195C61.7069 188.275 61.9419 187.605 62.4119 187.185C62.8919 186.755 63.6569 186.54 64.7069 186.54V187.68C64.1069 187.68 63.6819 187.8 63.4319 188.04C63.1919 188.27 63.0719 188.655 63.0719 189.195V189.78H64.7969V190.905ZM67.0934 188.445C66.8334 188.445 66.6134 188.355 66.4334 188.175C66.2534 187.995 66.1634 187.775 66.1634 187.515C66.1634 187.255 66.2534 187.035 66.4334 186.855C66.6134 186.675 66.8334 186.585 67.0934 186.585C67.3434 186.585 67.5534 186.675 67.7234 186.855C67.9034 187.035 67.9934 187.255 67.9934 187.515C67.9934 187.775 67.9034 187.995 67.7234 188.175C67.5534 188.355 67.3434 188.445 67.0934 188.445ZM67.7534 189.78V198H66.3884V189.78H67.7534ZM69.5698 193.875C69.5698 193.025 69.7398 192.285 70.0798 191.655C70.4198 191.015 70.8898 190.52 71.4898 190.17C72.0998 189.82 72.7948 189.645 73.5748 189.645C74.5848 189.645 75.4148 189.89 76.0648 190.38C76.7248 190.87 77.1598 191.55 77.3698 192.42H75.8998C75.7598 191.92 75.4848 191.525 75.0748 191.235C74.6748 190.945 74.1748 190.8 73.5748 190.8C72.7948 190.8 72.1648 191.07 71.6848 191.61C71.2048 192.14 70.9648 192.895 70.9648 193.875C70.9648 194.865 71.2048 195.63 71.6848 196.17C72.1648 196.71 72.7948 196.98 73.5748 196.98C74.1748 196.98 74.6748 196.84 75.0748 196.56C75.4748 196.28 75.7498 195.88 75.8998 195.36H77.3698C77.1498 196.2 76.7098 196.875 76.0498 197.385C75.3898 197.885 74.5648 198.135 73.5748 198.135C72.7948 198.135 72.0998 197.96 71.4898 197.61C70.8898 197.26 70.4198 196.765 70.0798 196.125C69.7398 195.485 69.5698 194.735 69.5698 193.875ZM78.6811 193.86C78.6811 193.02 78.8511 192.285 79.1911 191.655C79.5311 191.015 79.9961 190.52 80.5861 190.17C81.1861 189.82 81.8511 189.645 82.5811 189.645C83.3011 189.645 83.9261 189.8 84.4561 190.11C84.9861 190.42 85.3811 190.81 85.6411 191.28V189.78H87.0211V198H85.6411V196.47C85.3711 196.95 84.9661 197.35 84.4261 197.67C83.8961 197.98 83.2761 198.135 82.5661 198.135C81.8361 198.135 81.1761 197.955 80.5861 197.595C79.9961 197.235 79.5311 196.73 79.1911 196.08C78.8511 195.43 78.6811 194.69 78.6811 193.86ZM85.6411 193.875C85.6411 193.255 85.5161 192.715 85.2661 192.255C85.0161 191.795 84.6761 191.445 84.2461 191.205C83.8261 190.955 83.3611 190.83 82.8511 190.83C82.3411 190.83 81.8761 190.95 81.4561 191.19C81.0361 191.43 80.7011 191.78 80.4511 192.24C80.2011 192.7 80.0761 193.24 80.0761 193.86C80.0761 194.49 80.2011 195.04 80.4511 195.51C80.7011 195.97 81.0361 196.325 81.4561 196.575C81.8761 196.815 82.3411 196.935 82.8511 196.935C83.3611 196.935 83.8261 196.815 84.2461 196.575C84.6761 196.325 85.0161 195.97 85.2661 195.51C85.5161 195.04 85.6411 194.495 85.6411 193.875ZM92.8229 196.98C93.4229 196.98 93.9229 196.84 94.3229 196.56C94.7229 196.28 94.9979 195.88 95.1479 195.36H96.6179C96.4179 196.14 96.0229 196.78 95.4329 197.28C94.8529 197.77 94.1229 198.05 93.2429 198.12V198.87C93.8329 198.86 94.3029 198.985 94.6529 199.245C95.0029 199.505 95.1779 199.875 95.1779 200.355C95.1779 200.825 95.0079 201.2 94.6679 201.48C94.3279 201.76 93.8879 201.9 93.3479 201.9H91.6229V201.015H93.0779C93.4079 201.015 93.6479 200.965 93.7979 200.865C93.9579 200.765 94.0379 200.595 94.0379 200.355C94.0379 200.125 93.9579 199.96 93.7979 199.86C93.6479 199.76 93.4079 199.71 93.0779 199.71H92.3279V198.105C91.6379 198.035 91.0279 197.82 90.4979 197.46C89.9679 197.09 89.5529 196.6 89.2529 195.99C88.9629 195.37 88.8179 194.665 88.8179 193.875C88.8179 193.025 88.9879 192.285 89.3279 191.655C89.6679 191.015 90.1379 190.52 90.7379 190.17C91.3479 189.82 92.0429 189.645 92.8229 189.645C93.8329 189.645 94.6629 189.89 95.3129 190.38C95.9729 190.87 96.4079 191.55 96.6179 192.42H95.1479C95.0079 191.92 94.7329 191.525 94.3229 191.235C93.9229 190.945 93.4229 190.8 92.8229 190.8C92.0429 190.8 91.4129 191.07 90.9329 191.61C90.4529 192.14 90.2129 192.895 90.2129 193.875C90.2129 194.865 90.4529 195.63 90.9329 196.17C91.4129 196.71 92.0429 196.98 92.8229 196.98ZM102.024 198.135C101.254 198.135 100.554 197.96 99.9242 197.61C99.3042 197.26 98.8142 196.765 98.4542 196.125C98.1042 195.475 97.9292 194.725 97.9292 193.875C97.9292 193.035 98.1092 192.295 98.4692 191.655C98.8392 191.005 99.3392 190.51 99.9692 190.17C100.599 189.82 101.304 189.645 102.084 189.645C102.864 189.645 103.569 189.82 104.199 190.17C104.829 190.51 105.324 191 105.684 191.64C106.054 192.28 106.239 193.025 106.239 193.875C106.239 194.725 106.049 195.475 105.669 196.125C105.299 196.765 104.794 197.26 104.154 197.61C103.514 197.96 102.804 198.135 102.024 198.135ZM102.024 196.935C102.514 196.935 102.974 196.82 103.404 196.59C103.834 196.36 104.179 196.015 104.439 195.555C104.709 195.095 104.844 194.535 104.844 193.875C104.844 193.215 104.714 192.655 104.454 192.195C104.194 191.735 103.854 191.395 103.434 191.175C103.014 190.945 102.559 190.83 102.069 190.83C101.569 190.83 101.109 190.945 100.689 191.175C100.279 191.395 99.9492 191.735 99.6992 192.195C99.4492 192.655 99.3242 193.215 99.3242 193.875C99.3242 194.545 99.4442 195.11 99.6842 195.57C99.9342 196.03 100.264 196.375 100.674 196.605C101.084 196.825 101.534 196.935 102.024 196.935ZM99.8942 188.79C99.9642 188.28 100.129 187.89 100.389 187.62C100.659 187.35 100.994 187.215 101.394 187.215C101.584 187.215 101.744 187.25 101.874 187.32C102.014 187.38 102.179 187.47 102.369 187.59C102.509 187.69 102.634 187.77 102.744 187.83C102.854 187.88 102.974 187.905 103.104 187.905C103.274 187.905 103.419 187.85 103.539 187.74C103.659 187.63 103.734 187.47 103.764 187.26H104.544C104.484 187.76 104.319 188.145 104.049 188.415C103.779 188.685 103.444 188.82 103.044 188.82C102.854 188.82 102.684 188.79 102.534 188.73C102.394 188.66 102.234 188.56 102.054 188.43C101.894 188.33 101.764 188.255 101.664 188.205C101.574 188.155 101.464 188.13 101.334 188.13C101.164 188.13 101.019 188.185 100.899 188.295C100.789 188.405 100.719 188.57 100.689 188.79H99.8942ZM115.534 193.575C115.534 193.835 115.519 194.11 115.489 194.4H108.919C108.969 195.21 109.244 195.845 109.744 196.305C110.254 196.755 110.869 196.98 111.589 196.98C112.179 196.98 112.669 196.845 113.059 196.575C113.459 196.295 113.739 195.925 113.899 195.465H115.369C115.149 196.255 114.709 196.9 114.049 197.4C113.389 197.89 112.569 198.135 111.589 198.135C110.809 198.135 110.109 197.96 109.489 197.61C108.879 197.26 108.399 196.765 108.049 196.125C107.699 195.475 107.524 194.725 107.524 193.875C107.524 193.025 107.694 192.28 108.034 191.64C108.374 191 108.849 190.51 109.459 190.17C110.079 189.82 110.789 189.645 111.589 189.645C112.369 189.645 113.059 189.815 113.659 190.155C114.259 190.495 114.719 190.965 115.039 191.565C115.369 192.155 115.534 192.825 115.534 193.575ZM114.124 193.29C114.124 192.77 114.009 192.325 113.779 191.955C113.549 191.575 113.234 191.29 112.834 191.1C112.444 190.9 112.009 190.8 111.529 190.8C110.839 190.8 110.249 191.02 109.759 191.46C109.279 191.9 109.004 192.51 108.934 193.29H114.124ZM120.246 198.135C119.616 198.135 119.051 198.03 118.551 197.82C118.051 197.6 117.656 197.3 117.366 196.92C117.076 196.53 116.916 196.085 116.886 195.585H118.296C118.336 195.995 118.526 196.33 118.866 196.59C119.216 196.85 119.671 196.98 120.231 196.98C120.751 196.98 121.161 196.865 121.461 196.635C121.761 196.405 121.911 196.115 121.911 195.765C121.911 195.405 121.751 195.14 121.431 194.97C121.111 194.79 120.616 194.615 119.946 194.445C119.336 194.285 118.836 194.125 118.446 193.965C118.066 193.795 117.736 193.55 117.456 193.23C117.186 192.9 117.051 192.47 117.051 191.94C117.051 191.52 117.176 191.135 117.426 190.785C117.676 190.435 118.031 190.16 118.491 189.96C118.951 189.75 119.476 189.645 120.066 189.645C120.976 189.645 121.711 189.875 122.271 190.335C122.831 190.795 123.131 191.425 123.171 192.225H121.806C121.776 191.795 121.601 191.45 121.281 191.19C120.971 190.93 120.551 190.8 120.021 190.8C119.531 190.8 119.141 190.905 118.851 191.115C118.561 191.325 118.416 191.6 118.416 191.94C118.416 192.21 118.501 192.435 118.671 192.615C118.851 192.785 119.071 192.925 119.331 193.035C119.601 193.135 119.971 193.25 120.441 193.38C121.031 193.54 121.511 193.7 121.881 193.86C122.251 194.01 122.566 194.24 122.826 194.55C123.096 194.86 123.236 195.265 123.246 195.765C123.246 196.215 123.121 196.62 122.871 196.98C122.621 197.34 122.266 197.625 121.806 197.835C121.356 198.035 120.836 198.135 120.246 198.135Z" fill="black"/>
<rect width="393" height="852" fill="black" fill-opacity="0.6"/>
<rect x="64" y="329" width="265" height="194" rx="21" fill="white"/>
<path d="M147.165 365.112C146.344 365.112 145.608 364.979 144.957 364.712C144.307 364.445 143.784 364.051 143.389 363.528C143.005 363.005 142.803 362.376 142.781 361.64H145.693C145.736 362.056 145.88 362.376 146.125 362.6C146.371 362.813 146.691 362.92 147.085 362.92C147.491 362.92 147.811 362.829 148.045 362.648C148.28 362.456 148.397 362.195 148.397 361.864C148.397 361.587 148.301 361.357 148.109 361.176C147.928 360.995 147.699 360.845 147.421 360.728C147.155 360.611 146.771 360.477 146.269 360.328C145.544 360.104 144.952 359.88 144.493 359.656C144.035 359.432 143.64 359.101 143.309 358.664C142.979 358.227 142.813 357.656 142.813 356.952C142.813 355.907 143.192 355.091 143.949 354.504C144.707 353.907 145.693 353.608 146.909 353.608C148.147 353.608 149.144 353.907 149.901 354.504C150.659 355.091 151.064 355.912 151.117 356.968H148.157C148.136 356.605 148.003 356.323 147.757 356.12C147.512 355.907 147.197 355.8 146.813 355.8C146.483 355.8 146.216 355.891 146.013 356.072C145.811 356.243 145.709 356.493 145.709 356.824C145.709 357.187 145.88 357.469 146.221 357.672C146.563 357.875 147.096 358.093 147.821 358.328C148.547 358.573 149.133 358.808 149.581 359.032C150.04 359.256 150.435 359.581 150.765 360.008C151.096 360.435 151.261 360.984 151.261 361.656C151.261 362.296 151.096 362.877 150.765 363.4C150.445 363.923 149.976 364.339 149.357 364.648C148.739 364.957 148.008 365.112 147.165 365.112ZM152.401 360.52C152.401 359.603 152.572 358.797 152.913 358.104C153.265 357.411 153.74 356.877 154.337 356.504C154.934 356.131 155.601 355.944 156.337 355.944C156.966 355.944 157.516 356.072 157.985 356.328C158.465 356.584 158.833 356.92 159.089 357.336V356.072H161.825V365H159.089V363.736C158.822 364.152 158.449 364.488 157.969 364.744C157.5 365 156.95 365.128 156.321 365.128C155.596 365.128 154.934 364.941 154.337 364.568C153.74 364.184 153.265 363.645 152.913 362.952C152.572 362.248 152.401 361.437 152.401 360.52ZM159.089 360.536C159.089 359.853 158.897 359.315 158.513 358.92C158.14 358.525 157.681 358.328 157.137 358.328C156.593 358.328 156.129 358.525 155.745 358.92C155.372 359.304 155.185 359.837 155.185 360.52C155.185 361.203 155.372 361.747 155.745 362.152C156.129 362.547 156.593 362.744 157.137 362.744C157.681 362.744 158.14 362.547 158.513 362.152C158.897 361.757 159.089 361.219 159.089 360.536ZM165.181 355.144C164.701 355.144 164.306 355.005 163.997 354.728C163.698 354.44 163.549 354.088 163.549 353.672C163.549 353.245 163.698 352.893 163.997 352.616C164.306 352.328 164.701 352.184 165.181 352.184C165.65 352.184 166.034 352.328 166.333 352.616C166.642 352.893 166.797 353.245 166.797 353.672C166.797 354.088 166.642 354.44 166.333 354.728C166.034 355.005 165.65 355.144 165.181 355.144ZM166.541 356.072V365H163.805V356.072H166.541ZM171.259 357.56C171.579 357.069 171.979 356.685 172.459 356.408C172.939 356.12 173.473 355.976 174.059 355.976V358.872H173.307C172.625 358.872 172.113 359.021 171.771 359.32C171.43 359.608 171.259 360.12 171.259 360.856V365H168.523V356.072H171.259V357.56ZM178.214 360.52C178.214 359.603 178.384 358.797 178.726 358.104C179.078 357.411 179.552 356.877 180.15 356.504C180.747 356.131 181.414 355.944 182.15 355.944C182.736 355.944 183.27 356.067 183.75 356.312C184.24 356.557 184.624 356.888 184.902 357.304V353.16H187.638V365H184.902V363.72C184.646 364.147 184.278 364.488 183.798 364.744C183.328 365 182.779 365.128 182.15 365.128C181.414 365.128 180.747 364.941 180.15 364.568C179.552 364.184 179.078 363.645 178.726 362.952C178.384 362.248 178.214 361.437 178.214 360.52ZM184.902 360.536C184.902 359.853 184.71 359.315 184.326 358.92C183.952 358.525 183.494 358.328 182.95 358.328C182.406 358.328 181.942 358.525 181.558 358.92C181.184 359.304 180.998 359.837 180.998 360.52C180.998 361.203 181.184 361.747 181.558 362.152C181.942 362.547 182.406 362.744 182.95 362.744C183.494 362.744 183.952 362.547 184.326 362.152C184.71 361.757 184.902 361.219 184.902 360.536ZM189.073 360.52C189.073 359.603 189.244 358.797 189.585 358.104C189.937 357.411 190.412 356.877 191.009 356.504C191.606 356.131 192.273 355.944 193.009 355.944C193.638 355.944 194.188 356.072 194.657 356.328C195.137 356.584 195.505 356.92 195.761 357.336V356.072H198.497V365H195.761V363.736C195.494 364.152 195.121 364.488 194.641 364.744C194.172 365 193.622 365.128 192.993 365.128C192.268 365.128 191.606 364.941 191.009 364.568C190.412 364.184 189.937 363.645 189.585 362.952C189.244 362.248 189.073 361.437 189.073 360.52ZM195.761 360.536C195.761 359.853 195.569 359.315 195.185 358.92C194.812 358.525 194.353 358.328 193.809 358.328C193.265 358.328 192.801 358.525 192.417 358.92C192.044 359.304 191.857 359.837 191.857 360.52C191.857 361.203 192.044 361.747 192.417 362.152C192.801 362.547 193.265 362.744 193.809 362.744C194.353 362.744 194.812 362.547 195.185 362.152C195.569 361.757 195.761 361.219 195.761 360.536ZM203.323 360.536C203.323 359.608 203.51 358.797 203.883 358.104C204.267 357.411 204.795 356.877 205.467 356.504C206.15 356.131 206.928 355.944 207.803 355.944C208.923 355.944 209.856 356.237 210.603 356.824C211.36 357.411 211.856 358.237 212.091 359.304H209.179C208.934 358.621 208.459 358.28 207.755 358.28C207.254 358.28 206.854 358.477 206.555 358.872C206.256 359.256 206.107 359.811 206.107 360.536C206.107 361.261 206.256 361.821 206.555 362.216C206.854 362.6 207.254 362.792 207.755 362.792C208.459 362.792 208.934 362.451 209.179 361.768H212.091C211.856 362.813 211.36 363.635 210.603 364.232C209.846 364.829 208.912 365.128 207.803 365.128C206.928 365.128 206.15 364.941 205.467 364.568C204.795 364.195 204.267 363.661 203.883 362.968C203.51 362.275 203.323 361.464 203.323 360.536ZM217.619 365.128C216.744 365.128 215.955 364.941 215.251 364.568C214.557 364.195 214.008 363.661 213.603 362.968C213.208 362.275 213.011 361.464 213.011 360.536C213.011 359.619 213.213 358.813 213.618 358.12C214.024 357.416 214.579 356.877 215.283 356.504C215.987 356.131 216.776 355.944 217.651 355.944C218.525 355.944 219.315 356.131 220.019 356.504C220.723 356.877 221.277 357.416 221.683 358.12C222.088 358.813 222.291 359.619 222.291 360.536C222.291 361.453 222.083 362.264 221.667 362.968C221.261 363.661 220.701 364.195 219.987 364.568C219.283 364.941 218.493 365.128 217.619 365.128ZM217.619 362.76C218.141 362.76 218.584 362.568 218.947 362.184C219.32 361.8 219.507 361.251 219.507 360.536C219.507 359.821 219.325 359.272 218.963 358.888C218.611 358.504 218.173 358.312 217.651 358.312C217.117 358.312 216.675 358.504 216.323 358.888C215.971 359.261 215.795 359.811 215.795 360.536C215.795 361.251 215.965 361.8 216.307 362.184C216.659 362.568 217.096 362.76 217.619 362.76ZM229.182 355.976C230.227 355.976 231.059 356.317 231.678 357C232.307 357.672 232.622 358.6 232.622 359.784V365H229.902V360.152C229.902 359.555 229.747 359.091 229.438 358.76C229.129 358.429 228.713 358.264 228.19 358.264C227.667 358.264 227.251 358.429 226.942 358.76C226.633 359.091 226.478 359.555 226.478 360.152V365H223.742V356.072H226.478V357.256C226.755 356.861 227.129 356.552 227.598 356.328C228.067 356.093 228.595 355.976 229.182 355.976ZM239.499 362.68V365H238.107C237.115 365 236.342 364.76 235.787 364.28C235.233 363.789 234.955 362.995 234.955 361.896V358.344H233.867V356.072H234.955V353.896H237.691V356.072H239.483V358.344H237.691V361.928C237.691 362.195 237.755 362.387 237.883 362.504C238.011 362.621 238.225 362.68 238.523 362.68H239.499ZM240.479 360.52C240.479 359.603 240.65 358.797 240.991 358.104C241.343 357.411 241.818 356.877 242.415 356.504C243.013 356.131 243.679 355.944 244.415 355.944C245.045 355.944 245.594 356.072 246.063 356.328C246.543 356.584 246.911 356.92 247.167 357.336V356.072H249.903V365H247.167V363.736C246.901 364.152 246.527 364.488 246.047 364.744C245.578 365 245.029 365.128 244.399 365.128C243.674 365.128 243.013 364.941 242.415 364.568C241.818 364.184 241.343 363.645 240.991 362.952C240.65 362.248 240.479 361.437 240.479 360.52ZM247.167 360.536C247.167 359.853 246.975 359.315 246.591 358.92C246.218 358.525 245.759 358.328 245.215 358.328C244.671 358.328 244.207 358.525 243.823 358.92C243.45 359.304 243.263 359.837 243.263 360.52C243.263 361.203 243.45 361.747 243.823 362.152C244.207 362.547 244.671 362.744 245.215 362.744C245.759 362.744 246.218 362.547 246.591 362.152C246.975 361.757 247.167 361.219 247.167 360.536Z" fill="black"/>
<path d="M98.6686 479.368C98.6686 478.259 98.9086 477.272 99.3886 476.408C99.8686 475.533 100.535 474.856 101.389 474.376C102.253 473.885 103.229 473.64 104.317 473.64C105.65 473.64 106.791 473.992 107.741 474.696C108.69 475.4 109.325 476.36 109.645 477.576H106.637C106.413 477.107 106.093 476.749 105.677 476.504C105.271 476.259 104.807 476.136 104.285 476.136C103.442 476.136 102.759 476.429 102.237 477.016C101.714 477.603 101.453 478.387 101.453 479.368C101.453 480.349 101.714 481.133 102.237 481.72C102.759 482.307 103.442 482.6 104.285 482.6C104.807 482.6 105.271 482.477 105.677 482.232C106.093 481.987 106.413 481.629 106.637 481.16H109.645C109.325 482.376 108.69 483.336 107.741 484.04C106.791 484.733 105.65 485.08 104.317 485.08C103.229 485.08 102.253 484.84 101.389 484.36C100.535 483.869 99.8686 483.192 99.3886 482.328C98.9086 481.464 98.6686 480.477 98.6686 479.368ZM118.312 483.016H114.12L113.448 485H110.584L114.648 473.768H117.816L121.88 485H118.984L118.312 483.016ZM117.608 480.904L116.216 476.792L114.84 480.904H117.608ZM133.165 485H130.429L125.853 478.072V485H123.117V473.768H125.853L130.429 480.728V473.768H133.165V485ZM134.684 479.368C134.684 478.259 134.924 477.272 135.404 476.408C135.884 475.533 136.551 474.856 137.404 474.376C138.268 473.885 139.244 473.64 140.332 473.64C141.666 473.64 142.807 473.992 143.756 474.696C144.706 475.4 145.34 476.36 145.66 477.576H142.652C142.428 477.107 142.108 476.749 141.692 476.504C141.287 476.259 140.823 476.136 140.3 476.136C139.458 476.136 138.775 476.429 138.252 477.016C137.73 477.603 137.468 478.387 137.468 479.368C137.468 480.349 137.73 481.133 138.252 481.72C138.775 482.307 139.458 482.6 140.3 482.6C140.823 482.6 141.287 482.477 141.692 482.232C142.108 481.987 142.428 481.629 142.652 481.16H145.66C145.34 482.376 144.706 483.336 143.756 484.04C142.807 484.733 141.666 485.08 140.332 485.08C139.244 485.08 138.268 484.84 137.404 484.36C136.551 483.869 135.884 483.192 135.404 482.328C134.924 481.464 134.684 480.477 134.684 479.368ZM150.072 475.96V478.232H153.736V480.344H150.072V482.808H154.216V485H147.336V473.768H154.216V475.96H150.072ZM158.728 482.888H162.312V485H155.992V473.768H158.728V482.888ZM170.609 483.016H166.417L165.745 485H162.881L166.945 473.768H170.113L174.177 485H171.281L170.609 483.016ZM169.905 480.904L168.513 476.792L167.137 480.904H169.905ZM181.142 485L178.806 480.76H178.15V485H175.414V473.768H180.006C180.891 473.768 181.643 473.923 182.262 474.232C182.891 474.541 183.361 474.968 183.67 475.512C183.979 476.045 184.134 476.643 184.134 477.304C184.134 478.051 183.921 478.717 183.494 479.304C183.078 479.891 182.459 480.307 181.638 480.552L184.23 485H181.142ZM178.15 478.824H179.846C180.347 478.824 180.721 478.701 180.966 478.456C181.222 478.211 181.35 477.864 181.35 477.416C181.35 476.989 181.222 476.653 180.966 476.408C180.721 476.163 180.347 476.04 179.846 476.04H178.15V478.824Z" fill="black"/>
<path d="M269.158 485.112C268.336 485.112 267.6 484.979 266.95 484.712C266.299 484.445 265.776 484.051 265.382 483.528C264.998 483.005 264.795 482.376 264.774 481.64H267.686C267.728 482.056 267.872 482.376 268.118 482.6C268.363 482.813 268.683 482.92 269.078 482.92C269.483 482.92 269.803 482.829 270.038 482.648C270.272 482.456 270.39 482.195 270.39 481.864C270.39 481.587 270.294 481.357 270.102 481.176C269.92 480.995 269.691 480.845 269.414 480.728C269.147 480.611 268.763 480.477 268.262 480.328C267.536 480.104 266.944 479.88 266.486 479.656C266.027 479.432 265.632 479.101 265.302 478.664C264.971 478.227 264.806 477.656 264.806 476.952C264.806 475.907 265.184 475.091 265.942 474.504C266.699 473.907 267.686 473.608 268.902 473.608C270.139 473.608 271.136 473.907 271.894 474.504C272.651 475.091 273.056 475.912 273.11 476.968H270.15C270.128 476.605 269.995 476.323 269.75 476.12C269.504 475.907 269.19 475.8 268.806 475.8C268.475 475.8 268.208 475.891 268.006 476.072C267.803 476.243 267.702 476.493 267.702 476.824C267.702 477.187 267.872 477.469 268.214 477.672C268.555 477.875 269.088 478.093 269.814 478.328C270.539 478.573 271.126 478.808 271.574 479.032C272.032 479.256 272.427 479.581 272.758 480.008C273.088 480.435 273.254 480.984 273.254 481.656C273.254 482.296 273.088 482.877 272.758 483.4C272.438 483.923 271.968 484.339 271.35 484.648C270.731 484.957 270 485.112 269.158 485.112ZM281.929 483.016H277.737L277.065 485H274.201L278.265 473.768H281.433L285.497 485H282.601L281.929 483.016ZM281.225 480.904L279.833 476.792L278.457 480.904H281.225ZM289.47 473.768V485H286.734V473.768H289.47ZM297.181 485L294.845 480.76H294.189V485H291.453V473.768H296.045C296.93 473.768 297.682 473.923 298.301 474.232C298.93 474.541 299.4 474.968 299.709 475.512C300.018 476.045 300.173 476.643 300.173 477.304C300.173 478.051 299.96 478.717 299.533 479.304C299.117 479.891 298.498 480.307 297.677 480.552L300.269 485H297.181ZM294.189 478.824H295.885C296.386 478.824 296.76 478.701 297.005 478.456C297.261 478.211 297.389 477.864 297.389 477.416C297.389 476.989 297.261 476.653 297.005 476.408C296.76 476.163 296.386 476.04 295.885 476.04H294.189V478.824Z" fill="black"/>
<path d="M96.41 391.545C97.55 391.545 98.535 391.76 99.365 392.19C100.205 392.61 100.845 393.215 101.285 394.005C101.735 394.795 101.96 395.725 101.96 396.795C101.96 397.865 101.735 398.795 101.285 399.585C100.845 400.365 100.205 400.965 99.365 401.385C98.535 401.795 97.55 402 96.41 402H93.155V391.545H96.41ZM96.41 400.875C97.76 400.875 98.79 400.52 99.5 399.81C100.21 399.09 100.565 398.085 100.565 396.795C100.565 395.495 100.205 394.48 99.485 393.75C98.775 393.02 97.75 392.655 96.41 392.655H94.52V400.875H96.41ZM111.26 397.575C111.26 397.835 111.245 398.11 111.215 398.4H104.645C104.695 399.21 104.97 399.845 105.47 400.305C105.98 400.755 106.595 400.98 107.315 400.98C107.905 400.98 108.395 400.845 108.785 400.575C109.185 400.295 109.465 399.925 109.625 399.465H111.095C110.875 400.255 110.435 400.9 109.775 401.4C109.115 401.89 108.295 402.135 107.315 402.135C106.535 402.135 105.835 401.96 105.215 401.61C104.605 401.26 104.125 400.765 103.775 400.125C103.425 399.475 103.25 398.725 103.25 397.875C103.25 397.025 103.42 396.28 103.76 395.64C104.1 395 104.575 394.51 105.185 394.17C105.805 393.82 106.515 393.645 107.315 393.645C108.095 393.645 108.785 393.815 109.385 394.155C109.985 394.495 110.445 394.965 110.765 395.565C111.095 396.155 111.26 396.825 111.26 397.575ZM109.85 397.29C109.85 396.77 109.735 396.325 109.505 395.955C109.275 395.575 108.96 395.29 108.56 395.1C108.17 394.9 107.735 394.8 107.255 394.8C106.565 394.8 105.975 395.02 105.485 395.46C105.005 395.9 104.73 396.51 104.66 397.29H109.85ZM115.972 402.135C115.342 402.135 114.777 402.03 114.277 401.82C113.777 401.6 113.382 401.3 113.092 400.92C112.802 400.53 112.642 400.085 112.612 399.585H114.022C114.062 399.995 114.252 400.33 114.592 400.59C114.942 400.85 115.397 400.98 115.957 400.98C116.477 400.98 116.887 400.865 117.187 400.635C117.487 400.405 117.637 400.115 117.637 399.765C117.637 399.405 117.477 399.14 117.157 398.97C116.837 398.79 116.342 398.615 115.672 398.445C115.062 398.285 114.562 398.125 114.172 397.965C113.792 397.795 113.462 397.55 113.182 397.23C112.912 396.9 112.777 396.47 112.777 395.94C112.777 395.52 112.902 395.135 113.152 394.785C113.402 394.435 113.757 394.16 114.217 393.96C114.677 393.75 115.202 393.645 115.792 393.645C116.702 393.645 117.437 393.875 117.997 394.335C118.557 394.795 118.857 395.425 118.897 396.225H117.532C117.502 395.795 117.327 395.45 117.007 395.19C116.697 394.93 116.277 394.8 115.747 394.8C115.257 394.8 114.867 394.905 114.577 395.115C114.287 395.325 114.142 395.6 114.142 395.94C114.142 396.21 114.227 396.435 114.397 396.615C114.577 396.785 114.797 396.925 115.057 397.035C115.327 397.135 115.697 397.25 116.167 397.38C116.757 397.54 117.237 397.7 117.607 397.86C117.977 398.01 118.292 398.24 118.552 398.55C118.822 398.86 118.962 399.265 118.972 399.765C118.972 400.215 118.847 400.62 118.597 400.98C118.347 401.34 117.992 401.625 117.532 401.835C117.082 402.035 116.562 402.135 115.972 402.135ZM128.399 397.575C128.399 397.835 128.384 398.11 128.354 398.4H121.784C121.834 399.21 122.109 399.845 122.609 400.305C123.119 400.755 123.734 400.98 124.454 400.98C125.044 400.98 125.534 400.845 125.924 400.575C126.324 400.295 126.604 399.925 126.764 399.465H128.234C128.014 400.255 127.574 400.9 126.914 401.4C126.254 401.89 125.434 402.135 124.454 402.135C123.674 402.135 122.974 401.96 122.354 401.61C121.744 401.26 121.264 400.765 120.914 400.125C120.564 399.475 120.389 398.725 120.389 397.875C120.389 397.025 120.559 396.28 120.899 395.64C121.239 395 121.714 394.51 122.324 394.17C122.944 393.82 123.654 393.645 124.454 393.645C125.234 393.645 125.924 393.815 126.524 394.155C127.124 394.495 127.584 394.965 127.904 395.565C128.234 396.155 128.399 396.825 128.399 397.575ZM126.989 397.29C126.989 396.77 126.874 396.325 126.644 395.955C126.414 395.575 126.099 395.29 125.699 395.1C125.309 394.9 124.874 394.8 124.394 394.8C123.704 394.8 123.114 395.02 122.624 395.46C122.144 395.9 121.869 396.51 121.799 397.29H126.989ZM130.936 392.445C130.676 392.445 130.456 392.355 130.276 392.175C130.106 391.995 130.021 391.775 130.021 391.515C130.021 391.255 130.106 391.035 130.276 390.855C130.456 390.675 130.676 390.585 130.936 390.585C131.196 390.585 131.411 390.675 131.581 390.855C131.761 391.035 131.851 391.255 131.851 391.515C131.851 391.775 131.761 391.995 131.581 392.175C131.411 392.355 131.196 392.445 130.936 392.445ZM131.611 403.785C131.611 404.515 131.426 405.05 131.056 405.39C130.686 405.73 130.146 405.9 129.436 405.9H128.641V404.745H129.211C129.591 404.745 129.856 404.67 130.006 404.52C130.166 404.37 130.246 404.115 130.246 403.755V393.78H131.611V403.785ZM133.412 397.86C133.412 397.02 133.582 396.285 133.922 395.655C134.262 395.015 134.727 394.52 135.317 394.17C135.917 393.82 136.582 393.645 137.312 393.645C138.032 393.645 138.657 393.8 139.187 394.11C139.717 394.42 140.112 394.81 140.372 395.28V393.78H141.752V402H140.372V400.47C140.102 400.95 139.697 401.35 139.157 401.67C138.627 401.98 138.007 402.135 137.297 402.135C136.567 402.135 135.907 401.955 135.317 401.595C134.727 401.235 134.262 400.73 133.922 400.08C133.582 399.43 133.412 398.69 133.412 397.86ZM140.372 397.875C140.372 397.255 140.247 396.715 139.997 396.255C139.747 395.795 139.407 395.445 138.977 395.205C138.557 394.955 138.092 394.83 137.582 394.83C137.072 394.83 136.607 394.95 136.187 395.19C135.767 395.43 135.432 395.78 135.182 396.24C134.932 396.7 134.807 397.24 134.807 397.86C134.807 398.49 134.932 399.04 135.182 399.51C135.432 399.97 135.767 400.325 136.187 400.575C136.607 400.815 137.072 400.935 137.582 400.935C138.092 400.935 138.557 400.815 138.977 400.575C139.407 400.325 139.747 399.97 139.997 399.51C140.247 399.04 140.372 398.495 140.372 397.875ZM157.942 393.63C158.582 393.63 159.152 393.765 159.652 394.035C160.152 394.295 160.547 394.69 160.837 395.22C161.127 395.75 161.272 396.395 161.272 397.155V402H159.922V397.35C159.922 396.53 159.717 395.905 159.307 395.475C158.907 395.035 158.362 394.815 157.672 394.815C156.962 394.815 156.397 395.045 155.977 395.505C155.557 395.955 155.347 396.61 155.347 397.47V402H153.997V397.35C153.997 396.53 153.792 395.905 153.382 395.475C152.982 395.035 152.437 394.815 151.747 394.815C151.037 394.815 150.472 395.045 150.052 395.505C149.632 395.955 149.422 396.61 149.422 397.47V402H148.057V393.78H149.422V394.965C149.692 394.535 150.052 394.205 150.502 393.975C150.962 393.745 151.467 393.63 152.017 393.63C152.707 393.63 153.317 393.785 153.847 394.095C154.377 394.405 154.772 394.86 155.032 395.46C155.262 394.88 155.642 394.43 156.172 394.11C156.702 393.79 157.292 393.63 157.942 393.63ZM171.011 397.575C171.011 397.835 170.996 398.11 170.966 398.4H164.396C164.446 399.21 164.721 399.845 165.221 400.305C165.731 400.755 166.346 400.98 167.066 400.98C167.656 400.98 168.146 400.845 168.536 400.575C168.936 400.295 169.216 399.925 169.376 399.465H170.846C170.626 400.255 170.186 400.9 169.526 401.4C168.866 401.89 168.046 402.135 167.066 402.135C166.286 402.135 165.586 401.96 164.966 401.61C164.356 401.26 163.876 400.765 163.526 400.125C163.176 399.475 163.001 398.725 163.001 397.875C163.001 397.025 163.171 396.28 163.511 395.64C163.851 395 164.326 394.51 164.936 394.17C165.556 393.82 166.266 393.645 167.066 393.645C167.846 393.645 168.536 393.815 169.136 394.155C169.736 394.495 170.196 394.965 170.516 395.565C170.846 396.155 171.011 396.825 171.011 397.575ZM169.601 397.29C169.601 396.77 169.486 396.325 169.256 395.955C169.026 395.575 168.711 395.29 168.311 395.1C167.921 394.9 167.486 394.8 167.006 394.8C166.316 394.8 165.726 395.02 165.236 395.46C164.756 395.9 164.481 396.51 164.411 397.29H169.601ZM175.723 402.135C175.093 402.135 174.528 402.03 174.028 401.82C173.528 401.6 173.133 401.3 172.843 400.92C172.553 400.53 172.393 400.085 172.363 399.585H173.773C173.813 399.995 174.003 400.33 174.343 400.59C174.693 400.85 175.148 400.98 175.708 400.98C176.228 400.98 176.638 400.865 176.938 400.635C177.238 400.405 177.388 400.115 177.388 399.765C177.388 399.405 177.228 399.14 176.908 398.97C176.588 398.79 176.093 398.615 175.423 398.445C174.813 398.285 174.313 398.125 173.923 397.965C173.543 397.795 173.213 397.55 172.933 397.23C172.663 396.9 172.528 396.47 172.528 395.94C172.528 395.52 172.653 395.135 172.903 394.785C173.153 394.435 173.508 394.16 173.968 393.96C174.428 393.75 174.953 393.645 175.543 393.645C176.453 393.645 177.188 393.875 177.748 394.335C178.308 394.795 178.608 395.425 178.648 396.225H177.283C177.253 395.795 177.078 395.45 176.758 395.19C176.448 394.93 176.028 394.8 175.498 394.8C175.008 394.8 174.618 394.905 174.328 395.115C174.038 395.325 173.893 395.6 173.893 395.94C173.893 396.21 173.978 396.435 174.148 396.615C174.328 396.785 174.548 396.925 174.808 397.035C175.078 397.135 175.448 397.25 175.918 397.38C176.508 397.54 176.988 397.7 177.358 397.86C177.728 398.01 178.043 398.24 178.303 398.55C178.573 398.86 178.713 399.265 178.723 399.765C178.723 400.215 178.598 400.62 178.348 400.98C178.098 401.34 177.743 401.625 177.283 401.835C176.833 402.035 176.313 402.135 175.723 402.135ZM190.535 393.63C191.175 393.63 191.745 393.765 192.245 394.035C192.745 394.295 193.14 394.69 193.43 395.22C193.72 395.75 193.865 396.395 193.865 397.155V402H192.515V397.35C192.515 396.53 192.31 395.905 191.9 395.475C191.5 395.035 190.955 394.815 190.265 394.815C189.555 394.815 188.99 395.045 188.57 395.505C188.15 395.955 187.94 396.61 187.94 397.47V402H186.59V397.35C186.59 396.53 186.385 395.905 185.975 395.475C185.575 395.035 185.03 394.815 184.34 394.815C183.63 394.815 183.065 395.045 182.645 395.505C182.225 395.955 182.015 396.61 182.015 397.47V402H180.65V393.78H182.015V394.965C182.285 394.535 182.645 394.205 183.095 393.975C183.555 393.745 184.06 393.63 184.61 393.63C185.3 393.63 185.91 393.785 186.44 394.095C186.97 394.405 187.365 394.86 187.625 395.46C187.855 394.88 188.235 394.43 188.765 394.11C189.295 393.79 189.885 393.63 190.535 393.63ZM199.689 402.135C198.919 402.135 198.219 401.96 197.589 401.61C196.969 401.26 196.479 400.765 196.119 400.125C195.769 399.475 195.594 398.725 195.594 397.875C195.594 397.035 195.774 396.295 196.134 395.655C196.504 395.005 197.004 394.51 197.634 394.17C198.264 393.82 198.969 393.645 199.749 393.645C200.529 393.645 201.234 393.82 201.864 394.17C202.494 394.51 202.989 395 203.349 395.64C203.719 396.28 203.904 397.025 203.904 397.875C203.904 398.725 203.714 399.475 203.334 400.125C202.964 400.765 202.459 401.26 201.819 401.61C201.179 401.96 200.469 402.135 199.689 402.135ZM199.689 400.935C200.179 400.935 200.639 400.82 201.069 400.59C201.499 400.36 201.844 400.015 202.104 399.555C202.374 399.095 202.509 398.535 202.509 397.875C202.509 397.215 202.379 396.655 202.119 396.195C201.859 395.735 201.519 395.395 201.099 395.175C200.679 394.945 200.224 394.83 199.734 394.83C199.234 394.83 198.774 394.945 198.354 395.175C197.944 395.395 197.614 395.735 197.364 396.195C197.114 396.655 196.989 397.215 196.989 397.875C196.989 398.545 197.109 399.11 197.349 399.57C197.599 400.03 197.929 400.375 198.339 400.605C198.749 400.825 199.199 400.935 199.689 400.935ZM212.608 402.135C211.978 402.135 211.413 402.03 210.913 401.82C210.413 401.6 210.018 401.3 209.728 400.92C209.438 400.53 209.278 400.085 209.248 399.585H210.658C210.698 399.995 210.888 400.33 211.228 400.59C211.578 400.85 212.033 400.98 212.593 400.98C213.113 400.98 213.523 400.865 213.823 400.635C214.123 400.405 214.273 400.115 214.273 399.765C214.273 399.405 214.113 399.14 213.793 398.97C213.473 398.79 212.978 398.615 212.308 398.445C211.698 398.285 211.198 398.125 210.808 397.965C210.428 397.795 210.098 397.55 209.818 397.23C209.548 396.9 209.413 396.47 209.413 395.94C209.413 395.52 209.538 395.135 209.788 394.785C210.038 394.435 210.393 394.16 210.853 393.96C211.313 393.75 211.838 393.645 212.428 393.645C213.338 393.645 214.073 393.875 214.633 394.335C215.193 394.795 215.493 395.425 215.533 396.225H214.168C214.138 395.795 213.963 395.45 213.643 395.19C213.333 394.93 212.913 394.8 212.383 394.8C211.893 394.8 211.503 394.905 211.213 395.115C210.923 395.325 210.778 395.6 210.778 395.94C210.778 396.21 210.863 396.435 211.033 396.615C211.213 396.785 211.433 396.925 211.693 397.035C211.963 397.135 212.333 397.25 212.803 397.38C213.393 397.54 213.873 397.7 214.243 397.86C214.613 398.01 214.928 398.24 215.188 398.55C215.458 398.86 215.598 399.265 215.608 399.765C215.608 400.215 215.483 400.62 215.233 400.98C214.983 401.34 214.628 401.625 214.168 401.835C213.718 402.035 213.198 402.135 212.608 402.135ZM217.025 397.86C217.025 397.02 217.195 396.285 217.535 395.655C217.875 395.015 218.34 394.52 218.93 394.17C219.53 393.82 220.195 393.645 220.925 393.645C221.645 393.645 222.27 393.8 222.8 394.11C223.33 394.42 223.725 394.81 223.985 395.28V393.78H225.365V402H223.985V400.47C223.715 400.95 223.31 401.35 222.77 401.67C222.24 401.98 221.62 402.135 220.91 402.135C220.18 402.135 219.52 401.955 218.93 401.595C218.34 401.235 217.875 400.73 217.535 400.08C217.195 399.43 217.025 398.69 217.025 397.86ZM223.985 397.875C223.985 397.255 223.86 396.715 223.61 396.255C223.36 395.795 223.02 395.445 222.59 395.205C222.17 394.955 221.705 394.83 221.195 394.83C220.685 394.83 220.22 394.95 219.8 395.19C219.38 395.43 219.045 395.78 218.795 396.24C218.545 396.7 218.42 397.24 218.42 397.86C218.42 398.49 218.545 399.04 218.795 399.51C219.045 399.97 219.38 400.325 219.8 400.575C220.22 400.815 220.685 400.935 221.195 400.935C221.705 400.935 222.17 400.815 222.59 400.575C223.02 400.325 223.36 399.97 223.61 399.51C223.86 399.04 223.985 398.495 223.985 397.875ZM228.377 392.445C228.117 392.445 227.897 392.355 227.717 392.175C227.537 391.995 227.447 391.775 227.447 391.515C227.447 391.255 227.537 391.035 227.717 390.855C227.897 390.675 228.117 390.585 228.377 390.585C228.627 390.585 228.837 390.675 229.007 390.855C229.187 391.035 229.277 391.255 229.277 391.515C229.277 391.775 229.187 391.995 229.007 392.175C228.837 392.355 228.627 392.445 228.377 392.445ZM229.037 393.78V402H227.672V393.78H229.037ZM232.728 395.115C232.968 394.645 233.308 394.28 233.748 394.02C234.198 393.76 234.743 393.63 235.383 393.63V395.04H235.023C233.493 395.04 232.728 395.87 232.728 397.53V402H231.363V393.78H232.728V395.115ZM240.448 397.86C240.448 397.02 240.618 396.285 240.958 395.655C241.298 395.015 241.763 394.52 242.353 394.17C242.953 393.82 243.623 393.645 244.363 393.645C245.003 393.645 245.598 393.795 246.148 394.095C246.698 394.385 247.118 394.77 247.408 395.25V390.9H248.788V402H247.408V400.455C247.138 400.945 246.738 401.35 246.208 401.67C245.678 401.98 245.058 402.135 244.348 402.135C243.618 402.135 242.953 401.955 242.353 401.595C241.763 401.235 241.298 400.73 240.958 400.08C240.618 399.43 240.448 398.69 240.448 397.86ZM247.408 397.875C247.408 397.255 247.283 396.715 247.033 396.255C246.783 395.795 246.443 395.445 246.013 395.205C245.593 394.955 245.128 394.83 244.618 394.83C244.108 394.83 243.643 394.95 243.223 395.19C242.803 395.43 242.468 395.78 242.218 396.24C241.968 396.7 241.843 397.24 241.843 397.86C241.843 398.49 241.968 399.04 242.218 399.51C242.468 399.97 242.803 400.325 243.223 400.575C243.643 400.815 244.108 400.935 244.618 400.935C245.128 400.935 245.593 400.815 246.013 400.575C246.443 400.325 246.783 399.97 247.033 399.51C247.283 399.04 247.408 398.495 247.408 397.875ZM250.584 397.86C250.584 397.02 250.754 396.285 251.094 395.655C251.434 395.015 251.899 394.52 252.489 394.17C253.089 393.82 253.754 393.645 254.484 393.645C255.204 393.645 255.829 393.8 256.359 394.11C256.889 394.42 257.284 394.81 257.544 395.28V393.78H258.924V402H257.544V400.47C257.274 400.95 256.869 401.35 256.329 401.67C255.799 401.98 255.179 402.135 254.469 402.135C253.739 402.135 253.079 401.955 252.489 401.595C251.899 401.235 251.434 400.73 251.094 400.08C250.754 399.43 250.584 398.69 250.584 397.86ZM257.544 397.875C257.544 397.255 257.419 396.715 257.169 396.255C256.919 395.795 256.579 395.445 256.149 395.205C255.729 394.955 255.264 394.83 254.754 394.83C254.244 394.83 253.779 394.95 253.359 395.19C252.939 395.43 252.604 395.78 252.354 396.24C252.104 396.7 251.979 397.24 251.979 397.86C251.979 398.49 252.104 399.04 252.354 399.51C252.604 399.97 252.939 400.325 253.359 400.575C253.779 400.815 254.244 400.935 254.754 400.935C255.264 400.935 255.729 400.815 256.149 400.575C256.579 400.325 256.919 399.97 257.169 399.51C257.419 399.04 257.544 398.495 257.544 397.875ZM268.14 402.135C267.51 402.135 266.945 402.03 266.445 401.82C265.945 401.6 265.55 401.3 265.26 400.92C264.97 400.53 264.81 400.085 264.78 399.585H266.19C266.23 399.995 266.42 400.33 266.76 400.59C267.11 400.85 267.565 400.98 268.125 400.98C268.645 400.98 269.055 400.865 269.355 400.635C269.655 400.405 269.805 400.115 269.805 399.765C269.805 399.405 269.645 399.14 269.325 398.97C269.005 398.79 268.51 398.615 267.84 398.445C267.23 398.285 266.73 398.125 266.34 397.965C265.96 397.795 265.63 397.55 265.35 397.23C265.08 396.9 264.945 396.47 264.945 395.94C264.945 395.52 265.07 395.135 265.32 394.785C265.57 394.435 265.925 394.16 266.385 393.96C266.845 393.75 267.37 393.645 267.96 393.645C268.87 393.645 269.605 393.875 270.165 394.335C270.725 394.795 271.025 395.425 271.065 396.225H269.7C269.67 395.795 269.495 395.45 269.175 395.19C268.865 394.93 268.445 394.8 267.915 394.8C267.425 394.8 267.035 394.905 266.745 395.115C266.455 395.325 266.31 395.6 266.31 395.94C266.31 396.21 266.395 396.435 266.565 396.615C266.745 396.785 266.965 396.925 267.225 397.035C267.495 397.135 267.865 397.25 268.335 397.38C268.925 397.54 269.405 397.7 269.775 397.86C270.145 398.01 270.46 398.24 270.72 398.55C270.99 398.86 271.13 399.265 271.14 399.765C271.14 400.215 271.015 400.62 270.765 400.98C270.515 401.34 270.16 401.625 269.7 401.835C269.25 402.035 268.73 402.135 268.14 402.135ZM280.357 393.78V402H278.992V400.785C278.732 401.205 278.367 401.535 277.897 401.775C277.437 402.005 276.927 402.12 276.367 402.12C275.727 402.12 275.152 401.99 274.642 401.73C274.132 401.46 273.727 401.06 273.427 400.53C273.137 400 272.992 399.355 272.992 398.595V393.78H274.342V398.415C274.342 399.225 274.547 399.85 274.957 400.29C275.367 400.72 275.927 400.935 276.637 400.935C277.367 400.935 277.942 400.71 278.362 400.26C278.782 399.81 278.992 399.155 278.992 398.295V393.78H280.357ZM282.152 397.86C282.152 397.02 282.322 396.285 282.662 395.655C283.002 395.015 283.467 394.52 284.057 394.17C284.657 393.82 285.322 393.645 286.052 393.645C286.772 393.645 287.397 393.8 287.927 394.11C288.457 394.42 288.852 394.81 289.112 395.28V393.78H290.492V402H289.112V400.47C288.842 400.95 288.437 401.35 287.897 401.67C287.367 401.98 286.747 402.135 286.037 402.135C285.307 402.135 284.647 401.955 284.057 401.595C283.467 401.235 283.002 400.73 282.662 400.08C282.322 399.43 282.152 398.69 282.152 397.86ZM289.112 397.875C289.112 397.255 288.987 396.715 288.737 396.255C288.487 395.795 288.147 395.445 287.717 395.205C287.297 394.955 286.832 394.83 286.322 394.83C285.812 394.83 285.347 394.95 284.927 395.19C284.507 395.43 284.172 395.78 283.922 396.24C283.672 396.7 283.547 397.24 283.547 397.86C283.547 398.49 283.672 399.04 283.922 399.51C284.172 399.97 284.507 400.325 284.927 400.575C285.347 400.815 285.812 400.935 286.322 400.935C286.832 400.935 287.297 400.815 287.717 400.575C288.147 400.325 288.487 399.97 288.737 399.51C288.987 399.04 289.112 398.495 289.112 397.875ZM92.645 420.875C92.645 420.025 92.815 419.285 93.155 418.655C93.495 418.015 93.965 417.52 94.565 417.17C95.175 416.82 95.87 416.645 96.65 416.645C97.66 416.645 98.49 416.89 99.14 417.38C99.8 417.87 100.235 418.55 100.445 419.42H98.975C98.835 418.92 98.56 418.525 98.15 418.235C97.75 417.945 97.25 417.8 96.65 417.8C95.87 417.8 95.24 418.07 94.76 418.61C94.28 419.14 94.04 419.895 94.04 420.875C94.04 421.865 94.28 422.63 94.76 423.17C95.24 423.71 95.87 423.98 96.65 423.98C97.25 423.98 97.75 423.84 98.15 423.56C98.55 423.28 98.825 422.88 98.975 422.36H100.445C100.225 423.2 99.785 423.875 99.125 424.385C98.465 424.885 97.64 425.135 96.65 425.135C95.87 425.135 95.175 424.96 94.565 424.61C93.965 424.26 93.495 423.765 93.155 423.125C92.815 422.485 92.645 421.735 92.645 420.875ZM105.851 425.135C105.081 425.135 104.381 424.96 103.751 424.61C103.131 424.26 102.641 423.765 102.281 423.125C101.931 422.475 101.756 421.725 101.756 420.875C101.756 420.035 101.936 419.295 102.296 418.655C102.666 418.005 103.166 417.51 103.796 417.17C104.426 416.82 105.131 416.645 105.911 416.645C106.691 416.645 107.396 416.82 108.026 417.17C108.656 417.51 109.151 418 109.511 418.64C109.881 419.28 110.066 420.025 110.066 420.875C110.066 421.725 109.876 422.475 109.496 423.125C109.126 423.765 108.621 424.26 107.981 424.61C107.341 424.96 106.631 425.135 105.851 425.135ZM105.851 423.935C106.341 423.935 106.801 423.82 107.231 423.59C107.661 423.36 108.006 423.015 108.266 422.555C108.536 422.095 108.671 421.535 108.671 420.875C108.671 420.215 108.541 419.655 108.281 419.195C108.021 418.735 107.681 418.395 107.261 418.175C106.841 417.945 106.386 417.83 105.896 417.83C105.396 417.83 104.936 417.945 104.516 418.175C104.106 418.395 103.776 418.735 103.526 419.195C103.276 419.655 103.151 420.215 103.151 420.875C103.151 421.545 103.271 422.11 103.511 422.57C103.761 423.03 104.091 423.375 104.501 423.605C104.911 423.825 105.361 423.935 105.851 423.935ZM115.866 416.63C116.866 416.63 117.676 416.935 118.296 417.545C118.916 418.145 119.226 419.015 119.226 420.155V425H117.876V420.35C117.876 419.53 117.671 418.905 117.261 418.475C116.851 418.035 116.291 417.815 115.581 417.815C114.861 417.815 114.286 418.04 113.856 418.49C113.436 418.94 113.226 419.595 113.226 420.455V425H111.861V416.78H113.226V417.95C113.496 417.53 113.861 417.205 114.321 416.975C114.791 416.745 115.306 416.63 115.866 416.63ZM123.121 417.905V422.75C123.121 423.15 123.206 423.435 123.376 423.605C123.546 423.765 123.841 423.845 124.261 423.845H125.266V425H124.036C123.276 425 122.706 424.825 122.326 424.475C121.946 424.125 121.756 423.55 121.756 422.75V417.905H120.691V416.78H121.756V414.71H123.121V416.78H125.266V417.905H123.121ZM126.41 420.86C126.41 420.02 126.58 419.285 126.92 418.655C127.26 418.015 127.725 417.52 128.315 417.17C128.915 416.82 129.58 416.645 130.31 416.645C131.03 416.645 131.655 416.8 132.185 417.11C132.715 417.42 133.11 417.81 133.37 418.28V416.78H134.75V425H133.37V423.47C133.1 423.95 132.695 424.35 132.155 424.67C131.625 424.98 131.005 425.135 130.295 425.135C129.565 425.135 128.905 424.955 128.315 424.595C127.725 424.235 127.26 423.73 126.92 423.08C126.58 422.43 126.41 421.69 126.41 420.86ZM133.37 420.875C133.37 420.255 133.245 419.715 132.995 419.255C132.745 418.795 132.405 418.445 131.975 418.205C131.555 417.955 131.09 417.83 130.58 417.83C130.07 417.83 129.605 417.95 129.185 418.19C128.765 418.43 128.43 418.78 128.18 419.24C127.93 419.7 127.805 420.24 127.805 420.86C127.805 421.49 127.93 422.04 128.18 422.51C128.43 422.97 128.765 423.325 129.185 423.575C129.605 423.815 130.07 423.935 130.58 423.935C131.09 423.935 131.555 423.815 131.975 423.575C132.405 423.325 132.745 422.97 132.995 422.51C133.245 422.04 133.37 421.495 133.37 420.875ZM139.726 414.41C140.716 414.41 141.516 414.69 142.126 415.25C142.736 415.81 143.041 416.56 143.041 417.5C143.041 418.55 142.716 419.33 142.066 419.84C141.416 420.34 140.536 420.59 139.426 420.59L139.381 422.015H138.196L138.136 419.645H138.571C139.561 419.645 140.336 419.495 140.896 419.195C141.456 418.895 141.736 418.33 141.736 417.5C141.736 416.9 141.556 416.425 141.196 416.075C140.836 415.725 140.351 415.55 139.741 415.55C139.121 415.55 138.631 415.72 138.271 416.06C137.921 416.39 137.746 416.845 137.746 417.425H136.456C136.456 416.825 136.591 416.3 136.861 415.85C137.131 415.39 137.511 415.035 138.001 414.785C138.501 414.535 139.076 414.41 139.726 414.41ZM138.781 425.09C138.521 425.09 138.301 425 138.121 424.82C137.941 424.64 137.851 424.42 137.851 424.16C137.851 423.9 137.941 423.68 138.121 423.5C138.301 423.32 138.521 423.23 138.781 423.23C139.031 423.23 139.241 423.32 139.411 423.5C139.591 423.68 139.681 423.9 139.681 424.16C139.681 424.42 139.591 424.64 139.411 424.82C139.241 425 139.031 425.09 138.781 425.09Z" fill="black"/>
</g>
<defs>
<clipPath id="clip0_43_357">
<rect width="393" height="852" fill="white"/>
</clipPath>
</defs>
</svg>
