<svg width="393" height="852" viewBox="0 0 393 852" fill="none" xmlns="http://www.w3.org/2000/svg">
<g clip-path="url(#clip0_12_434)">
<rect width="393" height="852" fill="white"/>
<rect width="393" height="852" fill="white"/>
<path d="M36.867 109.7V112.54H41.447V115.18H36.867V118.26H42.047V121H33.447V106.96H42.047V109.7H36.867ZM49.2873 117.8L51.7073 109.84H55.3473L51.3873 121H47.1673L43.2073 109.84H46.8673L49.2873 117.8ZM67.3069 115.24C67.3069 115.56 67.2869 115.893 67.2469 116.24H59.5069C59.5602 116.933 59.7802 117.467 60.1669 117.84C60.5669 118.2 61.0535 118.38 61.6269 118.38C62.4802 118.38 63.0735 118.02 63.4069 117.3H67.0469C66.8602 118.033 66.5202 118.693 66.0269 119.28C65.5469 119.867 64.9402 120.327 64.2069 120.66C63.4735 120.993 62.6535 121.16 61.7469 121.16C60.6535 121.16 59.6802 120.927 58.8269 120.46C57.9735 119.993 57.3069 119.327 56.8269 118.46C56.3469 117.593 56.1069 116.58 56.1069 115.42C56.1069 114.26 56.3402 113.247 56.8069 112.38C57.2869 111.513 57.9535 110.847 58.8069 110.38C59.6602 109.913 60.6402 109.68 61.7469 109.68C62.8269 109.68 63.7869 109.907 64.6269 110.36C65.4669 110.813 66.1202 111.46 66.5869 112.3C67.0669 113.14 67.3069 114.12 67.3069 115.24ZM63.8069 114.34C63.8069 113.753 63.6069 113.287 63.2069 112.94C62.8069 112.593 62.3069 112.42 61.7069 112.42C61.1335 112.42 60.6469 112.587 60.2469 112.92C59.8602 113.253 59.6202 113.727 59.5269 114.34H63.8069ZM75.9111 109.72C77.2178 109.72 78.2578 110.147 79.0311 111C79.8178 111.84 80.2111 113 80.2111 114.48V121H76.8111V114.94C76.8111 114.193 76.6178 113.613 76.2311 113.2C75.8444 112.787 75.3244 112.58 74.6711 112.58C74.0178 112.58 73.4978 112.787 73.1111 113.2C72.7244 113.613 72.5311 114.193 72.5311 114.94V121H69.1111V109.84H72.5311V111.32C72.8778 110.827 73.3444 110.44 73.9311 110.16C74.5178 109.867 75.1778 109.72 75.9111 109.72ZM88.8077 118.1V121H87.0677C85.8277 121 84.861 120.7 84.1677 120.1C83.4743 119.487 83.1277 118.493 83.1277 117.12V112.68H81.7677V109.84H83.1277V107.12H86.5477V109.84H88.7877V112.68H86.5477V117.16C86.5477 117.493 86.6277 117.733 86.7877 117.88C86.9477 118.027 87.2143 118.1 87.5877 118.1H88.8077ZM95.7927 121.16C94.6993 121.16 93.7127 120.927 92.8327 120.46C91.966 119.993 91.2793 119.327 90.7727 118.46C90.2793 117.593 90.0327 116.58 90.0327 115.42C90.0327 114.273 90.286 113.267 90.7927 112.4C91.2993 111.52 91.9927 110.847 92.8727 110.38C93.7527 109.913 94.7393 109.68 95.8327 109.68C96.926 109.68 97.9127 109.913 98.7927 110.38C99.6727 110.847 100.366 111.52 100.873 112.4C101.379 113.267 101.633 114.273 101.633 115.42C101.633 116.567 101.373 117.58 100.853 118.46C100.346 119.327 99.646 119.993 98.7527 120.46C97.8727 120.927 96.886 121.16 95.7927 121.16ZM95.7927 118.2C96.446 118.2 96.9993 117.96 97.4527 117.48C97.9193 117 98.1527 116.313 98.1527 115.42C98.1527 114.527 97.926 113.84 97.4727 113.36C97.0327 112.88 96.486 112.64 95.8327 112.64C95.166 112.64 94.6127 112.88 94.1727 113.36C93.7327 113.827 93.5127 114.513 93.5127 115.42C93.5127 116.313 93.726 117 94.1527 117.48C94.5927 117.96 95.1393 118.2 95.7927 118.2ZM107.987 121.16C107.014 121.16 106.147 120.993 105.387 120.66C104.627 120.327 104.027 119.873 103.587 119.3C103.147 118.713 102.9 118.06 102.847 117.34H106.227C106.267 117.727 106.447 118.04 106.767 118.28C107.087 118.52 107.48 118.64 107.947 118.64C108.374 118.64 108.7 118.56 108.927 118.4C109.167 118.227 109.287 118.007 109.287 117.74C109.287 117.42 109.12 117.187 108.787 117.04C108.454 116.88 107.914 116.707 107.167 116.52C106.367 116.333 105.7 116.14 105.167 115.94C104.634 115.727 104.174 115.4 103.787 114.96C103.4 114.507 103.207 113.9 103.207 113.14C103.207 112.5 103.38 111.92 103.727 111.4C104.087 110.867 104.607 110.447 105.287 110.14C105.98 109.833 106.8 109.68 107.747 109.68C109.147 109.68 110.247 110.027 111.047 110.72C111.86 111.413 112.327 112.333 112.447 113.48H109.287C109.234 113.093 109.06 112.787 108.767 112.56C108.487 112.333 108.114 112.22 107.647 112.22C107.247 112.22 106.94 112.3 106.727 112.46C106.514 112.607 106.407 112.813 106.407 113.08C106.407 113.4 106.574 113.64 106.907 113.8C107.254 113.96 107.787 114.12 108.507 114.28C109.334 114.493 110.007 114.707 110.527 114.92C111.047 115.12 111.5 115.453 111.887 115.92C112.287 116.373 112.494 116.987 112.507 117.76C112.507 118.413 112.32 119 111.947 119.52C111.587 120.027 111.06 120.427 110.367 120.72C109.687 121.013 108.894 121.16 107.987 121.16ZM118.158 115.4C118.158 114.253 118.371 113.247 118.798 112.38C119.238 111.513 119.831 110.847 120.578 110.38C121.324 109.913 122.158 109.68 123.078 109.68C123.811 109.68 124.478 109.833 125.078 110.14C125.691 110.447 126.171 110.86 126.518 111.38V106.2H129.938V121H126.518V119.4C126.198 119.933 125.738 120.36 125.138 120.68C124.551 121 123.864 121.16 123.078 121.16C122.158 121.16 121.324 120.927 120.578 120.46C119.831 119.98 119.238 119.307 118.798 118.44C118.371 117.56 118.158 116.547 118.158 115.4ZM126.518 115.42C126.518 114.567 126.278 113.893 125.798 113.4C125.331 112.907 124.758 112.66 124.078 112.66C123.398 112.66 122.818 112.907 122.338 113.4C121.871 113.88 121.638 114.547 121.638 115.4C121.638 116.253 121.871 116.933 122.338 117.44C122.818 117.933 123.398 118.18 124.078 118.18C124.758 118.18 125.331 117.933 125.798 117.44C126.278 116.947 126.518 116.273 126.518 115.42ZM137.492 121.16C136.399 121.16 135.412 120.927 134.532 120.46C133.665 119.993 132.979 119.327 132.472 118.46C131.979 117.593 131.732 116.58 131.732 115.42C131.732 114.273 131.985 113.267 132.492 112.4C132.999 111.52 133.692 110.847 134.572 110.38C135.452 109.913 136.439 109.68 137.532 109.68C138.625 109.68 139.612 109.913 140.492 110.38C141.372 110.847 142.065 111.52 142.572 112.4C143.079 113.267 143.332 114.273 143.332 115.42C143.332 116.567 143.072 117.58 142.552 118.46C142.045 119.327 141.345 119.993 140.452 120.46C139.572 120.927 138.585 121.16 137.492 121.16ZM137.492 118.2C138.145 118.2 138.699 117.96 139.152 117.48C139.619 117 139.852 116.313 139.852 115.42C139.852 114.527 139.625 113.84 139.172 113.36C138.732 112.88 138.185 112.64 137.532 112.64C136.865 112.64 136.312 112.88 135.872 113.36C135.432 113.827 135.212 114.513 135.212 115.42C135.212 116.313 135.425 117 135.852 117.48C136.292 117.96 136.839 118.2 137.492 118.2ZM163.625 109.72C165.011 109.72 166.111 110.14 166.925 110.98C167.751 111.82 168.165 112.987 168.165 114.48V121H164.765V114.94C164.765 114.22 164.571 113.667 164.185 113.28C163.811 112.88 163.291 112.68 162.625 112.68C161.958 112.68 161.431 112.88 161.045 113.28C160.671 113.667 160.485 114.22 160.485 114.94V121H157.085V114.94C157.085 114.22 156.891 113.667 156.505 113.28C156.131 112.88 155.611 112.68 154.945 112.68C154.278 112.68 153.751 112.88 153.365 113.28C152.991 113.667 152.805 114.22 152.805 114.94V121H149.385V109.84H152.805V111.24C153.151 110.773 153.605 110.407 154.165 110.14C154.725 109.86 155.358 109.72 156.065 109.72C156.905 109.72 157.651 109.9 158.305 110.26C158.971 110.62 159.491 111.133 159.865 111.8C160.251 111.187 160.778 110.687 161.445 110.3C162.111 109.913 162.838 109.72 163.625 109.72ZM181.076 115.24C181.076 115.56 181.056 115.893 181.016 116.24H173.276C173.33 116.933 173.55 117.467 173.936 117.84C174.336 118.2 174.823 118.38 175.396 118.38C176.25 118.38 176.843 118.02 177.176 117.3H180.816C180.63 118.033 180.29 118.693 179.796 119.28C179.316 119.867 178.71 120.327 177.976 120.66C177.243 120.993 176.423 121.16 175.516 121.16C174.423 121.16 173.45 120.927 172.596 120.46C171.743 119.993 171.076 119.327 170.596 118.46C170.116 117.593 169.876 116.58 169.876 115.42C169.876 114.26 170.11 113.247 170.576 112.38C171.056 111.513 171.723 110.847 172.576 110.38C173.43 109.913 174.41 109.68 175.516 109.68C176.596 109.68 177.556 109.907 178.396 110.36C179.236 110.813 179.89 111.46 180.356 112.3C180.836 113.14 181.076 114.12 181.076 115.24ZM177.576 114.34C177.576 113.753 177.376 113.287 176.976 112.94C176.576 112.593 176.076 112.42 175.476 112.42C174.903 112.42 174.416 112.587 174.016 112.92C173.63 113.253 173.39 113.727 173.296 114.34H177.576ZM175.476 107.36L172.376 109V106.64L175.476 105.06L178.576 106.64V109L175.476 107.36ZM187.421 121.16C186.447 121.16 185.581 120.993 184.821 120.66C184.061 120.327 183.461 119.873 183.021 119.3C182.581 118.713 182.334 118.06 182.281 117.34H185.661C185.701 117.727 185.881 118.04 186.201 118.28C186.521 118.52 186.914 118.64 187.381 118.64C187.807 118.64 188.134 118.56 188.361 118.4C188.601 118.227 188.721 118.007 188.721 117.74C188.721 117.42 188.554 117.187 188.221 117.04C187.887 116.88 187.347 116.707 186.601 116.52C185.801 116.333 185.134 116.14 184.601 115.94C184.067 115.727 183.607 115.4 183.221 114.96C182.834 114.507 182.641 113.9 182.641 113.14C182.641 112.5 182.814 111.92 183.161 111.4C183.521 110.867 184.041 110.447 184.721 110.14C185.414 109.833 186.234 109.68 187.181 109.68C188.581 109.68 189.681 110.027 190.481 110.72C191.294 111.413 191.761 112.333 191.881 113.48H188.721C188.667 113.093 188.494 112.787 188.201 112.56C187.921 112.333 187.547 112.22 187.081 112.22C186.681 112.22 186.374 112.3 186.161 112.46C185.947 112.607 185.841 112.813 185.841 113.08C185.841 113.4 186.007 113.64 186.341 113.8C186.687 113.96 187.221 114.12 187.941 114.28C188.767 114.493 189.441 114.707 189.961 114.92C190.481 115.12 190.934 115.453 191.321 115.92C191.721 116.373 191.927 116.987 191.941 117.76C191.941 118.413 191.754 119 191.381 119.52C191.021 120.027 190.494 120.427 189.801 120.72C189.121 121.013 188.327 121.16 187.421 121.16Z" fill="black"/>
<path d="M163.219 195.68C162.619 195.68 162.126 195.507 161.739 195.16C161.366 194.8 161.179 194.36 161.179 193.84C161.179 193.307 161.366 192.867 161.739 192.52C162.126 192.16 162.619 191.98 163.219 191.98C163.806 191.98 164.286 192.16 164.659 192.52C165.046 192.867 165.239 193.307 165.239 193.84C165.239 194.36 165.046 194.8 164.659 195.16C164.286 195.507 163.806 195.68 163.219 195.68ZM164.939 209.44C164.939 210.813 164.593 211.8 163.899 212.4C163.206 213.013 162.239 213.32 160.999 213.32H159.659V210.42H160.479C160.853 210.42 161.119 210.347 161.279 210.2C161.439 210.053 161.519 209.813 161.519 209.48V196.84H164.939V209.44ZM166.718 202.4C166.718 201.253 166.932 200.247 167.358 199.38C167.798 198.513 168.392 197.847 169.138 197.38C169.885 196.913 170.718 196.68 171.638 196.68C172.425 196.68 173.112 196.84 173.698 197.16C174.298 197.48 174.758 197.9 175.078 198.42V196.84H178.498V208H175.078V206.42C174.745 206.94 174.278 207.36 173.678 207.68C173.092 208 172.405 208.16 171.618 208.16C170.712 208.16 169.885 207.927 169.138 207.46C168.392 206.98 167.798 206.307 167.358 205.44C166.932 204.56 166.718 203.547 166.718 202.4ZM175.078 202.42C175.078 201.567 174.838 200.893 174.358 200.4C173.892 199.907 173.318 199.66 172.638 199.66C171.958 199.66 171.378 199.907 170.898 200.4C170.432 200.88 170.198 201.547 170.198 202.4C170.198 203.253 170.432 203.933 170.898 204.44C171.378 204.933 171.958 205.18 172.638 205.18C173.318 205.18 173.892 204.933 174.358 204.44C174.838 203.947 175.078 203.273 175.078 202.42ZM187.772 196.72C189.079 196.72 190.119 197.147 190.892 198C191.679 198.84 192.072 200 192.072 201.48V208H188.672V201.94C188.672 201.193 188.479 200.613 188.092 200.2C187.706 199.787 187.186 199.58 186.532 199.58C185.879 199.58 185.359 199.787 184.972 200.2C184.586 200.613 184.392 201.193 184.392 201.94V208H180.972V196.84H184.392V198.32C184.739 197.827 185.206 197.44 185.792 197.16C186.379 196.867 187.039 196.72 187.772 196.72ZM204.969 202.24C204.969 202.56 204.949 202.893 204.909 203.24H197.169C197.222 203.933 197.442 204.467 197.829 204.84C198.229 205.2 198.716 205.38 199.289 205.38C200.142 205.38 200.736 205.02 201.069 204.3H204.709C204.522 205.033 204.182 205.693 203.689 206.28C203.209 206.867 202.602 207.327 201.869 207.66C201.136 207.993 200.316 208.16 199.409 208.16C198.316 208.16 197.342 207.927 196.489 207.46C195.636 206.993 194.969 206.327 194.489 205.46C194.009 204.593 193.769 203.58 193.769 202.42C193.769 201.26 194.002 200.247 194.469 199.38C194.949 198.513 195.616 197.847 196.469 197.38C197.322 196.913 198.302 196.68 199.409 196.68C200.489 196.68 201.449 196.907 202.289 197.36C203.129 197.813 203.782 198.46 204.249 199.3C204.729 200.14 204.969 201.12 204.969 202.24ZM201.469 201.34C201.469 200.753 201.269 200.287 200.869 199.94C200.469 199.593 199.969 199.42 199.369 199.42C198.796 199.42 198.309 199.587 197.909 199.92C197.522 200.253 197.282 200.727 197.189 201.34H201.469ZM208.493 195.68C207.893 195.68 207.4 195.507 207.013 195.16C206.64 194.8 206.453 194.36 206.453 193.84C206.453 193.307 206.64 192.867 207.013 192.52C207.4 192.16 207.893 191.98 208.493 191.98C209.08 191.98 209.56 192.16 209.933 192.52C210.32 192.867 210.513 193.307 210.513 193.84C210.513 194.36 210.32 194.8 209.933 195.16C209.56 195.507 209.08 195.68 208.493 195.68ZM210.193 196.84V208H206.773V196.84H210.193ZM216.092 198.7C216.492 198.087 216.992 197.607 217.592 197.26C218.192 196.9 218.858 196.72 219.592 196.72V200.34H218.652C217.798 200.34 217.158 200.527 216.732 200.9C216.305 201.26 216.092 201.9 216.092 202.82V208H212.672V196.84H216.092V198.7ZM226.306 208.16C225.213 208.16 224.226 207.927 223.346 207.46C222.48 206.993 221.793 206.327 221.286 205.46C220.793 204.593 220.546 203.58 220.546 202.42C220.546 201.273 220.8 200.267 221.306 199.4C221.813 198.52 222.506 197.847 223.386 197.38C224.266 196.913 225.253 196.68 226.346 196.68C227.44 196.68 228.426 196.913 229.306 197.38C230.186 197.847 230.88 198.52 231.386 199.4C231.893 200.267 232.146 201.273 232.146 202.42C232.146 203.567 231.886 204.58 231.366 205.46C230.86 206.327 230.16 206.993 229.266 207.46C228.386 207.927 227.4 208.16 226.306 208.16ZM226.306 205.2C226.96 205.2 227.513 204.96 227.966 204.48C228.433 204 228.666 203.313 228.666 202.42C228.666 201.527 228.44 200.84 227.986 200.36C227.546 199.88 227 199.64 226.346 199.64C225.68 199.64 225.126 199.88 224.686 200.36C224.246 200.827 224.026 201.513 224.026 202.42C224.026 203.313 224.24 204 224.666 204.48C225.106 204.96 225.653 205.2 226.306 205.2Z" fill="black"/>
<path d="M359 189L368 200.5L359 213" stroke="black"/>
<path d="M41 189L32 200.5L41 213" stroke="black"/>
<rect width="393" height="72" fill="white"/>
<path d="M35.9187 45.105C35.1487 45.105 34.4587 44.98 33.8487 44.73C33.2387 44.48 32.7487 44.11 32.3787 43.62C32.0187 43.13 31.8287 42.54 31.8087 41.85H34.5387C34.5787 42.24 34.7137 42.54 34.9437 42.75C35.1737 42.95 35.4737 43.05 35.8437 43.05C36.2237 43.05 36.5237 42.965 36.7437 42.795C36.9637 42.615 37.0737 42.37 37.0737 42.06C37.0737 41.8 36.9837 41.585 36.8037 41.415C36.6337 41.245 36.4187 41.105 36.1587 40.995C35.9087 40.885 35.5487 40.76 35.0787 40.62C34.3987 40.41 33.8437 40.2 33.4137 39.99C32.9837 39.78 32.6137 39.47 32.3037 39.06C31.9937 38.65 31.8387 38.115 31.8387 37.455C31.8387 36.475 32.1937 35.71 32.9037 35.16C33.6137 34.6 34.5387 34.32 35.6787 34.32C36.8387 34.32 37.7737 34.6 38.4837 35.16C39.1937 35.71 39.5737 36.48 39.6237 37.47H36.8487C36.8287 37.13 36.7037 36.865 36.4737 36.675C36.2437 36.475 35.9487 36.375 35.5887 36.375C35.2787 36.375 35.0287 36.46 34.8387 36.63C34.6487 36.79 34.5537 37.025 34.5537 37.335C34.5537 37.675 34.7137 37.94 35.0337 38.13C35.3537 38.32 35.8537 38.525 36.5337 38.745C37.2137 38.975 37.7637 39.195 38.1837 39.405C38.6137 39.615 38.9837 39.92 39.2937 40.32C39.6037 40.72 39.7587 41.235 39.7587 41.865C39.7587 42.465 39.6037 43.01 39.2937 43.5C38.9937 43.99 38.5537 44.38 37.9737 44.67C37.3937 44.96 36.7087 45.105 35.9187 45.105ZM43.8572 34.47V40.77C43.8572 41.4 44.0122 41.885 44.3222 42.225C44.6322 42.565 45.0872 42.735 45.6872 42.735C46.2872 42.735 46.7472 42.565 47.0672 42.225C47.3872 41.885 47.5472 41.4 47.5472 40.77V34.47H50.1122V40.755C50.1122 41.695 49.9122 42.49 49.5122 43.14C49.1122 43.79 48.5722 44.28 47.8922 44.61C47.2222 44.94 46.4722 45.105 45.6422 45.105C44.8122 45.105 44.0672 44.945 43.4072 44.625C42.7572 44.295 42.2422 43.805 41.8622 43.155C41.4822 42.495 41.2922 41.695 41.2922 40.755V34.47H43.8572ZM58.4684 43.14H54.5384L53.9084 45H51.2234L55.0334 34.47H58.0034L61.8134 45H59.0984L58.4684 43.14ZM57.8084 41.16L56.5034 37.305L55.2134 41.16H57.8084ZM69.963 37.8C69.773 37.45 69.498 37.185 69.138 37.005C68.788 36.815 68.373 36.72 67.893 36.72C67.063 36.72 66.398 36.995 65.898 37.545C65.398 38.085 65.148 38.81 65.148 39.72C65.148 40.69 65.408 41.45 65.928 42C66.458 42.54 67.183 42.81 68.103 42.81C68.733 42.81 69.263 42.65 69.693 42.33C70.133 42.01 70.453 41.55 70.653 40.95H67.398V39.06H72.978V41.445C72.788 42.085 72.463 42.68 72.003 43.23C71.553 43.78 70.978 44.225 70.278 44.565C69.578 44.905 68.788 45.075 67.908 45.075C66.868 45.075 65.938 44.85 65.118 44.4C64.308 43.94 63.673 43.305 63.213 42.495C62.763 41.685 62.538 40.76 62.538 39.72C62.538 38.68 62.763 37.755 63.213 36.945C63.673 36.125 64.308 35.49 65.118 35.04C65.928 34.58 66.853 34.35 67.893 34.35C69.153 34.35 70.213 34.655 71.073 35.265C71.943 35.875 72.518 36.72 72.798 37.8H69.963ZM76.9638 36.525V38.655H80.3988V40.635H76.9638V42.945H80.8488V45H74.3988V34.47H80.8488V36.525H76.9638ZM91.934 45H89.369L85.079 38.505V45H82.514V34.47H85.079L89.369 40.995V34.47H91.934V45ZM97.7383 34.47C98.8483 34.47 99.8183 34.69 100.648 35.13C101.478 35.57 102.118 36.19 102.568 36.99C103.028 37.78 103.258 38.695 103.258 39.735C103.258 40.765 103.028 41.68 102.568 42.48C102.118 43.28 101.473 43.9 100.633 44.34C99.8033 44.78 98.8383 45 97.7383 45H93.7933V34.47H97.7383ZM97.5733 42.78C98.5433 42.78 99.2983 42.515 99.8383 41.985C100.378 41.455 100.648 40.705 100.648 39.735C100.648 38.765 100.378 38.01 99.8383 37.47C99.2983 36.93 98.5433 36.66 97.5733 36.66H96.3583V42.78H97.5733ZM111.247 43.14H107.317L106.687 45H104.002L107.812 34.47H110.782L114.592 45H111.877L111.247 43.14ZM110.587 41.16L109.282 37.305L107.992 41.16H110.587Z" fill="black"/>
<path d="M334.276 42.9445C333.786 42.1023 333.202 40.4953 333.202 37.625V37.0148C333.202 33.0187 329.996 29.7445 326.052 29.7188H326C325.053 29.7187 324.115 29.9056 323.24 30.2686C322.365 30.6316 321.571 31.1636 320.902 31.8341C320.233 32.5047 319.703 33.3006 319.342 34.1763C318.981 35.052 318.796 35.9903 318.798 36.9375V37.625C318.798 40.4953 318.214 42.1023 317.724 42.9445C317.574 43.2063 317.495 43.5029 317.495 43.8047C317.495 44.1065 317.575 44.403 317.725 44.6647C317.875 44.9264 318.092 45.1441 318.352 45.2961C318.613 45.4481 318.909 45.5292 319.211 45.5312H322.236C322.326 46.4675 322.761 47.3367 323.457 47.9693C324.153 48.6019 325.059 48.9524 326 48.9524C326.94 48.9524 327.847 48.6019 328.543 47.9693C329.239 47.3367 329.674 46.4675 329.764 45.5312H332.789C333.091 45.5292 333.387 45.4481 333.648 45.2961C333.908 45.1441 334.125 44.9264 334.275 44.6647C334.425 44.403 334.505 44.1065 334.505 43.8047C334.505 43.5029 334.426 43.2063 334.276 42.9445ZM326 46.9062C325.604 46.9047 325.221 46.7673 324.914 46.517C324.608 46.2667 324.396 45.9187 324.316 45.5312H327.684C327.604 45.9187 327.392 46.2667 327.086 46.517C326.779 46.7673 326.396 46.9047 326 46.9062ZM319.778 43.4687C320.663 41.6125 320.861 39.3008 320.861 37.625V36.9375C320.858 36.2609 320.988 35.5902 321.245 34.9642C321.502 34.3382 321.88 33.7692 322.357 33.29C322.835 32.8107 323.403 32.4307 324.028 32.1718C324.653 31.9128 325.323 31.7801 326 31.7812H326.043C328.853 31.7984 331.139 34.1445 331.139 37.0148V37.625C331.139 39.3008 331.337 41.6125 332.222 43.4687H319.778Z" fill="black"/>
<path d="M359 29C357.687 29 356.386 29.2587 355.173 29.7612C353.96 30.2638 352.858 31.0003 351.929 31.9289C350.054 33.8043 349 36.3478 349 39C349 41.6522 350.054 44.1957 351.929 46.0711C352.858 46.9997 353.96 47.7362 355.173 48.2388C356.386 48.7413 357.687 49 359 49C361.652 49 364.196 47.9464 366.071 46.0711C367.946 44.1957 369 41.6522 369 39C369 37.6868 368.741 36.3864 368.239 35.1732C367.736 33.9599 367 32.8575 366.071 31.9289C365.142 31.0003 364.04 30.2638 362.827 29.7612C361.614 29.2587 360.313 29 359 29ZM354.07 45.28C354.5 44.38 357.12 43.5 359 43.5C360.88 43.5 363.5 44.38 363.93 45.28C362.529 46.396 360.791 47.0026 359 47C357.14 47 355.43 46.36 354.07 45.28ZM365.36 43.83C363.93 42.09 360.46 41.5 359 41.5C357.54 41.5 354.07 42.09 352.64 43.83C351.576 42.4446 351 40.7467 351 39C351 34.59 354.59 31 359 31C363.41 31 367 34.59 367 39C367 40.82 366.38 42.5 365.36 43.83ZM359 33C357.06 33 355.5 34.56 355.5 36.5C355.5 38.44 357.06 40 359 40C360.94 40 362.5 38.44 362.5 36.5C362.5 34.56 360.94 33 359 33ZM359 38C358.602 38 358.221 37.842 357.939 37.5607C357.658 37.2794 357.5 36.8978 357.5 36.5C357.5 36.1022 357.658 35.7206 357.939 35.4393C358.221 35.158 358.602 35 359 35C359.398 35 359.779 35.158 360.061 35.4393C360.342 35.7206 360.5 36.1022 360.5 36.5C360.5 36.8978 360.342 37.2794 360.061 37.5607C359.779 37.842 359.398 38 359 38Z" fill="black"/>
<rect x="28" y="259" width="41.1429" height="55" fill="#D9D9D9"/>
<rect x="77.1429" y="259" width="41.1429" height="55" fill="#D9D9D9"/>
<rect x="126.286" y="259" width="41.1429" height="55" fill="#D9D9D9"/>
<rect x="175.429" y="259" width="41.1429" height="55" fill="#D9D9D9"/>
<rect x="224.571" y="259" width="41.1429" height="55" fill="#D9D9D9"/>
<rect x="273.714" y="259" width="41.1429" height="55" fill="#D9D9D9"/>
<rect x="322.857" y="259" width="41.1429" height="55" fill="#D9D9D9"/>
<rect x="28" y="328" width="41.1429" height="55" fill="#D9D9D9"/>
<rect x="77.1429" y="328" width="41.1429" height="55" fill="#AAAAAA"/>
<rect x="126.286" y="328" width="41.1429" height="55" fill="#D9D9D9"/>
<rect x="175.429" y="328" width="41.1429" height="55" fill="#D9D9D9"/>
<rect x="224.571" y="328" width="41.1429" height="55" fill="#D9D9D9"/>
<rect x="273.714" y="328" width="41.1429" height="55" fill="#D9D9D9"/>
<rect x="322.857" y="328" width="41.1429" height="55" fill="#D9D9D9"/>
<rect x="28" y="397" width="41.1429" height="55" fill="#D9D9D9"/>
<rect x="77.1429" y="397" width="41.1429" height="55" fill="#D9D9D9"/>
<rect x="126.286" y="397" width="41.1429" height="55" fill="#D9D9D9"/>
<rect x="175.429" y="397" width="41.1429" height="55" fill="#D9D9D9"/>
<rect x="224.571" y="397" width="41.1429" height="55" fill="#D9D9D9"/>
<rect x="273.714" y="397" width="41.1429" height="55" fill="#D9D9D9"/>
<rect x="322.857" y="397" width="41.1429" height="55" fill="#D9D9D9"/>
<rect x="28" y="466" width="41.1429" height="55" fill="#D9D9D9"/>
<rect x="77.1429" y="466" width="41.1429" height="55" fill="#D9D9D9"/>
<rect x="126.286" y="466" width="41.1429" height="55" fill="#D9D9D9"/>
<rect x="175.429" y="466" width="41.1429" height="55" fill="#D9D9D9"/>
<rect x="224.571" y="466" width="41.1429" height="55" fill="#D9D9D9"/>
<rect x="273.714" y="466" width="41.1429" height="55" fill="#D9D9D9"/>
<rect x="322.857" y="466" width="41.1429" height="55" fill="#D9D9D9"/>
<rect x="28" y="535" width="41" height="55" fill="#D9D9D9"/>
<rect x="77" y="535" width="41" height="55" fill="#D9D9D9"/>
<rect x="126" y="535" width="41" height="55" fill="#D9D9D9"/>
<rect x="28" y="642" width="336" height="169" fill="#D9D9D9"/>
<rect x="83" y="337" width="30" height="5" fill="#656565"/>
<path d="M32.7677 622.8C32.7677 621.94 32.9277 621.185 33.2477 620.535C33.5777 619.885 34.0227 619.385 34.5827 619.035C35.1427 618.685 35.7677 618.51 36.4577 618.51C37.0077 618.51 37.5077 618.625 37.9577 618.855C38.4177 619.085 38.7777 619.395 39.0377 619.785V615.9H41.6027V627H39.0377V625.8C38.7977 626.2 38.4527 626.52 38.0027 626.76C37.5627 627 37.0477 627.12 36.4577 627.12C35.7677 627.12 35.1427 626.945 34.5827 626.595C34.0227 626.235 33.5777 625.73 33.2477 625.08C32.9277 624.42 32.7677 623.66 32.7677 622.8ZM39.0377 622.815C39.0377 622.175 38.8577 621.67 38.4977 621.3C38.1477 620.93 37.7177 620.745 37.2077 620.745C36.6977 620.745 36.2627 620.93 35.9027 621.3C35.5527 621.66 35.3777 622.16 35.3777 622.8C35.3777 623.44 35.5527 623.95 35.9027 624.33C36.2627 624.7 36.6977 624.885 37.2077 624.885C37.7177 624.885 38.1477 624.7 38.4977 624.33C38.8577 623.96 39.0377 623.455 39.0377 622.815ZM44.7483 617.76C44.2983 617.76 43.9283 617.63 43.6383 617.37C43.3583 617.1 43.2183 616.77 43.2183 616.38C43.2183 615.98 43.3583 615.65 43.6383 615.39C43.9283 615.12 44.2983 614.985 44.7483 614.985C45.1883 614.985 45.5483 615.12 45.8283 615.39C46.1183 615.65 46.2633 615.98 46.2633 616.38C46.2633 616.77 46.1183 617.1 45.8283 617.37C45.5483 617.63 45.1883 617.76 44.7483 617.76ZM46.0233 618.63V627H43.4583V618.63H46.0233ZM47.3721 622.8C47.3721 621.94 47.5321 621.185 47.8521 620.535C48.1821 619.885 48.6271 619.385 49.1871 619.035C49.7471 618.685 50.3721 618.51 51.0621 618.51C51.6521 618.51 52.1671 618.63 52.6071 618.87C53.0571 619.11 53.4021 619.425 53.6421 619.815V618.63H56.2071V627H53.6421V625.815C53.3921 626.205 53.0421 626.52 52.5921 626.76C52.1521 627 51.6371 627.12 51.0471 627.12C50.3671 627.12 49.7471 626.945 49.1871 626.595C48.6271 626.235 48.1821 625.73 47.8521 625.08C47.5321 624.42 47.3721 623.66 47.3721 622.8ZM53.6421 622.815C53.6421 622.175 53.4621 621.67 53.1021 621.3C52.7521 620.93 52.3221 620.745 51.8121 620.745C51.3021 620.745 50.8671 620.93 50.5071 621.3C50.1571 621.66 49.9821 622.16 49.9821 622.8C49.9821 623.44 50.1571 623.95 50.5071 624.33C50.8671 624.7 51.3021 624.885 51.8121 624.885C52.3221 624.885 52.7521 624.7 53.1021 624.33C53.4621 623.96 53.6421 623.455 53.6421 622.815ZM63.7465 623.79C63.8965 624.58 64.3565 624.975 65.1265 624.975C65.6565 624.975 66.0315 624.74 66.2515 624.27C66.4715 623.8 66.5815 623.035 66.5815 621.975C66.3615 622.285 66.0615 622.525 65.6815 622.695C65.3015 622.865 64.8765 622.95 64.4065 622.95C63.7665 622.95 63.1965 622.82 62.6965 622.56C62.1965 622.29 61.8015 621.895 61.5115 621.375C61.2315 620.845 61.0915 620.205 61.0915 619.455C61.0915 618.715 61.2415 618.07 61.5415 617.52C61.8515 616.97 62.2865 616.545 62.8465 616.245C63.4165 615.945 64.0865 615.795 64.8565 615.795C66.3365 615.795 67.3715 616.255 67.9615 617.175C68.5515 618.095 68.8465 619.45 68.8465 621.24C68.8465 622.54 68.7265 623.615 68.4865 624.465C68.2565 625.305 67.8615 625.945 67.3015 626.385C66.7515 626.825 65.9965 627.045 65.0365 627.045C64.2765 627.045 63.6265 626.895 63.0865 626.595C62.5565 626.295 62.1465 625.9 61.8565 625.41C61.5765 624.92 61.4165 624.38 61.3765 623.79H63.7465ZM64.9915 620.925C65.4115 620.925 65.7465 620.8 65.9965 620.55C66.2465 620.29 66.3715 619.94 66.3715 619.5C66.3715 619.02 66.2415 618.65 65.9815 618.39C65.7215 618.13 65.3715 618 64.9315 618C64.4915 618 64.1415 618.135 63.8815 618.405C63.6315 618.665 63.5065 619.025 63.5065 619.485C63.5065 619.915 63.6315 620.265 63.8815 620.535C64.1415 620.795 64.5115 620.925 64.9915 620.925ZM73.1388 622.8C73.1388 621.94 73.2988 621.185 73.6188 620.535C73.9488 619.885 74.3938 619.385 74.9538 619.035C75.5138 618.685 76.1388 618.51 76.8288 618.51C77.3788 618.51 77.8788 618.625 78.3288 618.855C78.7888 619.085 79.1488 619.395 79.4088 619.785V615.9H81.9738V627H79.4088V625.8C79.1688 626.2 78.8238 626.52 78.3738 626.76C77.9338 627 77.4188 627.12 76.8288 627.12C76.1388 627.12 75.5138 626.945 74.9538 626.595C74.3938 626.235 73.9488 625.73 73.6188 625.08C73.2988 624.42 73.1388 623.66 73.1388 622.8ZM79.4088 622.815C79.4088 622.175 79.2288 621.67 78.8688 621.3C78.5188 620.93 78.0888 620.745 77.5788 620.745C77.0688 620.745 76.6338 620.93 76.2738 621.3C75.9238 621.66 75.7488 622.16 75.7488 622.8C75.7488 623.44 75.9238 623.95 76.2738 624.33C76.6338 624.7 77.0688 624.885 77.5788 624.885C78.0888 624.885 78.5188 624.7 78.8688 624.33C79.2288 623.96 79.4088 623.455 79.4088 622.815ZM91.7194 622.68C91.7194 622.92 91.7044 623.17 91.6744 623.43H85.8694C85.9094 623.95 86.0744 624.35 86.3644 624.63C86.6644 624.9 87.0294 625.035 87.4594 625.035C88.0994 625.035 88.5444 624.765 88.7944 624.225H91.5244C91.3844 624.775 91.1294 625.27 90.7594 625.71C90.3994 626.15 89.9444 626.495 89.3944 626.745C88.8444 626.995 88.2294 627.12 87.5494 627.12C86.7294 627.12 85.9994 626.945 85.3594 626.595C84.7194 626.245 84.2194 625.745 83.8594 625.095C83.4994 624.445 83.3194 623.685 83.3194 622.815C83.3194 621.945 83.4944 621.185 83.8444 620.535C84.2044 619.885 84.7044 619.385 85.3444 619.035C85.9844 618.685 86.7194 618.51 87.5494 618.51C88.3594 618.51 89.0794 618.68 89.7094 619.02C90.3394 619.36 90.8294 619.845 91.1794 620.475C91.5394 621.105 91.7194 621.84 91.7194 622.68ZM89.0944 622.005C89.0944 621.565 88.9444 621.215 88.6444 620.955C88.3444 620.695 87.9694 620.565 87.5194 620.565C87.0894 620.565 86.7244 620.69 86.4244 620.94C86.1344 621.19 85.9544 621.545 85.8844 622.005H89.0944ZM97.5263 617.76C97.0763 617.76 96.7063 617.63 96.4163 617.37C96.1363 617.1 95.9963 616.77 95.9963 616.38C95.9963 615.98 96.1363 615.65 96.4163 615.39C96.7063 615.12 97.0763 614.985 97.5263 614.985C97.9663 614.985 98.3263 615.12 98.6063 615.39C98.8963 615.65 99.0413 615.98 99.0413 616.38C99.0413 616.77 98.8963 617.1 98.6063 617.37C98.3263 617.63 97.9663 617.76 97.5263 617.76ZM98.8163 628.08C98.8163 629.11 98.5563 629.85 98.0363 630.3C97.5163 630.76 96.7913 630.99 95.8613 630.99H94.8563V628.815H95.4713C95.7513 628.815 95.9513 628.76 96.0713 628.65C96.1913 628.54 96.2513 628.36 96.2513 628.11V618.63H98.8163V628.08ZM100.15 622.8C100.15 621.94 100.31 621.185 100.63 620.535C100.96 619.885 101.405 619.385 101.965 619.035C102.525 618.685 103.15 618.51 103.84 618.51C104.43 618.51 104.945 618.63 105.385 618.87C105.835 619.11 106.18 619.425 106.42 619.815V618.63H108.985V627H106.42V625.815C106.17 626.205 105.82 626.52 105.37 626.76C104.93 627 104.415 627.12 103.825 627.12C103.145 627.12 102.525 626.945 101.965 626.595C101.405 626.235 100.96 625.73 100.63 625.08C100.31 624.42 100.15 623.66 100.15 622.8ZM106.42 622.815C106.42 622.175 106.24 621.67 105.88 621.3C105.53 620.93 105.1 620.745 104.59 620.745C104.08 620.745 103.645 620.93 103.285 621.3C102.935 621.66 102.76 622.16 102.76 622.8C102.76 623.44 102.935 623.95 103.285 624.33C103.645 624.7 104.08 624.885 104.59 624.885C105.1 624.885 105.53 624.7 105.88 624.33C106.24 623.96 106.42 623.455 106.42 622.815ZM115.941 618.54C116.921 618.54 117.701 618.86 118.281 619.5C118.871 620.13 119.166 621 119.166 622.11V627H116.616V622.455C116.616 621.895 116.471 621.46 116.181 621.15C115.891 620.84 115.501 620.685 115.011 620.685C114.521 620.685 114.131 620.84 113.841 621.15C113.551 621.46 113.406 621.895 113.406 622.455V627H110.841V618.63H113.406V619.74C113.666 619.37 114.016 619.08 114.456 618.87C114.896 618.65 115.391 618.54 115.941 618.54ZM128.839 622.68C128.839 622.92 128.824 623.17 128.794 623.43H122.989C123.029 623.95 123.194 624.35 123.484 624.63C123.784 624.9 124.149 625.035 124.579 625.035C125.219 625.035 125.664 624.765 125.914 624.225H128.644C128.504 624.775 128.249 625.27 127.879 625.71C127.519 626.15 127.064 626.495 126.514 626.745C125.964 626.995 125.349 627.12 124.669 627.12C123.849 627.12 123.119 626.945 122.479 626.595C121.839 626.245 121.339 625.745 120.979 625.095C120.619 624.445 120.439 623.685 120.439 622.815C120.439 621.945 120.614 621.185 120.964 620.535C121.324 619.885 121.824 619.385 122.464 619.035C123.104 618.685 123.839 618.51 124.669 618.51C125.479 618.51 126.199 618.68 126.829 619.02C127.459 619.36 127.949 619.845 128.299 620.475C128.659 621.105 128.839 621.84 128.839 622.68ZM126.214 622.005C126.214 621.565 126.064 621.215 125.764 620.955C125.464 620.695 125.089 620.565 124.639 620.565C124.209 620.565 123.844 620.69 123.544 620.94C123.254 621.19 123.074 621.545 123.004 622.005H126.214ZM131.482 617.76C131.032 617.76 130.662 617.63 130.372 617.37C130.092 617.1 129.952 616.77 129.952 616.38C129.952 615.98 130.092 615.65 130.372 615.39C130.662 615.12 131.032 614.985 131.482 614.985C131.922 614.985 132.282 615.12 132.562 615.39C132.852 615.65 132.997 615.98 132.997 616.38C132.997 616.77 132.852 617.1 132.562 617.37C132.282 617.63 131.922 617.76 131.482 617.76ZM132.757 618.63V627H130.192V618.63H132.757ZM137.181 620.025C137.481 619.565 137.856 619.205 138.306 618.945C138.756 618.675 139.256 618.54 139.806 618.54V621.255H139.101C138.461 621.255 137.981 621.395 137.661 621.675C137.341 621.945 137.181 622.425 137.181 623.115V627H134.616V618.63H137.181V620.025ZM144.842 627.12C144.022 627.12 143.282 626.945 142.622 626.595C141.972 626.245 141.457 625.745 141.077 625.095C140.707 624.445 140.522 623.685 140.522 622.815C140.522 621.955 140.712 621.2 141.092 620.55C141.472 619.89 141.992 619.385 142.652 619.035C143.312 618.685 144.052 618.51 144.872 618.51C145.692 618.51 146.432 618.685 147.092 619.035C147.752 619.385 148.272 619.89 148.652 620.55C149.032 621.2 149.222 621.955 149.222 622.815C149.222 623.675 149.027 624.435 148.637 625.095C148.257 625.745 147.732 626.245 147.062 626.595C146.402 626.945 145.662 627.12 144.842 627.12ZM144.842 624.9C145.332 624.9 145.747 624.72 146.087 624.36C146.437 624 146.612 623.485 146.612 622.815C146.612 622.145 146.442 621.63 146.102 621.27C145.772 620.91 145.362 620.73 144.872 620.73C144.372 620.73 143.957 620.91 143.627 621.27C143.297 621.62 143.132 622.135 143.132 622.815C143.132 623.485 143.292 624 143.612 624.36C143.942 624.72 144.352 624.9 144.842 624.9Z" fill="black"/>
<path d="M53.7376 671.361C53.4256 671.361 53.1396 671.287 52.8796 671.14C52.6282 670.984 52.4246 670.78 52.2686 670.529C52.1212 670.269 52.0476 669.983 52.0476 669.671C52.0476 669.194 52.2122 668.791 52.5416 668.462C52.8709 668.133 53.2696 667.968 53.7376 667.968C54.2229 667.968 54.6302 668.133 54.9596 668.462C55.2889 668.791 55.4536 669.194 55.4536 669.671C55.4536 670.148 55.2889 670.551 54.9596 670.88C54.6302 671.201 54.2229 671.361 53.7376 671.361ZM68.089 666.72C68.6523 666.72 69.155 666.837 69.597 667.071C70.0477 667.305 70.3987 667.652 70.65 668.111C70.9013 668.57 71.027 669.125 71.027 669.775V674H69.558V669.996C69.558 669.355 69.3977 668.865 69.077 668.527C68.7563 668.18 68.3187 668.007 67.764 668.007C67.2093 668.007 66.7673 668.18 66.438 668.527C66.1173 668.865 65.957 669.355 65.957 669.996V674H64.475V666.837H65.957V667.656C66.1997 667.361 66.5073 667.132 66.88 666.967C67.2613 666.802 67.6643 666.72 68.089 666.72ZM76.0244 674.117C75.3484 674.117 74.7374 673.965 74.1914 673.662C73.6454 673.35 73.2164 672.917 72.9044 672.362C72.5924 671.799 72.4364 671.149 72.4364 670.412C72.4364 669.684 72.5967 669.038 72.9174 668.475C73.238 667.912 73.6757 667.478 74.2304 667.175C74.785 666.872 75.4047 666.72 76.0894 666.72C76.774 666.72 77.3937 666.872 77.9484 667.175C78.503 667.478 78.9407 667.912 79.2614 668.475C79.582 669.038 79.7424 669.684 79.7424 670.412C79.7424 671.14 79.5777 671.786 79.2484 672.349C78.9191 672.912 78.4684 673.35 77.8964 673.662C77.333 673.965 76.709 674.117 76.0244 674.117ZM76.0244 672.83C76.4057 672.83 76.761 672.739 77.0904 672.557C77.4284 672.375 77.7014 672.102 77.9094 671.738C78.1174 671.374 78.2214 670.932 78.2214 670.412C78.2214 669.892 78.1217 669.454 77.9224 669.099C77.723 668.735 77.4587 668.462 77.1294 668.28C76.8 668.098 76.4447 668.007 76.0634 668.007C75.682 668.007 75.3267 668.098 74.9974 668.28C74.6767 668.462 74.421 668.735 74.2304 669.099C74.0397 669.454 73.9444 669.892 73.9444 670.412C73.9444 671.183 74.1394 671.781 74.5294 672.206C74.928 672.622 75.4264 672.83 76.0244 672.83ZM89.8784 666.72C90.4418 666.72 90.9444 666.837 91.3864 667.071C91.8371 667.305 92.1881 667.652 92.4394 668.111C92.6994 668.57 92.8294 669.125 92.8294 669.775V674H91.3604V669.996C91.3604 669.355 91.2001 668.865 90.8794 668.527C90.5588 668.18 90.1211 668.007 89.5664 668.007C89.0118 668.007 88.5698 668.18 88.2404 668.527C87.9198 668.865 87.7594 669.355 87.7594 669.996V674H86.2904V669.996C86.2904 669.355 86.1301 668.865 85.8094 668.527C85.4888 668.18 85.0511 668.007 84.4964 668.007C83.9418 668.007 83.4998 668.18 83.1704 668.527C82.8498 668.865 82.6894 669.355 82.6894 669.996V674H81.2074V666.837H82.6894V667.656C82.9321 667.361 83.2398 667.132 83.6124 666.967C83.9851 666.802 84.3838 666.72 84.8084 666.72C85.3804 666.72 85.8918 666.841 86.3424 667.084C86.7931 667.327 87.1398 667.678 87.3824 668.137C87.5991 667.704 87.9371 667.361 88.3964 667.11C88.8558 666.85 89.3498 666.72 89.8784 666.72ZM101.28 670.243C101.28 670.512 101.263 670.754 101.228 670.971H95.7552C95.7986 671.543 96.0109 672.002 96.3922 672.349C96.7736 672.696 97.2416 672.869 97.7962 672.869C98.5936 672.869 99.1569 672.535 99.4862 671.868H101.085C100.869 672.527 100.474 673.068 99.9022 673.493C99.3389 673.909 98.6369 674.117 97.7962 674.117C97.1116 674.117 96.4962 673.965 95.9502 673.662C95.4129 673.35 94.9882 672.917 94.6762 672.362C94.3729 671.799 94.2212 671.149 94.2212 670.412C94.2212 669.675 94.3686 669.03 94.6632 668.475C94.9666 667.912 95.3869 667.478 95.9242 667.175C96.4702 666.872 97.0942 666.72 97.7962 666.72C98.4722 666.72 99.0746 666.867 99.6032 667.162C100.132 667.457 100.544 667.873 100.838 668.41C101.133 668.939 101.28 669.55 101.28 670.243ZM99.7332 669.775C99.7246 669.229 99.5296 668.791 99.1482 668.462C98.7669 668.133 98.2946 667.968 97.7312 667.968C97.2199 667.968 96.7822 668.133 96.4182 668.462C96.0542 668.783 95.8376 669.22 95.7682 669.775H99.7332ZM105.622 670.386C105.622 669.667 105.769 669.03 106.064 668.475C106.367 667.92 106.774 667.491 107.286 667.188C107.806 666.876 108.382 666.72 109.015 666.72C109.483 666.72 109.942 666.824 110.393 667.032C110.852 667.231 111.216 667.5 111.485 667.838V664.38H112.98V674H111.485V672.921C111.242 673.268 110.904 673.554 110.471 673.779C110.046 674.004 109.556 674.117 109.002 674.117C108.378 674.117 107.806 673.961 107.286 673.649C106.774 673.328 106.367 672.886 106.064 672.323C105.769 671.751 105.622 671.105 105.622 670.386ZM111.485 670.412C111.485 669.918 111.381 669.489 111.173 669.125C110.973 668.761 110.709 668.484 110.38 668.293C110.05 668.102 109.695 668.007 109.314 668.007C108.932 668.007 108.577 668.102 108.248 668.293C107.918 668.475 107.65 668.748 107.442 669.112C107.242 669.467 107.143 669.892 107.143 670.386C107.143 670.88 107.242 671.313 107.442 671.686C107.65 672.059 107.918 672.345 108.248 672.544C108.586 672.735 108.941 672.83 109.314 672.83C109.695 672.83 110.05 672.735 110.38 672.544C110.709 672.353 110.973 672.076 111.173 671.712C111.381 671.339 111.485 670.906 111.485 670.412ZM118.033 674.117C117.357 674.117 116.746 673.965 116.2 673.662C115.654 673.35 115.225 672.917 114.913 672.362C114.601 671.799 114.445 671.149 114.445 670.412C114.445 669.684 114.606 669.038 114.926 668.475C115.247 667.912 115.685 667.478 116.239 667.175C116.794 666.872 117.414 666.72 118.098 666.72C118.783 666.72 119.403 666.872 119.957 667.175C120.512 667.478 120.95 667.912 121.27 668.475C121.591 669.038 121.751 669.684 121.751 670.412C121.751 671.14 121.587 671.786 121.257 672.349C120.928 672.912 120.477 673.35 119.905 673.662C119.342 673.965 118.718 674.117 118.033 674.117ZM118.033 672.83C118.415 672.83 118.77 672.739 119.099 672.557C119.437 672.375 119.71 672.102 119.918 671.738C120.126 671.374 120.23 670.932 120.23 670.412C120.23 669.892 120.131 669.454 119.931 669.099C119.732 668.735 119.468 668.462 119.138 668.28C118.809 668.098 118.454 668.007 118.072 668.007C117.691 668.007 117.336 668.098 117.006 668.28C116.686 668.462 116.43 668.735 116.239 669.099C116.049 669.454 115.953 669.892 115.953 670.412C115.953 671.183 116.148 671.781 116.538 672.206C116.937 672.622 117.435 672.83 118.033 672.83ZM133.158 670.243C133.158 670.512 133.141 670.754 133.106 670.971H127.633C127.676 671.543 127.889 672.002 128.27 672.349C128.651 672.696 129.119 672.869 129.674 672.869C130.471 672.869 131.035 672.535 131.364 671.868H132.963C132.746 672.527 132.352 673.068 131.78 673.493C131.217 673.909 130.515 674.117 129.674 674.117C128.989 674.117 128.374 673.965 127.828 673.662C127.291 673.35 126.866 672.917 126.554 672.362C126.251 671.799 126.099 671.149 126.099 670.412C126.099 669.675 126.246 669.03 126.541 668.475C126.844 667.912 127.265 667.478 127.802 667.175C128.348 666.872 128.972 666.72 129.674 666.72C130.35 666.72 130.952 666.867 131.481 667.162C132.01 667.457 132.421 667.873 132.716 668.41C133.011 668.939 133.158 669.55 133.158 670.243ZM131.611 669.775C131.602 669.229 131.407 668.791 131.026 668.462C130.645 668.133 130.172 667.968 129.609 667.968C129.098 667.968 128.66 668.133 128.296 668.462C127.932 668.783 127.715 669.22 127.646 669.775H131.611ZM137.386 672.674L139.414 666.837H140.987L138.257 674H136.489L133.772 666.837H135.358L137.386 672.674ZM148.672 670.243C148.672 670.512 148.655 670.754 148.62 670.971H143.147C143.19 671.543 143.403 672.002 143.784 672.349C144.165 672.696 144.633 672.869 145.188 672.869C145.985 672.869 146.549 672.535 146.878 671.868H148.477C148.26 672.527 147.866 673.068 147.294 673.493C146.731 673.909 146.029 674.117 145.188 674.117C144.503 674.117 143.888 673.965 143.342 673.662C142.805 673.35 142.38 672.917 142.068 672.362C141.765 671.799 141.613 671.149 141.613 670.412C141.613 669.675 141.76 669.03 142.055 668.475C142.358 667.912 142.779 667.478 143.316 667.175C143.862 666.872 144.486 666.72 145.188 666.72C145.864 666.72 146.466 666.867 146.995 667.162C147.524 667.457 147.935 667.873 148.23 668.41C148.525 668.939 148.672 669.55 148.672 670.243ZM147.125 669.775C147.116 669.229 146.921 668.791 146.54 668.462C146.159 668.133 145.686 667.968 145.123 667.968C144.612 667.968 144.174 668.133 143.81 668.462C143.446 668.783 143.229 669.22 143.16 669.775H147.125ZM153.744 666.72C154.308 666.72 154.81 666.837 155.252 667.071C155.703 667.305 156.054 667.652 156.305 668.111C156.557 668.57 156.682 669.125 156.682 669.775V674H155.213V669.996C155.213 669.355 155.053 668.865 154.732 668.527C154.412 668.18 153.974 668.007 153.419 668.007C152.865 668.007 152.423 668.18 152.093 668.527C151.773 668.865 151.612 669.355 151.612 669.996V674H150.13V666.837H151.612V667.656C151.855 667.361 152.163 667.132 152.535 666.967C152.917 666.802 153.32 666.72 153.744 666.72ZM160.302 668.046V672.011C160.302 672.28 160.362 672.475 160.484 672.596C160.614 672.709 160.83 672.765 161.134 672.765H162.044V674H160.874C160.206 674 159.695 673.844 159.34 673.532C158.984 673.22 158.807 672.713 158.807 672.011V668.046H157.962V666.837H158.807V665.056H160.302V666.837H162.044V668.046H160.302ZM166.517 674.117C165.841 674.117 165.23 673.965 164.684 673.662C164.138 673.35 163.709 672.917 163.397 672.362C163.085 671.799 162.929 671.149 162.929 670.412C162.929 669.684 163.089 669.038 163.41 668.475C163.73 667.912 164.168 667.478 164.723 667.175C165.277 666.872 165.897 666.72 166.582 666.72C167.266 666.72 167.886 666.872 168.441 667.175C168.995 667.478 169.433 667.912 169.754 668.475C170.074 669.038 170.235 669.684 170.235 670.412C170.235 671.14 170.07 671.786 169.741 672.349C169.411 672.912 168.961 673.35 168.389 673.662C167.825 673.965 167.201 674.117 166.517 674.117ZM166.517 672.83C166.898 672.83 167.253 672.739 167.583 672.557C167.921 672.375 168.194 672.102 168.402 671.738C168.61 671.374 168.714 670.932 168.714 670.412C168.714 669.892 168.614 669.454 168.415 669.099C168.215 668.735 167.951 668.462 167.622 668.28C167.292 668.098 166.937 668.007 166.556 668.007C166.174 668.007 165.819 668.098 165.49 668.28C165.169 668.462 164.913 668.735 164.723 669.099C164.532 669.454 164.437 669.892 164.437 670.412C164.437 671.183 164.632 671.781 165.022 672.206C165.42 672.622 165.919 672.83 166.517 672.83Z" fill="black"/>
<path d="M177.973 665.68V664.601H180.417V674H179.221V665.68H177.973ZM183.97 671.478C184.056 671.972 184.256 672.353 184.568 672.622C184.888 672.891 185.317 673.025 185.855 673.025C186.574 673.025 187.103 672.743 187.441 672.18C187.787 671.617 187.952 670.668 187.935 669.333C187.753 669.723 187.449 670.031 187.025 670.256C186.6 670.473 186.128 670.581 185.608 670.581C185.027 670.581 184.507 670.464 184.048 670.23C183.597 669.987 183.242 669.636 182.982 669.177C182.722 668.718 182.592 668.163 182.592 667.513C182.592 666.586 182.86 665.84 183.398 665.277C183.935 664.705 184.698 664.419 185.686 664.419C186.899 664.419 187.748 664.813 188.234 665.602C188.728 666.391 188.975 667.565 188.975 669.125C188.975 670.217 188.875 671.118 188.676 671.829C188.485 672.54 188.156 673.081 187.688 673.454C187.228 673.827 186.596 674.013 185.79 674.013C184.906 674.013 184.217 673.775 183.723 673.298C183.229 672.821 182.947 672.215 182.878 671.478H183.97ZM185.803 669.58C186.383 669.58 186.86 669.402 187.233 669.047C187.605 668.683 187.792 668.193 187.792 667.578C187.792 666.928 187.61 666.404 187.246 666.005C186.882 665.606 186.37 665.407 185.712 665.407C185.105 665.407 184.62 665.598 184.256 665.979C183.9 666.36 183.723 666.863 183.723 667.487C183.723 668.12 183.9 668.627 184.256 669.008C184.611 669.389 185.127 669.58 185.803 669.58ZM194.368 666.746C194.905 666.746 195.391 666.863 195.824 667.097C196.257 667.322 196.595 667.665 196.838 668.124C197.089 668.583 197.215 669.142 197.215 669.801V674H196.045V669.97C196.045 669.259 195.867 668.718 195.512 668.345C195.157 667.964 194.671 667.773 194.056 667.773C193.432 667.773 192.934 667.968 192.561 668.358C192.197 668.748 192.015 669.316 192.015 670.061V674H190.832V664.38H192.015V667.89C192.249 667.526 192.57 667.244 192.977 667.045C193.393 666.846 193.857 666.746 194.368 666.746ZM198.926 666.967C198.987 666.17 199.295 665.546 199.849 665.095C200.404 664.644 201.123 664.419 202.007 664.419C202.597 664.419 203.104 664.527 203.528 664.744C203.962 664.952 204.287 665.238 204.503 665.602C204.729 665.966 204.841 666.378 204.841 666.837C204.841 667.374 204.685 667.838 204.373 668.228C204.07 668.618 203.671 668.869 203.177 668.982V669.047C203.741 669.186 204.187 669.459 204.516 669.866C204.846 670.273 205.01 670.806 205.01 671.465C205.01 671.959 204.898 672.405 204.672 672.804C204.447 673.194 204.109 673.502 203.658 673.727C203.208 673.952 202.666 674.065 202.033 674.065C201.115 674.065 200.361 673.827 199.771 673.35C199.182 672.865 198.853 672.18 198.783 671.296H199.927C199.988 671.816 200.2 672.241 200.564 672.57C200.928 672.899 201.414 673.064 202.02 673.064C202.627 673.064 203.086 672.908 203.398 672.596C203.719 672.275 203.879 671.864 203.879 671.361C203.879 670.711 203.663 670.243 203.229 669.957C202.796 669.671 202.142 669.528 201.266 669.528H200.967V668.54H201.279C202.077 668.531 202.679 668.401 203.086 668.15C203.494 667.89 203.697 667.491 203.697 666.954C203.697 666.495 203.546 666.126 203.242 665.849C202.948 665.572 202.523 665.433 201.968 665.433C201.431 665.433 200.998 665.572 200.668 665.849C200.339 666.126 200.144 666.499 200.083 666.967H198.926ZM206.608 669.203C206.608 667.712 206.85 666.551 207.336 665.719C207.821 664.878 208.67 664.458 209.884 664.458C211.088 664.458 211.933 664.878 212.419 665.719C212.904 666.551 213.147 667.712 213.147 669.203C213.147 670.72 212.904 671.898 212.419 672.739C211.933 673.58 211.088 674 209.884 674C208.67 674 207.821 673.58 207.336 672.739C206.85 671.898 206.608 670.72 206.608 669.203ZM211.977 669.203C211.977 668.449 211.925 667.812 211.821 667.292C211.725 666.763 211.522 666.339 211.21 666.018C210.906 665.697 210.464 665.537 209.884 665.537C209.294 665.537 208.844 665.697 208.532 666.018C208.228 666.339 208.025 666.763 207.921 667.292C207.825 667.812 207.778 668.449 207.778 669.203C207.778 669.983 207.825 670.637 207.921 671.166C208.025 671.695 208.228 672.119 208.532 672.44C208.844 672.761 209.294 672.921 209.884 672.921C210.464 672.921 210.906 672.761 211.21 672.44C211.522 672.119 211.725 671.695 211.821 671.166C211.925 670.637 211.977 669.983 211.977 669.203Z" fill="black" fill-opacity="0.53"/>
<rect x="29" y="95" width="336" height="67" rx="7" fill="#5F5F5F"/>
<path d="M55.4529 121.335H58.9029V123H53.3529V112.53H55.4529V121.335ZM63.9276 123.135C63.1276 123.135 62.4076 122.96 61.7676 122.61C61.1276 122.25 60.6226 121.745 60.2526 121.095C59.8926 120.445 59.7126 119.695 59.7126 118.845C59.7126 117.995 59.8976 117.245 60.2676 116.595C60.6476 115.945 61.1626 115.445 61.8126 115.095C62.4626 114.735 63.1876 114.555 63.9876 114.555C64.7876 114.555 65.5126 114.735 66.1626 115.095C66.8126 115.445 67.3226 115.945 67.6926 116.595C68.0726 117.245 68.2626 117.995 68.2626 118.845C68.2626 119.695 68.0676 120.445 67.6776 121.095C67.2976 121.745 66.7776 122.25 66.1176 122.61C65.4676 122.96 64.7376 123.135 63.9276 123.135ZM63.9276 121.305C64.3076 121.305 64.6626 121.215 64.9926 121.035C65.3326 120.845 65.6026 120.565 65.8026 120.195C66.0026 119.825 66.1026 119.375 66.1026 118.845C66.1026 118.055 65.8926 117.45 65.4726 117.03C65.0626 116.6 64.5576 116.385 63.9576 116.385C63.3576 116.385 62.8526 116.6 62.4426 117.03C62.0426 117.45 61.8426 118.055 61.8426 118.845C61.8426 119.635 62.0376 120.245 62.4276 120.675C62.8276 121.095 63.3276 121.305 63.9276 121.305ZM71.9031 115.98C72.1731 115.54 72.5231 115.195 72.9531 114.945C73.3931 114.695 73.8931 114.57 74.4531 114.57V116.775H73.8981C73.2381 116.775 72.7381 116.93 72.3981 117.24C72.0681 117.55 71.9031 118.09 71.9031 118.86V123H69.8031V114.69H71.9031V115.98ZM83.5925 118.665C83.5925 118.965 83.5725 119.235 83.5325 119.475H77.4575C77.5075 120.075 77.7175 120.545 78.0875 120.885C78.4575 121.225 78.9125 121.395 79.4525 121.395C80.2325 121.395 80.7875 121.06 81.1175 120.39H83.3825C83.1425 121.19 82.6825 121.85 82.0025 122.37C81.3225 122.88 80.4875 123.135 79.4975 123.135C78.6975 123.135 77.9775 122.96 77.3375 122.61C76.7075 122.25 76.2125 121.745 75.8525 121.095C75.5025 120.445 75.3275 119.695 75.3275 118.845C75.3275 117.985 75.5025 117.23 75.8525 116.58C76.2025 115.93 76.6925 115.43 77.3225 115.08C77.9525 114.73 78.6775 114.555 79.4975 114.555C80.2875 114.555 80.9925 114.725 81.6125 115.065C82.2425 115.405 82.7275 115.89 83.0675 116.52C83.4175 117.14 83.5925 117.855 83.5925 118.665ZM81.4175 118.065C81.4075 117.525 81.2125 117.095 80.8325 116.775C80.4525 116.445 79.9875 116.28 79.4375 116.28C78.9175 116.28 78.4775 116.44 78.1175 116.76C77.7675 117.07 77.5525 117.505 77.4725 118.065H81.4175ZM95.4453 114.57C96.4653 114.57 97.2853 114.885 97.9053 115.515C98.5353 116.135 98.8503 117.005 98.8503 118.125V123H96.7503V118.41C96.7503 117.76 96.5853 117.265 96.2553 116.925C95.9253 116.575 95.4753 116.4 94.9053 116.4C94.3353 116.4 93.8803 116.575 93.5403 116.925C93.2103 117.265 93.0453 117.76 93.0453 118.41V123H90.9453V118.41C90.9453 117.76 90.7803 117.265 90.4503 116.925C90.1203 116.575 89.6703 116.4 89.1003 116.4C88.5203 116.4 88.0603 116.575 87.7203 116.925C87.3903 117.265 87.2253 117.76 87.2253 118.41V123H85.1253V114.69H87.2253V115.695C87.4953 115.345 87.8403 115.07 88.2603 114.87C88.6903 114.67 89.1603 114.57 89.6703 114.57C90.3203 114.57 90.9003 114.71 91.4103 114.99C91.9203 115.26 92.3153 115.65 92.5953 116.16C92.8653 115.68 93.2553 115.295 93.7653 115.005C94.2853 114.715 94.8453 114.57 95.4453 114.57ZM105.482 113.7C105.112 113.7 104.802 113.585 104.552 113.355C104.312 113.115 104.192 112.82 104.192 112.47C104.192 112.12 104.312 111.83 104.552 111.6C104.802 111.36 105.112 111.24 105.482 111.24C105.852 111.24 106.157 111.36 106.397 111.6C106.647 111.83 106.772 112.12 106.772 112.47C106.772 112.82 106.647 113.115 106.397 113.355C106.157 113.585 105.852 113.7 105.482 113.7ZM106.517 114.69V123H104.417V114.69H106.517ZM110.692 115.89C110.962 115.51 111.332 115.195 111.802 114.945C112.282 114.685 112.827 114.555 113.437 114.555C114.147 114.555 114.787 114.73 115.357 115.08C115.937 115.43 116.392 115.93 116.722 116.58C117.062 117.22 117.232 117.965 117.232 118.815C117.232 119.665 117.062 120.42 116.722 121.08C116.392 121.73 115.937 122.235 115.357 122.595C114.787 122.955 114.147 123.135 113.437 123.135C112.827 123.135 112.287 123.01 111.817 122.76C111.357 122.51 110.982 122.195 110.692 121.815V126.96H108.592V114.69H110.692V115.89ZM115.087 118.815C115.087 118.315 114.982 117.885 114.772 117.525C114.572 117.155 114.302 116.875 113.962 116.685C113.632 116.495 113.272 116.4 112.882 116.4C112.502 116.4 112.142 116.5 111.802 116.7C111.472 116.89 111.202 117.17 110.992 117.54C110.792 117.91 110.692 118.345 110.692 118.845C110.692 119.345 110.792 119.78 110.992 120.15C111.202 120.52 111.472 120.805 111.802 121.005C112.142 121.195 112.502 121.29 112.882 121.29C113.272 121.29 113.632 121.19 113.962 120.99C114.302 120.79 114.572 120.505 114.772 120.135C114.982 119.765 115.087 119.325 115.087 118.815ZM121.938 123.135C121.258 123.135 120.648 123.015 120.108 122.775C119.568 122.525 119.138 122.19 118.818 121.77C118.508 121.35 118.338 120.885 118.308 120.375H120.423C120.463 120.695 120.618 120.96 120.888 121.17C121.168 121.38 121.513 121.485 121.923 121.485C122.323 121.485 122.633 121.405 122.853 121.245C123.083 121.085 123.198 120.88 123.198 120.63C123.198 120.36 123.058 120.16 122.778 120.03C122.508 119.89 122.073 119.74 121.473 119.58C120.853 119.43 120.343 119.275 119.943 119.115C119.553 118.955 119.213 118.71 118.923 118.38C118.643 118.05 118.503 117.605 118.503 117.045C118.503 116.585 118.633 116.165 118.893 115.785C119.163 115.405 119.543 115.105 120.033 114.885C120.533 114.665 121.118 114.555 121.788 114.555C122.778 114.555 123.568 114.805 124.158 115.305C124.748 115.795 125.073 116.46 125.133 117.3H123.123C123.093 116.97 122.953 116.71 122.703 116.52C122.463 116.32 122.138 116.22 121.728 116.22C121.348 116.22 121.053 116.29 120.843 116.43C120.643 116.57 120.543 116.765 120.543 117.015C120.543 117.295 120.683 117.51 120.963 117.66C121.243 117.8 121.678 117.945 122.268 118.095C122.868 118.245 123.363 118.4 123.753 118.56C124.143 118.72 124.478 118.97 124.758 119.31C125.048 119.64 125.198 120.08 125.208 120.63C125.208 121.11 125.073 121.54 124.803 121.92C124.543 122.3 124.163 122.6 123.663 122.82C123.173 123.03 122.598 123.135 121.938 123.135ZM134.777 114.69V123H132.662V121.95C132.392 122.31 132.037 122.595 131.597 122.805C131.167 123.005 130.697 123.105 130.187 123.105C129.537 123.105 128.962 122.97 128.462 122.7C127.962 122.42 127.567 122.015 127.277 121.485C126.997 120.945 126.857 120.305 126.857 119.565V114.69H128.957V119.265C128.957 119.925 129.122 120.435 129.452 120.795C129.782 121.145 130.232 121.32 130.802 121.32C131.382 121.32 131.837 121.145 132.167 120.795C132.497 120.435 132.662 119.925 132.662 119.265V114.69H134.777ZM147.169 114.57C148.189 114.57 149.009 114.885 149.629 115.515C150.259 116.135 150.574 117.005 150.574 118.125V123H148.474V118.41C148.474 117.76 148.309 117.265 147.979 116.925C147.649 116.575 147.199 116.4 146.629 116.4C146.059 116.4 145.604 116.575 145.264 116.925C144.934 117.265 144.769 117.76 144.769 118.41V123H142.669V118.41C142.669 117.76 142.504 117.265 142.174 116.925C141.844 116.575 141.394 116.4 140.824 116.4C140.244 116.4 139.784 116.575 139.444 116.925C139.114 117.265 138.949 117.76 138.949 118.41V123H136.849V114.69H138.949V115.695C139.219 115.345 139.564 115.07 139.984 114.87C140.414 114.67 140.884 114.57 141.394 114.57C142.044 114.57 142.624 114.71 143.134 114.99C143.644 115.26 144.039 115.65 144.319 116.16C144.589 115.68 144.979 115.295 145.489 115.005C146.009 114.715 146.569 114.57 147.169 114.57ZM155.601 118.815C155.601 117.975 155.766 117.23 156.096 116.58C156.436 115.93 156.896 115.43 157.476 115.08C158.056 114.73 158.701 114.555 159.411 114.555C159.951 114.555 160.466 114.675 160.956 114.915C161.446 115.145 161.836 115.455 162.126 115.845V111.9H164.256V123H162.126V121.77C161.866 122.18 161.501 122.51 161.031 122.76C160.561 123.01 160.016 123.135 159.396 123.135C158.696 123.135 158.056 122.955 157.476 122.595C156.896 122.235 156.436 121.73 156.096 121.08C155.766 120.42 155.601 119.665 155.601 118.815ZM162.141 118.845C162.141 118.335 162.041 117.9 161.841 117.54C161.641 117.17 161.371 116.89 161.031 116.7C160.691 116.5 160.326 116.4 159.936 116.4C159.546 116.4 159.186 116.495 158.856 116.685C158.526 116.875 158.256 117.155 158.046 117.525C157.846 117.885 157.746 118.315 157.746 118.815C157.746 119.315 157.846 119.755 158.046 120.135C158.256 120.505 158.526 120.79 158.856 120.99C159.196 121.19 159.556 121.29 159.936 121.29C160.326 121.29 160.691 121.195 161.031 121.005C161.371 120.805 161.641 120.525 161.841 120.165C162.041 119.795 162.141 119.355 162.141 118.845ZM169.997 123.135C169.197 123.135 168.477 122.96 167.837 122.61C167.197 122.25 166.692 121.745 166.322 121.095C165.962 120.445 165.782 119.695 165.782 118.845C165.782 117.995 165.967 117.245 166.337 116.595C166.717 115.945 167.232 115.445 167.882 115.095C168.532 114.735 169.257 114.555 170.057 114.555C170.857 114.555 171.582 114.735 172.232 115.095C172.882 115.445 173.392 115.945 173.762 116.595C174.142 117.245 174.332 117.995 174.332 118.845C174.332 119.695 174.137 120.445 173.747 121.095C173.367 121.745 172.847 122.25 172.187 122.61C171.537 122.96 170.807 123.135 169.997 123.135ZM169.997 121.305C170.377 121.305 170.732 121.215 171.062 121.035C171.402 120.845 171.672 120.565 171.872 120.195C172.072 119.825 172.172 119.375 172.172 118.845C172.172 118.055 171.962 117.45 171.542 117.03C171.132 116.6 170.627 116.385 170.027 116.385C169.427 116.385 168.922 116.6 168.512 117.03C168.112 117.45 167.912 118.055 167.912 118.845C167.912 119.635 168.107 120.245 168.497 120.675C168.897 121.095 169.397 121.305 169.997 121.305ZM177.972 111.9V123H175.872V111.9H177.972ZM183.737 123.135C182.937 123.135 182.217 122.96 181.577 122.61C180.937 122.25 180.432 121.745 180.062 121.095C179.702 120.445 179.522 119.695 179.522 118.845C179.522 117.995 179.707 117.245 180.077 116.595C180.457 115.945 180.972 115.445 181.622 115.095C182.272 114.735 182.997 114.555 183.797 114.555C184.597 114.555 185.322 114.735 185.972 115.095C186.622 115.445 187.132 115.945 187.502 116.595C187.882 117.245 188.072 117.995 188.072 118.845C188.072 119.695 187.877 120.445 187.487 121.095C187.107 121.745 186.587 122.25 185.927 122.61C185.277 122.96 184.547 123.135 183.737 123.135ZM183.737 121.305C184.117 121.305 184.472 121.215 184.802 121.035C185.142 120.845 185.412 120.565 185.612 120.195C185.812 119.825 185.912 119.375 185.912 118.845C185.912 118.055 185.702 117.45 185.282 117.03C184.872 116.6 184.367 116.385 183.767 116.385C183.167 116.385 182.662 116.6 182.252 117.03C181.852 117.45 181.652 118.055 181.652 118.845C181.652 119.635 181.847 120.245 182.237 120.675C182.637 121.095 183.137 121.305 183.737 121.305ZM191.713 115.98C191.983 115.54 192.333 115.195 192.763 114.945C193.203 114.695 193.703 114.57 194.263 114.57V116.775H193.708C193.048 116.775 192.548 116.93 192.208 117.24C191.878 117.55 191.713 118.09 191.713 118.86V123H189.613V114.69H191.713V115.98ZM202.431 123.135C201.751 123.135 201.141 123.015 200.601 122.775C200.061 122.525 199.631 122.19 199.311 121.77C199.001 121.35 198.831 120.885 198.801 120.375H200.916C200.956 120.695 201.111 120.96 201.381 121.17C201.661 121.38 202.006 121.485 202.416 121.485C202.816 121.485 203.126 121.405 203.346 121.245C203.576 121.085 203.691 120.88 203.691 120.63C203.691 120.36 203.551 120.16 203.271 120.03C203.001 119.89 202.566 119.74 201.966 119.58C201.346 119.43 200.836 119.275 200.436 119.115C200.046 118.955 199.706 118.71 199.416 118.38C199.136 118.05 198.996 117.605 198.996 117.045C198.996 116.585 199.126 116.165 199.386 115.785C199.656 115.405 200.036 115.105 200.526 114.885C201.026 114.665 201.611 114.555 202.281 114.555C203.271 114.555 204.061 114.805 204.651 115.305C205.241 115.795 205.566 116.46 205.626 117.3H203.616C203.586 116.97 203.446 116.71 203.196 116.52C202.956 116.32 202.631 116.22 202.221 116.22C201.841 116.22 201.546 116.29 201.336 116.43C201.136 116.57 201.036 116.765 201.036 117.015C201.036 117.295 201.176 117.51 201.456 117.66C201.736 117.8 202.171 117.945 202.761 118.095C203.361 118.245 203.856 118.4 204.246 118.56C204.636 118.72 204.971 118.97 205.251 119.31C205.541 119.64 205.691 120.08 205.701 120.63C205.701 121.11 205.566 121.54 205.296 121.92C205.036 122.3 204.656 122.6 204.156 122.82C203.666 123.03 203.091 123.135 202.431 123.135ZM208.49 113.7C208.12 113.7 207.81 113.585 207.56 113.355C207.32 113.115 207.2 112.82 207.2 112.47C207.2 112.12 207.32 111.83 207.56 111.6C207.81 111.36 208.12 111.24 208.49 111.24C208.86 111.24 209.165 111.36 209.405 111.6C209.655 111.83 209.78 112.12 209.78 112.47C209.78 112.82 209.655 113.115 209.405 113.355C209.165 113.585 208.86 113.7 208.49 113.7ZM209.525 114.69V123H207.425V114.69H209.525ZM214.634 118.815C214.634 117.975 214.799 117.23 215.129 116.58C215.469 115.93 215.924 115.43 216.494 115.08C217.074 114.73 217.719 114.555 218.429 114.555C219.049 114.555 219.589 114.68 220.049 114.93C220.519 115.18 220.894 115.495 221.174 115.875V114.69H223.289V123H221.174V121.785C220.904 122.175 220.529 122.5 220.049 122.76C219.579 123.01 219.034 123.135 218.414 123.135C217.714 123.135 217.074 122.955 216.494 122.595C215.924 122.235 215.469 121.73 215.129 121.08C214.799 120.42 214.634 119.665 214.634 118.815ZM221.174 118.845C221.174 118.335 221.074 117.9 220.874 117.54C220.674 117.17 220.404 116.89 220.064 116.7C219.724 116.5 219.359 116.4 218.969 116.4C218.579 116.4 218.219 116.495 217.889 116.685C217.559 116.875 217.289 117.155 217.079 117.525C216.879 117.885 216.779 118.315 216.779 118.815C216.779 119.315 216.879 119.755 217.079 120.135C217.289 120.505 217.559 120.79 217.889 120.99C218.229 121.19 218.589 121.29 218.969 121.29C219.359 121.29 219.724 121.195 220.064 121.005C220.404 120.805 220.674 120.525 220.874 120.165C221.074 119.795 221.174 119.355 221.174 118.845ZM235.66 114.57C236.68 114.57 237.5 114.885 238.12 115.515C238.75 116.135 239.065 117.005 239.065 118.125V123H236.965V118.41C236.965 117.76 236.8 117.265 236.47 116.925C236.14 116.575 235.69 116.4 235.12 116.4C234.55 116.4 234.095 116.575 233.755 116.925C233.425 117.265 233.26 117.76 233.26 118.41V123H231.16V118.41C231.16 117.76 230.995 117.265 230.665 116.925C230.335 116.575 229.885 116.4 229.315 116.4C228.735 116.4 228.275 116.575 227.935 116.925C227.605 117.265 227.44 117.76 227.44 118.41V123H225.34V114.69H227.44V115.695C227.71 115.345 228.055 115.07 228.475 114.87C228.905 114.67 229.375 114.57 229.885 114.57C230.535 114.57 231.115 114.71 231.625 114.99C232.135 115.26 232.53 115.65 232.81 116.16C233.08 115.68 233.47 115.295 233.98 115.005C234.5 114.715 235.06 114.57 235.66 114.57ZM248.783 118.665C248.783 118.965 248.763 119.235 248.723 119.475H242.648C242.698 120.075 242.908 120.545 243.278 120.885C243.648 121.225 244.103 121.395 244.643 121.395C245.423 121.395 245.978 121.06 246.308 120.39H248.573C248.333 121.19 247.873 121.85 247.193 122.37C246.513 122.88 245.678 123.135 244.688 123.135C243.888 123.135 243.168 122.96 242.528 122.61C241.898 122.25 241.403 121.745 241.043 121.095C240.693 120.445 240.518 119.695 240.518 118.845C240.518 117.985 240.693 117.23 241.043 116.58C241.393 115.93 241.883 115.43 242.513 115.08C243.143 114.73 243.868 114.555 244.688 114.555C245.478 114.555 246.183 114.725 246.803 115.065C247.433 115.405 247.918 115.89 248.258 116.52C248.608 117.14 248.783 117.855 248.783 118.665ZM246.608 118.065C246.598 117.525 246.403 117.095 246.023 116.775C245.643 116.445 245.178 116.28 244.628 116.28C244.108 116.28 243.668 116.44 243.308 116.76C242.958 117.07 242.743 117.505 242.663 118.065H246.608ZM252.761 116.415V120.435C252.761 120.715 252.826 120.92 252.956 121.05C253.096 121.17 253.326 121.23 253.646 121.23H254.621V123H253.301C251.531 123 250.646 122.14 250.646 120.42V116.415H249.656V114.69H250.646V112.635H252.761V114.69H254.621V116.415H252.761ZM257.061 123.105C256.681 123.105 256.366 122.99 256.116 122.76C255.876 122.52 255.756 122.225 255.756 121.875C255.756 121.525 255.876 121.235 256.116 121.005C256.366 120.765 256.681 120.645 257.061 120.645C257.431 120.645 257.736 120.765 257.976 121.005C258.216 121.235 258.336 121.525 258.336 121.875C258.336 122.225 258.216 122.52 257.976 122.76C257.736 122.99 257.431 123.105 257.061 123.105ZM260.958 123.105C260.578 123.105 260.263 122.99 260.013 122.76C259.773 122.52 259.653 122.225 259.653 121.875C259.653 121.525 259.773 121.235 260.013 121.005C260.263 120.765 260.578 120.645 260.958 120.645C261.328 120.645 261.633 120.765 261.873 121.005C262.113 121.235 262.233 121.525 262.233 121.875C262.233 122.225 262.113 122.52 261.873 122.76C261.633 122.99 261.328 123.105 260.958 123.105ZM264.854 123.105C264.474 123.105 264.159 122.99 263.909 122.76C263.669 122.52 263.549 122.225 263.549 121.875C263.549 121.525 263.669 121.235 263.909 121.005C264.159 120.765 264.474 120.645 264.854 120.645C265.224 120.645 265.529 120.765 265.769 121.005C266.009 121.235 266.129 121.525 266.129 121.875C266.129 122.225 266.009 122.52 265.769 122.76C265.529 122.99 265.224 123.105 264.854 123.105ZM268.751 123.105C268.371 123.105 268.056 122.99 267.806 122.76C267.566 122.52 267.446 122.225 267.446 121.875C267.446 121.525 267.566 121.235 267.806 121.005C268.056 120.765 268.371 120.645 268.751 120.645C269.121 120.645 269.426 120.765 269.666 121.005C269.906 121.235 270.026 121.525 270.026 121.875C270.026 122.225 269.906 122.52 269.666 122.76C269.426 122.99 269.121 123.105 268.751 123.105Z" fill="white"/>
<path d="M56.4646 135.242C57.5286 135.242 58.448 135.443 59.2226 135.844C60.0066 136.236 60.604 136.801 61.0146 137.538C61.4346 138.275 61.6446 139.143 61.6446 140.142C61.6446 141.141 61.4346 142.009 61.0146 142.746C60.604 143.474 60.0066 144.034 59.2226 144.426C58.448 144.809 57.5286 145 56.4646 145H53.4266V135.242H56.4646ZM56.4646 143.95C57.7246 143.95 58.686 143.619 59.3486 142.956C60.0113 142.284 60.3426 141.346 60.3426 140.142C60.3426 138.929 60.0066 137.981 59.3346 137.3C58.672 136.619 57.7153 136.278 56.4646 136.278H54.7006V143.95H56.4646ZM62.8491 141.136C62.8491 140.352 63.0077 139.666 63.3251 139.078C63.6424 138.481 64.0764 138.019 64.6271 137.692C65.1871 137.365 65.8077 137.202 66.4891 137.202C67.1611 137.202 67.7444 137.347 68.2391 137.636C68.7337 137.925 69.1024 138.289 69.3451 138.728V137.328H70.6331V145H69.3451V143.572C69.0931 144.02 68.7151 144.393 68.2111 144.692C67.7164 144.981 67.1377 145.126 66.4751 145.126C65.7937 145.126 65.1777 144.958 64.6271 144.622C64.0764 144.286 63.6424 143.815 63.3251 143.208C63.0077 142.601 62.8491 141.911 62.8491 141.136ZM69.3451 141.15C69.3451 140.571 69.2284 140.067 68.9951 139.638C68.7617 139.209 68.4444 138.882 68.0431 138.658C67.6511 138.425 67.2171 138.308 66.7411 138.308C66.2651 138.308 65.8311 138.42 65.4391 138.644C65.0471 138.868 64.7344 139.195 64.5011 139.624C64.2677 140.053 64.1511 140.557 64.1511 141.136C64.1511 141.724 64.2677 142.237 64.5011 142.676C64.7344 143.105 65.0471 143.437 65.4391 143.67C65.8311 143.894 66.2651 144.006 66.7411 144.006C67.2171 144.006 67.6511 143.894 68.0431 143.67C68.4444 143.437 68.7617 143.105 68.9951 142.676C69.2284 142.237 69.3451 141.729 69.3451 141.15ZM72.31 141.136C72.31 140.352 72.4687 139.666 72.786 139.078C73.1033 138.481 73.5373 138.019 74.088 137.692C74.648 137.365 75.2733 137.202 75.964 137.202C76.6267 137.202 77.2053 137.351 77.7 137.65C78.204 137.939 78.5727 138.299 78.806 138.728V137.328H80.094V148.64H78.806V143.586C78.5633 144.015 78.19 144.379 77.686 144.678C77.182 144.977 76.594 145.126 75.922 145.126C75.25 145.126 74.6387 144.958 74.088 144.622C73.5373 144.286 73.1033 143.815 72.786 143.208C72.4687 142.601 72.31 141.911 72.31 141.136ZM78.806 141.15C78.806 140.571 78.6893 140.067 78.456 139.638C78.2227 139.209 77.9053 138.882 77.504 138.658C77.112 138.425 76.678 138.308 76.202 138.308C75.726 138.308 75.292 138.42 74.9 138.644C74.508 138.868 74.1953 139.195 73.962 139.624C73.7287 140.053 73.612 140.557 73.612 141.136C73.612 141.724 73.7287 142.237 73.962 142.676C74.1953 143.105 74.508 143.437 74.9 143.67C75.292 143.894 75.726 144.006 76.202 144.006C76.678 144.006 77.112 143.894 77.504 143.67C77.9053 143.437 78.2227 143.105 78.456 142.676C78.6893 142.237 78.806 141.729 78.806 141.15ZM89.0509 137.328V145H87.7769V143.866C87.5343 144.258 87.1936 144.566 86.7549 144.79C86.3256 145.005 85.8496 145.112 85.3269 145.112C84.7296 145.112 84.1929 144.991 83.7169 144.748C83.2409 144.496 82.8629 144.123 82.5829 143.628C82.3123 143.133 82.1769 142.531 82.1769 141.822V137.328H83.4369V141.654C83.4369 142.41 83.6283 142.993 84.0109 143.404C84.3936 143.805 84.9163 144.006 85.5789 144.006C86.2603 144.006 86.7969 143.796 87.1889 143.376C87.5809 142.956 87.7769 142.345 87.7769 141.542V137.328H89.0509ZM91.86 136.082C91.6174 136.082 91.412 135.998 91.244 135.83C91.076 135.662 90.992 135.457 90.992 135.214C90.992 134.971 91.076 134.766 91.244 134.598C91.412 134.43 91.6174 134.346 91.86 134.346C92.0934 134.346 92.2894 134.43 92.448 134.598C92.616 134.766 92.7 134.971 92.7 135.214C92.7 135.457 92.616 135.662 92.448 135.83C92.2894 135.998 92.0934 136.082 91.86 136.082ZM92.476 137.328V145H91.202V137.328H92.476ZM97.9038 141.136C97.9038 140.352 98.0624 139.666 98.3798 139.078C98.6971 138.481 99.1311 138.019 99.6818 137.692C100.242 137.365 100.862 137.202 101.544 137.202C102.216 137.202 102.799 137.347 103.294 137.636C103.788 137.925 104.157 138.289 104.4 138.728V137.328H105.688V145H104.4V143.572C104.148 144.02 103.77 144.393 103.266 144.692C102.771 144.981 102.192 145.126 101.53 145.126C100.848 145.126 100.232 144.958 99.6818 144.622C99.1311 144.286 98.6971 143.815 98.3798 143.208C98.0624 142.601 97.9038 141.911 97.9038 141.136ZM104.4 141.15C104.4 140.571 104.283 140.067 104.05 139.638C103.816 139.209 103.499 138.882 103.098 138.658C102.706 138.425 102.272 138.308 101.796 138.308C101.32 138.308 100.886 138.42 100.494 138.644C100.102 138.868 99.7891 139.195 99.5558 139.624C99.3224 140.053 99.2058 140.557 99.2058 141.136C99.2058 141.724 99.3224 142.237 99.5558 142.676C99.7891 143.105 100.102 143.437 100.494 143.67C100.886 143.894 101.32 144.006 101.796 144.006C102.272 144.006 102.706 143.894 103.098 143.67C103.499 143.437 103.816 143.105 104.05 142.676C104.283 142.237 104.4 141.729 104.4 141.15ZM111.027 136.04V134.878H113.659V145H112.371V136.04H111.027ZM115.847 139.834C115.847 138.229 116.109 136.978 116.631 136.082C117.154 135.177 118.069 134.724 119.375 134.724C120.673 134.724 121.583 135.177 122.105 136.082C122.628 136.978 122.889 138.229 122.889 139.834C122.889 141.467 122.628 142.737 122.105 143.642C121.583 144.547 120.673 145 119.375 145C118.069 145 117.154 144.547 116.631 143.642C116.109 142.737 115.847 141.467 115.847 139.834ZM121.629 139.834C121.629 139.022 121.573 138.336 121.461 137.776C121.359 137.207 121.139 136.749 120.803 136.404C120.477 136.059 120.001 135.886 119.375 135.886C118.741 135.886 118.255 136.059 117.919 136.404C117.593 136.749 117.373 137.207 117.261 137.776C117.159 138.336 117.107 139.022 117.107 139.834C117.107 140.674 117.159 141.379 117.261 141.948C117.373 142.517 117.593 142.975 117.919 143.32C118.255 143.665 118.741 143.838 119.375 143.838C120.001 143.838 120.477 143.665 120.803 143.32C121.139 142.975 121.359 142.517 121.461 141.948C121.573 141.379 121.629 140.674 121.629 139.834ZM137.807 137.188C138.404 137.188 138.936 137.314 139.403 137.566C139.87 137.809 140.238 138.177 140.509 138.672C140.78 139.167 140.915 139.769 140.915 140.478V145H139.655V140.66C139.655 139.895 139.464 139.311 139.081 138.91C138.708 138.499 138.199 138.294 137.555 138.294C136.892 138.294 136.365 138.509 135.973 138.938C135.581 139.358 135.385 139.969 135.385 140.772V145H134.125V140.66C134.125 139.895 133.934 139.311 133.551 138.91C133.178 138.499 132.669 138.294 132.025 138.294C131.362 138.294 130.835 138.509 130.443 138.938C130.051 139.358 129.855 139.969 129.855 140.772V145H128.581V137.328H129.855V138.434C130.107 138.033 130.443 137.725 130.863 137.51C131.292 137.295 131.764 137.188 132.277 137.188C132.921 137.188 133.49 137.333 133.985 137.622C134.48 137.911 134.848 138.336 135.091 138.896C135.306 138.355 135.66 137.935 136.155 137.636C136.65 137.337 137.2 137.188 137.807 137.188ZM143.663 136.082C143.42 136.082 143.215 135.998 143.047 135.83C142.879 135.662 142.795 135.457 142.795 135.214C142.795 134.971 142.879 134.766 143.047 134.598C143.215 134.43 143.42 134.346 143.663 134.346C143.896 134.346 144.092 134.43 144.251 134.598C144.419 134.766 144.503 134.971 144.503 135.214C144.503 135.457 144.419 135.662 144.251 135.83C144.092 135.998 143.896 136.082 143.663 136.082ZM144.279 137.328V145H143.005V137.328H144.279ZM150.188 137.188C151.121 137.188 151.877 137.473 152.456 138.042C153.035 138.602 153.324 139.414 153.324 140.478V145H152.064V140.66C152.064 139.895 151.873 139.311 151.49 138.91C151.107 138.499 150.585 138.294 149.922 138.294C149.25 138.294 148.713 138.504 148.312 138.924C147.92 139.344 147.724 139.955 147.724 140.758V145H146.45V137.328H147.724V138.42C147.976 138.028 148.317 137.725 148.746 137.51C149.185 137.295 149.665 137.188 150.188 137.188ZM162.209 137.328V145H160.935V143.866C160.692 144.258 160.352 144.566 159.913 144.79C159.484 145.005 159.008 145.112 158.485 145.112C157.888 145.112 157.351 144.991 156.875 144.748C156.399 144.496 156.021 144.123 155.741 143.628C155.47 143.133 155.335 142.531 155.335 141.822V137.328H156.595V141.654C156.595 142.41 156.786 142.993 157.169 143.404C157.552 143.805 158.074 144.006 158.737 144.006C159.418 144.006 159.955 143.796 160.347 143.376C160.739 142.956 160.935 142.345 160.935 141.542V137.328H162.209ZM165.914 138.378V142.9C165.914 143.273 165.994 143.539 166.152 143.698C166.311 143.847 166.586 143.922 166.978 143.922H167.916V145H166.768C166.059 145 165.527 144.837 165.172 144.51C164.818 144.183 164.64 143.647 164.64 142.9V138.378H163.646V137.328H164.64V135.396H165.914V137.328H167.916V138.378H165.914ZM172.806 145.126C172.087 145.126 171.434 144.963 170.846 144.636C170.267 144.309 169.81 143.847 169.474 143.25C169.147 142.643 168.984 141.943 168.984 141.15C168.984 140.366 169.152 139.675 169.488 139.078C169.833 138.471 170.3 138.009 170.888 137.692C171.476 137.365 172.134 137.202 172.862 137.202C173.59 137.202 174.248 137.365 174.836 137.692C175.424 138.009 175.886 138.467 176.222 139.064C176.567 139.661 176.74 140.357 176.74 141.15C176.74 141.943 176.563 142.643 176.208 143.25C175.863 143.847 175.391 144.309 174.794 144.636C174.197 144.963 173.534 145.126 172.806 145.126ZM172.806 144.006C173.263 144.006 173.693 143.899 174.094 143.684C174.495 143.469 174.817 143.147 175.06 142.718C175.312 142.289 175.438 141.766 175.438 141.15C175.438 140.534 175.317 140.011 175.074 139.582C174.831 139.153 174.514 138.835 174.122 138.63C173.73 138.415 173.305 138.308 172.848 138.308C172.381 138.308 171.952 138.415 171.56 138.63C171.177 138.835 170.869 139.153 170.636 139.582C170.403 140.011 170.286 140.534 170.286 141.15C170.286 141.775 170.398 142.303 170.622 142.732C170.855 143.161 171.163 143.483 171.546 143.698C171.929 143.903 172.349 144.006 172.806 144.006ZM181.131 145.126C180.543 145.126 180.016 145.028 179.549 144.832C179.082 144.627 178.714 144.347 178.443 143.992C178.172 143.628 178.023 143.213 177.995 142.746H179.311C179.348 143.129 179.526 143.441 179.843 143.684C180.17 143.927 180.594 144.048 181.117 144.048C181.602 144.048 181.985 143.941 182.265 143.726C182.545 143.511 182.685 143.241 182.685 142.914C182.685 142.578 182.536 142.331 182.237 142.172C181.938 142.004 181.476 141.841 180.851 141.682C180.282 141.533 179.815 141.383 179.451 141.234C179.096 141.075 178.788 140.847 178.527 140.548C178.275 140.24 178.149 139.839 178.149 139.344C178.149 138.952 178.266 138.593 178.499 138.266C178.732 137.939 179.064 137.683 179.493 137.496C179.922 137.3 180.412 137.202 180.963 137.202C181.812 137.202 182.498 137.417 183.021 137.846C183.544 138.275 183.824 138.863 183.861 139.61H182.587C182.559 139.209 182.396 138.887 182.097 138.644C181.808 138.401 181.416 138.28 180.921 138.28C180.464 138.28 180.1 138.378 179.829 138.574C179.558 138.77 179.423 139.027 179.423 139.344C179.423 139.596 179.502 139.806 179.661 139.974C179.829 140.133 180.034 140.263 180.277 140.366C180.529 140.459 180.874 140.567 181.313 140.688C181.864 140.837 182.312 140.987 182.657 141.136C183.002 141.276 183.296 141.491 183.539 141.78C183.791 142.069 183.922 142.447 183.931 142.914C183.931 143.334 183.814 143.712 183.581 144.048C183.348 144.384 183.016 144.65 182.587 144.846C182.167 145.033 181.682 145.126 181.131 145.126Z" fill="white" fill-opacity="0.85"/>
<path d="M326.285 135.105C325.295 135.105 324.385 134.875 323.555 134.415C322.735 133.955 322.08 133.315 321.59 132.495C321.11 131.665 320.87 130.735 320.87 129.705C320.87 128.675 321.11 127.75 321.59 126.93C322.08 126.11 322.735 125.47 323.555 125.01C324.385 124.55 325.295 124.32 326.285 124.32C327.275 124.32 328.18 124.55 329 125.01C329.83 125.47 330.48 126.11 330.95 126.93C331.43 127.75 331.67 128.675 331.67 129.705C331.67 130.735 331.43 131.665 330.95 132.495C330.47 133.315 329.82 133.955 329 134.415C328.18 134.875 327.275 135.105 326.285 135.105ZM326.285 132.765C327.125 132.765 327.795 132.485 328.295 131.925C328.805 131.365 329.06 130.625 329.06 129.705C329.06 128.775 328.805 128.035 328.295 127.485C327.795 126.925 327.125 126.645 326.285 126.645C325.435 126.645 324.755 126.92 324.245 127.47C323.745 128.02 323.495 128.765 323.495 129.705C323.495 130.635 323.745 131.38 324.245 131.94C324.755 132.49 325.435 132.765 326.285 132.765ZM339.202 135L335.662 130.35V135H333.097V124.47H335.662V129.09L339.172 124.47H342.187L338.107 129.63L342.337 135H339.202Z" fill="white"/>
</g>
<defs>
<clipPath id="clip0_12_434">
<rect width="393" height="852" fill="white"/>
</clipPath>
</defs>
</svg>
