<svg width="393" height="852" viewBox="0 0 393 852" fill="none" xmlns="http://www.w3.org/2000/svg">
<rect width="393" height="852" fill="black"/>
<rect x="29" y="744" width="336" height="47" rx="14" fill="white"/>
<path d="M168.955 760.96V775H165.535V760.96H168.955ZM178.233 763.72C179.54 763.72 180.58 764.147 181.353 765C182.14 765.84 182.533 767 182.533 768.48V775H179.133V768.94C179.133 768.193 178.94 767.613 178.553 767.2C178.167 766.787 177.647 766.58 176.993 766.58C176.34 766.58 175.82 766.787 175.433 767.2C175.047 767.613 174.853 768.193 174.853 768.94V775H171.433V763.84H174.853V765.32C175.2 764.827 175.667 764.44 176.253 764.16C176.84 763.867 177.5 763.72 178.233 763.72ZM186.63 762.68C186.03 762.68 185.537 762.507 185.15 762.16C184.777 761.8 184.59 761.36 184.59 760.84C184.59 760.307 184.777 759.867 185.15 759.52C185.537 759.16 186.03 758.98 186.63 758.98C187.217 758.98 187.697 759.16 188.07 759.52C188.457 759.867 188.65 760.307 188.65 760.84C188.65 761.36 188.457 761.8 188.07 762.16C187.697 762.507 187.217 762.68 186.63 762.68ZM188.33 763.84V775H184.91V763.84H188.33ZM190.128 769.42C190.128 768.26 190.362 767.247 190.828 766.38C191.308 765.513 191.968 764.847 192.808 764.38C193.662 763.913 194.635 763.68 195.728 763.68C197.128 763.68 198.295 764.047 199.228 764.78C200.175 765.513 200.795 766.547 201.088 767.88H197.448C197.142 767.027 196.548 766.6 195.668 766.6C195.042 766.6 194.542 766.847 194.168 767.34C193.795 767.82 193.608 768.513 193.608 769.42C193.608 770.327 193.795 771.027 194.168 771.52C194.542 772 195.042 772.24 195.668 772.24C196.548 772.24 197.142 771.813 197.448 770.96H201.088C200.795 772.267 200.175 773.293 199.228 774.04C198.282 774.787 197.115 775.16 195.728 775.16C194.635 775.16 193.662 774.927 192.808 774.46C191.968 773.993 191.308 773.327 190.828 772.46C190.362 771.593 190.128 770.58 190.128 769.42ZM204.638 762.68C204.038 762.68 203.544 762.507 203.158 762.16C202.784 761.8 202.598 761.36 202.598 760.84C202.598 760.307 202.784 759.867 203.158 759.52C203.544 759.16 204.038 758.98 204.638 758.98C205.224 758.98 205.704 759.16 206.078 759.52C206.464 759.867 206.658 760.307 206.658 760.84C206.658 761.36 206.464 761.8 206.078 762.16C205.704 762.507 205.224 762.68 204.638 762.68ZM206.338 763.84V775H202.918V763.84H206.338ZM208.136 769.4C208.136 768.253 208.35 767.247 208.776 766.38C209.216 765.513 209.81 764.847 210.556 764.38C211.303 763.913 212.136 763.68 213.056 763.68C213.843 763.68 214.53 763.84 215.116 764.16C215.716 764.48 216.176 764.9 216.496 765.42V763.84H219.916V775H216.496V773.42C216.163 773.94 215.696 774.36 215.096 774.68C214.51 775 213.823 775.16 213.036 775.16C212.13 775.16 211.303 774.927 210.556 774.46C209.81 773.98 209.216 773.307 208.776 772.44C208.35 771.56 208.136 770.547 208.136 769.4ZM216.496 769.42C216.496 768.567 216.256 767.893 215.776 767.4C215.31 766.907 214.736 766.66 214.056 766.66C213.376 766.66 212.796 766.907 212.316 767.4C211.85 767.88 211.616 768.547 211.616 769.4C211.616 770.253 211.85 770.933 212.316 771.44C212.796 771.933 213.376 772.18 214.056 772.18C214.736 772.18 215.31 771.933 215.776 771.44C216.256 770.947 216.496 770.273 216.496 769.42ZM225.81 765.7C226.21 765.087 226.71 764.607 227.31 764.26C227.91 763.9 228.577 763.72 229.31 763.72V767.34H228.37C227.517 767.34 226.877 767.527 226.45 767.9C226.024 768.26 225.81 768.9 225.81 769.82V775H222.39V763.84H225.81V765.7Z" fill="black"/>
<circle cx="201.5" cy="328.5" r="86.5" fill="#232323"/>
<rect width="393" height="72" fill="black"/>
<path d="M35.9187 45.105C35.1487 45.105 34.4587 44.98 33.8487 44.73C33.2387 44.48 32.7487 44.11 32.3787 43.62C32.0187 43.13 31.8287 42.54 31.8087 41.85H34.5387C34.5787 42.24 34.7137 42.54 34.9437 42.75C35.1737 42.95 35.4737 43.05 35.8437 43.05C36.2237 43.05 36.5237 42.965 36.7437 42.795C36.9637 42.615 37.0737 42.37 37.0737 42.06C37.0737 41.8 36.9837 41.585 36.8037 41.415C36.6337 41.245 36.4187 41.105 36.1587 40.995C35.9087 40.885 35.5487 40.76 35.0787 40.62C34.3987 40.41 33.8437 40.2 33.4137 39.99C32.9837 39.78 32.6137 39.47 32.3037 39.06C31.9937 38.65 31.8387 38.115 31.8387 37.455C31.8387 36.475 32.1937 35.71 32.9037 35.16C33.6137 34.6 34.5387 34.32 35.6787 34.32C36.8387 34.32 37.7737 34.6 38.4837 35.16C39.1937 35.71 39.5737 36.48 39.6237 37.47H36.8487C36.8287 37.13 36.7037 36.865 36.4737 36.675C36.2437 36.475 35.9487 36.375 35.5887 36.375C35.2787 36.375 35.0287 36.46 34.8387 36.63C34.6487 36.79 34.5537 37.025 34.5537 37.335C34.5537 37.675 34.7137 37.94 35.0337 38.13C35.3537 38.32 35.8537 38.525 36.5337 38.745C37.2137 38.975 37.7637 39.195 38.1837 39.405C38.6137 39.615 38.9837 39.92 39.2937 40.32C39.6037 40.72 39.7587 41.235 39.7587 41.865C39.7587 42.465 39.6037 43.01 39.2937 43.5C38.9937 43.99 38.5537 44.38 37.9737 44.67C37.3937 44.96 36.7087 45.105 35.9187 45.105ZM43.8572 34.47V40.77C43.8572 41.4 44.0122 41.885 44.3222 42.225C44.6322 42.565 45.0872 42.735 45.6872 42.735C46.2872 42.735 46.7472 42.565 47.0672 42.225C47.3872 41.885 47.5472 41.4 47.5472 40.77V34.47H50.1122V40.755C50.1122 41.695 49.9122 42.49 49.5122 43.14C49.1122 43.79 48.5722 44.28 47.8922 44.61C47.2222 44.94 46.4722 45.105 45.6422 45.105C44.8122 45.105 44.0672 44.945 43.4072 44.625C42.7572 44.295 42.2422 43.805 41.8622 43.155C41.4822 42.495 41.2922 41.695 41.2922 40.755V34.47H43.8572ZM58.4684 43.14H54.5384L53.9084 45H51.2234L55.0334 34.47H58.0034L61.8134 45H59.0984L58.4684 43.14ZM57.8084 41.16L56.5034 37.305L55.2134 41.16H57.8084ZM69.963 37.8C69.773 37.45 69.498 37.185 69.138 37.005C68.788 36.815 68.373 36.72 67.893 36.72C67.063 36.72 66.398 36.995 65.898 37.545C65.398 38.085 65.148 38.81 65.148 39.72C65.148 40.69 65.408 41.45 65.928 42C66.458 42.54 67.183 42.81 68.103 42.81C68.733 42.81 69.263 42.65 69.693 42.33C70.133 42.01 70.453 41.55 70.653 40.95H67.398V39.06H72.978V41.445C72.788 42.085 72.463 42.68 72.003 43.23C71.553 43.78 70.978 44.225 70.278 44.565C69.578 44.905 68.788 45.075 67.908 45.075C66.868 45.075 65.938 44.85 65.118 44.4C64.308 43.94 63.673 43.305 63.213 42.495C62.763 41.685 62.538 40.76 62.538 39.72C62.538 38.68 62.763 37.755 63.213 36.945C63.673 36.125 64.308 35.49 65.118 35.04C65.928 34.58 66.853 34.35 67.893 34.35C69.153 34.35 70.213 34.655 71.073 35.265C71.943 35.875 72.518 36.72 72.798 37.8H69.963ZM76.9638 36.525V38.655H80.3988V40.635H76.9638V42.945H80.8488V45H74.3988V34.47H80.8488V36.525H76.9638ZM91.934 45H89.369L85.079 38.505V45H82.514V34.47H85.079L89.369 40.995V34.47H91.934V45ZM97.7383 34.47C98.8483 34.47 99.8183 34.69 100.648 35.13C101.478 35.57 102.118 36.19 102.568 36.99C103.028 37.78 103.258 38.695 103.258 39.735C103.258 40.765 103.028 41.68 102.568 42.48C102.118 43.28 101.473 43.9 100.633 44.34C99.8033 44.78 98.8383 45 97.7383 45H93.7933V34.47H97.7383ZM97.5733 42.78C98.5433 42.78 99.2983 42.515 99.8383 41.985C100.378 41.455 100.648 40.705 100.648 39.735C100.648 38.765 100.378 38.01 99.8383 37.47C99.2983 36.93 98.5433 36.66 97.5733 36.66H96.3583V42.78H97.5733ZM111.247 43.14H107.317L106.687 45H104.002L107.812 34.47H110.782L114.592 45H111.877L111.247 43.14ZM110.587 41.16L109.282 37.305L107.992 41.16H110.587Z" fill="white"/>
<rect x="28" y="667" width="336" height="47" rx="14" fill="#232323"/>
<path d="M45.328 573.576C45.328 574.552 45.104 575.448 44.656 576.264C44.208 577.064 43.52 577.712 42.592 578.208C41.664 578.704 40.512 578.952 39.136 578.952H36.592V585H32.488V568.152H39.136C40.48 568.152 41.616 568.384 42.544 568.848C43.472 569.312 44.168 569.952 44.632 570.768C45.096 571.584 45.328 572.52 45.328 573.576ZM38.824 575.688C39.608 575.688 40.192 575.504 40.576 575.136C40.96 574.768 41.152 574.248 41.152 573.576C41.152 572.904 40.96 572.384 40.576 572.016C40.192 571.648 39.608 571.464 38.824 571.464H36.592V575.688H38.824ZM51.5686 573.84C52.0486 573.104 52.6486 572.528 53.3686 572.112C54.0886 571.68 54.8886 571.464 55.7686 571.464V575.808H54.6406C53.6166 575.808 52.8486 576.032 52.3366 576.48C51.8246 576.912 51.5686 577.68 51.5686 578.784V585H47.4646V571.608H51.5686V573.84ZM59.7942 570.216C59.0742 570.216 58.4822 570.008 58.0182 569.592C57.5702 569.16 57.3462 568.632 57.3462 568.008C57.3462 567.368 57.5702 566.84 58.0182 566.424C58.4822 565.992 59.0742 565.776 59.7942 565.776C60.4982 565.776 61.0742 565.992 61.5222 566.424C61.9862 566.84 62.2182 567.368 62.2182 568.008C62.2182 568.632 61.9862 569.16 61.5222 569.592C61.0742 570.008 60.4982 570.216 59.7942 570.216ZM61.8342 571.608V585H57.7302V571.608H61.8342ZM81.8963 571.464C83.5603 571.464 84.8803 571.968 85.8563 572.976C86.8483 573.984 87.3443 575.384 87.3443 577.176V585H83.2643V577.728C83.2643 576.864 83.0323 576.2 82.5683 575.736C82.1203 575.256 81.4963 575.016 80.6963 575.016C79.8963 575.016 79.2643 575.256 78.8003 575.736C78.3523 576.2 78.1283 576.864 78.1283 577.728V585H74.0483V577.728C74.0483 576.864 73.8163 576.2 73.3523 575.736C72.9043 575.256 72.2803 575.016 71.4803 575.016C70.6803 575.016 70.0483 575.256 69.5843 575.736C69.1363 576.2 68.9123 576.864 68.9123 577.728V585H64.8083V571.608H68.9123V573.288C69.3283 572.728 69.8723 572.288 70.5443 571.968C71.2163 571.632 71.9763 571.464 72.8243 571.464C73.8323 571.464 74.7283 571.68 75.5123 572.112C76.3123 572.544 76.9363 573.16 77.3843 573.96C77.8483 573.224 78.4803 572.624 79.2803 572.16C80.0803 571.696 80.9523 571.464 81.8963 571.464ZM102.839 578.088C102.839 578.472 102.815 578.872 102.767 579.288H93.4786C93.5426 580.12 93.8066 580.76 94.2706 581.208C94.7506 581.64 95.3346 581.856 96.0226 581.856C97.0466 581.856 97.7586 581.424 98.1586 580.56H102.527C102.303 581.44 101.895 582.232 101.303 582.936C100.727 583.64 99.9986 584.192 99.1186 584.592C98.2386 584.992 97.2546 585.192 96.1666 585.192C94.8546 585.192 93.6866 584.912 92.6626 584.352C91.6386 583.792 90.8386 582.992 90.2626 581.952C89.6866 580.912 89.3986 579.696 89.3986 578.304C89.3986 576.912 89.6786 575.696 90.2386 574.656C90.8146 573.616 91.6146 572.816 92.6386 572.256C93.6626 571.696 94.8386 571.416 96.1666 571.416C97.4626 571.416 98.6146 571.688 99.6226 572.232C100.631 572.776 101.415 573.552 101.975 574.56C102.551 575.568 102.839 576.744 102.839 578.088ZM98.6386 577.008C98.6386 576.304 98.3986 575.744 97.9186 575.328C97.4386 574.912 96.8386 574.704 96.1186 574.704C95.4306 574.704 94.8466 574.904 94.3666 575.304C93.9026 575.704 93.6146 576.272 93.5026 577.008H98.6386ZM107.068 570.216C106.348 570.216 105.756 570.008 105.292 569.592C104.844 569.16 104.62 568.632 104.62 568.008C104.62 567.368 104.844 566.84 105.292 566.424C105.756 565.992 106.348 565.776 107.068 565.776C107.772 565.776 108.348 565.992 108.796 566.424C109.26 566.84 109.492 567.368 109.492 568.008C109.492 568.632 109.26 569.16 108.796 569.592C108.348 570.008 107.772 570.216 107.068 570.216ZM109.108 571.608V585H105.004V571.608H109.108ZM116.186 573.84C116.666 573.104 117.266 572.528 117.986 572.112C118.706 571.68 119.506 571.464 120.386 571.464V575.808H119.258C118.234 575.808 117.466 576.032 116.954 576.48C116.442 576.912 116.186 577.68 116.186 578.784V585H112.082V571.608H116.186V573.84ZM128.443 585.192C127.131 585.192 125.947 584.912 124.891 584.352C123.851 583.792 123.027 582.992 122.419 581.952C121.827 580.912 121.531 579.696 121.531 578.304C121.531 576.928 121.835 575.72 122.443 574.68C123.051 573.624 123.883 572.816 124.939 572.256C125.995 571.696 127.179 571.416 128.491 571.416C129.803 571.416 130.987 571.696 132.043 572.256C133.099 572.816 133.931 573.624 134.539 574.68C135.147 575.72 135.451 576.928 135.451 578.304C135.451 579.68 135.139 580.896 134.515 581.952C133.907 582.992 133.067 583.792 131.995 584.352C130.939 584.912 129.755 585.192 128.443 585.192ZM128.443 581.64C129.227 581.64 129.891 581.352 130.435 580.776C130.995 580.2 131.275 579.376 131.275 578.304C131.275 577.232 131.003 576.408 130.459 575.832C129.931 575.256 129.275 574.968 128.491 574.968C127.691 574.968 127.027 575.256 126.499 575.832C125.971 576.392 125.707 577.216 125.707 578.304C125.707 579.376 125.963 580.2 126.475 580.776C127.003 581.352 127.659 581.64 128.443 581.64ZM142.045 581.208L139.381 588.096H136.765L138.157 581.208H142.045ZM153.709 573.504C154.109 572.88 154.661 572.376 155.365 571.992C156.069 571.608 156.893 571.416 157.837 571.416C158.941 571.416 159.941 571.696 160.837 572.256C161.733 572.816 162.437 573.616 162.949 574.656C163.477 575.696 163.741 576.904 163.741 578.28C163.741 579.656 163.477 580.872 162.949 581.928C162.437 582.968 161.733 583.776 160.837 584.352C159.941 584.912 158.941 585.192 157.837 585.192C156.909 585.192 156.085 585 155.365 584.616C154.661 584.232 154.109 583.736 153.709 583.128V591.384H149.605V571.608H153.709V573.504ZM159.565 578.28C159.565 577.256 159.277 576.456 158.701 575.88C158.141 575.288 157.445 574.992 156.613 574.992C155.797 574.992 155.101 575.288 154.525 575.88C153.965 576.472 153.685 577.28 153.685 578.304C153.685 579.328 153.965 580.136 154.525 580.728C155.101 581.32 155.797 581.616 156.613 581.616C157.429 581.616 158.125 581.32 158.701 580.728C159.277 580.12 159.565 579.304 159.565 578.28ZM169.998 573.84C170.478 573.104 171.078 572.528 171.798 572.112C172.518 571.68 173.318 571.464 174.198 571.464V575.808H173.07C172.046 575.808 171.278 576.032 170.766 576.48C170.254 576.912 169.998 577.68 169.998 578.784V585H165.894V571.608H169.998V573.84ZM188.784 578.088C188.784 578.472 188.76 578.872 188.712 579.288H179.424C179.488 580.12 179.752 580.76 180.216 581.208C180.696 581.64 181.28 581.856 181.968 581.856C182.992 581.856 183.704 581.424 184.104 580.56H188.472C188.248 581.44 187.84 582.232 187.248 582.936C186.672 583.64 185.944 584.192 185.064 584.592C184.184 584.992 183.2 585.192 182.112 585.192C180.8 585.192 179.632 584.912 178.608 584.352C177.584 583.792 176.784 582.992 176.208 581.952C175.632 580.912 175.344 579.696 175.344 578.304C175.344 576.912 175.624 575.696 176.184 574.656C176.76 573.616 177.56 572.816 178.584 572.256C179.608 571.696 180.784 571.416 182.112 571.416C183.408 571.416 184.56 571.688 185.568 572.232C186.576 572.776 187.36 573.552 187.92 574.56C188.496 575.568 188.784 576.744 188.784 578.088ZM184.584 577.008C184.584 576.304 184.344 575.744 183.864 575.328C183.384 574.912 182.784 574.704 182.064 574.704C181.376 574.704 180.792 574.904 180.312 575.304C179.848 575.704 179.56 576.272 179.448 577.008H184.584ZM190.133 578.304C190.133 576.912 190.413 575.696 190.973 574.656C191.549 573.616 192.341 572.816 193.349 572.256C194.373 571.696 195.541 571.416 196.853 571.416C198.533 571.416 199.933 571.856 201.053 572.736C202.189 573.616 202.933 574.856 203.285 576.456H198.917C198.549 575.432 197.837 574.92 196.781 574.92C196.029 574.92 195.429 575.216 194.981 575.808C194.533 576.384 194.309 577.216 194.309 578.304C194.309 579.392 194.533 580.232 194.981 580.824C195.429 581.4 196.029 581.688 196.781 581.688C197.837 581.688 198.549 581.176 198.917 580.152H203.285C202.933 581.72 202.189 582.952 201.053 583.848C199.917 584.744 198.517 585.192 196.853 585.192C195.541 585.192 194.373 584.912 193.349 584.352C192.341 583.792 191.549 582.992 190.973 581.952C190.413 580.912 190.133 579.696 190.133 578.304ZM207.544 570.216C206.824 570.216 206.232 570.008 205.768 569.592C205.32 569.16 205.096 568.632 205.096 568.008C205.096 567.368 205.32 566.84 205.768 566.424C206.232 565.992 206.824 565.776 207.544 565.776C208.248 565.776 208.824 565.992 209.272 566.424C209.736 566.84 209.968 567.368 209.968 568.008C209.968 568.632 209.736 569.16 209.272 569.592C208.824 570.008 208.248 570.216 207.544 570.216ZM209.584 571.608V585H205.48V571.608H209.584ZM218.006 585.192C216.838 585.192 215.798 584.992 214.886 584.592C213.974 584.192 213.254 583.648 212.726 582.96C212.198 582.256 211.902 581.472 211.838 580.608H215.894C215.942 581.072 216.158 581.448 216.542 581.736C216.926 582.024 217.398 582.168 217.958 582.168C218.47 582.168 218.862 582.072 219.134 581.88C219.422 581.672 219.566 581.408 219.566 581.088C219.566 580.704 219.366 580.424 218.966 580.248C218.566 580.056 217.918 579.848 217.022 579.624C216.062 579.4 215.262 579.168 214.622 578.928C213.982 578.672 213.43 578.28 212.966 577.752C212.502 577.208 212.27 576.48 212.27 575.568C212.27 574.8 212.478 574.104 212.894 573.48C213.326 572.84 213.95 572.336 214.766 571.968C215.598 571.6 216.582 571.416 217.718 571.416C219.398 571.416 220.718 571.832 221.678 572.664C222.654 573.496 223.214 574.6 223.358 575.976H219.566C219.502 575.512 219.294 575.144 218.942 574.872C218.606 574.6 218.158 574.464 217.598 574.464C217.118 574.464 216.75 574.56 216.494 574.752C216.238 574.928 216.11 575.176 216.11 575.496C216.11 575.88 216.31 576.168 216.71 576.36C217.126 576.552 217.766 576.744 218.63 576.936C219.622 577.192 220.43 577.448 221.054 577.704C221.678 577.944 222.222 578.344 222.686 578.904C223.166 579.448 223.414 580.184 223.43 581.112C223.43 581.896 223.206 582.6 222.758 583.224C222.326 583.832 221.694 584.312 220.862 584.664C220.046 585.016 219.094 585.192 218.006 585.192ZM225.125 578.28C225.125 576.904 225.381 575.696 225.893 574.656C226.421 573.616 227.133 572.816 228.029 572.256C228.925 571.696 229.925 571.416 231.029 571.416C231.973 571.416 232.797 571.608 233.501 571.992C234.221 572.376 234.773 572.88 235.157 573.504V571.608H239.261V585H235.157V583.104C234.757 583.728 234.197 584.232 233.477 584.616C232.773 585 231.949 585.192 231.005 585.192C229.917 585.192 228.925 584.912 228.029 584.352C227.133 583.776 226.421 582.968 225.893 581.928C225.381 580.872 225.125 579.656 225.125 578.28ZM235.157 578.304C235.157 577.28 234.869 576.472 234.293 575.88C233.733 575.288 233.045 574.992 232.229 574.992C231.413 574.992 230.717 575.288 230.141 575.88C229.581 576.456 229.301 577.256 229.301 578.28C229.301 579.304 229.581 580.12 230.141 580.728C230.717 581.32 231.413 581.616 232.229 581.616C233.045 581.616 233.733 581.32 234.293 580.728C234.869 580.136 235.157 579.328 235.157 578.304ZM259.318 571.464C260.982 571.464 262.302 571.968 263.278 572.976C264.27 573.984 264.766 575.384 264.766 577.176V585H260.686V577.728C260.686 576.864 260.454 576.2 259.99 575.736C259.542 575.256 258.918 575.016 258.118 575.016C257.318 575.016 256.686 575.256 256.222 575.736C255.774 576.2 255.55 576.864 255.55 577.728V585H251.47V577.728C251.47 576.864 251.238 576.2 250.774 575.736C250.326 575.256 249.702 575.016 248.902 575.016C248.102 575.016 247.47 575.256 247.006 575.736C246.558 576.2 246.334 576.864 246.334 577.728V585H242.23V571.608H246.334V573.288C246.75 572.728 247.294 572.288 247.966 571.968C248.638 571.632 249.398 571.464 250.246 571.464C251.254 571.464 252.15 571.68 252.934 572.112C253.734 572.544 254.358 573.16 254.806 573.96C255.27 573.224 255.902 572.624 256.702 572.16C257.502 571.696 258.374 571.464 259.318 571.464ZM273.732 585.192C272.42 585.192 271.236 584.912 270.18 584.352C269.14 583.792 268.316 582.992 267.708 581.952C267.116 580.912 266.82 579.696 266.82 578.304C266.82 576.928 267.124 575.72 267.732 574.68C268.34 573.624 269.172 572.816 270.228 572.256C271.284 571.696 272.468 571.416 273.78 571.416C275.092 571.416 276.276 571.696 277.332 572.256C278.388 572.816 279.22 573.624 279.828 574.68C280.436 575.72 280.74 576.928 280.74 578.304C280.74 579.68 280.428 580.896 279.804 581.952C279.196 582.992 278.356 583.792 277.284 584.352C276.228 584.912 275.044 585.192 273.732 585.192ZM273.732 581.64C274.516 581.64 275.18 581.352 275.724 580.776C276.284 580.2 276.564 579.376 276.564 578.304C276.564 577.232 276.292 576.408 275.748 575.832C275.22 575.256 274.564 574.968 273.78 574.968C272.98 574.968 272.316 575.256 271.788 575.832C271.26 576.392 270.996 577.216 270.996 578.304C270.996 579.376 271.252 580.2 271.764 580.776C272.292 581.352 272.948 581.64 273.732 581.64ZM288.366 585.192C287.198 585.192 286.158 584.992 285.246 584.592C284.334 584.192 283.614 583.648 283.086 582.96C282.558 582.256 282.262 581.472 282.198 580.608H286.254C286.302 581.072 286.518 581.448 286.902 581.736C287.286 582.024 287.758 582.168 288.318 582.168C288.83 582.168 289.222 582.072 289.494 581.88C289.782 581.672 289.926 581.408 289.926 581.088C289.926 580.704 289.726 580.424 289.326 580.248C288.926 580.056 288.278 579.848 287.382 579.624C286.422 579.4 285.622 579.168 284.982 578.928C284.342 578.672 283.79 578.28 283.326 577.752C282.862 577.208 282.63 576.48 282.63 575.568C282.63 574.8 282.838 574.104 283.254 573.48C283.686 572.84 284.31 572.336 285.126 571.968C285.958 571.6 286.942 571.416 288.078 571.416C289.758 571.416 291.078 571.832 292.038 572.664C293.014 573.496 293.574 574.6 293.718 575.976H289.926C289.862 575.512 289.654 575.144 289.302 574.872C288.966 574.6 288.518 574.464 287.958 574.464C287.478 574.464 287.11 574.56 286.854 574.752C286.598 574.928 286.47 575.176 286.47 575.496C286.47 575.88 286.67 576.168 287.07 576.36C287.486 576.552 288.126 576.744 288.99 576.936C289.982 577.192 290.79 577.448 291.414 577.704C292.038 577.944 292.582 578.344 293.046 578.904C293.526 579.448 293.774 580.184 293.79 581.112C293.79 581.896 293.566 582.6 293.118 583.224C292.686 583.832 292.054 584.312 291.222 584.664C290.406 585.016 289.454 585.192 288.366 585.192ZM37.936 621.192C36.768 621.192 35.728 620.992 34.816 620.592C33.904 620.192 33.184 619.648 32.656 618.96C32.128 618.256 31.832 617.472 31.768 616.608H35.824C35.872 617.072 36.088 617.448 36.472 617.736C36.856 618.024 37.328 618.168 37.888 618.168C38.4 618.168 38.792 618.072 39.064 617.88C39.352 617.672 39.496 617.408 39.496 617.088C39.496 616.704 39.296 616.424 38.896 616.248C38.496 616.056 37.848 615.848 36.952 615.624C35.992 615.4 35.192 615.168 34.552 614.928C33.912 614.672 33.36 614.28 32.896 613.752C32.432 613.208 32.2 612.48 32.2 611.568C32.2 610.8 32.408 610.104 32.824 609.48C33.256 608.84 33.88 608.336 34.696 607.968C35.528 607.6 36.512 607.416 37.648 607.416C39.328 607.416 40.648 607.832 41.608 608.664C42.584 609.496 43.144 610.6 43.288 611.976H39.496C39.432 611.512 39.224 611.144 38.872 610.872C38.536 610.6 38.088 610.464 37.528 610.464C37.048 610.464 36.68 610.56 36.424 610.752C36.168 610.928 36.04 611.176 36.04 611.496C36.04 611.88 36.24 612.168 36.64 612.36C37.056 612.552 37.696 612.744 38.56 612.936C39.552 613.192 40.36 613.448 40.984 613.704C41.608 613.944 42.152 614.344 42.616 614.904C43.096 615.448 43.344 616.184 43.36 617.112C43.36 617.896 43.136 618.6 42.688 619.224C42.256 619.832 41.624 620.312 40.792 620.664C39.976 621.016 39.024 621.192 37.936 621.192ZM45.0548 614.28C45.0548 612.904 45.3108 611.696 45.8228 610.656C46.3508 609.616 47.0628 608.816 47.9588 608.256C48.8548 607.696 49.8548 607.416 50.9588 607.416C51.9028 607.416 52.7268 607.608 53.4308 607.992C54.1508 608.376 54.7028 608.88 55.0868 609.504V607.608H59.1908V621H55.0868V619.104C54.6868 619.728 54.1268 620.232 53.4068 620.616C52.7028 621 51.8788 621.192 50.9348 621.192C49.8468 621.192 48.8548 620.912 47.9588 620.352C47.0628 619.776 46.3508 618.968 45.8228 617.928C45.3108 616.872 45.0548 615.656 45.0548 614.28ZM55.0868 614.304C55.0868 613.28 54.7988 612.472 54.2228 611.88C53.6628 611.288 52.9748 610.992 52.1588 610.992C51.3428 610.992 50.6468 611.288 50.0708 611.88C49.5108 612.456 49.2308 613.256 49.2308 614.28C49.2308 615.304 49.5108 616.12 50.0708 616.728C50.6468 617.32 51.3428 617.616 52.1588 617.616C52.9748 617.616 53.6628 617.32 54.2228 616.728C54.7988 616.136 55.0868 615.328 55.0868 614.304ZM66.2639 609.504C66.6479 608.88 67.1999 608.376 67.9199 607.992C68.6399 607.608 69.4639 607.416 70.3919 607.416C71.4959 607.416 72.4959 607.696 73.3919 608.256C74.2879 608.816 74.9919 609.616 75.5039 610.656C76.0319 611.696 76.2959 612.904 76.2959 614.28C76.2959 615.656 76.0319 616.872 75.5039 617.928C74.9919 618.968 74.2879 619.776 73.3919 620.352C72.4959 620.912 71.4959 621.192 70.3919 621.192C69.4479 621.192 68.6239 621.008 67.9199 620.64C67.2159 620.256 66.6639 619.752 66.2639 619.128V621H62.1599V603.24H66.2639V609.504ZM72.1199 614.28C72.1199 613.256 71.8319 612.456 71.2559 611.88C70.6959 611.288 69.9999 610.992 69.1679 610.992C68.3519 610.992 67.6559 611.288 67.0799 611.88C66.5199 612.472 66.2399 613.28 66.2399 614.304C66.2399 615.328 66.5199 616.136 67.0799 616.728C67.6559 617.32 68.3519 617.616 69.1679 617.616C69.9839 617.616 70.6799 617.32 71.2559 616.728C71.8319 616.12 72.1199 615.304 72.1199 614.28ZM91.0729 614.088C91.0729 614.472 91.0489 614.872 91.0009 615.288H81.7129C81.7769 616.12 82.0409 616.76 82.5049 617.208C82.9849 617.64 83.5689 617.856 84.2569 617.856C85.2809 617.856 85.9929 617.424 86.3929 616.56H90.7609C90.5369 617.44 90.1289 618.232 89.5369 618.936C88.9609 619.64 88.2329 620.192 87.3529 620.592C86.4729 620.992 85.4889 621.192 84.4009 621.192C83.0889 621.192 81.9209 620.912 80.8969 620.352C79.8729 619.792 79.0729 618.992 78.4969 617.952C77.9209 616.912 77.6329 615.696 77.6329 614.304C77.6329 612.912 77.9129 611.696 78.4729 610.656C79.0489 609.616 79.8489 608.816 80.8729 608.256C81.8969 607.696 83.0729 607.416 84.4009 607.416C85.6969 607.416 86.8489 607.688 87.8569 608.232C88.8649 608.776 89.6489 609.552 90.2089 610.56C90.7849 611.568 91.0729 612.744 91.0729 614.088ZM86.8729 613.008C86.8729 612.304 86.6329 611.744 86.1529 611.328C85.6729 610.912 85.0729 610.704 84.3529 610.704C83.6649 610.704 83.0809 610.904 82.6009 611.304C82.1369 611.704 81.8489 612.272 81.7369 613.008H86.8729ZM97.342 609.84C97.822 609.104 98.422 608.528 99.142 608.112C99.862 607.68 100.662 607.464 101.542 607.464V611.808H100.414C99.39 611.808 98.622 612.032 98.11 612.48C97.598 612.912 97.342 613.68 97.342 614.784V621H93.238V607.608H97.342V609.84ZM114.038 621.192C112.87 621.192 111.83 620.992 110.918 620.592C110.006 620.192 109.286 619.648 108.758 618.96C108.23 618.256 107.934 617.472 107.87 616.608H111.926C111.974 617.072 112.19 617.448 112.574 617.736C112.958 618.024 113.43 618.168 113.99 618.168C114.502 618.168 114.894 618.072 115.166 617.88C115.454 617.672 115.598 617.408 115.598 617.088C115.598 616.704 115.398 616.424 114.998 616.248C114.598 616.056 113.95 615.848 113.054 615.624C112.094 615.4 111.294 615.168 110.654 614.928C110.014 614.672 109.462 614.28 108.998 613.752C108.534 613.208 108.302 612.48 108.302 611.568C108.302 610.8 108.51 610.104 108.926 609.48C109.358 608.84 109.982 608.336 110.798 607.968C111.63 607.6 112.614 607.416 113.75 607.416C115.43 607.416 116.75 607.832 117.71 608.664C118.686 609.496 119.246 610.6 119.39 611.976H115.598C115.534 611.512 115.326 611.144 114.974 610.872C114.638 610.6 114.19 610.464 113.63 610.464C113.15 610.464 112.782 610.56 112.526 610.752C112.27 610.928 112.142 611.176 112.142 611.496C112.142 611.88 112.342 612.168 112.742 612.36C113.158 612.552 113.798 612.744 114.662 612.936C115.654 613.192 116.462 613.448 117.086 613.704C117.71 613.944 118.254 614.344 118.718 614.904C119.198 615.448 119.446 616.184 119.462 617.112C119.462 617.896 119.238 618.6 118.79 619.224C118.358 619.832 117.726 620.312 116.894 620.664C116.078 621.016 115.126 621.192 114.038 621.192ZM134.596 614.088C134.596 614.472 134.572 614.872 134.524 615.288H125.236C125.3 616.12 125.564 616.76 126.028 617.208C126.508 617.64 127.092 617.856 127.78 617.856C128.804 617.856 129.516 617.424 129.916 616.56H134.284C134.06 617.44 133.652 618.232 133.06 618.936C132.484 619.64 131.756 620.192 130.876 620.592C129.996 620.992 129.012 621.192 127.924 621.192C126.612 621.192 125.444 620.912 124.42 620.352C123.396 619.792 122.596 618.992 122.02 617.952C121.444 616.912 121.156 615.696 121.156 614.304C121.156 612.912 121.436 611.696 121.996 610.656C122.572 609.616 123.372 608.816 124.396 608.256C125.42 607.696 126.596 607.416 127.924 607.416C129.22 607.416 130.372 607.688 131.38 608.232C132.388 608.776 133.172 609.552 133.732 610.56C134.308 611.568 134.596 612.744 134.596 614.088ZM130.396 613.008C130.396 612.304 130.156 611.744 129.676 611.328C129.196 610.912 128.596 610.704 127.876 610.704C127.188 610.704 126.604 610.904 126.124 611.304C125.66 611.704 125.372 612.272 125.26 613.008H130.396ZM149.985 607.608V621H145.881V619.176C145.465 619.768 144.897 620.248 144.177 620.616C143.473 620.968 142.689 621.144 141.825 621.144C140.801 621.144 139.897 620.92 139.113 620.472C138.329 620.008 137.721 619.344 137.289 618.48C136.857 617.616 136.641 616.6 136.641 615.432V607.608H140.721V614.88C140.721 615.776 140.953 616.472 141.417 616.968C141.881 617.464 142.505 617.712 143.289 617.712C144.089 617.712 144.721 617.464 145.185 616.968C145.649 616.472 145.881 615.776 145.881 614.88V607.608H149.985ZM166.179 607.464C167.747 607.464 168.995 607.976 169.923 609C170.867 610.008 171.339 611.4 171.339 613.176V621H167.259V613.728C167.259 612.832 167.027 612.136 166.563 611.64C166.099 611.144 165.475 610.896 164.691 610.896C163.907 610.896 163.283 611.144 162.819 611.64C162.355 612.136 162.123 612.832 162.123 613.728V621H158.019V607.608H162.123V609.384C162.539 608.792 163.099 608.328 163.803 607.992C164.507 607.64 165.299 607.464 166.179 607.464ZM180.287 621.192C178.975 621.192 177.791 620.912 176.735 620.352C175.695 619.792 174.871 618.992 174.263 617.952C173.671 616.912 173.375 615.696 173.375 614.304C173.375 612.928 173.679 611.72 174.287 610.68C174.895 609.624 175.727 608.816 176.783 608.256C177.839 607.696 179.023 607.416 180.335 607.416C181.647 607.416 182.831 607.696 183.887 608.256C184.943 608.816 185.775 609.624 186.383 610.68C186.991 611.72 187.295 612.928 187.295 614.304C187.295 615.68 186.983 616.896 186.359 617.952C185.751 618.992 184.911 619.792 183.839 620.352C182.783 620.912 181.599 621.192 180.287 621.192ZM180.287 617.64C181.071 617.64 181.735 617.352 182.279 616.776C182.839 616.2 183.119 615.376 183.119 614.304C183.119 613.232 182.847 612.408 182.303 611.832C181.775 611.256 181.119 610.968 180.335 610.968C179.535 610.968 178.871 611.256 178.343 611.832C177.815 612.392 177.551 613.216 177.551 614.304C177.551 615.376 177.807 616.2 178.319 616.776C178.847 617.352 179.503 617.64 180.287 617.64ZM206.56 607.464C208.224 607.464 209.544 607.968 210.52 608.976C211.512 609.984 212.008 611.384 212.008 613.176V621H207.928V613.728C207.928 612.864 207.696 612.2 207.232 611.736C206.784 611.256 206.16 611.016 205.36 611.016C204.56 611.016 203.928 611.256 203.464 611.736C203.016 612.2 202.792 612.864 202.792 613.728V621H198.712V613.728C198.712 612.864 198.48 612.2 198.016 611.736C197.568 611.256 196.944 611.016 196.144 611.016C195.344 611.016 194.712 611.256 194.248 611.736C193.8 612.2 193.576 612.864 193.576 613.728V621H189.472V607.608H193.576V609.288C193.992 608.728 194.536 608.288 195.208 607.968C195.88 607.632 196.64 607.464 197.488 607.464C198.496 607.464 199.392 607.68 200.176 608.112C200.976 608.544 201.6 609.16 202.048 609.96C202.512 609.224 203.144 608.624 203.944 608.16C204.744 607.696 205.616 607.464 206.56 607.464ZM227.503 614.088C227.503 614.472 227.479 614.872 227.431 615.288H218.143C218.207 616.12 218.471 616.76 218.935 617.208C219.415 617.64 219.999 617.856 220.687 617.856C221.711 617.856 222.423 617.424 222.823 616.56H227.191C226.967 617.44 226.559 618.232 225.967 618.936C225.391 619.64 224.663 620.192 223.783 620.592C222.903 620.992 221.919 621.192 220.831 621.192C219.519 621.192 218.351 620.912 217.327 620.352C216.303 619.792 215.503 618.992 214.927 617.952C214.351 616.912 214.063 615.696 214.063 614.304C214.063 612.912 214.343 611.696 214.903 610.656C215.479 609.616 216.279 608.816 217.303 608.256C218.327 607.696 219.503 607.416 220.831 607.416C222.127 607.416 223.279 607.688 224.287 608.232C225.295 608.776 226.079 609.552 226.639 610.56C227.215 611.568 227.503 612.744 227.503 614.088ZM223.303 613.008C223.303 612.304 223.063 611.744 222.583 611.328C222.103 610.912 221.503 610.704 220.783 610.704C220.095 610.704 219.511 610.904 219.031 611.304C218.567 611.704 218.279 612.272 218.167 613.008H223.303Z" fill="white"/>
</svg>
