<svg width="393" height="852" viewBox="0 0 393 852" fill="none" xmlns="http://www.w3.org/2000/svg">
<rect width="393" height="852" fill="white"/>
<rect x="29" y="762" width="336" height="47" rx="14" fill="black"/>
<path d="M163.513 778.96V781.7H157.793V784.66H162.073V787.32H157.793V793H154.373V778.96H163.513ZM167.03 780.68C166.43 780.68 165.937 780.507 165.55 780.16C165.177 779.8 164.99 779.36 164.99 778.84C164.99 778.307 165.177 777.867 165.55 777.52C165.937 777.16 166.43 776.98 167.03 776.98C167.617 776.98 168.097 777.16 168.47 777.52C168.857 777.867 169.05 778.307 169.05 778.84C169.05 779.36 168.857 779.8 168.47 780.16C168.097 780.507 167.617 780.68 167.03 780.68ZM168.73 781.84V793H165.31V781.84H168.73ZM178.009 781.72C179.315 781.72 180.355 782.147 181.129 783C181.915 783.84 182.309 785 182.309 786.48V793H178.909V786.94C178.909 786.193 178.715 785.613 178.329 785.2C177.942 784.787 177.422 784.58 176.769 784.58C176.115 784.58 175.595 784.787 175.209 785.2C174.822 785.613 174.629 786.193 174.629 786.94V793H171.209V781.84H174.629V783.32C174.975 782.827 175.442 782.44 176.029 782.16C176.615 781.867 177.275 781.72 178.009 781.72ZM184.005 787.4C184.005 786.253 184.219 785.247 184.645 784.38C185.085 783.513 185.679 782.847 186.425 782.38C187.172 781.913 188.005 781.68 188.925 781.68C189.712 781.68 190.399 781.84 190.985 782.16C191.585 782.48 192.045 782.9 192.365 783.42V781.84H195.785V793H192.365V791.42C192.032 791.94 191.565 792.36 190.965 792.68C190.379 793 189.692 793.16 188.905 793.16C187.999 793.16 187.172 792.927 186.425 792.46C185.679 791.98 185.085 791.307 184.645 790.44C184.219 789.56 184.005 788.547 184.005 787.4ZM192.365 787.42C192.365 786.567 192.125 785.893 191.645 785.4C191.179 784.907 190.605 784.66 189.925 784.66C189.245 784.66 188.665 784.907 188.185 785.4C187.719 785.88 187.485 786.547 187.485 787.4C187.485 788.253 187.719 788.933 188.185 789.44C188.665 789.933 189.245 790.18 189.925 790.18C190.605 790.18 191.179 789.933 191.645 789.44C192.125 788.947 192.365 788.273 192.365 787.42ZM201.68 778.2V793H198.26V778.2H201.68ZM205.878 780.68C205.278 780.68 204.785 780.507 204.398 780.16C204.025 779.8 203.838 779.36 203.838 778.84C203.838 778.307 204.025 777.867 204.398 777.52C204.785 777.16 205.278 776.98 205.878 776.98C206.465 776.98 206.945 777.16 207.318 777.52C207.705 777.867 207.898 778.307 207.898 778.84C207.898 779.36 207.705 779.8 207.318 780.16C206.945 780.507 206.465 780.68 205.878 780.68ZM207.578 781.84V793H204.158V781.84H207.578ZM213.256 790.18H218.096V793H209.436V790.28L214.076 784.66H209.476V781.84H217.996V784.56L213.256 790.18ZM219.298 787.4C219.298 786.253 219.512 785.247 219.938 784.38C220.378 783.513 220.972 782.847 221.718 782.38C222.465 781.913 223.298 781.68 224.218 781.68C225.005 781.68 225.692 781.84 226.278 782.16C226.878 782.48 227.338 782.9 227.658 783.42V781.84H231.078V793H227.658V791.42C227.325 791.94 226.858 792.36 226.258 792.68C225.672 793 224.985 793.16 224.198 793.16C223.292 793.16 222.465 792.927 221.718 792.46C220.972 791.98 220.378 791.307 219.938 790.44C219.512 789.56 219.298 788.547 219.298 787.4ZM227.658 787.42C227.658 786.567 227.418 785.893 226.938 785.4C226.472 784.907 225.898 784.66 225.218 784.66C224.538 784.66 223.958 784.907 223.478 785.4C223.012 785.88 222.778 786.547 222.778 787.4C222.778 788.253 223.012 788.933 223.478 789.44C223.958 789.933 224.538 790.18 225.218 790.18C225.898 790.18 226.472 789.933 226.938 789.44C227.418 788.947 227.658 788.273 227.658 787.42ZM236.973 783.7C237.373 783.087 237.873 782.607 238.473 782.26C239.073 781.9 239.739 781.72 240.473 781.72V785.34H239.533C238.679 785.34 238.039 785.527 237.613 785.9C237.186 786.26 236.973 786.9 236.973 787.82V793H233.553V781.84H236.973V783.7Z" fill="white"/>
<rect width="393" height="72" fill="white"/>
<path d="M35.9187 45.105C35.1487 45.105 34.4587 44.98 33.8487 44.73C33.2387 44.48 32.7487 44.11 32.3787 43.62C32.0187 43.13 31.8287 42.54 31.8087 41.85H34.5387C34.5787 42.24 34.7137 42.54 34.9437 42.75C35.1737 42.95 35.4737 43.05 35.8437 43.05C36.2237 43.05 36.5237 42.965 36.7437 42.795C36.9637 42.615 37.0737 42.37 37.0737 42.06C37.0737 41.8 36.9837 41.585 36.8037 41.415C36.6337 41.245 36.4187 41.105 36.1587 40.995C35.9087 40.885 35.5487 40.76 35.0787 40.62C34.3987 40.41 33.8437 40.2 33.4137 39.99C32.9837 39.78 32.6137 39.47 32.3037 39.06C31.9937 38.65 31.8387 38.115 31.8387 37.455C31.8387 36.475 32.1937 35.71 32.9037 35.16C33.6137 34.6 34.5387 34.32 35.6787 34.32C36.8387 34.32 37.7737 34.6 38.4837 35.16C39.1937 35.71 39.5737 36.48 39.6237 37.47H36.8487C36.8287 37.13 36.7037 36.865 36.4737 36.675C36.2437 36.475 35.9487 36.375 35.5887 36.375C35.2787 36.375 35.0287 36.46 34.8387 36.63C34.6487 36.79 34.5537 37.025 34.5537 37.335C34.5537 37.675 34.7137 37.94 35.0337 38.13C35.3537 38.32 35.8537 38.525 36.5337 38.745C37.2137 38.975 37.7637 39.195 38.1837 39.405C38.6137 39.615 38.9837 39.92 39.2937 40.32C39.6037 40.72 39.7587 41.235 39.7587 41.865C39.7587 42.465 39.6037 43.01 39.2937 43.5C38.9937 43.99 38.5537 44.38 37.9737 44.67C37.3937 44.96 36.7087 45.105 35.9187 45.105ZM43.8572 34.47V40.77C43.8572 41.4 44.0122 41.885 44.3222 42.225C44.6322 42.565 45.0872 42.735 45.6872 42.735C46.2872 42.735 46.7472 42.565 47.0672 42.225C47.3872 41.885 47.5472 41.4 47.5472 40.77V34.47H50.1122V40.755C50.1122 41.695 49.9122 42.49 49.5122 43.14C49.1122 43.79 48.5722 44.28 47.8922 44.61C47.2222 44.94 46.4722 45.105 45.6422 45.105C44.8122 45.105 44.0672 44.945 43.4072 44.625C42.7572 44.295 42.2422 43.805 41.8622 43.155C41.4822 42.495 41.2922 41.695 41.2922 40.755V34.47H43.8572ZM58.4684 43.14H54.5384L53.9084 45H51.2234L55.0334 34.47H58.0034L61.8134 45H59.0984L58.4684 43.14ZM57.8084 41.16L56.5034 37.305L55.2134 41.16H57.8084ZM69.963 37.8C69.773 37.45 69.498 37.185 69.138 37.005C68.788 36.815 68.373 36.72 67.893 36.72C67.063 36.72 66.398 36.995 65.898 37.545C65.398 38.085 65.148 38.81 65.148 39.72C65.148 40.69 65.408 41.45 65.928 42C66.458 42.54 67.183 42.81 68.103 42.81C68.733 42.81 69.263 42.65 69.693 42.33C70.133 42.01 70.453 41.55 70.653 40.95H67.398V39.06H72.978V41.445C72.788 42.085 72.463 42.68 72.003 43.23C71.553 43.78 70.978 44.225 70.278 44.565C69.578 44.905 68.788 45.075 67.908 45.075C66.868 45.075 65.938 44.85 65.118 44.4C64.308 43.94 63.673 43.305 63.213 42.495C62.763 41.685 62.538 40.76 62.538 39.72C62.538 38.68 62.763 37.755 63.213 36.945C63.673 36.125 64.308 35.49 65.118 35.04C65.928 34.58 66.853 34.35 67.893 34.35C69.153 34.35 70.213 34.655 71.073 35.265C71.943 35.875 72.518 36.72 72.798 37.8H69.963ZM76.9638 36.525V38.655H80.3988V40.635H76.9638V42.945H80.8488V45H74.3988V34.47H80.8488V36.525H76.9638ZM91.934 45H89.369L85.079 38.505V45H82.514V34.47H85.079L89.369 40.995V34.47H91.934V45ZM97.7383 34.47C98.8483 34.47 99.8183 34.69 100.648 35.13C101.478 35.57 102.118 36.19 102.568 36.99C103.028 37.78 103.258 38.695 103.258 39.735C103.258 40.765 103.028 41.68 102.568 42.48C102.118 43.28 101.473 43.9 100.633 44.34C99.8033 44.78 98.8383 45 97.7383 45H93.7933V34.47H97.7383ZM97.5733 42.78C98.5433 42.78 99.2983 42.515 99.8383 41.985C100.378 41.455 100.648 40.705 100.648 39.735C100.648 38.765 100.378 38.01 99.8383 37.47C99.2983 36.93 98.5433 36.66 97.5733 36.66H96.3583V42.78H97.5733ZM111.247 43.14H107.317L106.687 45H104.002L107.812 34.47H110.782L114.592 45H111.877L111.247 43.14ZM110.587 41.16L109.282 37.305L107.992 41.16H110.587Z" fill="black"/>
<circle cx="186.5" cy="206.5" r="86.5" fill="#D9D9D9"/>
<rect x="32" y="390" width="336" height="47" rx="14" fill="#E9E9E9"/>
<rect x="32" y="467" width="336" height="47" rx="14" fill="#E9E9E9"/>
<path d="M44.4799 333.024H38.1919L37.1839 336H32.8879L38.9839 319.152H43.7359L49.8319 336H45.4879L44.4799 333.024ZM43.4239 329.856L41.3359 323.688L39.2719 329.856H43.4239ZM56.7752 322.416C57.7192 322.416 58.5432 322.608 59.2472 322.992C59.9672 323.376 60.5192 323.88 60.9032 324.504V322.608H65.0072V335.976C65.0072 337.208 64.7592 338.32 64.2632 339.312C63.7832 340.32 63.0392 341.12 62.0312 341.712C61.0392 342.304 59.7992 342.6 58.3112 342.6C56.3272 342.6 54.7192 342.128 53.4872 341.184C52.2552 340.256 51.5512 338.992 51.3752 337.392H55.4312C55.5592 337.904 55.8632 338.304 56.3432 338.592C56.8232 338.896 57.4152 339.048 58.1192 339.048C58.9672 339.048 59.6392 338.8 60.1352 338.304C60.6472 337.824 60.9032 337.048 60.9032 335.976V334.08C60.5032 334.704 59.9512 335.216 59.2472 335.616C58.5432 336 57.7192 336.192 56.7752 336.192C55.6712 336.192 54.6712 335.912 53.7752 335.352C52.8792 334.776 52.1672 333.968 51.6392 332.928C51.1272 331.872 50.8712 330.656 50.8712 329.28C50.8712 327.904 51.1272 326.696 51.6392 325.656C52.1672 324.616 52.8792 323.816 53.7752 323.256C54.6712 322.696 55.6712 322.416 56.7752 322.416ZM60.9032 329.304C60.9032 328.28 60.6152 327.472 60.0392 326.88C59.4792 326.288 58.7912 325.992 57.9752 325.992C57.1592 325.992 56.4632 326.288 55.8872 326.88C55.3272 327.456 55.0472 328.256 55.0472 329.28C55.0472 330.304 55.3272 331.12 55.8872 331.728C56.4632 332.32 57.1592 332.616 57.9752 332.616C58.7912 332.616 59.4792 332.32 60.0392 331.728C60.6152 331.136 60.9032 330.328 60.9032 329.304ZM74.0723 336.192C72.7603 336.192 71.5763 335.912 70.5203 335.352C69.4803 334.792 68.6563 333.992 68.0483 332.952C67.4563 331.912 67.1603 330.696 67.1603 329.304C67.1603 327.928 67.4643 326.72 68.0723 325.68C68.6803 324.624 69.5123 323.816 70.5683 323.256C71.6243 322.696 72.8083 322.416 74.1203 322.416C75.4323 322.416 76.6163 322.696 77.6723 323.256C78.7283 323.816 79.5603 324.624 80.1683 325.68C80.7763 326.72 81.0803 327.928 81.0803 329.304C81.0803 330.68 80.7683 331.896 80.1443 332.952C79.5363 333.992 78.6963 334.792 77.6243 335.352C76.5683 335.912 75.3843 336.192 74.0723 336.192ZM74.0723 332.64C74.8563 332.64 75.5203 332.352 76.0643 331.776C76.6243 331.2 76.9043 330.376 76.9043 329.304C76.9043 328.232 76.6323 327.408 76.0883 326.832C75.5603 326.256 74.9043 325.968 74.1203 325.968C73.3203 325.968 72.6563 326.256 72.1283 326.832C71.6003 327.392 71.3363 328.216 71.3363 329.304C71.3363 330.376 71.5923 331.2 72.1043 331.776C72.6323 332.352 73.2883 332.64 74.0723 332.64ZM87.3615 324.84C87.8415 324.104 88.4415 323.528 89.1615 323.112C89.8815 322.68 90.6815 322.464 91.5615 322.464V326.808H90.4335C89.4095 326.808 88.6415 327.032 88.1295 327.48C87.6175 327.912 87.3615 328.68 87.3615 329.784V336H83.2575V322.608H87.3615V324.84ZM92.7072 329.28C92.7072 327.904 92.9632 326.696 93.4752 325.656C94.0032 324.616 94.7152 323.816 95.6112 323.256C96.5072 322.696 97.5072 322.416 98.6112 322.416C99.5552 322.416 100.379 322.608 101.083 322.992C101.803 323.376 102.355 323.88 102.739 324.504V322.608H106.843V336H102.739V334.104C102.339 334.728 101.779 335.232 101.059 335.616C100.355 336 99.5312 336.192 98.5872 336.192C97.4992 336.192 96.5072 335.912 95.6112 335.352C94.7152 334.776 94.0032 333.968 93.4752 332.928C92.9632 331.872 92.7072 330.656 92.7072 329.28ZM102.739 329.304C102.739 328.28 102.451 327.472 101.875 326.88C101.315 326.288 100.627 325.992 99.8112 325.992C98.9952 325.992 98.2992 326.288 97.7232 326.88C97.1632 327.456 96.8832 328.256 96.8832 329.28C96.8832 330.304 97.1632 331.12 97.7232 331.728C98.2992 332.32 98.9952 332.616 99.8112 332.616C100.627 332.616 101.315 332.32 101.875 331.728C102.451 331.136 102.739 330.328 102.739 329.304ZM114.082 329.28C114.082 327.904 114.338 326.696 114.85 325.656C115.378 324.616 116.09 323.816 116.986 323.256C117.882 322.696 118.882 322.416 119.986 322.416C120.866 322.416 121.666 322.6 122.386 322.968C123.122 323.336 123.698 323.832 124.114 324.456V318.24H128.218V336H124.114V334.08C123.73 334.72 123.178 335.232 122.458 335.616C121.754 336 120.93 336.192 119.986 336.192C118.882 336.192 117.882 335.912 116.986 335.352C116.09 334.776 115.378 333.968 114.85 332.928C114.338 331.872 114.082 330.656 114.082 329.28ZM124.114 329.304C124.114 328.28 123.826 327.472 123.25 326.88C122.69 326.288 122.002 325.992 121.186 325.992C120.37 325.992 119.674 326.288 119.098 326.88C118.538 327.456 118.258 328.256 118.258 329.28C118.258 330.304 118.538 331.12 119.098 331.728C119.674 332.32 120.37 332.616 121.186 332.616C122.002 332.616 122.69 332.32 123.25 331.728C123.826 331.136 124.114 330.328 124.114 329.304ZM143.811 329.088C143.811 329.472 143.787 329.872 143.739 330.288H134.451C134.515 331.12 134.779 331.76 135.243 332.208C135.723 332.64 136.307 332.856 136.995 332.856C138.019 332.856 138.731 332.424 139.131 331.56H143.499C143.275 332.44 142.867 333.232 142.275 333.936C141.699 334.64 140.971 335.192 140.091 335.592C139.211 335.992 138.227 336.192 137.139 336.192C135.827 336.192 134.659 335.912 133.635 335.352C132.611 334.792 131.811 333.992 131.235 332.952C130.659 331.912 130.371 330.696 130.371 329.304C130.371 327.912 130.651 326.696 131.211 325.656C131.787 324.616 132.587 323.816 133.611 323.256C134.635 322.696 135.811 322.416 137.139 322.416C138.435 322.416 139.587 322.688 140.595 323.232C141.603 323.776 142.387 324.552 142.947 325.56C143.523 326.568 143.811 327.744 143.811 329.088ZM139.611 328.008C139.611 327.304 139.371 326.744 138.891 326.328C138.411 325.912 137.811 325.704 137.091 325.704C136.403 325.704 135.819 325.904 135.339 326.304C134.875 326.704 134.587 327.272 134.475 328.008H139.611ZM152.696 326.016H150.488V336H146.384V326.016H144.896V322.608H146.384V322.224C146.384 320.576 146.856 319.328 147.8 318.48C148.744 317.616 150.128 317.184 151.952 317.184C152.256 317.184 152.48 317.192 152.624 317.208V320.688C151.84 320.64 151.288 320.752 150.968 321.024C150.648 321.296 150.488 321.784 150.488 322.488V322.608H152.696V326.016ZM156.689 321.216C155.969 321.216 155.377 321.008 154.913 320.592C154.465 320.16 154.241 319.632 154.241 319.008C154.241 318.368 154.465 317.84 154.913 317.424C155.377 316.992 155.969 316.776 156.689 316.776C157.393 316.776 157.969 316.992 158.417 317.424C158.881 317.84 159.113 318.368 159.113 319.008C159.113 319.632 158.881 320.16 158.417 320.592C157.969 321.008 157.393 321.216 156.689 321.216ZM158.729 322.608V336H154.625V322.608H158.729ZM169.863 322.464C171.431 322.464 172.679 322.976 173.607 324C174.551 325.008 175.023 326.4 175.023 328.176V336H170.943V328.728C170.943 327.832 170.711 327.136 170.247 326.64C169.783 326.144 169.159 325.896 168.375 325.896C167.591 325.896 166.967 326.144 166.503 326.64C166.039 327.136 165.807 327.832 165.807 328.728V336H161.703V322.608H165.807V324.384C166.223 323.792 166.783 323.328 167.487 322.992C168.191 322.64 168.983 322.464 169.863 322.464ZM177.059 329.28C177.059 327.904 177.315 326.696 177.827 325.656C178.355 324.616 179.067 323.816 179.963 323.256C180.859 322.696 181.859 322.416 182.963 322.416C183.907 322.416 184.731 322.608 185.435 322.992C186.155 323.376 186.707 323.88 187.091 324.504V322.608H191.195V336H187.091V334.104C186.691 334.728 186.131 335.232 185.411 335.616C184.707 336 183.883 336.192 182.939 336.192C181.851 336.192 180.859 335.912 179.963 335.352C179.067 334.776 178.355 333.968 177.827 332.928C177.315 331.872 177.059 330.656 177.059 329.28ZM187.091 329.304C187.091 328.28 186.803 327.472 186.227 326.88C185.667 326.288 184.979 325.992 184.163 325.992C183.347 325.992 182.651 326.288 182.075 326.88C181.515 327.456 181.235 328.256 181.235 329.28C181.235 330.304 181.515 331.12 182.075 331.728C182.651 332.32 183.347 332.616 184.163 332.616C184.979 332.616 185.667 332.32 186.227 331.728C186.803 331.136 187.091 330.328 187.091 329.304ZM204.698 336.192C203.53 336.192 202.49 335.992 201.578 335.592C200.666 335.192 199.946 334.648 199.418 333.96C198.89 333.256 198.594 332.472 198.53 331.608H202.586C202.634 332.072 202.85 332.448 203.234 332.736C203.618 333.024 204.09 333.168 204.65 333.168C205.162 333.168 205.554 333.072 205.826 332.88C206.114 332.672 206.258 332.408 206.258 332.088C206.258 331.704 206.058 331.424 205.658 331.248C205.258 331.056 204.61 330.848 203.714 330.624C202.754 330.4 201.954 330.168 201.314 329.928C200.674 329.672 200.122 329.28 199.658 328.752C199.194 328.208 198.962 327.48 198.962 326.568C198.962 325.8 199.17 325.104 199.586 324.48C200.018 323.84 200.642 323.336 201.458 322.968C202.29 322.6 203.274 322.416 204.41 322.416C206.09 322.416 207.41 322.832 208.37 323.664C209.346 324.496 209.906 325.6 210.05 326.976H206.258C206.194 326.512 205.986 326.144 205.634 325.872C205.298 325.6 204.85 325.464 204.29 325.464C203.81 325.464 203.442 325.56 203.186 325.752C202.93 325.928 202.802 326.176 202.802 326.496C202.802 326.88 203.002 327.168 203.402 327.36C203.818 327.552 204.458 327.744 205.322 327.936C206.314 328.192 207.122 328.448 207.746 328.704C208.37 328.944 208.914 329.344 209.378 329.904C209.858 330.448 210.106 331.184 210.122 332.112C210.122 332.896 209.898 333.6 209.45 334.224C209.018 334.832 208.386 335.312 207.554 335.664C206.738 336.016 205.786 336.192 204.698 336.192ZM225.857 322.608V336H221.753V334.176C221.337 334.768 220.769 335.248 220.049 335.616C219.345 335.968 218.561 336.144 217.697 336.144C216.673 336.144 215.769 335.92 214.985 335.472C214.201 335.008 213.593 334.344 213.161 333.48C212.729 332.616 212.513 331.6 212.513 330.432V322.608H216.593V329.88C216.593 330.776 216.825 331.472 217.289 331.968C217.753 332.464 218.377 332.712 219.161 332.712C219.961 332.712 220.593 332.464 221.057 331.968C221.521 331.472 221.753 330.776 221.753 329.88V322.608H225.857ZM227.988 329.28C227.988 327.904 228.244 326.696 228.756 325.656C229.284 324.616 229.996 323.816 230.892 323.256C231.788 322.696 232.788 322.416 233.892 322.416C234.836 322.416 235.66 322.608 236.364 322.992C237.084 323.376 237.636 323.88 238.02 324.504V322.608H242.124V336H238.02V334.104C237.62 334.728 237.06 335.232 236.34 335.616C235.636 336 234.812 336.192 233.868 336.192C232.78 336.192 231.788 335.912 230.892 335.352C229.996 334.776 229.284 333.968 228.756 332.928C228.244 331.872 227.988 330.656 227.988 329.28ZM238.02 329.304C238.02 328.28 237.732 327.472 237.156 326.88C236.596 326.288 235.908 325.992 235.092 325.992C234.276 325.992 233.58 326.288 233.004 326.88C232.444 327.456 232.164 328.256 232.164 329.28C232.164 330.304 232.444 331.12 233.004 331.728C233.58 332.32 234.276 332.616 235.092 332.616C235.908 332.616 236.596 332.32 237.156 331.728C237.732 331.136 238.02 330.328 238.02 329.304ZM255.627 336.192C254.459 336.192 253.419 335.992 252.507 335.592C251.595 335.192 250.875 334.648 250.347 333.96C249.819 333.256 249.523 332.472 249.459 331.608H253.515C253.563 332.072 253.779 332.448 254.163 332.736C254.547 333.024 255.019 333.168 255.579 333.168C256.091 333.168 256.483 333.072 256.755 332.88C257.043 332.672 257.187 332.408 257.187 332.088C257.187 331.704 256.987 331.424 256.587 331.248C256.187 331.056 255.539 330.848 254.643 330.624C253.683 330.4 252.883 330.168 252.243 329.928C251.603 329.672 251.051 329.28 250.587 328.752C250.123 328.208 249.891 327.48 249.891 326.568C249.891 325.8 250.099 325.104 250.515 324.48C250.947 323.84 251.571 323.336 252.387 322.968C253.219 322.6 254.203 322.416 255.339 322.416C257.019 322.416 258.339 322.832 259.299 323.664C260.275 324.496 260.835 325.6 260.979 326.976H257.187C257.123 326.512 256.915 326.144 256.563 325.872C256.227 325.6 255.779 325.464 255.219 325.464C254.739 325.464 254.371 325.56 254.115 325.752C253.859 325.928 253.731 326.176 253.731 326.496C253.731 326.88 253.931 327.168 254.331 327.36C254.747 327.552 255.387 327.744 256.251 327.936C257.243 328.192 258.051 328.448 258.675 328.704C259.299 328.944 259.843 329.344 260.307 329.904C260.787 330.448 261.035 331.184 261.051 332.112C261.051 332.896 260.827 333.6 260.379 334.224C259.947 334.832 259.315 335.312 258.483 335.664C257.667 336.016 256.715 336.192 255.627 336.192ZM276.186 329.088C276.186 329.472 276.162 329.872 276.114 330.288H266.826C266.89 331.12 267.154 331.76 267.618 332.208C268.098 332.64 268.682 332.856 269.37 332.856C270.394 332.856 271.106 332.424 271.506 331.56H275.874C275.65 332.44 275.242 333.232 274.65 333.936C274.074 334.64 273.346 335.192 272.466 335.592C271.586 335.992 270.602 336.192 269.514 336.192C268.202 336.192 267.034 335.912 266.01 335.352C264.986 334.792 264.186 333.992 263.61 332.952C263.034 331.912 262.746 330.696 262.746 329.304C262.746 327.912 263.026 326.696 263.586 325.656C264.162 324.616 264.962 323.816 265.986 323.256C267.01 322.696 268.186 322.416 269.514 322.416C270.81 322.416 271.962 322.688 272.97 323.232C273.978 323.776 274.762 324.552 275.322 325.56C275.898 326.568 276.186 327.744 276.186 329.088ZM271.986 328.008C271.986 327.304 271.746 326.744 271.266 326.328C270.786 325.912 270.186 325.704 269.466 325.704C268.778 325.704 268.194 325.904 267.714 326.304C267.25 326.704 266.962 327.272 266.85 328.008H271.986ZM286.511 322.464C288.079 322.464 289.327 322.976 290.255 324C291.199 325.008 291.671 326.4 291.671 328.176V336H287.591V328.728C287.591 327.832 287.359 327.136 286.895 326.64C286.431 326.144 285.807 325.896 285.023 325.896C284.239 325.896 283.615 326.144 283.151 326.64C282.687 327.136 282.455 327.832 282.455 328.728V336H278.351V322.608H282.455V324.384C282.871 323.792 283.431 323.328 284.135 322.992C284.839 322.64 285.631 322.464 286.511 322.464ZM302.755 322.464C304.291 322.464 305.523 322.976 306.451 324C307.379 325.008 307.843 326.4 307.843 328.176V336H303.763V328.728C303.763 327.832 303.531 327.136 303.067 326.64C302.603 326.144 301.979 325.896 301.195 325.896C300.411 325.896 299.787 326.144 299.323 326.64C298.859 327.136 298.627 327.832 298.627 328.728V336H294.523V318.24H298.627V324.408C299.043 323.816 299.611 323.344 300.331 322.992C301.051 322.64 301.859 322.464 302.755 322.464ZM309.879 329.28C309.879 327.904 310.135 326.696 310.647 325.656C311.175 324.616 311.887 323.816 312.783 323.256C313.679 322.696 314.679 322.416 315.783 322.416C316.727 322.416 317.551 322.608 318.255 322.992C318.975 323.376 319.527 323.88 319.911 324.504V322.608H324.015V336H319.911V334.104C319.511 334.728 318.951 335.232 318.231 335.616C317.527 336 316.703 336.192 315.759 336.192C314.671 336.192 313.679 335.912 312.783 335.352C311.887 334.776 311.175 333.968 310.647 332.928C310.135 331.872 309.879 330.656 309.879 329.28ZM319.911 329.304C319.911 328.28 319.623 327.472 319.047 326.88C318.487 326.288 317.799 325.992 316.983 325.992C316.167 325.992 315.471 326.288 314.895 326.88C314.335 327.456 314.055 328.256 314.055 329.28C314.055 330.304 314.335 331.12 314.895 331.728C315.471 332.32 316.167 332.616 316.983 332.616C317.799 332.616 318.487 332.32 319.047 331.728C319.623 331.136 319.911 330.328 319.911 329.304Z" fill="black"/>
<path d="M36.172 384.098C35.528 384.098 34.9493 383.986 34.436 383.762C33.932 383.529 33.5353 383.211 33.246 382.81C32.9567 382.399 32.8073 381.928 32.798 381.396H34.156C34.2027 381.853 34.3893 382.241 34.716 382.558C35.052 382.866 35.5373 383.02 36.172 383.02C36.7787 383.02 37.2547 382.871 37.6 382.572C37.9547 382.264 38.132 381.872 38.132 381.396C38.132 381.023 38.0293 380.719 37.824 380.486C37.6187 380.253 37.362 380.075 37.054 379.954C36.746 379.833 36.3307 379.702 35.808 379.562C35.164 379.394 34.646 379.226 34.254 379.058C33.8713 378.89 33.54 378.629 33.26 378.274C32.9893 377.91 32.854 377.425 32.854 376.818C32.854 376.286 32.9893 375.815 33.26 375.404C33.5307 374.993 33.9087 374.676 34.394 374.452C34.8887 374.228 35.4533 374.116 36.088 374.116C37.0027 374.116 37.7493 374.345 38.328 374.802C38.916 375.259 39.2473 375.866 39.322 376.622H37.922C37.8753 376.249 37.6793 375.922 37.334 375.642C36.9887 375.353 36.5313 375.208 35.962 375.208C35.43 375.208 34.996 375.348 34.66 375.628C34.324 375.899 34.156 376.281 34.156 376.776C34.156 377.131 34.254 377.42 34.45 377.644C34.6553 377.868 34.9027 378.041 35.192 378.162C35.4907 378.274 35.906 378.405 36.438 378.554C37.082 378.731 37.6 378.909 37.992 379.086C38.384 379.254 38.72 379.52 39 379.884C39.28 380.239 39.42 380.724 39.42 381.34C39.42 381.816 39.294 382.264 39.042 382.684C38.79 383.104 38.4167 383.445 37.922 383.706C37.4273 383.967 36.844 384.098 36.172 384.098ZM48.2948 379.87C48.2948 380.113 48.2808 380.369 48.2528 380.64H42.1208C42.1675 381.396 42.4241 381.989 42.8908 382.418C43.3668 382.838 43.9408 383.048 44.6128 383.048C45.1635 383.048 45.6208 382.922 45.9848 382.67C46.3581 382.409 46.6195 382.063 46.7688 381.634H48.1408C47.9355 382.371 47.5248 382.973 46.9088 383.44C46.2928 383.897 45.5275 384.126 44.6128 384.126C43.8848 384.126 43.2315 383.963 42.6528 383.636C42.0835 383.309 41.6355 382.847 41.3088 382.25C40.9821 381.643 40.8188 380.943 40.8188 380.15C40.8188 379.357 40.9775 378.661 41.2948 378.064C41.6121 377.467 42.0555 377.009 42.6248 376.692C43.2035 376.365 43.8661 376.202 44.6128 376.202C45.3408 376.202 45.9848 376.361 46.5448 376.678C47.1048 376.995 47.5341 377.434 47.8328 377.994C48.1408 378.545 48.2948 379.17 48.2948 379.87ZM46.9788 379.604C46.9788 379.119 46.8715 378.703 46.6568 378.358C46.4421 378.003 46.1481 377.737 45.7748 377.56C45.4108 377.373 45.0048 377.28 44.5568 377.28C43.9128 377.28 43.3621 377.485 42.9048 377.896C42.4568 378.307 42.2001 378.876 42.1348 379.604H46.9788ZM53.7144 376.188C54.6478 376.188 55.4038 376.473 55.9824 377.042C56.5611 377.602 56.8504 378.414 56.8504 379.478V384H55.5904V379.66C55.5904 378.895 55.3991 378.311 55.0164 377.91C54.6338 377.499 54.1111 377.294 53.4484 377.294C52.7764 377.294 52.2398 377.504 51.8384 377.924C51.4464 378.344 51.2504 378.955 51.2504 379.758V384H49.9764V376.328H51.2504V377.42C51.5024 377.028 51.8431 376.725 52.2724 376.51C52.7111 376.295 53.1918 376.188 53.7144 376.188ZM62.7395 376.188C63.3182 376.188 63.8408 376.314 64.3075 376.566C64.7742 376.809 65.1382 377.177 65.3995 377.672C65.6702 378.167 65.8055 378.769 65.8055 379.478V384H64.5455V379.66C64.5455 378.895 64.3542 378.311 63.9715 377.91C63.5888 377.499 63.0662 377.294 62.4035 377.294C61.7315 377.294 61.1948 377.504 60.7935 377.924C60.4015 378.344 60.2055 378.955 60.2055 379.758V384H58.9315V373.64H60.2055V377.42C60.4575 377.028 60.8028 376.725 61.2415 376.51C61.6895 376.295 62.1888 376.188 62.7395 376.188ZM67.4106 380.136C67.4106 379.352 67.5693 378.666 67.8866 378.078C68.2039 377.481 68.6379 377.019 69.1886 376.692C69.7486 376.365 70.3693 376.202 71.0506 376.202C71.7226 376.202 72.3059 376.347 72.8006 376.636C73.2953 376.925 73.6639 377.289 73.9066 377.728V376.328H75.1946V384H73.9066V382.572C73.6546 383.02 73.2766 383.393 72.7726 383.692C72.2779 383.981 71.6993 384.126 71.0366 384.126C70.3553 384.126 69.7393 383.958 69.1886 383.622C68.6379 383.286 68.2039 382.815 67.8866 382.208C67.5693 381.601 67.4106 380.911 67.4106 380.136ZM73.9066 380.15C73.9066 379.571 73.7899 379.067 73.5566 378.638C73.3233 378.209 73.0059 377.882 72.6046 377.658C72.2126 377.425 71.7786 377.308 71.3026 377.308C70.8266 377.308 70.3926 377.42 70.0006 377.644C69.6086 377.868 69.2959 378.195 69.0626 378.624C68.8293 379.053 68.7126 379.557 68.7126 380.136C68.7126 380.724 68.8293 381.237 69.0626 381.676C69.2959 382.105 69.6086 382.437 70.0006 382.67C70.3926 382.894 70.8266 383.006 71.3026 383.006C71.7786 383.006 72.2126 382.894 72.6046 382.67C73.0059 382.437 73.3233 382.105 73.5566 381.676C73.7899 381.237 73.9066 380.729 73.9066 380.15Z" fill="black"/>
<path d="M32.602 456.114C32.602 455.162 32.8167 454.308 33.246 453.552C33.6753 452.787 34.2587 452.189 34.996 451.76C35.7427 451.331 36.5687 451.116 37.474 451.116C38.538 451.116 39.4667 451.373 40.26 451.886C41.0533 452.399 41.632 453.127 41.996 454.07H40.47C40.1993 453.482 39.8073 453.029 39.294 452.712C38.79 452.395 38.1833 452.236 37.474 452.236C36.7927 452.236 36.1813 452.395 35.64 452.712C35.0987 453.029 34.674 453.482 34.366 454.07C34.058 454.649 33.904 455.33 33.904 456.114C33.904 456.889 34.058 457.57 34.366 458.158C34.674 458.737 35.0987 459.185 35.64 459.502C36.1813 459.819 36.7927 459.978 37.474 459.978C38.1833 459.978 38.79 459.824 39.294 459.516C39.8073 459.199 40.1993 458.746 40.47 458.158H41.996C41.632 459.091 41.0533 459.815 40.26 460.328C39.4667 460.832 38.538 461.084 37.474 461.084C36.5687 461.084 35.7427 460.874 34.996 460.454C34.2587 460.025 33.6753 459.432 33.246 458.676C32.8167 457.92 32.602 457.066 32.602 456.114ZM47.2385 461.126C46.5198 461.126 45.8665 460.963 45.2785 460.636C44.6998 460.309 44.2425 459.847 43.9065 459.25C43.5798 458.643 43.4165 457.943 43.4165 457.15C43.4165 456.366 43.5845 455.675 43.9205 455.078C44.2658 454.471 44.7325 454.009 45.3205 453.692C45.9085 453.365 46.5665 453.202 47.2945 453.202C48.0225 453.202 48.6805 453.365 49.2685 453.692C49.8565 454.009 50.3185 454.467 50.6545 455.064C50.9998 455.661 51.1725 456.357 51.1725 457.15C51.1725 457.943 50.9951 458.643 50.6405 459.25C50.2951 459.847 49.8238 460.309 49.2265 460.636C48.6291 460.963 47.9665 461.126 47.2385 461.126ZM47.2385 460.006C47.6958 460.006 48.1251 459.899 48.5265 459.684C48.9278 459.469 49.2498 459.147 49.4925 458.718C49.7445 458.289 49.8705 457.766 49.8705 457.15C49.8705 456.534 49.7491 456.011 49.5065 455.582C49.2638 455.153 48.9465 454.835 48.5545 454.63C48.1625 454.415 47.7378 454.308 47.2805 454.308C46.8138 454.308 46.3845 454.415 45.9925 454.63C45.6098 454.835 45.3018 455.153 45.0685 455.582C44.8351 456.011 44.7185 456.534 44.7185 457.15C44.7185 457.775 44.8305 458.303 45.0545 458.732C45.2878 459.161 45.5958 459.483 45.9785 459.698C46.3611 459.903 46.7811 460.006 47.2385 460.006ZM56.5855 453.188C57.5189 453.188 58.2749 453.473 58.8535 454.042C59.4322 454.602 59.7215 455.414 59.7215 456.478V461H58.4615V456.66C58.4615 455.895 58.2702 455.311 57.8875 454.91C57.5049 454.499 56.9822 454.294 56.3195 454.294C55.6475 454.294 55.1109 454.504 54.7095 454.924C54.3175 455.344 54.1215 455.955 54.1215 456.758V461H52.8475V453.328H54.1215V454.42C54.3735 454.028 54.7142 453.725 55.1435 453.51C55.5822 453.295 56.0629 453.188 56.5855 453.188ZM64.9246 454.378H63.3146V461H62.0406V454.378H61.0466V453.328H62.0406V452.782C62.0406 451.923 62.2599 451.298 62.6986 450.906C63.1466 450.505 63.8606 450.304 64.8406 450.304V451.368C64.2806 451.368 63.8839 451.48 63.6506 451.704C63.4266 451.919 63.3146 452.278 63.3146 452.782V453.328H64.9246V454.378ZM67.068 452.082C66.8254 452.082 66.62 451.998 66.452 451.83C66.284 451.662 66.2 451.457 66.2 451.214C66.2 450.971 66.284 450.766 66.452 450.598C66.62 450.43 66.8254 450.346 67.068 450.346C67.3014 450.346 67.4974 450.43 67.656 450.598C67.824 450.766 67.908 450.971 67.908 451.214C67.908 451.457 67.824 451.662 67.656 451.83C67.4974 451.998 67.3014 452.082 67.068 452.082ZM67.684 453.328V461H66.41V453.328H67.684ZM71.1293 454.574C71.3533 454.135 71.6707 453.795 72.0813 453.552C72.5013 453.309 73.01 453.188 73.6073 453.188V454.504H73.2713C71.8433 454.504 71.1293 455.279 71.1293 456.828V461H69.8553V453.328H71.1293V454.574ZM84.304 453.188C84.9013 453.188 85.4333 453.314 85.9 453.566C86.3667 453.809 86.7353 454.177 87.006 454.672C87.2767 455.167 87.412 455.769 87.412 456.478V461H86.152V456.66C86.152 455.895 85.9607 455.311 85.578 454.91C85.2047 454.499 84.696 454.294 84.052 454.294C83.3893 454.294 82.862 454.509 82.47 454.938C82.078 455.358 81.882 455.969 81.882 456.772V461H80.622V456.66C80.622 455.895 80.4307 455.311 80.048 454.91C79.6747 454.499 79.166 454.294 78.522 454.294C77.8593 454.294 77.332 454.509 76.94 454.938C76.548 455.358 76.352 455.969 76.352 456.772V461H75.078V453.328H76.352V454.434C76.604 454.033 76.94 453.725 77.36 453.51C77.7893 453.295 78.2607 453.188 78.774 453.188C79.418 453.188 79.9873 453.333 80.482 453.622C80.9767 453.911 81.3453 454.336 81.588 454.896C81.8027 454.355 82.1573 453.935 82.652 453.636C83.1467 453.337 83.6973 453.188 84.304 453.188ZM96.5018 456.87C96.5018 457.113 96.4878 457.369 96.4598 457.64H90.3278C90.3745 458.396 90.6312 458.989 91.0978 459.418C91.5738 459.838 92.1478 460.048 92.8198 460.048C93.3705 460.048 93.8278 459.922 94.1918 459.67C94.5652 459.409 94.8265 459.063 94.9758 458.634H96.3478C96.1425 459.371 95.7318 459.973 95.1158 460.44C94.4998 460.897 93.7345 461.126 92.8198 461.126C92.0918 461.126 91.4385 460.963 90.8598 460.636C90.2905 460.309 89.8425 459.847 89.5158 459.25C89.1892 458.643 89.0258 457.943 89.0258 457.15C89.0258 456.357 89.1845 455.661 89.5018 455.064C89.8192 454.467 90.2625 454.009 90.8318 453.692C91.4105 453.365 92.0732 453.202 92.8198 453.202C93.5478 453.202 94.1918 453.361 94.7518 453.678C95.3118 453.995 95.7412 454.434 96.0398 454.994C96.3478 455.545 96.5018 456.17 96.5018 456.87ZM95.1858 456.604C95.1858 456.119 95.0785 455.703 94.8638 455.358C94.6492 455.003 94.3552 454.737 93.9818 454.56C93.6178 454.373 93.2118 454.28 92.7638 454.28C92.1198 454.28 91.5692 454.485 91.1118 454.896C90.6638 455.307 90.4072 455.876 90.3418 456.604H95.1858ZM104.632 461.126C104.044 461.126 103.517 461.028 103.05 460.832C102.583 460.627 102.215 460.347 101.944 459.992C101.673 459.628 101.524 459.213 101.496 458.746H102.812C102.849 459.129 103.027 459.441 103.344 459.684C103.671 459.927 104.095 460.048 104.618 460.048C105.103 460.048 105.486 459.941 105.766 459.726C106.046 459.511 106.186 459.241 106.186 458.914C106.186 458.578 106.037 458.331 105.738 458.172C105.439 458.004 104.977 457.841 104.352 457.682C103.783 457.533 103.316 457.383 102.952 457.234C102.597 457.075 102.289 456.847 102.028 456.548C101.776 456.24 101.65 455.839 101.65 455.344C101.65 454.952 101.767 454.593 102 454.266C102.233 453.939 102.565 453.683 102.994 453.496C103.423 453.3 103.913 453.202 104.464 453.202C105.313 453.202 105.999 453.417 106.522 453.846C107.045 454.275 107.325 454.863 107.362 455.61H106.088C106.06 455.209 105.897 454.887 105.598 454.644C105.309 454.401 104.917 454.28 104.422 454.28C103.965 454.28 103.601 454.378 103.33 454.574C103.059 454.77 102.924 455.027 102.924 455.344C102.924 455.596 103.003 455.806 103.162 455.974C103.33 456.133 103.535 456.263 103.778 456.366C104.03 456.459 104.375 456.567 104.814 456.688C105.365 456.837 105.813 456.987 106.158 457.136C106.503 457.276 106.797 457.491 107.04 457.78C107.292 458.069 107.423 458.447 107.432 458.914C107.432 459.334 107.315 459.712 107.082 460.048C106.849 460.384 106.517 460.65 106.088 460.846C105.668 461.033 105.183 461.126 104.632 461.126ZM116.034 453.328V461H114.76V459.866C114.518 460.258 114.177 460.566 113.738 460.79C113.309 461.005 112.833 461.112 112.31 461.112C111.713 461.112 111.176 460.991 110.7 460.748C110.224 460.496 109.846 460.123 109.566 459.628C109.296 459.133 109.16 458.531 109.16 457.822V453.328H110.42V457.654C110.42 458.41 110.612 458.993 110.994 459.404C111.377 459.805 111.9 460.006 112.562 460.006C113.244 460.006 113.78 459.796 114.172 459.376C114.564 458.956 114.76 458.345 114.76 457.542V453.328H116.034ZM117.709 457.136C117.709 456.352 117.868 455.666 118.185 455.078C118.503 454.481 118.937 454.019 119.487 453.692C120.047 453.365 120.668 453.202 121.349 453.202C122.021 453.202 122.605 453.347 123.099 453.636C123.594 453.925 123.963 454.289 124.205 454.728V453.328H125.493V461H124.205V459.572C123.953 460.02 123.575 460.393 123.071 460.692C122.577 460.981 121.998 461.126 121.335 461.126C120.654 461.126 120.038 460.958 119.487 460.622C118.937 460.286 118.503 459.815 118.185 459.208C117.868 458.601 117.709 457.911 117.709 457.136ZM124.205 457.15C124.205 456.571 124.089 456.067 123.855 455.638C123.622 455.209 123.305 454.882 122.903 454.658C122.511 454.425 122.077 454.308 121.601 454.308C121.125 454.308 120.691 454.42 120.299 454.644C119.907 454.868 119.595 455.195 119.361 455.624C119.128 456.053 119.011 456.557 119.011 457.136C119.011 457.724 119.128 458.237 119.361 458.676C119.595 459.105 119.907 459.437 120.299 459.67C120.691 459.894 121.125 460.006 121.601 460.006C122.077 460.006 122.511 459.894 122.903 459.67C123.305 459.437 123.622 459.105 123.855 458.676C124.089 458.237 124.205 457.729 124.205 457.15ZM134.095 461.126C133.507 461.126 132.979 461.028 132.513 460.832C132.046 460.627 131.677 460.347 131.407 459.992C131.136 459.628 130.987 459.213 130.959 458.746H132.275C132.312 459.129 132.489 459.441 132.807 459.684C133.133 459.927 133.558 460.048 134.081 460.048C134.566 460.048 134.949 459.941 135.229 459.726C135.509 459.511 135.649 459.241 135.649 458.914C135.649 458.578 135.499 458.331 135.201 458.172C134.902 458.004 134.44 457.841 133.815 457.682C133.245 457.533 132.779 457.383 132.415 457.234C132.06 457.075 131.752 456.847 131.491 456.548C131.239 456.24 131.113 455.839 131.113 455.344C131.113 454.952 131.229 454.593 131.463 454.266C131.696 453.939 132.027 453.683 132.457 453.496C132.886 453.3 133.376 453.202 133.927 453.202C134.776 453.202 135.462 453.417 135.985 453.846C136.507 454.275 136.787 454.863 136.825 455.61H135.551C135.523 455.209 135.359 454.887 135.061 454.644C134.771 454.401 134.379 454.28 133.885 454.28C133.427 454.28 133.063 454.378 132.793 454.574C132.522 454.77 132.387 455.027 132.387 455.344C132.387 455.596 132.466 455.806 132.625 455.974C132.793 456.133 132.998 456.263 133.241 456.366C133.493 456.459 133.838 456.567 134.277 456.688C134.827 456.837 135.275 456.987 135.621 457.136C135.966 457.276 136.26 457.491 136.503 457.78C136.755 458.069 136.885 458.447 136.895 458.914C136.895 459.334 136.778 459.712 136.545 460.048C136.311 460.384 135.98 460.65 135.551 460.846C135.131 461.033 134.645 461.126 134.095 461.126ZM145.693 456.87C145.693 457.113 145.679 457.369 145.651 457.64H139.519C139.566 458.396 139.823 458.989 140.289 459.418C140.765 459.838 141.339 460.048 142.011 460.048C142.562 460.048 143.019 459.922 143.383 459.67C143.757 459.409 144.018 459.063 144.167 458.634H145.539C145.334 459.371 144.923 459.973 144.307 460.44C143.691 460.897 142.926 461.126 142.011 461.126C141.283 461.126 140.63 460.963 140.051 460.636C139.482 460.309 139.034 459.847 138.707 459.25C138.381 458.643 138.217 457.943 138.217 457.15C138.217 456.357 138.376 455.661 138.693 455.064C139.011 454.467 139.454 454.009 140.023 453.692C140.602 453.365 141.265 453.202 142.011 453.202C142.739 453.202 143.383 453.361 143.943 453.678C144.503 453.995 144.933 454.434 145.231 454.994C145.539 455.545 145.693 456.17 145.693 456.87ZM144.377 456.604C144.377 456.119 144.27 455.703 144.055 455.358C143.841 455.003 143.547 454.737 143.173 454.56C142.809 454.373 142.403 454.28 141.955 454.28C141.311 454.28 140.761 454.485 140.303 454.896C139.855 455.307 139.599 455.876 139.533 456.604H144.377ZM151.113 453.188C152.046 453.188 152.802 453.473 153.381 454.042C153.96 454.602 154.249 455.414 154.249 456.478V461H152.989V456.66C152.989 455.895 152.798 455.311 152.415 454.91C152.032 454.499 151.51 454.294 150.847 454.294C150.175 454.294 149.638 454.504 149.237 454.924C148.845 455.344 148.649 455.955 148.649 456.758V461H147.375V453.328H148.649V454.42C148.901 454.028 149.242 453.725 149.671 453.51C150.11 453.295 150.59 453.188 151.113 453.188ZM160.138 453.188C160.717 453.188 161.239 453.314 161.706 453.566C162.173 453.809 162.537 454.177 162.798 454.672C163.069 455.167 163.204 455.769 163.204 456.478V461H161.944V456.66C161.944 455.895 161.753 455.311 161.37 454.91C160.987 454.499 160.465 454.294 159.802 454.294C159.13 454.294 158.593 454.504 158.192 454.924C157.8 455.344 157.604 455.955 157.604 456.758V461H156.33V450.64H157.604V454.42C157.856 454.028 158.201 453.725 158.64 453.51C159.088 453.295 159.587 453.188 160.138 453.188ZM164.809 457.136C164.809 456.352 164.968 455.666 165.285 455.078C165.602 454.481 166.036 454.019 166.587 453.692C167.147 453.365 167.768 453.202 168.449 453.202C169.121 453.202 169.704 453.347 170.199 453.636C170.694 453.925 171.062 454.289 171.305 454.728V453.328H172.593V461H171.305V459.572C171.053 460.02 170.675 460.393 170.171 460.692C169.676 460.981 169.098 461.126 168.435 461.126C167.754 461.126 167.138 460.958 166.587 460.622C166.036 460.286 165.602 459.815 165.285 459.208C164.968 458.601 164.809 457.911 164.809 457.136ZM171.305 457.15C171.305 456.571 171.188 456.067 170.955 455.638C170.722 455.209 170.404 454.882 170.003 454.658C169.611 454.425 169.177 454.308 168.701 454.308C168.225 454.308 167.791 454.42 167.399 454.644C167.007 454.868 166.694 455.195 166.461 455.624C166.228 456.053 166.111 456.557 166.111 457.136C166.111 457.724 166.228 458.237 166.461 458.676C166.694 459.105 167.007 459.437 167.399 459.67C167.791 459.894 168.225 460.006 168.701 460.006C169.177 460.006 169.611 459.894 170.003 459.67C170.404 459.437 170.722 459.105 170.955 458.676C171.188 458.237 171.305 457.729 171.305 457.15Z" fill="black"/>
<rect y="69" width="98.25" height="7" fill="black"/>
<rect x="98.25" y="69" width="98.25" height="7" fill="black"/>
<rect x="196.5" y="69" width="98.25" height="7" fill="black"/>
<rect x="294.75" y="69" width="98.25" height="7" fill="black"/>
</svg>
