<svg width="393" height="852" viewBox="0 0 393 852" fill="none" xmlns="http://www.w3.org/2000/svg">
<rect width="393" height="852" fill="white"/>
<rect x="29" y="744" width="336" height="47" rx="14" fill="black"/>
<path d="M181.948 765.48C181.948 766.293 181.761 767.04 181.388 767.72C181.014 768.387 180.441 768.927 179.668 769.34C178.894 769.753 177.934 769.96 176.788 769.96H174.668V775H171.248V760.96H176.788C177.908 760.96 178.854 761.153 179.628 761.54C180.401 761.927 180.981 762.46 181.368 763.14C181.754 763.82 181.948 764.6 181.948 765.48ZM176.528 767.24C177.181 767.24 177.668 767.087 177.988 766.78C178.308 766.473 178.468 766.04 178.468 765.48C178.468 764.92 178.308 764.487 177.988 764.18C177.668 763.873 177.181 763.72 176.528 763.72H174.668V767.24H176.528ZM194.748 763.84V775H191.328V773.48C190.982 773.973 190.508 774.373 189.908 774.68C189.322 774.973 188.668 775.12 187.948 775.12C187.095 775.12 186.342 774.933 185.688 774.56C185.035 774.173 184.528 773.62 184.168 772.9C183.808 772.18 183.628 771.333 183.628 770.36V763.84H187.028V769.9C187.028 770.647 187.222 771.227 187.608 771.64C187.995 772.053 188.515 772.26 189.168 772.26C189.835 772.26 190.362 772.053 190.748 771.64C191.135 771.227 191.328 770.647 191.328 769.9V763.84H194.748ZM200.625 760.2V775H197.205V760.2H200.625ZM202.423 769.4C202.423 768.253 202.637 767.247 203.063 766.38C203.503 765.513 204.097 764.847 204.843 764.38C205.59 763.913 206.423 763.68 207.343 763.68C208.13 763.68 208.817 763.84 209.403 764.16C210.003 764.48 210.463 764.9 210.783 765.42V763.84H214.203V775H210.783V773.42C210.45 773.94 209.983 774.36 209.383 774.68C208.797 775 208.11 775.16 207.323 775.16C206.417 775.16 205.59 774.927 204.843 774.46C204.097 773.98 203.503 773.307 203.063 772.44C202.637 771.56 202.423 770.547 202.423 769.4ZM210.783 769.42C210.783 768.567 210.543 767.893 210.063 767.4C209.597 766.907 209.023 766.66 208.343 766.66C207.663 766.66 207.083 766.907 206.603 767.4C206.137 767.88 205.903 768.547 205.903 769.4C205.903 770.253 206.137 770.933 206.603 771.44C207.083 771.933 207.663 772.18 208.343 772.18C209.023 772.18 209.597 771.933 210.063 771.44C210.543 770.947 210.783 770.273 210.783 769.42ZM220.098 765.7C220.498 765.087 220.998 764.607 221.598 764.26C222.198 763.9 222.864 763.72 223.598 763.72V767.34H222.658C221.804 767.34 221.164 767.527 220.738 767.9C220.311 768.26 220.098 768.9 220.098 769.82V775H216.678V763.84H220.098V765.7Z" fill="white"/>
<circle cx="196.5" cy="206.5" r="86.5" fill="#D9D9D9"/>
<rect width="393" height="72" fill="white"/>
<path d="M35.9187 45.105C35.1487 45.105 34.4587 44.98 33.8487 44.73C33.2387 44.48 32.7487 44.11 32.3787 43.62C32.0187 43.13 31.8287 42.54 31.8087 41.85H34.5387C34.5787 42.24 34.7137 42.54 34.9437 42.75C35.1737 42.95 35.4737 43.05 35.8437 43.05C36.2237 43.05 36.5237 42.965 36.7437 42.795C36.9637 42.615 37.0737 42.37 37.0737 42.06C37.0737 41.8 36.9837 41.585 36.8037 41.415C36.6337 41.245 36.4187 41.105 36.1587 40.995C35.9087 40.885 35.5487 40.76 35.0787 40.62C34.3987 40.41 33.8437 40.2 33.4137 39.99C32.9837 39.78 32.6137 39.47 32.3037 39.06C31.9937 38.65 31.8387 38.115 31.8387 37.455C31.8387 36.475 32.1937 35.71 32.9037 35.16C33.6137 34.6 34.5387 34.32 35.6787 34.32C36.8387 34.32 37.7737 34.6 38.4837 35.16C39.1937 35.71 39.5737 36.48 39.6237 37.47H36.8487C36.8287 37.13 36.7037 36.865 36.4737 36.675C36.2437 36.475 35.9487 36.375 35.5887 36.375C35.2787 36.375 35.0287 36.46 34.8387 36.63C34.6487 36.79 34.5537 37.025 34.5537 37.335C34.5537 37.675 34.7137 37.94 35.0337 38.13C35.3537 38.32 35.8537 38.525 36.5337 38.745C37.2137 38.975 37.7637 39.195 38.1837 39.405C38.6137 39.615 38.9837 39.92 39.2937 40.32C39.6037 40.72 39.7587 41.235 39.7587 41.865C39.7587 42.465 39.6037 43.01 39.2937 43.5C38.9937 43.99 38.5537 44.38 37.9737 44.67C37.3937 44.96 36.7087 45.105 35.9187 45.105ZM43.8572 34.47V40.77C43.8572 41.4 44.0122 41.885 44.3222 42.225C44.6322 42.565 45.0872 42.735 45.6872 42.735C46.2872 42.735 46.7472 42.565 47.0672 42.225C47.3872 41.885 47.5472 41.4 47.5472 40.77V34.47H50.1122V40.755C50.1122 41.695 49.9122 42.49 49.5122 43.14C49.1122 43.79 48.5722 44.28 47.8922 44.61C47.2222 44.94 46.4722 45.105 45.6422 45.105C44.8122 45.105 44.0672 44.945 43.4072 44.625C42.7572 44.295 42.2422 43.805 41.8622 43.155C41.4822 42.495 41.2922 41.695 41.2922 40.755V34.47H43.8572ZM58.4684 43.14H54.5384L53.9084 45H51.2234L55.0334 34.47H58.0034L61.8134 45H59.0984L58.4684 43.14ZM57.8084 41.16L56.5034 37.305L55.2134 41.16H57.8084ZM69.963 37.8C69.773 37.45 69.498 37.185 69.138 37.005C68.788 36.815 68.373 36.72 67.893 36.72C67.063 36.72 66.398 36.995 65.898 37.545C65.398 38.085 65.148 38.81 65.148 39.72C65.148 40.69 65.408 41.45 65.928 42C66.458 42.54 67.183 42.81 68.103 42.81C68.733 42.81 69.263 42.65 69.693 42.33C70.133 42.01 70.453 41.55 70.653 40.95H67.398V39.06H72.978V41.445C72.788 42.085 72.463 42.68 72.003 43.23C71.553 43.78 70.978 44.225 70.278 44.565C69.578 44.905 68.788 45.075 67.908 45.075C66.868 45.075 65.938 44.85 65.118 44.4C64.308 43.94 63.673 43.305 63.213 42.495C62.763 41.685 62.538 40.76 62.538 39.72C62.538 38.68 62.763 37.755 63.213 36.945C63.673 36.125 64.308 35.49 65.118 35.04C65.928 34.58 66.853 34.35 67.893 34.35C69.153 34.35 70.213 34.655 71.073 35.265C71.943 35.875 72.518 36.72 72.798 37.8H69.963ZM76.9638 36.525V38.655H80.3988V40.635H76.9638V42.945H80.8488V45H74.3988V34.47H80.8488V36.525H76.9638ZM91.934 45H89.369L85.079 38.505V45H82.514V34.47H85.079L89.369 40.995V34.47H91.934V45ZM97.7383 34.47C98.8483 34.47 99.8183 34.69 100.648 35.13C101.478 35.57 102.118 36.19 102.568 36.99C103.028 37.78 103.258 38.695 103.258 39.735C103.258 40.765 103.028 41.68 102.568 42.48C102.118 43.28 101.473 43.9 100.633 44.34C99.8033 44.78 98.8383 45 97.7383 45H93.7933V34.47H97.7383ZM97.5733 42.78C98.5433 42.78 99.2983 42.515 99.8383 41.985C100.378 41.455 100.648 40.705 100.648 39.735C100.648 38.765 100.378 38.01 99.8383 37.47C99.2983 36.93 98.5433 36.66 97.5733 36.66H96.3583V42.78H97.5733ZM111.247 43.14H107.317L106.687 45H104.002L107.812 34.47H110.782L114.592 45H111.877L111.247 43.14ZM110.587 41.16L109.282 37.305L107.992 41.16H110.587Z" fill="black"/>
<path d="M51.568 325.152V342H47.464V331.896L43.696 342H40.384L36.592 331.872V342H32.488V325.152H37.336L42.064 336.816L46.744 325.152H51.568ZM67.1432 335.088C67.1432 335.472 67.1193 335.872 67.0713 336.288H57.7833C57.8473 337.12 58.1113 337.76 58.5753 338.208C59.0553 338.64 59.6393 338.856 60.3273 338.856C61.3513 338.856 62.0633 338.424 62.4633 337.56H66.8313C66.6073 338.44 66.1993 339.232 65.6073 339.936C65.0313 340.64 64.3033 341.192 63.4233 341.592C62.5433 341.992 61.5593 342.192 60.4713 342.192C59.1593 342.192 57.9913 341.912 56.9673 341.352C55.9433 340.792 55.1433 339.992 54.5673 338.952C53.9913 337.912 53.7033 336.696 53.7033 335.304C53.7033 333.912 53.9833 332.696 54.5433 331.656C55.1193 330.616 55.9193 329.816 56.9433 329.256C57.9673 328.696 59.1433 328.416 60.4713 328.416C61.7673 328.416 62.9193 328.688 63.9273 329.232C64.9353 329.776 65.7193 330.552 66.2793 331.56C66.8553 332.568 67.1432 333.744 67.1432 335.088ZM62.9433 334.008C62.9433 333.304 62.7033 332.744 62.2233 332.328C61.7433 331.912 61.1433 331.704 60.4233 331.704C59.7353 331.704 59.1513 331.904 58.6713 332.304C58.2073 332.704 57.9193 333.272 57.8073 334.008H62.9433ZM73.5783 335.28C73.5783 333.904 73.8343 332.696 74.3463 331.656C74.8743 330.616 75.5863 329.816 76.4823 329.256C77.3783 328.696 78.3783 328.416 79.4823 328.416C80.3623 328.416 81.1623 328.6 81.8823 328.968C82.6183 329.336 83.1943 329.832 83.6103 330.456V324.24H87.7143V342H83.6103V340.08C83.2263 340.72 82.6743 341.232 81.9543 341.616C81.2503 342 80.4263 342.192 79.4823 342.192C78.3783 342.192 77.3783 341.912 76.4823 341.352C75.5863 340.776 74.8743 339.968 74.3463 338.928C73.8343 337.872 73.5783 336.656 73.5783 335.28ZM83.6103 335.304C83.6103 334.28 83.3223 333.472 82.7463 332.88C82.1863 332.288 81.4983 331.992 80.6823 331.992C79.8663 331.992 79.1703 332.288 78.5943 332.88C78.0343 333.456 77.7543 334.256 77.7543 335.28C77.7543 336.304 78.0343 337.12 78.5943 337.728C79.1703 338.32 79.8663 338.616 80.6823 338.616C81.4983 338.616 82.1863 338.32 82.7463 337.728C83.3223 337.136 83.6103 336.328 83.6103 335.304ZM92.7473 327.216C92.0273 327.216 91.4353 327.008 90.9713 326.592C90.5233 326.16 90.2993 325.632 90.2993 325.008C90.2993 324.368 90.5233 323.84 90.9713 323.424C91.4353 322.992 92.0273 322.776 92.7473 322.776C93.4513 322.776 94.0273 322.992 94.4753 323.424C94.9393 323.84 95.1713 324.368 95.1713 325.008C95.1713 325.632 94.9393 326.16 94.4753 326.592C94.0273 327.008 93.4513 327.216 92.7473 327.216ZM94.7873 328.608V342H90.6833V328.608H94.7873ZM102.849 328.416C103.793 328.416 104.617 328.608 105.321 328.992C106.041 329.376 106.593 329.88 106.977 330.504V328.608H111.081V341.976C111.081 343.208 110.833 344.32 110.337 345.312C109.857 346.32 109.113 347.12 108.105 347.712C107.113 348.304 105.873 348.6 104.385 348.6C102.401 348.6 100.793 348.128 99.5614 347.184C98.3294 346.256 97.6254 344.992 97.4494 343.392H101.505C101.633 343.904 101.937 344.304 102.417 344.592C102.897 344.896 103.489 345.048 104.193 345.048C105.041 345.048 105.713 344.8 106.209 344.304C106.721 343.824 106.977 343.048 106.977 341.976V340.08C106.577 340.704 106.025 341.216 105.321 341.616C104.617 342 103.793 342.192 102.849 342.192C101.745 342.192 100.745 341.912 99.8494 341.352C98.9534 340.776 98.2414 339.968 97.7134 338.928C97.2014 337.872 96.9454 336.656 96.9454 335.28C96.9454 333.904 97.2014 332.696 97.7134 331.656C98.2414 330.616 98.9534 329.816 99.8494 329.256C100.745 328.696 101.745 328.416 102.849 328.416ZM106.977 335.304C106.977 334.28 106.689 333.472 106.113 332.88C105.553 332.288 104.865 331.992 104.049 331.992C103.233 331.992 102.537 332.288 101.961 332.88C101.401 333.456 101.121 334.256 101.121 335.28C101.121 336.304 101.401 337.12 101.961 337.728C102.537 338.32 103.233 338.616 104.049 338.616C104.865 338.616 105.553 338.32 106.113 337.728C106.689 337.136 106.977 336.328 106.977 335.304ZM113.235 335.28C113.235 333.904 113.491 332.696 114.003 331.656C114.531 330.616 115.243 329.816 116.139 329.256C117.035 328.696 118.035 328.416 119.139 328.416C120.083 328.416 120.907 328.608 121.611 328.992C122.331 329.376 122.883 329.88 123.267 330.504V328.608H127.371V342H123.267V340.104C122.867 340.728 122.307 341.232 121.587 341.616C120.883 342 120.059 342.192 119.115 342.192C118.027 342.192 117.035 341.912 116.139 341.352C115.243 340.776 114.531 339.968 114.003 338.928C113.491 337.872 113.235 336.656 113.235 335.28ZM123.267 335.304C123.267 334.28 122.979 333.472 122.403 332.88C121.843 332.288 121.155 331.992 120.339 331.992C119.523 331.992 118.827 332.288 118.251 332.88C117.691 333.456 117.411 334.256 117.411 335.28C117.411 336.304 117.691 337.12 118.251 337.728C118.827 338.32 119.523 338.616 120.339 338.616C121.155 338.616 121.843 338.32 122.403 337.728C122.979 337.136 123.267 336.328 123.267 335.304ZM140.874 342.192C139.706 342.192 138.666 341.992 137.754 341.592C136.842 341.192 136.122 340.648 135.594 339.96C135.066 339.256 134.77 338.472 134.706 337.608H138.762C138.81 338.072 139.026 338.448 139.41 338.736C139.794 339.024 140.266 339.168 140.826 339.168C141.338 339.168 141.73 339.072 142.002 338.88C142.29 338.672 142.434 338.408 142.434 338.088C142.434 337.704 142.234 337.424 141.834 337.248C141.434 337.056 140.786 336.848 139.89 336.624C138.93 336.4 138.13 336.168 137.49 335.928C136.85 335.672 136.298 335.28 135.834 334.752C135.37 334.208 135.138 333.48 135.138 332.568C135.138 331.8 135.346 331.104 135.762 330.48C136.194 329.84 136.818 329.336 137.634 328.968C138.466 328.6 139.45 328.416 140.586 328.416C142.266 328.416 143.586 328.832 144.546 329.664C145.522 330.496 146.082 331.6 146.226 332.976H142.434C142.37 332.512 142.162 332.144 141.81 331.872C141.474 331.6 141.026 331.464 140.466 331.464C139.986 331.464 139.618 331.56 139.362 331.752C139.106 331.928 138.978 332.176 138.978 332.496C138.978 332.88 139.178 333.168 139.578 333.36C139.994 333.552 140.634 333.744 141.498 333.936C142.49 334.192 143.298 334.448 143.922 334.704C144.546 334.944 145.09 335.344 145.554 335.904C146.034 336.448 146.282 337.184 146.298 338.112C146.298 338.896 146.074 339.6 145.626 340.224C145.194 340.832 144.562 341.312 143.73 341.664C142.914 342.016 141.962 342.192 140.874 342.192ZM161.432 335.088C161.432 335.472 161.408 335.872 161.36 336.288H152.072C152.136 337.12 152.4 337.76 152.864 338.208C153.344 338.64 153.928 338.856 154.616 338.856C155.64 338.856 156.352 338.424 156.752 337.56H161.12C160.896 338.44 160.488 339.232 159.896 339.936C159.32 340.64 158.592 341.192 157.712 341.592C156.832 341.992 155.848 342.192 154.76 342.192C153.448 342.192 152.28 341.912 151.256 341.352C150.232 340.792 149.432 339.992 148.856 338.952C148.28 337.912 147.992 336.696 147.992 335.304C147.992 333.912 148.272 332.696 148.832 331.656C149.408 330.616 150.208 329.816 151.232 329.256C152.256 328.696 153.432 328.416 154.76 328.416C156.056 328.416 157.208 328.688 158.216 329.232C159.224 329.776 160.008 330.552 160.568 331.56C161.144 332.568 161.432 333.744 161.432 335.088ZM157.232 334.008C157.232 333.304 156.992 332.744 156.512 332.328C156.032 331.912 155.432 331.704 154.712 331.704C154.024 331.704 153.44 331.904 152.96 332.304C152.496 332.704 152.208 333.272 152.096 334.008H157.232ZM176.821 328.608V342H172.717V340.176C172.301 340.768 171.733 341.248 171.013 341.616C170.309 341.968 169.525 342.144 168.661 342.144C167.637 342.144 166.733 341.92 165.949 341.472C165.165 341.008 164.557 340.344 164.125 339.48C163.693 338.616 163.477 337.6 163.477 336.432V328.608H167.557V335.88C167.557 336.776 167.789 337.472 168.253 337.968C168.717 338.464 169.341 338.712 170.125 338.712C170.925 338.712 171.557 338.464 172.021 337.968C172.485 337.472 172.717 336.776 172.717 335.88V328.608H176.821ZM184.039 335.28C184.039 333.904 184.295 332.696 184.807 331.656C185.335 330.616 186.047 329.816 186.943 329.256C187.839 328.696 188.839 328.416 189.943 328.416C190.887 328.416 191.711 328.608 192.415 328.992C193.135 329.376 193.687 329.88 194.071 330.504V328.608H198.175V342H194.071V340.104C193.671 340.728 193.111 341.232 192.391 341.616C191.687 342 190.863 342.192 189.919 342.192C188.831 342.192 187.839 341.912 186.943 341.352C186.047 340.776 185.335 339.968 184.807 338.928C184.295 337.872 184.039 336.656 184.039 335.28ZM194.071 335.304C194.071 334.28 193.783 333.472 193.207 332.88C192.647 332.288 191.959 331.992 191.143 331.992C190.327 331.992 189.631 332.288 189.055 332.88C188.495 333.456 188.215 334.256 188.215 335.28C188.215 336.304 188.495 337.12 189.055 337.728C189.631 338.32 190.327 338.616 191.143 338.616C191.959 338.616 192.647 338.32 193.207 337.728C193.783 337.136 194.071 336.328 194.071 335.304ZM209.304 328.464C210.872 328.464 212.12 328.976 213.048 330C213.992 331.008 214.464 332.4 214.464 334.176V342H210.384V334.728C210.384 333.832 210.152 333.136 209.688 332.64C209.224 332.144 208.6 331.896 207.816 331.896C207.032 331.896 206.408 332.144 205.944 332.64C205.48 333.136 205.248 333.832 205.248 334.728V342H201.144V328.608H205.248V330.384C205.664 329.792 206.224 329.328 206.928 328.992C207.632 328.64 208.424 328.464 209.304 328.464ZM219.38 327.216C218.66 327.216 218.068 327.008 217.604 326.592C217.156 326.16 216.932 325.632 216.932 325.008C216.932 324.368 217.156 323.84 217.604 323.424C218.068 322.992 218.66 322.776 219.38 322.776C220.084 322.776 220.66 322.992 221.108 323.424C221.572 323.84 221.804 324.368 221.804 325.008C221.804 325.632 221.572 326.16 221.108 326.592C220.66 327.008 220.084 327.216 219.38 327.216ZM221.42 328.608V342H217.316V328.608H221.42ZM230.418 338.16L233.322 328.608H237.69L232.938 342H227.874L223.122 328.608H227.514L230.418 338.16ZM252.042 335.088C252.042 335.472 252.018 335.872 251.97 336.288H242.682C242.746 337.12 243.01 337.76 243.474 338.208C243.954 338.64 244.538 338.856 245.226 338.856C246.25 338.856 246.962 338.424 247.362 337.56H251.73C251.506 338.44 251.098 339.232 250.506 339.936C249.93 340.64 249.202 341.192 248.322 341.592C247.442 341.992 246.458 342.192 245.37 342.192C244.058 342.192 242.89 341.912 241.866 341.352C240.842 340.792 240.042 339.992 239.466 338.952C238.89 337.912 238.602 336.696 238.602 335.304C238.602 333.912 238.882 332.696 239.442 331.656C240.018 330.616 240.818 329.816 241.842 329.256C242.866 328.696 244.042 328.416 245.37 328.416C246.666 328.416 247.818 328.688 248.826 329.232C249.834 329.776 250.618 330.552 251.178 331.56C251.754 332.568 252.042 333.744 252.042 335.088ZM247.842 334.008C247.842 333.304 247.602 332.744 247.122 332.328C246.642 331.912 246.042 331.704 245.322 331.704C244.634 331.704 244.05 331.904 243.57 332.304C243.106 332.704 242.818 333.272 242.706 334.008H247.842ZM258.311 330.84C258.791 330.104 259.391 329.528 260.111 329.112C260.831 328.68 261.631 328.464 262.511 328.464V332.808H261.383C260.359 332.808 259.591 333.032 259.079 333.48C258.567 333.912 258.311 334.68 258.311 335.784V342H254.207V328.608H258.311V330.84ZM269.92 342.192C268.752 342.192 267.712 341.992 266.8 341.592C265.888 341.192 265.168 340.648 264.64 339.96C264.112 339.256 263.816 338.472 263.752 337.608H267.808C267.856 338.072 268.072 338.448 268.456 338.736C268.84 339.024 269.312 339.168 269.872 339.168C270.384 339.168 270.776 339.072 271.048 338.88C271.336 338.672 271.48 338.408 271.48 338.088C271.48 337.704 271.28 337.424 270.88 337.248C270.48 337.056 269.832 336.848 268.936 336.624C267.976 336.4 267.176 336.168 266.536 335.928C265.896 335.672 265.344 335.28 264.88 334.752C264.416 334.208 264.184 333.48 264.184 332.568C264.184 331.8 264.392 331.104 264.808 330.48C265.24 329.84 265.864 329.336 266.68 328.968C267.512 328.6 268.496 328.416 269.632 328.416C271.312 328.416 272.632 328.832 273.592 329.664C274.568 330.496 275.128 331.6 275.272 332.976H271.48C271.416 332.512 271.208 332.144 270.856 331.872C270.52 331.6 270.072 331.464 269.512 331.464C269.032 331.464 268.664 331.56 268.408 331.752C268.152 331.928 268.024 332.176 268.024 332.496C268.024 332.88 268.224 333.168 268.624 333.36C269.04 333.552 269.68 333.744 270.544 333.936C271.536 334.192 272.344 334.448 272.968 334.704C273.592 334.944 274.136 335.344 274.6 335.904C275.08 336.448 275.328 337.184 275.344 338.112C275.344 338.896 275.12 339.6 274.672 340.224C274.24 340.832 273.608 341.312 272.776 341.664C271.96 342.016 271.008 342.192 269.92 342.192ZM277.039 335.28C277.039 333.904 277.295 332.696 277.807 331.656C278.335 330.616 279.047 329.816 279.943 329.256C280.839 328.696 281.839 328.416 282.943 328.416C283.887 328.416 284.711 328.608 285.415 328.992C286.135 329.376 286.687 329.88 287.071 330.504V328.608H291.175V342H287.071V340.104C286.671 340.728 286.111 341.232 285.391 341.616C284.687 342 283.863 342.192 282.919 342.192C281.831 342.192 280.839 341.912 279.943 341.352C279.047 340.776 278.335 339.968 277.807 338.928C277.295 337.872 277.039 336.656 277.039 335.28ZM287.071 335.304C287.071 334.28 286.783 333.472 286.207 332.88C285.647 332.288 284.959 331.992 284.143 331.992C283.327 331.992 282.631 332.288 282.055 332.88C281.495 333.456 281.215 334.256 281.215 335.28C281.215 336.304 281.495 337.12 282.055 337.728C282.631 338.32 283.327 338.616 284.143 338.616C284.959 338.616 285.647 338.32 286.207 337.728C286.783 337.136 287.071 336.328 287.071 335.304ZM287.383 325.272L281.599 327.696V324.864L287.383 322.08V325.272ZM298.248 330.84C298.728 330.104 299.328 329.528 300.048 329.112C300.768 328.68 301.568 328.464 302.448 328.464V332.808H301.32C300.296 332.808 299.528 333.032 299.016 333.48C298.504 333.912 298.248 334.68 298.248 335.784V342H294.144V328.608H298.248V330.84ZM306.474 327.216C305.754 327.216 305.162 327.008 304.698 326.592C304.25 326.16 304.026 325.632 304.026 325.008C304.026 324.368 304.25 323.84 304.698 323.424C305.162 322.992 305.754 322.776 306.474 322.776C307.178 322.776 307.754 322.992 308.202 323.424C308.666 323.84 308.898 324.368 308.898 325.008C308.898 325.632 308.666 326.16 308.202 326.592C307.754 327.008 307.178 327.216 306.474 327.216ZM308.514 328.608V342H304.41V328.608H308.514ZM317.584 342.192C316.272 342.192 315.088 341.912 314.032 341.352C312.992 340.792 312.168 339.992 311.56 338.952C310.968 337.912 310.672 336.696 310.672 335.304C310.672 333.928 310.976 332.72 311.584 331.68C312.192 330.624 313.024 329.816 314.08 329.256C315.136 328.696 316.32 328.416 317.632 328.416C318.944 328.416 320.128 328.696 321.184 329.256C322.24 329.816 323.072 330.624 323.68 331.68C324.288 332.72 324.592 333.928 324.592 335.304C324.592 336.68 324.28 337.896 323.656 338.952C323.048 339.992 322.208 340.792 321.136 341.352C320.08 341.912 318.896 342.192 317.584 342.192ZM317.584 338.64C318.368 338.64 319.032 338.352 319.576 337.776C320.136 337.2 320.416 336.376 320.416 335.304C320.416 334.232 320.144 333.408 319.6 332.832C319.072 332.256 318.416 331.968 317.632 331.968C316.832 331.968 316.168 332.256 315.64 332.832C315.112 333.392 314.848 334.216 314.848 335.304C314.848 336.376 315.104 337.2 315.616 337.776C316.144 338.352 316.8 338.64 317.584 338.64Z" fill="black"/>
<path d="M40.448 360.848L36.24 372H34.56L30.352 360.848H31.904L35.408 370.464L38.912 360.848H40.448ZM45.8685 372.144C45.0472 372.144 44.3005 371.957 43.6285 371.584C42.9672 371.211 42.4445 370.683 42.0605 370C41.6872 369.307 41.5005 368.507 41.5005 367.6C41.5005 366.704 41.6925 365.915 42.0765 365.232C42.4712 364.539 43.0045 364.011 43.6765 363.648C44.3485 363.275 45.1005 363.088 45.9325 363.088C46.7645 363.088 47.5165 363.275 48.1885 363.648C48.8605 364.011 49.3885 364.533 49.7725 365.216C50.1672 365.899 50.3645 366.693 50.3645 367.6C50.3645 368.507 50.1618 369.307 49.7565 370C49.3618 370.683 48.8232 371.211 48.1405 371.584C47.4578 371.957 46.7005 372.144 45.8685 372.144ZM45.8685 370.864C46.3912 370.864 46.8818 370.741 47.3405 370.496C47.7992 370.251 48.1672 369.883 48.4445 369.392C48.7325 368.901 48.8765 368.304 48.8765 367.6C48.8765 366.896 48.7378 366.299 48.4605 365.808C48.1832 365.317 47.8205 364.955 47.3725 364.72C46.9245 364.475 46.4392 364.352 45.9165 364.352C45.3832 364.352 44.8925 364.475 44.4445 364.72C44.0072 364.955 43.6552 365.317 43.3885 365.808C43.1218 366.299 42.9885 366.896 42.9885 367.6C42.9885 368.315 43.1165 368.917 43.3725 369.408C43.6392 369.899 43.9912 370.267 44.4285 370.512C44.8658 370.747 45.3458 370.864 45.8685 370.864ZM51.7349 367.6C51.7349 366.693 51.9162 365.904 52.2789 365.232C52.6415 364.549 53.1429 364.021 53.7829 363.648C54.4335 363.275 55.1749 363.088 56.0069 363.088C57.0842 363.088 57.9695 363.349 58.6629 363.872C59.3669 364.395 59.8309 365.12 60.0549 366.048H58.4869C58.3375 365.515 58.0442 365.093 57.6069 364.784C57.1802 364.475 56.6469 364.32 56.0069 364.32C55.1749 364.32 54.5029 364.608 53.9909 365.184C53.4789 365.749 53.2229 366.555 53.2229 367.6C53.2229 368.656 53.4789 369.472 53.9909 370.048C54.5029 370.624 55.1749 370.912 56.0069 370.912C56.6469 370.912 57.1802 370.763 57.6069 370.464C58.0335 370.165 58.3269 369.739 58.4869 369.184H60.0549C59.8202 370.08 59.3509 370.8 58.6469 371.344C57.9429 371.877 57.0629 372.144 56.0069 372.144C55.1749 372.144 54.4335 371.957 53.7829 371.584C53.1429 371.211 52.6415 370.683 52.2789 370C51.9162 369.317 51.7349 368.517 51.7349 367.6ZM69.9976 367.28C69.9976 367.557 69.9816 367.851 69.9496 368.16H62.9416C62.995 369.024 63.2883 369.701 63.8216 370.192C64.3656 370.672 65.0216 370.912 65.7896 370.912C66.419 370.912 66.9416 370.768 67.3576 370.48C67.7843 370.181 68.083 369.787 68.2536 369.296H69.8216C69.587 370.139 69.1176 370.827 68.4136 371.36C67.7096 371.883 66.835 372.144 65.7896 372.144C64.9576 372.144 64.211 371.957 63.5496 371.584C62.899 371.211 62.387 370.683 62.0136 370C61.6403 369.307 61.4536 368.507 61.4536 367.6C61.4536 366.693 61.635 365.899 61.9976 365.216C62.3603 364.533 62.867 364.011 63.5176 363.648C64.179 363.275 64.9363 363.088 65.7896 363.088C66.6216 363.088 67.3576 363.269 67.9976 363.632C68.6376 363.995 69.1283 364.496 69.4696 365.136C69.8216 365.765 69.9976 366.48 69.9976 367.28ZM68.4936 366.976C68.4936 366.421 68.371 365.947 68.1256 365.552C67.8803 365.147 67.5443 364.843 67.1176 364.64C66.7016 364.427 66.2376 364.32 65.7256 364.32C64.9896 364.32 64.3603 364.555 63.8376 365.024C63.3256 365.493 63.0323 366.144 62.9576 366.976H68.4936ZM65.7416 361.088L63.5176 362.448V361.296L65.7416 359.968L67.9496 361.296V362.448L65.7416 361.088ZM77.6411 364.848C77.9291 364.347 78.3558 363.931 78.9211 363.6C79.4971 363.259 80.1638 363.088 80.9211 363.088C81.6998 363.088 82.4038 363.275 83.0331 363.648C83.6731 364.021 84.1745 364.549 84.5371 365.232C84.8998 365.904 85.0811 366.688 85.0811 367.584C85.0811 368.469 84.8998 369.259 84.5371 369.952C84.1745 370.645 83.6731 371.184 83.0331 371.568C82.4038 371.952 81.6998 372.144 80.9211 372.144C80.1745 372.144 79.5131 371.979 78.9371 371.648C78.3718 371.307 77.9398 370.885 77.6411 370.384V376.16H76.1851V363.232H77.6411V364.848ZM83.5931 367.584C83.5931 366.923 83.4598 366.347 83.1931 365.856C82.9265 365.365 82.5638 364.992 82.1051 364.736C81.6571 364.48 81.1611 364.352 80.6171 364.352C80.0838 364.352 79.5878 364.485 79.1291 364.752C78.6811 365.008 78.3185 365.387 78.0411 365.888C77.7745 366.379 77.6411 366.949 77.6411 367.6C77.6411 368.261 77.7745 368.843 78.0411 369.344C78.3185 369.835 78.6811 370.213 79.1291 370.48C79.5878 370.736 80.0838 370.864 80.6171 370.864C81.1611 370.864 81.6571 370.736 82.1051 370.48C82.5638 370.213 82.9265 369.835 83.1931 369.344C83.4598 368.843 83.5931 368.256 83.5931 367.584ZM90.8216 372.144C90.0003 372.144 89.2536 371.957 88.5816 371.584C87.9203 371.211 87.3976 370.683 87.0136 370C86.6403 369.307 86.4536 368.507 86.4536 367.6C86.4536 366.704 86.6456 365.915 87.0296 365.232C87.4243 364.539 87.9576 364.011 88.6296 363.648C89.3016 363.275 90.0536 363.088 90.8856 363.088C91.7176 363.088 92.4696 363.275 93.1416 363.648C93.8136 364.011 94.3416 364.533 94.7256 365.216C95.1203 365.899 95.3176 366.693 95.3176 367.6C95.3176 368.507 95.115 369.307 94.7096 370C94.315 370.683 93.7763 371.211 93.0936 371.584C92.411 371.957 91.6536 372.144 90.8216 372.144ZM90.8216 370.864C91.3443 370.864 91.835 370.741 92.2936 370.496C92.7523 370.251 93.1203 369.883 93.3976 369.392C93.6856 368.901 93.8296 368.304 93.8296 367.6C93.8296 366.896 93.691 366.299 93.4136 365.808C93.1363 365.317 92.7736 364.955 92.3256 364.72C91.8776 364.475 91.3923 364.352 90.8696 364.352C90.3363 364.352 89.8456 364.475 89.3976 364.72C88.9603 364.955 88.6083 365.317 88.3416 365.808C88.075 366.299 87.9416 366.896 87.9416 367.6C87.9416 368.315 88.0696 368.917 88.3256 369.408C88.5923 369.899 88.9443 370.267 89.3816 370.512C89.819 370.747 90.299 370.864 90.8216 370.864ZM96.688 367.584C96.688 366.688 96.8693 365.904 97.232 365.232C97.5947 364.549 98.0907 364.021 98.72 363.648C99.36 363.275 100.075 363.088 100.864 363.088C101.547 363.088 102.181 363.248 102.768 363.568C103.355 363.877 103.803 364.288 104.112 364.8V360.16H105.584V372H104.112V370.352C103.824 370.875 103.397 371.307 102.832 371.648C102.267 371.979 101.605 372.144 100.848 372.144C100.069 372.144 99.36 371.952 98.72 371.568C98.0907 371.184 97.5947 370.645 97.232 369.952C96.8693 369.259 96.688 368.469 96.688 367.584ZM104.112 367.6C104.112 366.939 103.979 366.363 103.712 365.872C103.445 365.381 103.083 365.008 102.624 364.752C102.176 364.485 101.68 364.352 101.136 364.352C100.592 364.352 100.096 364.48 99.648 364.736C99.2 364.992 98.8427 365.365 98.576 365.856C98.3093 366.347 98.176 366.923 98.176 367.584C98.176 368.256 98.3093 368.843 98.576 369.344C98.8427 369.835 99.2 370.213 99.648 370.48C100.096 370.736 100.592 370.864 101.136 370.864C101.68 370.864 102.176 370.736 102.624 370.48C103.083 370.213 103.445 369.835 103.712 369.344C103.979 368.843 104.112 368.261 104.112 367.6ZM116.045 367.28C116.045 367.557 116.029 367.851 115.997 368.16H108.989C109.042 369.024 109.335 369.701 109.869 370.192C110.413 370.672 111.069 370.912 111.837 370.912C112.466 370.912 112.989 370.768 113.405 370.48C113.831 370.181 114.13 369.787 114.301 369.296H115.869C115.634 370.139 115.165 370.827 114.461 371.36C113.757 371.883 112.882 372.144 111.837 372.144C111.005 372.144 110.258 371.957 109.597 371.584C108.946 371.211 108.434 370.683 108.061 370C107.687 369.307 107.501 368.507 107.501 367.6C107.501 366.693 107.682 365.899 108.045 365.216C108.407 364.533 108.914 364.011 109.565 363.648C110.226 363.275 110.983 363.088 111.837 363.088C112.669 363.088 113.405 363.269 114.045 363.632C114.685 363.995 115.175 364.496 115.517 365.136C115.869 365.765 116.045 366.48 116.045 367.28ZM114.541 366.976C114.541 366.421 114.418 365.947 114.173 365.552C113.927 365.147 113.591 364.843 113.165 364.64C112.749 364.427 112.285 364.32 111.773 364.32C111.037 364.32 110.407 364.555 109.885 365.024C109.373 365.493 109.079 366.144 109.005 366.976H114.541ZM126.504 363.072C127.571 363.072 128.435 363.397 129.096 364.048C129.757 364.688 130.088 365.616 130.088 366.832V372H128.648V367.04C128.648 366.165 128.429 365.499 127.992 365.04C127.555 364.571 126.957 364.336 126.2 364.336C125.432 364.336 124.819 364.576 124.36 365.056C123.912 365.536 123.688 366.235 123.688 367.152V372H122.232V363.232H123.688V364.48C123.976 364.032 124.365 363.685 124.856 363.44C125.357 363.195 125.907 363.072 126.504 363.072ZM136.29 372.144C135.469 372.144 134.722 371.957 134.05 371.584C133.389 371.211 132.866 370.683 132.482 370C132.109 369.307 131.922 368.507 131.922 367.6C131.922 366.704 132.114 365.915 132.498 365.232C132.893 364.539 133.426 364.011 134.098 363.648C134.77 363.275 135.522 363.088 136.354 363.088C137.186 363.088 137.938 363.275 138.61 363.648C139.282 364.011 139.81 364.533 140.194 365.216C140.589 365.899 140.786 366.693 140.786 367.6C140.786 368.507 140.584 369.307 140.178 370C139.784 370.683 139.245 371.211 138.562 371.584C137.88 371.957 137.122 372.144 136.29 372.144ZM136.29 370.864C136.813 370.864 137.304 370.741 137.762 370.496C138.221 370.251 138.589 369.883 138.866 369.392C139.154 368.901 139.298 368.304 139.298 367.6C139.298 366.896 139.16 366.299 138.882 365.808C138.605 365.317 138.242 364.955 137.794 364.72C137.346 364.475 136.861 364.352 136.338 364.352C135.805 364.352 135.314 364.475 134.866 364.72C134.429 364.955 134.077 365.317 133.81 365.808C133.544 366.299 133.41 366.896 133.41 367.6C133.41 368.315 133.538 368.917 133.794 369.408C134.061 369.899 134.413 370.267 134.85 370.512C135.288 370.747 135.768 370.864 136.29 370.864ZM145.805 372.144C145.133 372.144 144.53 372.032 143.997 371.808C143.463 371.573 143.042 371.253 142.733 370.848C142.423 370.432 142.253 369.957 142.221 369.424H143.725C143.767 369.861 143.97 370.219 144.333 370.496C144.706 370.773 145.191 370.912 145.789 370.912C146.343 370.912 146.781 370.789 147.101 370.544C147.421 370.299 147.581 369.989 147.581 369.616C147.581 369.232 147.41 368.949 147.069 368.768C146.727 368.576 146.199 368.389 145.485 368.208C144.834 368.037 144.301 367.867 143.885 367.696C143.479 367.515 143.127 367.253 142.829 366.912C142.541 366.56 142.397 366.101 142.397 365.536C142.397 365.088 142.53 364.677 142.797 364.304C143.063 363.931 143.442 363.637 143.933 363.424C144.423 363.2 144.983 363.088 145.613 363.088C146.583 363.088 147.367 363.333 147.965 363.824C148.562 364.315 148.882 364.987 148.925 365.84H147.469C147.437 365.381 147.25 365.013 146.909 364.736C146.578 364.459 146.13 364.32 145.565 364.32C145.042 364.32 144.626 364.432 144.317 364.656C144.007 364.88 143.853 365.173 143.853 365.536C143.853 365.824 143.943 366.064 144.125 366.256C144.317 366.437 144.551 366.587 144.829 366.704C145.117 366.811 145.511 366.933 146.013 367.072C146.642 367.243 147.154 367.413 147.549 367.584C147.943 367.744 148.279 367.989 148.557 368.32C148.845 368.651 148.994 369.083 149.005 369.616C149.005 370.096 148.871 370.528 148.605 370.912C148.338 371.296 147.959 371.6 147.469 371.824C146.989 372.037 146.434 372.144 145.805 372.144ZM154.782 367.584C154.782 366.688 154.963 365.904 155.326 365.232C155.688 364.549 156.184 364.021 156.814 363.648C157.454 363.275 158.168 363.088 158.958 363.088C159.64 363.088 160.275 363.248 160.862 363.568C161.448 363.877 161.896 364.288 162.206 364.8V360.16H163.678V372H162.206V370.352C161.918 370.875 161.491 371.307 160.926 371.648C160.36 371.979 159.699 372.144 158.942 372.144C158.163 372.144 157.454 371.952 156.814 371.568C156.184 371.184 155.688 370.645 155.326 369.952C154.963 369.259 154.782 368.469 154.782 367.584ZM162.206 367.6C162.206 366.939 162.072 366.363 161.806 365.872C161.539 365.381 161.176 365.008 160.718 364.752C160.27 364.485 159.774 364.352 159.23 364.352C158.686 364.352 158.19 364.48 157.742 364.736C157.294 364.992 156.936 365.365 156.67 365.856C156.403 366.347 156.27 366.923 156.27 367.584C156.27 368.256 156.403 368.843 156.67 369.344C156.936 369.835 157.294 370.213 157.742 370.48C158.19 370.736 158.686 370.864 159.23 370.864C159.774 370.864 160.27 370.736 160.718 370.48C161.176 370.213 161.539 369.835 161.806 369.344C162.072 368.843 162.206 368.261 162.206 367.6ZM166.89 361.808C166.613 361.808 166.378 361.712 166.186 361.52C165.994 361.328 165.898 361.093 165.898 360.816C165.898 360.539 165.994 360.304 166.186 360.112C166.378 359.92 166.613 359.824 166.89 359.824C167.157 359.824 167.381 359.92 167.562 360.112C167.754 360.304 167.85 360.539 167.85 360.816C167.85 361.093 167.754 361.328 167.562 361.52C167.381 361.712 167.157 361.808 166.89 361.808ZM167.594 363.232V372H166.138V363.232H167.594ZM171.164 370.8H175.468V372H169.5V370.8L173.756 364.416H169.532V363.232H175.436V364.416L171.164 370.8ZM185.357 367.28C185.357 367.557 185.341 367.851 185.309 368.16H178.301C178.354 369.024 178.648 369.701 179.181 370.192C179.725 370.672 180.381 370.912 181.149 370.912C181.778 370.912 182.301 370.768 182.717 370.48C183.144 370.181 183.442 369.787 183.613 369.296H185.181C184.946 370.139 184.477 370.827 183.773 371.36C183.069 371.883 182.194 372.144 181.149 372.144C180.317 372.144 179.57 371.957 178.909 371.584C178.258 371.211 177.746 370.683 177.373 370C177 369.307 176.813 368.507 176.813 367.6C176.813 366.693 176.994 365.899 177.357 365.216C177.72 364.533 178.226 364.011 178.877 363.648C179.538 363.275 180.296 363.088 181.149 363.088C181.981 363.088 182.717 363.269 183.357 363.632C183.997 363.995 184.488 364.496 184.829 365.136C185.181 365.765 185.357 366.48 185.357 367.28ZM183.853 366.976C183.853 366.421 183.73 365.947 183.485 365.552C183.24 365.147 182.904 364.843 182.477 364.64C182.061 364.427 181.597 364.32 181.085 364.32C180.349 364.32 179.72 364.555 179.197 365.024C178.685 365.493 178.392 366.144 178.317 366.976H183.853ZM188.735 364.656C188.991 364.155 189.354 363.765 189.823 363.488C190.303 363.211 190.884 363.072 191.567 363.072V364.576H191.183C189.551 364.576 188.735 365.461 188.735 367.232V372H187.279V363.232H188.735V364.656ZM196.969 367.584C196.969 366.688 197.151 365.904 197.513 365.232C197.876 364.549 198.372 364.021 199.001 363.648C199.641 363.275 200.356 363.088 201.145 363.088C201.828 363.088 202.463 363.248 203.049 363.568C203.636 363.877 204.084 364.288 204.393 364.8V360.16H205.865V372H204.393V370.352C204.105 370.875 203.679 371.307 203.113 371.648C202.548 371.979 201.887 372.144 201.129 372.144C200.351 372.144 199.641 371.952 199.001 371.568C198.372 371.184 197.876 370.645 197.513 369.952C197.151 369.259 196.969 368.469 196.969 367.584ZM204.393 367.6C204.393 366.939 204.26 366.363 203.993 365.872C203.727 365.381 203.364 365.008 202.905 364.752C202.457 364.485 201.961 364.352 201.417 364.352C200.873 364.352 200.377 364.48 199.929 364.736C199.481 364.992 199.124 365.365 198.857 365.856C198.591 366.347 198.457 366.923 198.457 367.584C198.457 368.256 198.591 368.843 198.857 369.344C199.124 369.835 199.481 370.213 199.929 370.48C200.377 370.736 200.873 370.864 201.417 370.864C201.961 370.864 202.457 370.736 202.905 370.48C203.364 370.213 203.727 369.835 203.993 369.344C204.26 368.843 204.393 368.261 204.393 367.6ZM216.326 367.28C216.326 367.557 216.31 367.851 216.278 368.16H209.27C209.323 369.024 209.616 369.701 210.15 370.192C210.694 370.672 211.35 370.912 212.118 370.912C212.747 370.912 213.27 370.768 213.686 370.48C214.112 370.181 214.411 369.787 214.582 369.296H216.15C215.915 370.139 215.446 370.827 214.742 371.36C214.038 371.883 213.163 372.144 212.118 372.144C211.286 372.144 210.539 371.957 209.878 371.584C209.227 371.211 208.715 370.683 208.342 370C207.968 369.307 207.782 368.507 207.782 367.6C207.782 366.693 207.963 365.899 208.326 365.216C208.688 364.533 209.195 364.011 209.846 363.648C210.507 363.275 211.264 363.088 212.118 363.088C212.95 363.088 213.686 363.269 214.326 363.632C214.966 363.995 215.456 364.496 215.798 365.136C216.15 365.765 216.326 366.48 216.326 367.28ZM214.822 366.976C214.822 366.421 214.699 365.947 214.454 365.552C214.208 365.147 213.872 364.843 213.446 364.64C213.03 364.427 212.566 364.32 212.054 364.32C211.318 364.32 210.688 364.555 210.166 365.024C209.654 365.493 209.36 366.144 209.286 366.976H214.822ZM219.704 364.848C219.992 364.347 220.418 363.931 220.984 363.6C221.56 363.259 222.226 363.088 222.984 363.088C223.762 363.088 224.466 363.275 225.096 363.648C225.736 364.021 226.237 364.549 226.6 365.232C226.962 365.904 227.144 366.688 227.144 367.584C227.144 368.469 226.962 369.259 226.6 369.952C226.237 370.645 225.736 371.184 225.096 371.568C224.466 371.952 223.762 372.144 222.984 372.144C222.237 372.144 221.576 371.979 221 371.648C220.434 371.307 220.002 370.885 219.704 370.384V376.16H218.248V363.232H219.704V364.848ZM225.656 367.584C225.656 366.923 225.522 366.347 225.256 365.856C224.989 365.365 224.626 364.992 224.168 364.736C223.72 364.48 223.224 364.352 222.68 364.352C222.146 364.352 221.65 364.485 221.192 364.752C220.744 365.008 220.381 365.387 220.104 365.888C219.837 366.379 219.704 366.949 219.704 367.6C219.704 368.261 219.837 368.843 220.104 369.344C220.381 369.835 220.744 370.213 221.192 370.48C221.65 370.736 222.146 370.864 222.68 370.864C223.224 370.864 223.72 370.736 224.168 370.48C224.626 370.213 224.989 369.835 225.256 369.344C225.522 368.843 225.656 368.256 225.656 367.584ZM232.884 372.144C232.063 372.144 231.316 371.957 230.644 371.584C229.983 371.211 229.46 370.683 229.076 370C228.703 369.307 228.516 368.507 228.516 367.6C228.516 366.704 228.708 365.915 229.092 365.232C229.487 364.539 230.02 364.011 230.692 363.648C231.364 363.275 232.116 363.088 232.948 363.088C233.78 363.088 234.532 363.275 235.204 363.648C235.876 364.011 236.404 364.533 236.788 365.216C237.183 365.899 237.38 366.693 237.38 367.6C237.38 368.507 237.177 369.307 236.772 370C236.377 370.683 235.839 371.211 235.156 371.584C234.473 371.957 233.716 372.144 232.884 372.144ZM232.884 370.864C233.407 370.864 233.897 370.741 234.356 370.496C234.815 370.251 235.183 369.883 235.46 369.392C235.748 368.901 235.892 368.304 235.892 367.6C235.892 366.896 235.753 366.299 235.476 365.808C235.199 365.317 234.836 364.955 234.388 364.72C233.94 364.475 233.455 364.352 232.932 364.352C232.399 364.352 231.908 364.475 231.46 364.72C231.023 364.955 230.671 365.317 230.404 365.808C230.137 366.299 230.004 366.896 230.004 367.6C230.004 368.315 230.132 368.917 230.388 369.408C230.655 369.899 231.007 370.267 231.444 370.512C231.881 370.747 232.361 370.864 232.884 370.864ZM240.047 361.808C239.769 361.808 239.535 361.712 239.343 361.52C239.151 361.328 239.055 361.093 239.055 360.816C239.055 360.539 239.151 360.304 239.343 360.112C239.535 359.92 239.769 359.824 240.047 359.824C240.313 359.824 240.537 359.92 240.719 360.112C240.911 360.304 241.007 360.539 241.007 360.816C241.007 361.093 240.911 361.328 240.719 361.52C240.537 361.712 240.313 361.808 240.047 361.808ZM240.751 363.232V372H239.295V363.232H240.751ZM246.336 372.144C245.664 372.144 245.061 372.032 244.528 371.808C243.995 371.573 243.573 371.253 243.264 370.848C242.955 370.432 242.784 369.957 242.752 369.424H244.256C244.299 369.861 244.501 370.219 244.864 370.496C245.237 370.773 245.723 370.912 246.32 370.912C246.875 370.912 247.312 370.789 247.632 370.544C247.952 370.299 248.112 369.989 248.112 369.616C248.112 369.232 247.941 368.949 247.6 368.768C247.259 368.576 246.731 368.389 246.016 368.208C245.365 368.037 244.832 367.867 244.416 367.696C244.011 367.515 243.659 367.253 243.36 366.912C243.072 366.56 242.928 366.101 242.928 365.536C242.928 365.088 243.061 364.677 243.328 364.304C243.595 363.931 243.973 363.637 244.464 363.424C244.955 363.2 245.515 363.088 246.144 363.088C247.115 363.088 247.899 363.333 248.496 363.824C249.093 364.315 249.413 364.987 249.456 365.84H248C247.968 365.381 247.781 365.013 247.44 364.736C247.109 364.459 246.661 364.32 246.096 364.32C245.573 364.32 245.157 364.432 244.848 364.656C244.539 364.88 244.384 365.173 244.384 365.536C244.384 365.824 244.475 366.064 244.656 366.256C244.848 366.437 245.083 366.587 245.36 366.704C245.648 366.811 246.043 366.933 246.544 367.072C247.173 367.243 247.685 367.413 248.08 367.584C248.475 367.744 248.811 367.989 249.088 368.32C249.376 368.651 249.525 369.083 249.536 369.616C249.536 370.096 249.403 370.528 249.136 370.912C248.869 371.296 248.491 371.6 248 371.824C247.52 372.037 246.965 372.144 246.336 372.144Z" fill="black"/>
<rect x="23" y="401" width="336" height="47" rx="14" fill="#E9E9E9"/>
<path d="M92.2042 418.06C93.7242 418.06 95.0376 418.347 96.1442 418.92C97.2642 419.48 98.1176 420.287 98.7042 421.34C99.3042 422.393 99.6042 423.633 99.6042 425.06C99.6042 426.487 99.3042 427.727 98.7042 428.78C98.1176 429.82 97.2642 430.62 96.1442 431.18C95.0376 431.727 93.7242 432 92.2042 432H87.8642V418.06H92.2042ZM92.2042 430.5C94.0042 430.5 95.3776 430.027 96.3242 429.08C97.2709 428.12 97.7442 426.78 97.7442 425.06C97.7442 423.327 97.2642 421.973 96.3042 421C95.3576 420.027 93.9909 419.54 92.2042 419.54H89.6842V430.5H92.2042ZM106.345 418.06C107.865 418.06 109.178 418.347 110.285 418.92C111.405 419.48 112.258 420.287 112.845 421.34C113.445 422.393 113.745 423.633 113.745 425.06C113.745 426.487 113.445 427.727 112.845 428.78C112.258 429.82 111.405 430.62 110.285 431.18C109.178 431.727 107.865 432 106.345 432H102.005V418.06H106.345ZM106.345 430.5C108.145 430.5 109.518 430.027 110.465 429.08C111.412 428.12 111.885 426.78 111.885 425.06C111.885 423.327 111.405 421.973 110.445 421C109.498 420.027 108.132 419.54 106.345 419.54H103.825V430.5H106.345ZM122.945 413.16L117.465 435.4H115.665L121.125 413.16H122.945ZM139.797 418.16V432H137.977V421.68L133.377 432H132.097L127.477 421.66V432H125.657V418.16H127.617L132.737 429.6L137.857 418.16H139.797ZM157.024 418.16V432H155.204V421.68L150.604 432H149.324L144.704 421.66V432H142.884V418.16H144.844L149.964 429.6L155.084 418.16H157.024ZM166.91 413.16L161.43 435.4H159.63L165.09 413.16H166.91ZM177.862 428.9H171.782L170.662 432H168.742L173.782 418.14H175.882L180.902 432H178.982L177.862 428.9ZM177.342 427.42L174.822 420.38L172.302 427.42H177.342ZM191.339 428.9H185.259L184.139 432H182.219L187.259 418.14H189.359L194.379 432H192.459L191.339 428.9ZM190.819 427.42L188.299 420.38L185.779 427.42H190.819ZM204.815 428.9H198.735L197.615 432H195.695L200.735 418.14H202.835L207.855 432H205.935L204.815 428.9ZM204.295 427.42L201.775 420.38L199.255 427.42H204.295ZM218.292 428.9H212.212L211.092 432H209.172L214.212 418.14H216.312L221.332 432H219.412L218.292 428.9ZM217.772 427.42L215.252 420.38L212.732 427.42H217.772Z" fill="black" fill-opacity="0.7"/>
<path d="M61 426C60.7167 426 60.4793 425.904 60.288 425.712C60.096 425.521 60 425.283 60 425C60 424.717 60.096 424.479 60.288 424.287C60.4793 424.096 60.7167 424 61 424C61.2833 424 61.521 424.096 61.713 424.287C61.9043 424.479 62 424.717 62 425C62 425.283 61.9043 425.521 61.713 425.712C61.521 425.904 61.2833 426 61 426ZM57 426C56.7167 426 56.479 425.904 56.287 425.712C56.0957 425.521 56 425.283 56 425C56 424.717 56.0957 424.479 56.287 424.287C56.479 424.096 56.7167 424 57 424C57.2833 424 57.521 424.096 57.713 424.287C57.9043 424.479 58 424.717 58 425C58 425.283 57.9043 425.521 57.713 425.712C57.521 425.904 57.2833 426 57 426ZM65 426C64.7167 426 64.4793 425.904 64.288 425.712C64.096 425.521 64 425.283 64 425C64 424.717 64.096 424.479 64.288 424.287C64.4793 424.096 64.7167 424 65 424C65.2833 424 65.5207 424.096 65.712 424.287C65.904 424.479 66 424.717 66 425C66 425.283 65.904 425.521 65.712 425.712C65.5207 425.904 65.2833 426 65 426ZM61 430C60.7167 430 60.4793 429.904 60.288 429.712C60.096 429.521 60 429.283 60 429C60 428.717 60.096 428.479 60.288 428.288C60.4793 428.096 60.7167 428 61 428C61.2833 428 61.521 428.096 61.713 428.288C61.9043 428.479 62 428.717 62 429C62 429.283 61.9043 429.521 61.713 429.712C61.521 429.904 61.2833 430 61 430ZM57 430C56.7167 430 56.479 429.904 56.287 429.712C56.0957 429.521 56 429.283 56 429C56 428.717 56.0957 428.479 56.287 428.288C56.479 428.096 56.7167 428 57 428C57.2833 428 57.521 428.096 57.713 428.288C57.9043 428.479 58 428.717 58 429C58 429.283 57.9043 429.521 57.713 429.712C57.521 429.904 57.2833 430 57 430ZM65 430C64.7167 430 64.4793 429.904 64.288 429.712C64.096 429.521 64 429.283 64 429C64 428.717 64.096 428.479 64.288 428.288C64.4793 428.096 64.7167 428 65 428C65.2833 428 65.5207 428.096 65.712 428.288C65.904 428.479 66 428.717 66 429C66 429.283 65.904 429.521 65.712 429.712C65.5207 429.904 65.2833 430 65 430ZM54 434C53.45 434 52.979 433.804 52.587 433.413C52.1957 433.021 52 432.55 52 432V418C52 417.45 52.1957 416.979 52.587 416.588C52.979 416.196 53.45 416 54 416H55V414H57V416H65V414H67V416H68C68.55 416 69.021 416.196 69.413 416.588C69.8043 416.979 70 417.45 70 418V432C70 432.55 69.8043 433.021 69.413 433.413C69.021 433.804 68.55 434 68 434H54ZM54 432H68V422H54V432Z" fill="black"/>
<rect width="393" height="7" transform="translate(0 69)" fill="#D9D9D9"/>
<rect y="69" width="98.25" height="7" fill="black"/>
<rect x="98.25" y="69" width="98.25" height="7" fill="black"/>
<path d="M196.5 69H291.25C293.183 69 294.75 70.567 294.75 72.5C294.75 74.433 293.183 76 291.25 76H196.5V69Z" fill="black"/>
<rect x="294.75" y="69" width="98.25" height="7" fill="#D9D9D9"/>
</svg>
