<svg width="393" height="852" viewBox="0 0 393 852" fill="none" xmlns="http://www.w3.org/2000/svg">
<rect width="393" height="852" fill="white"/>
<rect x="29" y="744" width="336" height="47" rx="14" fill="black"/>
<path d="M145.385 767.96C145.385 766.573 145.685 765.34 146.285 764.26C146.885 763.167 147.718 762.32 148.785 761.72C149.865 761.107 151.085 760.8 152.445 760.8C154.111 760.8 155.538 761.24 156.725 762.12C157.911 763 158.705 764.2 159.105 765.72H155.345C155.065 765.133 154.665 764.687 154.145 764.38C153.638 764.073 153.058 763.92 152.405 763.92C151.351 763.92 150.498 764.287 149.845 765.02C149.191 765.753 148.865 766.733 148.865 767.96C148.865 769.187 149.191 770.167 149.845 770.9C150.498 771.633 151.351 772 152.405 772C153.058 772 153.638 771.847 154.145 771.54C154.665 771.233 155.065 770.787 155.345 770.2H159.105C158.705 771.72 157.911 772.92 156.725 773.8C155.538 774.667 154.111 775.1 152.445 775.1C151.085 775.1 149.865 774.8 148.785 774.2C147.718 773.587 146.885 772.74 146.285 771.66C145.685 770.58 145.385 769.347 145.385 767.96ZM166.279 775.16C165.186 775.16 164.199 774.927 163.319 774.46C162.452 773.993 161.766 773.327 161.259 772.46C160.766 771.593 160.519 770.58 160.519 769.42C160.519 768.273 160.772 767.267 161.279 766.4C161.786 765.52 162.479 764.847 163.359 764.38C164.239 763.913 165.226 763.68 166.319 763.68C167.412 763.68 168.399 763.913 169.279 764.38C170.159 764.847 170.852 765.52 171.359 766.4C171.866 767.267 172.119 768.273 172.119 769.42C172.119 770.567 171.859 771.58 171.339 772.46C170.832 773.327 170.132 773.993 169.239 774.46C168.359 774.927 167.372 775.16 166.279 775.16ZM166.279 772.2C166.932 772.2 167.486 771.96 167.939 771.48C168.406 771 168.639 770.313 168.639 769.42C168.639 768.527 168.412 767.84 167.959 767.36C167.519 766.88 166.972 766.64 166.319 766.64C165.652 766.64 165.099 766.88 164.659 767.36C164.219 767.827 163.999 768.513 163.999 769.42C163.999 770.313 164.212 771 164.639 771.48C165.079 771.96 165.626 772.2 166.279 772.2ZM180.733 763.72C182.04 763.72 183.08 764.147 183.853 765C184.64 765.84 185.033 767 185.033 768.48V775H181.633V768.94C181.633 768.193 181.44 767.613 181.053 767.2C180.667 766.787 180.147 766.58 179.493 766.58C178.84 766.58 178.32 766.787 177.933 767.2C177.547 767.613 177.353 768.193 177.353 768.94V775H173.933V763.84H177.353V765.32C177.7 764.827 178.167 764.44 178.753 764.16C179.34 763.867 180 763.72 180.733 763.72ZM193.63 772.1V775H191.89C190.65 775 189.683 774.7 188.99 774.1C188.297 773.487 187.95 772.493 187.95 771.12V766.68H186.59V763.84H187.95V761.12H191.37V763.84H193.61V766.68H191.37V771.16C191.37 771.493 191.45 771.733 191.61 771.88C191.77 772.027 192.037 772.1 192.41 772.1H193.63ZM197.255 762.68C196.655 762.68 196.162 762.507 195.775 762.16C195.402 761.8 195.215 761.36 195.215 760.84C195.215 760.307 195.402 759.867 195.775 759.52C196.162 759.16 196.655 758.98 197.255 758.98C197.842 758.98 198.322 759.16 198.695 759.52C199.082 759.867 199.275 760.307 199.275 760.84C199.275 761.36 199.082 761.8 198.695 762.16C198.322 762.507 197.842 762.68 197.255 762.68ZM198.955 763.84V775H195.535V763.84H198.955ZM208.233 763.72C209.54 763.72 210.58 764.147 211.353 765C212.14 765.84 212.533 767 212.533 768.48V775H209.133V768.94C209.133 768.193 208.94 767.613 208.553 767.2C208.167 766.787 207.647 766.58 206.993 766.58C206.34 766.58 205.82 766.787 205.433 767.2C205.047 767.613 204.853 768.193 204.853 768.94V775H201.433V763.84H204.853V765.32C205.2 764.827 205.667 764.44 206.253 764.16C206.84 763.867 207.5 763.72 208.233 763.72ZM225.93 763.84V775H222.51V773.48C222.163 773.973 221.69 774.373 221.09 774.68C220.503 774.973 219.85 775.12 219.13 775.12C218.277 775.12 217.523 774.933 216.87 774.56C216.217 774.173 215.71 773.62 215.35 772.9C214.99 772.18 214.81 771.333 214.81 770.36V763.84H218.21V769.9C218.21 770.647 218.403 771.227 218.79 771.64C219.177 772.053 219.697 772.26 220.35 772.26C221.017 772.26 221.543 772.053 221.93 771.64C222.317 771.227 222.51 770.647 222.51 769.9V763.84H225.93ZM227.706 769.4C227.706 768.253 227.92 767.247 228.346 766.38C228.786 765.513 229.38 764.847 230.126 764.38C230.873 763.913 231.706 763.68 232.626 763.68C233.413 763.68 234.1 763.84 234.686 764.16C235.286 764.48 235.746 764.9 236.066 765.42V763.84H239.486V775H236.066V773.42C235.733 773.94 235.266 774.36 234.666 774.68C234.08 775 233.393 775.16 232.606 775.16C231.7 775.16 230.873 774.927 230.126 774.46C229.38 773.98 228.786 773.307 228.346 772.44C227.92 771.56 227.706 770.547 227.706 769.4ZM236.066 769.42C236.066 768.567 235.826 767.893 235.346 767.4C234.88 766.907 234.306 766.66 233.626 766.66C232.946 766.66 232.366 766.907 231.886 767.4C231.42 767.88 231.186 768.547 231.186 769.4C231.186 770.253 231.42 770.933 231.886 771.44C232.366 771.933 232.946 772.18 233.626 772.18C234.306 772.18 234.88 771.933 235.346 771.44C235.826 770.947 236.066 770.273 236.066 769.42ZM245.381 765.7C245.781 765.087 246.281 764.607 246.881 764.26C247.481 763.9 248.147 763.72 248.881 763.72V767.34H247.941C247.087 767.34 246.447 767.527 246.021 767.9C245.594 768.26 245.381 768.9 245.381 769.82V775H241.961V763.84H245.381V765.7Z" fill="white"/>
<circle cx="196.5" cy="206.5" r="86.5" fill="#D9D9D9"/>
<rect width="393" height="72" fill="white"/>
<path d="M35.9187 45.105C35.1487 45.105 34.4587 44.98 33.8487 44.73C33.2387 44.48 32.7487 44.11 32.3787 43.62C32.0187 43.13 31.8287 42.54 31.8087 41.85H34.5387C34.5787 42.24 34.7137 42.54 34.9437 42.75C35.1737 42.95 35.4737 43.05 35.8437 43.05C36.2237 43.05 36.5237 42.965 36.7437 42.795C36.9637 42.615 37.0737 42.37 37.0737 42.06C37.0737 41.8 36.9837 41.585 36.8037 41.415C36.6337 41.245 36.4187 41.105 36.1587 40.995C35.9087 40.885 35.5487 40.76 35.0787 40.62C34.3987 40.41 33.8437 40.2 33.4137 39.99C32.9837 39.78 32.6137 39.47 32.3037 39.06C31.9937 38.65 31.8387 38.115 31.8387 37.455C31.8387 36.475 32.1937 35.71 32.9037 35.16C33.6137 34.6 34.5387 34.32 35.6787 34.32C36.8387 34.32 37.7737 34.6 38.4837 35.16C39.1937 35.71 39.5737 36.48 39.6237 37.47H36.8487C36.8287 37.13 36.7037 36.865 36.4737 36.675C36.2437 36.475 35.9487 36.375 35.5887 36.375C35.2787 36.375 35.0287 36.46 34.8387 36.63C34.6487 36.79 34.5537 37.025 34.5537 37.335C34.5537 37.675 34.7137 37.94 35.0337 38.13C35.3537 38.32 35.8537 38.525 36.5337 38.745C37.2137 38.975 37.7637 39.195 38.1837 39.405C38.6137 39.615 38.9837 39.92 39.2937 40.32C39.6037 40.72 39.7587 41.235 39.7587 41.865C39.7587 42.465 39.6037 43.01 39.2937 43.5C38.9937 43.99 38.5537 44.38 37.9737 44.67C37.3937 44.96 36.7087 45.105 35.9187 45.105ZM43.8572 34.47V40.77C43.8572 41.4 44.0122 41.885 44.3222 42.225C44.6322 42.565 45.0872 42.735 45.6872 42.735C46.2872 42.735 46.7472 42.565 47.0672 42.225C47.3872 41.885 47.5472 41.4 47.5472 40.77V34.47H50.1122V40.755C50.1122 41.695 49.9122 42.49 49.5122 43.14C49.1122 43.79 48.5722 44.28 47.8922 44.61C47.2222 44.94 46.4722 45.105 45.6422 45.105C44.8122 45.105 44.0672 44.945 43.4072 44.625C42.7572 44.295 42.2422 43.805 41.8622 43.155C41.4822 42.495 41.2922 41.695 41.2922 40.755V34.47H43.8572ZM58.4684 43.14H54.5384L53.9084 45H51.2234L55.0334 34.47H58.0034L61.8134 45H59.0984L58.4684 43.14ZM57.8084 41.16L56.5034 37.305L55.2134 41.16H57.8084ZM69.963 37.8C69.773 37.45 69.498 37.185 69.138 37.005C68.788 36.815 68.373 36.72 67.893 36.72C67.063 36.72 66.398 36.995 65.898 37.545C65.398 38.085 65.148 38.81 65.148 39.72C65.148 40.69 65.408 41.45 65.928 42C66.458 42.54 67.183 42.81 68.103 42.81C68.733 42.81 69.263 42.65 69.693 42.33C70.133 42.01 70.453 41.55 70.653 40.95H67.398V39.06H72.978V41.445C72.788 42.085 72.463 42.68 72.003 43.23C71.553 43.78 70.978 44.225 70.278 44.565C69.578 44.905 68.788 45.075 67.908 45.075C66.868 45.075 65.938 44.85 65.118 44.4C64.308 43.94 63.673 43.305 63.213 42.495C62.763 41.685 62.538 40.76 62.538 39.72C62.538 38.68 62.763 37.755 63.213 36.945C63.673 36.125 64.308 35.49 65.118 35.04C65.928 34.58 66.853 34.35 67.893 34.35C69.153 34.35 70.213 34.655 71.073 35.265C71.943 35.875 72.518 36.72 72.798 37.8H69.963ZM76.9638 36.525V38.655H80.3988V40.635H76.9638V42.945H80.8488V45H74.3988V34.47H80.8488V36.525H76.9638ZM91.934 45H89.369L85.079 38.505V45H82.514V34.47H85.079L89.369 40.995V34.47H91.934V45ZM97.7383 34.47C98.8483 34.47 99.8183 34.69 100.648 35.13C101.478 35.57 102.118 36.19 102.568 36.99C103.028 37.78 103.258 38.695 103.258 39.735C103.258 40.765 103.028 41.68 102.568 42.48C102.118 43.28 101.473 43.9 100.633 44.34C99.8033 44.78 98.8383 45 97.7383 45H93.7933V34.47H97.7383ZM97.5733 42.78C98.5433 42.78 99.2983 42.515 99.8383 41.985C100.378 41.455 100.648 40.705 100.648 39.735C100.648 38.765 100.378 38.01 99.8383 37.47C99.2983 36.93 98.5433 36.66 97.5733 36.66H96.3583V42.78H97.5733ZM111.247 43.14H107.317L106.687 45H104.002L107.812 34.47H110.782L114.592 45H111.877L111.247 43.14ZM110.587 41.16L109.282 37.305L107.992 41.16H110.587Z" fill="black"/>
<rect x="31" y="435" width="336" height="47" rx="14" fill="#E9E9E9"/>
<path d="M62.42 466.18C61.58 466.18 60.8267 466.04 60.16 465.76C59.4933 465.467 58.9667 465.067 58.58 464.56C58.1933 464.04 57.98 463.447 57.94 462.78H59.82C59.8733 463.327 60.1267 463.773 60.58 464.12C61.0467 464.467 61.6533 464.64 62.4 464.64C63.0933 464.64 63.64 464.487 64.04 464.18C64.44 463.873 64.64 463.487 64.64 463.02C64.64 462.54 64.4267 462.187 64 461.96C63.5733 461.72 62.9133 461.487 62.02 461.26C61.2067 461.047 60.54 460.833 60.02 460.62C59.5133 460.393 59.0733 460.067 58.7 459.64C58.34 459.2 58.16 458.627 58.16 457.92C58.16 457.36 58.3267 456.847 58.66 456.38C58.9933 455.913 59.4667 455.547 60.08 455.28C60.6933 455 61.3933 454.86 62.18 454.86C63.3933 454.86 64.3733 455.167 65.12 455.78C65.8667 456.393 66.2667 457.233 66.32 458.3H64.5C64.46 457.727 64.2267 457.267 63.8 456.92C63.3867 456.573 62.8267 456.4 62.12 456.4C61.4667 456.4 60.9467 456.54 60.56 456.82C60.1733 457.1 59.98 457.467 59.98 457.92C59.98 458.28 60.0933 458.58 60.32 458.82C60.56 459.047 60.8533 459.233 61.2 459.38C61.56 459.513 62.0533 459.667 62.68 459.84C63.4667 460.053 64.1067 460.267 64.6 460.48C65.0933 460.68 65.5133 460.987 65.86 461.4C66.22 461.813 66.4067 462.353 66.42 463.02C66.42 463.62 66.2533 464.16 65.92 464.64C65.5867 465.12 65.1133 465.5 64.5 465.78C63.9 466.047 63.2067 466.18 62.42 466.18ZM78.9892 460.1C78.9892 460.447 78.9692 460.813 78.9292 461.2H70.1692C70.2359 462.28 70.6026 463.127 71.2692 463.74C71.9492 464.34 72.7692 464.64 73.7292 464.64C74.5159 464.64 75.1692 464.46 75.6892 464.1C76.2226 463.727 76.5959 463.233 76.8092 462.62H78.7692C78.4759 463.673 77.8892 464.533 77.0092 465.2C76.1292 465.853 75.0359 466.18 73.7292 466.18C72.6892 466.18 71.7559 465.947 70.9292 465.48C70.1159 465.013 69.4759 464.353 69.0092 463.5C68.5426 462.633 68.3092 461.633 68.3092 460.5C68.3092 459.367 68.5359 458.373 68.9892 457.52C69.4426 456.667 70.0759 456.013 70.8892 455.56C71.7159 455.093 72.6626 454.86 73.7292 454.86C74.7692 454.86 75.6892 455.087 76.4892 455.54C77.2892 455.993 77.9026 456.62 78.3292 457.42C78.7692 458.207 78.9892 459.1 78.9892 460.1ZM77.1092 459.72C77.1092 459.027 76.9559 458.433 76.6492 457.94C76.3426 457.433 75.9226 457.053 75.3892 456.8C74.8692 456.533 74.2892 456.4 73.6492 456.4C72.7292 456.4 71.9426 456.693 71.2892 457.28C70.6492 457.867 70.2826 458.68 70.1892 459.72H77.1092ZM91.1116 455.04V466H89.2916V464.38C88.9449 464.94 88.4582 465.38 87.8316 465.7C87.2182 466.007 86.5382 466.16 85.7916 466.16C84.9382 466.16 84.1716 465.987 83.4916 465.64C82.8116 465.28 82.2716 464.747 81.8716 464.04C81.4849 463.333 81.2916 462.473 81.2916 461.46V455.04H83.0916V461.22C83.0916 462.3 83.3649 463.133 83.9116 463.72C84.4582 464.293 85.2049 464.58 86.1516 464.58C87.1249 464.58 87.8916 464.28 88.4516 463.68C89.0116 463.08 89.2916 462.207 89.2916 461.06V455.04H91.1116ZM104.185 460.1C104.185 460.447 104.165 460.813 104.125 461.2H95.3645C95.4312 462.28 95.7979 463.127 96.4645 463.74C97.1445 464.34 97.9645 464.64 98.9245 464.64C99.7112 464.64 100.365 464.46 100.885 464.1C101.418 463.727 101.791 463.233 102.005 462.62H103.965C103.671 463.673 103.085 464.533 102.205 465.2C101.325 465.853 100.231 466.18 98.9245 466.18C97.8845 466.18 96.9512 465.947 96.1245 465.48C95.3112 465.013 94.6712 464.353 94.2045 463.5C93.7379 462.633 93.5045 461.633 93.5045 460.5C93.5045 459.367 93.7312 458.373 94.1845 457.52C94.6379 456.667 95.2712 456.013 96.0845 455.56C96.9112 455.093 97.8579 454.86 98.9245 454.86C99.9645 454.86 100.885 455.087 101.685 455.54C102.485 455.993 103.098 456.62 103.525 457.42C103.965 458.207 104.185 459.1 104.185 460.1ZM102.305 459.72C102.305 459.027 102.151 458.433 101.845 457.94C101.538 457.433 101.118 457.053 100.585 456.8C100.065 456.533 99.4845 456.4 98.8445 456.4C97.9245 456.4 97.1379 456.693 96.4845 457.28C95.8445 457.867 95.4779 458.68 95.3845 459.72H102.305ZM119.767 454.84C120.62 454.84 121.38 455.02 122.047 455.38C122.714 455.727 123.24 456.253 123.627 456.96C124.014 457.667 124.207 458.527 124.207 459.54V466H122.407V459.8C122.407 458.707 122.134 457.873 121.587 457.3C121.054 456.713 120.327 456.42 119.407 456.42C118.46 456.42 117.707 456.727 117.147 457.34C116.587 457.94 116.307 458.813 116.307 459.96V466H114.507V459.8C114.507 458.707 114.234 457.873 113.687 457.3C113.154 456.713 112.427 456.42 111.507 456.42C110.56 456.42 109.807 456.727 109.247 457.34C108.687 457.94 108.407 458.813 108.407 459.96V466H106.587V455.04H108.407V456.62C108.767 456.047 109.247 455.607 109.847 455.3C110.46 454.993 111.134 454.84 111.867 454.84C112.787 454.84 113.6 455.047 114.307 455.46C115.014 455.873 115.54 456.48 115.887 457.28C116.194 456.507 116.7 455.907 117.407 455.48C118.114 455.053 118.9 454.84 119.767 454.84ZM126.512 460.48C126.512 459.36 126.739 458.38 127.192 457.54C127.646 456.687 128.266 456.027 129.052 455.56C129.852 455.093 130.739 454.86 131.712 454.86C132.672 454.86 133.506 455.067 134.212 455.48C134.919 455.893 135.446 456.413 135.792 457.04V455.04H137.632V466H135.792V463.96C135.432 464.6 134.892 465.133 134.172 465.56C133.466 465.973 132.639 466.18 131.692 466.18C130.719 466.18 129.839 465.94 129.052 465.46C128.266 464.98 127.646 464.307 127.192 463.44C126.739 462.573 126.512 461.587 126.512 460.48ZM135.792 460.5C135.792 459.673 135.626 458.953 135.292 458.34C134.959 457.727 134.506 457.26 133.932 456.94C133.372 456.607 132.752 456.44 132.072 456.44C131.392 456.44 130.772 456.6 130.212 456.92C129.652 457.24 129.206 457.707 128.872 458.32C128.539 458.933 128.372 459.653 128.372 460.48C128.372 461.32 128.539 462.053 128.872 462.68C129.206 463.293 129.652 463.767 130.212 464.1C130.772 464.42 131.392 464.58 132.072 464.58C132.752 464.58 133.372 464.42 133.932 464.1C134.506 463.767 134.959 463.293 135.292 462.68C135.626 462.053 135.792 461.327 135.792 460.5ZM141.648 453.26C141.301 453.26 141.008 453.14 140.768 452.9C140.528 452.66 140.408 452.367 140.408 452.02C140.408 451.673 140.528 451.38 140.768 451.14C141.008 450.9 141.301 450.78 141.648 450.78C141.981 450.78 142.261 450.9 142.488 451.14C142.728 451.38 142.848 451.673 142.848 452.02C142.848 452.367 142.728 452.66 142.488 452.9C142.261 453.14 141.981 453.26 141.648 453.26ZM142.528 455.04V466H140.708V455.04H142.528ZM147.45 451.2V466H145.63V451.2H147.45ZM160.552 453.18C162.032 453.18 163.318 453.46 164.412 454.02C165.505 454.58 166.345 455.367 166.932 456.38C167.518 457.38 167.812 458.54 167.812 459.86C167.812 460.913 167.638 461.927 167.292 462.9C166.945 463.86 166.438 464.64 165.772 465.24C165.118 465.84 164.352 466.14 163.472 466.14C162.805 466.14 162.292 465.973 161.932 465.64C161.572 465.307 161.365 464.853 161.312 464.28C160.898 464.853 160.372 465.307 159.732 465.64C159.105 465.973 158.438 466.14 157.732 466.14C156.718 466.14 155.918 465.833 155.332 465.22C154.758 464.593 154.472 463.753 154.472 462.7C154.472 461.7 154.678 460.767 155.092 459.9C155.518 459.033 156.105 458.34 156.852 457.82C157.598 457.287 158.445 457.02 159.392 457.02C160.658 457.02 161.512 457.5 161.952 458.46L162.172 457.22H163.752L162.752 463C162.712 463.253 162.692 463.487 162.692 463.7C162.692 464.5 163.045 464.9 163.752 464.9C164.285 464.9 164.745 464.647 165.132 464.14C165.532 463.633 165.832 463 166.032 462.24C166.232 461.467 166.332 460.707 166.332 459.96C166.332 458.213 165.805 456.86 164.752 455.9C163.712 454.94 162.238 454.46 160.332 454.46C158.745 454.46 157.312 454.847 156.032 455.62C154.765 456.38 153.772 457.427 153.052 458.76C152.332 460.093 151.972 461.567 151.972 463.18C151.958 464.94 152.485 466.293 153.552 467.24C154.618 468.2 156.098 468.68 157.992 468.68C159.245 468.68 160.352 468.453 161.312 468L161.552 469.24C160.365 469.733 159.058 469.98 157.632 469.98C156.205 469.98 154.945 469.707 153.852 469.16C152.772 468.627 151.932 467.853 151.332 466.84C150.745 465.84 150.452 464.673 150.452 463.34C150.452 461.46 150.885 459.747 151.752 458.2C152.618 456.64 153.818 455.413 155.352 454.52C156.898 453.627 158.632 453.18 160.552 453.18ZM158.272 464.72C158.872 464.72 159.425 464.547 159.932 464.2C160.438 463.84 160.838 463.36 161.132 462.76C161.425 462.147 161.572 461.48 161.572 460.76C161.572 460.067 161.378 459.507 160.992 459.08C160.618 458.64 160.085 458.42 159.392 458.42C158.752 458.42 158.185 458.613 157.692 459C157.212 459.373 156.838 459.873 156.572 460.5C156.305 461.113 156.172 461.753 156.172 462.42C156.172 463.127 156.352 463.687 156.712 464.1C157.072 464.513 157.592 464.72 158.272 464.72ZM175.326 454.86C176.272 454.86 177.099 455.067 177.806 455.48C178.526 455.893 179.059 456.413 179.406 457.04V455.04H181.246V466.24C181.246 467.24 181.032 468.127 180.606 468.9C180.179 469.687 179.566 470.3 178.766 470.74C177.979 471.18 177.059 471.4 176.006 471.4C174.566 471.4 173.366 471.06 172.406 470.38C171.446 469.7 170.879 468.773 170.706 467.6H172.506C172.706 468.267 173.119 468.8 173.746 469.2C174.372 469.613 175.126 469.82 176.006 469.82C177.006 469.82 177.819 469.507 178.446 468.88C179.086 468.253 179.406 467.373 179.406 466.24V463.94C179.046 464.58 178.512 465.113 177.806 465.54C177.099 465.967 176.272 466.18 175.326 466.18C174.352 466.18 173.466 465.94 172.666 465.46C171.879 464.98 171.259 464.307 170.806 463.44C170.352 462.573 170.126 461.587 170.126 460.48C170.126 459.36 170.352 458.38 170.806 457.54C171.259 456.687 171.879 456.027 172.666 455.56C173.466 455.093 174.352 454.86 175.326 454.86ZM179.406 460.5C179.406 459.673 179.239 458.953 178.906 458.34C178.572 457.727 178.119 457.26 177.546 456.94C176.986 456.607 176.366 456.44 175.686 456.44C175.006 456.44 174.386 456.6 173.826 456.92C173.266 457.24 172.819 457.707 172.486 458.32C172.152 458.933 171.986 459.653 171.986 460.48C171.986 461.32 172.152 462.053 172.486 462.68C172.819 463.293 173.266 463.767 173.826 464.1C174.386 464.42 175.006 464.58 175.686 464.58C176.366 464.58 176.986 464.42 177.546 464.1C178.119 463.767 178.572 463.293 178.906 462.68C179.239 462.053 179.406 461.327 179.406 460.5ZM197.501 454.84C198.355 454.84 199.115 455.02 199.781 455.38C200.448 455.727 200.975 456.253 201.361 456.96C201.748 457.667 201.941 458.527 201.941 459.54V466H200.141V459.8C200.141 458.707 199.868 457.873 199.321 457.3C198.788 456.713 198.061 456.42 197.141 456.42C196.195 456.42 195.441 456.727 194.881 457.34C194.321 457.94 194.041 458.813 194.041 459.96V466H192.241V459.8C192.241 458.707 191.968 457.873 191.421 457.3C190.888 456.713 190.161 456.42 189.241 456.42C188.295 456.42 187.541 456.727 186.981 457.34C186.421 457.94 186.141 458.813 186.141 459.96V466H184.321V455.04H186.141V456.62C186.501 456.047 186.981 455.607 187.581 455.3C188.195 454.993 188.868 454.84 189.601 454.84C190.521 454.84 191.335 455.047 192.041 455.46C192.748 455.873 193.275 456.48 193.621 457.28C193.928 456.507 194.435 455.907 195.141 455.48C195.848 455.053 196.635 454.84 197.501 454.84ZM204.247 460.48C204.247 459.36 204.473 458.38 204.927 457.54C205.38 456.687 206 456.027 206.787 455.56C207.587 455.093 208.473 454.86 209.447 454.86C210.407 454.86 211.24 455.067 211.947 455.48C212.653 455.893 213.18 456.413 213.527 457.04V455.04H215.367V466H213.527V463.96C213.167 464.6 212.627 465.133 211.907 465.56C211.2 465.973 210.373 466.18 209.427 466.18C208.453 466.18 207.573 465.94 206.787 465.46C206 464.98 205.38 464.307 204.927 463.44C204.473 462.573 204.247 461.587 204.247 460.48ZM213.527 460.5C213.527 459.673 213.36 458.953 213.027 458.34C212.693 457.727 212.24 457.26 211.667 456.94C211.107 456.607 210.487 456.44 209.807 456.44C209.127 456.44 208.507 456.6 207.947 456.92C207.387 457.24 206.94 457.707 206.607 458.32C206.273 458.933 206.107 459.653 206.107 460.48C206.107 461.32 206.273 462.053 206.607 462.68C206.94 463.293 207.387 463.767 207.947 464.1C208.507 464.42 209.127 464.58 209.807 464.58C210.487 464.58 211.107 464.42 211.667 464.1C212.24 463.767 212.693 463.293 213.027 462.68C213.36 462.053 213.527 461.327 213.527 460.5ZM219.382 453.26C219.036 453.26 218.742 453.14 218.502 452.9C218.262 452.66 218.142 452.367 218.142 452.02C218.142 451.673 218.262 451.38 218.502 451.14C218.742 450.9 219.036 450.78 219.382 450.78C219.716 450.78 219.996 450.9 220.222 451.14C220.462 451.38 220.582 451.673 220.582 452.02C220.582 452.367 220.462 452.66 220.222 452.9C219.996 453.14 219.716 453.26 219.382 453.26ZM220.262 455.04V466H218.442V455.04H220.262ZM225.184 451.2V466H223.364V451.2H225.184ZM228.866 466.12C228.519 466.12 228.226 466 227.986 465.76C227.746 465.52 227.626 465.227 227.626 464.88C227.626 464.533 227.746 464.24 227.986 464C228.226 463.76 228.519 463.64 228.866 463.64C229.199 463.64 229.479 463.76 229.706 464C229.946 464.24 230.066 464.533 230.066 464.88C230.066 465.227 229.946 465.52 229.706 465.76C229.479 466 229.199 466.12 228.866 466.12ZM231.805 460.5C231.805 459.367 232.032 458.38 232.485 457.54C232.939 456.687 233.565 456.027 234.365 455.56C235.179 455.093 236.105 454.86 237.145 454.86C238.492 454.86 239.599 455.187 240.465 455.84C241.345 456.493 241.925 457.4 242.205 458.56H240.245C240.059 457.893 239.692 457.367 239.145 456.98C238.612 456.593 237.945 456.4 237.145 456.4C236.105 456.4 235.265 456.76 234.625 457.48C233.985 458.187 233.665 459.193 233.665 460.5C233.665 461.82 233.985 462.84 234.625 463.56C235.265 464.28 236.105 464.64 237.145 464.64C237.945 464.64 238.612 464.453 239.145 464.08C239.679 463.707 240.045 463.173 240.245 462.48H242.205C241.912 463.6 241.325 464.5 240.445 465.18C239.565 465.847 238.465 466.18 237.145 466.18C236.105 466.18 235.179 465.947 234.365 465.48C233.565 465.013 232.939 464.353 232.485 463.5C232.032 462.647 231.805 461.647 231.805 460.5ZM249.414 466.18C248.387 466.18 247.454 465.947 246.614 465.48C245.787 465.013 245.134 464.353 244.654 463.5C244.187 462.633 243.954 461.633 243.954 460.5C243.954 459.38 244.194 458.393 244.674 457.54C245.167 456.673 245.834 456.013 246.674 455.56C247.514 455.093 248.454 454.86 249.494 454.86C250.534 454.86 251.474 455.093 252.314 455.56C253.154 456.013 253.814 456.667 254.294 457.52C254.787 458.373 255.034 459.367 255.034 460.5C255.034 461.633 254.78 462.633 254.274 463.5C253.78 464.353 253.107 465.013 252.254 465.48C251.4 465.947 250.454 466.18 249.414 466.18ZM249.414 464.58C250.067 464.58 250.68 464.427 251.254 464.12C251.827 463.813 252.287 463.353 252.634 462.74C252.994 462.127 253.174 461.38 253.174 460.5C253.174 459.62 253 458.873 252.654 458.26C252.307 457.647 251.854 457.193 251.294 456.9C250.734 456.593 250.127 456.44 249.474 456.44C248.807 456.44 248.194 456.593 247.634 456.9C247.087 457.193 246.647 457.647 246.314 458.26C245.98 458.873 245.814 459.62 245.814 460.5C245.814 461.393 245.974 462.147 246.294 462.76C246.627 463.373 247.067 463.833 247.614 464.14C248.16 464.433 248.76 464.58 249.414 464.58ZM270.607 454.84C271.46 454.84 272.22 455.02 272.887 455.38C273.553 455.727 274.08 456.253 274.467 456.96C274.853 457.667 275.047 458.527 275.047 459.54V466H273.247V459.8C273.247 458.707 272.973 457.873 272.427 457.3C271.893 456.713 271.167 456.42 270.247 456.42C269.3 456.42 268.547 456.727 267.987 457.34C267.427 457.94 267.147 458.813 267.147 459.96V466H265.347V459.8C265.347 458.707 265.073 457.873 264.527 457.3C263.993 456.713 263.267 456.42 262.347 456.42C261.4 456.42 260.647 456.727 260.087 457.34C259.527 457.94 259.247 458.813 259.247 459.96V466H257.427V455.04H259.247V456.62C259.607 456.047 260.087 455.607 260.687 455.3C261.3 454.993 261.973 454.84 262.707 454.84C263.627 454.84 264.44 455.047 265.147 455.46C265.853 455.873 266.38 456.48 266.727 457.28C267.033 456.507 267.54 455.907 268.247 455.48C268.953 455.053 269.74 454.84 270.607 454.84Z" fill="black" fill-opacity="0.7"/>
<path d="M33.352 420.278V423.54H36.908V424.59H33.352V427.95H37.328V429H32.078V419.228H37.328V420.278H33.352ZM44.5757 423.33V424.408H38.9897V423.33H44.5757ZM56.1927 421.188C56.79 421.188 57.322 421.314 57.7887 421.566C58.2553 421.809 58.624 422.177 58.8947 422.672C59.1653 423.167 59.3007 423.769 59.3007 424.478V429H58.0407V424.66C58.0407 423.895 57.8493 423.311 57.4667 422.91C57.0933 422.499 56.5847 422.294 55.9407 422.294C55.278 422.294 54.7507 422.509 54.3587 422.938C53.9667 423.358 53.7707 423.969 53.7707 424.772V429H52.5107V424.66C52.5107 423.895 52.3193 423.311 51.9367 422.91C51.5633 422.499 51.0547 422.294 50.4107 422.294C49.748 422.294 49.2207 422.509 48.8287 422.938C48.4367 423.358 48.2407 423.969 48.2407 424.772V429H46.9667V421.328H48.2407V422.434C48.4927 422.033 48.8287 421.725 49.2487 421.51C49.678 421.295 50.1493 421.188 50.6627 421.188C51.3067 421.188 51.876 421.333 52.3707 421.622C52.8653 421.911 53.234 422.336 53.4767 422.896C53.6913 422.355 54.046 421.935 54.5407 421.636C55.0353 421.337 55.586 421.188 56.1927 421.188ZM60.9145 425.136C60.9145 424.352 61.0732 423.666 61.3905 423.078C61.7078 422.481 62.1418 422.019 62.6925 421.692C63.2525 421.365 63.8732 421.202 64.5545 421.202C65.2265 421.202 65.8098 421.347 66.3045 421.636C66.7992 421.925 67.1678 422.289 67.4105 422.728V421.328H68.6985V429H67.4105V427.572C67.1585 428.02 66.7805 428.393 66.2765 428.692C65.7818 428.981 65.2032 429.126 64.5405 429.126C63.8592 429.126 63.2432 428.958 62.6925 428.622C62.1418 428.286 61.7078 427.815 61.3905 427.208C61.0732 426.601 60.9145 425.911 60.9145 425.136ZM67.4105 425.15C67.4105 424.571 67.2938 424.067 67.0605 423.638C66.8272 423.209 66.5098 422.882 66.1085 422.658C65.7165 422.425 65.2825 422.308 64.8065 422.308C64.3305 422.308 63.8965 422.42 63.5045 422.644C63.1125 422.868 62.7998 423.195 62.5665 423.624C62.3332 424.053 62.2165 424.557 62.2165 425.136C62.2165 425.724 62.3332 426.237 62.5665 426.676C62.7998 427.105 63.1125 427.437 63.5045 427.67C63.8965 427.894 64.3305 428.006 64.8065 428.006C65.2825 428.006 65.7165 427.894 66.1085 427.67C66.5098 427.437 66.8272 427.105 67.0605 426.676C67.2938 426.237 67.4105 425.729 67.4105 425.15ZM71.5094 420.082C71.2668 420.082 71.0614 419.998 70.8934 419.83C70.7254 419.662 70.6414 419.457 70.6414 419.214C70.6414 418.971 70.7254 418.766 70.8934 418.598C71.0614 418.43 71.2668 418.346 71.5094 418.346C71.7428 418.346 71.9388 418.43 72.0974 418.598C72.2654 418.766 72.3494 418.971 72.3494 419.214C72.3494 419.457 72.2654 419.662 72.0974 419.83C71.9388 419.998 71.7428 420.082 71.5094 420.082ZM72.1254 421.328V429H70.8514V421.328H72.1254ZM75.5708 418.64V429H74.2968V418.64H75.5708Z" fill="black"/>
<path d="M33.352 420.278V423.54H36.908V424.59H33.352V427.95H37.328V429H32.078V419.228H37.328V420.278H33.352ZM44.5757 423.33V424.408H38.9897V423.33H44.5757ZM56.1927 421.188C56.79 421.188 57.322 421.314 57.7887 421.566C58.2553 421.809 58.624 422.177 58.8947 422.672C59.1653 423.167 59.3007 423.769 59.3007 424.478V429H58.0407V424.66C58.0407 423.895 57.8493 423.311 57.4667 422.91C57.0933 422.499 56.5847 422.294 55.9407 422.294C55.278 422.294 54.7507 422.509 54.3587 422.938C53.9667 423.358 53.7707 423.969 53.7707 424.772V429H52.5107V424.66C52.5107 423.895 52.3193 423.311 51.9367 422.91C51.5633 422.499 51.0547 422.294 50.4107 422.294C49.748 422.294 49.2207 422.509 48.8287 422.938C48.4367 423.358 48.2407 423.969 48.2407 424.772V429H46.9667V421.328H48.2407V422.434C48.4927 422.033 48.8287 421.725 49.2487 421.51C49.678 421.295 50.1493 421.188 50.6627 421.188C51.3067 421.188 51.876 421.333 52.3707 421.622C52.8653 421.911 53.234 422.336 53.4767 422.896C53.6913 422.355 54.046 421.935 54.5407 421.636C55.0353 421.337 55.586 421.188 56.1927 421.188ZM60.9145 425.136C60.9145 424.352 61.0732 423.666 61.3905 423.078C61.7078 422.481 62.1418 422.019 62.6925 421.692C63.2525 421.365 63.8732 421.202 64.5545 421.202C65.2265 421.202 65.8098 421.347 66.3045 421.636C66.7992 421.925 67.1678 422.289 67.4105 422.728V421.328H68.6985V429H67.4105V427.572C67.1585 428.02 66.7805 428.393 66.2765 428.692C65.7818 428.981 65.2032 429.126 64.5405 429.126C63.8592 429.126 63.2432 428.958 62.6925 428.622C62.1418 428.286 61.7078 427.815 61.3905 427.208C61.0732 426.601 60.9145 425.911 60.9145 425.136ZM67.4105 425.15C67.4105 424.571 67.2938 424.067 67.0605 423.638C66.8272 423.209 66.5098 422.882 66.1085 422.658C65.7165 422.425 65.2825 422.308 64.8065 422.308C64.3305 422.308 63.8965 422.42 63.5045 422.644C63.1125 422.868 62.7998 423.195 62.5665 423.624C62.3332 424.053 62.2165 424.557 62.2165 425.136C62.2165 425.724 62.3332 426.237 62.5665 426.676C62.7998 427.105 63.1125 427.437 63.5045 427.67C63.8965 427.894 64.3305 428.006 64.8065 428.006C65.2825 428.006 65.7165 427.894 66.1085 427.67C66.5098 427.437 66.8272 427.105 67.0605 426.676C67.2938 426.237 67.4105 425.729 67.4105 425.15ZM71.5094 420.082C71.2668 420.082 71.0614 419.998 70.8934 419.83C70.7254 419.662 70.6414 419.457 70.6414 419.214C70.6414 418.971 70.7254 418.766 70.8934 418.598C71.0614 418.43 71.2668 418.346 71.5094 418.346C71.7428 418.346 71.9388 418.43 72.0974 418.598C72.2654 418.766 72.3494 418.971 72.3494 419.214C72.3494 419.457 72.2654 419.662 72.0974 419.83C71.9388 419.998 71.7428 420.082 71.5094 420.082ZM72.1254 421.328V429H70.8514V421.328H72.1254ZM75.5708 418.64V429H74.2968V418.64H75.5708Z" fill="black"/>
<rect x="31" y="512" width="336" height="47" rx="14" fill="#E9E9E9"/>
<path d="M62.42 543.18C61.58 543.18 60.8267 543.04 60.16 542.76C59.4933 542.467 58.9667 542.067 58.58 541.56C58.1933 541.04 57.98 540.447 57.94 539.78H59.82C59.8733 540.327 60.1267 540.773 60.58 541.12C61.0467 541.467 61.6533 541.64 62.4 541.64C63.0933 541.64 63.64 541.487 64.04 541.18C64.44 540.873 64.64 540.487 64.64 540.02C64.64 539.54 64.4267 539.187 64 538.96C63.5733 538.72 62.9133 538.487 62.02 538.26C61.2067 538.047 60.54 537.833 60.02 537.62C59.5133 537.393 59.0733 537.067 58.7 536.64C58.34 536.2 58.16 535.627 58.16 534.92C58.16 534.36 58.3267 533.847 58.66 533.38C58.9933 532.913 59.4667 532.547 60.08 532.28C60.6933 532 61.3933 531.86 62.18 531.86C63.3933 531.86 64.3733 532.167 65.12 532.78C65.8667 533.393 66.2667 534.233 66.32 535.3H64.5C64.46 534.727 64.2267 534.267 63.8 533.92C63.3867 533.573 62.8267 533.4 62.12 533.4C61.4667 533.4 60.9467 533.54 60.56 533.82C60.1733 534.1 59.98 534.467 59.98 534.92C59.98 535.28 60.0933 535.58 60.32 535.82C60.56 536.047 60.8533 536.233 61.2 536.38C61.56 536.513 62.0533 536.667 62.68 536.84C63.4667 537.053 64.1067 537.267 64.6 537.48C65.0933 537.68 65.5133 537.987 65.86 538.4C66.22 538.813 66.4067 539.353 66.42 540.02C66.42 540.62 66.2533 541.16 65.92 541.64C65.5867 542.12 65.1133 542.5 64.5 542.78C63.9 543.047 63.2067 543.18 62.42 543.18ZM78.9892 537.1C78.9892 537.447 78.9692 537.813 78.9292 538.2H70.1692C70.2359 539.28 70.6026 540.127 71.2692 540.74C71.9492 541.34 72.7692 541.64 73.7292 541.64C74.5159 541.64 75.1692 541.46 75.6892 541.1C76.2226 540.727 76.5959 540.233 76.8092 539.62H78.7692C78.4759 540.673 77.8892 541.533 77.0092 542.2C76.1292 542.853 75.0359 543.18 73.7292 543.18C72.6892 543.18 71.7559 542.947 70.9292 542.48C70.1159 542.013 69.4759 541.353 69.0092 540.5C68.5426 539.633 68.3092 538.633 68.3092 537.5C68.3092 536.367 68.5359 535.373 68.9892 534.52C69.4426 533.667 70.0759 533.013 70.8892 532.56C71.7159 532.093 72.6626 531.86 73.7292 531.86C74.7692 531.86 75.6892 532.087 76.4892 532.54C77.2892 532.993 77.9026 533.62 78.3292 534.42C78.7692 535.207 78.9892 536.1 78.9892 537.1ZM77.1092 536.72C77.1092 536.027 76.9559 535.433 76.6492 534.94C76.3426 534.433 75.9226 534.053 75.3892 533.8C74.8692 533.533 74.2892 533.4 73.6492 533.4C72.7292 533.4 71.9426 533.693 71.2892 534.28C70.6492 534.867 70.2826 535.68 70.1892 536.72H77.1092ZM91.1116 532.04V543H89.2916V541.38C88.9449 541.94 88.4582 542.38 87.8316 542.7C87.2182 543.007 86.5382 543.16 85.7916 543.16C84.9382 543.16 84.1716 542.987 83.4916 542.64C82.8116 542.28 82.2716 541.747 81.8716 541.04C81.4849 540.333 81.2916 539.473 81.2916 538.46V532.04H83.0916V538.22C83.0916 539.3 83.3649 540.133 83.9116 540.72C84.4582 541.293 85.2049 541.58 86.1516 541.58C87.1249 541.58 87.8916 541.28 88.4516 540.68C89.0116 540.08 89.2916 539.207 89.2916 538.06V532.04H91.1116ZM104.185 537.1C104.185 537.447 104.165 537.813 104.125 538.2H95.3645C95.4312 539.28 95.7979 540.127 96.4645 540.74C97.1445 541.34 97.9645 541.64 98.9245 541.64C99.7112 541.64 100.365 541.46 100.885 541.1C101.418 540.727 101.791 540.233 102.005 539.62H103.965C103.671 540.673 103.085 541.533 102.205 542.2C101.325 542.853 100.231 543.18 98.9245 543.18C97.8845 543.18 96.9512 542.947 96.1245 542.48C95.3112 542.013 94.6712 541.353 94.2045 540.5C93.7379 539.633 93.5045 538.633 93.5045 537.5C93.5045 536.367 93.7312 535.373 94.1845 534.52C94.6379 533.667 95.2712 533.013 96.0845 532.56C96.9112 532.093 97.8579 531.86 98.9245 531.86C99.9645 531.86 100.885 532.087 101.685 532.54C102.485 532.993 103.098 533.62 103.525 534.42C103.965 535.207 104.185 536.1 104.185 537.1ZM102.305 536.72C102.305 536.027 102.151 535.433 101.845 534.94C101.538 534.433 101.118 534.053 100.585 533.8C100.065 533.533 99.4845 533.4 98.8445 533.4C97.9245 533.4 97.1379 533.693 96.4845 534.28C95.8445 534.867 95.4779 535.68 95.3845 536.72H102.305ZM119.767 531.84C120.62 531.84 121.38 532.02 122.047 532.38C122.714 532.727 123.24 533.253 123.627 533.96C124.014 534.667 124.207 535.527 124.207 536.54V543H122.407V536.8C122.407 535.707 122.134 534.873 121.587 534.3C121.054 533.713 120.327 533.42 119.407 533.42C118.46 533.42 117.707 533.727 117.147 534.34C116.587 534.94 116.307 535.813 116.307 536.96V543H114.507V536.8C114.507 535.707 114.234 534.873 113.687 534.3C113.154 533.713 112.427 533.42 111.507 533.42C110.56 533.42 109.807 533.727 109.247 534.34C108.687 534.94 108.407 535.813 108.407 536.96V543H106.587V532.04H108.407V533.62C108.767 533.047 109.247 532.607 109.847 532.3C110.46 531.993 111.134 531.84 111.867 531.84C112.787 531.84 113.6 532.047 114.307 532.46C115.014 532.873 115.54 533.48 115.887 534.28C116.194 533.507 116.7 532.907 117.407 532.48C118.114 532.053 118.9 531.84 119.767 531.84ZM126.512 537.48C126.512 536.36 126.739 535.38 127.192 534.54C127.646 533.687 128.266 533.027 129.052 532.56C129.852 532.093 130.739 531.86 131.712 531.86C132.672 531.86 133.506 532.067 134.212 532.48C134.919 532.893 135.446 533.413 135.792 534.04V532.04H137.632V543H135.792V540.96C135.432 541.6 134.892 542.133 134.172 542.56C133.466 542.973 132.639 543.18 131.692 543.18C130.719 543.18 129.839 542.94 129.052 542.46C128.266 541.98 127.646 541.307 127.192 540.44C126.739 539.573 126.512 538.587 126.512 537.48ZM135.792 537.5C135.792 536.673 135.626 535.953 135.292 535.34C134.959 534.727 134.506 534.26 133.932 533.94C133.372 533.607 132.752 533.44 132.072 533.44C131.392 533.44 130.772 533.6 130.212 533.92C129.652 534.24 129.206 534.707 128.872 535.32C128.539 535.933 128.372 536.653 128.372 537.48C128.372 538.32 128.539 539.053 128.872 539.68C129.206 540.293 129.652 540.767 130.212 541.1C130.772 541.42 131.392 541.58 132.072 541.58C132.752 541.58 133.372 541.42 133.932 541.1C134.506 540.767 134.959 540.293 135.292 539.68C135.626 539.053 135.792 538.327 135.792 537.5ZM141.648 530.26C141.301 530.26 141.008 530.14 140.768 529.9C140.528 529.66 140.408 529.367 140.408 529.02C140.408 528.673 140.528 528.38 140.768 528.14C141.008 527.9 141.301 527.78 141.648 527.78C141.981 527.78 142.261 527.9 142.488 528.14C142.728 528.38 142.848 528.673 142.848 529.02C142.848 529.367 142.728 529.66 142.488 529.9C142.261 530.14 141.981 530.26 141.648 530.26ZM142.528 532.04V543H140.708V532.04H142.528ZM147.45 528.2V543H145.63V528.2H147.45ZM160.552 530.18C162.032 530.18 163.318 530.46 164.412 531.02C165.505 531.58 166.345 532.367 166.932 533.38C167.518 534.38 167.812 535.54 167.812 536.86C167.812 537.913 167.638 538.927 167.292 539.9C166.945 540.86 166.438 541.64 165.772 542.24C165.118 542.84 164.352 543.14 163.472 543.14C162.805 543.14 162.292 542.973 161.932 542.64C161.572 542.307 161.365 541.853 161.312 541.28C160.898 541.853 160.372 542.307 159.732 542.64C159.105 542.973 158.438 543.14 157.732 543.14C156.718 543.14 155.918 542.833 155.332 542.22C154.758 541.593 154.472 540.753 154.472 539.7C154.472 538.7 154.678 537.767 155.092 536.9C155.518 536.033 156.105 535.34 156.852 534.82C157.598 534.287 158.445 534.02 159.392 534.02C160.658 534.02 161.512 534.5 161.952 535.46L162.172 534.22H163.752L162.752 540C162.712 540.253 162.692 540.487 162.692 540.7C162.692 541.5 163.045 541.9 163.752 541.9C164.285 541.9 164.745 541.647 165.132 541.14C165.532 540.633 165.832 540 166.032 539.24C166.232 538.467 166.332 537.707 166.332 536.96C166.332 535.213 165.805 533.86 164.752 532.9C163.712 531.94 162.238 531.46 160.332 531.46C158.745 531.46 157.312 531.847 156.032 532.62C154.765 533.38 153.772 534.427 153.052 535.76C152.332 537.093 151.972 538.567 151.972 540.18C151.958 541.94 152.485 543.293 153.552 544.24C154.618 545.2 156.098 545.68 157.992 545.68C159.245 545.68 160.352 545.453 161.312 545L161.552 546.24C160.365 546.733 159.058 546.98 157.632 546.98C156.205 546.98 154.945 546.707 153.852 546.16C152.772 545.627 151.932 544.853 151.332 543.84C150.745 542.84 150.452 541.673 150.452 540.34C150.452 538.46 150.885 536.747 151.752 535.2C152.618 533.64 153.818 532.413 155.352 531.52C156.898 530.627 158.632 530.18 160.552 530.18ZM158.272 541.72C158.872 541.72 159.425 541.547 159.932 541.2C160.438 540.84 160.838 540.36 161.132 539.76C161.425 539.147 161.572 538.48 161.572 537.76C161.572 537.067 161.378 536.507 160.992 536.08C160.618 535.64 160.085 535.42 159.392 535.42C158.752 535.42 158.185 535.613 157.692 536C157.212 536.373 156.838 536.873 156.572 537.5C156.305 538.113 156.172 538.753 156.172 539.42C156.172 540.127 156.352 540.687 156.712 541.1C157.072 541.513 157.592 541.72 158.272 541.72ZM175.326 531.86C176.272 531.86 177.099 532.067 177.806 532.48C178.526 532.893 179.059 533.413 179.406 534.04V532.04H181.246V543.24C181.246 544.24 181.032 545.127 180.606 545.9C180.179 546.687 179.566 547.3 178.766 547.74C177.979 548.18 177.059 548.4 176.006 548.4C174.566 548.4 173.366 548.06 172.406 547.38C171.446 546.7 170.879 545.773 170.706 544.6H172.506C172.706 545.267 173.119 545.8 173.746 546.2C174.372 546.613 175.126 546.82 176.006 546.82C177.006 546.82 177.819 546.507 178.446 545.88C179.086 545.253 179.406 544.373 179.406 543.24V540.94C179.046 541.58 178.512 542.113 177.806 542.54C177.099 542.967 176.272 543.18 175.326 543.18C174.352 543.18 173.466 542.94 172.666 542.46C171.879 541.98 171.259 541.307 170.806 540.44C170.352 539.573 170.126 538.587 170.126 537.48C170.126 536.36 170.352 535.38 170.806 534.54C171.259 533.687 171.879 533.027 172.666 532.56C173.466 532.093 174.352 531.86 175.326 531.86ZM179.406 537.5C179.406 536.673 179.239 535.953 178.906 535.34C178.572 534.727 178.119 534.26 177.546 533.94C176.986 533.607 176.366 533.44 175.686 533.44C175.006 533.44 174.386 533.6 173.826 533.92C173.266 534.24 172.819 534.707 172.486 535.32C172.152 535.933 171.986 536.653 171.986 537.48C171.986 538.32 172.152 539.053 172.486 539.68C172.819 540.293 173.266 540.767 173.826 541.1C174.386 541.42 175.006 541.58 175.686 541.58C176.366 541.58 176.986 541.42 177.546 541.1C178.119 540.767 178.572 540.293 178.906 539.68C179.239 539.053 179.406 538.327 179.406 537.5ZM197.501 531.84C198.355 531.84 199.115 532.02 199.781 532.38C200.448 532.727 200.975 533.253 201.361 533.96C201.748 534.667 201.941 535.527 201.941 536.54V543H200.141V536.8C200.141 535.707 199.868 534.873 199.321 534.3C198.788 533.713 198.061 533.42 197.141 533.42C196.195 533.42 195.441 533.727 194.881 534.34C194.321 534.94 194.041 535.813 194.041 536.96V543H192.241V536.8C192.241 535.707 191.968 534.873 191.421 534.3C190.888 533.713 190.161 533.42 189.241 533.42C188.295 533.42 187.541 533.727 186.981 534.34C186.421 534.94 186.141 535.813 186.141 536.96V543H184.321V532.04H186.141V533.62C186.501 533.047 186.981 532.607 187.581 532.3C188.195 531.993 188.868 531.84 189.601 531.84C190.521 531.84 191.335 532.047 192.041 532.46C192.748 532.873 193.275 533.48 193.621 534.28C193.928 533.507 194.435 532.907 195.141 532.48C195.848 532.053 196.635 531.84 197.501 531.84ZM204.247 537.48C204.247 536.36 204.473 535.38 204.927 534.54C205.38 533.687 206 533.027 206.787 532.56C207.587 532.093 208.473 531.86 209.447 531.86C210.407 531.86 211.24 532.067 211.947 532.48C212.653 532.893 213.18 533.413 213.527 534.04V532.04H215.367V543H213.527V540.96C213.167 541.6 212.627 542.133 211.907 542.56C211.2 542.973 210.373 543.18 209.427 543.18C208.453 543.18 207.573 542.94 206.787 542.46C206 541.98 205.38 541.307 204.927 540.44C204.473 539.573 204.247 538.587 204.247 537.48ZM213.527 537.5C213.527 536.673 213.36 535.953 213.027 535.34C212.693 534.727 212.24 534.26 211.667 533.94C211.107 533.607 210.487 533.44 209.807 533.44C209.127 533.44 208.507 533.6 207.947 533.92C207.387 534.24 206.94 534.707 206.607 535.32C206.273 535.933 206.107 536.653 206.107 537.48C206.107 538.32 206.273 539.053 206.607 539.68C206.94 540.293 207.387 540.767 207.947 541.1C208.507 541.42 209.127 541.58 209.807 541.58C210.487 541.58 211.107 541.42 211.667 541.1C212.24 540.767 212.693 540.293 213.027 539.68C213.36 539.053 213.527 538.327 213.527 537.5ZM219.382 530.26C219.036 530.26 218.742 530.14 218.502 529.9C218.262 529.66 218.142 529.367 218.142 529.02C218.142 528.673 218.262 528.38 218.502 528.14C218.742 527.9 219.036 527.78 219.382 527.78C219.716 527.78 219.996 527.9 220.222 528.14C220.462 528.38 220.582 528.673 220.582 529.02C220.582 529.367 220.462 529.66 220.222 529.9C219.996 530.14 219.716 530.26 219.382 530.26ZM220.262 532.04V543H218.442V532.04H220.262ZM225.184 528.2V543H223.364V528.2H225.184ZM228.866 543.12C228.519 543.12 228.226 543 227.986 542.76C227.746 542.52 227.626 542.227 227.626 541.88C227.626 541.533 227.746 541.24 227.986 541C228.226 540.76 228.519 540.64 228.866 540.64C229.199 540.64 229.479 540.76 229.706 541C229.946 541.24 230.066 541.533 230.066 541.88C230.066 542.227 229.946 542.52 229.706 542.76C229.479 543 229.199 543.12 228.866 543.12ZM231.805 537.5C231.805 536.367 232.032 535.38 232.485 534.54C232.939 533.687 233.565 533.027 234.365 532.56C235.179 532.093 236.105 531.86 237.145 531.86C238.492 531.86 239.599 532.187 240.465 532.84C241.345 533.493 241.925 534.4 242.205 535.56H240.245C240.059 534.893 239.692 534.367 239.145 533.98C238.612 533.593 237.945 533.4 237.145 533.4C236.105 533.4 235.265 533.76 234.625 534.48C233.985 535.187 233.665 536.193 233.665 537.5C233.665 538.82 233.985 539.84 234.625 540.56C235.265 541.28 236.105 541.64 237.145 541.64C237.945 541.64 238.612 541.453 239.145 541.08C239.679 540.707 240.045 540.173 240.245 539.48H242.205C241.912 540.6 241.325 541.5 240.445 542.18C239.565 542.847 238.465 543.18 237.145 543.18C236.105 543.18 235.179 542.947 234.365 542.48C233.565 542.013 232.939 541.353 232.485 540.5C232.032 539.647 231.805 538.647 231.805 537.5ZM249.414 543.18C248.387 543.18 247.454 542.947 246.614 542.48C245.787 542.013 245.134 541.353 244.654 540.5C244.187 539.633 243.954 538.633 243.954 537.5C243.954 536.38 244.194 535.393 244.674 534.54C245.167 533.673 245.834 533.013 246.674 532.56C247.514 532.093 248.454 531.86 249.494 531.86C250.534 531.86 251.474 532.093 252.314 532.56C253.154 533.013 253.814 533.667 254.294 534.52C254.787 535.373 255.034 536.367 255.034 537.5C255.034 538.633 254.78 539.633 254.274 540.5C253.78 541.353 253.107 542.013 252.254 542.48C251.4 542.947 250.454 543.18 249.414 543.18ZM249.414 541.58C250.067 541.58 250.68 541.427 251.254 541.12C251.827 540.813 252.287 540.353 252.634 539.74C252.994 539.127 253.174 538.38 253.174 537.5C253.174 536.62 253 535.873 252.654 535.26C252.307 534.647 251.854 534.193 251.294 533.9C250.734 533.593 250.127 533.44 249.474 533.44C248.807 533.44 248.194 533.593 247.634 533.9C247.087 534.193 246.647 534.647 246.314 535.26C245.98 535.873 245.814 536.62 245.814 537.5C245.814 538.393 245.974 539.147 246.294 539.76C246.627 540.373 247.067 540.833 247.614 541.14C248.16 541.433 248.76 541.58 249.414 541.58ZM270.607 531.84C271.46 531.84 272.22 532.02 272.887 532.38C273.553 532.727 274.08 533.253 274.467 533.96C274.853 534.667 275.047 535.527 275.047 536.54V543H273.247V536.8C273.247 535.707 272.973 534.873 272.427 534.3C271.893 533.713 271.167 533.42 270.247 533.42C269.3 533.42 268.547 533.727 267.987 534.34C267.427 534.94 267.147 535.813 267.147 536.96V543H265.347V536.8C265.347 535.707 265.073 534.873 264.527 534.3C263.993 533.713 263.267 533.42 262.347 533.42C261.4 533.42 260.647 533.727 260.087 534.34C259.527 534.94 259.247 535.813 259.247 536.96V543H257.427V532.04H259.247V533.62C259.607 533.047 260.087 532.607 260.687 532.3C261.3 531.993 261.973 531.84 262.707 531.84C263.627 531.84 264.44 532.047 265.147 532.46C265.853 532.873 266.38 533.48 266.727 534.28C267.033 533.507 267.54 532.907 268.247 532.48C268.953 532.053 269.74 531.84 270.607 531.84Z" fill="black" fill-opacity="0.7"/>
<path d="M31.602 501.114C31.602 500.162 31.8167 499.308 32.246 498.552C32.6753 497.787 33.2587 497.189 33.996 496.76C34.7427 496.331 35.5687 496.116 36.474 496.116C37.538 496.116 38.4667 496.373 39.26 496.886C40.0533 497.399 40.632 498.127 40.996 499.07H39.47C39.1993 498.482 38.8073 498.029 38.294 497.712C37.79 497.395 37.1833 497.236 36.474 497.236C35.7927 497.236 35.1813 497.395 34.64 497.712C34.0987 498.029 33.674 498.482 33.366 499.07C33.058 499.649 32.904 500.33 32.904 501.114C32.904 501.889 33.058 502.57 33.366 503.158C33.674 503.737 34.0987 504.185 34.64 504.502C35.1813 504.819 35.7927 504.978 36.474 504.978C37.1833 504.978 37.79 504.824 38.294 504.516C38.8073 504.199 39.1993 503.746 39.47 503.158H40.996C40.632 504.091 40.0533 504.815 39.26 505.328C38.4667 505.832 37.538 506.084 36.474 506.084C35.5687 506.084 34.7427 505.874 33.996 505.454C33.2587 505.025 32.6753 504.432 32.246 503.676C31.8167 502.92 31.602 502.066 31.602 501.114ZM46.2385 506.126C45.5198 506.126 44.8665 505.963 44.2785 505.636C43.6998 505.309 43.2425 504.847 42.9065 504.25C42.5798 503.643 42.4165 502.943 42.4165 502.15C42.4165 501.366 42.5845 500.675 42.9205 500.078C43.2658 499.471 43.7325 499.009 44.3205 498.692C44.9085 498.365 45.5665 498.202 46.2945 498.202C47.0225 498.202 47.6805 498.365 48.2685 498.692C48.8565 499.009 49.3185 499.467 49.6545 500.064C49.9998 500.661 50.1725 501.357 50.1725 502.15C50.1725 502.943 49.9951 503.643 49.6405 504.25C49.2951 504.847 48.8238 505.309 48.2265 505.636C47.6291 505.963 46.9665 506.126 46.2385 506.126ZM46.2385 505.006C46.6958 505.006 47.1251 504.899 47.5265 504.684C47.9278 504.469 48.2498 504.147 48.4925 503.718C48.7445 503.289 48.8705 502.766 48.8705 502.15C48.8705 501.534 48.7491 501.011 48.5065 500.582C48.2638 500.153 47.9465 499.835 47.5545 499.63C47.1625 499.415 46.7378 499.308 46.2805 499.308C45.8138 499.308 45.3845 499.415 44.9925 499.63C44.6098 499.835 44.3018 500.153 44.0685 500.582C43.8351 501.011 43.7185 501.534 43.7185 502.15C43.7185 502.775 43.8305 503.303 44.0545 503.732C44.2878 504.161 44.5958 504.483 44.9785 504.698C45.3611 504.903 45.7811 505.006 46.2385 505.006ZM55.5855 498.188C56.5189 498.188 57.2749 498.473 57.8535 499.042C58.4322 499.602 58.7215 500.414 58.7215 501.478V506H57.4615V501.66C57.4615 500.895 57.2702 500.311 56.8875 499.91C56.5049 499.499 55.9822 499.294 55.3195 499.294C54.6475 499.294 54.1109 499.504 53.7095 499.924C53.3175 500.344 53.1215 500.955 53.1215 501.758V506H51.8475V498.328H53.1215V499.42C53.3735 499.028 53.7142 498.725 54.1435 498.51C54.5822 498.295 55.0629 498.188 55.5855 498.188ZM63.9246 499.378H62.3146V506H61.0406V499.378H60.0466V498.328H61.0406V497.782C61.0406 496.923 61.2599 496.298 61.6986 495.906C62.1466 495.505 62.8606 495.304 63.8406 495.304V496.368C63.2806 496.368 62.8839 496.48 62.6506 496.704C62.4266 496.919 62.3146 497.278 62.3146 497.782V498.328H63.9246V499.378ZM66.068 497.082C65.8254 497.082 65.62 496.998 65.452 496.83C65.284 496.662 65.2 496.457 65.2 496.214C65.2 495.971 65.284 495.766 65.452 495.598C65.62 495.43 65.8254 495.346 66.068 495.346C66.3014 495.346 66.4974 495.43 66.656 495.598C66.824 495.766 66.908 495.971 66.908 496.214C66.908 496.457 66.824 496.662 66.656 496.83C66.4974 496.998 66.3014 497.082 66.068 497.082ZM66.684 498.328V506H65.41V498.328H66.684ZM70.1293 499.574C70.3533 499.135 70.6707 498.795 71.0813 498.552C71.5013 498.309 72.01 498.188 72.6073 498.188V499.504H72.2713C70.8433 499.504 70.1293 500.279 70.1293 501.828V506H68.8553V498.328H70.1293V499.574ZM83.304 498.188C83.9013 498.188 84.4333 498.314 84.9 498.566C85.3667 498.809 85.7353 499.177 86.006 499.672C86.2767 500.167 86.412 500.769 86.412 501.478V506H85.152V501.66C85.152 500.895 84.9607 500.311 84.578 499.91C84.2047 499.499 83.696 499.294 83.052 499.294C82.3893 499.294 81.862 499.509 81.47 499.938C81.078 500.358 80.882 500.969 80.882 501.772V506H79.622V501.66C79.622 500.895 79.4307 500.311 79.048 499.91C78.6747 499.499 78.166 499.294 77.522 499.294C76.8593 499.294 76.332 499.509 75.94 499.938C75.548 500.358 75.352 500.969 75.352 501.772V506H74.078V498.328H75.352V499.434C75.604 499.033 75.94 498.725 76.36 498.51C76.7893 498.295 77.2607 498.188 77.774 498.188C78.418 498.188 78.9873 498.333 79.482 498.622C79.9767 498.911 80.3453 499.336 80.588 499.896C80.8027 499.355 81.1573 498.935 81.652 498.636C82.1467 498.337 82.6973 498.188 83.304 498.188ZM88.0258 502.136C88.0258 501.352 88.1845 500.666 88.5018 500.078C88.8192 499.481 89.2532 499.019 89.8038 498.692C90.3638 498.365 90.9845 498.202 91.6658 498.202C92.3378 498.202 92.9212 498.347 93.4158 498.636C93.9105 498.925 94.2792 499.289 94.5218 499.728V498.328H95.8098V506H94.5218V504.572C94.2698 505.02 93.8918 505.393 93.3878 505.692C92.8932 505.981 92.3145 506.126 91.6518 506.126C90.9705 506.126 90.3545 505.958 89.8038 505.622C89.2532 505.286 88.8192 504.815 88.5018 504.208C88.1845 503.601 88.0258 502.911 88.0258 502.136ZM94.5218 502.15C94.5218 501.571 94.4052 501.067 94.1718 500.638C93.9385 500.209 93.6212 499.882 93.2198 499.658C92.8278 499.425 92.3938 499.308 91.9178 499.308C91.4418 499.308 91.0078 499.42 90.6158 499.644C90.2238 499.868 89.9112 500.195 89.6778 500.624C89.4445 501.053 89.3278 501.557 89.3278 502.136C89.3278 502.724 89.4445 503.237 89.6778 503.676C89.9112 504.105 90.2238 504.437 90.6158 504.67C91.0078 504.894 91.4418 505.006 91.9178 505.006C92.3938 505.006 92.8278 504.894 93.2198 504.67C93.6212 504.437 93.9385 504.105 94.1718 503.676C94.4052 503.237 94.5218 502.729 94.5218 502.15ZM101.225 505.048C101.785 505.048 102.251 504.917 102.625 504.656C102.998 504.395 103.255 504.021 103.395 503.536H104.767C104.58 504.264 104.211 504.861 103.661 505.328C103.119 505.785 102.438 506.047 101.617 506.112V506.812C102.167 506.803 102.606 506.919 102.933 507.162C103.259 507.405 103.423 507.75 103.423 508.198C103.423 508.637 103.264 508.987 102.947 509.248C102.629 509.509 102.219 509.64 101.715 509.64H100.105V508.814H101.463C101.771 508.814 101.995 508.767 102.135 508.674C102.284 508.581 102.359 508.422 102.359 508.198C102.359 507.983 102.284 507.829 102.135 507.736C101.995 507.643 101.771 507.596 101.463 507.596H100.763V506.098C100.119 506.033 99.5494 505.832 99.0548 505.496C98.5601 505.151 98.1728 504.693 97.8928 504.124C97.6221 503.545 97.4868 502.887 97.4868 502.15C97.4868 501.357 97.6454 500.666 97.9628 500.078C98.2801 499.481 98.7188 499.019 99.2788 498.692C99.8481 498.365 100.497 498.202 101.225 498.202C102.167 498.202 102.942 498.431 103.549 498.888C104.165 499.345 104.571 499.98 104.767 500.792H103.395C103.264 500.325 103.007 499.957 102.625 499.686C102.251 499.415 101.785 499.28 101.225 499.28C100.497 499.28 99.9088 499.532 99.4608 500.036C99.0128 500.531 98.7888 501.235 98.7888 502.15C98.7888 503.074 99.0128 503.788 99.4608 504.292C99.9088 504.796 100.497 505.048 101.225 505.048ZM105.991 502.136C105.991 501.352 106.149 500.666 106.467 500.078C106.784 499.481 107.218 499.019 107.769 498.692C108.329 498.365 108.949 498.202 109.631 498.202C110.303 498.202 110.886 498.347 111.381 498.636C111.875 498.925 112.244 499.289 112.487 499.728V498.328H113.775V506H112.487V504.572C112.235 505.02 111.857 505.393 111.353 505.692C110.858 505.981 110.279 506.126 109.617 506.126C108.935 506.126 108.319 505.958 107.769 505.622C107.218 505.286 106.784 504.815 106.467 504.208C106.149 503.601 105.991 502.911 105.991 502.136ZM112.487 502.15C112.487 501.571 112.37 501.067 112.137 500.638C111.903 500.209 111.586 499.882 111.185 499.658C110.793 499.425 110.359 499.308 109.883 499.308C109.407 499.308 108.973 499.42 108.581 499.644C108.189 499.868 107.876 500.195 107.643 500.624C107.409 501.053 107.293 501.557 107.293 502.136C107.293 502.724 107.409 503.237 107.643 503.676C107.876 504.105 108.189 504.437 108.581 504.67C108.973 504.894 109.407 505.006 109.883 505.006C110.359 505.006 110.793 504.894 111.185 504.67C111.586 504.437 111.903 504.105 112.137 503.676C112.37 503.237 112.487 502.729 112.487 502.15ZM108.077 497.502C108.142 497.026 108.296 496.662 108.539 496.41C108.791 496.158 109.103 496.032 109.477 496.032C109.654 496.032 109.803 496.065 109.925 496.13C110.055 496.186 110.209 496.27 110.387 496.382C110.517 496.475 110.634 496.55 110.737 496.606C110.839 496.653 110.951 496.676 111.073 496.676C111.231 496.676 111.367 496.625 111.479 496.522C111.591 496.419 111.661 496.27 111.689 496.074H112.417C112.361 496.541 112.207 496.9 111.955 497.152C111.703 497.404 111.39 497.53 111.017 497.53C110.839 497.53 110.681 497.502 110.541 497.446C110.41 497.381 110.261 497.287 110.093 497.166C109.943 497.073 109.822 497.003 109.729 496.956C109.645 496.909 109.542 496.886 109.421 496.886C109.262 496.886 109.127 496.937 109.015 497.04C108.912 497.143 108.847 497.297 108.819 497.502H108.077ZM119.274 506.126C118.555 506.126 117.902 505.963 117.314 505.636C116.735 505.309 116.278 504.847 115.942 504.25C115.615 503.643 115.452 502.943 115.452 502.15C115.452 501.366 115.62 500.675 115.956 500.078C116.301 499.471 116.768 499.009 117.356 498.692C117.944 498.365 118.602 498.202 119.33 498.202C120.058 498.202 120.716 498.365 121.304 498.692C121.892 499.009 122.354 499.467 122.69 500.064C123.035 500.661 123.208 501.357 123.208 502.15C123.208 502.943 123.03 503.643 122.676 504.25C122.33 504.847 121.859 505.309 121.262 505.636C120.664 505.963 120.002 506.126 119.274 506.126ZM119.274 505.006C119.731 505.006 120.16 504.899 120.562 504.684C120.963 504.469 121.285 504.147 121.528 503.718C121.78 503.289 121.906 502.766 121.906 502.15C121.906 501.534 121.784 501.011 121.542 500.582C121.299 500.153 120.982 499.835 120.59 499.63C120.198 499.415 119.773 499.308 119.316 499.308C118.849 499.308 118.42 499.415 118.028 499.63C117.645 499.835 117.337 500.153 117.104 500.582C116.87 501.011 116.754 501.534 116.754 502.15C116.754 502.775 116.866 503.303 117.09 503.732C117.323 504.161 117.631 504.483 118.014 504.698C118.396 504.903 118.816 505.006 119.274 505.006ZM128.139 502.136C128.139 501.352 128.298 500.666 128.615 500.078C128.932 499.481 129.366 499.019 129.917 498.692C130.477 498.365 131.102 498.202 131.793 498.202C132.39 498.202 132.946 498.342 133.459 498.622C133.972 498.893 134.364 499.252 134.635 499.7V495.64H135.923V506H134.635V504.558C134.383 505.015 134.01 505.393 133.515 505.692C133.02 505.981 132.442 506.126 131.779 506.126C131.098 506.126 130.477 505.958 129.917 505.622C129.366 505.286 128.932 504.815 128.615 504.208C128.298 503.601 128.139 502.911 128.139 502.136ZM134.635 502.15C134.635 501.571 134.518 501.067 134.285 500.638C134.052 500.209 133.734 499.882 133.333 499.658C132.941 499.425 132.507 499.308 132.031 499.308C131.555 499.308 131.121 499.42 130.729 499.644C130.337 499.868 130.024 500.195 129.791 500.624C129.558 501.053 129.441 501.557 129.441 502.136C129.441 502.724 129.558 503.237 129.791 503.676C130.024 504.105 130.337 504.437 130.729 504.67C131.121 504.894 131.555 505.006 132.031 505.006C132.507 505.006 132.941 504.894 133.333 504.67C133.734 504.437 134.052 504.105 134.285 503.676C134.518 503.237 134.635 502.729 134.635 502.15ZM145.076 501.87C145.076 502.113 145.062 502.369 145.034 502.64H138.902C138.949 503.396 139.205 503.989 139.672 504.418C140.148 504.838 140.722 505.048 141.394 505.048C141.945 505.048 142.402 504.922 142.766 504.67C143.139 504.409 143.401 504.063 143.55 503.634H144.922C144.717 504.371 144.306 504.973 143.69 505.44C143.074 505.897 142.309 506.126 141.394 506.126C140.666 506.126 140.013 505.963 139.434 505.636C138.865 505.309 138.417 504.847 138.09 504.25C137.763 503.643 137.6 502.943 137.6 502.15C137.6 501.357 137.759 500.661 138.076 500.064C138.393 499.467 138.837 499.009 139.406 498.692C139.985 498.365 140.647 498.202 141.394 498.202C142.122 498.202 142.766 498.361 143.326 498.678C143.886 498.995 144.315 499.434 144.614 499.994C144.922 500.545 145.076 501.17 145.076 501.87ZM143.76 501.604C143.76 501.119 143.653 500.703 143.438 500.358C143.223 500.003 142.929 499.737 142.556 499.56C142.192 499.373 141.786 499.28 141.338 499.28C140.694 499.28 140.143 499.485 139.686 499.896C139.238 500.307 138.981 500.876 138.916 501.604H143.76ZM157.49 501.87C157.49 502.113 157.476 502.369 157.448 502.64H151.316C151.363 503.396 151.619 503.989 152.086 504.418C152.562 504.838 153.136 505.048 153.808 505.048C154.359 505.048 154.816 504.922 155.18 504.67C155.553 504.409 155.815 504.063 155.964 503.634H157.336C157.131 504.371 156.72 504.973 156.104 505.44C155.488 505.897 154.723 506.126 153.808 506.126C153.08 506.126 152.427 505.963 151.848 505.636C151.279 505.309 150.831 504.847 150.504 504.25C150.177 503.643 150.014 502.943 150.014 502.15C150.014 501.357 150.173 500.661 150.49 500.064C150.807 499.467 151.251 499.009 151.82 498.692C152.399 498.365 153.061 498.202 153.808 498.202C154.536 498.202 155.18 498.361 155.74 498.678C156.3 498.995 156.729 499.434 157.028 499.994C157.336 500.545 157.49 501.17 157.49 501.87ZM156.174 501.604C156.174 501.119 156.067 500.703 155.852 500.358C155.637 500.003 155.343 499.737 154.97 499.56C154.606 499.373 154.2 499.28 153.752 499.28C153.108 499.28 152.557 499.485 152.1 499.896C151.652 500.307 151.395 500.876 151.33 501.604H156.174ZM168.398 498.188C168.995 498.188 169.527 498.314 169.994 498.566C170.46 498.809 170.829 499.177 171.1 499.672C171.37 500.167 171.506 500.769 171.506 501.478V506H170.246V501.66C170.246 500.895 170.054 500.311 169.672 499.91C169.298 499.499 168.79 499.294 168.146 499.294C167.483 499.294 166.956 499.509 166.564 499.938C166.172 500.358 165.976 500.969 165.976 501.772V506H164.716V501.66C164.716 500.895 164.524 500.311 164.142 499.91C163.768 499.499 163.26 499.294 162.616 499.294C161.953 499.294 161.426 499.509 161.034 499.938C160.642 500.358 160.446 500.969 160.446 501.772V506H159.172V498.328H160.446V499.434C160.698 499.033 161.034 498.725 161.454 498.51C161.883 498.295 162.354 498.188 162.868 498.188C163.512 498.188 164.081 498.333 164.576 498.622C165.07 498.911 165.439 499.336 165.682 499.896C165.896 499.355 166.251 498.935 166.746 498.636C167.24 498.337 167.791 498.188 168.398 498.188ZM173.12 502.136C173.12 501.352 173.278 500.666 173.596 500.078C173.913 499.481 174.347 499.019 174.898 498.692C175.458 498.365 176.078 498.202 176.76 498.202C177.432 498.202 178.015 498.347 178.51 498.636C179.004 498.925 179.373 499.289 179.616 499.728V498.328H180.904V506H179.616V504.572C179.364 505.02 178.986 505.393 178.482 505.692C177.987 505.981 177.408 506.126 176.746 506.126C176.064 506.126 175.448 505.958 174.898 505.622C174.347 505.286 173.913 504.815 173.596 504.208C173.278 503.601 173.12 502.911 173.12 502.136ZM179.616 502.15C179.616 501.571 179.499 501.067 179.266 500.638C179.032 500.209 178.715 499.882 178.314 499.658C177.922 499.425 177.488 499.308 177.012 499.308C176.536 499.308 176.102 499.42 175.71 499.644C175.318 499.868 175.005 500.195 174.772 500.624C174.538 501.053 174.422 501.557 174.422 502.136C174.422 502.724 174.538 503.237 174.772 503.676C175.005 504.105 175.318 504.437 175.71 504.67C176.102 504.894 176.536 505.006 177.012 505.006C177.488 505.006 177.922 504.894 178.314 504.67C178.715 504.437 179.032 504.105 179.266 503.676C179.499 503.237 179.616 502.729 179.616 502.15ZM183.715 497.082C183.472 497.082 183.267 496.998 183.099 496.83C182.931 496.662 182.847 496.457 182.847 496.214C182.847 495.971 182.931 495.766 183.099 495.598C183.267 495.43 183.472 495.346 183.715 495.346C183.948 495.346 184.144 495.43 184.303 495.598C184.471 495.766 184.555 495.971 184.555 496.214C184.555 496.457 184.471 496.662 184.303 496.83C184.144 496.998 183.948 497.082 183.715 497.082ZM184.331 498.328V506H183.057V498.328H184.331ZM187.776 495.64V506H186.502V495.64H187.776Z" fill="black"/>
<path d="M43.456 326.152V329.44H36.592V332.992H41.728V336.184H36.592V343H32.488V326.152H43.456ZM58.837 329.608V343H54.733V341.176C54.317 341.768 53.749 342.248 53.029 342.616C52.325 342.968 51.541 343.144 50.677 343.144C49.653 343.144 48.749 342.92 47.965 342.472C47.181 342.008 46.573 341.344 46.141 340.48C45.709 339.616 45.493 338.6 45.493 337.432V329.608H49.573V336.88C49.573 337.776 49.805 338.472 50.269 338.968C50.733 339.464 51.357 339.712 52.141 339.712C52.941 339.712 53.573 339.464 54.037 338.968C54.501 338.472 54.733 337.776 54.733 336.88V329.608H58.837ZM65.8889 325.24V343H61.7849V325.24H65.8889ZM68.047 336.28C68.047 334.904 68.303 333.696 68.815 332.656C69.343 331.616 70.055 330.816 70.951 330.256C71.847 329.696 72.847 329.416 73.951 329.416C74.895 329.416 75.719 329.608 76.423 329.992C77.143 330.376 77.695 330.88 78.079 331.504V329.608H82.183V343H78.079V341.104C77.679 341.728 77.119 342.232 76.399 342.616C75.695 343 74.871 343.192 73.927 343.192C72.839 343.192 71.847 342.912 70.951 342.352C70.055 341.776 69.343 340.968 68.815 339.928C68.303 338.872 68.047 337.656 68.047 336.28ZM78.079 336.304C78.079 335.28 77.791 334.472 77.215 333.88C76.655 333.288 75.967 332.992 75.151 332.992C74.335 332.992 73.639 333.288 73.063 333.88C72.503 334.456 72.223 335.256 72.223 336.28C72.223 337.304 72.503 338.12 73.063 338.728C73.639 339.32 74.335 339.616 75.151 339.616C75.967 339.616 76.655 339.32 77.215 338.728C77.791 338.136 78.079 337.328 78.079 336.304ZM93.3121 329.464C94.8801 329.464 96.1281 329.976 97.0561 331C98.0001 332.008 98.4721 333.4 98.4721 335.176V343H94.3921V335.728C94.3921 334.832 94.1601 334.136 93.6961 333.64C93.2321 333.144 92.6081 332.896 91.8241 332.896C91.0401 332.896 90.4161 333.144 89.9521 333.64C89.4881 334.136 89.2561 334.832 89.2561 335.728V343H85.1521V329.608H89.2561V331.384C89.6721 330.792 90.2321 330.328 90.9361 329.992C91.6401 329.64 92.4321 329.464 93.3121 329.464ZM107.42 343.192C106.108 343.192 104.924 342.912 103.868 342.352C102.828 341.792 102.004 340.992 101.396 339.952C100.804 338.912 100.508 337.696 100.508 336.304C100.508 334.928 100.812 333.72 101.42 332.68C102.028 331.624 102.86 330.816 103.916 330.256C104.972 329.696 106.156 329.416 107.468 329.416C108.78 329.416 109.964 329.696 111.02 330.256C112.076 330.816 112.908 331.624 113.516 332.68C114.124 333.72 114.428 334.928 114.428 336.304C114.428 337.68 114.116 338.896 113.492 339.952C112.884 340.992 112.044 341.792 110.972 342.352C109.916 342.912 108.732 343.192 107.42 343.192ZM107.42 339.64C108.204 339.64 108.868 339.352 109.412 338.776C109.972 338.2 110.252 337.376 110.252 336.304C110.252 335.232 109.98 334.408 109.436 333.832C108.908 333.256 108.252 332.968 107.468 332.968C106.668 332.968 106.004 333.256 105.476 333.832C104.948 334.392 104.684 335.216 104.684 336.304C104.684 337.376 104.94 338.2 105.452 338.776C105.98 339.352 106.636 339.64 107.42 339.64ZM121.021 339.208L118.357 346.096H115.741L117.133 339.208H121.021ZM136.742 329.464C138.31 329.464 139.558 329.976 140.486 331C141.43 332.008 141.902 333.4 141.902 335.176V343H137.822V335.728C137.822 334.832 137.59 334.136 137.126 333.64C136.662 333.144 136.038 332.896 135.254 332.896C134.47 332.896 133.846 333.144 133.382 333.64C132.918 334.136 132.686 334.832 132.686 335.728V343H128.582V329.608H132.686V331.384C133.102 330.792 133.662 330.328 134.366 329.992C135.07 329.64 135.862 329.464 136.742 329.464ZM150.85 343.192C149.538 343.192 148.354 342.912 147.298 342.352C146.258 341.792 145.434 340.992 144.826 339.952C144.234 338.912 143.938 337.696 143.938 336.304C143.938 334.928 144.242 333.72 144.85 332.68C145.458 331.624 146.29 330.816 147.346 330.256C148.402 329.696 149.586 329.416 150.898 329.416C152.21 329.416 153.394 329.696 154.45 330.256C155.506 330.816 156.338 331.624 156.946 332.68C157.554 333.72 157.858 334.928 157.858 336.304C157.858 337.68 157.546 338.896 156.922 339.952C156.314 340.992 155.474 341.792 154.402 342.352C153.346 342.912 152.162 343.192 150.85 343.192ZM150.85 339.64C151.634 339.64 152.298 339.352 152.842 338.776C153.402 338.2 153.682 337.376 153.682 336.304C153.682 335.232 153.41 334.408 152.866 333.832C152.338 333.256 151.682 332.968 150.898 332.968C150.098 332.968 149.434 333.256 148.906 333.832C148.378 334.392 148.114 335.216 148.114 336.304C148.114 337.376 148.37 338.2 148.882 338.776C149.41 339.352 150.066 339.64 150.85 339.64ZM165.483 343.192C164.315 343.192 163.275 342.992 162.363 342.592C161.451 342.192 160.731 341.648 160.203 340.96C159.675 340.256 159.379 339.472 159.315 338.608H163.371C163.419 339.072 163.635 339.448 164.019 339.736C164.403 340.024 164.875 340.168 165.435 340.168C165.947 340.168 166.339 340.072 166.611 339.88C166.899 339.672 167.043 339.408 167.043 339.088C167.043 338.704 166.843 338.424 166.443 338.248C166.043 338.056 165.395 337.848 164.499 337.624C163.539 337.4 162.739 337.168 162.099 336.928C161.459 336.672 160.907 336.28 160.443 335.752C159.979 335.208 159.747 334.48 159.747 333.568C159.747 332.8 159.955 332.104 160.371 331.48C160.803 330.84 161.427 330.336 162.243 329.968C163.075 329.6 164.059 329.416 165.195 329.416C166.875 329.416 168.195 329.832 169.155 330.664C170.131 331.496 170.691 332.6 170.835 333.976H167.043C166.979 333.512 166.771 333.144 166.419 332.872C166.083 332.6 165.635 332.464 165.075 332.464C164.595 332.464 164.227 332.56 163.971 332.752C163.715 332.928 163.587 333.176 163.587 333.496C163.587 333.88 163.787 334.168 164.187 334.36C164.603 334.552 165.243 334.744 166.107 334.936C167.099 335.192 167.907 335.448 168.531 335.704C169.155 335.944 169.699 336.344 170.163 336.904C170.643 337.448 170.891 338.184 170.907 339.112C170.907 339.896 170.683 340.6 170.235 341.224C169.803 341.832 169.171 342.312 168.339 342.664C167.523 343.016 166.571 343.192 165.483 343.192ZM180.568 328.216C179.848 328.216 179.256 328.008 178.792 327.592C178.344 327.16 178.12 326.632 178.12 326.008C178.12 325.368 178.344 324.84 178.792 324.424C179.256 323.992 179.848 323.776 180.568 323.776C181.272 323.776 181.848 323.992 182.296 324.424C182.76 324.84 182.992 325.368 182.992 326.008C182.992 326.632 182.76 327.16 182.296 327.592C181.848 328.008 181.272 328.216 180.568 328.216ZM182.608 329.608V343H178.504V329.608H182.608ZM193.742 329.464C195.31 329.464 196.558 329.976 197.486 331C198.43 332.008 198.902 333.4 198.902 335.176V343H194.822V335.728C194.822 334.832 194.59 334.136 194.126 333.64C193.662 333.144 193.038 332.896 192.254 332.896C191.47 332.896 190.846 333.144 190.382 333.64C189.918 334.136 189.686 334.832 189.686 335.728V343H185.582V329.608H189.686V331.384C190.102 330.792 190.662 330.328 191.366 329.992C192.07 329.64 192.862 329.464 193.742 329.464ZM208.474 333.016H206.266V343H202.162V333.016H200.674V329.608H202.162V329.224C202.162 327.576 202.634 326.328 203.578 325.48C204.522 324.616 205.906 324.184 207.73 324.184C208.034 324.184 208.258 324.192 208.402 324.208V327.688C207.618 327.64 207.066 327.752 206.746 328.024C206.426 328.296 206.266 328.784 206.266 329.488V329.608H208.474V333.016ZM216.498 343.192C215.186 343.192 214.002 342.912 212.946 342.352C211.906 341.792 211.082 340.992 210.474 339.952C209.882 338.912 209.586 337.696 209.586 336.304C209.586 334.928 209.89 333.72 210.498 332.68C211.106 331.624 211.938 330.816 212.994 330.256C214.05 329.696 215.234 329.416 216.546 329.416C217.858 329.416 219.042 329.696 220.098 330.256C221.154 330.816 221.986 331.624 222.594 332.68C223.202 333.72 223.506 334.928 223.506 336.304C223.506 337.68 223.194 338.896 222.57 339.952C221.962 340.992 221.122 341.792 220.05 342.352C218.994 342.912 217.81 343.192 216.498 343.192ZM216.498 339.64C217.282 339.64 217.946 339.352 218.49 338.776C219.05 338.2 219.33 337.376 219.33 336.304C219.33 335.232 219.058 334.408 218.514 333.832C217.986 333.256 217.33 332.968 216.546 332.968C215.746 332.968 215.082 333.256 214.554 333.832C214.026 334.392 213.762 335.216 213.762 336.304C213.762 337.376 214.018 338.2 214.53 338.776C215.058 339.352 215.714 339.64 216.498 339.64ZM229.787 331.84C230.267 331.104 230.867 330.528 231.587 330.112C232.307 329.68 233.107 329.464 233.987 329.464V333.808H232.859C231.835 333.808 231.067 334.032 230.555 334.48C230.043 334.912 229.787 335.68 229.787 336.784V343H225.683V329.608H229.787V331.84ZM253.037 329.464C254.701 329.464 256.021 329.968 256.997 330.976C257.989 331.984 258.485 333.384 258.485 335.176V343H254.405V335.728C254.405 334.864 254.173 334.2 253.709 333.736C253.261 333.256 252.637 333.016 251.837 333.016C251.037 333.016 250.405 333.256 249.941 333.736C249.493 334.2 249.269 334.864 249.269 335.728V343H245.189V335.728C245.189 334.864 244.957 334.2 244.493 333.736C244.045 333.256 243.421 333.016 242.621 333.016C241.821 333.016 241.189 333.256 240.725 333.736C240.277 334.2 240.053 334.864 240.053 335.728V343H235.949V329.608H240.053V331.288C240.469 330.728 241.013 330.288 241.685 329.968C242.357 329.632 243.117 329.464 243.965 329.464C244.973 329.464 245.869 329.68 246.653 330.112C247.453 330.544 248.077 331.16 248.525 331.96C248.989 331.224 249.621 330.624 250.421 330.16C251.221 329.696 252.093 329.464 253.037 329.464ZM273.979 336.088C273.979 336.472 273.955 336.872 273.907 337.288H264.619C264.683 338.12 264.947 338.76 265.411 339.208C265.891 339.64 266.475 339.856 267.163 339.856C268.187 339.856 268.899 339.424 269.299 338.56H273.667C273.443 339.44 273.035 340.232 272.443 340.936C271.867 341.64 271.139 342.192 270.259 342.592C269.379 342.992 268.395 343.192 267.307 343.192C265.995 343.192 264.827 342.912 263.803 342.352C262.779 341.792 261.979 340.992 261.403 339.952C260.827 338.912 260.539 337.696 260.539 336.304C260.539 334.912 260.819 333.696 261.379 332.656C261.955 331.616 262.755 330.816 263.779 330.256C264.803 329.696 265.979 329.416 267.307 329.416C268.603 329.416 269.755 329.688 270.763 330.232C271.771 330.776 272.555 331.552 273.115 332.56C273.691 333.568 273.979 334.744 273.979 336.088ZM269.779 335.008C269.779 334.304 269.539 333.744 269.059 333.328C268.579 332.912 267.979 332.704 267.259 332.704C266.571 332.704 265.987 332.904 265.507 333.304C265.043 333.704 264.755 334.272 264.643 335.008H269.779ZM287.326 343.192C286.014 343.192 284.83 342.912 283.774 342.352C282.734 341.792 281.91 340.992 281.302 339.952C280.71 338.912 280.414 337.696 280.414 336.304C280.414 334.928 280.718 333.72 281.326 332.68C281.934 331.624 282.766 330.816 283.822 330.256C284.878 329.696 286.062 329.416 287.374 329.416C288.686 329.416 289.87 329.696 290.926 330.256C291.982 330.816 292.814 331.624 293.422 332.68C294.03 333.72 294.334 334.928 294.334 336.304C294.334 337.68 294.022 338.896 293.398 339.952C292.79 340.992 291.95 341.792 290.878 342.352C289.822 342.912 288.638 343.192 287.326 343.192ZM287.326 339.64C288.11 339.64 288.774 339.352 289.318 338.776C289.878 338.2 290.158 337.376 290.158 336.304C290.158 335.232 289.886 334.408 289.342 333.832C288.814 333.256 288.158 332.968 287.374 332.968C286.574 332.968 285.91 333.256 285.382 333.832C284.854 334.392 284.59 335.216 284.59 336.304C284.59 337.376 284.846 338.2 285.358 338.776C285.886 339.352 286.542 339.64 287.326 339.64ZM307.045 343.192C305.877 343.192 304.837 342.992 303.925 342.592C303.013 342.192 302.293 341.648 301.765 340.96C301.237 340.256 300.941 339.472 300.877 338.608H304.933C304.981 339.072 305.197 339.448 305.581 339.736C305.965 340.024 306.437 340.168 306.997 340.168C307.509 340.168 307.901 340.072 308.173 339.88C308.461 339.672 308.605 339.408 308.605 339.088C308.605 338.704 308.405 338.424 308.005 338.248C307.605 338.056 306.957 337.848 306.061 337.624C305.101 337.4 304.301 337.168 303.661 336.928C303.021 336.672 302.469 336.28 302.005 335.752C301.541 335.208 301.309 334.48 301.309 333.568C301.309 332.8 301.517 332.104 301.933 331.48C302.365 330.84 302.989 330.336 303.805 329.968C304.637 329.6 305.621 329.416 306.757 329.416C308.437 329.416 309.757 329.832 310.717 330.664C311.693 331.496 312.253 332.6 312.397 333.976H308.605C308.541 333.512 308.333 333.144 307.981 332.872C307.645 332.6 307.197 332.464 306.637 332.464C306.157 332.464 305.789 332.56 305.533 332.752C305.277 332.928 305.149 333.176 305.149 333.496C305.149 333.88 305.349 334.168 305.749 334.36C306.165 334.552 306.805 334.744 307.669 334.936C308.661 335.192 309.469 335.448 310.093 335.704C310.717 335.944 311.261 336.344 311.725 336.904C312.205 337.448 312.453 338.184 312.469 339.112C312.469 339.896 312.245 340.6 311.797 341.224C311.365 341.832 310.733 342.312 309.901 342.664C309.085 343.016 308.133 343.192 307.045 343.192ZM327.604 336.088C327.604 336.472 327.58 336.872 327.532 337.288H318.244C318.308 338.12 318.572 338.76 319.036 339.208C319.516 339.64 320.1 339.856 320.788 339.856C321.812 339.856 322.524 339.424 322.924 338.56H327.292C327.068 339.44 326.66 340.232 326.068 340.936C325.492 341.64 324.764 342.192 323.884 342.592C323.004 342.992 322.02 343.192 320.932 343.192C319.62 343.192 318.452 342.912 317.428 342.352C316.404 341.792 315.604 340.992 315.028 339.952C314.452 338.912 314.164 337.696 314.164 336.304C314.164 334.912 314.444 333.696 315.004 332.656C315.58 331.616 316.38 330.816 317.404 330.256C318.428 329.696 319.604 329.416 320.932 329.416C322.228 329.416 323.38 329.688 324.388 330.232C325.396 330.776 326.18 331.552 326.74 332.56C327.316 333.568 327.604 334.744 327.604 336.088ZM323.404 335.008C323.404 334.304 323.164 333.744 322.684 333.328C322.204 332.912 321.604 332.704 320.884 332.704C320.196 332.704 319.612 332.904 319.132 333.304C318.668 333.704 318.38 334.272 318.268 335.008H323.404ZM342.993 329.608V343H338.889V341.176C338.473 341.768 337.905 342.248 337.185 342.616C336.481 342.968 335.697 343.144 334.833 343.144C333.809 343.144 332.905 342.92 332.121 342.472C331.337 342.008 330.729 341.344 330.297 340.48C329.865 339.616 329.649 338.6 329.649 337.432V329.608H333.729V336.88C333.729 337.776 333.961 338.472 334.425 338.968C334.889 339.464 335.513 339.712 336.297 339.712C337.097 339.712 337.729 339.464 338.193 338.968C338.657 338.472 338.889 337.776 338.889 336.88V329.608H342.993ZM49.576 365.464C51.24 365.464 52.56 365.968 53.536 366.976C54.528 367.984 55.024 369.384 55.024 371.176V379H50.944V371.728C50.944 370.864 50.712 370.2 50.248 369.736C49.8 369.256 49.176 369.016 48.376 369.016C47.576 369.016 46.944 369.256 46.48 369.736C46.032 370.2 45.808 370.864 45.808 371.728V379H41.728V371.728C41.728 370.864 41.496 370.2 41.032 369.736C40.584 369.256 39.96 369.016 39.16 369.016C38.36 369.016 37.728 369.256 37.264 369.736C36.816 370.2 36.592 370.864 36.592 371.728V379H32.488V365.608H36.592V367.288C37.008 366.728 37.552 366.288 38.224 365.968C38.896 365.632 39.656 365.464 40.504 365.464C41.512 365.464 42.408 365.68 43.192 366.112C43.992 366.544 44.616 367.16 45.064 367.96C45.528 367.224 46.16 366.624 46.96 366.16C47.76 365.696 48.632 365.464 49.576 365.464ZM70.5182 372.088C70.5182 372.472 70.4943 372.872 70.4463 373.288H61.1583C61.2223 374.12 61.4863 374.76 61.9503 375.208C62.4303 375.64 63.0143 375.856 63.7023 375.856C64.7263 375.856 65.4383 375.424 65.8383 374.56H70.2063C69.9823 375.44 69.5743 376.232 68.9823 376.936C68.4063 377.64 67.6783 378.192 66.7983 378.592C65.9183 378.992 64.9343 379.192 63.8463 379.192C62.5343 379.192 61.3663 378.912 60.3423 378.352C59.3183 377.792 58.5183 376.992 57.9423 375.952C57.3663 374.912 57.0783 373.696 57.0783 372.304C57.0783 370.912 57.3583 369.696 57.9183 368.656C58.4943 367.616 59.2943 366.816 60.3183 366.256C61.3423 365.696 62.5183 365.416 63.8463 365.416C65.1423 365.416 66.2943 365.688 67.3023 366.232C68.3103 366.776 69.0943 367.552 69.6543 368.56C70.2303 369.568 70.5182 370.744 70.5182 372.088ZM66.3183 371.008C66.3183 370.304 66.0783 369.744 65.5983 369.328C65.1183 368.912 64.5183 368.704 63.7983 368.704C63.1103 368.704 62.5263 368.904 62.0463 369.304C61.5823 369.704 61.2943 370.272 61.1823 371.008H66.3183ZM76.7873 361.24V379H72.6833V361.24H76.7873ZM87.9934 365.464C89.5294 365.464 90.7614 365.976 91.6894 367C92.6174 368.008 93.0814 369.4 93.0814 371.176V379H89.0014V371.728C89.0014 370.832 88.7694 370.136 88.3054 369.64C87.8414 369.144 87.2174 368.896 86.4334 368.896C85.6494 368.896 85.0254 369.144 84.5614 369.64C84.0974 370.136 83.8654 370.832 83.8654 371.728V379H79.7614V361.24H83.8654V367.408C84.2814 366.816 84.8494 366.344 85.5694 365.992C86.2894 365.64 87.0974 365.464 87.9934 365.464ZM102.029 379.192C100.717 379.192 99.5333 378.912 98.4773 378.352C97.4373 377.792 96.6133 376.992 96.0053 375.952C95.4133 374.912 95.1173 373.696 95.1173 372.304C95.1173 370.928 95.4213 369.72 96.0293 368.68C96.6373 367.624 97.4693 366.816 98.5253 366.256C99.5813 365.696 100.765 365.416 102.077 365.416C103.389 365.416 104.573 365.696 105.629 366.256C106.685 366.816 107.517 367.624 108.125 368.68C108.733 369.72 109.037 370.928 109.037 372.304C109.037 373.68 108.725 374.896 108.101 375.952C107.493 376.992 106.653 377.792 105.581 378.352C104.525 378.912 103.341 379.192 102.029 379.192ZM102.029 375.64C102.813 375.64 103.477 375.352 104.021 374.776C104.581 374.2 104.861 373.376 104.861 372.304C104.861 371.232 104.589 370.408 104.045 369.832C103.517 369.256 102.861 368.968 102.077 368.968C101.277 368.968 100.613 369.256 100.085 369.832C99.5573 370.392 99.2933 371.216 99.2933 372.304C99.2933 373.376 99.5493 374.2 100.061 374.776C100.589 375.352 101.245 375.64 102.029 375.64ZM115.319 367.84C115.799 367.104 116.399 366.528 117.119 366.112C117.839 365.68 118.639 365.464 119.519 365.464V369.808H118.391C117.367 369.808 116.599 370.032 116.087 370.48C115.575 370.912 115.319 371.68 115.319 372.784V379H111.215V365.608H115.319V367.84ZM139.19 372.088C139.19 372.472 139.166 372.872 139.118 373.288H129.83C129.894 374.12 130.158 374.76 130.622 375.208C131.102 375.64 131.686 375.856 132.374 375.856C133.398 375.856 134.11 375.424 134.51 374.56H138.878C138.654 375.44 138.246 376.232 137.654 376.936C137.078 377.64 136.35 378.192 135.47 378.592C134.59 378.992 133.606 379.192 132.518 379.192C131.206 379.192 130.038 378.912 129.014 378.352C127.99 377.792 127.19 376.992 126.614 375.952C126.038 374.912 125.75 373.696 125.75 372.304C125.75 370.912 126.03 369.696 126.59 368.656C127.166 367.616 127.966 366.816 128.99 366.256C130.014 365.696 131.19 365.416 132.518 365.416C133.814 365.416 134.966 365.688 135.974 366.232C136.982 366.776 137.766 367.552 138.326 368.56C138.902 369.568 139.19 370.744 139.19 372.088ZM134.99 371.008C134.99 370.304 134.75 369.744 134.27 369.328C133.79 368.912 133.19 368.704 132.47 368.704C131.782 368.704 131.198 368.904 130.718 369.304C130.254 369.704 129.966 370.272 129.854 371.008H134.99ZM151.675 368.872V372.28H141.115V368.872H151.675ZM172.365 365.464C174.029 365.464 175.349 365.968 176.325 366.976C177.317 367.984 177.813 369.384 177.813 371.176V379H173.733V371.728C173.733 370.864 173.501 370.2 173.037 369.736C172.589 369.256 171.965 369.016 171.165 369.016C170.365 369.016 169.733 369.256 169.269 369.736C168.821 370.2 168.597 370.864 168.597 371.728V379H164.517V371.728C164.517 370.864 164.285 370.2 163.821 369.736C163.373 369.256 162.749 369.016 161.949 369.016C161.149 369.016 160.517 369.256 160.053 369.736C159.605 370.2 159.381 370.864 159.381 371.728V379H155.277V365.608H159.381V367.288C159.797 366.728 160.341 366.288 161.013 365.968C161.685 365.632 162.445 365.464 163.293 365.464C164.301 365.464 165.197 365.68 165.981 366.112C166.781 366.544 167.405 367.16 167.853 367.96C168.317 367.224 168.949 366.624 169.749 366.16C170.549 365.696 171.421 365.464 172.365 365.464ZM179.867 372.28C179.867 370.904 180.123 369.696 180.635 368.656C181.163 367.616 181.875 366.816 182.771 366.256C183.667 365.696 184.667 365.416 185.771 365.416C186.715 365.416 187.539 365.608 188.243 365.992C188.963 366.376 189.515 366.88 189.899 367.504V365.608H194.003V379H189.899V377.104C189.499 377.728 188.939 378.232 188.219 378.616C187.515 379 186.691 379.192 185.747 379.192C184.659 379.192 183.667 378.912 182.771 378.352C181.875 377.776 181.163 376.968 180.635 375.928C180.123 374.872 179.867 373.656 179.867 372.28ZM189.899 372.304C189.899 371.28 189.611 370.472 189.035 369.88C188.475 369.288 187.787 368.992 186.971 368.992C186.155 368.992 185.459 369.288 184.883 369.88C184.323 370.456 184.043 371.256 184.043 372.28C184.043 373.304 184.323 374.12 184.883 374.728C185.459 375.32 186.155 375.616 186.971 375.616C187.787 375.616 188.475 375.32 189.035 374.728C189.611 374.136 189.899 373.328 189.899 372.304ZM199.036 364.216C198.316 364.216 197.724 364.008 197.26 363.592C196.812 363.16 196.588 362.632 196.588 362.008C196.588 361.368 196.812 360.84 197.26 360.424C197.724 359.992 198.316 359.776 199.036 359.776C199.74 359.776 200.316 359.992 200.764 360.424C201.228 360.84 201.46 361.368 201.46 362.008C201.46 362.632 201.228 363.16 200.764 363.592C200.316 364.008 199.74 364.216 199.036 364.216ZM201.076 365.608V379H196.972V365.608H201.076ZM208.155 361.24V379H204.051V361.24H208.155Z" fill="black"/>
<rect y="71" width="98.25" height="7" fill="black"/>
<path d="M98.25 71H193C194.933 71 196.5 72.567 196.5 74.5C196.5 76.433 194.933 78 193 78H98.25V71Z" fill="black"/>
<rect x="196.5" y="71" width="98.25" height="7" fill="#D9D9D9"/>
<rect x="294.75" y="71" width="98.25" height="7" fill="#D9D9D9"/>
</svg>
