<svg width="393" height="852" viewBox="0 0 393 852" fill="none" xmlns="http://www.w3.org/2000/svg">
<rect width="393" height="852" fill="white"/>
<path d="M99.4972 111.96V114.7H93.7772V117.66H98.0572V120.32H93.7772V126H90.3572V111.96H99.4972ZM112.315 114.84V126H108.895V124.48C108.548 124.973 108.075 125.373 107.475 125.68C106.888 125.973 106.235 126.12 105.515 126.12C104.661 126.12 103.908 125.933 103.255 125.56C102.601 125.173 102.095 124.62 101.735 123.9C101.375 123.18 101.195 122.333 101.195 121.36V114.84H104.595V120.9C104.595 121.647 104.788 122.227 105.175 122.64C105.561 123.053 106.081 123.26 106.735 123.26C107.401 123.26 107.928 123.053 108.315 122.64C108.701 122.227 108.895 121.647 108.895 120.9V114.84H112.315ZM118.191 111.2V126H114.771V111.2H118.191ZM119.99 120.4C119.99 119.253 120.203 118.247 120.63 117.38C121.07 116.513 121.663 115.847 122.41 115.38C123.156 114.913 123.99 114.68 124.91 114.68C125.696 114.68 126.383 114.84 126.97 115.16C127.57 115.48 128.03 115.9 128.35 116.42V114.84H131.77V126H128.35V124.42C128.016 124.94 127.55 125.36 126.95 125.68C126.363 126 125.676 126.16 124.89 126.16C123.983 126.16 123.156 125.927 122.41 125.46C121.663 124.98 121.07 124.307 120.63 123.44C120.203 122.56 119.99 121.547 119.99 120.4ZM128.35 120.42C128.35 119.567 128.11 118.893 127.63 118.4C127.163 117.907 126.59 117.66 125.91 117.66C125.23 117.66 124.65 117.907 124.17 118.4C123.703 118.88 123.47 119.547 123.47 120.4C123.47 121.253 123.703 121.933 124.17 122.44C124.65 122.933 125.23 123.18 125.91 123.18C126.59 123.18 127.163 122.933 127.63 122.44C128.11 121.947 128.35 121.273 128.35 120.42ZM141.044 114.72C142.351 114.72 143.391 115.147 144.164 116C144.951 116.84 145.344 118 145.344 119.48V126H141.944V119.94C141.944 119.193 141.751 118.613 141.364 118.2C140.977 117.787 140.457 117.58 139.804 117.58C139.151 117.58 138.631 117.787 138.244 118.2C137.857 118.613 137.664 119.193 137.664 119.94V126H134.244V114.84H137.664V116.32C138.011 115.827 138.477 115.44 139.064 115.16C139.651 114.867 140.311 114.72 141.044 114.72ZM152.8 126.16C151.707 126.16 150.72 125.927 149.84 125.46C148.974 124.993 148.287 124.327 147.78 123.46C147.287 122.593 147.04 121.58 147.04 120.42C147.04 119.273 147.294 118.267 147.8 117.4C148.307 116.52 149 115.847 149.88 115.38C150.76 114.913 151.747 114.68 152.84 114.68C153.934 114.68 154.92 114.913 155.8 115.38C156.68 115.847 157.374 116.52 157.88 117.4C158.387 118.267 158.64 119.273 158.64 120.42C158.64 121.567 158.38 122.58 157.86 123.46C157.354 124.327 156.654 124.993 155.76 125.46C154.88 125.927 153.894 126.16 152.8 126.16ZM152.8 123.2C153.454 123.2 154.007 122.96 154.46 122.48C154.927 122 155.16 121.313 155.16 120.42C155.16 119.527 154.934 118.84 154.48 118.36C154.04 117.88 153.494 117.64 152.84 117.64C152.174 117.64 151.62 117.88 151.18 118.36C150.74 118.827 150.52 119.513 150.52 120.42C150.52 121.313 150.734 122 151.16 122.48C151.6 122.96 152.147 123.2 152.8 123.2ZM164.013 120.4C164.013 119.253 164.226 118.247 164.653 117.38C165.093 116.513 165.686 115.847 166.433 115.38C167.18 114.913 168.013 114.68 168.933 114.68C169.666 114.68 170.333 114.833 170.933 115.14C171.546 115.447 172.026 115.86 172.373 116.38V111.2H175.793V126H172.373V124.4C172.053 124.933 171.593 125.36 170.993 125.68C170.406 126 169.72 126.16 168.933 126.16C168.013 126.16 167.18 125.927 166.433 125.46C165.686 124.98 165.093 124.307 164.653 123.44C164.226 122.56 164.013 121.547 164.013 120.4ZM172.373 120.42C172.373 119.567 172.133 118.893 171.653 118.4C171.186 117.907 170.613 117.66 169.933 117.66C169.253 117.66 168.673 117.907 168.193 118.4C167.726 118.88 167.493 119.547 167.493 120.4C167.493 121.253 167.726 121.933 168.193 122.44C168.673 122.933 169.253 123.18 169.933 123.18C170.613 123.18 171.186 122.933 171.653 122.44C172.133 121.947 172.373 121.273 172.373 120.42ZM177.587 120.4C177.587 119.253 177.801 118.247 178.227 117.38C178.667 116.513 179.261 115.847 180.007 115.38C180.754 114.913 181.587 114.68 182.507 114.68C183.294 114.68 183.981 114.84 184.567 115.16C185.167 115.48 185.627 115.9 185.947 116.42V114.84H189.367V126H185.947V124.42C185.614 124.94 185.147 125.36 184.547 125.68C183.961 126 183.274 126.16 182.487 126.16C181.581 126.16 180.754 125.927 180.007 125.46C179.261 124.98 178.667 124.307 178.227 123.44C177.801 122.56 177.587 121.547 177.587 120.4ZM185.947 120.42C185.947 119.567 185.707 118.893 185.227 118.4C184.761 117.907 184.187 117.66 183.507 117.66C182.827 117.66 182.247 117.907 181.767 118.4C181.301 118.88 181.067 119.547 181.067 120.4C181.067 121.253 181.301 121.933 181.767 122.44C182.247 122.933 182.827 123.18 183.507 123.18C184.187 123.18 184.761 122.933 185.227 122.44C185.707 121.947 185.947 121.273 185.947 120.42ZM200.62 126.16C199.647 126.16 198.78 125.993 198.02 125.66C197.26 125.327 196.66 124.873 196.22 124.3C195.78 123.713 195.533 123.06 195.48 122.34H198.86C198.9 122.727 199.08 123.04 199.4 123.28C199.72 123.52 200.113 123.64 200.58 123.64C201.007 123.64 201.333 123.56 201.56 123.4C201.8 123.227 201.92 123.007 201.92 122.74C201.92 122.42 201.753 122.187 201.42 122.04C201.087 121.88 200.547 121.707 199.8 121.52C199 121.333 198.333 121.14 197.8 120.94C197.267 120.727 196.807 120.4 196.42 119.96C196.033 119.507 195.84 118.9 195.84 118.14C195.84 117.5 196.013 116.92 196.36 116.4C196.72 115.867 197.24 115.447 197.92 115.14C198.613 114.833 199.433 114.68 200.38 114.68C201.78 114.68 202.88 115.027 203.68 115.72C204.493 116.413 204.96 117.333 205.08 118.48H201.92C201.867 118.093 201.693 117.787 201.4 117.56C201.12 117.333 200.747 117.22 200.28 117.22C199.88 117.22 199.573 117.3 199.36 117.46C199.147 117.607 199.04 117.813 199.04 118.08C199.04 118.4 199.207 118.64 199.54 118.8C199.887 118.96 200.42 119.12 201.14 119.28C201.967 119.493 202.64 119.707 203.16 119.92C203.68 120.12 204.133 120.453 204.52 120.92C204.92 121.373 205.127 121.987 205.14 122.76C205.14 123.413 204.953 124 204.58 124.52C204.22 125.027 203.693 125.427 203 125.72C202.32 126.013 201.527 126.16 200.62 126.16ZM208.952 113.68C208.352 113.68 207.859 113.507 207.472 113.16C207.099 112.8 206.912 112.36 206.912 111.84C206.912 111.307 207.099 110.867 207.472 110.52C207.859 110.16 208.352 109.98 208.952 109.98C209.539 109.98 210.019 110.16 210.392 110.52C210.779 110.867 210.972 111.307 210.972 111.84C210.972 112.36 210.779 112.8 210.392 113.16C210.019 113.507 209.539 113.68 208.952 113.68ZM210.652 114.84V126H207.232V114.84H210.652ZM216.551 111.2V126H213.131V111.2H216.551ZM224.049 122.8L226.469 114.84H230.109L226.149 126H221.929L217.969 114.84H221.629L224.049 122.8ZM230.869 120.4C230.869 119.253 231.082 118.247 231.509 117.38C231.949 116.513 232.542 115.847 233.289 115.38C234.035 114.913 234.869 114.68 235.789 114.68C236.575 114.68 237.262 114.84 237.849 115.16C238.449 115.48 238.909 115.9 239.229 116.42V114.84H242.649V126H239.229V124.42C238.895 124.94 238.429 125.36 237.829 125.68C237.242 126 236.555 126.16 235.769 126.16C234.862 126.16 234.035 125.927 233.289 125.46C232.542 124.98 231.949 124.307 231.509 123.44C231.082 122.56 230.869 121.547 230.869 120.4ZM239.229 120.42C239.229 119.567 238.989 118.893 238.509 118.4C238.042 117.907 237.469 117.66 236.789 117.66C236.109 117.66 235.529 117.907 235.049 118.4C234.582 118.88 234.349 119.547 234.349 120.4C234.349 121.253 234.582 121.933 235.049 122.44C235.529 122.933 236.109 123.18 236.789 123.18C237.469 123.18 238.042 122.933 238.509 122.44C238.989 121.947 239.229 121.273 239.229 120.42Z" fill="black"/>
<path d="M96.6626 137.655V141.15H100.473V142.275H96.6626V145.875H100.923V147H95.2976V136.53H100.923V137.655H96.6626ZM102.478 142.86C102.478 142.02 102.648 141.285 102.988 140.655C103.328 140.015 103.793 139.52 104.383 139.17C104.983 138.82 105.653 138.645 106.393 138.645C107.033 138.645 107.628 138.795 108.178 139.095C108.728 139.385 109.148 139.77 109.438 140.25V135.9H110.818V147H109.438V145.455C109.168 145.945 108.768 146.35 108.238 146.67C107.708 146.98 107.088 147.135 106.378 147.135C105.648 147.135 104.983 146.955 104.383 146.595C103.793 146.235 103.328 145.73 102.988 145.08C102.648 144.43 102.478 143.69 102.478 142.86ZM109.438 142.875C109.438 142.255 109.313 141.715 109.063 141.255C108.813 140.795 108.473 140.445 108.043 140.205C107.623 139.955 107.158 139.83 106.648 139.83C106.138 139.83 105.673 139.95 105.253 140.19C104.833 140.43 104.498 140.78 104.248 141.24C103.998 141.7 103.873 142.24 103.873 142.86C103.873 143.49 103.998 144.04 104.248 144.51C104.498 144.97 104.833 145.325 105.253 145.575C105.673 145.815 106.138 145.935 106.648 145.935C107.158 145.935 107.623 145.815 108.043 145.575C108.473 145.325 108.813 144.97 109.063 144.51C109.313 144.04 109.438 143.495 109.438 142.875ZM113.83 137.445C113.57 137.445 113.35 137.355 113.17 137.175C112.99 136.995 112.9 136.775 112.9 136.515C112.9 136.255 112.99 136.035 113.17 135.855C113.35 135.675 113.57 135.585 113.83 135.585C114.08 135.585 114.29 135.675 114.46 135.855C114.64 136.035 114.73 136.255 114.73 136.515C114.73 136.775 114.64 136.995 114.46 137.175C114.29 137.355 114.08 137.445 113.83 137.445ZM114.49 138.78V147H113.125V138.78H114.49ZM118.481 139.905V144.75C118.481 145.15 118.566 145.435 118.736 145.605C118.906 145.765 119.201 145.845 119.621 145.845H120.626V147H119.396C118.636 147 118.066 146.825 117.686 146.475C117.306 146.125 117.116 145.55 117.116 144.75V139.905H116.051V138.78H117.116V136.71H118.481V138.78H120.626V139.905H118.481ZM121.77 142.86C121.77 142.02 121.94 141.285 122.28 140.655C122.62 140.015 123.085 139.52 123.675 139.17C124.275 138.82 124.94 138.645 125.67 138.645C126.39 138.645 127.015 138.8 127.545 139.11C128.075 139.42 128.47 139.81 128.73 140.28V138.78H130.11V147H128.73V145.47C128.46 145.95 128.055 146.35 127.515 146.67C126.985 146.98 126.365 147.135 125.655 147.135C124.925 147.135 124.265 146.955 123.675 146.595C123.085 146.235 122.62 145.73 122.28 145.08C121.94 144.43 121.77 143.69 121.77 142.86ZM128.73 142.875C128.73 142.255 128.605 141.715 128.355 141.255C128.105 140.795 127.765 140.445 127.335 140.205C126.915 139.955 126.45 139.83 125.94 139.83C125.43 139.83 124.965 139.95 124.545 140.19C124.125 140.43 123.79 140.78 123.54 141.24C123.29 141.7 123.165 142.24 123.165 142.86C123.165 143.49 123.29 144.04 123.54 144.51C123.79 144.97 124.125 145.325 124.545 145.575C124.965 145.815 125.43 145.935 125.94 145.935C126.45 145.935 126.915 145.815 127.335 145.575C127.765 145.325 128.105 144.97 128.355 144.51C128.605 144.04 128.73 143.495 128.73 142.875ZM133.782 140.115C134.022 139.645 134.362 139.28 134.802 139.02C135.252 138.76 135.797 138.63 136.437 138.63V140.04H136.077C134.547 140.04 133.782 140.87 133.782 142.53V147H132.417V138.78H133.782V140.115Z" fill="black"/>
<rect width="393" height="72" fill="white"/>
<path d="M35.9187 45.105C35.1487 45.105 34.4587 44.98 33.8487 44.73C33.2387 44.48 32.7487 44.11 32.3787 43.62C32.0187 43.13 31.8287 42.54 31.8087 41.85H34.5387C34.5787 42.24 34.7137 42.54 34.9437 42.75C35.1737 42.95 35.4737 43.05 35.8437 43.05C36.2237 43.05 36.5237 42.965 36.7437 42.795C36.9637 42.615 37.0737 42.37 37.0737 42.06C37.0737 41.8 36.9837 41.585 36.8037 41.415C36.6337 41.245 36.4187 41.105 36.1587 40.995C35.9087 40.885 35.5487 40.76 35.0787 40.62C34.3987 40.41 33.8437 40.2 33.4137 39.99C32.9837 39.78 32.6137 39.47 32.3037 39.06C31.9937 38.65 31.8387 38.115 31.8387 37.455C31.8387 36.475 32.1937 35.71 32.9037 35.16C33.6137 34.6 34.5387 34.32 35.6787 34.32C36.8387 34.32 37.7737 34.6 38.4837 35.16C39.1937 35.71 39.5737 36.48 39.6237 37.47H36.8487C36.8287 37.13 36.7037 36.865 36.4737 36.675C36.2437 36.475 35.9487 36.375 35.5887 36.375C35.2787 36.375 35.0287 36.46 34.8387 36.63C34.6487 36.79 34.5537 37.025 34.5537 37.335C34.5537 37.675 34.7137 37.94 35.0337 38.13C35.3537 38.32 35.8537 38.525 36.5337 38.745C37.2137 38.975 37.7637 39.195 38.1837 39.405C38.6137 39.615 38.9837 39.92 39.2937 40.32C39.6037 40.72 39.7587 41.235 39.7587 41.865C39.7587 42.465 39.6037 43.01 39.2937 43.5C38.9937 43.99 38.5537 44.38 37.9737 44.67C37.3937 44.96 36.7087 45.105 35.9187 45.105ZM43.8572 34.47V40.77C43.8572 41.4 44.0122 41.885 44.3222 42.225C44.6322 42.565 45.0872 42.735 45.6872 42.735C46.2872 42.735 46.7472 42.565 47.0672 42.225C47.3872 41.885 47.5472 41.4 47.5472 40.77V34.47H50.1122V40.755C50.1122 41.695 49.9122 42.49 49.5122 43.14C49.1122 43.79 48.5722 44.28 47.8922 44.61C47.2222 44.94 46.4722 45.105 45.6422 45.105C44.8122 45.105 44.0672 44.945 43.4072 44.625C42.7572 44.295 42.2422 43.805 41.8622 43.155C41.4822 42.495 41.2922 41.695 41.2922 40.755V34.47H43.8572ZM58.4684 43.14H54.5384L53.9084 45H51.2234L55.0334 34.47H58.0034L61.8134 45H59.0984L58.4684 43.14ZM57.8084 41.16L56.5034 37.305L55.2134 41.16H57.8084ZM69.963 37.8C69.773 37.45 69.498 37.185 69.138 37.005C68.788 36.815 68.373 36.72 67.893 36.72C67.063 36.72 66.398 36.995 65.898 37.545C65.398 38.085 65.148 38.81 65.148 39.72C65.148 40.69 65.408 41.45 65.928 42C66.458 42.54 67.183 42.81 68.103 42.81C68.733 42.81 69.263 42.65 69.693 42.33C70.133 42.01 70.453 41.55 70.653 40.95H67.398V39.06H72.978V41.445C72.788 42.085 72.463 42.68 72.003 43.23C71.553 43.78 70.978 44.225 70.278 44.565C69.578 44.905 68.788 45.075 67.908 45.075C66.868 45.075 65.938 44.85 65.118 44.4C64.308 43.94 63.673 43.305 63.213 42.495C62.763 41.685 62.538 40.76 62.538 39.72C62.538 38.68 62.763 37.755 63.213 36.945C63.673 36.125 64.308 35.49 65.118 35.04C65.928 34.58 66.853 34.35 67.893 34.35C69.153 34.35 70.213 34.655 71.073 35.265C71.943 35.875 72.518 36.72 72.798 37.8H69.963ZM76.9638 36.525V38.655H80.3988V40.635H76.9638V42.945H80.8488V45H74.3988V34.47H80.8488V36.525H76.9638ZM91.934 45H89.369L85.079 38.505V45H82.514V34.47H85.079L89.369 40.995V34.47H91.934V45ZM97.7383 34.47C98.8483 34.47 99.8183 34.69 100.648 35.13C101.478 35.57 102.118 36.19 102.568 36.99C103.028 37.78 103.258 38.695 103.258 39.735C103.258 40.765 103.028 41.68 102.568 42.48C102.118 43.28 101.473 43.9 100.633 44.34C99.8033 44.78 98.8383 45 97.7383 45H93.7933V34.47H97.7383ZM97.5733 42.78C98.5433 42.78 99.2983 42.515 99.8383 41.985C100.378 41.455 100.648 40.705 100.648 39.735C100.648 38.765 100.378 38.01 99.8383 37.47C99.2983 36.93 98.5433 36.66 97.5733 36.66H96.3583V42.78H97.5733ZM111.247 43.14H107.317L106.687 45H104.002L107.812 34.47H110.782L114.592 45H111.877L111.247 43.14ZM110.587 41.16L109.282 37.305L107.992 41.16H110.587Z" fill="black"/>
<path d="M334.276 42.9445C333.786 42.1023 333.202 40.4953 333.202 37.625V37.0148C333.202 33.0187 329.996 29.7445 326.052 29.7188H326C325.053 29.7187 324.115 29.9056 323.24 30.2686C322.365 30.6316 321.571 31.1636 320.902 31.8341C320.233 32.5047 319.703 33.3006 319.342 34.1763C318.981 35.052 318.796 35.9903 318.799 36.9375V37.625C318.799 40.4953 318.214 42.1023 317.724 42.9445C317.574 43.2063 317.495 43.5029 317.495 43.8047C317.495 44.1065 317.575 44.403 317.725 44.6647C317.875 44.9264 318.092 45.1441 318.353 45.2961C318.613 45.4481 318.909 45.5292 319.211 45.5312H322.236C322.326 46.4675 322.761 47.3367 323.457 47.9693C324.153 48.6019 325.06 48.9524 326 48.9524C326.941 48.9524 327.847 48.6019 328.543 47.9693C329.239 47.3367 329.675 46.4675 329.764 45.5312H332.789C333.091 45.5292 333.387 45.4481 333.648 45.2961C333.908 45.1441 334.125 44.9264 334.275 44.6647C334.426 44.403 334.505 44.1065 334.505 43.8047C334.505 43.5029 334.426 43.2063 334.276 42.9445ZM326 46.9062C325.604 46.9047 325.221 46.7673 324.914 46.517C324.608 46.2667 324.396 45.9187 324.316 45.5312H327.684C327.604 45.9187 327.392 46.2667 327.086 46.517C326.779 46.7673 326.396 46.9047 326 46.9062ZM319.778 43.4687C320.663 41.6125 320.861 39.3008 320.861 37.625V36.9375C320.858 36.2609 320.988 35.5902 321.245 34.9642C321.502 34.3382 321.88 33.7692 322.358 33.29C322.835 32.8107 323.403 32.4307 324.028 32.1718C324.653 31.9128 325.323 31.7801 326 31.7812H326.043C328.853 31.7984 331.139 34.1445 331.139 37.0148V37.625C331.139 39.3008 331.337 41.6125 332.222 43.4687H319.778Z" fill="black"/>
<path d="M359 29C357.687 29 356.386 29.2587 355.173 29.7612C353.96 30.2638 352.858 31.0003 351.929 31.9289C350.054 33.8043 349 36.3478 349 39C349 41.6522 350.054 44.1957 351.929 46.0711C352.858 46.9997 353.96 47.7362 355.173 48.2388C356.386 48.7413 357.687 49 359 49C361.652 49 364.196 47.9464 366.071 46.0711C367.946 44.1957 369 41.6522 369 39C369 37.6868 368.741 36.3864 368.239 35.1732C367.736 33.9599 367 32.8575 366.071 31.9289C365.142 31.0003 364.04 30.2638 362.827 29.7612C361.614 29.2587 360.313 29 359 29ZM354.07 45.28C354.5 44.38 357.12 43.5 359 43.5C360.88 43.5 363.5 44.38 363.93 45.28C362.529 46.396 360.791 47.0026 359 47C357.14 47 355.43 46.36 354.07 45.28ZM365.36 43.83C363.93 42.09 360.46 41.5 359 41.5C357.54 41.5 354.07 42.09 352.64 43.83C351.576 42.4446 351 40.7467 351 39C351 34.59 354.59 31 359 31C363.41 31 367 34.59 367 39C367 40.82 366.38 42.5 365.36 43.83ZM359 33C357.06 33 355.5 34.56 355.5 36.5C355.5 38.44 357.06 40 359 40C360.94 40 362.5 38.44 362.5 36.5C362.5 34.56 360.94 33 359 33ZM359 38C358.602 38 358.221 37.842 357.939 37.5607C357.658 37.2794 357.5 36.8978 357.5 36.5C357.5 36.1022 357.658 35.7206 357.939 35.4393C358.221 35.158 358.602 35 359 35C359.398 35 359.779 35.158 360.061 35.4393C360.342 35.7206 360.5 36.1022 360.5 36.5C360.5 36.8978 360.342 37.2794 360.061 37.5607C359.779 37.842 359.398 38 359 38Z" fill="black"/>
<circle cx="52" cy="126" r="21" fill="#D9D9D9"/>
<path d="M35.47 241.105C34.78 241.105 34.16 240.985 33.61 240.745C33.07 240.495 32.645 240.155 32.335 239.725C32.025 239.285 31.865 238.78 31.855 238.21H33.31C33.36 238.7 33.56 239.115 33.91 239.455C34.27 239.785 34.79 239.95 35.47 239.95C36.12 239.95 36.63 239.79 37 239.47C37.38 239.14 37.57 238.72 37.57 238.21C37.57 237.81 37.46 237.485 37.24 237.235C37.02 236.985 36.745 236.795 36.415 236.665C36.085 236.535 35.64 236.395 35.08 236.245C34.39 236.065 33.835 235.885 33.415 235.705C33.005 235.525 32.65 235.245 32.35 234.865C32.06 234.475 31.915 233.955 31.915 233.305C31.915 232.735 32.06 232.23 32.35 231.79C32.64 231.35 33.045 231.01 33.565 230.77C34.095 230.53 34.7 230.41 35.38 230.41C36.36 230.41 37.16 230.655 37.78 231.145C38.41 231.635 38.765 232.285 38.845 233.095H37.345C37.295 232.695 37.085 232.345 36.715 232.045C36.345 231.735 35.855 231.58 35.245 231.58C34.675 231.58 34.21 231.73 33.85 232.03C33.49 232.32 33.31 232.73 33.31 233.26C33.31 233.64 33.415 233.95 33.625 234.19C33.845 234.43 34.11 234.615 34.42 234.745C34.74 234.865 35.185 235.005 35.755 235.165C36.445 235.355 37 235.545 37.42 235.735C37.84 235.915 38.2 236.2 38.5 236.59C38.8 236.97 38.95 237.49 38.95 238.15C38.95 238.66 38.815 239.14 38.545 239.59C38.275 240.04 37.875 240.405 37.345 240.685C36.815 240.965 36.19 241.105 35.47 241.105ZM40.4487 236.86C40.4487 236.02 40.6187 235.285 40.9587 234.655C41.2987 234.015 41.7637 233.52 42.3537 233.17C42.9537 232.82 43.6187 232.645 44.3487 232.645C45.0687 232.645 45.6937 232.8 46.2237 233.11C46.7537 233.42 47.1487 233.81 47.4087 234.28V232.78H48.7887V241H47.4087V239.47C47.1387 239.95 46.7337 240.35 46.1937 240.67C45.6637 240.98 45.0437 241.135 44.3337 241.135C43.6037 241.135 42.9437 240.955 42.3537 240.595C41.7637 240.235 41.2987 239.73 40.9587 239.08C40.6187 238.43 40.4487 237.69 40.4487 236.86ZM47.4087 236.875C47.4087 236.255 47.2837 235.715 47.0337 235.255C46.7837 234.795 46.4437 234.445 46.0137 234.205C45.5937 233.955 45.1287 233.83 44.6187 233.83C44.1087 233.83 43.6437 233.95 43.2237 234.19C42.8037 234.43 42.4687 234.78 42.2187 235.24C41.9687 235.7 41.8437 236.24 41.8437 236.86C41.8437 237.49 41.9687 238.04 42.2187 238.51C42.4687 238.97 42.8037 239.325 43.2237 239.575C43.6437 239.815 44.1087 239.935 44.6187 239.935C45.1287 239.935 45.5937 239.815 46.0137 239.575C46.4437 239.325 46.7837 238.97 47.0337 238.51C47.2837 238.04 47.4087 237.495 47.4087 236.875ZM51.8004 231.445C51.5404 231.445 51.3204 231.355 51.1404 231.175C50.9604 230.995 50.8704 230.775 50.8704 230.515C50.8704 230.255 50.9604 230.035 51.1404 229.855C51.3204 229.675 51.5404 229.585 51.8004 229.585C52.0504 229.585 52.2604 229.675 52.4304 229.855C52.6104 230.035 52.7004 230.255 52.7004 230.515C52.7004 230.775 52.6104 230.995 52.4304 231.175C52.2604 231.355 52.0504 231.445 51.8004 231.445ZM52.4604 232.78V241H51.0954V232.78H52.4604ZM56.1518 234.115C56.3918 233.645 56.7318 233.28 57.1718 233.02C57.6218 232.76 58.1668 232.63 58.8068 232.63V234.04H58.4468C56.9168 234.04 56.1518 234.87 56.1518 236.53V241H54.7868V232.78H56.1518V234.115ZM63.8716 236.86C63.8716 236.02 64.0416 235.285 64.3816 234.655C64.7216 234.015 65.1866 233.52 65.7766 233.17C66.3766 232.82 67.0466 232.645 67.7866 232.645C68.4266 232.645 69.0216 232.795 69.5716 233.095C70.1216 233.385 70.5416 233.77 70.8316 234.25V229.9H72.2116V241H70.8316V239.455C70.5616 239.945 70.1616 240.35 69.6316 240.67C69.1016 240.98 68.4816 241.135 67.7716 241.135C67.0416 241.135 66.3766 240.955 65.7766 240.595C65.1866 240.235 64.7216 239.73 64.3816 239.08C64.0416 238.43 63.8716 237.69 63.8716 236.86ZM70.8316 236.875C70.8316 236.255 70.7066 235.715 70.4566 235.255C70.2066 234.795 69.8666 234.445 69.4366 234.205C69.0166 233.955 68.5516 233.83 68.0416 233.83C67.5316 233.83 67.0666 233.95 66.6466 234.19C66.2266 234.43 65.8916 234.78 65.6416 235.24C65.3916 235.7 65.2666 236.24 65.2666 236.86C65.2666 237.49 65.3916 238.04 65.6416 238.51C65.8916 238.97 66.2266 239.325 66.6466 239.575C67.0666 239.815 67.5316 239.935 68.0416 239.935C68.5516 239.935 69.0166 239.815 69.4366 239.575C69.8666 239.325 70.2066 238.97 70.4566 238.51C70.7066 238.04 70.8316 237.495 70.8316 236.875ZM74.0083 236.86C74.0083 236.02 74.1783 235.285 74.5183 234.655C74.8583 234.015 75.3233 233.52 75.9133 233.17C76.5133 232.82 77.1783 232.645 77.9083 232.645C78.6283 232.645 79.2533 232.8 79.7833 233.11C80.3133 233.42 80.7083 233.81 80.9683 234.28V232.78H82.3483V241H80.9683V239.47C80.6983 239.95 80.2933 240.35 79.7533 240.67C79.2233 240.98 78.6033 241.135 77.8933 241.135C77.1633 241.135 76.5033 240.955 75.9133 240.595C75.3233 240.235 74.8583 239.73 74.5183 239.08C74.1783 238.43 74.0083 237.69 74.0083 236.86ZM80.9683 236.875C80.9683 236.255 80.8433 235.715 80.5933 235.255C80.3433 234.795 80.0033 234.445 79.5733 234.205C79.1533 233.955 78.6883 233.83 78.1783 233.83C77.6683 233.83 77.2033 233.95 76.7833 234.19C76.3633 234.43 76.0283 234.78 75.7783 235.24C75.5283 235.7 75.4033 236.24 75.4033 236.86C75.4033 237.49 75.5283 238.04 75.7783 238.51C76.0283 238.97 76.3633 239.325 76.7833 239.575C77.2033 239.815 77.6683 239.935 78.1783 239.935C78.6883 239.935 79.1533 239.815 79.5733 239.575C80.0033 239.325 80.3433 238.97 80.5933 238.51C80.8433 238.04 80.9683 237.495 80.9683 236.875ZM88.144 236.875C88.144 236.025 88.314 235.285 88.654 234.655C88.994 234.015 89.464 233.52 90.064 233.17C90.674 232.82 91.369 232.645 92.149 232.645C93.159 232.645 93.989 232.89 94.639 233.38C95.299 233.87 95.734 234.55 95.944 235.42H94.474C94.334 234.92 94.059 234.525 93.649 234.235C93.249 233.945 92.749 233.8 92.149 233.8C91.369 233.8 90.739 234.07 90.259 234.61C89.779 235.14 89.539 235.895 89.539 236.875C89.539 237.865 89.779 238.63 90.259 239.17C90.739 239.71 91.369 239.98 92.149 239.98C92.749 239.98 93.249 239.84 93.649 239.56C94.049 239.28 94.324 238.88 94.474 238.36H95.944C95.724 239.2 95.284 239.875 94.624 240.385C93.964 240.885 93.139 241.135 92.149 241.135C91.369 241.135 90.674 240.96 90.064 240.61C89.464 240.26 88.994 239.765 88.654 239.125C88.314 238.485 88.144 237.735 88.144 236.875ZM101.35 241.135C100.58 241.135 99.8804 240.96 99.2504 240.61C98.6304 240.26 98.1404 239.765 97.7804 239.125C97.4304 238.475 97.2554 237.725 97.2554 236.875C97.2554 236.035 97.4354 235.295 97.7954 234.655C98.1654 234.005 98.6654 233.51 99.2954 233.17C99.9254 232.82 100.63 232.645 101.41 232.645C102.19 232.645 102.895 232.82 103.525 233.17C104.155 233.51 104.65 234 105.01 234.64C105.38 235.28 105.565 236.025 105.565 236.875C105.565 237.725 105.375 238.475 104.995 239.125C104.625 239.765 104.12 240.26 103.48 240.61C102.84 240.96 102.13 241.135 101.35 241.135ZM101.35 239.935C101.84 239.935 102.3 239.82 102.73 239.59C103.16 239.36 103.505 239.015 103.765 238.555C104.035 238.095 104.17 237.535 104.17 236.875C104.17 236.215 104.04 235.655 103.78 235.195C103.52 234.735 103.18 234.395 102.76 234.175C102.34 233.945 101.885 233.83 101.395 233.83C100.895 233.83 100.435 233.945 100.015 234.175C99.6054 234.395 99.2754 234.735 99.0254 235.195C98.7754 235.655 98.6504 236.215 98.6504 236.875C98.6504 237.545 98.7704 238.11 99.0104 238.57C99.2604 239.03 99.5904 239.375 100 239.605C100.41 239.825 100.86 239.935 101.35 239.935ZM111.365 232.63C112.365 232.63 113.175 232.935 113.795 233.545C114.415 234.145 114.725 235.015 114.725 236.155V241H113.375V236.35C113.375 235.53 113.17 234.905 112.76 234.475C112.35 234.035 111.79 233.815 111.08 233.815C110.36 233.815 109.785 234.04 109.355 234.49C108.935 234.94 108.725 235.595 108.725 236.455V241H107.36V232.78H108.725V233.95C108.995 233.53 109.36 233.205 109.82 232.975C110.29 232.745 110.805 232.63 111.365 232.63ZM118.62 233.905V238.75C118.62 239.15 118.705 239.435 118.875 239.605C119.045 239.765 119.34 239.845 119.76 239.845H120.765V241H119.535C118.775 241 118.205 240.825 117.825 240.475C117.445 240.125 117.255 239.55 117.255 238.75V233.905H116.19V232.78H117.255V230.71H118.62V232.78H120.765V233.905H118.62ZM121.909 236.86C121.909 236.02 122.079 235.285 122.419 234.655C122.759 234.015 123.224 233.52 123.814 233.17C124.414 232.82 125.079 232.645 125.809 232.645C126.529 232.645 127.154 232.8 127.684 233.11C128.214 233.42 128.609 233.81 128.869 234.28V232.78H130.249V241H128.869V239.47C128.599 239.95 128.194 240.35 127.654 240.67C127.124 240.98 126.504 241.135 125.794 241.135C125.064 241.135 124.404 240.955 123.814 240.595C123.224 240.235 122.759 239.73 122.419 239.08C122.079 238.43 121.909 237.69 121.909 236.86ZM128.869 236.875C128.869 236.255 128.744 235.715 128.494 235.255C128.244 234.795 127.904 234.445 127.474 234.205C127.054 233.955 126.589 233.83 126.079 233.83C125.569 233.83 125.104 233.95 124.684 234.19C124.264 234.43 123.929 234.78 123.679 235.24C123.429 235.7 123.304 236.24 123.304 236.86C123.304 237.49 123.429 238.04 123.679 238.51C123.929 238.97 124.264 239.325 124.684 239.575C125.104 239.815 125.569 239.935 126.079 239.935C126.589 239.935 127.054 239.815 127.474 239.575C127.904 239.325 128.244 238.97 128.494 238.51C128.744 238.04 128.869 237.495 128.869 236.875Z" fill="black"/>
<path d="M40.375 203H39.01L33.52 194.675V203H32.155V192.53H33.52L39.01 200.84V192.53H40.375V203ZM46.2869 203.135C45.5169 203.135 44.8169 202.96 44.1869 202.61C43.5669 202.26 43.0769 201.765 42.7169 201.125C42.3669 200.475 42.1919 199.725 42.1919 198.875C42.1919 198.035 42.3719 197.295 42.7319 196.655C43.1019 196.005 43.6019 195.51 44.2319 195.17C44.8619 194.82 45.5669 194.645 46.3469 194.645C47.1269 194.645 47.8319 194.82 48.4619 195.17C49.0919 195.51 49.5869 196 49.9469 196.64C50.3169 197.28 50.5019 198.025 50.5019 198.875C50.5019 199.725 50.3119 200.475 49.9319 201.125C49.5619 201.765 49.0569 202.26 48.4169 202.61C47.7769 202.96 47.0669 203.135 46.2869 203.135ZM46.2869 201.935C46.7769 201.935 47.2369 201.82 47.6669 201.59C48.0969 201.36 48.4419 201.015 48.7019 200.555C48.9719 200.095 49.1069 199.535 49.1069 198.875C49.1069 198.215 48.9769 197.655 48.7169 197.195C48.4569 196.735 48.1169 196.395 47.6969 196.175C47.2769 195.945 46.8219 195.83 46.3319 195.83C45.8319 195.83 45.3719 195.945 44.9519 196.175C44.5419 196.395 44.2119 196.735 43.9619 197.195C43.7119 197.655 43.5869 198.215 43.5869 198.875C43.5869 199.545 43.7069 200.11 43.9469 200.57C44.1969 201.03 44.5269 201.375 44.9369 201.605C45.3469 201.825 45.7969 201.935 46.2869 201.935ZM53.9616 195.905V200.75C53.9616 201.15 54.0466 201.435 54.2166 201.605C54.3866 201.765 54.6816 201.845 55.1016 201.845H56.1066V203H54.8766C54.1166 203 53.5466 202.825 53.1666 202.475C52.7866 202.125 52.5966 201.55 52.5966 200.75V195.905H51.5316V194.78H52.5966V192.71H53.9616V194.78H56.1066V195.905H53.9616ZM58.4655 193.445C58.2055 193.445 57.9855 193.355 57.8055 193.175C57.6255 192.995 57.5355 192.775 57.5355 192.515C57.5355 192.255 57.6255 192.035 57.8055 191.855C57.9855 191.675 58.2055 191.585 58.4655 191.585C58.7155 191.585 58.9255 191.675 59.0955 191.855C59.2755 192.035 59.3655 192.255 59.3655 192.515C59.3655 192.775 59.2755 192.995 59.0955 193.175C58.9255 193.355 58.7155 193.445 58.4655 193.445ZM59.1255 194.78V203H57.7605V194.78H59.1255ZM64.7969 195.905H63.0719V203H61.7069V195.905H60.6419V194.78H61.7069V194.195C61.7069 193.275 61.9419 192.605 62.4119 192.185C62.8919 191.755 63.6569 191.54 64.7069 191.54V192.68C64.1069 192.68 63.6819 192.8 63.4319 193.04C63.1919 193.27 63.0719 193.655 63.0719 194.195V194.78H64.7969V195.905ZM67.0934 193.445C66.8334 193.445 66.6134 193.355 66.4334 193.175C66.2534 192.995 66.1634 192.775 66.1634 192.515C66.1634 192.255 66.2534 192.035 66.4334 191.855C66.6134 191.675 66.8334 191.585 67.0934 191.585C67.3434 191.585 67.5534 191.675 67.7234 191.855C67.9034 192.035 67.9934 192.255 67.9934 192.515C67.9934 192.775 67.9034 192.995 67.7234 193.175C67.5534 193.355 67.3434 193.445 67.0934 193.445ZM67.7534 194.78V203H66.3884V194.78H67.7534ZM69.5698 198.875C69.5698 198.025 69.7398 197.285 70.0798 196.655C70.4198 196.015 70.8898 195.52 71.4898 195.17C72.0998 194.82 72.7948 194.645 73.5748 194.645C74.5848 194.645 75.4148 194.89 76.0648 195.38C76.7248 195.87 77.1598 196.55 77.3698 197.42H75.8998C75.7598 196.92 75.4848 196.525 75.0748 196.235C74.6748 195.945 74.1748 195.8 73.5748 195.8C72.7948 195.8 72.1648 196.07 71.6848 196.61C71.2048 197.14 70.9648 197.895 70.9648 198.875C70.9648 199.865 71.2048 200.63 71.6848 201.17C72.1648 201.71 72.7948 201.98 73.5748 201.98C74.1748 201.98 74.6748 201.84 75.0748 201.56C75.4748 201.28 75.7498 200.88 75.8998 200.36H77.3698C77.1498 201.2 76.7098 201.875 76.0498 202.385C75.3898 202.885 74.5648 203.135 73.5748 203.135C72.7948 203.135 72.0998 202.96 71.4898 202.61C70.8898 202.26 70.4198 201.765 70.0798 201.125C69.7398 200.485 69.5698 199.735 69.5698 198.875ZM78.6811 198.86C78.6811 198.02 78.8511 197.285 79.1911 196.655C79.5311 196.015 79.9961 195.52 80.5861 195.17C81.1861 194.82 81.8511 194.645 82.5811 194.645C83.3011 194.645 83.9261 194.8 84.4561 195.11C84.9861 195.42 85.3811 195.81 85.6411 196.28V194.78H87.0211V203H85.6411V201.47C85.3711 201.95 84.9661 202.35 84.4261 202.67C83.8961 202.98 83.2761 203.135 82.5661 203.135C81.8361 203.135 81.1761 202.955 80.5861 202.595C79.9961 202.235 79.5311 201.73 79.1911 201.08C78.8511 200.43 78.6811 199.69 78.6811 198.86ZM85.6411 198.875C85.6411 198.255 85.5161 197.715 85.2661 197.255C85.0161 196.795 84.6761 196.445 84.2461 196.205C83.8261 195.955 83.3611 195.83 82.8511 195.83C82.3411 195.83 81.8761 195.95 81.4561 196.19C81.0361 196.43 80.7011 196.78 80.4511 197.24C80.2011 197.7 80.0761 198.24 80.0761 198.86C80.0761 199.49 80.2011 200.04 80.4511 200.51C80.7011 200.97 81.0361 201.325 81.4561 201.575C81.8761 201.815 82.3411 201.935 82.8511 201.935C83.3611 201.935 83.8261 201.815 84.2461 201.575C84.6761 201.325 85.0161 200.97 85.2661 200.51C85.5161 200.04 85.6411 199.495 85.6411 198.875ZM92.8229 201.98C93.4229 201.98 93.9229 201.84 94.3229 201.56C94.7229 201.28 94.9979 200.88 95.1479 200.36H96.6179C96.4179 201.14 96.0229 201.78 95.4329 202.28C94.8529 202.77 94.1229 203.05 93.2429 203.12V203.87C93.8329 203.86 94.3029 203.985 94.6529 204.245C95.0029 204.505 95.1779 204.875 95.1779 205.355C95.1779 205.825 95.0079 206.2 94.6679 206.48C94.3279 206.76 93.8879 206.9 93.3479 206.9H91.6229V206.015H93.0779C93.4079 206.015 93.6479 205.965 93.7979 205.865C93.9579 205.765 94.0379 205.595 94.0379 205.355C94.0379 205.125 93.9579 204.96 93.7979 204.86C93.6479 204.76 93.4079 204.71 93.0779 204.71H92.3279V203.105C91.6379 203.035 91.0279 202.82 90.4979 202.46C89.9679 202.09 89.5529 201.6 89.2529 200.99C88.9629 200.37 88.8179 199.665 88.8179 198.875C88.8179 198.025 88.9879 197.285 89.3279 196.655C89.6679 196.015 90.1379 195.52 90.7379 195.17C91.3479 194.82 92.0429 194.645 92.8229 194.645C93.8329 194.645 94.6629 194.89 95.3129 195.38C95.9729 195.87 96.4079 196.55 96.6179 197.42H95.1479C95.0079 196.92 94.7329 196.525 94.3229 196.235C93.9229 195.945 93.4229 195.8 92.8229 195.8C92.0429 195.8 91.4129 196.07 90.9329 196.61C90.4529 197.14 90.2129 197.895 90.2129 198.875C90.2129 199.865 90.4529 200.63 90.9329 201.17C91.4129 201.71 92.0429 201.98 92.8229 201.98ZM102.024 203.135C101.254 203.135 100.554 202.96 99.9242 202.61C99.3042 202.26 98.8142 201.765 98.4542 201.125C98.1042 200.475 97.9292 199.725 97.9292 198.875C97.9292 198.035 98.1092 197.295 98.4692 196.655C98.8392 196.005 99.3392 195.51 99.9692 195.17C100.599 194.82 101.304 194.645 102.084 194.645C102.864 194.645 103.569 194.82 104.199 195.17C104.829 195.51 105.324 196 105.684 196.64C106.054 197.28 106.239 198.025 106.239 198.875C106.239 199.725 106.049 200.475 105.669 201.125C105.299 201.765 104.794 202.26 104.154 202.61C103.514 202.96 102.804 203.135 102.024 203.135ZM102.024 201.935C102.514 201.935 102.974 201.82 103.404 201.59C103.834 201.36 104.179 201.015 104.439 200.555C104.709 200.095 104.844 199.535 104.844 198.875C104.844 198.215 104.714 197.655 104.454 197.195C104.194 196.735 103.854 196.395 103.434 196.175C103.014 195.945 102.559 195.83 102.069 195.83C101.569 195.83 101.109 195.945 100.689 196.175C100.279 196.395 99.9492 196.735 99.6992 197.195C99.4492 197.655 99.3242 198.215 99.3242 198.875C99.3242 199.545 99.4442 200.11 99.6842 200.57C99.9342 201.03 100.264 201.375 100.674 201.605C101.084 201.825 101.534 201.935 102.024 201.935ZM99.8942 193.79C99.9642 193.28 100.129 192.89 100.389 192.62C100.659 192.35 100.994 192.215 101.394 192.215C101.584 192.215 101.744 192.25 101.874 192.32C102.014 192.38 102.179 192.47 102.369 192.59C102.509 192.69 102.634 192.77 102.744 192.83C102.854 192.88 102.974 192.905 103.104 192.905C103.274 192.905 103.419 192.85 103.539 192.74C103.659 192.63 103.734 192.47 103.764 192.26H104.544C104.484 192.76 104.319 193.145 104.049 193.415C103.779 193.685 103.444 193.82 103.044 193.82C102.854 193.82 102.684 193.79 102.534 193.73C102.394 193.66 102.234 193.56 102.054 193.43C101.894 193.33 101.764 193.255 101.664 193.205C101.574 193.155 101.464 193.13 101.334 193.13C101.164 193.13 101.019 193.185 100.899 193.295C100.789 193.405 100.719 193.57 100.689 193.79H99.8942ZM115.534 198.575C115.534 198.835 115.519 199.11 115.489 199.4H108.919C108.969 200.21 109.244 200.845 109.744 201.305C110.254 201.755 110.869 201.98 111.589 201.98C112.179 201.98 112.669 201.845 113.059 201.575C113.459 201.295 113.739 200.925 113.899 200.465H115.369C115.149 201.255 114.709 201.9 114.049 202.4C113.389 202.89 112.569 203.135 111.589 203.135C110.809 203.135 110.109 202.96 109.489 202.61C108.879 202.26 108.399 201.765 108.049 201.125C107.699 200.475 107.524 199.725 107.524 198.875C107.524 198.025 107.694 197.28 108.034 196.64C108.374 196 108.849 195.51 109.459 195.17C110.079 194.82 110.789 194.645 111.589 194.645C112.369 194.645 113.059 194.815 113.659 195.155C114.259 195.495 114.719 195.965 115.039 196.565C115.369 197.155 115.534 197.825 115.534 198.575ZM114.124 198.29C114.124 197.77 114.009 197.325 113.779 196.955C113.549 196.575 113.234 196.29 112.834 196.1C112.444 195.9 112.009 195.8 111.529 195.8C110.839 195.8 110.249 196.02 109.759 196.46C109.279 196.9 109.004 197.51 108.934 198.29H114.124ZM120.246 203.135C119.616 203.135 119.051 203.03 118.551 202.82C118.051 202.6 117.656 202.3 117.366 201.92C117.076 201.53 116.916 201.085 116.886 200.585H118.296C118.336 200.995 118.526 201.33 118.866 201.59C119.216 201.85 119.671 201.98 120.231 201.98C120.751 201.98 121.161 201.865 121.461 201.635C121.761 201.405 121.911 201.115 121.911 200.765C121.911 200.405 121.751 200.14 121.431 199.97C121.111 199.79 120.616 199.615 119.946 199.445C119.336 199.285 118.836 199.125 118.446 198.965C118.066 198.795 117.736 198.55 117.456 198.23C117.186 197.9 117.051 197.47 117.051 196.94C117.051 196.52 117.176 196.135 117.426 195.785C117.676 195.435 118.031 195.16 118.491 194.96C118.951 194.75 119.476 194.645 120.066 194.645C120.976 194.645 121.711 194.875 122.271 195.335C122.831 195.795 123.131 196.425 123.171 197.225H121.806C121.776 196.795 121.601 196.45 121.281 196.19C120.971 195.93 120.551 195.8 120.021 195.8C119.531 195.8 119.141 195.905 118.851 196.115C118.561 196.325 118.416 196.6 118.416 196.94C118.416 197.21 118.501 197.435 118.671 197.615C118.851 197.785 119.071 197.925 119.331 198.035C119.601 198.135 119.971 198.25 120.441 198.38C121.031 198.54 121.511 198.7 121.881 198.86C122.251 199.01 122.566 199.24 122.826 199.55C123.096 199.86 123.236 200.265 123.246 200.765C123.246 201.215 123.121 201.62 122.871 201.98C122.621 202.34 122.266 202.625 121.806 202.835C121.356 203.035 120.836 203.135 120.246 203.135Z" fill="black"/>
</svg>
