<svg width="393" height="852" viewBox="0 0 393 852" fill="none" xmlns="http://www.w3.org/2000/svg">
<rect width="393" height="852" fill="white"/>
<rect width="393" height="72" fill="white"/>
<path d="M35.9187 45.105C35.1487 45.105 34.4587 44.98 33.8487 44.73C33.2387 44.48 32.7487 44.11 32.3787 43.62C32.0187 43.13 31.8287 42.54 31.8087 41.85H34.5387C34.5787 42.24 34.7137 42.54 34.9437 42.75C35.1737 42.95 35.4737 43.05 35.8437 43.05C36.2237 43.05 36.5237 42.965 36.7437 42.795C36.9637 42.615 37.0737 42.37 37.0737 42.06C37.0737 41.8 36.9837 41.585 36.8037 41.415C36.6337 41.245 36.4187 41.105 36.1587 40.995C35.9087 40.885 35.5487 40.76 35.0787 40.62C34.3987 40.41 33.8437 40.2 33.4137 39.99C32.9837 39.78 32.6137 39.47 32.3037 39.06C31.9937 38.65 31.8387 38.115 31.8387 37.455C31.8387 36.475 32.1937 35.71 32.9037 35.16C33.6137 34.6 34.5387 34.32 35.6787 34.32C36.8387 34.32 37.7737 34.6 38.4837 35.16C39.1937 35.71 39.5737 36.48 39.6237 37.47H36.8487C36.8287 37.13 36.7037 36.865 36.4737 36.675C36.2437 36.475 35.9487 36.375 35.5887 36.375C35.2787 36.375 35.0287 36.46 34.8387 36.63C34.6487 36.79 34.5537 37.025 34.5537 37.335C34.5537 37.675 34.7137 37.94 35.0337 38.13C35.3537 38.32 35.8537 38.525 36.5337 38.745C37.2137 38.975 37.7637 39.195 38.1837 39.405C38.6137 39.615 38.9837 39.92 39.2937 40.32C39.6037 40.72 39.7587 41.235 39.7587 41.865C39.7587 42.465 39.6037 43.01 39.2937 43.5C38.9937 43.99 38.5537 44.38 37.9737 44.67C37.3937 44.96 36.7087 45.105 35.9187 45.105ZM43.8572 34.47V40.77C43.8572 41.4 44.0122 41.885 44.3222 42.225C44.6322 42.565 45.0872 42.735 45.6872 42.735C46.2872 42.735 46.7472 42.565 47.0672 42.225C47.3872 41.885 47.5472 41.4 47.5472 40.77V34.47H50.1122V40.755C50.1122 41.695 49.9122 42.49 49.5122 43.14C49.1122 43.79 48.5722 44.28 47.8922 44.61C47.2222 44.94 46.4722 45.105 45.6422 45.105C44.8122 45.105 44.0672 44.945 43.4072 44.625C42.7572 44.295 42.2422 43.805 41.8622 43.155C41.4822 42.495 41.2922 41.695 41.2922 40.755V34.47H43.8572ZM58.4684 43.14H54.5384L53.9084 45H51.2234L55.0334 34.47H58.0034L61.8134 45H59.0984L58.4684 43.14ZM57.8084 41.16L56.5034 37.305L55.2134 41.16H57.8084ZM69.963 37.8C69.773 37.45 69.498 37.185 69.138 37.005C68.788 36.815 68.373 36.72 67.893 36.72C67.063 36.72 66.398 36.995 65.898 37.545C65.398 38.085 65.148 38.81 65.148 39.72C65.148 40.69 65.408 41.45 65.928 42C66.458 42.54 67.183 42.81 68.103 42.81C68.733 42.81 69.263 42.65 69.693 42.33C70.133 42.01 70.453 41.55 70.653 40.95H67.398V39.06H72.978V41.445C72.788 42.085 72.463 42.68 72.003 43.23C71.553 43.78 70.978 44.225 70.278 44.565C69.578 44.905 68.788 45.075 67.908 45.075C66.868 45.075 65.938 44.85 65.118 44.4C64.308 43.94 63.673 43.305 63.213 42.495C62.763 41.685 62.538 40.76 62.538 39.72C62.538 38.68 62.763 37.755 63.213 36.945C63.673 36.125 64.308 35.49 65.118 35.04C65.928 34.58 66.853 34.35 67.893 34.35C69.153 34.35 70.213 34.655 71.073 35.265C71.943 35.875 72.518 36.72 72.798 37.8H69.963ZM76.9638 36.525V38.655H80.3988V40.635H76.9638V42.945H80.8488V45H74.3988V34.47H80.8488V36.525H76.9638ZM91.934 45H89.369L85.079 38.505V45H82.514V34.47H85.079L89.369 40.995V34.47H91.934V45ZM97.7383 34.47C98.8483 34.47 99.8183 34.69 100.648 35.13C101.478 35.57 102.118 36.19 102.568 36.99C103.028 37.78 103.258 38.695 103.258 39.735C103.258 40.765 103.028 41.68 102.568 42.48C102.118 43.28 101.473 43.9 100.633 44.34C99.8033 44.78 98.8383 45 97.7383 45H93.7933V34.47H97.7383ZM97.5733 42.78C98.5433 42.78 99.2983 42.515 99.8383 41.985C100.378 41.455 100.648 40.705 100.648 39.735C100.648 38.765 100.378 38.01 99.8383 37.47C99.2983 36.93 98.5433 36.66 97.5733 36.66H96.3583V42.78H97.5733ZM111.247 43.14H107.317L106.687 45H104.002L107.812 34.47H110.782L114.592 45H111.877L111.247 43.14ZM110.587 41.16L109.282 37.305L107.992 41.16H110.587Z" fill="black"/>
<path d="M334.276 42.9445C333.786 42.1023 333.202 40.4953 333.202 37.625V37.0148C333.202 33.0187 329.996 29.7445 326.052 29.7188H326C325.053 29.7187 324.115 29.9056 323.24 30.2686C322.365 30.6316 321.571 31.1636 320.902 31.8341C320.233 32.5047 319.703 33.3006 319.342 34.1763C318.981 35.052 318.796 35.9903 318.798 36.9375V37.625C318.798 40.4953 318.214 42.1023 317.724 42.9445C317.574 43.2063 317.495 43.5029 317.495 43.8047C317.495 44.1065 317.575 44.403 317.725 44.6647C317.875 44.9264 318.092 45.1441 318.352 45.2961C318.613 45.4481 318.909 45.5292 319.211 45.5312H322.236C322.326 46.4675 322.761 47.3367 323.457 47.9693C324.153 48.6019 325.059 48.9524 326 48.9524C326.94 48.9524 327.847 48.6019 328.543 47.9693C329.239 47.3367 329.674 46.4675 329.764 45.5312H332.789C333.091 45.5292 333.387 45.4481 333.648 45.2961C333.908 45.1441 334.125 44.9264 334.275 44.6647C334.425 44.403 334.505 44.1065 334.505 43.8047C334.505 43.5029 334.426 43.2063 334.276 42.9445ZM326 46.9062C325.604 46.9047 325.221 46.7673 324.914 46.517C324.608 46.2667 324.396 45.9187 324.316 45.5312H327.684C327.604 45.9187 327.392 46.2667 327.086 46.517C326.779 46.7673 326.396 46.9047 326 46.9062ZM319.778 43.4687C320.663 41.6125 320.861 39.3008 320.861 37.625V36.9375C320.858 36.2609 320.988 35.5902 321.245 34.9642C321.502 34.3382 321.88 33.7692 322.357 33.29C322.835 32.8107 323.403 32.4307 324.028 32.1718C324.653 31.9128 325.323 31.7801 326 31.7812H326.043C328.853 31.7984 331.139 34.1445 331.139 37.0148V37.625C331.139 39.3008 331.337 41.6125 332.222 43.4687H319.778Z" fill="black"/>
<path d="M359 29C357.687 29 356.386 29.2587 355.173 29.7612C353.96 30.2638 352.858 31.0003 351.929 31.9289C350.054 33.8043 349 36.3478 349 39C349 41.6522 350.054 44.1957 351.929 46.0711C352.858 46.9997 353.96 47.7362 355.173 48.2388C356.386 48.7413 357.687 49 359 49C361.652 49 364.196 47.9464 366.071 46.0711C367.946 44.1957 369 41.6522 369 39C369 37.6868 368.741 36.3864 368.239 35.1732C367.736 33.9599 367 32.8575 366.071 31.9289C365.142 31.0003 364.04 30.2638 362.827 29.7612C361.614 29.2587 360.313 29 359 29ZM354.07 45.28C354.5 44.38 357.12 43.5 359 43.5C360.88 43.5 363.5 44.38 363.93 45.28C362.529 46.396 360.791 47.0026 359 47C357.14 47 355.43 46.36 354.07 45.28ZM365.36 43.83C363.93 42.09 360.46 41.5 359 41.5C357.54 41.5 354.07 42.09 352.64 43.83C351.576 42.4446 351 40.7467 351 39C351 34.59 354.59 31 359 31C363.41 31 367 34.59 367 39C367 40.82 366.38 42.5 365.36 43.83ZM359 33C357.06 33 355.5 34.56 355.5 36.5C355.5 38.44 357.06 40 359 40C360.94 40 362.5 38.44 362.5 36.5C362.5 34.56 360.94 33 359 33ZM359 38C358.602 38 358.221 37.842 357.939 37.5607C357.658 37.2794 357.5 36.8978 357.5 36.5C357.5 36.1022 357.658 35.7206 357.939 35.4393C358.221 35.158 358.602 35 359 35C359.398 35 359.779 35.158 360.061 35.4393C360.342 35.7206 360.5 36.1022 360.5 36.5C360.5 36.8978 360.342 37.2794 360.061 37.5607C359.779 37.842 359.398 38 359 38Z" fill="black"/>
<path d="M78.0389 82.7V85.54H82.6189V88.18H78.0389V91.26H83.2189V94H74.6189V79.96H83.2189V82.7H78.0389ZM84.7592 88.4C84.7592 87.2533 84.9726 86.2467 85.3992 85.38C85.8392 84.5133 86.4326 83.8467 87.1792 83.38C87.9259 82.9133 88.7592 82.68 89.6792 82.68C90.4126 82.68 91.0792 82.8333 91.6792 83.14C92.2926 83.4467 92.7726 83.86 93.1192 84.38V79.2H96.5392V94H93.1192V92.4C92.7992 92.9333 92.3392 93.36 91.7392 93.68C91.1526 94 90.4659 94.16 89.6792 94.16C88.7592 94.16 87.9259 93.9267 87.1792 93.46C86.4326 92.98 85.8392 92.3067 85.3992 91.44C84.9726 90.56 84.7592 89.5467 84.7592 88.4ZM93.1192 88.42C93.1192 87.5667 92.8792 86.8933 92.3992 86.4C91.9326 85.9067 91.3592 85.66 90.6792 85.66C89.9992 85.66 89.4192 85.9067 88.9392 86.4C88.4726 86.88 88.2392 87.5467 88.2392 88.4C88.2392 89.2533 88.4726 89.9333 88.9392 90.44C89.4192 90.9333 89.9992 91.18 90.6792 91.18C91.3592 91.18 91.9326 90.9333 92.3992 90.44C92.8792 89.9467 93.1192 89.2733 93.1192 88.42ZM100.733 81.68C100.133 81.68 99.6401 81.5067 99.2534 81.16C98.8801 80.8 98.6934 80.36 98.6934 79.84C98.6934 79.3067 98.8801 78.8667 99.2534 78.52C99.6401 78.16 100.133 77.98 100.733 77.98C101.32 77.98 101.8 78.16 102.173 78.52C102.56 78.8667 102.753 79.3067 102.753 79.84C102.753 80.36 102.56 80.8 102.173 81.16C101.8 81.5067 101.32 81.68 100.733 81.68ZM102.433 82.84V94H99.0134V82.84H102.433ZM111.132 91.1V94H109.392C108.152 94 107.185 93.7 106.492 93.1C105.799 92.4867 105.452 91.4933 105.452 90.12V85.68H104.092V82.84H105.452V80.12H108.872V82.84H111.112V85.68H108.872V90.16C108.872 90.4933 108.952 90.7333 109.112 90.88C109.272 91.0267 109.539 91.1 109.912 91.1H111.132ZM112.357 88.4C112.357 87.2533 112.57 86.2467 112.997 85.38C113.437 84.5133 114.03 83.8467 114.777 83.38C115.524 82.9133 116.357 82.68 117.277 82.68C118.064 82.68 118.75 82.84 119.337 83.16C119.937 83.48 120.397 83.9 120.717 84.42V82.84H124.137V94H120.717V92.42C120.384 92.94 119.917 93.36 119.317 93.68C118.73 94 118.044 94.16 117.257 94.16C116.35 94.16 115.524 93.9267 114.777 93.46C114.03 92.98 113.437 92.3067 112.997 91.44C112.57 90.56 112.357 89.5467 112.357 88.4ZM120.717 88.42C120.717 87.5667 120.477 86.8933 119.997 86.4C119.53 85.9067 118.957 85.66 118.277 85.66C117.597 85.66 117.017 85.9067 116.537 86.4C116.07 86.88 115.837 87.5467 115.837 88.4C115.837 89.2533 116.07 89.9333 116.537 90.44C117.017 90.9333 117.597 91.18 118.277 91.18C118.957 91.18 119.53 90.9333 119.997 90.44C120.477 89.9467 120.717 89.2733 120.717 88.42ZM130.031 84.7C130.431 84.0867 130.931 83.6067 131.531 83.26C132.131 82.9 132.798 82.72 133.531 82.72V86.34H132.591C131.738 86.34 131.098 86.5267 130.671 86.9C130.244 87.26 130.031 87.9 130.031 88.82V94H126.611V82.84H130.031V84.7ZM142.824 84.42C143.157 83.9 143.617 83.48 144.204 83.16C144.791 82.84 145.477 82.68 146.264 82.68C147.184 82.68 148.017 82.9133 148.764 83.38C149.511 83.8467 150.097 84.5133 150.524 85.38C150.964 86.2467 151.184 87.2533 151.184 88.4C151.184 89.5467 150.964 90.56 150.524 91.44C150.097 92.3067 149.511 92.98 148.764 93.46C148.017 93.9267 147.184 94.16 146.264 94.16C145.491 94.16 144.804 94 144.204 93.68C143.617 93.36 143.157 92.9467 142.824 92.44V99.32H139.404V82.84H142.824V84.42ZM147.704 88.4C147.704 87.5467 147.464 86.88 146.984 86.4C146.517 85.9067 145.937 85.66 145.244 85.66C144.564 85.66 143.984 85.9067 143.504 86.4C143.037 86.8933 142.804 87.5667 142.804 88.42C142.804 89.2733 143.037 89.9467 143.504 90.44C143.984 90.9333 144.564 91.18 145.244 91.18C145.924 91.18 146.504 90.9333 146.984 90.44C147.464 89.9333 147.704 89.2533 147.704 88.4ZM163.498 88.24C163.498 88.56 163.478 88.8933 163.438 89.24H155.698C155.752 89.9333 155.972 90.4667 156.358 90.84C156.758 91.2 157.245 91.38 157.818 91.38C158.672 91.38 159.265 91.02 159.598 90.3H163.238C163.052 91.0333 162.712 91.6933 162.218 92.28C161.738 92.8667 161.132 93.3267 160.398 93.66C159.665 93.9933 158.845 94.16 157.938 94.16C156.845 94.16 155.872 93.9267 155.018 93.46C154.165 92.9933 153.498 92.3267 153.018 91.46C152.538 90.5933 152.298 89.58 152.298 88.42C152.298 87.26 152.532 86.2467 152.998 85.38C153.478 84.5133 154.145 83.8467 154.998 83.38C155.852 82.9133 156.832 82.68 157.938 82.68C159.018 82.68 159.978 82.9067 160.818 83.36C161.658 83.8133 162.312 84.46 162.778 85.3C163.258 86.14 163.498 87.12 163.498 88.24ZM159.998 87.34C159.998 86.7533 159.798 86.2867 159.398 85.94C158.998 85.5933 158.498 85.42 157.898 85.42C157.325 85.42 156.838 85.5867 156.438 85.92C156.052 86.2533 155.812 86.7267 155.718 87.34H159.998ZM168.723 84.7C169.123 84.0867 169.623 83.6067 170.223 83.26C170.823 82.9 171.489 82.72 172.223 82.72V86.34H171.283C170.429 86.34 169.789 86.5267 169.363 86.9C168.936 87.26 168.723 87.9 168.723 88.82V94H165.303V82.84H168.723V84.7ZM179.457 85.68H177.617V94H174.197V85.68H172.957V82.84H174.197V82.52C174.197 81.1467 174.591 80.1067 175.377 79.4C176.164 78.68 177.317 78.32 178.837 78.32C179.091 78.32 179.277 78.3267 179.397 78.34V81.24C178.744 81.2 178.284 81.2933 178.017 81.52C177.751 81.7467 177.617 82.1533 177.617 82.74V82.84H179.457V85.68ZM182.784 81.68C182.184 81.68 181.691 81.5067 181.304 81.16C180.931 80.8 180.744 80.36 180.744 79.84C180.744 79.3067 180.931 78.8667 181.304 78.52C181.691 78.16 182.184 77.98 182.784 77.98C183.371 77.98 183.851 78.16 184.224 78.52C184.611 78.8667 184.804 79.3067 184.804 79.84C184.804 80.36 184.611 80.8 184.224 81.16C183.851 81.5067 183.371 81.68 182.784 81.68ZM184.484 82.84V94H181.064V82.84H184.484ZM190.383 79.2V94H186.963V79.2H190.383Z" fill="black"/>
<path d="M36.6922 91.42L32.6322 87L36.6922 82.58H40.9922L36.9122 87L40.9922 91.42H36.6922Z" fill="black"/>
<rect x="23" y="230" width="336" height="47" rx="14" fill="#E9E9E9"/>
<path d="M54.42 261.18C53.58 261.18 52.8267 261.04 52.16 260.76C51.4933 260.467 50.9667 260.067 50.58 259.56C50.1933 259.04 49.98 258.447 49.94 257.78H51.82C51.8733 258.327 52.1267 258.773 52.58 259.12C53.0467 259.467 53.6533 259.64 54.4 259.64C55.0933 259.64 55.64 259.487 56.04 259.18C56.44 258.873 56.64 258.487 56.64 258.02C56.64 257.54 56.4267 257.187 56 256.96C55.5733 256.72 54.9133 256.487 54.02 256.26C53.2067 256.047 52.54 255.833 52.02 255.62C51.5133 255.393 51.0733 255.067 50.7 254.64C50.34 254.2 50.16 253.627 50.16 252.92C50.16 252.36 50.3267 251.847 50.66 251.38C50.9933 250.913 51.4667 250.547 52.08 250.28C52.6933 250 53.3933 249.86 54.18 249.86C55.3933 249.86 56.3733 250.167 57.12 250.78C57.8667 251.393 58.2667 252.233 58.32 253.3H56.5C56.46 252.727 56.2267 252.267 55.8 251.92C55.3867 251.573 54.8267 251.4 54.12 251.4C53.4667 251.4 52.9467 251.54 52.56 251.82C52.1733 252.1 51.98 252.467 51.98 252.92C51.98 253.28 52.0933 253.58 52.32 253.82C52.56 254.047 52.8533 254.233 53.2 254.38C53.56 254.513 54.0533 254.667 54.68 254.84C55.4667 255.053 56.1067 255.267 56.6 255.48C57.0933 255.68 57.5133 255.987 57.86 256.4C58.22 256.813 58.4067 257.353 58.42 258.02C58.42 258.62 58.2533 259.16 57.92 259.64C57.5867 260.12 57.1133 260.5 56.5 260.78C55.9 261.047 55.2067 261.18 54.42 261.18ZM70.9892 255.1C70.9892 255.447 70.9692 255.813 70.9292 256.2H62.1692C62.2359 257.28 62.6026 258.127 63.2692 258.74C63.9492 259.34 64.7692 259.64 65.7292 259.64C66.5159 259.64 67.1692 259.46 67.6892 259.1C68.2226 258.727 68.5959 258.233 68.8092 257.62H70.7692C70.4759 258.673 69.8892 259.533 69.0092 260.2C68.1292 260.853 67.0359 261.18 65.7292 261.18C64.6892 261.18 63.7559 260.947 62.9292 260.48C62.1159 260.013 61.4759 259.353 61.0092 258.5C60.5426 257.633 60.3092 256.633 60.3092 255.5C60.3092 254.367 60.5359 253.373 60.9892 252.52C61.4426 251.667 62.0759 251.013 62.8892 250.56C63.7159 250.093 64.6626 249.86 65.7292 249.86C66.7692 249.86 67.6892 250.087 68.4892 250.54C69.2892 250.993 69.9026 251.62 70.3292 252.42C70.7692 253.207 70.9892 254.1 70.9892 255.1ZM69.1092 254.72C69.1092 254.027 68.9559 253.433 68.6492 252.94C68.3426 252.433 67.9226 252.053 67.3892 251.8C66.8692 251.533 66.2892 251.4 65.6492 251.4C64.7292 251.4 63.9426 251.693 63.2892 252.28C62.6492 252.867 62.2826 253.68 62.1892 254.72H69.1092ZM83.1116 250.04V261H81.2916V259.38C80.9449 259.94 80.4582 260.38 79.8316 260.7C79.2182 261.007 78.5382 261.16 77.7916 261.16C76.9382 261.16 76.1716 260.987 75.4916 260.64C74.8116 260.28 74.2716 259.747 73.8716 259.04C73.4849 258.333 73.2916 257.473 73.2916 256.46V250.04H75.0916V256.22C75.0916 257.3 75.3649 258.133 75.9116 258.72C76.4582 259.293 77.2049 259.58 78.1516 259.58C79.1249 259.58 79.8916 259.28 80.4516 258.68C81.0116 258.08 81.2916 257.207 81.2916 256.06V250.04H83.1116ZM96.1845 255.1C96.1845 255.447 96.1645 255.813 96.1245 256.2H87.3645C87.4312 257.28 87.7979 258.127 88.4645 258.74C89.1445 259.34 89.9645 259.64 90.9245 259.64C91.7112 259.64 92.3645 259.46 92.8845 259.1C93.4179 258.727 93.7912 258.233 94.0045 257.62H95.9645C95.6712 258.673 95.0845 259.533 94.2045 260.2C93.3245 260.853 92.2312 261.18 90.9245 261.18C89.8845 261.18 88.9512 260.947 88.1245 260.48C87.3112 260.013 86.6712 259.353 86.2045 258.5C85.7379 257.633 85.5045 256.633 85.5045 255.5C85.5045 254.367 85.7312 253.373 86.1845 252.52C86.6379 251.667 87.2712 251.013 88.0845 250.56C88.9112 250.093 89.8579 249.86 90.9245 249.86C91.9645 249.86 92.8845 250.087 93.6845 250.54C94.4845 250.993 95.0979 251.62 95.5245 252.42C95.9645 253.207 96.1845 254.1 96.1845 255.1ZM94.3045 254.72C94.3045 254.027 94.1512 253.433 93.8445 252.94C93.5379 252.433 93.1179 252.053 92.5845 251.8C92.0645 251.533 91.4845 251.4 90.8445 251.4C89.9245 251.4 89.1379 251.693 88.4845 252.28C87.8445 252.867 87.4779 253.68 87.3845 254.72H94.3045ZM111.767 249.84C112.62 249.84 113.38 250.02 114.047 250.38C114.714 250.727 115.24 251.253 115.627 251.96C116.014 252.667 116.207 253.527 116.207 254.54V261H114.407V254.8C114.407 253.707 114.134 252.873 113.587 252.3C113.054 251.713 112.327 251.42 111.407 251.42C110.46 251.42 109.707 251.727 109.147 252.34C108.587 252.94 108.307 253.813 108.307 254.96V261H106.507V254.8C106.507 253.707 106.234 252.873 105.687 252.3C105.154 251.713 104.427 251.42 103.507 251.42C102.56 251.42 101.807 251.727 101.247 252.34C100.687 252.94 100.407 253.813 100.407 254.96V261H98.5869V250.04H100.407V251.62C100.767 251.047 101.247 250.607 101.847 250.3C102.46 249.993 103.134 249.84 103.867 249.84C104.787 249.84 105.6 250.047 106.307 250.46C107.014 250.873 107.54 251.48 107.887 252.28C108.194 251.507 108.7 250.907 109.407 250.48C110.114 250.053 110.9 249.84 111.767 249.84ZM118.512 255.48C118.512 254.36 118.739 253.38 119.192 252.54C119.646 251.687 120.266 251.027 121.052 250.56C121.852 250.093 122.739 249.86 123.712 249.86C124.672 249.86 125.506 250.067 126.212 250.48C126.919 250.893 127.446 251.413 127.792 252.04V250.04H129.632V261H127.792V258.96C127.432 259.6 126.892 260.133 126.172 260.56C125.466 260.973 124.639 261.18 123.692 261.18C122.719 261.18 121.839 260.94 121.052 260.46C120.266 259.98 119.646 259.307 119.192 258.44C118.739 257.573 118.512 256.587 118.512 255.48ZM127.792 255.5C127.792 254.673 127.626 253.953 127.292 253.34C126.959 252.727 126.506 252.26 125.932 251.94C125.372 251.607 124.752 251.44 124.072 251.44C123.392 251.44 122.772 251.6 122.212 251.92C121.652 252.24 121.206 252.707 120.872 253.32C120.539 253.933 120.372 254.653 120.372 255.48C120.372 256.32 120.539 257.053 120.872 257.68C121.206 258.293 121.652 258.767 122.212 259.1C122.772 259.42 123.392 259.58 124.072 259.58C124.752 259.58 125.372 259.42 125.932 259.1C126.506 258.767 126.959 258.293 127.292 257.68C127.626 257.053 127.792 256.327 127.792 255.5ZM133.648 248.26C133.301 248.26 133.008 248.14 132.768 247.9C132.528 247.66 132.408 247.367 132.408 247.02C132.408 246.673 132.528 246.38 132.768 246.14C133.008 245.9 133.301 245.78 133.648 245.78C133.981 245.78 134.261 245.9 134.488 246.14C134.728 246.38 134.848 246.673 134.848 247.02C134.848 247.367 134.728 247.66 134.488 247.9C134.261 248.14 133.981 248.26 133.648 248.26ZM134.528 250.04V261H132.708V250.04H134.528ZM139.45 246.2V261H137.63V246.2H139.45ZM152.552 248.18C154.032 248.18 155.318 248.46 156.412 249.02C157.505 249.58 158.345 250.367 158.932 251.38C159.518 252.38 159.812 253.54 159.812 254.86C159.812 255.913 159.638 256.927 159.292 257.9C158.945 258.86 158.438 259.64 157.772 260.24C157.118 260.84 156.352 261.14 155.472 261.14C154.805 261.14 154.292 260.973 153.932 260.64C153.572 260.307 153.365 259.853 153.312 259.28C152.898 259.853 152.372 260.307 151.732 260.64C151.105 260.973 150.438 261.14 149.732 261.14C148.718 261.14 147.918 260.833 147.332 260.22C146.758 259.593 146.472 258.753 146.472 257.7C146.472 256.7 146.678 255.767 147.092 254.9C147.518 254.033 148.105 253.34 148.852 252.82C149.598 252.287 150.445 252.02 151.392 252.02C152.658 252.02 153.512 252.5 153.952 253.46L154.172 252.22H155.752L154.752 258C154.712 258.253 154.692 258.487 154.692 258.7C154.692 259.5 155.045 259.9 155.752 259.9C156.285 259.9 156.745 259.647 157.132 259.14C157.532 258.633 157.832 258 158.032 257.24C158.232 256.467 158.332 255.707 158.332 254.96C158.332 253.213 157.805 251.86 156.752 250.9C155.712 249.94 154.238 249.46 152.332 249.46C150.745 249.46 149.312 249.847 148.032 250.62C146.765 251.38 145.772 252.427 145.052 253.76C144.332 255.093 143.972 256.567 143.972 258.18C143.958 259.94 144.485 261.293 145.552 262.24C146.618 263.2 148.098 263.68 149.992 263.68C151.245 263.68 152.352 263.453 153.312 263L153.552 264.24C152.365 264.733 151.058 264.98 149.632 264.98C148.205 264.98 146.945 264.707 145.852 264.16C144.772 263.627 143.932 262.853 143.332 261.84C142.745 260.84 142.452 259.673 142.452 258.34C142.452 256.46 142.885 254.747 143.752 253.2C144.618 251.64 145.818 250.413 147.352 249.52C148.898 248.627 150.632 248.18 152.552 248.18ZM150.272 259.72C150.872 259.72 151.425 259.547 151.932 259.2C152.438 258.84 152.838 258.36 153.132 257.76C153.425 257.147 153.572 256.48 153.572 255.76C153.572 255.067 153.378 254.507 152.992 254.08C152.618 253.64 152.085 253.42 151.392 253.42C150.752 253.42 150.185 253.613 149.692 254C149.212 254.373 148.838 254.873 148.572 255.5C148.305 256.113 148.172 256.753 148.172 257.42C148.172 258.127 148.352 258.687 148.712 259.1C149.072 259.513 149.592 259.72 150.272 259.72ZM167.326 249.86C168.272 249.86 169.099 250.067 169.806 250.48C170.526 250.893 171.059 251.413 171.406 252.04V250.04H173.246V261.24C173.246 262.24 173.032 263.127 172.606 263.9C172.179 264.687 171.566 265.3 170.766 265.74C169.979 266.18 169.059 266.4 168.006 266.4C166.566 266.4 165.366 266.06 164.406 265.38C163.446 264.7 162.879 263.773 162.706 262.6H164.506C164.706 263.267 165.119 263.8 165.746 264.2C166.372 264.613 167.126 264.82 168.006 264.82C169.006 264.82 169.819 264.507 170.446 263.88C171.086 263.253 171.406 262.373 171.406 261.24V258.94C171.046 259.58 170.512 260.113 169.806 260.54C169.099 260.967 168.272 261.18 167.326 261.18C166.352 261.18 165.466 260.94 164.666 260.46C163.879 259.98 163.259 259.307 162.806 258.44C162.352 257.573 162.126 256.587 162.126 255.48C162.126 254.36 162.352 253.38 162.806 252.54C163.259 251.687 163.879 251.027 164.666 250.56C165.466 250.093 166.352 249.86 167.326 249.86ZM171.406 255.5C171.406 254.673 171.239 253.953 170.906 253.34C170.572 252.727 170.119 252.26 169.546 251.94C168.986 251.607 168.366 251.44 167.686 251.44C167.006 251.44 166.386 251.6 165.826 251.92C165.266 252.24 164.819 252.707 164.486 253.32C164.152 253.933 163.986 254.653 163.986 255.48C163.986 256.32 164.152 257.053 164.486 257.68C164.819 258.293 165.266 258.767 165.826 259.1C166.386 259.42 167.006 259.58 167.686 259.58C168.366 259.58 168.986 259.42 169.546 259.1C170.119 258.767 170.572 258.293 170.906 257.68C171.239 257.053 171.406 256.327 171.406 255.5ZM189.501 249.84C190.355 249.84 191.115 250.02 191.781 250.38C192.448 250.727 192.975 251.253 193.361 251.96C193.748 252.667 193.941 253.527 193.941 254.54V261H192.141V254.8C192.141 253.707 191.868 252.873 191.321 252.3C190.788 251.713 190.061 251.42 189.141 251.42C188.195 251.42 187.441 251.727 186.881 252.34C186.321 252.94 186.041 253.813 186.041 254.96V261H184.241V254.8C184.241 253.707 183.968 252.873 183.421 252.3C182.888 251.713 182.161 251.42 181.241 251.42C180.295 251.42 179.541 251.727 178.981 252.34C178.421 252.94 178.141 253.813 178.141 254.96V261H176.321V250.04H178.141V251.62C178.501 251.047 178.981 250.607 179.581 250.3C180.195 249.993 180.868 249.84 181.601 249.84C182.521 249.84 183.335 250.047 184.041 250.46C184.748 250.873 185.275 251.48 185.621 252.28C185.928 251.507 186.435 250.907 187.141 250.48C187.848 250.053 188.635 249.84 189.501 249.84ZM196.247 255.48C196.247 254.36 196.473 253.38 196.927 252.54C197.38 251.687 198 251.027 198.787 250.56C199.587 250.093 200.473 249.86 201.447 249.86C202.407 249.86 203.24 250.067 203.947 250.48C204.653 250.893 205.18 251.413 205.527 252.04V250.04H207.367V261H205.527V258.96C205.167 259.6 204.627 260.133 203.907 260.56C203.2 260.973 202.373 261.18 201.427 261.18C200.453 261.18 199.573 260.94 198.787 260.46C198 259.98 197.38 259.307 196.927 258.44C196.473 257.573 196.247 256.587 196.247 255.48ZM205.527 255.5C205.527 254.673 205.36 253.953 205.027 253.34C204.693 252.727 204.24 252.26 203.667 251.94C203.107 251.607 202.487 251.44 201.807 251.44C201.127 251.44 200.507 251.6 199.947 251.92C199.387 252.24 198.94 252.707 198.607 253.32C198.273 253.933 198.107 254.653 198.107 255.48C198.107 256.32 198.273 257.053 198.607 257.68C198.94 258.293 199.387 258.767 199.947 259.1C200.507 259.42 201.127 259.58 201.807 259.58C202.487 259.58 203.107 259.42 203.667 259.1C204.24 258.767 204.693 258.293 205.027 257.68C205.36 257.053 205.527 256.327 205.527 255.5ZM211.382 248.26C211.036 248.26 210.742 248.14 210.502 247.9C210.262 247.66 210.142 247.367 210.142 247.02C210.142 246.673 210.262 246.38 210.502 246.14C210.742 245.9 211.036 245.78 211.382 245.78C211.716 245.78 211.996 245.9 212.222 246.14C212.462 246.38 212.582 246.673 212.582 247.02C212.582 247.367 212.462 247.66 212.222 247.9C211.996 248.14 211.716 248.26 211.382 248.26ZM212.262 250.04V261H210.442V250.04H212.262ZM217.184 246.2V261H215.364V246.2H217.184ZM220.866 261.12C220.519 261.12 220.226 261 219.986 260.76C219.746 260.52 219.626 260.227 219.626 259.88C219.626 259.533 219.746 259.24 219.986 259C220.226 258.76 220.519 258.64 220.866 258.64C221.199 258.64 221.479 258.76 221.706 259C221.946 259.24 222.066 259.533 222.066 259.88C222.066 260.227 221.946 260.52 221.706 260.76C221.479 261 221.199 261.12 220.866 261.12ZM223.805 255.5C223.805 254.367 224.032 253.38 224.485 252.54C224.939 251.687 225.565 251.027 226.365 250.56C227.179 250.093 228.105 249.86 229.145 249.86C230.492 249.86 231.599 250.187 232.465 250.84C233.345 251.493 233.925 252.4 234.205 253.56H232.245C232.059 252.893 231.692 252.367 231.145 251.98C230.612 251.593 229.945 251.4 229.145 251.4C228.105 251.4 227.265 251.76 226.625 252.48C225.985 253.187 225.665 254.193 225.665 255.5C225.665 256.82 225.985 257.84 226.625 258.56C227.265 259.28 228.105 259.64 229.145 259.64C229.945 259.64 230.612 259.453 231.145 259.08C231.679 258.707 232.045 258.173 232.245 257.48H234.205C233.912 258.6 233.325 259.5 232.445 260.18C231.565 260.847 230.465 261.18 229.145 261.18C228.105 261.18 227.179 260.947 226.365 260.48C225.565 260.013 224.939 259.353 224.485 258.5C224.032 257.647 223.805 256.647 223.805 255.5ZM241.414 261.18C240.387 261.18 239.454 260.947 238.614 260.48C237.787 260.013 237.134 259.353 236.654 258.5C236.187 257.633 235.954 256.633 235.954 255.5C235.954 254.38 236.194 253.393 236.674 252.54C237.167 251.673 237.834 251.013 238.674 250.56C239.514 250.093 240.454 249.86 241.494 249.86C242.534 249.86 243.474 250.093 244.314 250.56C245.154 251.013 245.814 251.667 246.294 252.52C246.787 253.373 247.034 254.367 247.034 255.5C247.034 256.633 246.78 257.633 246.274 258.5C245.78 259.353 245.107 260.013 244.254 260.48C243.4 260.947 242.454 261.18 241.414 261.18ZM241.414 259.58C242.067 259.58 242.68 259.427 243.254 259.12C243.827 258.813 244.287 258.353 244.634 257.74C244.994 257.127 245.174 256.38 245.174 255.5C245.174 254.62 245 253.873 244.654 253.26C244.307 252.647 243.854 252.193 243.294 251.9C242.734 251.593 242.127 251.44 241.474 251.44C240.807 251.44 240.194 251.593 239.634 251.9C239.087 252.193 238.647 252.647 238.314 253.26C237.98 253.873 237.814 254.62 237.814 255.5C237.814 256.393 237.974 257.147 238.294 257.76C238.627 258.373 239.067 258.833 239.614 259.14C240.16 259.433 240.76 259.58 241.414 259.58ZM262.607 249.84C263.46 249.84 264.22 250.02 264.887 250.38C265.553 250.727 266.08 251.253 266.467 251.96C266.853 252.667 267.047 253.527 267.047 254.54V261H265.247V254.8C265.247 253.707 264.973 252.873 264.427 252.3C263.893 251.713 263.167 251.42 262.247 251.42C261.3 251.42 260.547 251.727 259.987 252.34C259.427 252.94 259.147 253.813 259.147 254.96V261H257.347V254.8C257.347 253.707 257.073 252.873 256.527 252.3C255.993 251.713 255.267 251.42 254.347 251.42C253.4 251.42 252.647 251.727 252.087 252.34C251.527 252.94 251.247 253.813 251.247 254.96V261H249.427V250.04H251.247V251.62C251.607 251.047 252.087 250.607 252.687 250.3C253.3 249.993 253.973 249.84 254.707 249.84C255.627 249.84 256.44 250.047 257.147 250.46C257.853 250.873 258.38 251.48 258.727 252.28C259.033 251.507 259.54 250.907 260.247 250.48C260.953 250.053 261.74 249.84 262.607 249.84Z" fill="black" fill-opacity="0.7"/>
<path d="M25.352 215.278V218.54H28.908V219.59H25.352V222.95H29.328V224H24.078V214.228H29.328V215.278H25.352ZM36.5757 218.33V219.408H30.9897V218.33H36.5757ZM48.1927 216.188C48.79 216.188 49.322 216.314 49.7887 216.566C50.2553 216.809 50.624 217.177 50.8947 217.672C51.1653 218.167 51.3007 218.769 51.3007 219.478V224H50.0407V219.66C50.0407 218.895 49.8493 218.311 49.4667 217.91C49.0933 217.499 48.5847 217.294 47.9407 217.294C47.278 217.294 46.7507 217.509 46.3587 217.938C45.9667 218.358 45.7707 218.969 45.7707 219.772V224H44.5107V219.66C44.5107 218.895 44.3193 218.311 43.9367 217.91C43.5633 217.499 43.0547 217.294 42.4107 217.294C41.748 217.294 41.2207 217.509 40.8287 217.938C40.4367 218.358 40.2407 218.969 40.2407 219.772V224H38.9667V216.328H40.2407V217.434C40.4927 217.033 40.8287 216.725 41.2487 216.51C41.678 216.295 42.1493 216.188 42.6627 216.188C43.3067 216.188 43.876 216.333 44.3707 216.622C44.8653 216.911 45.234 217.336 45.4767 217.896C45.6913 217.355 46.046 216.935 46.5407 216.636C47.0353 216.337 47.586 216.188 48.1927 216.188ZM52.9145 220.136C52.9145 219.352 53.0732 218.666 53.3905 218.078C53.7078 217.481 54.1418 217.019 54.6925 216.692C55.2525 216.365 55.8732 216.202 56.5545 216.202C57.2265 216.202 57.8098 216.347 58.3045 216.636C58.7992 216.925 59.1678 217.289 59.4105 217.728V216.328H60.6985V224H59.4105V222.572C59.1585 223.02 58.7805 223.393 58.2765 223.692C57.7818 223.981 57.2032 224.126 56.5405 224.126C55.8592 224.126 55.2432 223.958 54.6925 223.622C54.1418 223.286 53.7078 222.815 53.3905 222.208C53.0732 221.601 52.9145 220.911 52.9145 220.136ZM59.4105 220.15C59.4105 219.571 59.2938 219.067 59.0605 218.638C58.8272 218.209 58.5098 217.882 58.1085 217.658C57.7165 217.425 57.2825 217.308 56.8065 217.308C56.3305 217.308 55.8965 217.42 55.5045 217.644C55.1125 217.868 54.7998 218.195 54.5665 218.624C54.3332 219.053 54.2165 219.557 54.2165 220.136C54.2165 220.724 54.3332 221.237 54.5665 221.676C54.7998 222.105 55.1125 222.437 55.5045 222.67C55.8965 222.894 56.3305 223.006 56.8065 223.006C57.2825 223.006 57.7165 222.894 58.1085 222.67C58.5098 222.437 58.8272 222.105 59.0605 221.676C59.2938 221.237 59.4105 220.729 59.4105 220.15ZM63.5094 215.082C63.2668 215.082 63.0614 214.998 62.8934 214.83C62.7254 214.662 62.6414 214.457 62.6414 214.214C62.6414 213.971 62.7254 213.766 62.8934 213.598C63.0614 213.43 63.2668 213.346 63.5094 213.346C63.7428 213.346 63.9388 213.43 64.0974 213.598C64.2654 213.766 64.3494 213.971 64.3494 214.214C64.3494 214.457 64.2654 214.662 64.0974 214.83C63.9388 214.998 63.7428 215.082 63.5094 215.082ZM64.1254 216.328V224H62.8514V216.328H64.1254ZM67.5708 213.64V224H66.2968V213.64H67.5708Z" fill="black"/>
<path d="M25.352 295.278V298.54H28.908V299.59H25.352V302.95H29.328V304H24.078V294.228H29.328V295.278H25.352ZM36.5757 298.33V299.408H30.9897V298.33H36.5757ZM48.1927 296.188C48.79 296.188 49.322 296.314 49.7887 296.566C50.2553 296.809 50.624 297.177 50.8947 297.672C51.1653 298.167 51.3007 298.769 51.3007 299.478V304H50.0407V299.66C50.0407 298.895 49.8493 298.311 49.4667 297.91C49.0933 297.499 48.5847 297.294 47.9407 297.294C47.278 297.294 46.7507 297.509 46.3587 297.938C45.9667 298.358 45.7707 298.969 45.7707 299.772V304H44.5107V299.66C44.5107 298.895 44.3193 298.311 43.9367 297.91C43.5633 297.499 43.0547 297.294 42.4107 297.294C41.748 297.294 41.2207 297.509 40.8287 297.938C40.4367 298.358 40.2407 298.969 40.2407 299.772V304H38.9667V296.328H40.2407V297.434C40.4927 297.033 40.8287 296.725 41.2487 296.51C41.678 296.295 42.1493 296.188 42.6627 296.188C43.3067 296.188 43.876 296.333 44.3707 296.622C44.8653 296.911 45.234 297.336 45.4767 297.896C45.6913 297.355 46.046 296.935 46.5407 296.636C47.0353 296.337 47.586 296.188 48.1927 296.188ZM52.9145 300.136C52.9145 299.352 53.0732 298.666 53.3905 298.078C53.7078 297.481 54.1418 297.019 54.6925 296.692C55.2525 296.365 55.8732 296.202 56.5545 296.202C57.2265 296.202 57.8098 296.347 58.3045 296.636C58.7992 296.925 59.1678 297.289 59.4105 297.728V296.328H60.6985V304H59.4105V302.572C59.1585 303.02 58.7805 303.393 58.2765 303.692C57.7818 303.981 57.2032 304.126 56.5405 304.126C55.8592 304.126 55.2432 303.958 54.6925 303.622C54.1418 303.286 53.7078 302.815 53.3905 302.208C53.0732 301.601 52.9145 300.911 52.9145 300.136ZM59.4105 300.15C59.4105 299.571 59.2938 299.067 59.0605 298.638C58.8272 298.209 58.5098 297.882 58.1085 297.658C57.7165 297.425 57.2825 297.308 56.8065 297.308C56.3305 297.308 55.8965 297.42 55.5045 297.644C55.1125 297.868 54.7998 298.195 54.5665 298.624C54.3332 299.053 54.2165 299.557 54.2165 300.136C54.2165 300.724 54.3332 301.237 54.5665 301.676C54.7998 302.105 55.1125 302.437 55.5045 302.67C55.8965 302.894 56.3305 303.006 56.8065 303.006C57.2825 303.006 57.7165 302.894 58.1085 302.67C58.5098 302.437 58.8272 302.105 59.0605 301.676C59.2938 301.237 59.4105 300.729 59.4105 300.15ZM63.5094 295.082C63.2668 295.082 63.0614 294.998 62.8934 294.83C62.7254 294.662 62.6414 294.457 62.6414 294.214C62.6414 293.971 62.7254 293.766 62.8934 293.598C63.0614 293.43 63.2668 293.346 63.5094 293.346C63.7428 293.346 63.9388 293.43 64.0974 293.598C64.2654 293.766 64.3494 293.971 64.3494 294.214C64.3494 294.457 64.2654 294.662 64.0974 294.83C63.9388 294.998 63.7428 295.082 63.5094 295.082ZM64.1254 296.328V304H62.8514V296.328H64.1254ZM67.5708 293.64V304H66.2968V293.64H67.5708Z" fill="black"/>
<rect x="23" y="141" width="336" height="47" rx="14" fill="#E9E9E9"/>
<path d="M54.42 172.18C53.58 172.18 52.8267 172.04 52.16 171.76C51.4933 171.467 50.9667 171.067 50.58 170.56C50.1933 170.04 49.98 169.447 49.94 168.78H51.82C51.8733 169.327 52.1267 169.773 52.58 170.12C53.0467 170.467 53.6533 170.64 54.4 170.64C55.0933 170.64 55.64 170.487 56.04 170.18C56.44 169.873 56.64 169.487 56.64 169.02C56.64 168.54 56.4267 168.187 56 167.96C55.5733 167.72 54.9133 167.487 54.02 167.26C53.2067 167.047 52.54 166.833 52.02 166.62C51.5133 166.393 51.0733 166.067 50.7 165.64C50.34 165.2 50.16 164.627 50.16 163.92C50.16 163.36 50.3267 162.847 50.66 162.38C50.9933 161.913 51.4667 161.547 52.08 161.28C52.6933 161 53.3933 160.86 54.18 160.86C55.3933 160.86 56.3733 161.167 57.12 161.78C57.8667 162.393 58.2667 163.233 58.32 164.3H56.5C56.46 163.727 56.2267 163.267 55.8 162.92C55.3867 162.573 54.8267 162.4 54.12 162.4C53.4667 162.4 52.9467 162.54 52.56 162.82C52.1733 163.1 51.98 163.467 51.98 163.92C51.98 164.28 52.0933 164.58 52.32 164.82C52.56 165.047 52.8533 165.233 53.2 165.38C53.56 165.513 54.0533 165.667 54.68 165.84C55.4667 166.053 56.1067 166.267 56.6 166.48C57.0933 166.68 57.5133 166.987 57.86 167.4C58.22 167.813 58.4067 168.353 58.42 169.02C58.42 169.62 58.2533 170.16 57.92 170.64C57.5867 171.12 57.1133 171.5 56.5 171.78C55.9 172.047 55.2067 172.18 54.42 172.18ZM70.9892 166.1C70.9892 166.447 70.9692 166.813 70.9292 167.2H62.1692C62.2359 168.28 62.6026 169.127 63.2692 169.74C63.9492 170.34 64.7692 170.64 65.7292 170.64C66.5159 170.64 67.1692 170.46 67.6892 170.1C68.2226 169.727 68.5959 169.233 68.8092 168.62H70.7692C70.4759 169.673 69.8892 170.533 69.0092 171.2C68.1292 171.853 67.0359 172.18 65.7292 172.18C64.6892 172.18 63.7559 171.947 62.9292 171.48C62.1159 171.013 61.4759 170.353 61.0092 169.5C60.5426 168.633 60.3092 167.633 60.3092 166.5C60.3092 165.367 60.5359 164.373 60.9892 163.52C61.4426 162.667 62.0759 162.013 62.8892 161.56C63.7159 161.093 64.6626 160.86 65.7292 160.86C66.7692 160.86 67.6892 161.087 68.4892 161.54C69.2892 161.993 69.9026 162.62 70.3292 163.42C70.7692 164.207 70.9892 165.1 70.9892 166.1ZM69.1092 165.72C69.1092 165.027 68.9559 164.433 68.6492 163.94C68.3426 163.433 67.9226 163.053 67.3892 162.8C66.8692 162.533 66.2892 162.4 65.6492 162.4C64.7292 162.4 63.9426 162.693 63.2892 163.28C62.6492 163.867 62.2826 164.68 62.1892 165.72H69.1092ZM83.1116 161.04V172H81.2916V170.38C80.9449 170.94 80.4582 171.38 79.8316 171.7C79.2182 172.007 78.5382 172.16 77.7916 172.16C76.9382 172.16 76.1716 171.987 75.4916 171.64C74.8116 171.28 74.2716 170.747 73.8716 170.04C73.4849 169.333 73.2916 168.473 73.2916 167.46V161.04H75.0916V167.22C75.0916 168.3 75.3649 169.133 75.9116 169.72C76.4582 170.293 77.2049 170.58 78.1516 170.58C79.1249 170.58 79.8916 170.28 80.4516 169.68C81.0116 169.08 81.2916 168.207 81.2916 167.06V161.04H83.1116ZM96.1845 166.1C96.1845 166.447 96.1645 166.813 96.1245 167.2H87.3645C87.4312 168.28 87.7979 169.127 88.4645 169.74C89.1445 170.34 89.9645 170.64 90.9245 170.64C91.7112 170.64 92.3645 170.46 92.8845 170.1C93.4179 169.727 93.7912 169.233 94.0045 168.62H95.9645C95.6712 169.673 95.0845 170.533 94.2045 171.2C93.3245 171.853 92.2312 172.18 90.9245 172.18C89.8845 172.18 88.9512 171.947 88.1245 171.48C87.3112 171.013 86.6712 170.353 86.2045 169.5C85.7379 168.633 85.5045 167.633 85.5045 166.5C85.5045 165.367 85.7312 164.373 86.1845 163.52C86.6379 162.667 87.2712 162.013 88.0845 161.56C88.9112 161.093 89.8579 160.86 90.9245 160.86C91.9645 160.86 92.8845 161.087 93.6845 161.54C94.4845 161.993 95.0979 162.62 95.5245 163.42C95.9645 164.207 96.1845 165.1 96.1845 166.1ZM94.3045 165.72C94.3045 165.027 94.1512 164.433 93.8445 163.94C93.5379 163.433 93.1179 163.053 92.5845 162.8C92.0645 162.533 91.4845 162.4 90.8445 162.4C89.9245 162.4 89.1379 162.693 88.4845 163.28C87.8445 163.867 87.4779 164.68 87.3845 165.72H94.3045ZM111.767 160.84C112.62 160.84 113.38 161.02 114.047 161.38C114.714 161.727 115.24 162.253 115.627 162.96C116.014 163.667 116.207 164.527 116.207 165.54V172H114.407V165.8C114.407 164.707 114.134 163.873 113.587 163.3C113.054 162.713 112.327 162.42 111.407 162.42C110.46 162.42 109.707 162.727 109.147 163.34C108.587 163.94 108.307 164.813 108.307 165.96V172H106.507V165.8C106.507 164.707 106.234 163.873 105.687 163.3C105.154 162.713 104.427 162.42 103.507 162.42C102.56 162.42 101.807 162.727 101.247 163.34C100.687 163.94 100.407 164.813 100.407 165.96V172H98.5869V161.04H100.407V162.62C100.767 162.047 101.247 161.607 101.847 161.3C102.46 160.993 103.134 160.84 103.867 160.84C104.787 160.84 105.6 161.047 106.307 161.46C107.014 161.873 107.54 162.48 107.887 163.28C108.194 162.507 108.7 161.907 109.407 161.48C110.114 161.053 110.9 160.84 111.767 160.84ZM118.512 166.48C118.512 165.36 118.739 164.38 119.192 163.54C119.646 162.687 120.266 162.027 121.052 161.56C121.852 161.093 122.739 160.86 123.712 160.86C124.672 160.86 125.506 161.067 126.212 161.48C126.919 161.893 127.446 162.413 127.792 163.04V161.04H129.632V172H127.792V169.96C127.432 170.6 126.892 171.133 126.172 171.56C125.466 171.973 124.639 172.18 123.692 172.18C122.719 172.18 121.839 171.94 121.052 171.46C120.266 170.98 119.646 170.307 119.192 169.44C118.739 168.573 118.512 167.587 118.512 166.48ZM127.792 166.5C127.792 165.673 127.626 164.953 127.292 164.34C126.959 163.727 126.506 163.26 125.932 162.94C125.372 162.607 124.752 162.44 124.072 162.44C123.392 162.44 122.772 162.6 122.212 162.92C121.652 163.24 121.206 163.707 120.872 164.32C120.539 164.933 120.372 165.653 120.372 166.48C120.372 167.32 120.539 168.053 120.872 168.68C121.206 169.293 121.652 169.767 122.212 170.1C122.772 170.42 123.392 170.58 124.072 170.58C124.752 170.58 125.372 170.42 125.932 170.1C126.506 169.767 126.959 169.293 127.292 168.68C127.626 168.053 127.792 167.327 127.792 166.5ZM133.648 159.26C133.301 159.26 133.008 159.14 132.768 158.9C132.528 158.66 132.408 158.367 132.408 158.02C132.408 157.673 132.528 157.38 132.768 157.14C133.008 156.9 133.301 156.78 133.648 156.78C133.981 156.78 134.261 156.9 134.488 157.14C134.728 157.38 134.848 157.673 134.848 158.02C134.848 158.367 134.728 158.66 134.488 158.9C134.261 159.14 133.981 159.26 133.648 159.26ZM134.528 161.04V172H132.708V161.04H134.528ZM139.45 157.2V172H137.63V157.2H139.45ZM152.552 159.18C154.032 159.18 155.318 159.46 156.412 160.02C157.505 160.58 158.345 161.367 158.932 162.38C159.518 163.38 159.812 164.54 159.812 165.86C159.812 166.913 159.638 167.927 159.292 168.9C158.945 169.86 158.438 170.64 157.772 171.24C157.118 171.84 156.352 172.14 155.472 172.14C154.805 172.14 154.292 171.973 153.932 171.64C153.572 171.307 153.365 170.853 153.312 170.28C152.898 170.853 152.372 171.307 151.732 171.64C151.105 171.973 150.438 172.14 149.732 172.14C148.718 172.14 147.918 171.833 147.332 171.22C146.758 170.593 146.472 169.753 146.472 168.7C146.472 167.7 146.678 166.767 147.092 165.9C147.518 165.033 148.105 164.34 148.852 163.82C149.598 163.287 150.445 163.02 151.392 163.02C152.658 163.02 153.512 163.5 153.952 164.46L154.172 163.22H155.752L154.752 169C154.712 169.253 154.692 169.487 154.692 169.7C154.692 170.5 155.045 170.9 155.752 170.9C156.285 170.9 156.745 170.647 157.132 170.14C157.532 169.633 157.832 169 158.032 168.24C158.232 167.467 158.332 166.707 158.332 165.96C158.332 164.213 157.805 162.86 156.752 161.9C155.712 160.94 154.238 160.46 152.332 160.46C150.745 160.46 149.312 160.847 148.032 161.62C146.765 162.38 145.772 163.427 145.052 164.76C144.332 166.093 143.972 167.567 143.972 169.18C143.958 170.94 144.485 172.293 145.552 173.24C146.618 174.2 148.098 174.68 149.992 174.68C151.245 174.68 152.352 174.453 153.312 174L153.552 175.24C152.365 175.733 151.058 175.98 149.632 175.98C148.205 175.98 146.945 175.707 145.852 175.16C144.772 174.627 143.932 173.853 143.332 172.84C142.745 171.84 142.452 170.673 142.452 169.34C142.452 167.46 142.885 165.747 143.752 164.2C144.618 162.64 145.818 161.413 147.352 160.52C148.898 159.627 150.632 159.18 152.552 159.18ZM150.272 170.72C150.872 170.72 151.425 170.547 151.932 170.2C152.438 169.84 152.838 169.36 153.132 168.76C153.425 168.147 153.572 167.48 153.572 166.76C153.572 166.067 153.378 165.507 152.992 165.08C152.618 164.64 152.085 164.42 151.392 164.42C150.752 164.42 150.185 164.613 149.692 165C149.212 165.373 148.838 165.873 148.572 166.5C148.305 167.113 148.172 167.753 148.172 168.42C148.172 169.127 148.352 169.687 148.712 170.1C149.072 170.513 149.592 170.72 150.272 170.72ZM167.326 160.86C168.272 160.86 169.099 161.067 169.806 161.48C170.526 161.893 171.059 162.413 171.406 163.04V161.04H173.246V172.24C173.246 173.24 173.032 174.127 172.606 174.9C172.179 175.687 171.566 176.3 170.766 176.74C169.979 177.18 169.059 177.4 168.006 177.4C166.566 177.4 165.366 177.06 164.406 176.38C163.446 175.7 162.879 174.773 162.706 173.6H164.506C164.706 174.267 165.119 174.8 165.746 175.2C166.372 175.613 167.126 175.82 168.006 175.82C169.006 175.82 169.819 175.507 170.446 174.88C171.086 174.253 171.406 173.373 171.406 172.24V169.94C171.046 170.58 170.512 171.113 169.806 171.54C169.099 171.967 168.272 172.18 167.326 172.18C166.352 172.18 165.466 171.94 164.666 171.46C163.879 170.98 163.259 170.307 162.806 169.44C162.352 168.573 162.126 167.587 162.126 166.48C162.126 165.36 162.352 164.38 162.806 163.54C163.259 162.687 163.879 162.027 164.666 161.56C165.466 161.093 166.352 160.86 167.326 160.86ZM171.406 166.5C171.406 165.673 171.239 164.953 170.906 164.34C170.572 163.727 170.119 163.26 169.546 162.94C168.986 162.607 168.366 162.44 167.686 162.44C167.006 162.44 166.386 162.6 165.826 162.92C165.266 163.24 164.819 163.707 164.486 164.32C164.152 164.933 163.986 165.653 163.986 166.48C163.986 167.32 164.152 168.053 164.486 168.68C164.819 169.293 165.266 169.767 165.826 170.1C166.386 170.42 167.006 170.58 167.686 170.58C168.366 170.58 168.986 170.42 169.546 170.1C170.119 169.767 170.572 169.293 170.906 168.68C171.239 168.053 171.406 167.327 171.406 166.5ZM189.501 160.84C190.355 160.84 191.115 161.02 191.781 161.38C192.448 161.727 192.975 162.253 193.361 162.96C193.748 163.667 193.941 164.527 193.941 165.54V172H192.141V165.8C192.141 164.707 191.868 163.873 191.321 163.3C190.788 162.713 190.061 162.42 189.141 162.42C188.195 162.42 187.441 162.727 186.881 163.34C186.321 163.94 186.041 164.813 186.041 165.96V172H184.241V165.8C184.241 164.707 183.968 163.873 183.421 163.3C182.888 162.713 182.161 162.42 181.241 162.42C180.295 162.42 179.541 162.727 178.981 163.34C178.421 163.94 178.141 164.813 178.141 165.96V172H176.321V161.04H178.141V162.62C178.501 162.047 178.981 161.607 179.581 161.3C180.195 160.993 180.868 160.84 181.601 160.84C182.521 160.84 183.335 161.047 184.041 161.46C184.748 161.873 185.275 162.48 185.621 163.28C185.928 162.507 186.435 161.907 187.141 161.48C187.848 161.053 188.635 160.84 189.501 160.84ZM196.247 166.48C196.247 165.36 196.473 164.38 196.927 163.54C197.38 162.687 198 162.027 198.787 161.56C199.587 161.093 200.473 160.86 201.447 160.86C202.407 160.86 203.24 161.067 203.947 161.48C204.653 161.893 205.18 162.413 205.527 163.04V161.04H207.367V172H205.527V169.96C205.167 170.6 204.627 171.133 203.907 171.56C203.2 171.973 202.373 172.18 201.427 172.18C200.453 172.18 199.573 171.94 198.787 171.46C198 170.98 197.38 170.307 196.927 169.44C196.473 168.573 196.247 167.587 196.247 166.48ZM205.527 166.5C205.527 165.673 205.36 164.953 205.027 164.34C204.693 163.727 204.24 163.26 203.667 162.94C203.107 162.607 202.487 162.44 201.807 162.44C201.127 162.44 200.507 162.6 199.947 162.92C199.387 163.24 198.94 163.707 198.607 164.32C198.273 164.933 198.107 165.653 198.107 166.48C198.107 167.32 198.273 168.053 198.607 168.68C198.94 169.293 199.387 169.767 199.947 170.1C200.507 170.42 201.127 170.58 201.807 170.58C202.487 170.58 203.107 170.42 203.667 170.1C204.24 169.767 204.693 169.293 205.027 168.68C205.36 168.053 205.527 167.327 205.527 166.5ZM211.382 159.26C211.036 159.26 210.742 159.14 210.502 158.9C210.262 158.66 210.142 158.367 210.142 158.02C210.142 157.673 210.262 157.38 210.502 157.14C210.742 156.9 211.036 156.78 211.382 156.78C211.716 156.78 211.996 156.9 212.222 157.14C212.462 157.38 212.582 157.673 212.582 158.02C212.582 158.367 212.462 158.66 212.222 158.9C211.996 159.14 211.716 159.26 211.382 159.26ZM212.262 161.04V172H210.442V161.04H212.262ZM217.184 157.2V172H215.364V157.2H217.184ZM220.866 172.12C220.519 172.12 220.226 172 219.986 171.76C219.746 171.52 219.626 171.227 219.626 170.88C219.626 170.533 219.746 170.24 219.986 170C220.226 169.76 220.519 169.64 220.866 169.64C221.199 169.64 221.479 169.76 221.706 170C221.946 170.24 222.066 170.533 222.066 170.88C222.066 171.227 221.946 171.52 221.706 171.76C221.479 172 221.199 172.12 220.866 172.12ZM223.805 166.5C223.805 165.367 224.032 164.38 224.485 163.54C224.939 162.687 225.565 162.027 226.365 161.56C227.179 161.093 228.105 160.86 229.145 160.86C230.492 160.86 231.599 161.187 232.465 161.84C233.345 162.493 233.925 163.4 234.205 164.56H232.245C232.059 163.893 231.692 163.367 231.145 162.98C230.612 162.593 229.945 162.4 229.145 162.4C228.105 162.4 227.265 162.76 226.625 163.48C225.985 164.187 225.665 165.193 225.665 166.5C225.665 167.82 225.985 168.84 226.625 169.56C227.265 170.28 228.105 170.64 229.145 170.64C229.945 170.64 230.612 170.453 231.145 170.08C231.679 169.707 232.045 169.173 232.245 168.48H234.205C233.912 169.6 233.325 170.5 232.445 171.18C231.565 171.847 230.465 172.18 229.145 172.18C228.105 172.18 227.179 171.947 226.365 171.48C225.565 171.013 224.939 170.353 224.485 169.5C224.032 168.647 223.805 167.647 223.805 166.5ZM241.414 172.18C240.387 172.18 239.454 171.947 238.614 171.48C237.787 171.013 237.134 170.353 236.654 169.5C236.187 168.633 235.954 167.633 235.954 166.5C235.954 165.38 236.194 164.393 236.674 163.54C237.167 162.673 237.834 162.013 238.674 161.56C239.514 161.093 240.454 160.86 241.494 160.86C242.534 160.86 243.474 161.093 244.314 161.56C245.154 162.013 245.814 162.667 246.294 163.52C246.787 164.373 247.034 165.367 247.034 166.5C247.034 167.633 246.78 168.633 246.274 169.5C245.78 170.353 245.107 171.013 244.254 171.48C243.4 171.947 242.454 172.18 241.414 172.18ZM241.414 170.58C242.067 170.58 242.68 170.427 243.254 170.12C243.827 169.813 244.287 169.353 244.634 168.74C244.994 168.127 245.174 167.38 245.174 166.5C245.174 165.62 245 164.873 244.654 164.26C244.307 163.647 243.854 163.193 243.294 162.9C242.734 162.593 242.127 162.44 241.474 162.44C240.807 162.44 240.194 162.593 239.634 162.9C239.087 163.193 238.647 163.647 238.314 164.26C237.98 164.873 237.814 165.62 237.814 166.5C237.814 167.393 237.974 168.147 238.294 168.76C238.627 169.373 239.067 169.833 239.614 170.14C240.16 170.433 240.76 170.58 241.414 170.58ZM262.607 160.84C263.46 160.84 264.22 161.02 264.887 161.38C265.553 161.727 266.08 162.253 266.467 162.96C266.853 163.667 267.047 164.527 267.047 165.54V172H265.247V165.8C265.247 164.707 264.973 163.873 264.427 163.3C263.893 162.713 263.167 162.42 262.247 162.42C261.3 162.42 260.547 162.727 259.987 163.34C259.427 163.94 259.147 164.813 259.147 165.96V172H257.347V165.8C257.347 164.707 257.073 163.873 256.527 163.3C255.993 162.713 255.267 162.42 254.347 162.42C253.4 162.42 252.647 162.727 252.087 163.34C251.527 163.94 251.247 164.813 251.247 165.96V172H249.427V161.04H251.247V162.62C251.607 162.047 252.087 161.607 252.687 161.3C253.3 160.993 253.973 160.84 254.707 160.84C255.627 160.84 256.44 161.047 257.147 161.46C257.853 161.873 258.38 162.48 258.727 163.28C259.033 162.507 259.54 161.907 260.247 161.48C260.953 161.053 261.74 160.84 262.607 160.84Z" fill="black" fill-opacity="0.7"/>
<path d="M31.75 135H30.476L25.352 127.23V135H24.078V125.228H25.352L30.476 132.984V125.228H31.75V135ZM37.2678 135.126C36.5491 135.126 35.8958 134.963 35.3078 134.636C34.7291 134.309 34.2718 133.847 33.9358 133.25C33.6091 132.643 33.4458 131.943 33.4458 131.15C33.4458 130.366 33.6138 129.675 33.9498 129.078C34.2951 128.471 34.7618 128.009 35.3498 127.692C35.9378 127.365 36.5958 127.202 37.3238 127.202C38.0518 127.202 38.7098 127.365 39.2978 127.692C39.8858 128.009 40.3478 128.467 40.6838 129.064C41.0291 129.661 41.2018 130.357 41.2018 131.15C41.2018 131.943 41.0244 132.643 40.6698 133.25C40.3244 133.847 39.8531 134.309 39.2558 134.636C38.6584 134.963 37.9958 135.126 37.2678 135.126ZM37.2678 134.006C37.7251 134.006 38.1544 133.899 38.5558 133.684C38.9571 133.469 39.2791 133.147 39.5218 132.718C39.7738 132.289 39.8998 131.766 39.8998 131.15C39.8998 130.534 39.7784 130.011 39.5358 129.582C39.2931 129.153 38.9758 128.835 38.5838 128.63C38.1918 128.415 37.7671 128.308 37.3098 128.308C36.8431 128.308 36.4138 128.415 36.0218 128.63C35.6391 128.835 35.3311 129.153 35.0978 129.582C34.8644 130.011 34.7478 130.534 34.7478 131.15C34.7478 131.775 34.8598 132.303 35.0838 132.732C35.3171 133.161 35.6251 133.483 36.0078 133.698C36.3904 133.903 36.8104 134.006 37.2678 134.006ZM52.1028 127.188C52.7002 127.188 53.2322 127.314 53.6988 127.566C54.1655 127.809 54.5342 128.177 54.8048 128.672C55.0755 129.167 55.2108 129.769 55.2108 130.478V135H53.9508V130.66C53.9508 129.895 53.7595 129.311 53.3768 128.91C53.0035 128.499 52.4948 128.294 51.8508 128.294C51.1882 128.294 50.6608 128.509 50.2688 128.938C49.8768 129.358 49.6808 129.969 49.6808 130.772V135H48.4208V130.66C48.4208 129.895 48.2295 129.311 47.8468 128.91C47.4735 128.499 46.9648 128.294 46.3208 128.294C45.6582 128.294 45.1308 128.509 44.7388 128.938C44.3468 129.358 44.1508 129.969 44.1508 130.772V135H42.8768V127.328H44.1508V128.434C44.4028 128.033 44.7388 127.725 45.1588 127.51C45.5882 127.295 46.0595 127.188 46.5728 127.188C47.2168 127.188 47.7862 127.333 48.2808 127.622C48.7755 127.911 49.1442 128.336 49.3868 128.896C49.6015 128.355 49.9562 127.935 50.4508 127.636C50.9455 127.337 51.4962 127.188 52.1028 127.188ZM64.3007 130.87C64.3007 131.113 64.2867 131.369 64.2587 131.64H58.1267C58.1733 132.396 58.43 132.989 58.8967 133.418C59.3727 133.838 59.9467 134.048 60.6187 134.048C61.1693 134.048 61.6267 133.922 61.9907 133.67C62.364 133.409 62.6253 133.063 62.7747 132.634H64.1467C63.9413 133.371 63.5307 133.973 62.9147 134.44C62.2987 134.897 61.5333 135.126 60.6187 135.126C59.8907 135.126 59.2373 134.963 58.6587 134.636C58.0893 134.309 57.6413 133.847 57.3147 133.25C56.988 132.643 56.8247 131.943 56.8247 131.15C56.8247 130.357 56.9833 129.661 57.3007 129.064C57.618 128.467 58.0613 128.009 58.6307 127.692C59.2093 127.365 59.872 127.202 60.6187 127.202C61.3467 127.202 61.9907 127.361 62.5507 127.678C63.1107 127.995 63.54 128.434 63.8387 128.994C64.1467 129.545 64.3007 130.17 64.3007 130.87ZM62.9847 130.604C62.9847 130.119 62.8773 129.703 62.6627 129.358C62.448 129.003 62.154 128.737 61.7807 128.56C61.4167 128.373 61.0107 128.28 60.5627 128.28C59.9187 128.28 59.368 128.485 58.9107 128.896C58.4627 129.307 58.206 129.876 58.1407 130.604H62.9847Z" fill="black"/>
<rect x="23" y="505" width="336" height="47" rx="14" fill="#E9E9E9"/>
<rect x="23" y="582" width="336" height="47" rx="14" fill="#E9E9E9"/>
<path d="M27.172 499.098C26.528 499.098 25.9493 498.986 25.436 498.762C24.932 498.529 24.5353 498.211 24.246 497.81C23.9567 497.399 23.8073 496.928 23.798 496.396H25.156C25.2027 496.853 25.3893 497.241 25.716 497.558C26.052 497.866 26.5373 498.02 27.172 498.02C27.7787 498.02 28.2547 497.871 28.6 497.572C28.9547 497.264 29.132 496.872 29.132 496.396C29.132 496.023 29.0293 495.719 28.824 495.486C28.6187 495.253 28.362 495.075 28.054 494.954C27.746 494.833 27.3307 494.702 26.808 494.562C26.164 494.394 25.646 494.226 25.254 494.058C24.8713 493.89 24.54 493.629 24.26 493.274C23.9893 492.91 23.854 492.425 23.854 491.818C23.854 491.286 23.9893 490.815 24.26 490.404C24.5307 489.993 24.9087 489.676 25.394 489.452C25.8887 489.228 26.4533 489.116 27.088 489.116C28.0027 489.116 28.7493 489.345 29.328 489.802C29.916 490.259 30.2473 490.866 30.322 491.622H28.922C28.8753 491.249 28.6793 490.922 28.334 490.642C27.9887 490.353 27.5313 490.208 26.962 490.208C26.43 490.208 25.996 490.348 25.66 490.628C25.324 490.899 25.156 491.281 25.156 491.776C25.156 492.131 25.254 492.42 25.45 492.644C25.6553 492.868 25.9027 493.041 26.192 493.162C26.4907 493.274 26.906 493.405 27.438 493.554C28.082 493.731 28.6 493.909 28.992 494.086C29.384 494.254 29.72 494.52 30 494.884C30.28 495.239 30.42 495.724 30.42 496.34C30.42 496.816 30.294 497.264 30.042 497.684C29.79 498.104 29.4167 498.445 28.922 498.706C28.4273 498.967 27.844 499.098 27.172 499.098ZM39.2948 494.87C39.2948 495.113 39.2808 495.369 39.2528 495.64H33.1208C33.1675 496.396 33.4241 496.989 33.8908 497.418C34.3668 497.838 34.9408 498.048 35.6128 498.048C36.1635 498.048 36.6208 497.922 36.9848 497.67C37.3581 497.409 37.6195 497.063 37.7688 496.634H39.1408C38.9355 497.371 38.5248 497.973 37.9088 498.44C37.2928 498.897 36.5275 499.126 35.6128 499.126C34.8848 499.126 34.2315 498.963 33.6528 498.636C33.0835 498.309 32.6355 497.847 32.3088 497.25C31.9821 496.643 31.8188 495.943 31.8188 495.15C31.8188 494.357 31.9775 493.661 32.2948 493.064C32.6121 492.467 33.0555 492.009 33.6248 491.692C34.2035 491.365 34.8661 491.202 35.6128 491.202C36.3408 491.202 36.9848 491.361 37.5448 491.678C38.1048 491.995 38.5341 492.434 38.8328 492.994C39.1408 493.545 39.2948 494.17 39.2948 494.87ZM37.9788 494.604C37.9788 494.119 37.8715 493.703 37.6568 493.358C37.4421 493.003 37.1481 492.737 36.7748 492.56C36.4108 492.373 36.0048 492.28 35.5568 492.28C34.9128 492.28 34.3621 492.485 33.9048 492.896C33.4568 493.307 33.2001 493.876 33.1348 494.604H37.9788ZM44.7144 491.188C45.6478 491.188 46.4038 491.473 46.9824 492.042C47.5611 492.602 47.8504 493.414 47.8504 494.478V499H46.5904V494.66C46.5904 493.895 46.3991 493.311 46.0164 492.91C45.6338 492.499 45.1111 492.294 44.4484 492.294C43.7764 492.294 43.2398 492.504 42.8384 492.924C42.4464 493.344 42.2504 493.955 42.2504 494.758V499H40.9764V491.328H42.2504V492.42C42.5024 492.028 42.8431 491.725 43.2724 491.51C43.7111 491.295 44.1918 491.188 44.7144 491.188ZM53.7395 491.188C54.3182 491.188 54.8408 491.314 55.3075 491.566C55.7742 491.809 56.1382 492.177 56.3995 492.672C56.6702 493.167 56.8055 493.769 56.8055 494.478V499H55.5455V494.66C55.5455 493.895 55.3542 493.311 54.9715 492.91C54.5888 492.499 54.0662 492.294 53.4035 492.294C52.7315 492.294 52.1948 492.504 51.7935 492.924C51.4015 493.344 51.2055 493.955 51.2055 494.758V499H49.9315V488.64H51.2055V492.42C51.4575 492.028 51.8028 491.725 52.2415 491.51C52.6895 491.295 53.1888 491.188 53.7395 491.188ZM58.4106 495.136C58.4106 494.352 58.5693 493.666 58.8866 493.078C59.2039 492.481 59.6379 492.019 60.1886 491.692C60.7486 491.365 61.3693 491.202 62.0506 491.202C62.7226 491.202 63.3059 491.347 63.8006 491.636C64.2953 491.925 64.6639 492.289 64.9066 492.728V491.328H66.1946V499H64.9066V497.572C64.6546 498.02 64.2766 498.393 63.7726 498.692C63.2779 498.981 62.6993 499.126 62.0366 499.126C61.3553 499.126 60.7393 498.958 60.1886 498.622C59.6379 498.286 59.2039 497.815 58.8866 497.208C58.5693 496.601 58.4106 495.911 58.4106 495.136ZM64.9066 495.15C64.9066 494.571 64.7899 494.067 64.5566 493.638C64.3233 493.209 64.0059 492.882 63.6046 492.658C63.2126 492.425 62.7786 492.308 62.3026 492.308C61.8266 492.308 61.3926 492.42 61.0006 492.644C60.6086 492.868 60.2959 493.195 60.0626 493.624C59.8293 494.053 59.7126 494.557 59.7126 495.136C59.7126 495.724 59.8293 496.237 60.0626 496.676C60.2959 497.105 60.6086 497.437 61.0006 497.67C61.3926 497.894 61.8266 498.006 62.3026 498.006C62.7786 498.006 63.2126 497.894 63.6046 497.67C64.0059 497.437 64.3233 497.105 64.5566 496.676C64.7899 496.237 64.9066 495.729 64.9066 495.15Z" fill="black"/>
<rect x="23" y="429" width="336" height="47" rx="14" fill="#E9E9E9"/>
<path d="M27.172 423.098C26.528 423.098 25.9493 422.986 25.436 422.762C24.932 422.529 24.5353 422.211 24.246 421.81C23.9567 421.399 23.8073 420.928 23.798 420.396H25.156C25.2027 420.853 25.3893 421.241 25.716 421.558C26.052 421.866 26.5373 422.02 27.172 422.02C27.7787 422.02 28.2547 421.871 28.6 421.572C28.9547 421.264 29.132 420.872 29.132 420.396C29.132 420.023 29.0293 419.719 28.824 419.486C28.6187 419.253 28.362 419.075 28.054 418.954C27.746 418.833 27.3307 418.702 26.808 418.562C26.164 418.394 25.646 418.226 25.254 418.058C24.8713 417.89 24.54 417.629 24.26 417.274C23.9893 416.91 23.854 416.425 23.854 415.818C23.854 415.286 23.9893 414.815 24.26 414.404C24.5307 413.993 24.9087 413.676 25.394 413.452C25.8887 413.228 26.4533 413.116 27.088 413.116C28.0027 413.116 28.7493 413.345 29.328 413.802C29.916 414.259 30.2473 414.866 30.322 415.622H28.922C28.8753 415.249 28.6793 414.922 28.334 414.642C27.9887 414.353 27.5313 414.208 26.962 414.208C26.43 414.208 25.996 414.348 25.66 414.628C25.324 414.899 25.156 415.281 25.156 415.776C25.156 416.131 25.254 416.42 25.45 416.644C25.6553 416.868 25.9027 417.041 26.192 417.162C26.4907 417.274 26.906 417.405 27.438 417.554C28.082 417.731 28.6 417.909 28.992 418.086C29.384 418.254 29.72 418.52 30 418.884C30.28 419.239 30.42 419.724 30.42 420.34C30.42 420.816 30.294 421.264 30.042 421.684C29.79 422.104 29.4167 422.445 28.922 422.706C28.4273 422.967 27.844 423.098 27.172 423.098ZM39.2948 418.87C39.2948 419.113 39.2808 419.369 39.2528 419.64H33.1208C33.1675 420.396 33.4241 420.989 33.8908 421.418C34.3668 421.838 34.9408 422.048 35.6128 422.048C36.1635 422.048 36.6208 421.922 36.9848 421.67C37.3581 421.409 37.6195 421.063 37.7688 420.634H39.1408C38.9355 421.371 38.5248 421.973 37.9088 422.44C37.2928 422.897 36.5275 423.126 35.6128 423.126C34.8848 423.126 34.2315 422.963 33.6528 422.636C33.0835 422.309 32.6355 421.847 32.3088 421.25C31.9821 420.643 31.8188 419.943 31.8188 419.15C31.8188 418.357 31.9775 417.661 32.2948 417.064C32.6121 416.467 33.0555 416.009 33.6248 415.692C34.2035 415.365 34.8661 415.202 35.6128 415.202C36.3408 415.202 36.9848 415.361 37.5448 415.678C38.1048 415.995 38.5341 416.434 38.8328 416.994C39.1408 417.545 39.2948 418.17 39.2948 418.87ZM37.9788 418.604C37.9788 418.119 37.8715 417.703 37.6568 417.358C37.4421 417.003 37.1481 416.737 36.7748 416.56C36.4108 416.373 36.0048 416.28 35.5568 416.28C34.9128 416.28 34.3621 416.485 33.9048 416.896C33.4568 417.307 33.2001 417.876 33.1348 418.604H37.9788ZM44.7144 415.188C45.6478 415.188 46.4038 415.473 46.9824 416.042C47.5611 416.602 47.8504 417.414 47.8504 418.478V423H46.5904V418.66C46.5904 417.895 46.3991 417.311 46.0164 416.91C45.6338 416.499 45.1111 416.294 44.4484 416.294C43.7764 416.294 43.2398 416.504 42.8384 416.924C42.4464 417.344 42.2504 417.955 42.2504 418.758V423H40.9764V415.328H42.2504V416.42C42.5024 416.028 42.8431 415.725 43.2724 415.51C43.7111 415.295 44.1918 415.188 44.7144 415.188ZM53.7395 415.188C54.3182 415.188 54.8408 415.314 55.3075 415.566C55.7742 415.809 56.1382 416.177 56.3995 416.672C56.6702 417.167 56.8055 417.769 56.8055 418.478V423H55.5455V418.66C55.5455 417.895 55.3542 417.311 54.9715 416.91C54.5888 416.499 54.0662 416.294 53.4035 416.294C52.7315 416.294 52.1948 416.504 51.7935 416.924C51.4015 417.344 51.2055 417.955 51.2055 418.758V423H49.9315V412.64H51.2055V416.42C51.4575 416.028 51.8028 415.725 52.2415 415.51C52.6895 415.295 53.1888 415.188 53.7395 415.188ZM58.4106 419.136C58.4106 418.352 58.5693 417.666 58.8866 417.078C59.2039 416.481 59.6379 416.019 60.1886 415.692C60.7486 415.365 61.3693 415.202 62.0506 415.202C62.7226 415.202 63.3059 415.347 63.8006 415.636C64.2953 415.925 64.6639 416.289 64.9066 416.728V415.328H66.1946V423H64.9066V421.572C64.6546 422.02 64.2766 422.393 63.7726 422.692C63.2779 422.981 62.6993 423.126 62.0366 423.126C61.3553 423.126 60.7393 422.958 60.1886 422.622C59.6379 422.286 59.2039 421.815 58.8866 421.208C58.5693 420.601 58.4106 419.911 58.4106 419.136ZM64.9066 419.15C64.9066 418.571 64.7899 418.067 64.5566 417.638C64.3233 417.209 64.0059 416.882 63.6046 416.658C63.2126 416.425 62.7786 416.308 62.3026 416.308C61.8266 416.308 61.3926 416.42 61.0006 416.644C60.6086 416.868 60.2959 417.195 60.0626 417.624C59.8293 418.053 59.7126 418.557 59.7126 419.136C59.7126 419.724 59.8293 420.237 60.0626 420.676C60.2959 421.105 60.6086 421.437 61.0006 421.67C61.3926 421.894 61.8266 422.006 62.3026 422.006C62.7786 422.006 63.2126 421.894 63.6046 421.67C64.0059 421.437 64.3233 421.105 64.5566 420.676C64.7899 420.237 64.9066 419.729 64.9066 419.15ZM71.604 419.136C71.604 418.352 71.7626 417.666 72.08 417.078C72.3973 416.481 72.8313 416.019 73.382 415.692C73.942 415.365 74.5626 415.202 75.244 415.202C75.916 415.202 76.4993 415.347 76.994 415.636C77.4886 415.925 77.8573 416.289 78.1 416.728V415.328H79.388V423H78.1V421.572C77.848 422.02 77.47 422.393 76.966 422.692C76.4713 422.981 75.8926 423.126 75.23 423.126C74.5486 423.126 73.9326 422.958 73.382 422.622C72.8313 422.286 72.3973 421.815 72.08 421.208C71.7626 420.601 71.604 419.911 71.604 419.136ZM78.1 419.15C78.1 418.571 77.9833 418.067 77.75 417.638C77.5166 417.209 77.1993 416.882 76.798 416.658C76.406 416.425 75.972 416.308 75.496 416.308C75.02 416.308 74.586 416.42 74.194 416.644C73.802 416.868 73.4893 417.195 73.256 417.624C73.0226 418.053 72.906 418.557 72.906 419.136C72.906 419.724 73.0226 420.237 73.256 420.676C73.4893 421.105 73.802 421.437 74.194 421.67C74.586 421.894 75.02 422.006 75.496 422.006C75.972 422.006 76.406 421.894 76.798 421.67C77.1993 421.437 77.5166 421.105 77.75 420.676C77.9833 420.237 78.1 419.729 78.1 419.15ZM83.0949 416.378V420.9C83.0949 421.273 83.1742 421.539 83.3329 421.698C83.4916 421.847 83.7669 421.922 84.1589 421.922H85.0969V423H83.9489C83.2396 423 82.7076 422.837 82.3529 422.51C81.9982 422.183 81.8209 421.647 81.8209 420.9V416.378H80.8269V415.328H81.8209V413.396H83.0949V415.328H85.0969V416.378H83.0949ZM93.4445 415.328V423H92.1705V421.866C91.9278 422.258 91.5872 422.566 91.1485 422.79C90.7192 423.005 90.2432 423.112 89.7205 423.112C89.1232 423.112 88.5865 422.991 88.1105 422.748C87.6345 422.496 87.2565 422.123 86.9765 421.628C86.7058 421.133 86.5705 420.531 86.5705 419.822V415.328H87.8305V419.654C87.8305 420.41 88.0218 420.993 88.4045 421.404C88.7872 421.805 89.3098 422.006 89.9725 422.006C90.6538 422.006 91.1905 421.796 91.5825 421.376C91.9745 420.956 92.1705 420.345 92.1705 419.542V415.328H93.4445ZM95.1196 419.136C95.1196 418.352 95.2782 417.666 95.5956 417.078C95.9129 416.481 96.3469 416.019 96.8976 415.692C97.4576 415.365 98.0782 415.202 98.7596 415.202C99.4316 415.202 100.015 415.347 100.51 415.636C101.004 415.925 101.373 416.289 101.616 416.728V415.328H102.904V423H101.616V421.572C101.364 422.02 100.986 422.393 100.482 422.692C99.9869 422.981 99.4082 423.126 98.7456 423.126C98.0642 423.126 97.4482 422.958 96.8976 422.622C96.3469 422.286 95.9129 421.815 95.5956 421.208C95.2782 420.601 95.1196 419.911 95.1196 419.136ZM101.616 419.15C101.616 418.571 101.499 418.067 101.266 417.638C101.032 417.209 100.715 416.882 100.314 416.658C99.9216 416.425 99.4876 416.308 99.0116 416.308C98.5356 416.308 98.1016 416.42 97.7096 416.644C97.3176 416.868 97.0049 417.195 96.7716 417.624C96.5382 418.053 96.4216 418.557 96.4216 419.136C96.4216 419.724 96.5382 420.237 96.7716 420.676C97.0049 421.105 97.3176 421.437 97.7096 421.67C98.1016 421.894 98.5356 422.006 99.0116 422.006C99.4876 422.006 99.9216 421.894 100.314 421.67C100.715 421.437 101.032 421.105 101.266 420.676C101.499 420.237 101.616 419.729 101.616 419.15ZM106.331 412.64V423H105.057V412.64H106.331Z" fill="black"/>
<path d="M23.602 571.114C23.602 570.162 23.8167 569.308 24.246 568.552C24.6753 567.787 25.2587 567.189 25.996 566.76C26.7427 566.331 27.5687 566.116 28.474 566.116C29.538 566.116 30.4667 566.373 31.26 566.886C32.0533 567.399 32.632 568.127 32.996 569.07H31.47C31.1993 568.482 30.8073 568.029 30.294 567.712C29.79 567.395 29.1833 567.236 28.474 567.236C27.7927 567.236 27.1813 567.395 26.64 567.712C26.0987 568.029 25.674 568.482 25.366 569.07C25.058 569.649 24.904 570.33 24.904 571.114C24.904 571.889 25.058 572.57 25.366 573.158C25.674 573.737 26.0987 574.185 26.64 574.502C27.1813 574.819 27.7927 574.978 28.474 574.978C29.1833 574.978 29.79 574.824 30.294 574.516C30.8073 574.199 31.1993 573.746 31.47 573.158H32.996C32.632 574.091 32.0533 574.815 31.26 575.328C30.4667 575.832 29.538 576.084 28.474 576.084C27.5687 576.084 26.7427 575.874 25.996 575.454C25.2587 575.025 24.6753 574.432 24.246 573.676C23.8167 572.92 23.602 572.066 23.602 571.114ZM38.2385 576.126C37.5198 576.126 36.8665 575.963 36.2785 575.636C35.6998 575.309 35.2425 574.847 34.9065 574.25C34.5798 573.643 34.4165 572.943 34.4165 572.15C34.4165 571.366 34.5845 570.675 34.9205 570.078C35.2658 569.471 35.7325 569.009 36.3205 568.692C36.9085 568.365 37.5665 568.202 38.2945 568.202C39.0225 568.202 39.6805 568.365 40.2685 568.692C40.8565 569.009 41.3185 569.467 41.6545 570.064C41.9998 570.661 42.1725 571.357 42.1725 572.15C42.1725 572.943 41.9951 573.643 41.6405 574.25C41.2951 574.847 40.8238 575.309 40.2265 575.636C39.6291 575.963 38.9665 576.126 38.2385 576.126ZM38.2385 575.006C38.6958 575.006 39.1251 574.899 39.5265 574.684C39.9278 574.469 40.2498 574.147 40.4925 573.718C40.7445 573.289 40.8705 572.766 40.8705 572.15C40.8705 571.534 40.7491 571.011 40.5065 570.582C40.2638 570.153 39.9465 569.835 39.5545 569.63C39.1625 569.415 38.7378 569.308 38.2805 569.308C37.8138 569.308 37.3845 569.415 36.9925 569.63C36.6098 569.835 36.3018 570.153 36.0685 570.582C35.8351 571.011 35.7185 571.534 35.7185 572.15C35.7185 572.775 35.8305 573.303 36.0545 573.732C36.2878 574.161 36.5958 574.483 36.9785 574.698C37.3611 574.903 37.7811 575.006 38.2385 575.006ZM47.5855 568.188C48.5189 568.188 49.2749 568.473 49.8535 569.042C50.4322 569.602 50.7215 570.414 50.7215 571.478V576H49.4615V571.66C49.4615 570.895 49.2702 570.311 48.8875 569.91C48.5049 569.499 47.9822 569.294 47.3195 569.294C46.6475 569.294 46.1109 569.504 45.7095 569.924C45.3175 570.344 45.1215 570.955 45.1215 571.758V576H43.8475V568.328H45.1215V569.42C45.3735 569.028 45.7142 568.725 46.1435 568.51C46.5822 568.295 47.0629 568.188 47.5855 568.188ZM55.9246 569.378H54.3146V576H53.0406V569.378H52.0466V568.328H53.0406V567.782C53.0406 566.923 53.2599 566.298 53.6986 565.906C54.1466 565.505 54.8606 565.304 55.8406 565.304V566.368C55.2806 566.368 54.8839 566.48 54.6506 566.704C54.4266 566.919 54.3146 567.278 54.3146 567.782V568.328H55.9246V569.378ZM58.068 567.082C57.8254 567.082 57.62 566.998 57.452 566.83C57.284 566.662 57.2 566.457 57.2 566.214C57.2 565.971 57.284 565.766 57.452 565.598C57.62 565.43 57.8254 565.346 58.068 565.346C58.3014 565.346 58.4974 565.43 58.656 565.598C58.824 565.766 58.908 565.971 58.908 566.214C58.908 566.457 58.824 566.662 58.656 566.83C58.4974 566.998 58.3014 567.082 58.068 567.082ZM58.684 568.328V576H57.41V568.328H58.684ZM62.1293 569.574C62.3533 569.135 62.6707 568.795 63.0813 568.552C63.5013 568.309 64.01 568.188 64.6073 568.188V569.504H64.2713C62.8433 569.504 62.1293 570.279 62.1293 571.828V576H60.8553V568.328H62.1293V569.574ZM75.304 568.188C75.9013 568.188 76.4333 568.314 76.9 568.566C77.3667 568.809 77.7353 569.177 78.006 569.672C78.2767 570.167 78.412 570.769 78.412 571.478V576H77.152V571.66C77.152 570.895 76.9607 570.311 76.578 569.91C76.2047 569.499 75.696 569.294 75.052 569.294C74.3893 569.294 73.862 569.509 73.47 569.938C73.078 570.358 72.882 570.969 72.882 571.772V576H71.622V571.66C71.622 570.895 71.4307 570.311 71.048 569.91C70.6747 569.499 70.166 569.294 69.522 569.294C68.8593 569.294 68.332 569.509 67.94 569.938C67.548 570.358 67.352 570.969 67.352 571.772V576H66.078V568.328H67.352V569.434C67.604 569.033 67.94 568.725 68.36 568.51C68.7893 568.295 69.2607 568.188 69.774 568.188C70.418 568.188 70.9873 568.333 71.482 568.622C71.9767 568.911 72.3453 569.336 72.588 569.896C72.8027 569.355 73.1573 568.935 73.652 568.636C74.1467 568.337 74.6973 568.188 75.304 568.188ZM87.5018 571.87C87.5018 572.113 87.4878 572.369 87.4598 572.64H81.3278C81.3745 573.396 81.6312 573.989 82.0978 574.418C82.5738 574.838 83.1478 575.048 83.8198 575.048C84.3705 575.048 84.8278 574.922 85.1918 574.67C85.5652 574.409 85.8265 574.063 85.9758 573.634H87.3478C87.1425 574.371 86.7318 574.973 86.1158 575.44C85.4998 575.897 84.7345 576.126 83.8198 576.126C83.0918 576.126 82.4385 575.963 81.8598 575.636C81.2905 575.309 80.8425 574.847 80.5158 574.25C80.1892 573.643 80.0258 572.943 80.0258 572.15C80.0258 571.357 80.1845 570.661 80.5018 570.064C80.8192 569.467 81.2625 569.009 81.8318 568.692C82.4105 568.365 83.0732 568.202 83.8198 568.202C84.5478 568.202 85.1918 568.361 85.7518 568.678C86.3118 568.995 86.7412 569.434 87.0398 569.994C87.3478 570.545 87.5018 571.17 87.5018 571.87ZM86.1858 571.604C86.1858 571.119 86.0785 570.703 85.8638 570.358C85.6492 570.003 85.3552 569.737 84.9818 569.56C84.6178 569.373 84.2118 569.28 83.7638 569.28C83.1198 569.28 82.5692 569.485 82.1118 569.896C81.6638 570.307 81.4072 570.876 81.3418 571.604H86.1858ZM95.6319 576.126C95.0439 576.126 94.5166 576.028 94.0499 575.832C93.5832 575.627 93.2146 575.347 92.9439 574.992C92.6732 574.628 92.5239 574.213 92.4959 573.746H93.8119C93.8492 574.129 94.0266 574.441 94.3439 574.684C94.6706 574.927 95.0952 575.048 95.6179 575.048C96.1032 575.048 96.4859 574.941 96.7659 574.726C97.0459 574.511 97.1859 574.241 97.1859 573.914C97.1859 573.578 97.0366 573.331 96.7379 573.172C96.4392 573.004 95.9772 572.841 95.3519 572.682C94.7826 572.533 94.3159 572.383 93.9519 572.234C93.5972 572.075 93.2892 571.847 93.0279 571.548C92.7759 571.24 92.6499 570.839 92.6499 570.344C92.6499 569.952 92.7666 569.593 92.9999 569.266C93.2332 568.939 93.5646 568.683 93.9939 568.496C94.4232 568.3 94.9132 568.202 95.4639 568.202C96.3132 568.202 96.9992 568.417 97.5219 568.846C98.0446 569.275 98.3246 569.863 98.3619 570.61H97.0879C97.0599 570.209 96.8966 569.887 96.5979 569.644C96.3086 569.401 95.9166 569.28 95.4219 569.28C94.9646 569.28 94.6006 569.378 94.3299 569.574C94.0592 569.77 93.9239 570.027 93.9239 570.344C93.9239 570.596 94.0032 570.806 94.1619 570.974C94.3299 571.133 94.5352 571.263 94.7779 571.366C95.0299 571.459 95.3752 571.567 95.8139 571.688C96.3646 571.837 96.8126 571.987 97.1579 572.136C97.5032 572.276 97.7972 572.491 98.0399 572.78C98.2919 573.069 98.4226 573.447 98.4319 573.914C98.4319 574.334 98.3152 574.712 98.0819 575.048C97.8486 575.384 97.5172 575.65 97.0879 575.846C96.6679 576.033 96.1826 576.126 95.6319 576.126ZM107.034 568.328V576H105.76V574.866C105.518 575.258 105.177 575.566 104.738 575.79C104.309 576.005 103.833 576.112 103.31 576.112C102.713 576.112 102.176 575.991 101.7 575.748C101.224 575.496 100.846 575.123 100.566 574.628C100.296 574.133 100.16 573.531 100.16 572.822V568.328H101.42V572.654C101.42 573.41 101.612 573.993 101.994 574.404C102.377 574.805 102.9 575.006 103.562 575.006C104.244 575.006 104.78 574.796 105.172 574.376C105.564 573.956 105.76 573.345 105.76 572.542V568.328H107.034ZM108.709 572.136C108.709 571.352 108.868 570.666 109.185 570.078C109.503 569.481 109.937 569.019 110.487 568.692C111.047 568.365 111.668 568.202 112.349 568.202C113.021 568.202 113.605 568.347 114.099 568.636C114.594 568.925 114.963 569.289 115.205 569.728V568.328H116.493V576H115.205V574.572C114.953 575.02 114.575 575.393 114.071 575.692C113.577 575.981 112.998 576.126 112.335 576.126C111.654 576.126 111.038 575.958 110.487 575.622C109.937 575.286 109.503 574.815 109.185 574.208C108.868 573.601 108.709 572.911 108.709 572.136ZM115.205 572.15C115.205 571.571 115.089 571.067 114.855 570.638C114.622 570.209 114.305 569.882 113.903 569.658C113.511 569.425 113.077 569.308 112.601 569.308C112.125 569.308 111.691 569.42 111.299 569.644C110.907 569.868 110.595 570.195 110.361 570.624C110.128 571.053 110.011 571.557 110.011 572.136C110.011 572.724 110.128 573.237 110.361 573.676C110.595 574.105 110.907 574.437 111.299 574.67C111.691 574.894 112.125 575.006 112.601 575.006C113.077 575.006 113.511 574.894 113.903 574.67C114.305 574.437 114.622 574.105 114.855 573.676C115.089 573.237 115.205 572.729 115.205 572.15ZM125.095 576.126C124.507 576.126 123.979 576.028 123.513 575.832C123.046 575.627 122.677 575.347 122.407 574.992C122.136 574.628 121.987 574.213 121.959 573.746H123.275C123.312 574.129 123.489 574.441 123.807 574.684C124.133 574.927 124.558 575.048 125.081 575.048C125.566 575.048 125.949 574.941 126.229 574.726C126.509 574.511 126.649 574.241 126.649 573.914C126.649 573.578 126.499 573.331 126.201 573.172C125.902 573.004 125.44 572.841 124.815 572.682C124.245 572.533 123.779 572.383 123.415 572.234C123.06 572.075 122.752 571.847 122.491 571.548C122.239 571.24 122.113 570.839 122.113 570.344C122.113 569.952 122.229 569.593 122.463 569.266C122.696 568.939 123.027 568.683 123.457 568.496C123.886 568.3 124.376 568.202 124.927 568.202C125.776 568.202 126.462 568.417 126.985 568.846C127.507 569.275 127.787 569.863 127.825 570.61H126.551C126.523 570.209 126.359 569.887 126.061 569.644C125.771 569.401 125.379 569.28 124.885 569.28C124.427 569.28 124.063 569.378 123.793 569.574C123.522 569.77 123.387 570.027 123.387 570.344C123.387 570.596 123.466 570.806 123.625 570.974C123.793 571.133 123.998 571.263 124.241 571.366C124.493 571.459 124.838 571.567 125.277 571.688C125.827 571.837 126.275 571.987 126.621 572.136C126.966 572.276 127.26 572.491 127.503 572.78C127.755 573.069 127.885 573.447 127.895 573.914C127.895 574.334 127.778 574.712 127.545 575.048C127.311 575.384 126.98 575.65 126.551 575.846C126.131 576.033 125.645 576.126 125.095 576.126ZM136.693 571.87C136.693 572.113 136.679 572.369 136.651 572.64H130.519C130.566 573.396 130.823 573.989 131.289 574.418C131.765 574.838 132.339 575.048 133.011 575.048C133.562 575.048 134.019 574.922 134.383 574.67C134.757 574.409 135.018 574.063 135.167 573.634H136.539C136.334 574.371 135.923 574.973 135.307 575.44C134.691 575.897 133.926 576.126 133.011 576.126C132.283 576.126 131.63 575.963 131.051 575.636C130.482 575.309 130.034 574.847 129.707 574.25C129.381 573.643 129.217 572.943 129.217 572.15C129.217 571.357 129.376 570.661 129.693 570.064C130.011 569.467 130.454 569.009 131.023 568.692C131.602 568.365 132.265 568.202 133.011 568.202C133.739 568.202 134.383 568.361 134.943 568.678C135.503 568.995 135.933 569.434 136.231 569.994C136.539 570.545 136.693 571.17 136.693 571.87ZM135.377 571.604C135.377 571.119 135.27 570.703 135.055 570.358C134.841 570.003 134.547 569.737 134.173 569.56C133.809 569.373 133.403 569.28 132.955 569.28C132.311 569.28 131.761 569.485 131.303 569.896C130.855 570.307 130.599 570.876 130.533 571.604H135.377ZM142.113 568.188C143.046 568.188 143.802 568.473 144.381 569.042C144.96 569.602 145.249 570.414 145.249 571.478V576H143.989V571.66C143.989 570.895 143.798 570.311 143.415 569.91C143.032 569.499 142.51 569.294 141.847 569.294C141.175 569.294 140.638 569.504 140.237 569.924C139.845 570.344 139.649 570.955 139.649 571.758V576H138.375V568.328H139.649V569.42C139.901 569.028 140.242 568.725 140.671 568.51C141.11 568.295 141.59 568.188 142.113 568.188ZM151.138 568.188C151.717 568.188 152.239 568.314 152.706 568.566C153.173 568.809 153.537 569.177 153.798 569.672C154.069 570.167 154.204 570.769 154.204 571.478V576H152.944V571.66C152.944 570.895 152.753 570.311 152.37 569.91C151.987 569.499 151.465 569.294 150.802 569.294C150.13 569.294 149.593 569.504 149.192 569.924C148.8 570.344 148.604 570.955 148.604 571.758V576H147.33V565.64H148.604V569.42C148.856 569.028 149.201 568.725 149.64 568.51C150.088 568.295 150.587 568.188 151.138 568.188ZM155.809 572.136C155.809 571.352 155.968 570.666 156.285 570.078C156.602 569.481 157.036 569.019 157.587 568.692C158.147 568.365 158.768 568.202 159.449 568.202C160.121 568.202 160.704 568.347 161.199 568.636C161.694 568.925 162.062 569.289 162.305 569.728V568.328H163.593V576H162.305V574.572C162.053 575.02 161.675 575.393 161.171 575.692C160.676 575.981 160.098 576.126 159.435 576.126C158.754 576.126 158.138 575.958 157.587 575.622C157.036 575.286 156.602 574.815 156.285 574.208C155.968 573.601 155.809 572.911 155.809 572.136ZM162.305 572.15C162.305 571.571 162.188 571.067 161.955 570.638C161.722 570.209 161.404 569.882 161.003 569.658C160.611 569.425 160.177 569.308 159.701 569.308C159.225 569.308 158.791 569.42 158.399 569.644C158.007 569.868 157.694 570.195 157.461 570.624C157.228 571.053 157.111 571.557 157.111 572.136C157.111 572.724 157.228 573.237 157.461 573.676C157.694 574.105 158.007 574.437 158.399 574.67C158.791 574.894 159.225 575.006 159.701 575.006C160.177 575.006 160.611 574.894 161.003 574.67C161.404 574.437 161.722 574.105 161.955 573.676C162.188 573.237 162.305 572.729 162.305 572.15Z" fill="black"/>
<rect x="24" y="311" width="336" height="47" rx="14" fill="#E9E9E9"/>
<path d="M93.2042 328.06C94.7242 328.06 96.0376 328.347 97.1442 328.92C98.2642 329.48 99.1176 330.287 99.7042 331.34C100.304 332.393 100.604 333.633 100.604 335.06C100.604 336.487 100.304 337.727 99.7042 338.78C99.1176 339.82 98.2642 340.62 97.1442 341.18C96.0376 341.727 94.7242 342 93.2042 342H88.8642V328.06H93.2042ZM93.2042 340.5C95.0042 340.5 96.3776 340.027 97.3242 339.08C98.2709 338.12 98.7442 336.78 98.7442 335.06C98.7442 333.327 98.2642 331.973 97.3042 331C96.3576 330.027 94.9909 329.54 93.2042 329.54H90.6842V340.5H93.2042ZM107.345 328.06C108.865 328.06 110.178 328.347 111.285 328.92C112.405 329.48 113.258 330.287 113.845 331.34C114.445 332.393 114.745 333.633 114.745 335.06C114.745 336.487 114.445 337.727 113.845 338.78C113.258 339.82 112.405 340.62 111.285 341.18C110.178 341.727 108.865 342 107.345 342H103.005V328.06H107.345ZM107.345 340.5C109.145 340.5 110.518 340.027 111.465 339.08C112.412 338.12 112.885 336.78 112.885 335.06C112.885 333.327 112.405 331.973 111.445 331C110.498 330.027 109.132 329.54 107.345 329.54H104.825V340.5H107.345ZM123.945 323.16L118.465 345.4H116.665L122.125 323.16H123.945ZM140.797 328.16V342H138.977V331.68L134.377 342H133.097L128.477 331.66V342H126.657V328.16H128.617L133.737 339.6L138.857 328.16H140.797ZM158.024 328.16V342H156.204V331.68L151.604 342H150.324L145.704 331.66V342H143.884V328.16H145.844L150.964 339.6L156.084 328.16H158.024ZM167.91 323.16L162.43 345.4H160.63L166.09 323.16H167.91ZM178.862 338.9H172.782L171.662 342H169.742L174.782 328.14H176.882L181.902 342H179.982L178.862 338.9ZM178.342 337.42L175.822 330.38L173.302 337.42H178.342ZM192.339 338.9H186.259L185.139 342H183.219L188.259 328.14H190.359L195.379 342H193.459L192.339 338.9ZM191.819 337.42L189.299 330.38L186.779 337.42H191.819ZM205.815 338.9H199.735L198.615 342H196.695L201.735 328.14H203.835L208.855 342H206.935L205.815 338.9ZM205.295 337.42L202.775 330.38L200.255 337.42H205.295ZM219.292 338.9H213.212L212.092 342H210.172L215.212 328.14H217.312L222.332 342H220.412L219.292 338.9ZM218.772 337.42L216.252 330.38L213.732 337.42H218.772Z" fill="black" fill-opacity="0.7"/>
<path d="M143.646 669.558V672.414H147.006V673.716H143.646V676.698H147.426V678H142.05V668.256H147.426V669.558H143.646ZM153.858 673.142L156.882 678H155.09L152.892 674.472L150.834 678H149.056L152.08 673.142L149.042 668.27H150.834L153.046 671.826L155.118 668.27H156.896L153.858 673.142ZM158.102 673.114C158.102 672.162 158.321 671.308 158.76 670.552C159.208 669.796 159.81 669.208 160.566 668.788C161.331 668.359 162.167 668.144 163.072 668.144C164.108 668.144 165.027 668.401 165.83 668.914C166.642 669.418 167.23 670.137 167.594 671.07H165.676C165.424 670.557 165.074 670.174 164.626 669.922C164.178 669.67 163.66 669.544 163.072 669.544C162.428 669.544 161.854 669.689 161.35 669.978C160.846 670.267 160.449 670.683 160.16 671.224C159.88 671.765 159.74 672.395 159.74 673.114C159.74 673.833 159.88 674.463 160.16 675.004C160.449 675.545 160.846 675.965 161.35 676.264C161.854 676.553 162.428 676.698 163.072 676.698C163.66 676.698 164.178 676.572 164.626 676.32C165.074 676.068 165.424 675.685 165.676 675.172H167.594C167.23 676.105 166.642 676.824 165.83 677.328C165.027 677.832 164.108 678.084 163.072 678.084C162.157 678.084 161.322 677.874 160.566 677.454C159.81 677.025 159.208 676.432 158.76 675.676C158.321 674.92 158.102 674.066 158.102 673.114ZM171.058 676.712H174.348V678H169.462V668.27H171.058V676.712ZM177.265 668.27V674.472C177.265 675.209 177.456 675.765 177.839 676.138C178.231 676.511 178.772 676.698 179.463 676.698C180.163 676.698 180.704 676.511 181.087 676.138C181.479 675.765 181.675 675.209 181.675 674.472V668.27H183.271V674.444C183.271 675.237 183.098 675.909 182.753 676.46C182.407 677.011 181.945 677.421 181.367 677.692C180.788 677.963 180.149 678.098 179.449 678.098C178.749 678.098 178.109 677.963 177.531 677.692C176.961 677.421 176.509 677.011 176.173 676.46C175.837 675.909 175.669 675.237 175.669 674.444V668.27H177.265ZM186.945 668.27V678H185.349V668.27H186.945ZM194.094 678L191.854 674.108H190.636V678H189.04V668.27H192.4C193.147 668.27 193.777 668.401 194.29 668.662C194.813 668.923 195.2 669.273 195.452 669.712C195.714 670.151 195.844 670.641 195.844 671.182C195.844 671.817 195.658 672.395 195.284 672.918C194.92 673.431 194.356 673.781 193.59 673.968L195.998 678H194.094ZM190.636 672.834H192.4C192.998 672.834 193.446 672.685 193.744 672.386C194.052 672.087 194.206 671.686 194.206 671.182C194.206 670.678 194.057 670.286 193.758 670.006C193.46 669.717 193.007 669.572 192.4 669.572H190.636V672.834ZM200.991 673.114C200.991 672.162 201.21 671.308 201.649 670.552C202.097 669.796 202.699 669.208 203.455 668.788C204.22 668.359 205.055 668.144 205.961 668.144C206.997 668.144 207.916 668.401 208.719 668.914C209.531 669.418 210.119 670.137 210.483 671.07H208.565C208.313 670.557 207.963 670.174 207.515 669.922C207.067 669.67 206.549 669.544 205.961 669.544C205.317 669.544 204.743 669.689 204.239 669.978C203.735 670.267 203.338 670.683 203.049 671.224C202.769 671.765 202.629 672.395 202.629 673.114C202.629 673.833 202.769 674.463 203.049 675.004C203.338 675.545 203.735 675.965 204.239 676.264C204.743 676.553 205.317 676.698 205.961 676.698C206.549 676.698 207.067 676.572 207.515 676.32C207.963 676.068 208.313 675.685 208.565 675.172H210.483C210.119 676.105 209.531 676.824 208.719 677.328C207.916 677.832 206.997 678.084 205.961 678.084C205.046 678.084 204.211 677.874 203.455 677.454C202.699 677.025 202.097 676.432 201.649 675.676C201.21 674.92 200.991 674.066 200.991 673.114ZM216.789 678.098C215.883 678.098 215.048 677.888 214.283 677.468C213.527 677.039 212.925 676.446 212.477 675.69C212.038 674.925 211.819 674.066 211.819 673.114C211.819 672.162 212.038 671.308 212.477 670.552C212.925 669.796 213.527 669.208 214.283 668.788C215.048 668.359 215.883 668.144 216.789 668.144C217.703 668.144 218.539 668.359 219.295 668.788C220.06 669.208 220.662 669.796 221.101 670.552C221.539 671.308 221.759 672.162 221.759 673.114C221.759 674.066 221.539 674.925 221.101 675.69C220.662 676.446 220.06 677.039 219.295 677.468C218.539 677.888 217.703 678.098 216.789 678.098ZM216.789 676.712C217.433 676.712 218.007 676.567 218.511 676.278C219.015 675.979 219.407 675.559 219.687 675.018C219.976 674.467 220.121 673.833 220.121 673.114C220.121 672.395 219.976 671.765 219.687 671.224C219.407 670.683 219.015 670.267 218.511 669.978C218.007 669.689 217.433 669.544 216.789 669.544C216.145 669.544 215.571 669.689 215.067 669.978C214.563 670.267 214.166 670.683 213.877 671.224C213.597 671.765 213.457 672.395 213.457 673.114C213.457 673.833 213.597 674.467 213.877 675.018C214.166 675.559 214.563 675.979 215.067 676.278C215.571 676.567 216.145 676.712 216.789 676.712ZM231.323 678H229.727L224.925 670.734V678H223.329V668.256H224.925L229.727 675.508V668.256H231.323V678ZM239.705 668.27V669.572H237.115V678H235.519V669.572H232.915V668.27H239.705ZM247.187 676.012H243.113L242.413 678H240.747L244.233 668.256H246.081L249.567 678H247.887L247.187 676.012ZM246.739 674.71L245.157 670.188L243.561 674.71H246.739Z" fill="#940000"/>
<rect x="28" y="765" width="336" height="47" rx="14" fill="black"/>
<path d="M159.095 793.52H153.855L153.015 796H149.435L154.515 781.96H158.475L163.555 796H159.935L159.095 793.52ZM158.215 790.88L156.475 785.74L154.755 790.88H158.215ZM171.321 793.1V796H169.581C168.341 796 167.375 795.7 166.681 795.1C165.988 794.487 165.641 793.493 165.641 792.12V787.68H164.281V784.84H165.641V782.12H169.061V784.84H171.301V787.68H169.061V792.16C169.061 792.493 169.141 792.733 169.301 792.88C169.461 793.027 169.728 793.1 170.101 793.1H171.321ZM184.246 784.84V796H180.826V794.48C180.48 794.973 180.006 795.373 179.406 795.68C178.82 795.973 178.166 796.12 177.446 796.12C176.593 796.12 175.84 795.933 175.186 795.56C174.533 795.173 174.026 794.62 173.666 793.9C173.306 793.18 173.126 792.333 173.126 791.36V784.84H176.526V790.9C176.526 791.647 176.72 792.227 177.106 792.64C177.493 793.053 178.013 793.26 178.666 793.26C179.333 793.26 179.86 793.053 180.246 792.64C180.633 792.227 180.826 791.647 180.826 790.9V784.84H184.246ZM186.023 790.4C186.023 789.253 186.236 788.247 186.663 787.38C187.103 786.513 187.696 785.847 188.443 785.38C189.19 784.913 190.023 784.68 190.943 784.68C191.73 784.68 192.416 784.84 193.003 785.16C193.603 785.48 194.063 785.9 194.383 786.42V784.84H197.803V796H194.383V794.42C194.05 794.94 193.583 795.36 192.983 795.68C192.396 796 191.71 796.16 190.923 796.16C190.016 796.16 189.19 795.927 188.443 795.46C187.696 794.98 187.103 794.307 186.663 793.44C186.236 792.56 186.023 791.547 186.023 790.4ZM194.383 790.42C194.383 789.567 194.143 788.893 193.663 788.4C193.196 787.907 192.623 787.66 191.943 787.66C191.263 787.66 190.683 787.907 190.203 788.4C189.736 788.88 189.503 789.547 189.503 790.4C189.503 791.253 189.736 791.933 190.203 792.44C190.683 792.933 191.263 793.18 191.943 793.18C192.623 793.18 193.196 792.933 193.663 792.44C194.143 791.947 194.383 791.273 194.383 790.42ZM203.697 781.2V796H200.277V781.2H203.697ZM207.896 783.68C207.296 783.68 206.802 783.507 206.416 783.16C206.042 782.8 205.856 782.36 205.856 781.84C205.856 781.307 206.042 780.867 206.416 780.52C206.802 780.16 207.296 779.98 207.896 779.98C208.482 779.98 208.962 780.16 209.336 780.52C209.722 780.867 209.916 781.307 209.916 781.84C209.916 782.36 209.722 782.8 209.336 783.16C208.962 783.507 208.482 783.68 207.896 783.68ZM209.596 784.84V796H206.176V784.84H209.596ZM215.274 793.18H220.114V796H211.454V793.28L216.094 787.66H211.494V784.84H220.014V787.56L215.274 793.18ZM221.316 790.4C221.316 789.253 221.529 788.247 221.956 787.38C222.396 786.513 222.989 785.847 223.736 785.38C224.483 784.913 225.316 784.68 226.236 784.68C227.023 784.68 227.709 784.84 228.296 785.16C228.896 785.48 229.356 785.9 229.676 786.42V784.84H233.096V796H229.676V794.42C229.343 794.94 228.876 795.36 228.276 795.68C227.689 796 227.003 796.16 226.216 796.16C225.309 796.16 224.483 795.927 223.736 795.46C222.989 794.98 222.396 794.307 221.956 793.44C221.529 792.56 221.316 791.547 221.316 790.4ZM229.676 790.42C229.676 789.567 229.436 788.893 228.956 788.4C228.489 787.907 227.916 787.66 227.236 787.66C226.556 787.66 225.976 787.907 225.496 788.4C225.029 788.88 224.796 789.547 224.796 790.4C224.796 791.253 225.029 791.933 225.496 792.44C225.976 792.933 226.556 793.18 227.236 793.18C227.916 793.18 228.489 792.933 228.956 792.44C229.436 791.947 229.676 791.273 229.676 790.42ZM238.99 786.7C239.39 786.087 239.89 785.607 240.49 785.26C241.09 784.9 241.757 784.72 242.49 784.72V788.34H241.55C240.697 788.34 240.057 788.527 239.63 788.9C239.203 789.26 238.99 789.9 238.99 790.82V796H235.57V784.84H238.99V786.7Z" fill="white"/>
</svg>
