<svg width="77" height="77" viewBox="0 0 77 77" fill="none" xmlns="http://www.w3.org/2000/svg">
<g clip-path="url(#clip0_17_291)">
<path d="M47.8911 29.4295C51.0228 25.3969 55.6088 20.998 61.2109 22.0496C67.2165 23.1735 69.792 30.1674 69.5965 35.5744C69.1523 48.0174 56.364 54.896 45.6069 57.2862C38.9919 58.7551 31.8333 58.7715 26.0137 62.6279C25.2357 63.1455 23.6712 61.0166 24.4198 60.5261C29.1635 57.3879 34.8627 56.6786 40.3602 55.7877C45.8577 54.8969 51.0747 53.4309 55.8898 50.7388C60.705 48.0467 64.8336 44.323 66.7146 39.1779C67.6396 36.6307 67.9409 33.8318 67.5015 31.1474C67.1201 28.8403 66.2074 26.2703 64.088 25.0067C61.5714 23.5011 58.3426 24.118 55.9334 25.4877C53.5242 26.8574 51.4372 29.0175 49.7104 31.2411C49.0664 32.0705 47.384 30.0826 47.8911 29.4295V29.4295Z" fill="black"/>
<path d="M47.7561 29.4742C48.5186 24.1336 47.3812 18.5057 44.7157 13.8018C43.4285 11.531 41.7499 9.46294 39.672 7.86597C39.1559 7.46515 38.6104 7.09138 38.0511 6.75681C37.5741 6.47778 36.8049 5.89704 36.2472 5.82955C35.6895 5.76207 34.8396 6.04932 34.285 6.22527C33.6128 6.43444 32.9865 6.74581 32.4143 7.149C30.2546 8.67091 29.3074 11.3006 28.9046 13.8212C28.4696 16.5661 28.5449 19.3749 28.6946 22.1418C28.8763 25.4487 29.2307 28.7485 29.3662 32.061C29.5017 35.3736 29.5357 38.8815 29.4537 42.2911C29.2742 49.7547 28.5418 57.1876 27.2966 64.5382C27.097 65.7209 25.2495 63.9456 25.3875 63.1221C26.562 56.2069 27.2804 49.2118 27.5077 42.1925C27.6246 38.5442 27.6138 34.888 27.4777 31.2426C27.3416 27.5972 26.9642 24.1549 26.7753 20.6098C26.6191 17.6468 26.5389 14.6181 27.12 11.6958C27.6346 9.09584 28.6956 6.43816 30.9922 4.92288C32.1132 4.1897 33.824 3.48254 35.1941 3.59093C35.8193 3.63605 36.484 4.06083 37.0333 4.35443C37.7134 4.71636 38.3705 5.11863 38.9994 5.55718C41.4659 7.25647 43.5253 9.51217 45.1638 11.9977C48.7726 17.4674 50.5824 24.3818 49.6548 30.8822C49.4869 32.0563 47.6274 30.2965 47.7457 29.4661L47.7561 29.4742Z" fill="black"/>
</g>
<defs>
<clipPath id="clip0_17_291">
<rect width="53" height="56" fill="white" transform="matrix(-0.789819 -0.61334 -0.61334 0.789819 76.2075 32.5071)"/>
</clipPath>
</defs>
</svg>
