<svg width="110" height="115" viewBox="0 0 110 115" fill="none" xmlns="http://www.w3.org/2000/svg">
<g clip-path="url(#clip0_17_285)">
<path d="M51.9739 7.01387C55.1253 7.1148 58.424 7.25608 61.31 8.69125C63.6894 9.87972 65.3724 12.0264 65.8935 14.6419C66.3284 16.8139 65.9879 19.1842 64.7091 20.9993C63.2644 23.0528 60.8038 24.2698 58.3777 24.7327C55.4054 25.3094 52.3301 24.8651 49.6046 23.519L48.3702 26.7018C55.8086 28.5787 62.8574 31.8249 69.1013 36.3099C75.3453 40.7949 80.6338 46.0959 84.2696 52.4784C85.9261 55.3949 87.1491 58.7128 87.1401 62.0876C87.1274 65.0405 86.0543 67.8843 84.3056 70.2302C80.3383 75.5597 73.8082 77.948 67.2512 77.4906C63.5043 77.2235 59.8056 76.0371 56.5107 74.2226C55.0485 73.4178 53.6526 72.4962 52.5272 71.2477C51.6258 70.2423 50.6515 68.8421 51.0423 67.4444L49.2871 69.0253C51.7595 71.5686 51.5671 75.0322 50.6685 78.1996C50.2006 79.862 49.5029 81.4624 48.7717 83.0283C47.8699 84.9458 46.8717 86.8606 45.5276 88.5108C39.5751 95.8267 28.1894 91.3524 21.8058 86.8034C17.6678 83.8511 14.2421 79.8256 11.9557 75.2951C11.261 73.9159 9.66816 76.7176 10.1206 77.665C14.3797 86.6312 23.1188 93.5886 32.9729 95.297C35.2506 95.6894 37.632 95.8075 39.8664 95.1644C42.2675 94.4687 44.2406 93.0191 45.863 91.1648C47.4854 89.3105 48.8 86.9664 49.8912 84.6719C50.835 82.6975 51.7011 80.6951 52.3497 78.6006C53.5999 74.5426 54.1581 69.4484 50.9069 66.107C50.12 65.2932 49.2825 67.19 49.1516 67.6879C47.1923 74.7897 56.9732 78.9193 62.3486 80.1526C69.4841 81.7867 77.0614 80.3261 82.4641 75.3042C87.8668 70.2823 90.4561 62.5924 88.3903 55.3207C87.3705 51.7139 85.3822 48.4068 83.1189 45.4329C80.6068 42.1295 77.6989 39.1093 74.5427 36.4129C67.3482 30.282 58.7748 25.7951 49.6034 23.5473C48.4366 23.2623 47.2653 26.1993 48.3689 26.7301C53.9399 29.4328 61.1698 28.4568 65.1363 23.5555C68.79 18.9984 69.48 10.8832 64.508 6.88742C61.1865 4.21521 56.7774 4.0059 52.7151 3.88651C51.6447 3.85767 50.6697 6.96863 51.9739 7.01387Z" fill="black"/>
</g>
<defs>
<clipPath id="clip0_17_285">
<rect width="93" height="67" fill="white" transform="translate(109.11 39.7507) rotate(126.391)"/>
</clipPath>
</defs>
</svg>
