<svg width="103" height="102" viewBox="0 0 103 102" fill="none" xmlns="http://www.w3.org/2000/svg">
<g clip-path="url(#clip0_17_287)">
<path d="M59.6506 82.9888L44.3362 83.2564L36.9258 83.381C34.3161 83.424 31.6447 83.3035 29.0497 83.5656C28.1098 83.655 28.2878 84.5474 28.6645 85.1618C29.1557 85.9643 30.1431 86.7344 31.1057 86.7863C33.7356 86.9346 36.4113 86.7389 39.0432 86.6931L46.4536 86.5685L61.7735 86.3092C62.7636 86.2944 62.5157 85.2442 62.1613 84.663C61.6869 83.8854 60.6185 82.9769 59.6423 82.9944L59.6506 82.9888Z" fill="black"/>
<path d="M62.4235 61.908C48.8244 51.2998 35.3163 40.5582 21.593 30.1058C21.1173 29.7387 19.9409 28.8666 19.3581 29.5233C18.8085 30.1577 19.7946 31.3023 20.2369 31.6557C33.7118 42.4196 47.4048 52.9165 61.0122 63.5191C61.5129 63.9055 62.7394 64.8162 63.3442 64.1206C63.9187 63.4695 62.8963 62.2529 62.4262 61.8941L62.4235 61.908Z" fill="black"/>
<path d="M79.8487 54.2218L79.4902 39.0769L79.3156 31.6279C79.2561 29.0654 79.3213 26.4553 79.0789 23.9073C78.9897 23.0395 78.0686 22.2248 77.3655 21.8418C77.0014 21.6407 75.6682 21.127 75.6242 21.9759C75.4868 24.5502 75.674 27.1594 75.739 29.7302L75.9137 37.1792L76.2731 52.5765C76.3059 53.952 79.8979 56.2491 79.8543 54.2301L79.8487 54.2218Z" fill="black"/>
</g>
<defs>
<clipPath id="clip0_17_287">
<rect width="70.96" height="76.21" fill="white" transform="translate(39.5804 101.405) rotate(-123.903)"/>
</clipPath>
</defs>
</svg>
