<svg width="101" height="65" viewBox="0 0 101 65" fill="none" xmlns="http://www.w3.org/2000/svg">
<g clip-path="url(#clip0_17_296)">
<path d="M0.3731 61.533C13.6708 68.1701 29.3989 64.4498 41.7071 57.376C48.0261 53.7431 53.7809 49.1932 59.3534 44.5035C65.3252 39.482 71.1061 34.2247 76.6786 28.7579C82.8848 22.6797 89.0389 16.4006 94.5246 9.64998C95.002 9.06486 94.2382 8.69808 93.7695 8.63694C93.0664 8.54961 91.9901 8.77667 91.4866 9.32685C86.4783 14.8025 81.5568 20.3392 76.3141 25.5965C71.1321 30.7927 65.7766 35.8054 60.2475 40.6173C49.9964 49.5338 38.8253 58.9305 25.2759 61.9696C17.9327 63.6201 10.086 63.1224 3.28957 59.7339C2.52573 59.3497 1.37998 59.6379 0.685579 60.0833C0.190821 60.3977 -0.425456 61.1312 0.36442 61.5242H0.3731V61.533Z" fill="black"/>
<path d="M77.677 13.021C84.2564 8.7243 91.1396 4.91669 98.2919 1.65927L96.0698 1.62434C96.6253 2.03479 97.1721 2.45398 97.7277 2.8557L97.6061 2.40158C95.4361 8.27891 92.9103 13.9903 90.0719 19.5707C89.3515 20.9855 92.6499 20.6012 93.1533 19.6406C96.1566 13.9379 98.7519 8.02566 100.983 1.97366C101.026 1.799 100.983 1.65054 100.861 1.51954C100.306 1.10909 99.7414 0.698637 99.1859 0.288184C98.5609 -0.165934 97.6322 -0.0524048 96.9638 0.253252C89.5772 3.64167 82.4422 7.5628 75.6285 12.0167C75.1511 12.331 74.6911 12.9074 75.342 13.3091C75.993 13.7109 77.1214 13.3615 77.677 12.9948V13.021Z" fill="black"/>
</g>
<defs>
<clipPath id="clip0_17_296">
<rect width="101" height="65" fill="white"/>
</clipPath>
</defs>
</svg>
